<?xml version="1.0" encoding="UTF-8" standalone="no"?>
<!DOCTYPE svg PUBLIC "-//W3C//DTD SVG 1.1//EN"
 "http://www.w3.org/Graphics/SVG/1.1/DTD/svg11.dtd">
<!-- Generated by graphviz version 2.40.1 (20161225.0304)
 -->
<!-- Title: G Pages: 1 -->
<svg width="257pt" height="111pt"
 viewBox="0.00 0.00 257.09 111.45" xmlns="http://www.w3.org/2000/svg" xmlns:xlink="http://www.w3.org/1999/xlink">
<g id="graph0" class="graph" transform="scale(1 1) rotate(0) translate(21.6 89.8485)">
<title>G</title>
<polygon fill="#111111" stroke="transparent" points="-21.6,21.6 -21.6,-89.8485 235.4911,-89.8485 235.4911,21.6 -21.6,21.6"/>
<!-- me/index.ts -->
<g id="node1" class="node">
<title>me/index.ts</title>
<path fill="none" stroke="#c6c5fe" d="M84.0495,-46.374C84.0495,-46.374 8.6498,-46.374 8.6498,-46.374 4.3998,-46.374 .1499,-42.1241 .1499,-37.8742 .1499,-37.8742 .1499,-29.3743 .1499,-29.3743 .1499,-25.1244 4.3998,-20.8745 8.6498,-20.8745 8.6498,-20.8745 84.0495,-20.8745 84.0495,-20.8745 88.2994,-20.8745 92.5493,-25.1244 92.5493,-29.3743 92.5493,-29.3743 92.5493,-37.8742 92.5493,-37.8742 92.5493,-42.1241 88.2994,-46.374 84.0495,-46.374"/>
<text text-anchor="middle" x="46.3496" y="-30.2485" font-family="Arial" font-size="15.00" fill="#c6c5fe">me/index.ts</text>
</g>
<!-- me/me.ts -->
<g id="node2" class="node">
<title>me/me.ts</title>
<path fill="none" stroke="#cfffac" d="M201.4732,-68.374C201.4732,-68.374 141.1171,-68.374 141.1171,-68.374 136.8672,-68.374 132.6173,-64.1241 132.6173,-59.8742 132.6173,-59.8742 132.6173,-51.3743 132.6173,-51.3743 132.6173,-47.1244 136.8672,-42.8745 141.1171,-42.8745 141.1171,-42.8745 201.4732,-42.8745 201.4732,-42.8745 205.7232,-42.8745 209.9731,-47.1244 209.9731,-51.3743 209.9731,-51.3743 209.9731,-59.8742 209.9731,-59.8742 209.9731,-64.1241 205.7232,-68.374 201.4732,-68.374"/>
<text text-anchor="middle" x="171.2952" y="-52.2485" font-family="Arial" font-size="15.00" fill="#cfffac">me/me.ts</text>
</g>
<!-- me/index.ts&#45;&gt;me/me.ts -->
<g id="edge1" class="edge">
<title>me/index.ts&#45;&gt;me/me.ts</title>
<path fill="none" stroke="#757575" d="M92.8747,-41.8163C102.5557,-43.5209 112.7843,-45.3219 122.543,-47.0402"/>
<polygon fill="#757575" stroke="#757575" points="122.0444,-50.5061 132.4999,-48.7933 123.2584,-43.6122 122.0444,-50.5061"/>
</g>
<!-- me/type.ts -->
<g id="node3" class="node">
<title>me/type.ts</title>
<path fill="none" stroke="#cfffac" d="M205.4874,-25.374C205.4874,-25.374 137.1029,-25.374 137.1029,-25.374 132.853,-25.374 128.6031,-21.1241 128.6031,-16.8742 128.6031,-16.8742 128.6031,-8.3743 128.6031,-8.3743 128.6031,-4.1244 132.853,.1255 137.1029,.1255 137.1029,.1255 205.4874,.1255 205.4874,.1255 209.7374,.1255 213.9873,-4.1244 213.9873,-8.3743 213.9873,-8.3743 213.9873,-16.8742 213.9873,-16.8742 213.9873,-21.1241 209.7374,-25.374 205.4874,-25.374"/>
<text text-anchor="middle" x="171.2952" y="-9.2485" font-family="Arial" font-size="15.00" fill="#cfffac">me/type.ts</text>
</g>
<!-- me/index.ts&#45;&gt;me/type.ts -->
<g id="edge2" class="edge">
<title>me/index.ts&#45;&gt;me/type.ts</title>
<path fill="none" stroke="#757575" d="M92.8747,-25.8046C101.2526,-24.3965 110.0407,-22.9195 118.5793,-21.4844"/>
<polygon fill="#757575" stroke="#757575" points="119.1674,-24.9347 128.449,-19.8256 118.0071,-18.0315 119.1674,-24.9347"/>
</g>
</g>
</svg>
