<?xml version="1.0" encoding="UTF-8" standalone="no"?>
<!DOCTYPE svg PUBLIC "-//W3C//DTD SVG 1.1//EN"
 "http://www.w3.org/Graphics/SVG/1.1/DTD/svg11.dtd">
<!-- Generated by graphviz version 2.40.1 (20161225.0304)
 -->
<!-- Title: G Pages: 1 -->
<svg width="2551pt" height="428pt"
 viewBox="0.00 0.00 2551.32 428.45" xmlns="http://www.w3.org/2000/svg" xmlns:xlink="http://www.w3.org/1999/xlink">
<g id="graph0" class="graph" transform="scale(1 1) rotate(0) translate(21.6 406.8485)">
<title>G</title>
<polygon fill="#111111" stroke="transparent" points="-21.6,21.6 -21.6,-406.8485 2529.7196,-406.8485 2529.7196,21.6 -21.6,21.6"/>
<!-- ../src/domain/me/index.ts -->
<g id="node1" class="node">
<title>../src/domain/me/index.ts</title>
<path fill="none" stroke="#c6c5fe" d="M931.6991,-279.374C931.6991,-279.374 766.2413,-279.374 766.2413,-279.374 761.9914,-279.374 757.7415,-275.1241 757.7415,-270.8742 757.7415,-270.8742 757.7415,-262.3743 757.7415,-262.3743 757.7415,-258.1244 761.9914,-253.8745 766.2413,-253.8745 766.2413,-253.8745 931.6991,-253.8745 931.6991,-253.8745 935.949,-253.8745 940.1989,-258.1244 940.1989,-262.3743 940.1989,-262.3743 940.1989,-270.8742 940.1989,-270.8742 940.1989,-275.1241 935.949,-279.374 931.6991,-279.374"/>
<text text-anchor="middle" x="848.9702" y="-263.2485" font-family="Arial" font-size="15.00" fill="#c6c5fe">../src/domain/me/index.ts</text>
</g>
<!-- ../src/domain/me/me.ts -->
<g id="node2" class="node">
<title>../src/domain/me/me.ts</title>
<path fill="none" stroke="#cfffac" d="M1362.592,-302.374C1362.592,-302.374 1212.1781,-302.374 1212.1781,-302.374 1207.9281,-302.374 1203.6782,-298.1241 1203.6782,-293.8742 1203.6782,-293.8742 1203.6782,-285.3743 1203.6782,-285.3743 1203.6782,-281.1244 1207.9281,-276.8745 1212.1781,-276.8745 1212.1781,-276.8745 1362.592,-276.8745 1362.592,-276.8745 1366.8419,-276.8745 1371.0918,-281.1244 1371.0918,-285.3743 1371.0918,-285.3743 1371.0918,-293.8742 1371.0918,-293.8742 1371.0918,-298.1241 1366.8419,-302.374 1362.592,-302.374"/>
<text text-anchor="middle" x="1287.385" y="-286.2485" font-family="Arial" font-size="15.00" fill="#cfffac">../src/domain/me/me.ts</text>
</g>
<!-- ../src/domain/me/index.ts&#45;&gt;../src/domain/me/me.ts -->
<g id="edge1" class="edge">
<title>../src/domain/me/index.ts&#45;&gt;../src/domain/me/me.ts</title>
<path fill="none" stroke="#757575" d="M940.3427,-271.4178C1014.403,-275.3032 1118.3881,-280.7584 1193.1943,-284.6829"/>
<polygon fill="#757575" stroke="#757575" points="1193.3804,-288.1973 1203.55,-285.2261 1193.7471,-281.207 1193.3804,-288.1973"/>
</g>
<!-- ../src/domain/me/type.ts -->
<g id="node3" class="node">
<title>../src/domain/me/type.ts</title>
<path fill="none" stroke="#cfffac" d="M1366.6065,-259.374C1366.6065,-259.374 1208.1635,-259.374 1208.1635,-259.374 1203.9136,-259.374 1199.6637,-255.1241 1199.6637,-250.8742 1199.6637,-250.8742 1199.6637,-242.3743 1199.6637,-242.3743 1199.6637,-238.1244 1203.9136,-233.8745 1208.1635,-233.8745 1208.1635,-233.8745 1366.6065,-233.8745 1366.6065,-233.8745 1370.8564,-233.8745 1375.1063,-238.1244 1375.1063,-242.3743 1375.1063,-242.3743 1375.1063,-250.8742 1375.1063,-250.8742 1375.1063,-255.1241 1370.8564,-259.374 1366.6065,-259.374"/>
<text text-anchor="middle" x="1287.385" y="-243.2485" font-family="Arial" font-size="15.00" fill="#cfffac">../src/domain/me/type.ts</text>
</g>
<!-- ../src/domain/me/index.ts&#45;&gt;../src/domain/me/type.ts -->
<g id="edge2" class="edge">
<title>../src/domain/me/index.ts&#45;&gt;../src/domain/me/type.ts</title>
<path fill="none" stroke="#757575" d="M940.3427,-262.456C1013.0848,-259.1375 1114.6958,-254.5022 1189.1724,-251.1046"/>
<polygon fill="#757575" stroke="#757575" points="1189.6654,-254.5859 1199.4955,-250.6337 1189.3463,-247.5931 1189.6654,-254.5859"/>
</g>
<!-- ../src/externalInterface/api/http/client/client.ts -->
<g id="node4" class="node">
<title>../src/externalInterface/api/http/client/client.ts</title>
<path fill="none" stroke="#cfffac" d="M2499.6056,-90.374C2499.6056,-90.374 2204.662,-90.374 2204.662,-90.374 2200.412,-90.374 2196.1621,-86.1241 2196.1621,-81.8742 2196.1621,-81.8742 2196.1621,-73.3743 2196.1621,-73.3743 2196.1621,-69.1244 2200.412,-64.8745 2204.662,-64.8745 2204.662,-64.8745 2499.6056,-64.8745 2499.6056,-64.8745 2503.8555,-64.8745 2508.1055,-69.1244 2508.1055,-73.3743 2508.1055,-73.3743 2508.1055,-81.8742 2508.1055,-81.8742 2508.1055,-86.1241 2503.8555,-90.374 2499.6056,-90.374"/>
<text text-anchor="middle" x="2352.1338" y="-74.2485" font-family="Arial" font-size="15.00" fill="#cfffac">../src/externalInterface/api/http/client/client.ts</text>
</g>
<!-- ../src/externalInterface/api/http/client/index.ts -->
<g id="node5" class="node">
<title>../src/externalInterface/api/http/client/index.ts</title>
<path fill="none" stroke="#c6c5fe" d="M2151.5551,-90.374C2151.5551,-90.374 1855.9268,-90.374 1855.9268,-90.374 1851.6769,-90.374 1847.4269,-86.1241 1847.4269,-81.8742 1847.4269,-81.8742 1847.4269,-73.3743 1847.4269,-73.3743 1847.4269,-69.1244 1851.6769,-64.8745 1855.9268,-64.8745 1855.9268,-64.8745 2151.5551,-64.8745 2151.5551,-64.8745 2155.8051,-64.8745 2160.055,-69.1244 2160.055,-73.3743 2160.055,-73.3743 2160.055,-81.8742 2160.055,-81.8742 2160.055,-86.1241 2155.8051,-90.374 2151.5551,-90.374"/>
<text text-anchor="middle" x="2003.741" y="-74.2485" font-family="Arial" font-size="15.00" fill="#c6c5fe">../src/externalInterface/api/http/client/index.ts</text>
</g>
<!-- ../src/externalInterface/api/http/client/index.ts&#45;&gt;../src/externalInterface/api/http/client/client.ts -->
<g id="edge3" class="edge">
<title>../src/externalInterface/api/http/client/index.ts&#45;&gt;../src/externalInterface/api/http/client/client.ts</title>
<path fill="none" stroke="#757575" d="M2160.1033,-77.6243C2168.6844,-77.6243 2177.3238,-77.6243 2185.9372,-77.6243"/>
<polygon fill="#757575" stroke="#757575" points="2186.0314,-81.1244 2196.0314,-77.6243 2186.0314,-74.1244 2186.0314,-81.1244"/>
</g>
<!-- ../src/externalInterface/api/http/client/util.ts -->
<g id="node6" class="node">
<title>../src/externalInterface/api/http/client/util.ts</title>
<path fill="none" stroke="#cfffac" d="M2143.3705,-47.374C2143.3705,-47.374 1864.1114,-47.374 1864.1114,-47.374 1859.8615,-47.374 1855.6115,-43.1241 1855.6115,-38.8742 1855.6115,-38.8742 1855.6115,-30.3743 1855.6115,-30.3743 1855.6115,-26.1244 1859.8615,-21.8745 1864.1114,-21.8745 1864.1114,-21.8745 2143.3705,-21.8745 2143.3705,-21.8745 2147.6205,-21.8745 2151.8704,-26.1244 2151.8704,-30.3743 2151.8704,-30.3743 2151.8704,-38.8742 2151.8704,-38.8742 2151.8704,-43.1241 2147.6205,-47.374 2143.3705,-47.374"/>
<text text-anchor="middle" x="2003.741" y="-31.2485" font-family="Arial" font-size="15.00" fill="#cfffac">../src/externalInterface/api/http/client/util.ts</text>
</g>
<!-- ../src/externalInterface/api/http/me/index.ts -->
<g id="node7" class="node">
<title>../src/externalInterface/api/http/me/index.ts</title>
<path fill="none" stroke="#c6c5fe" d="M1428.0197,-68.374C1428.0197,-68.374 1146.7504,-68.374 1146.7504,-68.374 1142.5004,-68.374 1138.2505,-64.1241 1138.2505,-59.8742 1138.2505,-59.8742 1138.2505,-51.3743 1138.2505,-51.3743 1138.2505,-47.1244 1142.5004,-42.8745 1146.7504,-42.8745 1146.7504,-42.8745 1428.0197,-42.8745 1428.0197,-42.8745 1432.2696,-42.8745 1436.5195,-47.1244 1436.5195,-51.3743 1436.5195,-51.3743 1436.5195,-59.8742 1436.5195,-59.8742 1436.5195,-64.1241 1432.2696,-68.374 1428.0197,-68.374"/>
<text text-anchor="middle" x="1287.385" y="-52.2485" font-family="Arial" font-size="15.00" fill="#c6c5fe">../src/externalInterface/api/http/me/index.ts</text>
</g>
<!-- ../src/externalInterface/api/http/me/me.ts -->
<g id="node8" class="node">
<title>../src/externalInterface/api/http/me/me.ts</title>
<path fill="none" stroke="#c6c5fe" d="M1802.6406,-68.374C1802.6406,-68.374 1536.4151,-68.374 1536.4151,-68.374 1532.1652,-68.374 1527.9153,-64.1241 1527.9153,-59.8742 1527.9153,-59.8742 1527.9153,-51.3743 1527.9153,-51.3743 1527.9153,-47.1244 1532.1652,-42.8745 1536.4151,-42.8745 1536.4151,-42.8745 1802.6406,-42.8745 1802.6406,-42.8745 1806.8905,-42.8745 1811.1404,-47.1244 1811.1404,-51.3743 1811.1404,-51.3743 1811.1404,-59.8742 1811.1404,-59.8742 1811.1404,-64.1241 1806.8905,-68.374 1802.6406,-68.374"/>
<text text-anchor="middle" x="1669.5278" y="-52.2485" font-family="Arial" font-size="15.00" fill="#c6c5fe">../src/externalInterface/api/http/me/me.ts</text>
</g>
<!-- ../src/externalInterface/api/http/me/index.ts&#45;&gt;../src/externalInterface/api/http/me/me.ts -->
<g id="edge4" class="edge">
<title>../src/externalInterface/api/http/me/index.ts&#45;&gt;../src/externalInterface/api/http/me/me.ts</title>
<path fill="none" stroke="#757575" d="M1436.7732,-55.6243C1463.3172,-55.6243 1490.9894,-55.6243 1517.6029,-55.6243"/>
<polygon fill="#757575" stroke="#757575" points="1517.7464,-59.1244 1527.7464,-55.6243 1517.7463,-52.1244 1517.7464,-59.1244"/>
</g>
<!-- ../src/externalInterface/api/http/me/me.ts&#45;&gt;../src/externalInterface/api/http/client/index.ts -->
<g id="edge5" class="edge">
<title>../src/externalInterface/api/http/me/me.ts&#45;&gt;../src/externalInterface/api/http/client/index.ts</title>
<path fill="none" stroke="#757575" d="M1811.2643,-64.9542C1819.8318,-65.5182 1828.4903,-66.0882 1837.147,-66.658"/>
<polygon fill="#757575" stroke="#757575" points="1837.0945,-70.162 1847.3029,-67.3265 1837.5544,-63.1772 1837.0945,-70.162"/>
</g>
<!-- ../src/externalInterface/api/http/me/me.ts&#45;&gt;../src/externalInterface/api/http/client/util.ts -->
<g id="edge6" class="edge">
<title>../src/externalInterface/api/http/me/me.ts&#45;&gt;../src/externalInterface/api/http/client/util.ts</title>
<path fill="none" stroke="#757575" d="M1811.2643,-46.7184C1822.6165,-46.0051 1834.1286,-45.2817 1845.5844,-44.5619"/>
<polygon fill="#757575" stroke="#757575" points="1845.871,-48.0509 1855.6318,-43.9306 1845.4319,-41.0647 1845.871,-48.0509"/>
</g>
<!-- ../src/gateway/me/index.ts -->
<g id="node9" class="node">
<title>../src/gateway/me/index.ts</title>
<path fill="none" stroke="#c6c5fe" d="M470.2784,-68.374C470.2784,-68.374 297.4755,-68.374 297.4755,-68.374 293.2256,-68.374 288.9756,-64.1241 288.9756,-59.8742 288.9756,-59.8742 288.9756,-51.3743 288.9756,-51.3743 288.9756,-47.1244 293.2256,-42.8745 297.4755,-42.8745 297.4755,-42.8745 470.2784,-42.8745 470.2784,-42.8745 474.5283,-42.8745 478.7783,-47.1244 478.7783,-51.3743 478.7783,-51.3743 478.7783,-59.8742 478.7783,-59.8742 478.7783,-64.1241 474.5283,-68.374 470.2784,-68.374"/>
<text text-anchor="middle" x="383.877" y="-52.2485" font-family="Arial" font-size="15.00" fill="#c6c5fe">../src/gateway/me/index.ts</text>
</g>
<!-- ../src/gateway/me/me.ts -->
<g id="node10" class="node">
<title>../src/gateway/me/me.ts</title>
<path fill="none" stroke="#c6c5fe" d="M927.8497,-68.374C927.8497,-68.374 770.0907,-68.374 770.0907,-68.374 765.8408,-68.374 761.5909,-64.1241 761.5909,-59.8742 761.5909,-59.8742 761.5909,-51.3743 761.5909,-51.3743 761.5909,-47.1244 765.8408,-42.8745 770.0907,-42.8745 770.0907,-42.8745 927.8497,-42.8745 927.8497,-42.8745 932.0996,-42.8745 936.3495,-47.1244 936.3495,-51.3743 936.3495,-51.3743 936.3495,-59.8742 936.3495,-59.8742 936.3495,-64.1241 932.0996,-68.374 927.8497,-68.374"/>
<text text-anchor="middle" x="848.9702" y="-52.2485" font-family="Arial" font-size="15.00" fill="#c6c5fe">../src/gateway/me/me.ts</text>
</g>
<!-- ../src/gateway/me/index.ts&#45;&gt;../src/gateway/me/me.ts -->
<g id="edge7" class="edge">
<title>../src/gateway/me/index.ts&#45;&gt;../src/gateway/me/me.ts</title>
<path fill="none" stroke="#757575" d="M478.8368,-55.6243C558.329,-55.6243 671.3148,-55.6243 751.5014,-55.6243"/>
<polygon fill="#757575" stroke="#757575" points="751.6049,-59.1244 761.6049,-55.6243 751.6049,-52.1244 751.6049,-59.1244"/>
</g>
<!-- ../src/gateway/me/me.ts&#45;&gt;../src/externalInterface/api/http/me/index.ts -->
<g id="edge8" class="edge">
<title>../src/gateway/me/me.ts&#45;&gt;../src/externalInterface/api/http/me/index.ts</title>
<path fill="none" stroke="#757575" d="M936.3735,-55.6243C991.0287,-55.6243 1063.0715,-55.6243 1127.6606,-55.6243"/>
<polygon fill="#757575" stroke="#757575" points="1127.9589,-59.1244 1137.9589,-55.6243 1127.9589,-52.1244 1127.9589,-59.1244"/>
</g>
<!-- ../src/presenter/components/ecosystem/Me/ComponentSelector.tsx -->
<g id="node11" class="node">
<title>../src/presenter/components/ecosystem/Me/ComponentSelector.tsx</title>
<path fill="none" stroke="#c6c5fe" d="M606.4074,-197.374C606.4074,-197.374 161.3465,-197.374 161.3465,-197.374 157.0966,-197.374 152.8467,-193.1241 152.8467,-188.8742 152.8467,-188.8742 152.8467,-180.3743 152.8467,-180.3743 152.8467,-176.1244 157.0966,-171.8745 161.3465,-171.8745 161.3465,-171.8745 606.4074,-171.8745 606.4074,-171.8745 610.6573,-171.8745 614.9072,-176.1244 614.9072,-180.3743 614.9072,-180.3743 614.9072,-188.8742 614.9072,-188.8742 614.9072,-193.1241 610.6573,-197.374 606.4074,-197.374"/>
<text text-anchor="middle" x="383.877" y="-181.2485" font-family="Arial" font-size="15.00" fill="#c6c5fe">../src/presenter/components/ecosystem/Me/ComponentSelector.tsx</text>
</g>
<!-- ../src/presenter/components/ecosystem/Me/ComponentSelector.tsx&#45;&gt;../src/domain/me/index.ts -->
<g id="edge9" class="edge">
<title>../src/presenter/components/ecosystem/Me/ComponentSelector.tsx&#45;&gt;../src/domain/me/index.ts</title>
<path fill="none" stroke="#757575" d="M447.6768,-197.2842C494.099,-206.5739 558.4471,-219.6118 614.8921,-231.6243 630.9234,-235.036 634.7581,-236.7371 650.8921,-239.6243 682.1821,-245.2235 716.4363,-250.2722 747.5288,-254.4476"/>
<polygon fill="#757575" stroke="#757575" points="747.1312,-257.9254 757.5049,-255.7722 748.0526,-250.9863 747.1312,-257.9254"/>
</g>
<!-- ../src/presenter/components/ecosystem/Me/Content.tsx -->
<g id="node12" class="node">
<title>../src/presenter/components/ecosystem/Me/Content.tsx</title>
<path fill="none" stroke="#c6c5fe" d="M1031.7893,-197.374C1031.7893,-197.374 666.1512,-197.374 666.1512,-197.374 661.9012,-197.374 657.6513,-193.1241 657.6513,-188.8742 657.6513,-188.8742 657.6513,-180.3743 657.6513,-180.3743 657.6513,-176.1244 661.9012,-171.8745 666.1512,-171.8745 666.1512,-171.8745 1031.7893,-171.8745 1031.7893,-171.8745 1036.0392,-171.8745 1040.2891,-176.1244 1040.2891,-180.3743 1040.2891,-180.3743 1040.2891,-188.8742 1040.2891,-188.8742 1040.2891,-193.1241 1036.0392,-197.374 1031.7893,-197.374"/>
<text text-anchor="middle" x="848.9702" y="-181.2485" font-family="Arial" font-size="15.00" fill="#c6c5fe">../src/presenter/components/ecosystem/Me/Content.tsx</text>
</g>
<!-- ../src/presenter/components/ecosystem/Me/ComponentSelector.tsx&#45;&gt;../src/presenter/components/ecosystem/Me/Content.tsx -->
<g id="edge10" class="edge">
<title>../src/presenter/components/ecosystem/Me/ComponentSelector.tsx&#45;&gt;../src/presenter/components/ecosystem/Me/Content.tsx</title>
<path fill="none" stroke="#757575" d="M615.061,-184.6243C625.8589,-184.6243 636.6607,-184.6243 647.3733,-184.6243"/>
<polygon fill="#757575" stroke="#757575" points="647.6138,-188.1244 657.6137,-184.6243 647.6137,-181.1244 647.6138,-188.1244"/>
</g>
<!-- ../src/presenter/components/ecosystem/Me/Exception.tsx -->
<g id="node13" class="node">
<title>../src/presenter/components/ecosystem/Me/Exception.tsx</title>
<path fill="none" stroke="#cfffac" d="M1038.6266,-154.374C1038.6266,-154.374 659.3138,-154.374 659.3138,-154.374 655.0639,-154.374 650.8139,-150.1241 650.8139,-145.8742 650.8139,-145.8742 650.8139,-137.3743 650.8139,-137.3743 650.8139,-133.1244 655.0639,-128.8745 659.3138,-128.8745 659.3138,-128.8745 1038.6266,-128.8745 1038.6266,-128.8745 1042.8766,-128.8745 1047.1265,-133.1244 1047.1265,-137.3743 1047.1265,-137.3743 1047.1265,-145.8742 1047.1265,-145.8742 1047.1265,-150.1241 1042.8766,-154.374 1038.6266,-154.374"/>
<text text-anchor="middle" x="848.9702" y="-138.2485" font-family="Arial" font-size="15.00" fill="#cfffac">../src/presenter/components/ecosystem/Me/Exception.tsx</text>
</g>
<!-- ../src/presenter/components/ecosystem/Me/ComponentSelector.tsx&#45;&gt;../src/presenter/components/ecosystem/Me/Exception.tsx -->
<g id="edge11" class="edge">
<title>../src/presenter/components/ecosystem/Me/ComponentSelector.tsx&#45;&gt;../src/presenter/components/ecosystem/Me/Exception.tsx</title>
<path fill="none" stroke="#757575" d="M520.5911,-171.9844C577.7191,-166.7027 644.1993,-160.5563 702.3415,-155.1808"/>
<polygon fill="#757575" stroke="#757575" points="702.7098,-158.6617 712.3451,-154.2559 702.0653,-151.6915 702.7098,-158.6617"/>
</g>
<!-- ../src/useCase/useMe/type.ts -->
<g id="node14" class="node">
<title>../src/useCase/useMe/type.ts</title>
<path fill="none" stroke="#cfffac" d="M1383.7962,-197.374C1383.7962,-197.374 1190.9738,-197.374 1190.9738,-197.374 1186.7239,-197.374 1182.474,-193.1241 1182.474,-188.8742 1182.474,-188.8742 1182.474,-180.3743 1182.474,-180.3743 1182.474,-176.1244 1186.7239,-171.8745 1190.9738,-171.8745 1190.9738,-171.8745 1383.7962,-171.8745 1383.7962,-171.8745 1388.0461,-171.8745 1392.2961,-176.1244 1392.2961,-180.3743 1392.2961,-180.3743 1392.2961,-188.8742 1392.2961,-188.8742 1392.2961,-193.1241 1388.0461,-197.374 1383.7962,-197.374"/>
<text text-anchor="middle" x="1287.385" y="-181.2485" font-family="Arial" font-size="15.00" fill="#cfffac">../src/useCase/useMe/type.ts</text>
</g>
<!-- ../src/presenter/components/ecosystem/Me/ComponentSelector.tsx&#45;&gt;../src/useCase/useMe/type.ts -->
<g id="edge12" class="edge">
<title>../src/presenter/components/ecosystem/Me/ComponentSelector.tsx&#45;&gt;../src/useCase/useMe/type.ts</title>
<path fill="none" stroke="#757575" d="M511.0766,-197.251C555.2884,-201.0694 605.2308,-204.7464 650.8921,-206.6243 826.8128,-213.8593 871.1623,-214.6576 1047.0483,-206.6243 1088.0459,-204.7518 1132.8547,-201.0915 1172.5565,-197.2856"/>
<polygon fill="#757575" stroke="#757575" points="1172.9202,-200.7669 1182.5347,-196.3159 1172.243,-193.7997 1172.9202,-200.7669"/>
</g>
<!-- ../src/presenter/components/ecosystem/Me/Content.tsx&#45;&gt;../src/useCase/useMe/type.ts -->
<g id="edge13" class="edge">
<title>../src/presenter/components/ecosystem/Me/Content.tsx&#45;&gt;../src/useCase/useMe/type.ts</title>
<path fill="none" stroke="#757575" d="M1040.3087,-184.6243C1085.3729,-184.6243 1132.0342,-184.6243 1172.5072,-184.6243"/>
<polygon fill="#757575" stroke="#757575" points="1172.6589,-188.1244 1182.6589,-184.6243 1172.6588,-181.1244 1172.6589,-188.1244"/>
</g>
<!-- ../src/presenter/components/ecosystem/Me/Me.tsx -->
<g id="node15" class="node">
<title>../src/presenter/components/ecosystem/Me/Me.tsx</title>
<path fill="none" stroke="#c6c5fe" d="M1016.09,-25.374C1016.09,-25.374 681.8504,-25.374 681.8504,-25.374 677.6005,-25.374 673.3506,-21.1241 673.3506,-16.8742 673.3506,-16.8742 673.3506,-8.3743 673.3506,-8.3743 673.3506,-4.1244 677.6005,.1255 681.8504,.1255 681.8504,.1255 1016.09,.1255 1016.09,.1255 1020.3399,.1255 1024.5899,-4.1244 1024.5899,-8.3743 1024.5899,-8.3743 1024.5899,-16.8742 1024.5899,-16.8742 1024.5899,-21.1241 1020.3399,-25.374 1016.09,-25.374"/>
<text text-anchor="middle" x="848.9702" y="-9.2485" font-family="Arial" font-size="15.00" fill="#c6c5fe">../src/presenter/components/ecosystem/Me/Me.tsx</text>
</g>
<!-- ../src/presenter/components/ecosystem/Me/Placeholder.tsx -->
<g id="node16" class="node">
<title>../src/presenter/components/ecosystem/Me/Placeholder.tsx</title>
<path fill="none" stroke="#cfffac" d="M1483.0586,-25.374C1483.0586,-25.374 1091.7114,-25.374 1091.7114,-25.374 1087.4615,-25.374 1083.2115,-21.1241 1083.2115,-16.8742 1083.2115,-16.8742 1083.2115,-8.3743 1083.2115,-8.3743 1083.2115,-4.1244 1087.4615,.1255 1091.7114,.1255 1091.7114,.1255 1483.0586,.1255 1483.0586,.1255 1487.3086,.1255 1491.5585,-4.1244 1491.5585,-8.3743 1491.5585,-8.3743 1491.5585,-16.8742 1491.5585,-16.8742 1491.5585,-21.1241 1487.3086,-25.374 1483.0586,-25.374"/>
<text text-anchor="middle" x="1287.385" y="-9.2485" font-family="Arial" font-size="15.00" fill="#cfffac">../src/presenter/components/ecosystem/Me/Placeholder.tsx</text>
</g>
<!-- ../src/presenter/components/ecosystem/Me/Me.tsx&#45;&gt;../src/presenter/components/ecosystem/Me/Placeholder.tsx -->
<g id="edge14" class="edge">
<title>../src/presenter/components/ecosystem/Me/Me.tsx&#45;&gt;../src/presenter/components/ecosystem/Me/Placeholder.tsx</title>
<path fill="none" stroke="#757575" d="M1024.7642,-12.6243C1040.6451,-12.6243 1056.8427,-12.6243 1073.0053,-12.6243"/>
<polygon fill="#757575" stroke="#757575" points="1073.0612,-16.1244 1083.0612,-12.6243 1073.0611,-9.1244 1073.0612,-16.1244"/>
</g>
<!-- ../src/presenter/components/ecosystem/Me/index.ts -->
<g id="node17" class="node">
<title>../src/presenter/components/ecosystem/Me/index.ts</title>
<path fill="none" stroke="#c6c5fe" d="M554.5189,-25.374C554.5189,-25.374 213.235,-25.374 213.235,-25.374 208.9851,-25.374 204.7352,-21.1241 204.7352,-16.8742 204.7352,-16.8742 204.7352,-8.3743 204.7352,-8.3743 204.7352,-4.1244 208.9851,.1255 213.235,.1255 213.235,.1255 554.5189,.1255 554.5189,.1255 558.7688,.1255 563.0187,-4.1244 563.0187,-8.3743 563.0187,-8.3743 563.0187,-16.8742 563.0187,-16.8742 563.0187,-21.1241 558.7688,-25.374 554.5189,-25.374"/>
<text text-anchor="middle" x="383.877" y="-9.2485" font-family="Arial" font-size="15.00" fill="#c6c5fe">../src/presenter/components/ecosystem/Me/index.ts</text>
</g>
<!-- ../src/presenter/components/ecosystem/Me/index.ts&#45;&gt;../src/presenter/components/ecosystem/Me/Me.tsx -->
<g id="edge15" class="edge">
<title>../src/presenter/components/ecosystem/Me/index.ts&#45;&gt;../src/presenter/components/ecosystem/Me/Me.tsx</title>
<path fill="none" stroke="#757575" d="M563.0289,-12.6243C595.8435,-12.6243 630.1576,-12.6243 663.1617,-12.6243"/>
<polygon fill="#757575" stroke="#757575" points="663.3592,-16.1244 673.3591,-12.6243 663.3591,-9.1244 663.3592,-16.1244"/>
</g>
<!-- ../src/presenter/containers/ErrorBoundary.tsx -->
<g id="node18" class="node">
<title>../src/presenter/containers/ErrorBoundary.tsx</title>
<path fill="none" stroke="#cfffac" d="M532.2186,-299.374C532.2186,-299.374 235.5353,-299.374 235.5353,-299.374 231.2854,-299.374 227.0355,-295.1241 227.0355,-290.8742 227.0355,-290.8742 227.0355,-282.3743 227.0355,-282.3743 227.0355,-278.1244 231.2854,-273.8745 235.5353,-273.8745 235.5353,-273.8745 532.2186,-273.8745 532.2186,-273.8745 536.4685,-273.8745 540.7184,-278.1244 540.7184,-282.3743 540.7184,-282.3743 540.7184,-290.8742 540.7184,-290.8742 540.7184,-295.1241 536.4685,-299.374 532.2186,-299.374"/>
<text text-anchor="middle" x="383.877" y="-283.2485" font-family="Arial" font-size="15.00" fill="#cfffac">../src/presenter/containers/ErrorBoundary.tsx</text>
</g>
<!-- ../src/useCase/useMe/index.ts -->
<g id="node19" class="node">
<title>../src/useCase/useMe/index.ts</title>
<path fill="none" stroke="#c6c5fe" d="M483.7951,-111.374C483.7951,-111.374 283.9588,-111.374 283.9588,-111.374 279.7089,-111.374 275.459,-107.1241 275.459,-102.8742 275.459,-102.8742 275.459,-94.3743 275.459,-94.3743 275.459,-90.1244 279.7089,-85.8745 283.9588,-85.8745 283.9588,-85.8745 483.7951,-85.8745 483.7951,-85.8745 488.045,-85.8745 492.2949,-90.1244 492.2949,-94.3743 492.2949,-94.3743 492.2949,-102.8742 492.2949,-102.8742 492.2949,-107.1241 488.045,-111.374 483.7951,-111.374"/>
<text text-anchor="middle" x="383.877" y="-95.2485" font-family="Arial" font-size="15.00" fill="#c6c5fe">../src/useCase/useMe/index.ts</text>
</g>
<!-- ../src/useCase/useMe/useMe.ts -->
<g id="node20" class="node">
<title>../src/useCase/useMe/useMe.ts</title>
<path fill="none" stroke="#c6c5fe" d="M953.5509,-111.374C953.5509,-111.374 744.3895,-111.374 744.3895,-111.374 740.1396,-111.374 735.8896,-107.1241 735.8896,-102.8742 735.8896,-102.8742 735.8896,-94.3743 735.8896,-94.3743 735.8896,-90.1244 740.1396,-85.8745 744.3895,-85.8745 744.3895,-85.8745 953.5509,-85.8745 953.5509,-85.8745 957.8009,-85.8745 962.0508,-90.1244 962.0508,-94.3743 962.0508,-94.3743 962.0508,-102.8742 962.0508,-102.8742 962.0508,-107.1241 957.8009,-111.374 953.5509,-111.374"/>
<text text-anchor="middle" x="848.9702" y="-95.2485" font-family="Arial" font-size="15.00" fill="#c6c5fe">../src/useCase/useMe/useMe.ts</text>
</g>
<!-- ../src/useCase/useMe/index.ts&#45;&gt;../src/useCase/useMe/useMe.ts -->
<g id="edge16" class="edge">
<title>../src/useCase/useMe/index.ts&#45;&gt;../src/useCase/useMe/useMe.ts</title>
<path fill="none" stroke="#757575" d="M492.3337,-98.6243C562.1925,-98.6243 653.1806,-98.6243 725.7666,-98.6243"/>
<polygon fill="#757575" stroke="#757575" points="725.8826,-102.1244 735.8826,-98.6243 725.8826,-95.1244 725.8826,-102.1244"/>
</g>
<!-- ../src/useCase/useMe/useMe.ts&#45;&gt;../src/useCase/useMe/type.ts -->
<g id="edge17" class="edge">
<title>../src/useCase/useMe/useMe.ts&#45;&gt;../src/useCase/useMe/type.ts</title>
<path fill="none" stroke="#757575" d="M962.0273,-107.4856C989.9443,-110.5313 1019.6848,-114.5069 1047.0483,-119.6243 1114.2824,-132.1981 1190.2285,-154.0635 1238.426,-168.9291"/>
<polygon fill="#757575" stroke="#757575" points="1237.6884,-172.3648 1248.2765,-171.9891 1239.7651,-165.68 1237.6884,-172.3648"/>
</g>
<!-- _app.tsx -->
<g id="node21" class="node">
<title>_app.tsx</title>
<path fill="none" stroke="#c6c5fe" d="M86.1358,-299.374C86.1358,-299.374 30.7261,-299.374 30.7261,-299.374 26.4761,-299.374 22.2262,-295.1241 22.2262,-290.8742 22.2262,-290.8742 22.2262,-282.3743 22.2262,-282.3743 22.2262,-278.1244 26.4761,-273.8745 30.7261,-273.8745 30.7261,-273.8745 86.1358,-273.8745 86.1358,-273.8745 90.3857,-273.8745 94.6356,-278.1244 94.6356,-282.3743 94.6356,-282.3743 94.6356,-290.8742 94.6356,-290.8742 94.6356,-295.1241 90.3857,-299.374 86.1358,-299.374"/>
<text text-anchor="middle" x="58.4309" y="-283.2485" font-family="Arial" font-size="15.00" fill="#c6c5fe">_app.tsx</text>
</g>
<!-- _app.tsx&#45;&gt;../src/presenter/containers/ErrorBoundary.tsx -->
<g id="edge18" class="edge">
<title>_app.tsx&#45;&gt;../src/presenter/containers/ErrorBoundary.tsx</title>
<path fill="none" stroke="#757575" d="M94.8164,-286.6243C125.1813,-286.6243 170.7868,-286.6243 216.8523,-286.6243"/>
<polygon fill="#757575" stroke="#757575" points="216.9942,-290.1244 226.9941,-286.6243 216.9941,-283.1244 216.9942,-290.1244"/>
</g>
<!-- api/mock/me.ts -->
<g id="node22" class="node">
<title>api/mock/me.ts</title>
<path fill="none" stroke="#cfffac" d="M108.293,-342.374C108.293,-342.374 8.5689,-342.374 8.5689,-342.374 4.3189,-342.374 .069,-338.1241 .069,-333.8742 .069,-333.8742 .069,-325.3743 .069,-325.3743 .069,-321.1244 4.3189,-316.8745 8.5689,-316.8745 8.5689,-316.8745 108.293,-316.8745 108.293,-316.8745 112.5429,-316.8745 116.7928,-321.1244 116.7928,-325.3743 116.7928,-325.3743 116.7928,-333.8742 116.7928,-333.8742 116.7928,-338.1241 112.5429,-342.374 108.293,-342.374"/>
<text text-anchor="middle" x="58.4309" y="-326.2485" font-family="Arial" font-size="15.00" fill="#cfffac">api/mock/me.ts</text>
</g>
<!-- index.tsx -->
<g id="node23" class="node">
<title>index.tsx</title>
<path fill="none" stroke="#cfffac" d="M87.6256,-385.374C87.6256,-385.374 29.2362,-385.374 29.2362,-385.374 24.9862,-385.374 20.7363,-381.1241 20.7363,-376.8742 20.7363,-376.8742 20.7363,-368.3743 20.7363,-368.3743 20.7363,-364.1244 24.9862,-359.8745 29.2362,-359.8745 29.2362,-359.8745 87.6256,-359.8745 87.6256,-359.8745 91.8756,-359.8745 96.1255,-364.1244 96.1255,-368.3743 96.1255,-368.3743 96.1255,-376.8742 96.1255,-376.8742 96.1255,-381.1241 91.8756,-385.374 87.6256,-385.374"/>
<text text-anchor="middle" x="58.4309" y="-369.2485" font-family="Arial" font-size="15.00" fill="#cfffac">index.tsx</text>
</g>
<!-- me.tsx -->
<g id="node24" class="node">
<title>me.tsx</title>
<path fill="none" stroke="#c6c5fe" d="M80.1037,-111.374C80.1037,-111.374 36.7581,-111.374 36.7581,-111.374 32.5082,-111.374 28.2583,-107.1241 28.2583,-102.8742 28.2583,-102.8742 28.2583,-94.3743 28.2583,-94.3743 28.2583,-90.1244 32.5082,-85.8745 36.7581,-85.8745 36.7581,-85.8745 80.1037,-85.8745 80.1037,-85.8745 84.3536,-85.8745 88.6035,-90.1244 88.6035,-94.3743 88.6035,-94.3743 88.6035,-102.8742 88.6035,-102.8742 88.6035,-107.1241 84.3536,-111.374 80.1037,-111.374"/>
<text text-anchor="middle" x="58.4309" y="-95.2485" font-family="Arial" font-size="15.00" fill="#c6c5fe">me.tsx</text>
</g>
<!-- me.tsx&#45;&gt;../src/domain/me/index.ts -->
<g id="edge19" class="edge">
<title>me.tsx&#45;&gt;../src/domain/me/index.ts</title>
<path fill="none" stroke="#757575" d="M65.1882,-111.4453C78.4177,-135.0637 110.2083,-185.0031 152.8618,-206.6243 204.5613,-232.8309 567.1071,-253.3515 747.5069,-262.0678"/>
<polygon fill="#757575" stroke="#757575" points="747.3835,-265.5658 757.5399,-262.5495 747.7192,-258.5739 747.3835,-265.5658"/>
</g>
<!-- me.tsx&#45;&gt;../src/gateway/me/index.ts -->
<g id="edge20" class="edge">
<title>me.tsx&#45;&gt;../src/gateway/me/index.ts</title>
<path fill="none" stroke="#757575" d="M88.8388,-90.4122C107.2436,-85.7246 131.2573,-80.1058 152.8618,-76.6243 193.8263,-70.023 239.2367,-65.3337 278.879,-62.0867"/>
<polygon fill="#757575" stroke="#757575" points="279.4038,-65.5561 289.0936,-61.2713 278.8467,-58.5783 279.4038,-65.5561"/>
</g>
<!-- me.tsx&#45;&gt;../src/presenter/components/ecosystem/Me/ComponentSelector.tsx -->
<g id="edge21" class="edge">
<title>me.tsx&#45;&gt;../src/presenter/components/ecosystem/Me/ComponentSelector.tsx</title>
<path fill="none" stroke="#757575" d="M88.7558,-106.6377C142.8247,-120.9256 256.7016,-151.0178 326.1191,-169.3616"/>
<polygon fill="#757575" stroke="#757575" points="325.4637,-172.8085 336.026,-171.9795 327.2521,-166.0408 325.4637,-172.8085"/>
</g>
<!-- me.tsx&#45;&gt;../src/presenter/components/ecosystem/Me/index.ts -->
<g id="edge22" class="edge">
<title>me.tsx&#45;&gt;../src/presenter/components/ecosystem/Me/index.ts</title>
<path fill="none" stroke="#757575" d="M71.8609,-85.9797C89.1062,-70.601 120.6667,-45.2581 152.8618,-33.6243 166.2483,-28.787 180.3419,-24.8851 194.6921,-21.7526"/>
<polygon fill="#757575" stroke="#757575" points="195.571,-25.1452 204.6624,-19.7048 194.1626,-18.2883 195.571,-25.1452"/>
</g>
<!-- me.tsx&#45;&gt;../src/useCase/useMe/index.ts -->
<g id="edge23" class="edge">
<title>me.tsx&#45;&gt;../src/useCase/useMe/index.ts</title>
<path fill="none" stroke="#757575" d="M88.7558,-98.6243C128.823,-98.6243 201.7331,-98.6243 265.0562,-98.6243"/>
<polygon fill="#757575" stroke="#757575" points="265.1304,-102.1244 275.1304,-98.6243 265.1303,-95.1244 265.1304,-102.1244"/>
</g>
</g>
</svg>
