<?xml version="1.0" encoding="UTF-8" standalone="no"?>
<!DOCTYPE svg PUBLIC "-//W3C//DTD SVG 1.1//EN"
 "http://www.w3.org/Graphics/SVG/1.1/DTD/svg11.dtd">
<!-- Generated by graphviz version 2.40.1 (20161225.0304)
 -->
<!-- Title: G Pages: 1 -->
<svg width="2286pt" height="467pt"
 viewBox="0.00 0.00 2285.89 467.45" xmlns="http://www.w3.org/2000/svg" xmlns:xlink="http://www.w3.org/1999/xlink">
<g id="graph0" class="graph" transform="scale(1 1) rotate(0) translate(21.6 445.8485)">
<title>G</title>
<polygon fill="#111111" stroke="transparent" points="-21.6,21.6 -21.6,-445.8485 2264.2919,-445.8485 2264.2919,21.6 -21.6,21.6"/>
<!-- ../src/domain/me/index.ts -->
<g id="node1" class="node">
<title>../src/domain/me/index.ts</title>
<path fill="none" stroke="#c6c5fe" d="M567.0648,-175.374C567.0648,-175.374 401.6071,-175.374 401.6071,-175.374 397.3571,-175.374 393.1072,-171.1241 393.1072,-166.8742 393.1072,-166.8742 393.1072,-158.3743 393.1072,-158.3743 393.1072,-154.1244 397.3571,-149.8745 401.6071,-149.8745 401.6071,-149.8745 567.0648,-149.8745 567.0648,-149.8745 571.3147,-149.8745 575.5647,-154.1244 575.5647,-158.3743 575.5647,-158.3743 575.5647,-166.8742 575.5647,-166.8742 575.5647,-171.1241 571.3147,-175.374 567.0648,-175.374"/>
<text text-anchor="middle" x="484.3359" y="-159.2485" font-family="Arial" font-size="15.00" fill="#c6c5fe">../src/domain/me/index.ts</text>
</g>
<!-- ../src/domain/me/me.ts -->
<g id="node2" class="node">
<title>../src/domain/me/me.ts</title>
<path fill="none" stroke="#cfffac" d="M985.0304,-175.374C985.0304,-175.374 834.6165,-175.374 834.6165,-175.374 830.3666,-175.374 826.1167,-171.1241 826.1167,-166.8742 826.1167,-166.8742 826.1167,-158.3743 826.1167,-158.3743 826.1167,-154.1244 830.3666,-149.8745 834.6165,-149.8745 834.6165,-149.8745 985.0304,-149.8745 985.0304,-149.8745 989.2804,-149.8745 993.5303,-154.1244 993.5303,-158.3743 993.5303,-158.3743 993.5303,-166.8742 993.5303,-166.8742 993.5303,-171.1241 989.2804,-175.374 985.0304,-175.374"/>
<text text-anchor="middle" x="909.8235" y="-159.2485" font-family="Arial" font-size="15.00" fill="#cfffac">../src/domain/me/me.ts</text>
</g>
<!-- ../src/domain/me/index.ts&#45;&gt;../src/domain/me/me.ts -->
<g id="edge1" class="edge">
<title>../src/domain/me/index.ts&#45;&gt;../src/domain/me/me.ts</title>
<path fill="none" stroke="#757575" d="M575.6137,-162.6243C646.366,-162.6243 744.0734,-162.6243 815.5678,-162.6243"/>
<polygon fill="#757575" stroke="#757575" points="815.9196,-166.1244 825.9196,-162.6243 815.9196,-159.1244 815.9196,-166.1244"/>
</g>
<!-- ../src/domain/me/type.ts -->
<g id="node3" class="node">
<title>../src/domain/me/type.ts</title>
<path fill="none" stroke="#cfffac" d="M989.045,-236.374C989.045,-236.374 830.602,-236.374 830.602,-236.374 826.3521,-236.374 822.1022,-232.1241 822.1022,-227.8742 822.1022,-227.8742 822.1022,-219.3743 822.1022,-219.3743 822.1022,-215.1244 826.3521,-210.8745 830.602,-210.8745 830.602,-210.8745 989.045,-210.8745 989.045,-210.8745 993.2949,-210.8745 997.5448,-215.1244 997.5448,-219.3743 997.5448,-219.3743 997.5448,-227.8742 997.5448,-227.8742 997.5448,-232.1241 993.2949,-236.374 989.045,-236.374"/>
<text text-anchor="middle" x="909.8235" y="-220.2485" font-family="Arial" font-size="15.00" fill="#cfffac">../src/domain/me/type.ts</text>
</g>
<!-- ../src/domain/me/index.ts&#45;&gt;../src/domain/me/type.ts -->
<g id="edge2" class="edge">
<title>../src/domain/me/index.ts&#45;&gt;../src/domain/me/type.ts</title>
<path fill="none" stroke="#757575" d="M575.7129,-170.9914C609.3231,-174.4166 647.6568,-178.7309 682.4141,-183.6243 733.4192,-190.8052 790.513,-200.8545 834.7341,-209.0838"/>
<polygon fill="#757575" stroke="#757575" points="834.3515,-212.5729 844.8246,-210.9715 835.6388,-205.6923 834.3515,-212.5729"/>
</g>
<!-- ../src/externalInterface/api/http/client/client.ts -->
<g id="node4" class="node">
<title>../src/externalInterface/api/http/client/client.ts</title>
<path fill="none" stroke="#cfffac" d="M2234.1779,-68.374C2234.1779,-68.374 1939.2342,-68.374 1939.2342,-68.374 1934.9843,-68.374 1930.7344,-64.1241 1930.7344,-59.8742 1930.7344,-59.8742 1930.7344,-51.3743 1930.7344,-51.3743 1930.7344,-47.1244 1934.9843,-42.8745 1939.2342,-42.8745 1939.2342,-42.8745 2234.1779,-42.8745 2234.1779,-42.8745 2238.4278,-42.8745 2242.6777,-47.1244 2242.6777,-51.3743 2242.6777,-51.3743 2242.6777,-59.8742 2242.6777,-59.8742 2242.6777,-64.1241 2238.4278,-68.374 2234.1779,-68.374"/>
<text text-anchor="middle" x="2086.7061" y="-52.2485" font-family="Arial" font-size="15.00" fill="#cfffac">../src/externalInterface/api/http/client/client.ts</text>
</g>
<!-- ../src/externalInterface/api/http/client/index.ts -->
<g id="node5" class="node">
<title>../src/externalInterface/api/http/client/index.ts</title>
<path fill="none" stroke="#c6c5fe" d="M1886.1274,-68.374C1886.1274,-68.374 1590.4991,-68.374 1590.4991,-68.374 1586.2491,-68.374 1581.9992,-64.1241 1581.9992,-59.8742 1581.9992,-59.8742 1581.9992,-51.3743 1581.9992,-51.3743 1581.9992,-47.1244 1586.2491,-42.8745 1590.4991,-42.8745 1590.4991,-42.8745 1886.1274,-42.8745 1886.1274,-42.8745 1890.3773,-42.8745 1894.6273,-47.1244 1894.6273,-51.3743 1894.6273,-51.3743 1894.6273,-59.8742 1894.6273,-59.8742 1894.6273,-64.1241 1890.3773,-68.374 1886.1274,-68.374"/>
<text text-anchor="middle" x="1738.3132" y="-52.2485" font-family="Arial" font-size="15.00" fill="#c6c5fe">../src/externalInterface/api/http/client/index.ts</text>
</g>
<!-- ../src/externalInterface/api/http/client/index.ts&#45;&gt;../src/externalInterface/api/http/client/client.ts -->
<g id="edge3" class="edge">
<title>../src/externalInterface/api/http/client/index.ts&#45;&gt;../src/externalInterface/api/http/client/client.ts</title>
<path fill="none" stroke="#757575" d="M1894.6755,-55.6243C1903.2567,-55.6243 1911.8961,-55.6243 1920.5094,-55.6243"/>
<polygon fill="#757575" stroke="#757575" points="1920.6037,-59.1244 1930.6037,-55.6243 1920.6036,-52.1244 1920.6037,-59.1244"/>
</g>
<!-- ../src/externalInterface/api/http/client/util.ts -->
<g id="node6" class="node">
<title>../src/externalInterface/api/http/client/util.ts</title>
<path fill="none" stroke="#cfffac" d="M1877.9428,-25.374C1877.9428,-25.374 1598.6837,-25.374 1598.6837,-25.374 1594.4337,-25.374 1590.1838,-21.1241 1590.1838,-16.8742 1590.1838,-16.8742 1590.1838,-8.3743 1590.1838,-8.3743 1590.1838,-4.1244 1594.4337,.1255 1598.6837,.1255 1598.6837,.1255 1877.9428,.1255 1877.9428,.1255 1882.1927,.1255 1886.4427,-4.1244 1886.4427,-8.3743 1886.4427,-8.3743 1886.4427,-16.8742 1886.4427,-16.8742 1886.4427,-21.1241 1882.1927,-25.374 1877.9428,-25.374"/>
<text text-anchor="middle" x="1738.3132" y="-9.2485" font-family="Arial" font-size="15.00" fill="#cfffac">../src/externalInterface/api/http/client/util.ts</text>
</g>
<!-- ../src/externalInterface/api/http/me.ts -->
<g id="node7" class="node">
<title>../src/externalInterface/api/http/me.ts</title>
<path fill="none" stroke="#c6c5fe" d="M1462.1775,-46.374C1462.1775,-46.374 1220.9617,-46.374 1220.9617,-46.374 1216.7118,-46.374 1212.4619,-42.1241 1212.4619,-37.8742 1212.4619,-37.8742 1212.4619,-29.3743 1212.4619,-29.3743 1212.4619,-25.1244 1216.7118,-20.8745 1220.9617,-20.8745 1220.9617,-20.8745 1462.1775,-20.8745 1462.1775,-20.8745 1466.4274,-20.8745 1470.6773,-25.1244 1470.6773,-29.3743 1470.6773,-29.3743 1470.6773,-37.8742 1470.6773,-37.8742 1470.6773,-42.1241 1466.4274,-46.374 1462.1775,-46.374"/>
<text text-anchor="middle" x="1341.5696" y="-30.2485" font-family="Arial" font-size="15.00" fill="#c6c5fe">../src/externalInterface/api/http/me.ts</text>
</g>
<!-- ../src/externalInterface/api/http/me.ts&#45;&gt;../src/externalInterface/api/http/client/index.ts -->
<g id="edge4" class="edge">
<title>../src/externalInterface/api/http/me.ts&#45;&gt;../src/externalInterface/api/http/client/index.ts</title>
<path fill="none" stroke="#757575" d="M1470.9293,-40.7974C1503.0006,-42.5758 1537.8212,-44.5067 1571.407,-46.3691"/>
<polygon fill="#757575" stroke="#757575" points="1571.6076,-49.8855 1581.7861,-46.9446 1571.9952,-42.8962 1571.6076,-49.8855"/>
</g>
<!-- ../src/externalInterface/api/http/me.ts&#45;&gt;../src/externalInterface/api/http/client/util.ts -->
<g id="edge5" class="edge">
<title>../src/externalInterface/api/http/me.ts&#45;&gt;../src/externalInterface/api/http/client/util.ts</title>
<path fill="none" stroke="#757575" d="M1470.9293,-26.7771C1505.7574,-24.9337 1543.8278,-22.9186 1580.0381,-21.0019"/>
<polygon fill="#757575" stroke="#757575" points="1580.3967,-24.4879 1590.1977,-20.4642 1580.0266,-17.4977 1580.3967,-24.4879"/>
</g>
<!-- ../src/gateway/me/index.ts -->
<g id="node8" class="node">
<title>../src/gateway/me/index.ts</title>
<path fill="none" stroke="#c6c5fe" d="M570.7374,-46.374C570.7374,-46.374 397.9345,-46.374 397.9345,-46.374 393.6846,-46.374 389.4346,-42.1241 389.4346,-37.8742 389.4346,-37.8742 389.4346,-29.3743 389.4346,-29.3743 389.4346,-25.1244 393.6846,-20.8745 397.9345,-20.8745 397.9345,-20.8745 570.7374,-20.8745 570.7374,-20.8745 574.9873,-20.8745 579.2372,-25.1244 579.2372,-29.3743 579.2372,-29.3743 579.2372,-37.8742 579.2372,-37.8742 579.2372,-42.1241 574.9873,-46.374 570.7374,-46.374"/>
<text text-anchor="middle" x="484.3359" y="-30.2485" font-family="Arial" font-size="15.00" fill="#c6c5fe">../src/gateway/me/index.ts</text>
</g>
<!-- ../src/gateway/me/me.ts -->
<g id="node9" class="node">
<title>../src/gateway/me/me.ts</title>
<path fill="none" stroke="#c6c5fe" d="M988.703,-46.374C988.703,-46.374 830.944,-46.374 830.944,-46.374 826.6941,-46.374 822.4442,-42.1241 822.4442,-37.8742 822.4442,-37.8742 822.4442,-29.3743 822.4442,-29.3743 822.4442,-25.1244 826.6941,-20.8745 830.944,-20.8745 830.944,-20.8745 988.703,-20.8745 988.703,-20.8745 992.9529,-20.8745 997.2028,-25.1244 997.2028,-29.3743 997.2028,-29.3743 997.2028,-37.8742 997.2028,-37.8742 997.2028,-42.1241 992.9529,-46.374 988.703,-46.374"/>
<text text-anchor="middle" x="909.8235" y="-30.2485" font-family="Arial" font-size="15.00" fill="#c6c5fe">../src/gateway/me/me.ts</text>
</g>
<!-- ../src/gateway/me/index.ts&#45;&gt;../src/gateway/me/me.ts -->
<g id="edge6" class="edge">
<title>../src/gateway/me/index.ts&#45;&gt;../src/gateway/me/me.ts</title>
<path fill="none" stroke="#757575" d="M579.2941,-33.6243C648.6266,-33.6243 742.3305,-33.6243 812.2628,-33.6243"/>
<polygon fill="#757575" stroke="#757575" points="812.4025,-37.1244 822.4025,-33.6243 812.4025,-30.1244 812.4025,-37.1244"/>
</g>
<!-- ../src/gateway/me/me.ts&#45;&gt;../src/externalInterface/api/http/me.ts -->
<g id="edge7" class="edge">
<title>../src/gateway/me/me.ts&#45;&gt;../src/externalInterface/api/http/me.ts</title>
<path fill="none" stroke="#757575" d="M997.1938,-33.6243C1055.9034,-33.6243 1134.5505,-33.6243 1201.8639,-33.6243"/>
<polygon fill="#757575" stroke="#757575" points="1202.1367,-37.1244 1212.1366,-33.6243 1202.1366,-30.1244 1202.1367,-37.1244"/>
</g>
<!-- ../src/presenter/components/ecosystem/Me/Content.tsx -->
<g id="node10" class="node">
<title>../src/presenter/components/ecosystem/Me/Content.tsx</title>
<path fill="none" stroke="#c6c5fe" d="M1092.6425,-288.374C1092.6425,-288.374 727.0044,-288.374 727.0044,-288.374 722.7545,-288.374 718.5046,-284.1241 718.5046,-279.8742 718.5046,-279.8742 718.5046,-271.3743 718.5046,-271.3743 718.5046,-267.1244 722.7545,-262.8745 727.0044,-262.8745 727.0044,-262.8745 1092.6425,-262.8745 1092.6425,-262.8745 1096.8925,-262.8745 1101.1424,-267.1244 1101.1424,-271.3743 1101.1424,-271.3743 1101.1424,-279.8742 1101.1424,-279.8742 1101.1424,-284.1241 1096.8925,-288.374 1092.6425,-288.374"/>
<text text-anchor="middle" x="909.8235" y="-272.2485" font-family="Arial" font-size="15.00" fill="#c6c5fe">../src/presenter/components/ecosystem/Me/Content.tsx</text>
</g>
<!-- ../src/useCase/useMe/type.ts -->
<g id="node11" class="node">
<title>../src/useCase/useMe/type.ts</title>
<path fill="none" stroke="#cfffac" d="M1437.9808,-210.374C1437.9808,-210.374 1245.1584,-210.374 1245.1584,-210.374 1240.9085,-210.374 1236.6585,-206.1241 1236.6585,-201.8742 1236.6585,-201.8742 1236.6585,-193.3743 1236.6585,-193.3743 1236.6585,-189.1244 1240.9085,-184.8745 1245.1584,-184.8745 1245.1584,-184.8745 1437.9808,-184.8745 1437.9808,-184.8745 1442.2307,-184.8745 1446.4806,-189.1244 1446.4806,-193.3743 1446.4806,-193.3743 1446.4806,-201.8742 1446.4806,-201.8742 1446.4806,-206.1241 1442.2307,-210.374 1437.9808,-210.374"/>
<text text-anchor="middle" x="1341.5696" y="-194.2485" font-family="Arial" font-size="15.00" fill="#cfffac">../src/useCase/useMe/type.ts</text>
</g>
<!-- ../src/presenter/components/ecosystem/Me/Content.tsx&#45;&gt;../src/useCase/useMe/type.ts -->
<g id="edge8" class="edge">
<title>../src/presenter/components/ecosystem/Me/Content.tsx&#45;&gt;../src/useCase/useMe/type.ts</title>
<path fill="none" stroke="#757575" d="M995.7057,-262.9438C1028.7457,-257.8611 1066.7932,-251.7596 1101.2329,-245.6243 1158.9171,-235.3481 1224.0842,-222.2385 1271.9933,-212.3172"/>
<polygon fill="#757575" stroke="#757575" points="1272.8661,-215.7107 1281.9457,-210.2507 1271.443,-208.8569 1272.8661,-215.7107"/>
</g>
<!-- ../src/presenter/components/ecosystem/Me/Exception.tsx -->
<g id="node12" class="node">
<title>../src/presenter/components/ecosystem/Me/Exception.tsx</title>
<path fill="none" stroke="#cfffac" d="M673.9924,-218.374C673.9924,-218.374 294.6795,-218.374 294.6795,-218.374 290.4296,-218.374 286.1797,-214.1241 286.1797,-209.8742 286.1797,-209.8742 286.1797,-201.3743 286.1797,-201.3743 286.1797,-197.1244 290.4296,-192.8745 294.6795,-192.8745 294.6795,-192.8745 673.9924,-192.8745 673.9924,-192.8745 678.2423,-192.8745 682.4922,-197.1244 682.4922,-201.3743 682.4922,-201.3743 682.4922,-209.8742 682.4922,-209.8742 682.4922,-214.1241 678.2423,-218.374 673.9924,-218.374"/>
<text text-anchor="middle" x="484.3359" y="-202.2485" font-family="Arial" font-size="15.00" fill="#cfffac">../src/presenter/components/ecosystem/Me/Exception.tsx</text>
</g>
<!-- ../src/presenter/components/ecosystem/Me/Me.tsx -->
<g id="node13" class="node">
<title>../src/presenter/components/ecosystem/Me/Me.tsx</title>
<path fill="none" stroke="#c6c5fe" d="M1076.9433,-89.374C1076.9433,-89.374 742.7037,-89.374 742.7037,-89.374 738.4538,-89.374 734.2038,-85.1241 734.2038,-80.8742 734.2038,-80.8742 734.2038,-72.3743 734.2038,-72.3743 734.2038,-68.1244 738.4538,-63.8745 742.7037,-63.8745 742.7037,-63.8745 1076.9433,-63.8745 1076.9433,-63.8745 1081.1932,-63.8745 1085.4431,-68.1244 1085.4431,-72.3743 1085.4431,-72.3743 1085.4431,-80.8742 1085.4431,-80.8742 1085.4431,-85.1241 1081.1932,-89.374 1076.9433,-89.374"/>
<text text-anchor="middle" x="909.8235" y="-73.2485" font-family="Arial" font-size="15.00" fill="#c6c5fe">../src/presenter/components/ecosystem/Me/Me.tsx</text>
</g>
<!-- ../src/presenter/components/ecosystem/Me/Placeholder.tsx -->
<g id="node14" class="node">
<title>../src/presenter/components/ecosystem/Me/Placeholder.tsx</title>
<path fill="none" stroke="#cfffac" d="M1537.2432,-89.374C1537.2432,-89.374 1145.896,-89.374 1145.896,-89.374 1141.646,-89.374 1137.3961,-85.1241 1137.3961,-80.8742 1137.3961,-80.8742 1137.3961,-72.3743 1137.3961,-72.3743 1137.3961,-68.1244 1141.646,-63.8745 1145.896,-63.8745 1145.896,-63.8745 1537.2432,-63.8745 1537.2432,-63.8745 1541.4931,-63.8745 1545.7431,-68.1244 1545.7431,-72.3743 1545.7431,-72.3743 1545.7431,-80.8742 1545.7431,-80.8742 1545.7431,-85.1241 1541.4931,-89.374 1537.2432,-89.374"/>
<text text-anchor="middle" x="1341.5696" y="-73.2485" font-family="Arial" font-size="15.00" fill="#cfffac">../src/presenter/components/ecosystem/Me/Placeholder.tsx</text>
</g>
<!-- ../src/presenter/components/ecosystem/Me/Me.tsx&#45;&gt;../src/presenter/components/ecosystem/Me/Placeholder.tsx -->
<g id="edge9" class="edge">
<title>../src/presenter/components/ecosystem/Me/Me.tsx&#45;&gt;../src/presenter/components/ecosystem/Me/Placeholder.tsx</title>
<path fill="none" stroke="#757575" d="M1085.4312,-76.6243C1099.1451,-76.6243 1113.0838,-76.6243 1127.0151,-76.6243"/>
<polygon fill="#757575" stroke="#757575" points="1127.1548,-80.1244 1137.1547,-76.6243 1127.1547,-73.1244 1127.1548,-80.1244"/>
</g>
<!-- ../src/presenter/components/ecosystem/Me/index.ts -->
<g id="node15" class="node">
<title>../src/presenter/components/ecosystem/Me/index.ts</title>
<path fill="none" stroke="#c6c5fe" d="M654.9779,-89.374C654.9779,-89.374 313.694,-89.374 313.694,-89.374 309.4441,-89.374 305.1942,-85.1241 305.1942,-80.8742 305.1942,-80.8742 305.1942,-72.3743 305.1942,-72.3743 305.1942,-68.1244 309.4441,-63.8745 313.694,-63.8745 313.694,-63.8745 654.9779,-63.8745 654.9779,-63.8745 659.2278,-63.8745 663.4777,-68.1244 663.4777,-72.3743 663.4777,-72.3743 663.4777,-80.8742 663.4777,-80.8742 663.4777,-85.1241 659.2278,-89.374 654.9779,-89.374"/>
<text text-anchor="middle" x="484.3359" y="-73.2485" font-family="Arial" font-size="15.00" fill="#c6c5fe">../src/presenter/components/ecosystem/Me/index.ts</text>
</g>
<!-- ../src/presenter/components/ecosystem/Me/index.ts&#45;&gt;../src/presenter/components/ecosystem/Me/Me.tsx -->
<g id="edge10" class="edge">
<title>../src/presenter/components/ecosystem/Me/index.ts&#45;&gt;../src/presenter/components/ecosystem/Me/Me.tsx</title>
<path fill="none" stroke="#757575" d="M663.5478,-76.6243C683.5596,-76.6243 703.9775,-76.6243 724.069,-76.6243"/>
<polygon fill="#757575" stroke="#757575" points="724.2209,-80.1244 734.2208,-76.6243 724.2208,-73.1244 724.2209,-80.1244"/>
</g>
<!-- ../src/presenter/containers/ErrorBoundary.tsx -->
<g id="node16" class="node">
<title>../src/presenter/containers/ErrorBoundary.tsx</title>
<path fill="none" stroke="#cfffac" d="M632.6776,-338.374C632.6776,-338.374 335.9943,-338.374 335.9943,-338.374 331.7444,-338.374 327.4944,-334.1241 327.4944,-329.8742 327.4944,-329.8742 327.4944,-321.3743 327.4944,-321.3743 327.4944,-317.1244 331.7444,-312.8745 335.9943,-312.8745 335.9943,-312.8745 632.6776,-312.8745 632.6776,-312.8745 636.9275,-312.8745 641.1774,-317.1244 641.1774,-321.3743 641.1774,-321.3743 641.1774,-329.8742 641.1774,-329.8742 641.1774,-334.1241 636.9275,-338.374 632.6776,-338.374"/>
<text text-anchor="middle" x="484.3359" y="-322.2485" font-family="Arial" font-size="15.00" fill="#cfffac">../src/presenter/containers/ErrorBoundary.tsx</text>
</g>
<!-- ../src/useCase/useMe/index.ts -->
<g id="node17" class="node">
<title>../src/useCase/useMe/index.ts</title>
<path fill="none" stroke="#ff6c60" d="M584.2541,-132.374C584.2541,-132.374 384.4178,-132.374 384.4178,-132.374 380.1679,-132.374 375.918,-128.1241 375.918,-123.8742 375.918,-123.8742 375.918,-115.3743 375.918,-115.3743 375.918,-111.1244 380.1679,-106.8745 384.4178,-106.8745 384.4178,-106.8745 584.2541,-106.8745 584.2541,-106.8745 588.504,-106.8745 592.7539,-111.1244 592.7539,-115.3743 592.7539,-115.3743 592.7539,-123.8742 592.7539,-123.8742 592.7539,-128.1241 588.504,-132.374 584.2541,-132.374"/>
<text text-anchor="middle" x="484.3359" y="-116.2485" font-family="Arial" font-size="15.00" fill="#ff6c60">../src/useCase/useMe/index.ts</text>
</g>
<!-- ../src/useCase/useMe/interactor.tsx -->
<g id="node18" class="node">
<title>../src/useCase/useMe/interactor.tsx</title>
<path fill="none" stroke="#ff6c60" d="M241.887,-196.374C241.887,-196.374 8.3708,-196.374 8.3708,-196.374 4.1209,-196.374 -.129,-192.1241 -.129,-187.8742 -.129,-187.8742 -.129,-179.3743 -.129,-179.3743 -.129,-175.1244 4.1209,-170.8745 8.3708,-170.8745 8.3708,-170.8745 241.887,-170.8745 241.887,-170.8745 246.1369,-170.8745 250.3869,-175.1244 250.3869,-179.3743 250.3869,-179.3743 250.3869,-187.8742 250.3869,-187.8742 250.3869,-192.1241 246.1369,-196.374 241.887,-196.374"/>
<text text-anchor="middle" x="125.1289" y="-180.2485" font-family="Arial" font-size="15.00" fill="#ff6c60">../src/useCase/useMe/interactor.tsx</text>
</g>
<!-- ../src/useCase/useMe/index.ts&#45;&gt;../src/useCase/useMe/interactor.tsx -->
<g id="edge11" class="edge">
<title>../src/useCase/useMe/index.ts&#45;&gt;../src/useCase/useMe/interactor.tsx</title>
<path fill="none" stroke="#757575" d="M415.2048,-132.2591C376.9827,-136.5577 328.761,-141.7491 286.2578,-149.6243 259.2475,-154.6289 230.1257,-161.8303 204.1677,-168.4546"/>
<polygon fill="#757575" stroke="#757575" points="203.2043,-165.0883 194.3849,-170.9594 204.9406,-171.8696 203.2043,-165.0883"/>
</g>
<!-- ../src/useCase/useMe/useMe.ts -->
<g id="node19" class="node">
<title>../src/useCase/useMe/useMe.ts</title>
<path fill="none" stroke="#c6c5fe" d="M1014.4042,-132.374C1014.4042,-132.374 805.2428,-132.374 805.2428,-132.374 800.9928,-132.374 796.7429,-128.1241 796.7429,-123.8742 796.7429,-123.8742 796.7429,-115.3743 796.7429,-115.3743 796.7429,-111.1244 800.9928,-106.8745 805.2428,-106.8745 805.2428,-106.8745 1014.4042,-106.8745 1014.4042,-106.8745 1018.6541,-106.8745 1022.9041,-111.1244 1022.9041,-115.3743 1022.9041,-115.3743 1022.9041,-123.8742 1022.9041,-123.8742 1022.9041,-128.1241 1018.6541,-132.374 1014.4042,-132.374"/>
<text text-anchor="middle" x="909.8235" y="-116.2485" font-family="Arial" font-size="15.00" fill="#c6c5fe">../src/useCase/useMe/useMe.ts</text>
</g>
<!-- ../src/useCase/useMe/index.ts&#45;&gt;../src/useCase/useMe/useMe.ts -->
<g id="edge12" class="edge">
<title>../src/useCase/useMe/index.ts&#45;&gt;../src/useCase/useMe/useMe.ts</title>
<path fill="none" stroke="#757575" d="M592.8053,-119.6243C651.929,-119.6243 725.3277,-119.6243 786.6058,-119.6243"/>
<polygon fill="#757575" stroke="#757575" points="786.7227,-123.1244 796.7227,-119.6243 786.7226,-116.1244 786.7227,-123.1244"/>
</g>
<!-- ../src/useCase/useMe/interactor.tsx&#45;&gt;../src/domain/me/index.ts -->
<g id="edge13" class="edge">
<title>../src/useCase/useMe/interactor.tsx&#45;&gt;../src/domain/me/index.ts</title>
<path fill="none" stroke="#757575" d="M250.2578,-176.309C293.6538,-173.772 341.7362,-170.9609 382.9771,-168.5499"/>
<polygon fill="#757575" stroke="#757575" points="383.2537,-172.0398 393.0324,-167.9621 382.8451,-165.0518 383.2537,-172.0398"/>
</g>
<!-- ../src/useCase/useMe/interactor.tsx&#45;&gt;../src/domain/me/type.ts -->
<g id="edge14" class="edge">
<title>../src/useCase/useMe/interactor.tsx&#45;&gt;../src/domain/me/type.ts</title>
<path fill="none" stroke="#757575" d="M160.7193,-196.2921C192.9987,-207.068 242.1407,-221.709 286.2578,-227.6243 470.7246,-252.3579 688.6497,-242.0679 811.9043,-232.6401"/>
<polygon fill="#757575" stroke="#757575" points="812.3741,-236.1142 822.0719,-231.8478 811.8302,-229.1353 812.3741,-236.1142"/>
</g>
<!-- ../src/useCase/useMe/interactor.tsx&#45;&gt;../src/presenter/components/ecosystem/Me/Content.tsx -->
<g id="edge15" class="edge">
<title>../src/useCase/useMe/interactor.tsx&#45;&gt;../src/presenter/components/ecosystem/Me/Content.tsx</title>
<path fill="none" stroke="#757575" d="M148.5814,-196.2799C179.2228,-212.0896 235.0195,-238.4234 286.2578,-249.6243 424.8649,-279.9242 584.8216,-286.0298 708.0233,-284.7643"/>
<polygon fill="#757575" stroke="#757575" points="708.3682,-288.2605 718.3254,-284.6405 708.284,-281.261 708.3682,-288.2605"/>
</g>
<!-- ../src/useCase/useMe/interactor.tsx&#45;&gt;../src/presenter/components/ecosystem/Me/Exception.tsx -->
<g id="edge16" class="edge">
<title>../src/useCase/useMe/interactor.tsx&#45;&gt;../src/presenter/components/ecosystem/Me/Exception.tsx</title>
<path fill="none" stroke="#757575" d="M250.2578,-191.2879C258.6257,-191.8004 267.1678,-192.3236 275.8016,-192.8524"/>
<polygon fill="#757575" stroke="#757575" points="275.7787,-196.3574 285.974,-193.4754 276.2067,-189.3705 275.7787,-196.3574"/>
</g>
<!-- ../src/useCase/useMe/interactor.tsx&#45;&gt;../src/useCase/useMe/index.ts -->
<g id="edge17" class="edge">
<title>../src/useCase/useMe/interactor.tsx&#45;&gt;../src/useCase/useMe/index.ts</title>
<path fill="none" stroke="#757575" d="M146.261,-170.9332C176.8263,-158.3271 235.2997,-141.066 286.2578,-131.6243 311.8105,-126.8897 339.4301,-123.1252 365.7011,-120.3969"/>
<polygon fill="#757575" stroke="#757575" points="366.0924,-123.8754 375.6966,-119.4021 365.3991,-116.9098 366.0924,-123.8754"/>
</g>
<!-- ../src/useCase/useMe/useMe.ts&#45;&gt;../src/useCase/useMe/type.ts -->
<g id="edge18" class="edge">
<title>../src/useCase/useMe/useMe.ts&#45;&gt;../src/useCase/useMe/type.ts</title>
<path fill="none" stroke="#757575" d="M1023.0015,-129.6979C1048.8002,-132.6437 1076.0321,-136.2706 1101.2329,-140.6243 1165.1427,-151.6652 1237.4233,-169.5553 1285.8774,-182.348"/>
<polygon fill="#757575" stroke="#757575" points="1285.2802,-185.8107 1295.8437,-184.9962 1287.0779,-179.0455 1285.2802,-185.8107"/>
</g>
<!-- _app.tsx -->
<g id="node20" class="node">
<title>_app.tsx</title>
<path fill="none" stroke="#c6c5fe" d="M152.8338,-338.374C152.8338,-338.374 97.4241,-338.374 97.4241,-338.374 93.1741,-338.374 88.9242,-334.1241 88.9242,-329.8742 88.9242,-329.8742 88.9242,-321.3743 88.9242,-321.3743 88.9242,-317.1244 93.1741,-312.8745 97.4241,-312.8745 97.4241,-312.8745 152.8338,-312.8745 152.8338,-312.8745 157.0837,-312.8745 161.3336,-317.1244 161.3336,-321.3743 161.3336,-321.3743 161.3336,-329.8742 161.3336,-329.8742 161.3336,-334.1241 157.0837,-338.374 152.8338,-338.374"/>
<text text-anchor="middle" x="125.1289" y="-322.2485" font-family="Arial" font-size="15.00" fill="#c6c5fe">_app.tsx</text>
</g>
<!-- _app.tsx&#45;&gt;../src/presenter/containers/ErrorBoundary.tsx -->
<g id="edge19" class="edge">
<title>_app.tsx&#45;&gt;../src/presenter/containers/ErrorBoundary.tsx</title>
<path fill="none" stroke="#757575" d="M161.5484,-325.6243C198.6419,-325.6243 258.858,-325.6243 317.2924,-325.6243"/>
<polygon fill="#757575" stroke="#757575" points="317.4112,-329.1244 327.4112,-325.6243 317.4111,-322.1244 317.4112,-329.1244"/>
</g>
<!-- api/mock/me.ts -->
<g id="node21" class="node">
<title>api/mock/me.ts</title>
<path fill="none" stroke="#cfffac" d="M174.991,-381.374C174.991,-381.374 75.2669,-381.374 75.2669,-381.374 71.0169,-381.374 66.767,-377.1241 66.767,-372.8742 66.767,-372.8742 66.767,-364.3743 66.767,-364.3743 66.767,-360.1244 71.0169,-355.8745 75.2669,-355.8745 75.2669,-355.8745 174.991,-355.8745 174.991,-355.8745 179.2409,-355.8745 183.4908,-360.1244 183.4908,-364.3743 183.4908,-364.3743 183.4908,-372.8742 183.4908,-372.8742 183.4908,-377.1241 179.2409,-381.374 174.991,-381.374"/>
<text text-anchor="middle" x="125.1289" y="-365.2485" font-family="Arial" font-size="15.00" fill="#cfffac">api/mock/me.ts</text>
</g>
<!-- index.tsx -->
<g id="node22" class="node">
<title>index.tsx</title>
<path fill="none" stroke="#cfffac" d="M154.3236,-424.374C154.3236,-424.374 95.9342,-424.374 95.9342,-424.374 91.6842,-424.374 87.4343,-420.1241 87.4343,-415.8742 87.4343,-415.8742 87.4343,-407.3743 87.4343,-407.3743 87.4343,-403.1244 91.6842,-398.8745 95.9342,-398.8745 95.9342,-398.8745 154.3236,-398.8745 154.3236,-398.8745 158.5736,-398.8745 162.8235,-403.1244 162.8235,-407.3743 162.8235,-407.3743 162.8235,-415.8742 162.8235,-415.8742 162.8235,-420.1241 158.5736,-424.374 154.3236,-424.374"/>
<text text-anchor="middle" x="125.1289" y="-408.2485" font-family="Arial" font-size="15.00" fill="#cfffac">index.tsx</text>
</g>
<!-- me.tsx -->
<g id="node23" class="node">
<title>me.tsx</title>
<path fill="none" stroke="#c6c5fe" d="M146.8017,-89.374C146.8017,-89.374 103.4561,-89.374 103.4561,-89.374 99.2062,-89.374 94.9563,-85.1241 94.9563,-80.8742 94.9563,-80.8742 94.9563,-72.3743 94.9563,-72.3743 94.9563,-68.1244 99.2062,-63.8745 103.4561,-63.8745 103.4561,-63.8745 146.8017,-63.8745 146.8017,-63.8745 151.0516,-63.8745 155.3015,-68.1244 155.3015,-72.3743 155.3015,-72.3743 155.3015,-80.8742 155.3015,-80.8742 155.3015,-85.1241 151.0516,-89.374 146.8017,-89.374"/>
<text text-anchor="middle" x="125.1289" y="-73.2485" font-family="Arial" font-size="15.00" fill="#c6c5fe">me.tsx</text>
</g>
<!-- me.tsx&#45;&gt;../src/gateway/me/index.ts -->
<g id="edge20" class="edge">
<title>me.tsx&#45;&gt;../src/gateway/me/index.ts</title>
<path fill="none" stroke="#757575" d="M155.385,-72.2167C187.7409,-67.568 240.5721,-60.1637 286.2578,-54.6243 316.4842,-50.9593 349.3495,-47.3313 379.4631,-44.1483"/>
<polygon fill="#757575" stroke="#757575" points="379.983,-47.613 389.5622,-43.0865 379.251,-40.6514 379.983,-47.613"/>
</g>
<!-- me.tsx&#45;&gt;../src/presenter/components/ecosystem/Me/index.ts -->
<g id="edge21" class="edge">
<title>me.tsx&#45;&gt;../src/presenter/components/ecosystem/Me/index.ts</title>
<path fill="none" stroke="#757575" d="M155.4451,-76.6243C187.3708,-76.6243 240.4559,-76.6243 294.7605,-76.6243"/>
<polygon fill="#757575" stroke="#757575" points="294.9097,-80.1244 304.9097,-76.6243 294.9097,-73.1244 294.9097,-80.1244"/>
</g>
<!-- me.tsx&#45;&gt;../src/useCase/useMe/index.ts -->
<g id="edge22" class="edge">
<title>me.tsx&#45;&gt;../src/useCase/useMe/index.ts</title>
<path fill="none" stroke="#757575" d="M155.385,-81.0318C187.7409,-85.6805 240.5721,-93.0849 286.2578,-98.6243 311.9804,-101.7431 339.6141,-104.8353 365.8367,-107.6491"/>
<polygon fill="#757575" stroke="#757575" points="365.4958,-111.1326 375.8107,-108.7134 366.2386,-104.1721 365.4958,-111.1326"/>
</g>
</g>
</svg>
