<?xml version="1.0" encoding="UTF-8" standalone="no"?>
<!DOCTYPE svg PUBLIC "-//W3C//DTD SVG 1.1//EN"
 "http://www.w3.org/Graphics/SVG/1.1/DTD/svg11.dtd">
<!-- Generated by graphviz version 2.40.1 (20161225.0304)
 -->
<!-- Title: G Pages: 1 -->
<svg width="2427pt" height="357pt"
 viewBox="0.00 0.00 2427.09 356.88" xmlns="http://www.w3.org/2000/svg" xmlns:xlink="http://www.w3.org/1999/xlink">
<g id="graph0" class="graph" transform="scale(1 1) rotate(0) translate(21.6 335.2762)">
<title>G</title>
<polygon fill="#111111" stroke="transparent" points="-21.6,21.6 -21.6,-335.2762 2405.4862,-335.2762 2405.4862,21.6 -21.6,21.6"/>
<!-- ../src/domain/me/index.ts -->
<g id="node1" class="node">
<title>../src/domain/me/index.ts</title>
<path fill="none" stroke="#c6c5fe" d="M2023.1263,-183.8017C2023.1263,-183.8017 1857.6686,-183.8017 1857.6686,-183.8017 1853.4187,-183.8017 1849.1687,-179.5518 1849.1687,-175.3019 1849.1687,-175.3019 1849.1687,-166.802 1849.1687,-166.802 1849.1687,-162.5521 1853.4187,-158.3022 1857.6686,-158.3022 1857.6686,-158.3022 2023.1263,-158.3022 2023.1263,-158.3022 2027.3763,-158.3022 2031.6262,-162.5521 2031.6262,-166.802 2031.6262,-166.802 2031.6262,-175.3019 2031.6262,-175.3019 2031.6262,-179.5518 2027.3763,-183.8017 2023.1263,-183.8017"/>
<text text-anchor="middle" x="1940.3975" y="-167.6762" font-family="Arial" font-size="15.00" fill="#c6c5fe">../src/domain/me/index.ts</text>
</g>
<!-- ../src/domain/me/me.ts -->
<g id="node2" class="node">
<title>../src/domain/me/me.ts</title>
<path fill="none" stroke="#cfffac" d="M2354.3879,-205.8017C2354.3879,-205.8017 2203.974,-205.8017 2203.974,-205.8017 2199.724,-205.8017 2195.4741,-201.5518 2195.4741,-197.3019 2195.4741,-197.3019 2195.4741,-188.802 2195.4741,-188.802 2195.4741,-184.5521 2199.724,-180.3022 2203.974,-180.3022 2203.974,-180.3022 2354.3879,-180.3022 2354.3879,-180.3022 2358.6378,-180.3022 2362.8877,-184.5521 2362.8877,-188.802 2362.8877,-188.802 2362.8877,-197.3019 2362.8877,-197.3019 2362.8877,-201.5518 2358.6378,-205.8017 2354.3879,-205.8017"/>
<text text-anchor="middle" x="2279.1809" y="-189.6762" font-family="Arial" font-size="15.00" fill="#cfffac">../src/domain/me/me.ts</text>
</g>
<!-- ../src/domain/me/index.ts&#45;&gt;../src/domain/me/me.ts -->
<g id="edge1" class="edge">
<title>../src/domain/me/index.ts&#45;&gt;../src/domain/me/me.ts</title>
<path fill="none" stroke="#757575" d="M2031.6309,-176.9765C2079.2023,-180.0657 2137.3072,-183.8389 2185.2657,-186.9533"/>
<polygon fill="#757575" stroke="#757575" points="2185.1323,-190.4519 2195.3381,-187.6074 2185.586,-183.4666 2185.1323,-190.4519"/>
</g>
<!-- ../src/domain/me/type.ts -->
<g id="node3" class="node">
<title>../src/domain/me/type.ts</title>
<path fill="none" stroke="#cfffac" d="M2358.4024,-162.8017C2358.4024,-162.8017 2199.9594,-162.8017 2199.9594,-162.8017 2195.7095,-162.8017 2191.4596,-158.5518 2191.4596,-154.3019 2191.4596,-154.3019 2191.4596,-145.802 2191.4596,-145.802 2191.4596,-141.5521 2195.7095,-137.3022 2199.9594,-137.3022 2199.9594,-137.3022 2358.4024,-137.3022 2358.4024,-137.3022 2362.6523,-137.3022 2366.9022,-141.5521 2366.9022,-145.802 2366.9022,-145.802 2366.9022,-154.3019 2366.9022,-154.3019 2366.9022,-158.5518 2362.6523,-162.8017 2358.4024,-162.8017"/>
<text text-anchor="middle" x="2279.1809" y="-146.6762" font-family="Arial" font-size="15.00" fill="#cfffac">../src/domain/me/type.ts</text>
</g>
<!-- ../src/domain/me/index.ts&#45;&gt;../src/domain/me/type.ts -->
<g id="edge2" class="edge">
<title>../src/domain/me/index.ts&#45;&gt;../src/domain/me/type.ts</title>
<path fill="none" stroke="#757575" d="M2031.6309,-165.3967C2077.8247,-162.5333 2133.9508,-159.0543 2181.0743,-156.1333"/>
<polygon fill="#757575" stroke="#757575" points="2181.5302,-159.6118 2191.2945,-155.4997 2181.097,-152.6252 2181.5302,-159.6118"/>
</g>
<!-- ../src/externalInterface/api/http/client/client.ts -->
<g id="node4" class="node">
<title>../src/externalInterface/api/http/client/client.ts</title>
<path fill="none" stroke="#cfffac" d="M2087.8693,-227.8017C2087.8693,-227.8017 1792.9256,-227.8017 1792.9256,-227.8017 1788.6757,-227.8017 1784.4258,-223.5518 1784.4258,-219.3019 1784.4258,-219.3019 1784.4258,-210.802 1784.4258,-210.802 1784.4258,-206.5521 1788.6757,-202.3022 1792.9256,-202.3022 1792.9256,-202.3022 2087.8693,-202.3022 2087.8693,-202.3022 2092.1192,-202.3022 2096.3691,-206.5521 2096.3691,-210.802 2096.3691,-210.802 2096.3691,-219.3019 2096.3691,-219.3019 2096.3691,-223.5518 2092.1192,-227.8017 2087.8693,-227.8017"/>
<text text-anchor="middle" x="1940.3975" y="-211.6762" font-family="Arial" font-size="15.00" fill="#cfffac">../src/externalInterface/api/http/client/client.ts</text>
</g>
<!-- ../src/externalInterface/api/http/client/index.ts -->
<g id="node5" class="node">
<title>../src/externalInterface/api/http/client/index.ts</title>
<path fill="none" stroke="#c6c5fe" d="M1697.7265,-227.8017C1697.7265,-227.8017 1402.0982,-227.8017 1402.0982,-227.8017 1397.8483,-227.8017 1393.5983,-223.5518 1393.5983,-219.3019 1393.5983,-219.3019 1393.5983,-210.802 1393.5983,-210.802 1393.5983,-206.5521 1397.8483,-202.3022 1402.0982,-202.3022 1402.0982,-202.3022 1697.7265,-202.3022 1697.7265,-202.3022 1701.9765,-202.3022 1706.2264,-206.5521 1706.2264,-210.802 1706.2264,-210.802 1706.2264,-219.3019 1706.2264,-219.3019 1706.2264,-223.5518 1701.9765,-227.8017 1697.7265,-227.8017"/>
<text text-anchor="middle" x="1549.9124" y="-211.6762" font-family="Arial" font-size="15.00" fill="#c6c5fe">../src/externalInterface/api/http/client/index.ts</text>
</g>
<!-- ../src/externalInterface/api/http/client/index.ts&#45;&gt;../src/externalInterface/api/http/client/client.ts -->
<g id="edge3" class="edge">
<title>../src/externalInterface/api/http/client/index.ts&#45;&gt;../src/externalInterface/api/http/client/client.ts</title>
<path fill="none" stroke="#757575" d="M1706.4876,-215.052C1728.7516,-215.052 1751.7143,-215.052 1774.1543,-215.052"/>
<polygon fill="#757575" stroke="#757575" points="1774.4235,-218.5521 1784.4234,-215.052 1774.4234,-211.5521 1774.4235,-218.5521"/>
</g>
<!-- ../src/externalInterface/api/http/client/util.ts -->
<g id="node6" class="node">
<title>../src/externalInterface/api/http/client/util.ts</title>
<path fill="none" stroke="#cfffac" d="M1689.5419,-184.8017C1689.5419,-184.8017 1410.2828,-184.8017 1410.2828,-184.8017 1406.0329,-184.8017 1401.7829,-180.5518 1401.7829,-176.3019 1401.7829,-176.3019 1401.7829,-167.802 1401.7829,-167.802 1401.7829,-163.5521 1406.0329,-159.3022 1410.2828,-159.3022 1410.2828,-159.3022 1689.5419,-159.3022 1689.5419,-159.3022 1693.7919,-159.3022 1698.0418,-163.5521 1698.0418,-167.802 1698.0418,-167.802 1698.0418,-176.3019 1698.0418,-176.3019 1698.0418,-180.5518 1693.7919,-184.8017 1689.5419,-184.8017"/>
<text text-anchor="middle" x="1549.9124" y="-168.6762" font-family="Arial" font-size="15.00" fill="#cfffac">../src/externalInterface/api/http/client/util.ts</text>
</g>
<!-- ../src/externalInterface/api/http/me.ts -->
<g id="node7" class="node">
<title>../src/externalInterface/api/http/me.ts</title>
<path fill="none" stroke="#c6c5fe" d="M1273.7766,-184.8017C1273.7766,-184.8017 1032.5608,-184.8017 1032.5608,-184.8017 1028.3109,-184.8017 1024.061,-180.5518 1024.061,-176.3019 1024.061,-176.3019 1024.061,-167.802 1024.061,-167.802 1024.061,-163.5521 1028.3109,-159.3022 1032.5608,-159.3022 1032.5608,-159.3022 1273.7766,-159.3022 1273.7766,-159.3022 1278.0265,-159.3022 1282.2764,-163.5521 1282.2764,-167.802 1282.2764,-167.802 1282.2764,-176.3019 1282.2764,-176.3019 1282.2764,-180.5518 1278.0265,-184.8017 1273.7766,-184.8017"/>
<text text-anchor="middle" x="1153.1687" y="-168.6762" font-family="Arial" font-size="15.00" fill="#c6c5fe">../src/externalInterface/api/http/me.ts</text>
</g>
<!-- ../src/externalInterface/api/http/me.ts&#45;&gt;../src/externalInterface/api/http/client/index.ts -->
<g id="edge4" class="edge">
<title>../src/externalInterface/api/http/me.ts&#45;&gt;../src/externalInterface/api/http/client/index.ts</title>
<path fill="none" stroke="#757575" d="M1269.7915,-184.6918C1318.0206,-189.919 1374.0635,-195.9931 1423.2926,-201.3286"/>
<polygon fill="#757575" stroke="#757575" points="1423.0466,-204.8224 1433.3655,-202.4203 1423.8009,-197.8631 1423.0466,-204.8224"/>
</g>
<!-- ../src/externalInterface/api/http/me.ts&#45;&gt;../src/externalInterface/api/http/client/util.ts -->
<g id="edge5" class="edge">
<title>../src/externalInterface/api/http/me.ts&#45;&gt;../src/externalInterface/api/http/client/util.ts</title>
<path fill="none" stroke="#757575" d="M1282.5284,-172.052C1317.3566,-172.052 1355.4269,-172.052 1391.6372,-172.052"/>
<polygon fill="#757575" stroke="#757575" points="1391.7968,-175.5521 1401.7968,-172.052 1391.7967,-168.5521 1391.7968,-175.5521"/>
</g>
<!-- ../src/gateway/me/index.ts -->
<g id="node8" class="node">
<title>../src/gateway/me/index.ts</title>
<path fill="none" stroke="#c6c5fe" d="M424.0113,-184.8017C424.0113,-184.8017 251.2084,-184.8017 251.2084,-184.8017 246.9585,-184.8017 242.7086,-180.5518 242.7086,-176.3019 242.7086,-176.3019 242.7086,-167.802 242.7086,-167.802 242.7086,-163.5521 246.9585,-159.3022 251.2084,-159.3022 251.2084,-159.3022 424.0113,-159.3022 424.0113,-159.3022 428.2612,-159.3022 432.5112,-163.5521 432.5112,-167.802 432.5112,-167.802 432.5112,-176.3019 432.5112,-176.3019 432.5112,-180.5518 428.2612,-184.8017 424.0113,-184.8017"/>
<text text-anchor="middle" x="337.6099" y="-168.6762" font-family="Arial" font-size="15.00" fill="#c6c5fe">../src/gateway/me/index.ts</text>
</g>
<!-- ../src/gateway/me/me.ts -->
<g id="node9" class="node">
<title>../src/gateway/me/me.ts</title>
<path fill="none" stroke="#c6c5fe" d="M814.4744,-184.8017C814.4744,-184.8017 656.7155,-184.8017 656.7155,-184.8017 652.4656,-184.8017 648.2157,-180.5518 648.2157,-176.3019 648.2157,-176.3019 648.2157,-167.802 648.2157,-167.802 648.2157,-163.5521 652.4656,-159.3022 656.7155,-159.3022 656.7155,-159.3022 814.4744,-159.3022 814.4744,-159.3022 818.7244,-159.3022 822.9743,-163.5521 822.9743,-167.802 822.9743,-167.802 822.9743,-176.3019 822.9743,-176.3019 822.9743,-180.5518 818.7244,-184.8017 814.4744,-184.8017"/>
<text text-anchor="middle" x="735.595" y="-168.6762" font-family="Arial" font-size="15.00" fill="#c6c5fe">../src/gateway/me/me.ts</text>
</g>
<!-- ../src/gateway/me/index.ts&#45;&gt;../src/gateway/me/me.ts -->
<g id="edge6" class="edge">
<title>../src/gateway/me/index.ts&#45;&gt;../src/gateway/me/me.ts</title>
<path fill="none" stroke="#757575" d="M432.4316,-172.052C494.5015,-172.052 575.403,-172.052 638.0195,-172.052"/>
<polygon fill="#757575" stroke="#757575" points="638.3007,-175.5521 648.3006,-172.052 638.3006,-168.5521 638.3007,-175.5521"/>
</g>
<!-- ../src/gateway/me/me.ts&#45;&gt;../src/externalInterface/api/http/me.ts -->
<g id="edge7" class="edge">
<title>../src/gateway/me/me.ts&#45;&gt;../src/externalInterface/api/http/me.ts</title>
<path fill="none" stroke="#757575" d="M822.8778,-172.052C878.1392,-172.052 950.8179,-172.052 1013.9264,-172.052"/>
<polygon fill="#757575" stroke="#757575" points="1013.9687,-175.5521 1023.9687,-172.052 1013.9686,-168.5521 1013.9687,-175.5521"/>
</g>
<!-- ../src/presenter/components/ecosystem/Me/Content.tsx -->
<g id="node10" class="node">
<title>../src/presenter/components/ecosystem/Me/Content.tsx</title>
<path fill="none" stroke="#c6c5fe" d="M2123.2165,-140.8017C2123.2165,-140.8017 1757.5784,-140.8017 1757.5784,-140.8017 1753.3285,-140.8017 1749.0786,-136.5518 1749.0786,-132.3019 1749.0786,-132.3019 1749.0786,-123.802 1749.0786,-123.802 1749.0786,-119.5521 1753.3285,-115.3022 1757.5784,-115.3022 1757.5784,-115.3022 2123.2165,-115.3022 2123.2165,-115.3022 2127.4664,-115.3022 2131.7164,-119.5521 2131.7164,-123.802 2131.7164,-123.802 2131.7164,-132.3019 2131.7164,-132.3019 2131.7164,-136.5518 2127.4664,-140.8017 2123.2165,-140.8017"/>
<text text-anchor="middle" x="1940.3975" y="-124.6762" font-family="Arial" font-size="15.00" fill="#c6c5fe">../src/presenter/components/ecosystem/Me/Content.tsx</text>
</g>
<!-- ../src/useCase/useMe/type.ts -->
<g id="node11" class="node">
<title>../src/useCase/useMe/type.ts</title>
<path fill="none" stroke="#cfffac" d="M2375.5921,-99.8017C2375.5921,-99.8017 2182.7697,-99.8017 2182.7697,-99.8017 2178.5198,-99.8017 2174.2699,-95.5518 2174.2699,-91.3019 2174.2699,-91.3019 2174.2699,-82.802 2174.2699,-82.802 2174.2699,-78.5521 2178.5198,-74.3022 2182.7697,-74.3022 2182.7697,-74.3022 2375.5921,-74.3022 2375.5921,-74.3022 2379.842,-74.3022 2384.092,-78.5521 2384.092,-82.802 2384.092,-82.802 2384.092,-91.3019 2384.092,-91.3019 2384.092,-95.5518 2379.842,-99.8017 2375.5921,-99.8017"/>
<text text-anchor="middle" x="2279.1809" y="-83.6762" font-family="Arial" font-size="15.00" fill="#cfffac">../src/useCase/useMe/type.ts</text>
</g>
<!-- ../src/presenter/components/ecosystem/Me/Content.tsx&#45;&gt;../src/useCase/useMe/type.ts -->
<g id="edge8" class="edge">
<title>../src/presenter/components/ecosystem/Me/Content.tsx&#45;&gt;../src/useCase/useMe/type.ts</title>
<path fill="none" stroke="#757575" d="M2044.808,-115.4161C2082.7331,-110.8263 2125.7803,-105.6167 2164.5417,-100.9257"/>
<polygon fill="#757575" stroke="#757575" points="2165.3166,-104.3576 2174.8236,-99.6814 2164.4755,-97.4083 2165.3166,-104.3576"/>
</g>
<!-- ../src/presenter/components/ecosystem/Me/Exception.tsx -->
<g id="node12" class="node">
<title>../src/presenter/components/ecosystem/Me/Exception.tsx</title>
<path fill="none" stroke="#cfffac" d="M2130.0539,-58.8017C2130.0539,-58.8017 1750.741,-58.8017 1750.741,-58.8017 1746.4911,-58.8017 1742.2412,-54.5518 1742.2412,-50.3019 1742.2412,-50.3019 1742.2412,-41.802 1742.2412,-41.802 1742.2412,-37.5521 1746.4911,-33.3022 1750.741,-33.3022 1750.741,-33.3022 2130.0539,-33.3022 2130.0539,-33.3022 2134.3038,-33.3022 2138.5537,-37.5521 2138.5537,-41.802 2138.5537,-41.802 2138.5537,-50.3019 2138.5537,-50.3019 2138.5537,-54.5518 2134.3038,-58.8017 2130.0539,-58.8017"/>
<text text-anchor="middle" x="1940.3975" y="-42.6762" font-family="Arial" font-size="15.00" fill="#cfffac">../src/presenter/components/ecosystem/Me/Exception.tsx</text>
</g>
<!-- ../src/presenter/components/ecosystem/Me/Me.tsx -->
<g id="node13" class="node">
<title>../src/presenter/components/ecosystem/Me/Me.tsx</title>
<path fill="none" stroke="#c6c5fe" d="M902.7148,-141.8017C902.7148,-141.8017 568.4752,-141.8017 568.4752,-141.8017 564.2252,-141.8017 559.9753,-137.5518 559.9753,-133.3019 559.9753,-133.3019 559.9753,-124.802 559.9753,-124.802 559.9753,-120.5521 564.2252,-116.3022 568.4752,-116.3022 568.4752,-116.3022 902.7148,-116.3022 902.7148,-116.3022 906.9647,-116.3022 911.2146,-120.5521 911.2146,-124.802 911.2146,-124.802 911.2146,-133.3019 911.2146,-133.3019 911.2146,-137.5518 906.9647,-141.8017 902.7148,-141.8017"/>
<text text-anchor="middle" x="735.595" y="-125.6762" font-family="Arial" font-size="15.00" fill="#c6c5fe">../src/presenter/components/ecosystem/Me/Me.tsx</text>
</g>
<!-- ../src/presenter/components/ecosystem/Me/Placeholder.tsx -->
<g id="node14" class="node">
<title>../src/presenter/components/ecosystem/Me/Placeholder.tsx</title>
<path fill="none" stroke="#cfffac" d="M1348.8423,-141.8017C1348.8423,-141.8017 957.4951,-141.8017 957.4951,-141.8017 953.2452,-141.8017 948.9952,-137.5518 948.9952,-133.3019 948.9952,-133.3019 948.9952,-124.802 948.9952,-124.802 948.9952,-120.5521 953.2452,-116.3022 957.4951,-116.3022 957.4951,-116.3022 1348.8423,-116.3022 1348.8423,-116.3022 1353.0922,-116.3022 1357.3422,-120.5521 1357.3422,-124.802 1357.3422,-124.802 1357.3422,-133.3019 1357.3422,-133.3019 1357.3422,-137.5518 1353.0922,-141.8017 1348.8423,-141.8017"/>
<text text-anchor="middle" x="1153.1687" y="-125.6762" font-family="Arial" font-size="15.00" fill="#cfffac">../src/presenter/components/ecosystem/Me/Placeholder.tsx</text>
</g>
<!-- ../src/presenter/components/ecosystem/Me/Me.tsx&#45;&gt;../src/presenter/components/ecosystem/Me/Placeholder.tsx -->
<g id="edge9" class="edge">
<title>../src/presenter/components/ecosystem/Me/Me.tsx&#45;&gt;../src/presenter/components/ecosystem/Me/Placeholder.tsx</title>
<path fill="none" stroke="#757575" d="M911.1712,-129.052C920.3437,-129.052 929.604,-129.052 938.8788,-129.052"/>
<polygon fill="#757575" stroke="#757575" points="938.9453,-132.5521 948.9452,-129.052 938.9452,-125.5521 938.9453,-132.5521"/>
</g>
<!-- ../src/presenter/components/ecosystem/Me/index.ts -->
<g id="node15" class="node">
<title>../src/presenter/components/ecosystem/Me/index.ts</title>
<path fill="none" stroke="#c6c5fe" d="M508.2518,-141.8017C508.2518,-141.8017 166.9679,-141.8017 166.9679,-141.8017 162.718,-141.8017 158.4681,-137.5518 158.4681,-133.3019 158.4681,-133.3019 158.4681,-124.802 158.4681,-124.802 158.4681,-120.5521 162.718,-116.3022 166.9679,-116.3022 166.9679,-116.3022 508.2518,-116.3022 508.2518,-116.3022 512.5017,-116.3022 516.7516,-120.5521 516.7516,-124.802 516.7516,-124.802 516.7516,-133.3019 516.7516,-133.3019 516.7516,-137.5518 512.5017,-141.8017 508.2518,-141.8017"/>
<text text-anchor="middle" x="337.6099" y="-125.6762" font-family="Arial" font-size="15.00" fill="#c6c5fe">../src/presenter/components/ecosystem/Me/index.ts</text>
</g>
<!-- ../src/presenter/components/ecosystem/Me/index.ts&#45;&gt;../src/presenter/components/ecosystem/Me/Me.tsx -->
<g id="edge10" class="edge">
<title>../src/presenter/components/ecosystem/Me/index.ts&#45;&gt;../src/presenter/components/ecosystem/Me/Me.tsx</title>
<path fill="none" stroke="#757575" d="M516.81,-129.052C527.7885,-129.052 538.8481,-129.052 549.8534,-129.052"/>
<polygon fill="#757575" stroke="#757575" points="549.9412,-132.5521 559.9412,-129.052 549.9411,-125.5521 549.9412,-132.5521"/>
</g>
<!-- ../src/presenter/components/environment/Me/Me.ts -->
<g id="node16" class="node">
<title>../src/presenter/components/environment/Me/Me.ts</title>
<path fill="none" stroke="#c6c5fe" d="M904.5696,-98.8017C904.5696,-98.8017 566.6204,-98.8017 566.6204,-98.8017 562.3705,-98.8017 558.1205,-94.5518 558.1205,-90.3019 558.1205,-90.3019 558.1205,-81.802 558.1205,-81.802 558.1205,-77.5521 562.3705,-73.3022 566.6204,-73.3022 566.6204,-73.3022 904.5696,-73.3022 904.5696,-73.3022 908.8195,-73.3022 913.0694,-77.5521 913.0694,-81.802 913.0694,-81.802 913.0694,-90.3019 913.0694,-90.3019 913.0694,-94.5518 908.8195,-98.8017 904.5696,-98.8017"/>
<text text-anchor="middle" x="735.595" y="-82.6762" font-family="Arial" font-size="15.00" fill="#c6c5fe">../src/presenter/components/environment/Me/Me.ts</text>
</g>
<!-- ../src/useCase/useMe/index.ts -->
<g id="node17" class="node">
<title>../src/useCase/useMe/index.ts</title>
<path fill="none" stroke="#c6c5fe" d="M1253.0868,-98.8017C1253.0868,-98.8017 1053.2506,-98.8017 1053.2506,-98.8017 1049.0006,-98.8017 1044.7507,-94.5518 1044.7507,-90.3019 1044.7507,-90.3019 1044.7507,-81.802 1044.7507,-81.802 1044.7507,-77.5521 1049.0006,-73.3022 1053.2506,-73.3022 1053.2506,-73.3022 1253.0868,-73.3022 1253.0868,-73.3022 1257.3368,-73.3022 1261.5867,-77.5521 1261.5867,-81.802 1261.5867,-81.802 1261.5867,-90.3019 1261.5867,-90.3019 1261.5867,-94.5518 1257.3368,-98.8017 1253.0868,-98.8017"/>
<text text-anchor="middle" x="1153.1687" y="-82.6762" font-family="Arial" font-size="15.00" fill="#c6c5fe">../src/useCase/useMe/index.ts</text>
</g>
<!-- ../src/presenter/components/environment/Me/Me.ts&#45;&gt;../src/useCase/useMe/index.ts -->
<g id="edge11" class="edge">
<title>../src/presenter/components/environment/Me/Me.ts&#45;&gt;../src/useCase/useMe/index.ts</title>
<path fill="none" stroke="#757575" d="M912.9865,-86.052C954.0744,-86.052 996.8224,-86.052 1034.6683,-86.052"/>
<polygon fill="#757575" stroke="#757575" points="1034.6921,-89.5521 1044.6921,-86.052 1034.692,-82.5521 1034.6921,-89.5521"/>
</g>
<!-- ../src/useCase/useMe/interactor.tsx -->
<g id="node20" class="node">
<title>../src/useCase/useMe/interactor.tsx</title>
<path fill="none" stroke="#c6c5fe" d="M1666.6705,-99.8017C1666.6705,-99.8017 1433.1543,-99.8017 1433.1543,-99.8017 1428.9043,-99.8017 1424.6544,-95.5518 1424.6544,-91.3019 1424.6544,-91.3019 1424.6544,-82.802 1424.6544,-82.802 1424.6544,-78.5521 1428.9043,-74.3022 1433.1543,-74.3022 1433.1543,-74.3022 1666.6705,-74.3022 1666.6705,-74.3022 1670.9204,-74.3022 1675.1703,-78.5521 1675.1703,-82.802 1675.1703,-82.802 1675.1703,-91.3019 1675.1703,-91.3019 1675.1703,-95.5518 1670.9204,-99.8017 1666.6705,-99.8017"/>
<text text-anchor="middle" x="1549.9124" y="-83.6762" font-family="Arial" font-size="15.00" fill="#c6c5fe">../src/useCase/useMe/interactor.tsx</text>
</g>
<!-- ../src/useCase/useMe/index.ts&#45;&gt;../src/useCase/useMe/interactor.tsx -->
<g id="edge13" class="edge">
<title>../src/useCase/useMe/index.ts&#45;&gt;../src/useCase/useMe/interactor.tsx</title>
<path fill="none" stroke="#757575" d="M1261.8429,-86.3259C1308.9538,-86.4446 1364.6145,-86.5849 1414.3881,-86.7104"/>
<polygon fill="#757575" stroke="#757575" points="1414.578,-90.2108 1424.5869,-86.7361 1414.5957,-83.2108 1414.578,-90.2108"/>
</g>
<!-- ../src/useCase/useMe/useMe.ts -->
<g id="node21" class="node">
<title>../src/useCase/useMe/useMe.ts</title>
<path fill="none" stroke="#c6c5fe" d="M1654.4931,-37.8017C1654.4931,-37.8017 1445.3316,-37.8017 1445.3316,-37.8017 1441.0817,-37.8017 1436.8318,-33.5518 1436.8318,-29.3019 1436.8318,-29.3019 1436.8318,-20.802 1436.8318,-20.802 1436.8318,-16.5521 1441.0817,-12.3022 1445.3316,-12.3022 1445.3316,-12.3022 1654.4931,-12.3022 1654.4931,-12.3022 1658.743,-12.3022 1662.9929,-16.5521 1662.9929,-20.802 1662.9929,-20.802 1662.9929,-29.3019 1662.9929,-29.3019 1662.9929,-33.5518 1658.743,-37.8017 1654.4931,-37.8017"/>
<text text-anchor="middle" x="1549.9124" y="-21.6762" font-family="Arial" font-size="15.00" fill="#c6c5fe">../src/useCase/useMe/useMe.ts</text>
</g>
<!-- ../src/useCase/useMe/index.ts&#45;&gt;../src/useCase/useMe/useMe.ts -->
<g id="edge14" class="edge">
<title>../src/useCase/useMe/index.ts&#45;&gt;../src/useCase/useMe/useMe.ts</title>
<path fill="none" stroke="#757575" d="M1235.3742,-73.4127C1300.0326,-63.4714 1390.1138,-49.6213 1457.3105,-39.2897"/>
<polygon fill="#757575" stroke="#757575" points="1458.1196,-42.7065 1467.4716,-37.7274 1457.0558,-35.7878 1458.1196,-42.7065"/>
</g>
<!-- ../src/presenter/components/environment/Me/index.ts -->
<g id="node18" class="node">
<title>../src/presenter/components/environment/Me/index.ts</title>
<path fill="none" stroke="#c6c5fe" d="M514.1064,-98.8017C514.1064,-98.8017 161.1133,-98.8017 161.1133,-98.8017 156.8634,-98.8017 152.6134,-94.5518 152.6134,-90.3019 152.6134,-90.3019 152.6134,-81.802 152.6134,-81.802 152.6134,-77.5521 156.8634,-73.3022 161.1133,-73.3022 161.1133,-73.3022 514.1064,-73.3022 514.1064,-73.3022 518.3564,-73.3022 522.6063,-77.5521 522.6063,-81.802 522.6063,-81.802 522.6063,-90.3019 522.6063,-90.3019 522.6063,-94.5518 518.3564,-98.8017 514.1064,-98.8017"/>
<text text-anchor="middle" x="337.6099" y="-82.6762" font-family="Arial" font-size="15.00" fill="#c6c5fe">../src/presenter/components/environment/Me/index.ts</text>
</g>
<!-- ../src/presenter/components/environment/Me/index.ts&#45;&gt;../src/presenter/components/environment/Me/Me.ts -->
<g id="edge12" class="edge">
<title>../src/presenter/components/environment/Me/index.ts&#45;&gt;../src/presenter/components/environment/Me/Me.ts</title>
<path fill="none" stroke="#757575" d="M522.621,-86.052C531.1561,-86.052 539.7257,-86.052 548.2666,-86.052"/>
<polygon fill="#757575" stroke="#757575" points="548.2758,-89.5521 558.2758,-86.052 548.2758,-82.5521 548.2758,-89.5521"/>
</g>
<!-- ../src/presenter/containers/ErrorBoundary.tsx -->
<g id="node19" class="node">
<title>../src/presenter/containers/ErrorBoundary.tsx</title>
<path fill="none" stroke="#cfffac" d="M485.9515,-227.8017C485.9515,-227.8017 189.2682,-227.8017 189.2682,-227.8017 185.0183,-227.8017 180.7684,-223.5518 180.7684,-219.3019 180.7684,-219.3019 180.7684,-210.802 180.7684,-210.802 180.7684,-206.5521 185.0183,-202.3022 189.2682,-202.3022 189.2682,-202.3022 485.9515,-202.3022 485.9515,-202.3022 490.2014,-202.3022 494.4514,-206.5521 494.4514,-210.802 494.4514,-210.802 494.4514,-219.3019 494.4514,-219.3019 494.4514,-223.5518 490.2014,-227.8017 485.9515,-227.8017"/>
<text text-anchor="middle" x="337.6099" y="-211.6762" font-family="Arial" font-size="15.00" fill="#cfffac">../src/presenter/containers/ErrorBoundary.tsx</text>
</g>
<!-- ../src/useCase/useMe/interactor.tsx&#45;&gt;../src/domain/me/index.ts -->
<g id="edge15" class="edge">
<title>../src/useCase/useMe/interactor.tsx&#45;&gt;../src/domain/me/index.ts</title>
<path fill="none" stroke="#757575" d="M1581.6836,-99.7528C1619.3741,-114.2779 1684.407,-137.6462 1742.3193,-150.052 1773.4416,-156.7188 1807.7888,-161.3063 1839.0192,-164.4479"/>
<polygon fill="#757575" stroke="#757575" points="1838.7507,-167.9381 1849.0414,-165.4178 1839.4251,-160.9707 1838.7507,-167.9381"/>
</g>
<!-- ../src/useCase/useMe/interactor.tsx&#45;&gt;../src/presenter/components/ecosystem/Me/Content.tsx -->
<g id="edge16" class="edge">
<title>../src/useCase/useMe/interactor.tsx&#45;&gt;../src/presenter/components/ecosystem/Me/Content.tsx</title>
<path fill="none" stroke="#757575" d="M1670.257,-99.6879C1714.5278,-104.3362 1764.8542,-109.6203 1809.9717,-114.3576"/>
<polygon fill="#757575" stroke="#757575" points="1809.8034,-117.8591 1820.1142,-115.4225 1810.5344,-110.8973 1809.8034,-117.8591"/>
</g>
<!-- ../src/useCase/useMe/interactor.tsx&#45;&gt;../src/useCase/useMe/type.ts -->
<g id="edge18" class="edge">
<title>../src/useCase/useMe/interactor.tsx&#45;&gt;../src/useCase/useMe/type.ts</title>
<path fill="none" stroke="#757575" d="M1675.2781,-87.052C1812.6066,-87.052 2031.0031,-87.052 2164.1102,-87.052"/>
<polygon fill="#757575" stroke="#757575" points="2164.3368,-90.5521 2174.3368,-87.052 2164.3367,-83.5521 2164.3368,-90.5521"/>
</g>
<!-- ../src/useCase/useMe/interactor.tsx&#45;&gt;../src/presenter/components/ecosystem/Me/Exception.tsx -->
<g id="edge17" class="edge">
<title>../src/useCase/useMe/interactor.tsx&#45;&gt;../src/presenter/components/ecosystem/Me/Exception.tsx</title>
<path fill="none" stroke="#757575" d="M1670.257,-74.4161C1714.5278,-69.7677 1764.8542,-64.4836 1809.9717,-59.7464"/>
<polygon fill="#757575" stroke="#757575" points="1810.5344,-63.2066 1820.1142,-58.6814 1809.8034,-56.2449 1810.5344,-63.2066"/>
</g>
<!-- ../src/useCase/useMe/useMe.ts&#45;&gt;../src/useCase/useMe/type.ts -->
<g id="edge19" class="edge">
<title>../src/useCase/useMe/useMe.ts&#45;&gt;../src/useCase/useMe/type.ts</title>
<path fill="none" stroke="#757575" d="M1647.818,-12.4194C1765.6963,-.0536 1968.9761,12.1621 2138.4756,-24.052 2178.9228,-32.6936 2221.809,-53.8583 2249.4517,-69.2784"/>
<polygon fill="#757575" stroke="#757575" points="2247.7931,-72.3615 2258.2162,-74.2612 2251.2527,-66.2761 2247.7931,-72.3615"/>
</g>
<!-- _app.tsx -->
<g id="node22" class="node">
<title>_app.tsx</title>
<path fill="none" stroke="#c6c5fe" d="M86.1358,-227.8017C86.1358,-227.8017 30.7261,-227.8017 30.7261,-227.8017 26.4761,-227.8017 22.2262,-223.5518 22.2262,-219.3019 22.2262,-219.3019 22.2262,-210.802 22.2262,-210.802 22.2262,-206.5521 26.4761,-202.3022 30.7261,-202.3022 30.7261,-202.3022 86.1358,-202.3022 86.1358,-202.3022 90.3857,-202.3022 94.6356,-206.5521 94.6356,-210.802 94.6356,-210.802 94.6356,-219.3019 94.6356,-219.3019 94.6356,-223.5518 90.3857,-227.8017 86.1358,-227.8017"/>
<text text-anchor="middle" x="58.4309" y="-211.6762" font-family="Arial" font-size="15.00" fill="#c6c5fe">_app.tsx</text>
</g>
<!-- _app.tsx&#45;&gt;../src/presenter/containers/ErrorBoundary.tsx -->
<g id="edge20" class="edge">
<title>_app.tsx&#45;&gt;../src/presenter/containers/ErrorBoundary.tsx</title>
<path fill="none" stroke="#757575" d="M94.6425,-215.052C114.9669,-215.052 141.9433,-215.052 170.521,-215.052"/>
<polygon fill="#757575" stroke="#757575" points="170.6877,-218.5521 180.6877,-215.052 170.6877,-211.5521 170.6877,-218.5521"/>
</g>
<!-- api/mock/me.ts -->
<g id="node23" class="node">
<title>api/mock/me.ts</title>
<path fill="none" stroke="#cfffac" d="M108.293,-270.8017C108.293,-270.8017 8.5689,-270.8017 8.5689,-270.8017 4.3189,-270.8017 .069,-266.5518 .069,-262.3019 .069,-262.3019 .069,-253.802 .069,-253.802 .069,-249.5521 4.3189,-245.3022 8.5689,-245.3022 8.5689,-245.3022 108.293,-245.3022 108.293,-245.3022 112.5429,-245.3022 116.7928,-249.5521 116.7928,-253.802 116.7928,-253.802 116.7928,-262.3019 116.7928,-262.3019 116.7928,-266.5518 112.5429,-270.8017 108.293,-270.8017"/>
<text text-anchor="middle" x="58.4309" y="-254.6762" font-family="Arial" font-size="15.00" fill="#cfffac">api/mock/me.ts</text>
</g>
<!-- index.tsx -->
<g id="node24" class="node">
<title>index.tsx</title>
<path fill="none" stroke="#cfffac" d="M87.6256,-313.8017C87.6256,-313.8017 29.2362,-313.8017 29.2362,-313.8017 24.9862,-313.8017 20.7363,-309.5518 20.7363,-305.3019 20.7363,-305.3019 20.7363,-296.802 20.7363,-296.802 20.7363,-292.5521 24.9862,-288.3022 29.2362,-288.3022 29.2362,-288.3022 87.6256,-288.3022 87.6256,-288.3022 91.8756,-288.3022 96.1255,-292.5521 96.1255,-296.802 96.1255,-296.802 96.1255,-305.3019 96.1255,-305.3019 96.1255,-309.5518 91.8756,-313.8017 87.6256,-313.8017"/>
<text text-anchor="middle" x="58.4309" y="-297.6762" font-family="Arial" font-size="15.00" fill="#cfffac">index.tsx</text>
</g>
<!-- me.tsx -->
<g id="node25" class="node">
<title>me.tsx</title>
<path fill="none" stroke="#c6c5fe" d="M80.1037,-141.8017C80.1037,-141.8017 36.7581,-141.8017 36.7581,-141.8017 32.5082,-141.8017 28.2583,-137.5518 28.2583,-133.3019 28.2583,-133.3019 28.2583,-124.802 28.2583,-124.802 28.2583,-120.5521 32.5082,-116.3022 36.7581,-116.3022 36.7581,-116.3022 80.1037,-116.3022 80.1037,-116.3022 84.3536,-116.3022 88.6035,-120.5521 88.6035,-124.802 88.6035,-124.802 88.6035,-133.3019 88.6035,-133.3019 88.6035,-137.5518 84.3536,-141.8017 80.1037,-141.8017"/>
<text text-anchor="middle" x="58.4309" y="-125.6762" font-family="Arial" font-size="15.00" fill="#c6c5fe">me.tsx</text>
</g>
<!-- me.tsx&#45;&gt;../src/gateway/me/index.ts -->
<g id="edge21" class="edge">
<title>me.tsx&#45;&gt;../src/gateway/me/index.ts</title>
<path fill="none" stroke="#757575" d="M88.8683,-137.0873C107.2835,-141.7123 131.2978,-147.3273 152.8618,-151.052 178.6707,-155.5098 206.6774,-159.2513 232.8965,-162.2828"/>
<polygon fill="#757575" stroke="#757575" points="232.5191,-165.7624 242.8494,-163.4099 233.3068,-158.8068 232.5191,-165.7624"/>
</g>
<!-- me.tsx&#45;&gt;../src/presenter/components/ecosystem/Me/index.ts -->
<g id="edge22" class="edge">
<title>me.tsx&#45;&gt;../src/presenter/components/ecosystem/Me/index.ts</title>
<path fill="none" stroke="#757575" d="M88.5732,-129.052C104.3556,-129.052 125.1402,-129.052 147.9856,-129.052"/>
<polygon fill="#757575" stroke="#757575" points="148.2535,-132.5521 158.2535,-129.052 148.2535,-125.5521 148.2535,-132.5521"/>
</g>
<!-- me.tsx&#45;&gt;../src/presenter/components/environment/Me/index.ts -->
<g id="edge23" class="edge">
<title>me.tsx&#45;&gt;../src/presenter/components/environment/Me/index.ts</title>
<path fill="none" stroke="#757575" d="M88.8683,-121.0166C107.2835,-116.3916 131.2978,-110.7766 152.8618,-107.052 167.7354,-104.4829 183.339,-102.1518 198.9097,-100.0573"/>
<polygon fill="#757575" stroke="#757575" points="199.6701,-103.4876 209.1291,-98.715 198.7584,-96.5472 199.6701,-103.4876"/>
</g>
</g>
</svg>
