<?xml version="1.0" encoding="UTF-8" standalone="no"?>
<!DOCTYPE svg PUBLIC "-//W3C//DTD SVG 1.1//EN"
 "http://www.w3.org/Graphics/SVG/1.1/DTD/svg11.dtd">
<!-- Generated by graphviz version 2.40.1 (20161225.0304)
 -->
<!-- Title: G Pages: 1 -->
<svg width="2638pt" height="357pt"
 viewBox="0.00 0.00 2638.31 357.22" xmlns="http://www.w3.org/2000/svg" xmlns:xlink="http://www.w3.org/1999/xlink">
<g id="graph0" class="graph" transform="scale(1 1) rotate(0) translate(21.6 335.6239)">
<title>G</title>
<polygon fill="#111111" stroke="transparent" points="-21.6,21.6 -21.6,-335.6239 2616.7074,-335.6239 2616.7074,21.6 -21.6,21.6"/>
<!-- ../src/domain/me/index.ts -->
<g id="node1" class="node">
<title>../src/domain/me/index.ts</title>
<path fill="none" stroke="#c6c5fe" d="M2023.1263,-184.1494C2023.1263,-184.1494 1857.6686,-184.1494 1857.6686,-184.1494 1853.4187,-184.1494 1849.1687,-179.8995 1849.1687,-175.6496 1849.1687,-175.6496 1849.1687,-167.1497 1849.1687,-167.1497 1849.1687,-162.8998 1853.4187,-158.6499 1857.6686,-158.6499 1857.6686,-158.6499 2023.1263,-158.6499 2023.1263,-158.6499 2027.3763,-158.6499 2031.6262,-162.8998 2031.6262,-167.1497 2031.6262,-167.1497 2031.6262,-175.6496 2031.6262,-175.6496 2031.6262,-179.8995 2027.3763,-184.1494 2023.1263,-184.1494"/>
<text text-anchor="middle" x="1940.3975" y="-168.0239" font-family="Arial" font-size="15.00" fill="#c6c5fe">../src/domain/me/index.ts</text>
</g>
<!-- ../src/domain/me/me.ts -->
<g id="node2" class="node">
<title>../src/domain/me/me.ts</title>
<path fill="none" stroke="#cfffac" d="M2354.3879,-184.1494C2354.3879,-184.1494 2203.974,-184.1494 2203.974,-184.1494 2199.724,-184.1494 2195.4741,-179.8995 2195.4741,-175.6496 2195.4741,-175.6496 2195.4741,-167.1497 2195.4741,-167.1497 2195.4741,-162.8998 2199.724,-158.6499 2203.974,-158.6499 2203.974,-158.6499 2354.3879,-158.6499 2354.3879,-158.6499 2358.6378,-158.6499 2362.8877,-162.8998 2362.8877,-167.1497 2362.8877,-167.1497 2362.8877,-175.6496 2362.8877,-175.6496 2362.8877,-179.8995 2358.6378,-184.1494 2354.3879,-184.1494"/>
<text text-anchor="middle" x="2279.1809" y="-168.0239" font-family="Arial" font-size="15.00" fill="#cfffac">../src/domain/me/me.ts</text>
</g>
<!-- ../src/domain/me/index.ts&#45;&gt;../src/domain/me/me.ts -->
<g id="edge1" class="edge">
<title>../src/domain/me/index.ts&#45;&gt;../src/domain/me/me.ts</title>
<path fill="none" stroke="#757575" d="M2031.6309,-171.3996C2079.2023,-171.3996 2137.3072,-171.3996 2185.2657,-171.3996"/>
<polygon fill="#757575" stroke="#757575" points="2185.3381,-174.8997 2195.3381,-171.3996 2185.3381,-167.8997 2185.3381,-174.8997"/>
</g>
<!-- ../src/domain/me/type.ts -->
<g id="node3" class="node">
<title>../src/domain/me/type.ts</title>
<path fill="none" stroke="#cfffac" d="M2586.7183,-121.1494C2586.7183,-121.1494 2428.2753,-121.1494 2428.2753,-121.1494 2424.0254,-121.1494 2419.7755,-116.8995 2419.7755,-112.6496 2419.7755,-112.6496 2419.7755,-104.1497 2419.7755,-104.1497 2419.7755,-99.8998 2424.0254,-95.6499 2428.2753,-95.6499 2428.2753,-95.6499 2586.7183,-95.6499 2586.7183,-95.6499 2590.9682,-95.6499 2595.2182,-99.8998 2595.2182,-104.1497 2595.2182,-104.1497 2595.2182,-112.6496 2595.2182,-112.6496 2595.2182,-116.8995 2590.9682,-121.1494 2586.7183,-121.1494"/>
<text text-anchor="middle" x="2507.4968" y="-105.0239" font-family="Arial" font-size="15.00" fill="#cfffac">../src/domain/me/type.ts</text>
</g>
<!-- ../src/domain/me/index.ts&#45;&gt;../src/domain/me/type.ts -->
<g id="edge2" class="edge">
<title>../src/domain/me/index.ts&#45;&gt;../src/domain/me/type.ts</title>
<path fill="none" stroke="#757575" d="M2031.6294,-161.8759C2065.2246,-158.3297 2103.5857,-154.2346 2138.4756,-150.3996 2230.2975,-140.307 2334.9158,-128.3573 2409.2525,-119.7896"/>
<polygon fill="#757575" stroke="#757575" points="2410.0031,-123.2263 2419.5363,-118.6037 2409.2011,-116.2724 2410.0031,-123.2263"/>
</g>
<!-- ../src/externalInterface/api/http/client/client.ts -->
<g id="node4" class="node">
<title>../src/externalInterface/api/http/client/client.ts</title>
<path fill="none" stroke="#cfffac" d="M2087.8693,-228.1494C2087.8693,-228.1494 1792.9256,-228.1494 1792.9256,-228.1494 1788.6757,-228.1494 1784.4258,-223.8995 1784.4258,-219.6496 1784.4258,-219.6496 1784.4258,-211.1497 1784.4258,-211.1497 1784.4258,-206.8998 1788.6757,-202.6499 1792.9256,-202.6499 1792.9256,-202.6499 2087.8693,-202.6499 2087.8693,-202.6499 2092.1192,-202.6499 2096.3691,-206.8998 2096.3691,-211.1497 2096.3691,-211.1497 2096.3691,-219.6496 2096.3691,-219.6496 2096.3691,-223.8995 2092.1192,-228.1494 2087.8693,-228.1494"/>
<text text-anchor="middle" x="1940.3975" y="-212.0239" font-family="Arial" font-size="15.00" fill="#cfffac">../src/externalInterface/api/http/client/client.ts</text>
</g>
<!-- ../src/externalInterface/api/http/client/index.ts -->
<g id="node5" class="node">
<title>../src/externalInterface/api/http/client/index.ts</title>
<path fill="none" stroke="#c6c5fe" d="M1697.7265,-228.1494C1697.7265,-228.1494 1402.0982,-228.1494 1402.0982,-228.1494 1397.8483,-228.1494 1393.5983,-223.8995 1393.5983,-219.6496 1393.5983,-219.6496 1393.5983,-211.1497 1393.5983,-211.1497 1393.5983,-206.8998 1397.8483,-202.6499 1402.0982,-202.6499 1402.0982,-202.6499 1697.7265,-202.6499 1697.7265,-202.6499 1701.9765,-202.6499 1706.2264,-206.8998 1706.2264,-211.1497 1706.2264,-211.1497 1706.2264,-219.6496 1706.2264,-219.6496 1706.2264,-223.8995 1701.9765,-228.1494 1697.7265,-228.1494"/>
<text text-anchor="middle" x="1549.9124" y="-212.0239" font-family="Arial" font-size="15.00" fill="#c6c5fe">../src/externalInterface/api/http/client/index.ts</text>
</g>
<!-- ../src/externalInterface/api/http/client/index.ts&#45;&gt;../src/externalInterface/api/http/client/client.ts -->
<g id="edge3" class="edge">
<title>../src/externalInterface/api/http/client/index.ts&#45;&gt;../src/externalInterface/api/http/client/client.ts</title>
<path fill="none" stroke="#757575" d="M1706.4876,-215.3996C1728.7516,-215.3996 1751.7143,-215.3996 1774.1543,-215.3996"/>
<polygon fill="#757575" stroke="#757575" points="1774.4235,-218.8997 1784.4234,-215.3996 1774.4234,-211.8997 1774.4235,-218.8997"/>
</g>
<!-- ../src/externalInterface/api/http/client/util.ts -->
<g id="node6" class="node">
<title>../src/externalInterface/api/http/client/util.ts</title>
<path fill="none" stroke="#cfffac" d="M1689.5419,-185.1494C1689.5419,-185.1494 1410.2828,-185.1494 1410.2828,-185.1494 1406.0329,-185.1494 1401.7829,-180.8995 1401.7829,-176.6496 1401.7829,-176.6496 1401.7829,-168.1497 1401.7829,-168.1497 1401.7829,-163.8998 1406.0329,-159.6499 1410.2828,-159.6499 1410.2828,-159.6499 1689.5419,-159.6499 1689.5419,-159.6499 1693.7919,-159.6499 1698.0418,-163.8998 1698.0418,-168.1497 1698.0418,-168.1497 1698.0418,-176.6496 1698.0418,-176.6496 1698.0418,-180.8995 1693.7919,-185.1494 1689.5419,-185.1494"/>
<text text-anchor="middle" x="1549.9124" y="-169.0239" font-family="Arial" font-size="15.00" fill="#cfffac">../src/externalInterface/api/http/client/util.ts</text>
</g>
<!-- ../src/externalInterface/api/http/me.ts -->
<g id="node7" class="node">
<title>../src/externalInterface/api/http/me.ts</title>
<path fill="none" stroke="#c6c5fe" d="M1273.7766,-185.1494C1273.7766,-185.1494 1032.5608,-185.1494 1032.5608,-185.1494 1028.3109,-185.1494 1024.061,-180.8995 1024.061,-176.6496 1024.061,-176.6496 1024.061,-168.1497 1024.061,-168.1497 1024.061,-163.8998 1028.3109,-159.6499 1032.5608,-159.6499 1032.5608,-159.6499 1273.7766,-159.6499 1273.7766,-159.6499 1278.0265,-159.6499 1282.2764,-163.8998 1282.2764,-168.1497 1282.2764,-168.1497 1282.2764,-176.6496 1282.2764,-176.6496 1282.2764,-180.8995 1278.0265,-185.1494 1273.7766,-185.1494"/>
<text text-anchor="middle" x="1153.1687" y="-169.0239" font-family="Arial" font-size="15.00" fill="#c6c5fe">../src/externalInterface/api/http/me.ts</text>
</g>
<!-- ../src/externalInterface/api/http/me.ts&#45;&gt;../src/externalInterface/api/http/client/index.ts -->
<g id="edge4" class="edge">
<title>../src/externalInterface/api/http/me.ts&#45;&gt;../src/externalInterface/api/http/client/index.ts</title>
<path fill="none" stroke="#757575" d="M1269.7915,-185.0395C1318.0206,-190.2667 1374.0635,-196.3407 1423.2926,-201.6763"/>
<polygon fill="#757575" stroke="#757575" points="1423.0466,-205.1701 1433.3655,-202.768 1423.8009,-198.2108 1423.0466,-205.1701"/>
</g>
<!-- ../src/externalInterface/api/http/me.ts&#45;&gt;../src/externalInterface/api/http/client/util.ts -->
<g id="edge5" class="edge">
<title>../src/externalInterface/api/http/me.ts&#45;&gt;../src/externalInterface/api/http/client/util.ts</title>
<path fill="none" stroke="#757575" d="M1282.5284,-172.3996C1317.3566,-172.3996 1355.4269,-172.3996 1391.6372,-172.3996"/>
<polygon fill="#757575" stroke="#757575" points="1391.7968,-175.8997 1401.7968,-172.3996 1391.7967,-168.8997 1391.7968,-175.8997"/>
</g>
<!-- ../src/gateway/me/index.ts -->
<g id="node8" class="node">
<title>../src/gateway/me/index.ts</title>
<path fill="none" stroke="#c6c5fe" d="M424.0113,-185.1494C424.0113,-185.1494 251.2084,-185.1494 251.2084,-185.1494 246.9585,-185.1494 242.7086,-180.8995 242.7086,-176.6496 242.7086,-176.6496 242.7086,-168.1497 242.7086,-168.1497 242.7086,-163.8998 246.9585,-159.6499 251.2084,-159.6499 251.2084,-159.6499 424.0113,-159.6499 424.0113,-159.6499 428.2612,-159.6499 432.5112,-163.8998 432.5112,-168.1497 432.5112,-168.1497 432.5112,-176.6496 432.5112,-176.6496 432.5112,-180.8995 428.2612,-185.1494 424.0113,-185.1494"/>
<text text-anchor="middle" x="337.6099" y="-169.0239" font-family="Arial" font-size="15.00" fill="#c6c5fe">../src/gateway/me/index.ts</text>
</g>
<!-- ../src/gateway/me/me.ts -->
<g id="node9" class="node">
<title>../src/gateway/me/me.ts</title>
<path fill="none" stroke="#c6c5fe" d="M814.4744,-185.1494C814.4744,-185.1494 656.7155,-185.1494 656.7155,-185.1494 652.4656,-185.1494 648.2157,-180.8995 648.2157,-176.6496 648.2157,-176.6496 648.2157,-168.1497 648.2157,-168.1497 648.2157,-163.8998 652.4656,-159.6499 656.7155,-159.6499 656.7155,-159.6499 814.4744,-159.6499 814.4744,-159.6499 818.7244,-159.6499 822.9743,-163.8998 822.9743,-168.1497 822.9743,-168.1497 822.9743,-176.6496 822.9743,-176.6496 822.9743,-180.8995 818.7244,-185.1494 814.4744,-185.1494"/>
<text text-anchor="middle" x="735.595" y="-169.0239" font-family="Arial" font-size="15.00" fill="#c6c5fe">../src/gateway/me/me.ts</text>
</g>
<!-- ../src/gateway/me/index.ts&#45;&gt;../src/gateway/me/me.ts -->
<g id="edge6" class="edge">
<title>../src/gateway/me/index.ts&#45;&gt;../src/gateway/me/me.ts</title>
<path fill="none" stroke="#757575" d="M432.4316,-172.3996C494.5015,-172.3996 575.403,-172.3996 638.0195,-172.3996"/>
<polygon fill="#757575" stroke="#757575" points="638.3007,-175.8997 648.3006,-172.3996 638.3006,-168.8997 638.3007,-175.8997"/>
</g>
<!-- ../src/gateway/me/me.ts&#45;&gt;../src/externalInterface/api/http/me.ts -->
<g id="edge7" class="edge">
<title>../src/gateway/me/me.ts&#45;&gt;../src/externalInterface/api/http/me.ts</title>
<path fill="none" stroke="#757575" d="M822.8778,-172.3996C878.1392,-172.3996 950.8179,-172.3996 1013.9264,-172.3996"/>
<polygon fill="#757575" stroke="#757575" points="1013.9687,-175.8997 1023.9687,-172.3996 1013.9686,-168.8997 1013.9687,-175.8997"/>
</g>
<!-- ../src/presenter/components/ecosystem/Me/Content.tsx -->
<g id="node10" class="node">
<title>../src/presenter/components/ecosystem/Me/Content.tsx</title>
<path fill="none" stroke="#c6c5fe" d="M2123.2165,-141.1494C2123.2165,-141.1494 1757.5784,-141.1494 1757.5784,-141.1494 1753.3285,-141.1494 1749.0786,-136.8995 1749.0786,-132.6496 1749.0786,-132.6496 1749.0786,-124.1497 1749.0786,-124.1497 1749.0786,-119.8998 1753.3285,-115.6499 1757.5784,-115.6499 1757.5784,-115.6499 2123.2165,-115.6499 2123.2165,-115.6499 2127.4664,-115.6499 2131.7164,-119.8998 2131.7164,-124.1497 2131.7164,-124.1497 2131.7164,-132.6496 2131.7164,-132.6496 2131.7164,-136.8995 2127.4664,-141.1494 2123.2165,-141.1494"/>
<text text-anchor="middle" x="1940.3975" y="-125.0239" font-family="Arial" font-size="15.00" fill="#c6c5fe">../src/presenter/components/ecosystem/Me/Content.tsx</text>
</g>
<!-- ../src/useCase/useMe/type.ts -->
<g id="node11" class="node">
<title>../src/useCase/useMe/type.ts</title>
<path fill="none" stroke="#c6c5fe" d="M2375.5921,-101.1494C2375.5921,-101.1494 2182.7697,-101.1494 2182.7697,-101.1494 2178.5198,-101.1494 2174.2699,-96.8995 2174.2699,-92.6496 2174.2699,-92.6496 2174.2699,-84.1497 2174.2699,-84.1497 2174.2699,-79.8998 2178.5198,-75.6499 2182.7697,-75.6499 2182.7697,-75.6499 2375.5921,-75.6499 2375.5921,-75.6499 2379.842,-75.6499 2384.092,-79.8998 2384.092,-84.1497 2384.092,-84.1497 2384.092,-92.6496 2384.092,-92.6496 2384.092,-96.8995 2379.842,-101.1494 2375.5921,-101.1494"/>
<text text-anchor="middle" x="2279.1809" y="-85.0239" font-family="Arial" font-size="15.00" fill="#c6c5fe">../src/useCase/useMe/type.ts</text>
</g>
<!-- ../src/presenter/components/ecosystem/Me/Content.tsx&#45;&gt;../src/useCase/useMe/type.ts -->
<g id="edge8" class="edge">
<title>../src/presenter/components/ecosystem/Me/Content.tsx&#45;&gt;../src/useCase/useMe/type.ts</title>
<path fill="none" stroke="#757575" d="M2047.5907,-115.7434C2084.7825,-111.3522 2126.6198,-106.4125 2164.3989,-101.9519"/>
<polygon fill="#757575" stroke="#757575" points="2164.9029,-105.4168 2174.4235,-100.7683 2164.082,-98.4651 2164.9029,-105.4168"/>
</g>
<!-- ../src/useCase/useMe/type.ts&#45;&gt;../src/domain/me/type.ts -->
<g id="edge19" class="edge">
<title>../src/useCase/useMe/type.ts&#45;&gt;../src/domain/me/type.ts</title>
<path fill="none" stroke="#757575" d="M2383.9837,-97.5802C2392.4845,-98.3248 2401.055,-99.0756 2409.5048,-99.8158"/>
<polygon fill="#757575" stroke="#757575" points="2409.4719,-103.3262 2419.7392,-100.7123 2410.0828,-96.3529 2409.4719,-103.3262"/>
</g>
<!-- ../src/presenter/components/ecosystem/Me/Exception.tsx -->
<g id="node12" class="node">
<title>../src/presenter/components/ecosystem/Me/Exception.tsx</title>
<path fill="none" stroke="#cfffac" d="M2130.0539,-59.1494C2130.0539,-59.1494 1750.741,-59.1494 1750.741,-59.1494 1746.4911,-59.1494 1742.2412,-54.8995 1742.2412,-50.6496 1742.2412,-50.6496 1742.2412,-42.1497 1742.2412,-42.1497 1742.2412,-37.8998 1746.4911,-33.6499 1750.741,-33.6499 1750.741,-33.6499 2130.0539,-33.6499 2130.0539,-33.6499 2134.3038,-33.6499 2138.5537,-37.8998 2138.5537,-42.1497 2138.5537,-42.1497 2138.5537,-50.6496 2138.5537,-50.6496 2138.5537,-54.8995 2134.3038,-59.1494 2130.0539,-59.1494"/>
<text text-anchor="middle" x="1940.3975" y="-43.0239" font-family="Arial" font-size="15.00" fill="#cfffac">../src/presenter/components/ecosystem/Me/Exception.tsx</text>
</g>
<!-- ../src/presenter/components/ecosystem/Me/Me.tsx -->
<g id="node13" class="node">
<title>../src/presenter/components/ecosystem/Me/Me.tsx</title>
<path fill="none" stroke="#c6c5fe" d="M902.7148,-142.1494C902.7148,-142.1494 568.4752,-142.1494 568.4752,-142.1494 564.2252,-142.1494 559.9753,-137.8995 559.9753,-133.6496 559.9753,-133.6496 559.9753,-125.1497 559.9753,-125.1497 559.9753,-120.8998 564.2252,-116.6499 568.4752,-116.6499 568.4752,-116.6499 902.7148,-116.6499 902.7148,-116.6499 906.9647,-116.6499 911.2146,-120.8998 911.2146,-125.1497 911.2146,-125.1497 911.2146,-133.6496 911.2146,-133.6496 911.2146,-137.8995 906.9647,-142.1494 902.7148,-142.1494"/>
<text text-anchor="middle" x="735.595" y="-126.0239" font-family="Arial" font-size="15.00" fill="#c6c5fe">../src/presenter/components/ecosystem/Me/Me.tsx</text>
</g>
<!-- ../src/presenter/components/ecosystem/Me/Placeholder.tsx -->
<g id="node14" class="node">
<title>../src/presenter/components/ecosystem/Me/Placeholder.tsx</title>
<path fill="none" stroke="#cfffac" d="M1348.8423,-142.1494C1348.8423,-142.1494 957.4951,-142.1494 957.4951,-142.1494 953.2452,-142.1494 948.9952,-137.8995 948.9952,-133.6496 948.9952,-133.6496 948.9952,-125.1497 948.9952,-125.1497 948.9952,-120.8998 953.2452,-116.6499 957.4951,-116.6499 957.4951,-116.6499 1348.8423,-116.6499 1348.8423,-116.6499 1353.0922,-116.6499 1357.3422,-120.8998 1357.3422,-125.1497 1357.3422,-125.1497 1357.3422,-133.6496 1357.3422,-133.6496 1357.3422,-137.8995 1353.0922,-142.1494 1348.8423,-142.1494"/>
<text text-anchor="middle" x="1153.1687" y="-126.0239" font-family="Arial" font-size="15.00" fill="#cfffac">../src/presenter/components/ecosystem/Me/Placeholder.tsx</text>
</g>
<!-- ../src/presenter/components/ecosystem/Me/Me.tsx&#45;&gt;../src/presenter/components/ecosystem/Me/Placeholder.tsx -->
<g id="edge9" class="edge">
<title>../src/presenter/components/ecosystem/Me/Me.tsx&#45;&gt;../src/presenter/components/ecosystem/Me/Placeholder.tsx</title>
<path fill="none" stroke="#757575" d="M911.1712,-129.3996C920.3437,-129.3996 929.604,-129.3996 938.8788,-129.3996"/>
<polygon fill="#757575" stroke="#757575" points="938.9453,-132.8997 948.9452,-129.3996 938.9452,-125.8997 938.9453,-132.8997"/>
</g>
<!-- ../src/presenter/components/ecosystem/Me/index.ts -->
<g id="node15" class="node">
<title>../src/presenter/components/ecosystem/Me/index.ts</title>
<path fill="none" stroke="#c6c5fe" d="M508.2518,-142.1494C508.2518,-142.1494 166.9679,-142.1494 166.9679,-142.1494 162.718,-142.1494 158.4681,-137.8995 158.4681,-133.6496 158.4681,-133.6496 158.4681,-125.1497 158.4681,-125.1497 158.4681,-120.8998 162.718,-116.6499 166.9679,-116.6499 166.9679,-116.6499 508.2518,-116.6499 508.2518,-116.6499 512.5017,-116.6499 516.7516,-120.8998 516.7516,-125.1497 516.7516,-125.1497 516.7516,-133.6496 516.7516,-133.6496 516.7516,-137.8995 512.5017,-142.1494 508.2518,-142.1494"/>
<text text-anchor="middle" x="337.6099" y="-126.0239" font-family="Arial" font-size="15.00" fill="#c6c5fe">../src/presenter/components/ecosystem/Me/index.ts</text>
</g>
<!-- ../src/presenter/components/ecosystem/Me/index.ts&#45;&gt;../src/presenter/components/ecosystem/Me/Me.tsx -->
<g id="edge10" class="edge">
<title>../src/presenter/components/ecosystem/Me/index.ts&#45;&gt;../src/presenter/components/ecosystem/Me/Me.tsx</title>
<path fill="none" stroke="#757575" d="M516.81,-129.3996C527.7885,-129.3996 538.8481,-129.3996 549.8534,-129.3996"/>
<polygon fill="#757575" stroke="#757575" points="549.9412,-132.8997 559.9412,-129.3996 549.9411,-125.8997 549.9412,-132.8997"/>
</g>
<!-- ../src/presenter/components/environment/Me/Me.ts -->
<g id="node16" class="node">
<title>../src/presenter/components/environment/Me/Me.ts</title>
<path fill="none" stroke="#c6c5fe" d="M904.5696,-99.1494C904.5696,-99.1494 566.6204,-99.1494 566.6204,-99.1494 562.3705,-99.1494 558.1205,-94.8995 558.1205,-90.6496 558.1205,-90.6496 558.1205,-82.1497 558.1205,-82.1497 558.1205,-77.8998 562.3705,-73.6499 566.6204,-73.6499 566.6204,-73.6499 904.5696,-73.6499 904.5696,-73.6499 908.8195,-73.6499 913.0694,-77.8998 913.0694,-82.1497 913.0694,-82.1497 913.0694,-90.6496 913.0694,-90.6496 913.0694,-94.8995 908.8195,-99.1494 904.5696,-99.1494"/>
<text text-anchor="middle" x="735.595" y="-83.0239" font-family="Arial" font-size="15.00" fill="#c6c5fe">../src/presenter/components/environment/Me/Me.ts</text>
</g>
<!-- ../src/useCase/useMe/index.ts -->
<g id="node17" class="node">
<title>../src/useCase/useMe/index.ts</title>
<path fill="none" stroke="#c6c5fe" d="M1253.0868,-99.1494C1253.0868,-99.1494 1053.2506,-99.1494 1053.2506,-99.1494 1049.0006,-99.1494 1044.7507,-94.8995 1044.7507,-90.6496 1044.7507,-90.6496 1044.7507,-82.1497 1044.7507,-82.1497 1044.7507,-77.8998 1049.0006,-73.6499 1053.2506,-73.6499 1053.2506,-73.6499 1253.0868,-73.6499 1253.0868,-73.6499 1257.3368,-73.6499 1261.5867,-77.8998 1261.5867,-82.1497 1261.5867,-82.1497 1261.5867,-90.6496 1261.5867,-90.6496 1261.5867,-94.8995 1257.3368,-99.1494 1253.0868,-99.1494"/>
<text text-anchor="middle" x="1153.1687" y="-83.0239" font-family="Arial" font-size="15.00" fill="#c6c5fe">../src/useCase/useMe/index.ts</text>
</g>
<!-- ../src/presenter/components/environment/Me/Me.ts&#45;&gt;../src/useCase/useMe/index.ts -->
<g id="edge11" class="edge">
<title>../src/presenter/components/environment/Me/Me.ts&#45;&gt;../src/useCase/useMe/index.ts</title>
<path fill="none" stroke="#757575" d="M912.9865,-86.3996C954.0744,-86.3996 996.8224,-86.3996 1034.6683,-86.3996"/>
<polygon fill="#757575" stroke="#757575" points="1034.6921,-89.8997 1044.6921,-86.3996 1034.692,-82.8997 1034.6921,-89.8997"/>
</g>
<!-- ../src/useCase/useMe/interactor.tsx -->
<g id="node20" class="node">
<title>../src/useCase/useMe/interactor.tsx</title>
<path fill="none" stroke="#c6c5fe" d="M1666.6705,-100.1494C1666.6705,-100.1494 1433.1543,-100.1494 1433.1543,-100.1494 1428.9043,-100.1494 1424.6544,-95.8995 1424.6544,-91.6496 1424.6544,-91.6496 1424.6544,-83.1497 1424.6544,-83.1497 1424.6544,-78.8998 1428.9043,-74.6499 1433.1543,-74.6499 1433.1543,-74.6499 1666.6705,-74.6499 1666.6705,-74.6499 1670.9204,-74.6499 1675.1703,-78.8998 1675.1703,-83.1497 1675.1703,-83.1497 1675.1703,-91.6496 1675.1703,-91.6496 1675.1703,-95.8995 1670.9204,-100.1494 1666.6705,-100.1494"/>
<text text-anchor="middle" x="1549.9124" y="-84.0239" font-family="Arial" font-size="15.00" fill="#c6c5fe">../src/useCase/useMe/interactor.tsx</text>
</g>
<!-- ../src/useCase/useMe/index.ts&#45;&gt;../src/useCase/useMe/interactor.tsx -->
<g id="edge13" class="edge">
<title>../src/useCase/useMe/index.ts&#45;&gt;../src/useCase/useMe/interactor.tsx</title>
<path fill="none" stroke="#757575" d="M1261.8429,-86.6736C1308.9538,-86.7923 1364.6145,-86.9326 1414.3881,-87.0581"/>
<polygon fill="#757575" stroke="#757575" points="1414.578,-90.5584 1424.5869,-87.0838 1414.5957,-83.5585 1414.578,-90.5584"/>
</g>
<!-- ../src/useCase/useMe/useMe.ts -->
<g id="node21" class="node">
<title>../src/useCase/useMe/useMe.ts</title>
<path fill="none" stroke="#c6c5fe" d="M1654.4931,-38.1494C1654.4931,-38.1494 1445.3316,-38.1494 1445.3316,-38.1494 1441.0817,-38.1494 1436.8318,-33.8995 1436.8318,-29.6496 1436.8318,-29.6496 1436.8318,-21.1497 1436.8318,-21.1497 1436.8318,-16.8998 1441.0817,-12.6499 1445.3316,-12.6499 1445.3316,-12.6499 1654.4931,-12.6499 1654.4931,-12.6499 1658.743,-12.6499 1662.9929,-16.8998 1662.9929,-21.1497 1662.9929,-21.1497 1662.9929,-29.6496 1662.9929,-29.6496 1662.9929,-33.8995 1658.743,-38.1494 1654.4931,-38.1494"/>
<text text-anchor="middle" x="1549.9124" y="-22.0239" font-family="Arial" font-size="15.00" fill="#c6c5fe">../src/useCase/useMe/useMe.ts</text>
</g>
<!-- ../src/useCase/useMe/index.ts&#45;&gt;../src/useCase/useMe/useMe.ts -->
<g id="edge14" class="edge">
<title>../src/useCase/useMe/index.ts&#45;&gt;../src/useCase/useMe/useMe.ts</title>
<path fill="none" stroke="#757575" d="M1235.3742,-73.7604C1300.0326,-63.8191 1390.1138,-49.9689 1457.3105,-39.6373"/>
<polygon fill="#757575" stroke="#757575" points="1458.1196,-43.0541 1467.4716,-38.0751 1457.0558,-36.1354 1458.1196,-43.0541"/>
</g>
<!-- ../src/presenter/components/environment/Me/index.ts -->
<g id="node18" class="node">
<title>../src/presenter/components/environment/Me/index.ts</title>
<path fill="none" stroke="#c6c5fe" d="M514.1064,-99.1494C514.1064,-99.1494 161.1133,-99.1494 161.1133,-99.1494 156.8634,-99.1494 152.6134,-94.8995 152.6134,-90.6496 152.6134,-90.6496 152.6134,-82.1497 152.6134,-82.1497 152.6134,-77.8998 156.8634,-73.6499 161.1133,-73.6499 161.1133,-73.6499 514.1064,-73.6499 514.1064,-73.6499 518.3564,-73.6499 522.6063,-77.8998 522.6063,-82.1497 522.6063,-82.1497 522.6063,-90.6496 522.6063,-90.6496 522.6063,-94.8995 518.3564,-99.1494 514.1064,-99.1494"/>
<text text-anchor="middle" x="337.6099" y="-83.0239" font-family="Arial" font-size="15.00" fill="#c6c5fe">../src/presenter/components/environment/Me/index.ts</text>
</g>
<!-- ../src/presenter/components/environment/Me/index.ts&#45;&gt;../src/presenter/components/environment/Me/Me.ts -->
<g id="edge12" class="edge">
<title>../src/presenter/components/environment/Me/index.ts&#45;&gt;../src/presenter/components/environment/Me/Me.ts</title>
<path fill="none" stroke="#757575" d="M522.621,-86.3996C531.1561,-86.3996 539.7257,-86.3996 548.2666,-86.3996"/>
<polygon fill="#757575" stroke="#757575" points="548.2758,-89.8997 558.2758,-86.3996 548.2758,-82.8997 548.2758,-89.8997"/>
</g>
<!-- ../src/presenter/containers/ErrorBoundary.tsx -->
<g id="node19" class="node">
<title>../src/presenter/containers/ErrorBoundary.tsx</title>
<path fill="none" stroke="#cfffac" d="M485.9515,-228.1494C485.9515,-228.1494 189.2682,-228.1494 189.2682,-228.1494 185.0183,-228.1494 180.7684,-223.8995 180.7684,-219.6496 180.7684,-219.6496 180.7684,-211.1497 180.7684,-211.1497 180.7684,-206.8998 185.0183,-202.6499 189.2682,-202.6499 189.2682,-202.6499 485.9515,-202.6499 485.9515,-202.6499 490.2014,-202.6499 494.4514,-206.8998 494.4514,-211.1497 494.4514,-211.1497 494.4514,-219.6496 494.4514,-219.6496 494.4514,-223.8995 490.2014,-228.1494 485.9515,-228.1494"/>
<text text-anchor="middle" x="337.6099" y="-212.0239" font-family="Arial" font-size="15.00" fill="#cfffac">../src/presenter/containers/ErrorBoundary.tsx</text>
</g>
<!-- ../src/useCase/useMe/interactor.tsx&#45;&gt;../src/domain/me/index.ts -->
<g id="edge15" class="edge">
<title>../src/useCase/useMe/interactor.tsx&#45;&gt;../src/domain/me/index.ts</title>
<path fill="none" stroke="#757575" d="M1581.6836,-100.1004C1619.3741,-114.6256 1684.407,-137.9939 1742.3193,-150.3996 1773.4416,-157.0665 1807.7888,-161.654 1839.0192,-164.7955"/>
<polygon fill="#757575" stroke="#757575" points="1838.7507,-168.2858 1849.0414,-165.7655 1839.4251,-161.3184 1838.7507,-168.2858"/>
</g>
<!-- ../src/useCase/useMe/interactor.tsx&#45;&gt;../src/presenter/components/ecosystem/Me/Content.tsx -->
<g id="edge16" class="edge">
<title>../src/useCase/useMe/interactor.tsx&#45;&gt;../src/presenter/components/ecosystem/Me/Content.tsx</title>
<path fill="none" stroke="#757575" d="M1670.257,-100.0355C1714.5278,-104.6839 1764.8542,-109.968 1809.9717,-114.7053"/>
<polygon fill="#757575" stroke="#757575" points="1809.8034,-118.2067 1820.1142,-115.7702 1810.5344,-111.245 1809.8034,-118.2067"/>
</g>
<!-- ../src/useCase/useMe/interactor.tsx&#45;&gt;../src/useCase/useMe/type.ts -->
<g id="edge18" class="edge">
<title>../src/useCase/useMe/interactor.tsx&#45;&gt;../src/useCase/useMe/type.ts</title>
<path fill="none" stroke="#757575" d="M1675.2781,-87.5716C1812.6066,-87.7599 2031.0031,-88.0593 2164.1102,-88.2419"/>
<polygon fill="#757575" stroke="#757575" points="2164.332,-91.7421 2174.3368,-88.2559 2164.3416,-84.7421 2164.332,-91.7421"/>
</g>
<!-- ../src/useCase/useMe/interactor.tsx&#45;&gt;../src/presenter/components/ecosystem/Me/Exception.tsx -->
<g id="edge17" class="edge">
<title>../src/useCase/useMe/interactor.tsx&#45;&gt;../src/presenter/components/ecosystem/Me/Exception.tsx</title>
<path fill="none" stroke="#757575" d="M1670.257,-74.7637C1714.5278,-70.1154 1764.8542,-64.8313 1809.9717,-60.094"/>
<polygon fill="#757575" stroke="#757575" points="1810.5344,-63.5543 1820.1142,-59.0291 1809.8034,-56.5926 1810.5344,-63.5543"/>
</g>
<!-- ../src/useCase/useMe/useMe.ts&#45;&gt;../src/useCase/useMe/type.ts -->
<g id="edge20" class="edge">
<title>../src/useCase/useMe/useMe.ts&#45;&gt;../src/useCase/useMe/type.ts</title>
<path fill="none" stroke="#757575" d="M1646.2957,-12.7625C1763.9703,-.1741 1968.3348,12.477 2138.4756,-24.3996 2179.2406,-33.2351 2222.3727,-54.9339 2249.9705,-70.6192"/>
<polygon fill="#757575" stroke="#757575" points="2248.301,-73.6968 2258.7084,-75.6807 2251.8097,-67.6396 2248.301,-73.6968"/>
</g>
<!-- _app.tsx -->
<g id="node22" class="node">
<title>_app.tsx</title>
<path fill="none" stroke="#c6c5fe" d="M86.1358,-228.1494C86.1358,-228.1494 30.7261,-228.1494 30.7261,-228.1494 26.4761,-228.1494 22.2262,-223.8995 22.2262,-219.6496 22.2262,-219.6496 22.2262,-211.1497 22.2262,-211.1497 22.2262,-206.8998 26.4761,-202.6499 30.7261,-202.6499 30.7261,-202.6499 86.1358,-202.6499 86.1358,-202.6499 90.3857,-202.6499 94.6356,-206.8998 94.6356,-211.1497 94.6356,-211.1497 94.6356,-219.6496 94.6356,-219.6496 94.6356,-223.8995 90.3857,-228.1494 86.1358,-228.1494"/>
<text text-anchor="middle" x="58.4309" y="-212.0239" font-family="Arial" font-size="15.00" fill="#c6c5fe">_app.tsx</text>
</g>
<!-- _app.tsx&#45;&gt;../src/presenter/containers/ErrorBoundary.tsx -->
<g id="edge21" class="edge">
<title>_app.tsx&#45;&gt;../src/presenter/containers/ErrorBoundary.tsx</title>
<path fill="none" stroke="#757575" d="M94.6425,-215.3996C114.9669,-215.3996 141.9433,-215.3996 170.521,-215.3996"/>
<polygon fill="#757575" stroke="#757575" points="170.6877,-218.8997 180.6877,-215.3996 170.6877,-211.8997 170.6877,-218.8997"/>
</g>
<!-- api/mock/me.ts -->
<g id="node23" class="node">
<title>api/mock/me.ts</title>
<path fill="none" stroke="#cfffac" d="M108.293,-271.1494C108.293,-271.1494 8.5689,-271.1494 8.5689,-271.1494 4.3189,-271.1494 .069,-266.8995 .069,-262.6496 .069,-262.6496 .069,-254.1497 .069,-254.1497 .069,-249.8998 4.3189,-245.6499 8.5689,-245.6499 8.5689,-245.6499 108.293,-245.6499 108.293,-245.6499 112.5429,-245.6499 116.7928,-249.8998 116.7928,-254.1497 116.7928,-254.1497 116.7928,-262.6496 116.7928,-262.6496 116.7928,-266.8995 112.5429,-271.1494 108.293,-271.1494"/>
<text text-anchor="middle" x="58.4309" y="-255.0239" font-family="Arial" font-size="15.00" fill="#cfffac">api/mock/me.ts</text>
</g>
<!-- index.tsx -->
<g id="node24" class="node">
<title>index.tsx</title>
<path fill="none" stroke="#cfffac" d="M87.6256,-314.1494C87.6256,-314.1494 29.2362,-314.1494 29.2362,-314.1494 24.9862,-314.1494 20.7363,-309.8995 20.7363,-305.6496 20.7363,-305.6496 20.7363,-297.1497 20.7363,-297.1497 20.7363,-292.8998 24.9862,-288.6499 29.2362,-288.6499 29.2362,-288.6499 87.6256,-288.6499 87.6256,-288.6499 91.8756,-288.6499 96.1255,-292.8998 96.1255,-297.1497 96.1255,-297.1497 96.1255,-305.6496 96.1255,-305.6496 96.1255,-309.8995 91.8756,-314.1494 87.6256,-314.1494"/>
<text text-anchor="middle" x="58.4309" y="-298.0239" font-family="Arial" font-size="15.00" fill="#cfffac">index.tsx</text>
</g>
<!-- me.tsx -->
<g id="node25" class="node">
<title>me.tsx</title>
<path fill="none" stroke="#c6c5fe" d="M80.1037,-142.1494C80.1037,-142.1494 36.7581,-142.1494 36.7581,-142.1494 32.5082,-142.1494 28.2583,-137.8995 28.2583,-133.6496 28.2583,-133.6496 28.2583,-125.1497 28.2583,-125.1497 28.2583,-120.8998 32.5082,-116.6499 36.7581,-116.6499 36.7581,-116.6499 80.1037,-116.6499 80.1037,-116.6499 84.3536,-116.6499 88.6035,-120.8998 88.6035,-125.1497 88.6035,-125.1497 88.6035,-133.6496 88.6035,-133.6496 88.6035,-137.8995 84.3536,-142.1494 80.1037,-142.1494"/>
<text text-anchor="middle" x="58.4309" y="-126.0239" font-family="Arial" font-size="15.00" fill="#c6c5fe">me.tsx</text>
</g>
<!-- me.tsx&#45;&gt;../src/gateway/me/index.ts -->
<g id="edge22" class="edge">
<title>me.tsx&#45;&gt;../src/gateway/me/index.ts</title>
<path fill="none" stroke="#757575" d="M88.8683,-137.435C107.2835,-142.06 131.2978,-147.675 152.8618,-151.3996 178.6707,-155.8575 206.6774,-159.599 232.8965,-162.6305"/>
<polygon fill="#757575" stroke="#757575" points="232.5191,-166.1101 242.8494,-163.7576 233.3068,-159.1545 232.5191,-166.1101"/>
</g>
<!-- me.tsx&#45;&gt;../src/presenter/components/ecosystem/Me/index.ts -->
<g id="edge23" class="edge">
<title>me.tsx&#45;&gt;../src/presenter/components/ecosystem/Me/index.ts</title>
<path fill="none" stroke="#757575" d="M88.5732,-129.3996C104.3556,-129.3996 125.1402,-129.3996 147.9856,-129.3996"/>
<polygon fill="#757575" stroke="#757575" points="148.2535,-132.8997 158.2535,-129.3996 148.2535,-125.8997 148.2535,-132.8997"/>
</g>
<!-- me.tsx&#45;&gt;../src/presenter/components/environment/Me/index.ts -->
<g id="edge24" class="edge">
<title>me.tsx&#45;&gt;../src/presenter/components/environment/Me/index.ts</title>
<path fill="none" stroke="#757575" d="M88.8683,-121.3643C107.2835,-116.7393 131.2978,-111.1243 152.8618,-107.3996 167.7354,-104.8306 183.339,-102.4995 198.9097,-100.405"/>
<polygon fill="#757575" stroke="#757575" points="199.6701,-103.8353 209.1291,-99.0627 198.7584,-96.8949 199.6701,-103.8353"/>
</g>
</g>
</svg>
