<?xml version="1.0" encoding="UTF-8" standalone="no"?>
<!DOCTYPE svg PUBLIC "-//W3C//DTD SVG 1.1//EN"
 "http://www.w3.org/Graphics/SVG/1.1/DTD/svg11.dtd">
<!-- Generated by graphviz version 2.40.1 (20161225.0304)
 -->
<!-- Title: G Pages: 1 -->
<svg width="2797pt" height="282pt"
 viewBox="0.00 0.00 2796.71 282.45" xmlns="http://www.w3.org/2000/svg" xmlns:xlink="http://www.w3.org/1999/xlink">
<g id="graph0" class="graph" transform="scale(1 1) rotate(0) translate(21.6 260.8485)">
<title>G</title>
<polygon fill="#111111" stroke="transparent" points="-21.6,21.6 -21.6,-260.8485 2775.1083,-260.8485 2775.1083,21.6 -21.6,21.6"/>
<!-- ../src/controller/me/index.ts -->
<g id="node1" class="node">
<title>../src/controller/me/index.ts</title>
<path fill="none" stroke="#c6c5fe" d="M421.4065,-110.374C421.4065,-110.374 242.9587,-110.374 242.9587,-110.374 238.7088,-110.374 234.4589,-106.1241 234.4589,-101.8742 234.4589,-101.8742 234.4589,-93.3743 234.4589,-93.3743 234.4589,-89.1244 238.7088,-84.8745 242.9587,-84.8745 242.9587,-84.8745 421.4065,-84.8745 421.4065,-84.8745 425.6565,-84.8745 429.9064,-89.1244 429.9064,-93.3743 429.9064,-93.3743 429.9064,-101.8742 429.9064,-101.8742 429.9064,-106.1241 425.6565,-110.374 421.4065,-110.374"/>
<text text-anchor="middle" x="332.1826" y="-94.2485" font-family="Arial" font-size="15.00" fill="#c6c5fe">../src/controller/me/index.ts</text>
</g>
<!-- ../src/controller/me/me.tsx -->
<g id="node2" class="node">
<title>../src/controller/me/me.tsx</title>
<path fill="none" stroke="#c6c5fe" d="M808.2653,-131.374C808.2653,-131.374 637.8612,-131.374 637.8612,-131.374 633.6113,-131.374 629.3613,-127.1241 629.3613,-122.8742 629.3613,-122.8742 629.3613,-114.3743 629.3613,-114.3743 629.3613,-110.1244 633.6113,-105.8745 637.8612,-105.8745 637.8612,-105.8745 808.2653,-105.8745 808.2653,-105.8745 812.5152,-105.8745 816.7651,-110.1244 816.7651,-114.3743 816.7651,-114.3743 816.7651,-122.8742 816.7651,-122.8742 816.7651,-127.1241 812.5152,-131.374 808.2653,-131.374"/>
<text text-anchor="middle" x="723.0632" y="-115.2485" font-family="Arial" font-size="15.00" fill="#c6c5fe">../src/controller/me/me.tsx</text>
</g>
<!-- ../src/controller/me/index.ts&#45;&gt;../src/controller/me/me.tsx -->
<g id="edge1" class="edge">
<title>../src/controller/me/index.ts&#45;&gt;../src/controller/me/me.tsx</title>
<path fill="none" stroke="#757575" d="M429.81,-102.8693C487.418,-105.9643 560.3025,-109.88 618.9978,-113.0334"/>
<polygon fill="#757575" stroke="#757575" points="618.863,-116.5311 629.0364,-113.5727 619.2386,-109.5412 618.863,-116.5311"/>
</g>
<!-- ../src/controller/me/type.ts -->
<g id="node3" class="node">
<title>../src/controller/me/type.ts</title>
<path fill="none" stroke="#cfffac" d="M1224.1764,-236.374C1224.1764,-236.374 1053.743,-236.374 1053.743,-236.374 1049.4931,-236.374 1045.2432,-232.1241 1045.2432,-227.8742 1045.2432,-227.8742 1045.2432,-219.3743 1045.2432,-219.3743 1045.2432,-215.1244 1049.4931,-210.8745 1053.743,-210.8745 1053.743,-210.8745 1224.1764,-210.8745 1224.1764,-210.8745 1228.4263,-210.8745 1232.6762,-215.1244 1232.6762,-219.3743 1232.6762,-219.3743 1232.6762,-227.8742 1232.6762,-227.8742 1232.6762,-232.1241 1228.4263,-236.374 1224.1764,-236.374"/>
<text text-anchor="middle" x="1138.9597" y="-220.2485" font-family="Arial" font-size="15.00" fill="#cfffac">../src/controller/me/type.ts</text>
</g>
<!-- ../src/controller/me/me.tsx&#45;&gt;../src/controller/me/type.ts -->
<g id="edge2" class="edge">
<title>../src/controller/me/me.tsx&#45;&gt;../src/controller/me/type.ts</title>
<path fill="none" stroke="#757575" d="M748.3639,-131.3341C787.3068,-150.2766 864.7642,-185.5148 934.623,-202.6243 966.8772,-210.5238 1002.7022,-215.455 1035.2328,-218.5321"/>
<polygon fill="#757575" stroke="#757575" points="1034.9421,-222.02 1045.2152,-219.4288 1035.5684,-215.0481 1034.9421,-222.02"/>
</g>
<!-- ../src/gateway/me/index.ts -->
<g id="node4" class="node">
<title>../src/gateway/me/index.ts</title>
<path fill="none" stroke="#c6c5fe" d="M1225.3612,-193.374C1225.3612,-193.374 1052.5583,-193.374 1052.5583,-193.374 1048.3083,-193.374 1044.0584,-189.1241 1044.0584,-184.8742 1044.0584,-184.8742 1044.0584,-176.3743 1044.0584,-176.3743 1044.0584,-172.1244 1048.3083,-167.8745 1052.5583,-167.8745 1052.5583,-167.8745 1225.3612,-167.8745 1225.3612,-167.8745 1229.6111,-167.8745 1233.861,-172.1244 1233.861,-176.3743 1233.861,-176.3743 1233.861,-184.8742 1233.861,-184.8742 1233.861,-189.1241 1229.6111,-193.374 1225.3612,-193.374"/>
<text text-anchor="middle" x="1138.9597" y="-177.2485" font-family="Arial" font-size="15.00" fill="#c6c5fe">../src/gateway/me/index.ts</text>
</g>
<!-- ../src/controller/me/me.tsx&#45;&gt;../src/gateway/me/index.ts -->
<g id="edge3" class="edge">
<title>../src/controller/me/me.tsx&#45;&gt;../src/gateway/me/index.ts</title>
<path fill="none" stroke="#757575" d="M795.9148,-131.278C836.6632,-138.2044 888.4099,-146.7502 934.623,-153.6243 966.88,-158.4224 1002.0671,-163.2261 1034.0098,-167.4234"/>
<polygon fill="#757575" stroke="#757575" points="1033.8895,-170.9374 1044.259,-168.7641 1034.7974,-163.9965 1033.8895,-170.9374"/>
</g>
<!-- ../src/presenter/components/ecosystem/Me/Content.tsx -->
<g id="node5" class="node">
<title>../src/presenter/components/ecosystem/Me/Content.tsx</title>
<path fill="none" stroke="#c6c5fe" d="M1753.5249,-151.374C1753.5249,-151.374 1387.8868,-151.374 1387.8868,-151.374 1383.6368,-151.374 1379.3869,-147.1241 1379.3869,-142.8742 1379.3869,-142.8742 1379.3869,-134.3743 1379.3869,-134.3743 1379.3869,-130.1244 1383.6368,-125.8745 1387.8868,-125.8745 1387.8868,-125.8745 1753.5249,-125.8745 1753.5249,-125.8745 1757.7748,-125.8745 1762.0247,-130.1244 1762.0247,-134.3743 1762.0247,-134.3743 1762.0247,-142.8742 1762.0247,-142.8742 1762.0247,-147.1241 1757.7748,-151.374 1753.5249,-151.374"/>
<text text-anchor="middle" x="1570.7058" y="-135.2485" font-family="Arial" font-size="15.00" fill="#c6c5fe">../src/presenter/components/ecosystem/Me/Content.tsx</text>
</g>
<!-- ../src/controller/me/me.tsx&#45;&gt;../src/presenter/components/ecosystem/Me/Content.tsx -->
<g id="edge4" class="edge">
<title>../src/controller/me/me.tsx&#45;&gt;../src/presenter/components/ecosystem/Me/Content.tsx</title>
<path fill="none" stroke="#757575" d="M817.0145,-120.841C949.4675,-123.9662 1194.4117,-129.7457 1369.111,-133.8677"/>
<polygon fill="#757575" stroke="#757575" points="1369.1246,-137.3689 1379.2044,-134.1058 1369.2898,-130.3708 1369.1246,-137.3689"/>
</g>
<!-- ../src/presenter/components/ecosystem/Me/Exception.tsx -->
<g id="node6" class="node">
<title>../src/presenter/components/ecosystem/Me/Exception.tsx</title>
<path fill="none" stroke="#cfffac" d="M1328.6162,-111.374C1328.6162,-111.374 949.3033,-111.374 949.3033,-111.374 945.0534,-111.374 940.8034,-107.1241 940.8034,-102.8742 940.8034,-102.8742 940.8034,-94.3743 940.8034,-94.3743 940.8034,-90.1244 945.0534,-85.8745 949.3033,-85.8745 949.3033,-85.8745 1328.6162,-85.8745 1328.6162,-85.8745 1332.8661,-85.8745 1337.116,-90.1244 1337.116,-94.3743 1337.116,-94.3743 1337.116,-102.8742 1337.116,-102.8742 1337.116,-107.1241 1332.8661,-111.374 1328.6162,-111.374"/>
<text text-anchor="middle" x="1138.9597" y="-95.2485" font-family="Arial" font-size="15.00" fill="#cfffac">../src/presenter/components/ecosystem/Me/Exception.tsx</text>
</g>
<!-- ../src/controller/me/me.tsx&#45;&gt;../src/presenter/components/ecosystem/Me/Exception.tsx -->
<g id="edge5" class="edge">
<title>../src/controller/me/me.tsx&#45;&gt;../src/presenter/components/ecosystem/Me/Exception.tsx</title>
<path fill="none" stroke="#757575" d="M816.9171,-114.1109C850.8194,-112.4806 890.5816,-110.5685 930.3749,-108.6549"/>
<polygon fill="#757575" stroke="#757575" points="930.6687,-112.1449 940.489,-108.1685 930.3324,-105.153 930.6687,-112.1449"/>
</g>
<!-- ../src/useCase/useMe/index.ts -->
<g id="node7" class="node">
<title>../src/useCase/useMe/index.ts</title>
<path fill="none" stroke="#c6c5fe" d="M1238.8779,-68.374C1238.8779,-68.374 1039.0416,-68.374 1039.0416,-68.374 1034.7917,-68.374 1030.5417,-64.1241 1030.5417,-59.8742 1030.5417,-59.8742 1030.5417,-51.3743 1030.5417,-51.3743 1030.5417,-47.1244 1034.7917,-42.8745 1039.0416,-42.8745 1039.0416,-42.8745 1238.8779,-42.8745 1238.8779,-42.8745 1243.1278,-42.8745 1247.3777,-47.1244 1247.3777,-51.3743 1247.3777,-51.3743 1247.3777,-59.8742 1247.3777,-59.8742 1247.3777,-64.1241 1243.1278,-68.374 1238.8779,-68.374"/>
<text text-anchor="middle" x="1138.9597" y="-52.2485" font-family="Arial" font-size="15.00" fill="#c6c5fe">../src/useCase/useMe/index.ts</text>
</g>
<!-- ../src/controller/me/me.tsx&#45;&gt;../src/useCase/useMe/index.ts -->
<g id="edge6" class="edge">
<title>../src/controller/me/me.tsx&#45;&gt;../src/useCase/useMe/index.ts</title>
<path fill="none" stroke="#757575" d="M779.3822,-105.9512C821.8633,-96.7561 881.6702,-84.5837 934.623,-76.6243 962.1841,-72.4815 991.961,-68.911 1020.0322,-65.9495"/>
<polygon fill="#757575" stroke="#757575" points="1020.704,-69.3987 1030.2898,-64.8861 1019.9821,-62.436 1020.704,-69.3987"/>
</g>
<!-- ../src/gateway/me/me.ts -->
<g id="node15" class="node">
<title>../src/gateway/me/me.ts</title>
<path fill="none" stroke="#c6c5fe" d="M1649.5853,-194.374C1649.5853,-194.374 1491.8263,-194.374 1491.8263,-194.374 1487.5764,-194.374 1483.3265,-190.1241 1483.3265,-185.8742 1483.3265,-185.8742 1483.3265,-177.3743 1483.3265,-177.3743 1483.3265,-173.1244 1487.5764,-168.8745 1491.8263,-168.8745 1491.8263,-168.8745 1649.5853,-168.8745 1649.5853,-168.8745 1653.8352,-168.8745 1658.0851,-173.1244 1658.0851,-177.3743 1658.0851,-177.3743 1658.0851,-185.8742 1658.0851,-185.8742 1658.0851,-190.1241 1653.8352,-194.374 1649.5853,-194.374"/>
<text text-anchor="middle" x="1570.7058" y="-178.2485" font-family="Arial" font-size="15.00" fill="#c6c5fe">../src/gateway/me/me.ts</text>
</g>
<!-- ../src/gateway/me/index.ts&#45;&gt;../src/gateway/me/me.ts -->
<g id="edge12" class="edge">
<title>../src/gateway/me/index.ts&#45;&gt;../src/gateway/me/me.ts</title>
<path fill="none" stroke="#757575" d="M1233.7082,-180.8437C1304.567,-181.0078 1401.1687,-181.2316 1472.7814,-181.3975"/>
<polygon fill="#757575" stroke="#757575" points="1473.1517,-184.8982 1483.1598,-181.4215 1473.168,-177.8982 1473.1517,-184.8982"/>
</g>
<!-- ../src/useCase/useMe/type.ts -->
<g id="node16" class="node">
<title>../src/useCase/useMe/type.ts</title>
<path fill="none" stroke="#cfffac" d="M2023.8301,-108.374C2023.8301,-108.374 1831.0077,-108.374 1831.0077,-108.374 1826.7578,-108.374 1822.5079,-104.1241 1822.5079,-99.8742 1822.5079,-99.8742 1822.5079,-91.3743 1822.5079,-91.3743 1822.5079,-87.1244 1826.7578,-82.8745 1831.0077,-82.8745 1831.0077,-82.8745 2023.8301,-82.8745 2023.8301,-82.8745 2028.0801,-82.8745 2032.33,-87.1244 2032.33,-91.3743 2032.33,-91.3743 2032.33,-99.8742 2032.33,-99.8742 2032.33,-104.1241 2028.0801,-108.374 2023.8301,-108.374"/>
<text text-anchor="middle" x="1927.4189" y="-92.2485" font-family="Arial" font-size="15.00" fill="#cfffac">../src/useCase/useMe/type.ts</text>
</g>
<!-- ../src/presenter/components/ecosystem/Me/Content.tsx&#45;&gt;../src/useCase/useMe/type.ts -->
<g id="edge14" class="edge">
<title>../src/presenter/components/ecosystem/Me/Content.tsx&#45;&gt;../src/useCase/useMe/type.ts</title>
<path fill="none" stroke="#757575" d="M1689.7075,-125.9984C1713.692,-123.3326 1738.7187,-120.4642 1762.1152,-117.6243 1782.4919,-115.1509 1804.2608,-112.3601 1825.0879,-109.6174"/>
<polygon fill="#757575" stroke="#757575" points="1825.7715,-113.0576 1835.2262,-108.2765 1824.8536,-106.118 1825.7715,-113.0576"/>
</g>
<!-- ../src/useCase/useMe/interactor.ts -->
<g id="node21" class="node">
<title>../src/useCase/useMe/interactor.ts</title>
<path fill="none" stroke="#c6c5fe" d="M1683.4639,-65.374C1683.4639,-65.374 1457.9477,-65.374 1457.9477,-65.374 1453.6978,-65.374 1449.4479,-61.1241 1449.4479,-56.8742 1449.4479,-56.8742 1449.4479,-48.3743 1449.4479,-48.3743 1449.4479,-44.1244 1453.6978,-39.8745 1457.9477,-39.8745 1457.9477,-39.8745 1683.4639,-39.8745 1683.4639,-39.8745 1687.7138,-39.8745 1691.9637,-44.1244 1691.9637,-48.3743 1691.9637,-48.3743 1691.9637,-56.8742 1691.9637,-56.8742 1691.9637,-61.1241 1687.7138,-65.374 1683.4639,-65.374"/>
<text text-anchor="middle" x="1570.7058" y="-49.2485" font-family="Arial" font-size="15.00" fill="#c6c5fe">../src/useCase/useMe/interactor.ts</text>
</g>
<!-- ../src/useCase/useMe/index.ts&#45;&gt;../src/useCase/useMe/interactor.ts -->
<g id="edge17" class="edge">
<title>../src/useCase/useMe/index.ts&#45;&gt;../src/useCase/useMe/interactor.ts</title>
<path fill="none" stroke="#757575" d="M1247.6287,-54.8692C1305.7202,-54.4655 1377.6926,-53.9654 1438.9518,-53.5398"/>
<polygon fill="#757575" stroke="#757575" points="1439.1034,-57.0389 1449.0788,-53.4694 1439.0547,-50.0391 1439.1034,-57.0389"/>
</g>
<!-- ../src/useCase/useMe/useMe.tsx -->
<g id="node22" class="node">
<title>../src/useCase/useMe/useMe.tsx</title>
<path fill="none" stroke="#c6c5fe" d="M1678.7869,-108.374C1678.7869,-108.374 1462.6247,-108.374 1462.6247,-108.374 1458.3748,-108.374 1454.1249,-104.1241 1454.1249,-99.8742 1454.1249,-99.8742 1454.1249,-91.3743 1454.1249,-91.3743 1454.1249,-87.1244 1458.3748,-82.8745 1462.6247,-82.8745 1462.6247,-82.8745 1678.7869,-82.8745 1678.7869,-82.8745 1683.0368,-82.8745 1687.2868,-87.1244 1687.2868,-91.3743 1687.2868,-91.3743 1687.2868,-99.8742 1687.2868,-99.8742 1687.2868,-104.1241 1683.0368,-108.374 1678.7869,-108.374"/>
<text text-anchor="middle" x="1570.7058" y="-92.2485" font-family="Arial" font-size="15.00" fill="#c6c5fe">../src/useCase/useMe/useMe.tsx</text>
</g>
<!-- ../src/useCase/useMe/index.ts&#45;&gt;../src/useCase/useMe/useMe.tsx -->
<g id="edge18" class="edge">
<title>../src/useCase/useMe/index.ts&#45;&gt;../src/useCase/useMe/useMe.tsx</title>
<path fill="none" stroke="#757575" d="M1247.6287,-65.6921C1307.2583,-71.2166 1381.5135,-78.0962 1443.7946,-83.8663"/>
<polygon fill="#757575" stroke="#757575" points="1443.8,-87.3817 1454.0802,-84.8193 1444.4458,-80.4116 1443.8,-87.3817"/>
</g>
<!-- ../src/domain/me/index.ts -->
<g id="node8" class="node">
<title>../src/domain/me/index.ts</title>
<path fill="none" stroke="#c6c5fe" d="M2010.1478,-65.374C2010.1478,-65.374 1844.6901,-65.374 1844.6901,-65.374 1840.4402,-65.374 1836.1902,-61.1241 1836.1902,-56.8742 1836.1902,-56.8742 1836.1902,-48.3743 1836.1902,-48.3743 1836.1902,-44.1244 1840.4402,-39.8745 1844.6901,-39.8745 1844.6901,-39.8745 2010.1478,-39.8745 2010.1478,-39.8745 2014.3977,-39.8745 2018.6477,-44.1244 2018.6477,-48.3743 2018.6477,-48.3743 2018.6477,-56.8742 2018.6477,-56.8742 2018.6477,-61.1241 2014.3977,-65.374 2010.1478,-65.374"/>
<text text-anchor="middle" x="1927.4189" y="-49.2485" font-family="Arial" font-size="15.00" fill="#c6c5fe">../src/domain/me/index.ts</text>
</g>
<!-- ../src/domain/me/me.ts -->
<g id="node9" class="node">
<title>../src/domain/me/me.ts</title>
<path fill="none" stroke="#cfffac" d="M2324.3366,-87.374C2324.3366,-87.374 2173.9227,-87.374 2173.9227,-87.374 2169.6728,-87.374 2165.4228,-83.1241 2165.4228,-78.8742 2165.4228,-78.8742 2165.4228,-70.3743 2165.4228,-70.3743 2165.4228,-66.1244 2169.6728,-61.8745 2173.9227,-61.8745 2173.9227,-61.8745 2324.3366,-61.8745 2324.3366,-61.8745 2328.5865,-61.8745 2332.8364,-66.1244 2332.8364,-70.3743 2332.8364,-70.3743 2332.8364,-78.8742 2332.8364,-78.8742 2332.8364,-83.1241 2328.5865,-87.374 2324.3366,-87.374"/>
<text text-anchor="middle" x="2249.1296" y="-71.2485" font-family="Arial" font-size="15.00" fill="#cfffac">../src/domain/me/me.ts</text>
</g>
<!-- ../src/domain/me/index.ts&#45;&gt;../src/domain/me/me.ts -->
<g id="edge7" class="edge">
<title>../src/domain/me/index.ts&#45;&gt;../src/domain/me/me.ts</title>
<path fill="none" stroke="#757575" d="M2018.7478,-58.8697C2061.3983,-61.7864 2112.1241,-65.2552 2155.1064,-68.1945"/>
<polygon fill="#757575" stroke="#757575" points="2155.071,-71.7002 2165.2865,-68.8907 2155.5486,-64.7165 2155.071,-71.7002"/>
</g>
<!-- ../src/domain/me/type.ts -->
<g id="node10" class="node">
<title>../src/domain/me/type.ts</title>
<path fill="none" stroke="#cfffac" d="M2328.3511,-44.374C2328.3511,-44.374 2169.9082,-44.374 2169.9082,-44.374 2165.6582,-44.374 2161.4083,-40.1241 2161.4083,-35.8742 2161.4083,-35.8742 2161.4083,-27.3743 2161.4083,-27.3743 2161.4083,-23.1244 2165.6582,-18.8745 2169.9082,-18.8745 2169.9082,-18.8745 2328.3511,-18.8745 2328.3511,-18.8745 2332.601,-18.8745 2336.851,-23.1244 2336.851,-27.3743 2336.851,-27.3743 2336.851,-35.8742 2336.851,-35.8742 2336.851,-40.1241 2332.601,-44.374 2328.3511,-44.374"/>
<text text-anchor="middle" x="2249.1296" y="-28.2485" font-family="Arial" font-size="15.00" fill="#cfffac">../src/domain/me/type.ts</text>
</g>
<!-- ../src/domain/me/index.ts&#45;&gt;../src/domain/me/type.ts -->
<g id="edge8" class="edge">
<title>../src/domain/me/index.ts&#45;&gt;../src/domain/me/type.ts</title>
<path fill="none" stroke="#757575" d="M2018.7478,-46.6627C2060.1945,-43.9572 2109.267,-40.7539 2151.4486,-38.0005"/>
<polygon fill="#757575" stroke="#757575" points="2151.7025,-41.4915 2161.4532,-37.3474 2151.2465,-34.5063 2151.7025,-41.4915"/>
</g>
<!-- ../src/externalInterface/api/http/client/client.ts -->
<g id="node11" class="node">
<title>../src/externalInterface/api/http/client/client.ts</title>
<path fill="none" stroke="#cfffac" d="M2744.9943,-216.374C2744.9943,-216.374 2450.0506,-216.374 2450.0506,-216.374 2445.8007,-216.374 2441.5508,-212.1241 2441.5508,-207.8742 2441.5508,-207.8742 2441.5508,-199.3743 2441.5508,-199.3743 2441.5508,-195.1244 2445.8007,-190.8745 2450.0506,-190.8745 2450.0506,-190.8745 2744.9943,-190.8745 2744.9943,-190.8745 2749.2442,-190.8745 2753.4941,-195.1244 2753.4941,-199.3743 2753.4941,-199.3743 2753.4941,-207.8742 2753.4941,-207.8742 2753.4941,-212.1241 2749.2442,-216.374 2744.9943,-216.374"/>
<text text-anchor="middle" x="2597.5225" y="-200.2485" font-family="Arial" font-size="15.00" fill="#cfffac">../src/externalInterface/api/http/client/client.ts</text>
</g>
<!-- ../src/externalInterface/api/http/client/index.ts -->
<g id="node12" class="node">
<title>../src/externalInterface/api/http/client/index.ts</title>
<path fill="none" stroke="#c6c5fe" d="M2396.9438,-216.374C2396.9438,-216.374 2101.3155,-216.374 2101.3155,-216.374 2097.0655,-216.374 2092.8156,-212.1241 2092.8156,-207.8742 2092.8156,-207.8742 2092.8156,-199.3743 2092.8156,-199.3743 2092.8156,-195.1244 2097.0655,-190.8745 2101.3155,-190.8745 2101.3155,-190.8745 2396.9438,-190.8745 2396.9438,-190.8745 2401.1937,-190.8745 2405.4437,-195.1244 2405.4437,-199.3743 2405.4437,-199.3743 2405.4437,-207.8742 2405.4437,-207.8742 2405.4437,-212.1241 2401.1937,-216.374 2396.9438,-216.374"/>
<text text-anchor="middle" x="2249.1296" y="-200.2485" font-family="Arial" font-size="15.00" fill="#c6c5fe">../src/externalInterface/api/http/client/index.ts</text>
</g>
<!-- ../src/externalInterface/api/http/client/index.ts&#45;&gt;../src/externalInterface/api/http/client/client.ts -->
<g id="edge9" class="edge">
<title>../src/externalInterface/api/http/client/index.ts&#45;&gt;../src/externalInterface/api/http/client/client.ts</title>
<path fill="none" stroke="#757575" d="M2405.4919,-203.6243C2414.0731,-203.6243 2422.7125,-203.6243 2431.3258,-203.6243"/>
<polygon fill="#757575" stroke="#757575" points="2431.4201,-207.1244 2441.4201,-203.6243 2431.42,-200.1244 2431.4201,-207.1244"/>
</g>
<!-- ../src/externalInterface/api/http/client/util.ts -->
<g id="node13" class="node">
<title>../src/externalInterface/api/http/client/util.ts</title>
<path fill="none" stroke="#cfffac" d="M2388.7592,-173.374C2388.7592,-173.374 2109.5001,-173.374 2109.5001,-173.374 2105.2501,-173.374 2101.0002,-169.1241 2101.0002,-164.8742 2101.0002,-164.8742 2101.0002,-156.3743 2101.0002,-156.3743 2101.0002,-152.1244 2105.2501,-147.8745 2109.5001,-147.8745 2109.5001,-147.8745 2388.7592,-147.8745 2388.7592,-147.8745 2393.0091,-147.8745 2397.2591,-152.1244 2397.2591,-156.3743 2397.2591,-156.3743 2397.2591,-164.8742 2397.2591,-164.8742 2397.2591,-169.1241 2393.0091,-173.374 2388.7592,-173.374"/>
<text text-anchor="middle" x="2249.1296" y="-157.2485" font-family="Arial" font-size="15.00" fill="#cfffac">../src/externalInterface/api/http/client/util.ts</text>
</g>
<!-- ../src/externalInterface/api/http/me.ts -->
<g id="node14" class="node">
<title>../src/externalInterface/api/http/me.ts</title>
<path fill="none" stroke="#c6c5fe" d="M2048.0268,-194.374C2048.0268,-194.374 1806.8111,-194.374 1806.8111,-194.374 1802.5611,-194.374 1798.3112,-190.1241 1798.3112,-185.8742 1798.3112,-185.8742 1798.3112,-177.3743 1798.3112,-177.3743 1798.3112,-173.1244 1802.5611,-168.8745 1806.8111,-168.8745 1806.8111,-168.8745 2048.0268,-168.8745 2048.0268,-168.8745 2052.2767,-168.8745 2056.5267,-173.1244 2056.5267,-177.3743 2056.5267,-177.3743 2056.5267,-185.8742 2056.5267,-185.8742 2056.5267,-190.1241 2052.2767,-194.374 2048.0268,-194.374"/>
<text text-anchor="middle" x="1927.4189" y="-178.2485" font-family="Arial" font-size="15.00" fill="#c6c5fe">../src/externalInterface/api/http/me.ts</text>
</g>
<!-- ../src/externalInterface/api/http/me.ts&#45;&gt;../src/externalInterface/api/http/client/index.ts -->
<g id="edge10" class="edge">
<title>../src/externalInterface/api/http/me.ts&#45;&gt;../src/externalInterface/api/http/client/index.ts</title>
<path fill="none" stroke="#757575" d="M2056.8804,-190.4774C2065.3512,-191.0567 2073.9428,-191.6442 2082.5564,-192.2333"/>
<polygon fill="#757575" stroke="#757575" points="2082.4565,-195.7345 2092.672,-192.925 2082.9342,-188.7508 2082.4565,-195.7345"/>
</g>
<!-- ../src/externalInterface/api/http/me.ts&#45;&gt;../src/externalInterface/api/http/client/util.ts -->
<g id="edge11" class="edge">
<title>../src/externalInterface/api/http/me.ts&#45;&gt;../src/externalInterface/api/http/client/util.ts</title>
<path fill="none" stroke="#757575" d="M2056.8804,-173.1735C2068.0888,-172.4419 2079.5089,-171.6964 2090.9113,-170.9521"/>
<polygon fill="#757575" stroke="#757575" points="2091.1705,-174.4428 2100.9212,-170.2987 2090.7145,-167.4576 2091.1705,-174.4428"/>
</g>
<!-- ../src/gateway/me/me.ts&#45;&gt;../src/externalInterface/api/http/me.ts -->
<g id="edge13" class="edge">
<title>../src/gateway/me/me.ts&#45;&gt;../src/externalInterface/api/http/me.ts</title>
<path fill="none" stroke="#757575" d="M1657.9677,-181.6243C1697.0994,-181.6243 1744.2282,-181.6243 1788.0545,-181.6243"/>
<polygon fill="#757575" stroke="#757575" points="1788.2306,-185.1244 1798.2305,-181.6243 1788.2305,-178.1244 1788.2306,-185.1244"/>
</g>
<!-- ../src/presenter/components/ecosystem/Me/Me.tsx -->
<g id="node17" class="node">
<title>../src/presenter/components/ecosystem/Me/Me.tsx</title>
<path fill="none" stroke="#c6c5fe" d="M890.183,-67.374C890.183,-67.374 555.9434,-67.374 555.9434,-67.374 551.6935,-67.374 547.4436,-63.1241 547.4436,-58.8742 547.4436,-58.8742 547.4436,-50.3743 547.4436,-50.3743 547.4436,-46.1244 551.6935,-41.8745 555.9434,-41.8745 555.9434,-41.8745 890.183,-41.8745 890.183,-41.8745 894.433,-41.8745 898.6829,-46.1244 898.6829,-50.3743 898.6829,-50.3743 898.6829,-58.8742 898.6829,-58.8742 898.6829,-63.1241 894.433,-67.374 890.183,-67.374"/>
<text text-anchor="middle" x="723.0632" y="-51.2485" font-family="Arial" font-size="15.00" fill="#c6c5fe">../src/presenter/components/ecosystem/Me/Me.tsx</text>
</g>
<!-- ../src/presenter/components/ecosystem/Me/Placeholder.tsx -->
<g id="node18" class="node">
<title>../src/presenter/components/ecosystem/Me/Placeholder.tsx</title>
<path fill="none" stroke="#cfffac" d="M1334.6333,-25.374C1334.6333,-25.374 943.2861,-25.374 943.2861,-25.374 939.0362,-25.374 934.7862,-21.1241 934.7862,-16.8742 934.7862,-16.8742 934.7862,-8.3743 934.7862,-8.3743 934.7862,-4.1244 939.0362,.1255 943.2861,.1255 943.2861,.1255 1334.6333,.1255 1334.6333,.1255 1338.8833,.1255 1343.1332,-4.1244 1343.1332,-8.3743 1343.1332,-8.3743 1343.1332,-16.8742 1343.1332,-16.8742 1343.1332,-21.1241 1338.8833,-25.374 1334.6333,-25.374"/>
<text text-anchor="middle" x="1138.9597" y="-9.2485" font-family="Arial" font-size="15.00" fill="#cfffac">../src/presenter/components/ecosystem/Me/Placeholder.tsx</text>
</g>
<!-- ../src/presenter/components/ecosystem/Me/Me.tsx&#45;&gt;../src/presenter/components/ecosystem/Me/Placeholder.tsx -->
<g id="edge15" class="edge">
<title>../src/presenter/components/ecosystem/Me/Me.tsx&#45;&gt;../src/presenter/components/ecosystem/Me/Placeholder.tsx</title>
<path fill="none" stroke="#757575" d="M848.1278,-41.9944C897.1407,-37.0448 953.4987,-31.3534 1003.4747,-26.3064"/>
<polygon fill="#757575" stroke="#757575" points="1004.1107,-29.7601 1013.7084,-25.273 1003.4073,-22.7955 1004.1107,-29.7601"/>
</g>
<!-- ../src/presenter/components/ecosystem/Me/index.ts -->
<g id="node19" class="node">
<title>../src/presenter/components/ecosystem/Me/index.ts</title>
<path fill="none" stroke="#c6c5fe" d="M502.8246,-67.374C502.8246,-67.374 161.5407,-67.374 161.5407,-67.374 157.2908,-67.374 153.0408,-63.1241 153.0408,-58.8742 153.0408,-58.8742 153.0408,-50.3743 153.0408,-50.3743 153.0408,-46.1244 157.2908,-41.8745 161.5407,-41.8745 161.5407,-41.8745 502.8246,-41.8745 502.8246,-41.8745 507.0745,-41.8745 511.3244,-46.1244 511.3244,-50.3743 511.3244,-50.3743 511.3244,-58.8742 511.3244,-58.8742 511.3244,-63.1241 507.0745,-67.374 502.8246,-67.374"/>
<text text-anchor="middle" x="332.1826" y="-51.2485" font-family="Arial" font-size="15.00" fill="#c6c5fe">../src/presenter/components/ecosystem/Me/index.ts</text>
</g>
<!-- ../src/presenter/components/ecosystem/Me/index.ts&#45;&gt;../src/presenter/components/ecosystem/Me/Me.tsx -->
<g id="edge16" class="edge">
<title>../src/presenter/components/ecosystem/Me/index.ts&#45;&gt;../src/presenter/components/ecosystem/Me/Me.tsx</title>
<path fill="none" stroke="#757575" d="M511.6067,-54.6243C520.1896,-54.6243 528.8139,-54.6243 537.4129,-54.6243"/>
<polygon fill="#757575" stroke="#757575" points="537.4918,-58.1244 547.4917,-54.6243 537.4917,-51.1244 537.4918,-58.1244"/>
</g>
<!-- ../src/presenter/containers/ErrorBoundary.tsx -->
<g id="node20" class="node">
<title>../src/presenter/containers/ErrorBoundary.tsx</title>
<path fill="none" stroke="#cfffac" d="M480.5243,-153.374C480.5243,-153.374 183.841,-153.374 183.841,-153.374 179.591,-153.374 175.3411,-149.1241 175.3411,-144.8742 175.3411,-144.8742 175.3411,-136.3743 175.3411,-136.3743 175.3411,-132.1244 179.591,-127.8745 183.841,-127.8745 183.841,-127.8745 480.5243,-127.8745 480.5243,-127.8745 484.7742,-127.8745 489.0241,-132.1244 489.0241,-136.3743 489.0241,-136.3743 489.0241,-144.8742 489.0241,-144.8742 489.0241,-149.1241 484.7742,-153.374 480.5243,-153.374"/>
<text text-anchor="middle" x="332.1826" y="-137.2485" font-family="Arial" font-size="15.00" fill="#cfffac">../src/presenter/containers/ErrorBoundary.tsx</text>
</g>
<!-- ../src/useCase/useMe/interactor.ts&#45;&gt;../src/domain/me/index.ts -->
<g id="edge19" class="edge">
<title>../src/useCase/useMe/interactor.ts&#45;&gt;../src/domain/me/index.ts</title>
<path fill="none" stroke="#757575" d="M1691.9704,-52.6243C1735.5394,-52.6243 1784.1896,-52.6243 1825.9056,-52.6243"/>
<polygon fill="#757575" stroke="#757575" points="1826.0762,-56.1244 1836.0762,-52.6243 1826.0761,-49.1244 1826.0762,-56.1244"/>
</g>
<!-- ../src/useCase/useMe/interactor.ts&#45;&gt;../src/useCase/useMe/type.ts -->
<g id="edge20" class="edge">
<title>../src/useCase/useMe/interactor.ts&#45;&gt;../src/useCase/useMe/type.ts</title>
<path fill="none" stroke="#757575" d="M1689.7075,-65.2501C1713.692,-67.9159 1738.7187,-70.7843 1762.1152,-73.6243 1782.4919,-76.0977 1804.2608,-78.8885 1825.0879,-81.6311"/>
<polygon fill="#757575" stroke="#757575" points="1824.8536,-85.1305 1835.2262,-82.9721 1825.7715,-78.191 1824.8536,-85.1305"/>
</g>
<!-- ../src/useCase/useMe/useMe.tsx&#45;&gt;../src/useCase/useMe/type.ts -->
<g id="edge21" class="edge">
<title>../src/useCase/useMe/useMe.tsx&#45;&gt;../src/useCase/useMe/type.ts</title>
<path fill="none" stroke="#757575" d="M1687.507,-95.6243C1727.686,-95.6243 1772.6153,-95.6243 1812.6324,-95.6243"/>
<polygon fill="#757575" stroke="#757575" points="1812.6946,-99.1244 1822.6946,-95.6243 1812.6945,-92.1244 1812.6946,-99.1244"/>
</g>
<!-- _app.tsx -->
<g id="node23" class="node">
<title>_app.tsx</title>
<path fill="none" stroke="#c6c5fe" d="M86.1358,-153.374C86.1358,-153.374 30.7261,-153.374 30.7261,-153.374 26.4761,-153.374 22.2262,-149.1241 22.2262,-144.8742 22.2262,-144.8742 22.2262,-136.3743 22.2262,-136.3743 22.2262,-132.1244 26.4761,-127.8745 30.7261,-127.8745 30.7261,-127.8745 86.1358,-127.8745 86.1358,-127.8745 90.3857,-127.8745 94.6356,-132.1244 94.6356,-136.3743 94.6356,-136.3743 94.6356,-144.8742 94.6356,-144.8742 94.6356,-149.1241 90.3857,-153.374 86.1358,-153.374"/>
<text text-anchor="middle" x="58.4309" y="-137.2485" font-family="Arial" font-size="15.00" fill="#c6c5fe">_app.tsx</text>
</g>
<!-- _app.tsx&#45;&gt;../src/presenter/containers/ErrorBoundary.tsx -->
<g id="edge22" class="edge">
<title>_app.tsx&#45;&gt;../src/presenter/containers/ErrorBoundary.tsx</title>
<path fill="none" stroke="#757575" d="M94.783,-140.6243C113.8699,-140.6243 138.769,-140.6243 165.2467,-140.6243"/>
<polygon fill="#757575" stroke="#757575" points="165.4631,-144.1244 175.4631,-140.6243 165.463,-137.1244 165.4631,-144.1244"/>
</g>
<!-- api/mock/me.ts -->
<g id="node24" class="node">
<title>api/mock/me.ts</title>
<path fill="none" stroke="#cfffac" d="M108.293,-196.374C108.293,-196.374 8.5689,-196.374 8.5689,-196.374 4.3189,-196.374 .069,-192.1241 .069,-187.8742 .069,-187.8742 .069,-179.3743 .069,-179.3743 .069,-175.1244 4.3189,-170.8745 8.5689,-170.8745 8.5689,-170.8745 108.293,-170.8745 108.293,-170.8745 112.5429,-170.8745 116.7928,-175.1244 116.7928,-179.3743 116.7928,-179.3743 116.7928,-187.8742 116.7928,-187.8742 116.7928,-192.1241 112.5429,-196.374 108.293,-196.374"/>
<text text-anchor="middle" x="58.4309" y="-180.2485" font-family="Arial" font-size="15.00" fill="#cfffac">api/mock/me.ts</text>
</g>
<!-- index.tsx -->
<g id="node25" class="node">
<title>index.tsx</title>
<path fill="none" stroke="#cfffac" d="M87.6256,-239.374C87.6256,-239.374 29.2362,-239.374 29.2362,-239.374 24.9862,-239.374 20.7363,-235.1241 20.7363,-230.8742 20.7363,-230.8742 20.7363,-222.3743 20.7363,-222.3743 20.7363,-218.1244 24.9862,-213.8745 29.2362,-213.8745 29.2362,-213.8745 87.6256,-213.8745 87.6256,-213.8745 91.8756,-213.8745 96.1255,-218.1244 96.1255,-222.3743 96.1255,-222.3743 96.1255,-230.8742 96.1255,-230.8742 96.1255,-235.1241 91.8756,-239.374 87.6256,-239.374"/>
<text text-anchor="middle" x="58.4309" y="-223.2485" font-family="Arial" font-size="15.00" fill="#cfffac">index.tsx</text>
</g>
<!-- me.tsx -->
<g id="node26" class="node">
<title>me.tsx</title>
<path fill="none" stroke="#c6c5fe" d="M80.1037,-89.374C80.1037,-89.374 36.7581,-89.374 36.7581,-89.374 32.5082,-89.374 28.2583,-85.1241 28.2583,-80.8742 28.2583,-80.8742 28.2583,-72.3743 28.2583,-72.3743 28.2583,-68.1244 32.5082,-63.8745 36.7581,-63.8745 36.7581,-63.8745 80.1037,-63.8745 80.1037,-63.8745 84.3536,-63.8745 88.6035,-68.1244 88.6035,-72.3743 88.6035,-72.3743 88.6035,-80.8742 88.6035,-80.8742 88.6035,-85.1241 84.3536,-89.374 80.1037,-89.374"/>
<text text-anchor="middle" x="58.4309" y="-73.2485" font-family="Arial" font-size="15.00" fill="#c6c5fe">me.tsx</text>
</g>
<!-- me.tsx&#45;&gt;../src/controller/me/index.ts -->
<g id="edge23" class="edge">
<title>me.tsx&#45;&gt;../src/controller/me/index.ts</title>
<path fill="none" stroke="#757575" d="M88.7731,-78.9519C121.5274,-81.4645 175.5821,-85.6112 224.4427,-89.3593"/>
<polygon fill="#757575" stroke="#757575" points="224.2201,-92.8525 234.4586,-90.1277 224.7556,-85.873 224.2201,-92.8525"/>
</g>
<!-- me.tsx&#45;&gt;../src/presenter/components/ecosystem/Me/index.ts -->
<g id="edge24" class="edge">
<title>me.tsx&#45;&gt;../src/presenter/components/ecosystem/Me/index.ts</title>
<path fill="none" stroke="#757575" d="M88.7731,-74.1858C108.4091,-72.6078 135.7002,-70.4145 164.9382,-68.0648"/>
<polygon fill="#757575" stroke="#757575" points="165.2327,-71.5525 174.9201,-67.2626 164.6719,-64.575 165.2327,-71.5525"/>
</g>
</g>
</svg>
