<?xml version="1.0" encoding="UTF-8" standalone="no"?>
<!DOCTYPE svg PUBLIC "-//W3C//DTD SVG 1.1//EN"
 "http://www.w3.org/Graphics/SVG/1.1/DTD/svg11.dtd">
<!-- Generated by graphviz version 2.40.1 (20161225.0304)
 -->
<!-- Title: G Pages: 1 -->
<svg width="2783pt" height="348pt"
 viewBox="0.00 0.00 2782.57 348.45" xmlns="http://www.w3.org/2000/svg" xmlns:xlink="http://www.w3.org/1999/xlink">
<g id="graph0" class="graph" transform="scale(1 1) rotate(0) translate(21.6 326.8485)">
<title>G</title>
<polygon fill="#111111" stroke="transparent" points="-21.6,21.6 -21.6,-326.8485 2760.9652,-326.8485 2760.9652,21.6 -21.6,21.6"/>
<!-- ../src/controller/me/me.tsx -->
<g id="node1" class="node">
<title>../src/controller/me/me.tsx</title>
<path fill="none" stroke="#c6c5fe" d="M417.3847,-154.374C417.3847,-154.374 246.9806,-154.374 246.9806,-154.374 242.7306,-154.374 238.4807,-150.1241 238.4807,-145.8742 238.4807,-145.8742 238.4807,-137.3743 238.4807,-137.3743 238.4807,-133.1244 242.7306,-128.8745 246.9806,-128.8745 246.9806,-128.8745 417.3847,-128.8745 417.3847,-128.8745 421.6346,-128.8745 425.8845,-133.1244 425.8845,-137.3743 425.8845,-137.3743 425.8845,-145.8742 425.8845,-145.8742 425.8845,-150.1241 421.6346,-154.374 417.3847,-154.374"/>
<text text-anchor="middle" x="332.1826" y="-138.2485" font-family="Arial" font-size="15.00" fill="#c6c5fe">../src/controller/me/me.tsx</text>
</g>
<!-- ../src/gateway/me/index.ts -->
<g id="node2" class="node">
<title>../src/gateway/me/index.ts</title>
<path fill="none" stroke="#c6c5fe" d="M831.983,-283.374C831.983,-283.374 659.1801,-283.374 659.1801,-283.374 654.9302,-283.374 650.6802,-279.1241 650.6802,-274.8742 650.6802,-274.8742 650.6802,-266.3743 650.6802,-266.3743 650.6802,-262.1244 654.9302,-257.8745 659.1801,-257.8745 659.1801,-257.8745 831.983,-257.8745 831.983,-257.8745 836.2329,-257.8745 840.4828,-262.1244 840.4828,-266.3743 840.4828,-266.3743 840.4828,-274.8742 840.4828,-274.8742 840.4828,-279.1241 836.2329,-283.374 831.983,-283.374"/>
<text text-anchor="middle" x="745.5815" y="-267.2485" font-family="Arial" font-size="15.00" fill="#c6c5fe">../src/gateway/me/index.ts</text>
</g>
<!-- ../src/controller/me/me.tsx&#45;&gt;../src/gateway/me/index.ts -->
<g id="edge1" class="edge">
<title>../src/controller/me/me.tsx&#45;&gt;../src/gateway/me/index.ts</title>
<path fill="none" stroke="#757575" d="M426.1769,-134.6738C455.9609,-136.9045 487.3783,-144.3786 511.5034,-162.6243 544.8793,-187.8663 513.9897,-224.5654 547.5034,-249.6243 573.92,-269.3765 608.1492,-277.325 640.7021,-279.5237"/>
<polygon fill="#757575" stroke="#757575" points="640.5773,-283.0218 650.7404,-280.0282 640.9287,-276.0306 640.5773,-283.0218"/>
</g>
<!-- ../src/presenter/components/ecosystem/Me/Content.tsx -->
<g id="node3" class="node">
<title>../src/presenter/components/ecosystem/Me/Content.tsx</title>
<path fill="none" stroke="#c6c5fe" d="M928.4006,-240.374C928.4006,-240.374 562.7625,-240.374 562.7625,-240.374 558.5126,-240.374 554.2627,-236.1241 554.2627,-231.8742 554.2627,-231.8742 554.2627,-223.3743 554.2627,-223.3743 554.2627,-219.1244 558.5126,-214.8745 562.7625,-214.8745 562.7625,-214.8745 928.4006,-214.8745 928.4006,-214.8745 932.6505,-214.8745 936.9004,-219.1244 936.9004,-223.3743 936.9004,-223.3743 936.9004,-231.8742 936.9004,-231.8742 936.9004,-236.1241 932.6505,-240.374 928.4006,-240.374"/>
<text text-anchor="middle" x="745.5815" y="-224.2485" font-family="Arial" font-size="15.00" fill="#c6c5fe">../src/presenter/components/ecosystem/Me/Content.tsx</text>
</g>
<!-- ../src/controller/me/me.tsx&#45;&gt;../src/presenter/components/ecosystem/Me/Content.tsx -->
<g id="edge2" class="edge">
<title>../src/controller/me/me.tsx&#45;&gt;../src/presenter/components/ecosystem/Me/Content.tsx</title>
<path fill="none" stroke="#757575" d="M426.1391,-139.2568C454.9455,-141.9583 485.7953,-148.5524 511.5034,-162.6243 533.6673,-174.7561 525.2734,-194.614 547.5034,-206.6243 550.3034,-208.1371 553.1581,-209.5682 556.06,-210.9216"/>
<polygon fill="#757575" stroke="#757575" points="554.9097,-214.2372 565.4782,-214.9845 557.6824,-207.8097 554.9097,-214.2372"/>
</g>
<!-- ../src/presenter/components/ecosystem/Me/Exception.tsx -->
<g id="node4" class="node">
<title>../src/presenter/components/ecosystem/Me/Exception.tsx</title>
<path fill="none" stroke="#cfffac" d="M935.238,-197.374C935.238,-197.374 555.9251,-197.374 555.9251,-197.374 551.6752,-197.374 547.4253,-193.1241 547.4253,-188.8742 547.4253,-188.8742 547.4253,-180.3743 547.4253,-180.3743 547.4253,-176.1244 551.6752,-171.8745 555.9251,-171.8745 555.9251,-171.8745 935.238,-171.8745 935.238,-171.8745 939.4879,-171.8745 943.7378,-176.1244 943.7378,-180.3743 943.7378,-180.3743 943.7378,-188.8742 943.7378,-188.8742 943.7378,-193.1241 939.4879,-197.374 935.238,-197.374"/>
<text text-anchor="middle" x="745.5815" y="-181.2485" font-family="Arial" font-size="15.00" fill="#cfffac">../src/presenter/components/ecosystem/Me/Exception.tsx</text>
</g>
<!-- ../src/controller/me/me.tsx&#45;&gt;../src/presenter/components/ecosystem/Me/Exception.tsx -->
<g id="edge3" class="edge">
<title>../src/controller/me/me.tsx&#45;&gt;../src/presenter/components/ecosystem/Me/Exception.tsx</title>
<path fill="none" stroke="#757575" d="M425.9892,-151.3816C481.5016,-157.1558 552.685,-164.56 613.7755,-170.9144"/>
<polygon fill="#757575" stroke="#757575" points="613.5715,-174.4119 623.88,-171.9654 614.2958,-167.4495 613.5715,-174.4119"/>
</g>
<!-- ../src/presenter/hooks/useReRender.ts -->
<g id="node5" class="node">
<title>../src/presenter/hooks/useReRender.ts</title>
<path fill="none" stroke="#cfffac" d="M873.0412,-68.374C873.0412,-68.374 618.1219,-68.374 618.1219,-68.374 613.872,-68.374 609.6221,-64.1241 609.6221,-59.8742 609.6221,-59.8742 609.6221,-51.3743 609.6221,-51.3743 609.6221,-47.1244 613.872,-42.8745 618.1219,-42.8745 618.1219,-42.8745 873.0412,-42.8745 873.0412,-42.8745 877.2911,-42.8745 881.541,-47.1244 881.541,-51.3743 881.541,-51.3743 881.541,-59.8742 881.541,-59.8742 881.541,-64.1241 877.2911,-68.374 873.0412,-68.374"/>
<text text-anchor="middle" x="745.5815" y="-52.2485" font-family="Arial" font-size="15.00" fill="#cfffac">../src/presenter/hooks/useReRender.ts</text>
</g>
<!-- ../src/controller/me/me.tsx&#45;&gt;../src/presenter/hooks/useReRender.ts -->
<g id="edge4" class="edge">
<title>../src/controller/me/me.tsx&#45;&gt;../src/presenter/hooks/useReRender.ts</title>
<path fill="none" stroke="#757575" d="M366.7265,-128.9981C408.8348,-114.1224 482.4367,-89.7733 547.5034,-76.6243 564.1502,-73.2602 581.6998,-70.414 599.1932,-68.0108"/>
<polygon fill="#757575" stroke="#757575" points="600.0263,-71.431 609.4793,-66.6464 599.1058,-64.4918 600.0263,-71.431"/>
</g>
<!-- ../src/useCase/me/interactor.ts -->
<g id="node6" class="node">
<title>../src/useCase/me/interactor.ts</title>
<path fill="none" stroke="#c6c5fe" d="M846.1554,-154.374C846.1554,-154.374 645.0077,-154.374 645.0077,-154.374 640.7578,-154.374 636.5079,-150.1241 636.5079,-145.8742 636.5079,-145.8742 636.5079,-137.3743 636.5079,-137.3743 636.5079,-133.1244 640.7578,-128.8745 645.0077,-128.8745 645.0077,-128.8745 846.1554,-128.8745 846.1554,-128.8745 850.4053,-128.8745 854.6552,-133.1244 854.6552,-137.3743 854.6552,-137.3743 854.6552,-145.8742 854.6552,-145.8742 854.6552,-150.1241 850.4053,-154.374 846.1554,-154.374"/>
<text text-anchor="middle" x="745.5815" y="-138.2485" font-family="Arial" font-size="15.00" fill="#c6c5fe">../src/useCase/me/interactor.ts</text>
</g>
<!-- ../src/controller/me/me.tsx&#45;&gt;../src/useCase/me/interactor.ts -->
<g id="edge5" class="edge">
<title>../src/controller/me/me.tsx&#45;&gt;../src/useCase/me/interactor.ts</title>
<path fill="none" stroke="#757575" d="M425.9892,-141.6243C485.3472,-141.6243 562.6224,-141.6243 626.3175,-141.6243"/>
<polygon fill="#757575" stroke="#757575" points="626.4188,-145.1244 636.4187,-141.6243 626.4187,-138.1244 626.4188,-145.1244"/>
</g>
<!-- ../src/useCase/me/useMe.ts -->
<g id="node7" class="node">
<title>../src/useCase/me/useMe.ts</title>
<path fill="none" stroke="#cfffac" d="M837.9777,-111.374C837.9777,-111.374 653.1854,-111.374 653.1854,-111.374 648.9354,-111.374 644.6855,-107.1241 644.6855,-102.8742 644.6855,-102.8742 644.6855,-94.3743 644.6855,-94.3743 644.6855,-90.1244 648.9354,-85.8745 653.1854,-85.8745 653.1854,-85.8745 837.9777,-85.8745 837.9777,-85.8745 842.2276,-85.8745 846.4776,-90.1244 846.4776,-94.3743 846.4776,-94.3743 846.4776,-102.8742 846.4776,-102.8742 846.4776,-107.1241 842.2276,-111.374 837.9777,-111.374"/>
<text text-anchor="middle" x="745.5815" y="-95.2485" font-family="Arial" font-size="15.00" fill="#cfffac">../src/useCase/me/useMe.ts</text>
</g>
<!-- ../src/controller/me/me.tsx&#45;&gt;../src/useCase/me/useMe.ts -->
<g id="edge6" class="edge">
<title>../src/controller/me/me.tsx&#45;&gt;../src/useCase/me/useMe.ts</title>
<path fill="none" stroke="#757575" d="M425.9892,-131.8669C487.8345,-125.434 569.1303,-116.978 634.251,-110.2044"/>
<polygon fill="#757575" stroke="#757575" points="634.974,-113.6482 644.5582,-109.1323 634.2497,-106.6857 634.974,-113.6482"/>
</g>
<!-- ../src/gateway/me/me.ts -->
<g id="node16" class="node">
<title>../src/gateway/me/me.ts</title>
<path fill="none" stroke="#c6c5fe" d="M1262.8758,-283.374C1262.8758,-283.374 1105.1169,-283.374 1105.1169,-283.374 1100.8669,-283.374 1096.617,-279.1241 1096.617,-274.8742 1096.617,-274.8742 1096.617,-266.3743 1096.617,-266.3743 1096.617,-262.1244 1100.8669,-257.8745 1105.1169,-257.8745 1105.1169,-257.8745 1262.8758,-257.8745 1262.8758,-257.8745 1267.1257,-257.8745 1271.3757,-262.1244 1271.3757,-266.3743 1271.3757,-266.3743 1271.3757,-274.8742 1271.3757,-274.8742 1271.3757,-279.1241 1267.1257,-283.374 1262.8758,-283.374"/>
<text text-anchor="middle" x="1183.9963" y="-267.2485" font-family="Arial" font-size="15.00" fill="#c6c5fe">../src/gateway/me/me.ts</text>
</g>
<!-- ../src/gateway/me/index.ts&#45;&gt;../src/gateway/me/me.ts -->
<g id="edge13" class="edge">
<title>../src/gateway/me/index.ts&#45;&gt;../src/gateway/me/me.ts</title>
<path fill="none" stroke="#757575" d="M840.441,-270.6243C913.1833,-270.6243 1013.2236,-270.6243 1086.5925,-270.6243"/>
<polygon fill="#757575" stroke="#757575" points="1086.7625,-274.1244 1096.7625,-270.6243 1086.7625,-267.1244 1086.7625,-274.1244"/>
</g>
<!-- ../src/useCase/me/type.ts -->
<g id="node17" class="node">
<title>../src/useCase/me/type.ts</title>
<path fill="none" stroke="#cfffac" d="M1268.2227,-240.374C1268.2227,-240.374 1099.77,-240.374 1099.77,-240.374 1095.52,-240.374 1091.2701,-236.1241 1091.2701,-231.8742 1091.2701,-231.8742 1091.2701,-223.3743 1091.2701,-223.3743 1091.2701,-219.1244 1095.52,-214.8745 1099.77,-214.8745 1099.77,-214.8745 1268.2227,-214.8745 1268.2227,-214.8745 1272.4726,-214.8745 1276.7226,-219.1244 1276.7226,-223.3743 1276.7226,-223.3743 1276.7226,-231.8742 1276.7226,-231.8742 1276.7226,-236.1241 1272.4726,-240.374 1268.2227,-240.374"/>
<text text-anchor="middle" x="1183.9963" y="-224.2485" font-family="Arial" font-size="15.00" fill="#cfffac">../src/useCase/me/type.ts</text>
</g>
<!-- ../src/presenter/components/ecosystem/Me/Content.tsx&#45;&gt;../src/useCase/me/type.ts -->
<g id="edge15" class="edge">
<title>../src/presenter/components/ecosystem/Me/Content.tsx&#45;&gt;../src/useCase/me/type.ts</title>
<path fill="none" stroke="#757575" d="M936.9201,-227.6243C986.4445,-227.6243 1037.8979,-227.6243 1080.9468,-227.6243"/>
<polygon fill="#757575" stroke="#757575" points="1081.133,-231.1244 1091.1329,-227.6243 1081.1329,-224.1244 1081.133,-231.1244"/>
</g>
<!-- ../src/domain/me/index.ts -->
<g id="node8" class="node">
<title>../src/domain/me/index.ts</title>
<path fill="none" stroke="#c6c5fe" d="M1266.7252,-154.374C1266.7252,-154.374 1101.2675,-154.374 1101.2675,-154.374 1097.0175,-154.374 1092.7676,-150.1241 1092.7676,-145.8742 1092.7676,-145.8742 1092.7676,-137.3743 1092.7676,-137.3743 1092.7676,-133.1244 1097.0175,-128.8745 1101.2675,-128.8745 1101.2675,-128.8745 1266.7252,-128.8745 1266.7252,-128.8745 1270.9751,-128.8745 1275.2251,-133.1244 1275.2251,-137.3743 1275.2251,-137.3743 1275.2251,-145.8742 1275.2251,-145.8742 1275.2251,-150.1241 1270.9751,-154.374 1266.7252,-154.374"/>
<text text-anchor="middle" x="1183.9963" y="-138.2485" font-family="Arial" font-size="15.00" fill="#c6c5fe">../src/domain/me/index.ts</text>
</g>
<!-- ../src/useCase/me/interactor.ts&#45;&gt;../src/domain/me/index.ts -->
<g id="edge18" class="edge">
<title>../src/useCase/me/interactor.ts&#45;&gt;../src/domain/me/index.ts</title>
<path fill="none" stroke="#757575" d="M854.799,-141.6243C924.5139,-141.6243 1014.2621,-141.6243 1082.4368,-141.6243"/>
<polygon fill="#757575" stroke="#757575" points="1082.7598,-145.1244 1092.7597,-141.6243 1082.7597,-138.1244 1082.7598,-145.1244"/>
</g>
<!-- ../src/domain/me/me.ts -->
<g id="node9" class="node">
<title>../src/domain/me/me.ts</title>
<path fill="none" stroke="#cfffac" d="M1648.8571,-175.374C1648.8571,-175.374 1498.4432,-175.374 1498.4432,-175.374 1494.1933,-175.374 1489.9433,-171.1241 1489.9433,-166.8742 1489.9433,-166.8742 1489.9433,-158.3743 1489.9433,-158.3743 1489.9433,-154.1244 1494.1933,-149.8745 1498.4432,-149.8745 1498.4432,-149.8745 1648.8571,-149.8745 1648.8571,-149.8745 1653.107,-149.8745 1657.3569,-154.1244 1657.3569,-158.3743 1657.3569,-158.3743 1657.3569,-166.8742 1657.3569,-166.8742 1657.3569,-171.1241 1653.107,-175.374 1648.8571,-175.374"/>
<text text-anchor="middle" x="1573.6501" y="-159.2485" font-family="Arial" font-size="15.00" fill="#cfffac">../src/domain/me/me.ts</text>
</g>
<!-- ../src/domain/me/index.ts&#45;&gt;../src/domain/me/me.ts -->
<g id="edge7" class="edge">
<title>../src/domain/me/index.ts&#45;&gt;../src/domain/me/me.ts</title>
<path fill="none" stroke="#757575" d="M1275.3528,-146.5478C1336.8262,-149.8609 1417.6607,-154.2174 1479.674,-157.5595"/>
<polygon fill="#757575" stroke="#757575" points="1479.6754,-161.0646 1489.8493,-158.1079 1480.0522,-154.0747 1479.6754,-161.0646"/>
</g>
<!-- ../src/domain/me/type.ts -->
<g id="node10" class="node">
<title>../src/domain/me/type.ts</title>
<path fill="none" stroke="#cfffac" d="M1652.8716,-132.374C1652.8716,-132.374 1494.4287,-132.374 1494.4287,-132.374 1490.1787,-132.374 1485.9288,-128.1241 1485.9288,-123.8742 1485.9288,-123.8742 1485.9288,-115.3743 1485.9288,-115.3743 1485.9288,-111.1244 1490.1787,-106.8745 1494.4287,-106.8745 1494.4287,-106.8745 1652.8716,-106.8745 1652.8716,-106.8745 1657.1216,-106.8745 1661.3715,-111.1244 1661.3715,-115.3743 1661.3715,-115.3743 1661.3715,-123.8742 1661.3715,-123.8742 1661.3715,-128.1241 1657.1216,-132.374 1652.8716,-132.374"/>
<text text-anchor="middle" x="1573.6501" y="-116.2485" font-family="Arial" font-size="15.00" fill="#cfffac">../src/domain/me/type.ts</text>
</g>
<!-- ../src/domain/me/index.ts&#45;&gt;../src/domain/me/type.ts -->
<g id="edge8" class="edge">
<title>../src/domain/me/index.ts&#45;&gt;../src/domain/me/type.ts</title>
<path fill="none" stroke="#757575" d="M1275.3528,-136.4662C1335.5477,-133.0676 1414.3068,-128.6209 1475.7808,-125.15"/>
<polygon fill="#757575" stroke="#757575" points="1476.094,-128.638 1485.8807,-124.5798 1475.6993,-121.6491 1476.094,-128.638"/>
</g>
<!-- ../src/externalInterface/api/http/client/client.ts -->
<g id="node11" class="node">
<title>../src/externalInterface/api/http/client/client.ts</title>
<path fill="none" stroke="#cfffac" d="M2730.8512,-305.374C2730.8512,-305.374 2435.9076,-305.374 2435.9076,-305.374 2431.6576,-305.374 2427.4077,-301.1241 2427.4077,-296.8742 2427.4077,-296.8742 2427.4077,-288.3743 2427.4077,-288.3743 2427.4077,-284.1244 2431.6576,-279.8745 2435.9076,-279.8745 2435.9076,-279.8745 2730.8512,-279.8745 2730.8512,-279.8745 2735.1012,-279.8745 2739.3511,-284.1244 2739.3511,-288.3743 2739.3511,-288.3743 2739.3511,-296.8742 2739.3511,-296.8742 2739.3511,-301.1241 2735.1012,-305.374 2730.8512,-305.374"/>
<text text-anchor="middle" x="2583.3794" y="-289.2485" font-family="Arial" font-size="15.00" fill="#cfffac">../src/externalInterface/api/http/client/client.ts</text>
</g>
<!-- ../src/externalInterface/api/http/client/index.ts -->
<g id="node12" class="node">
<title>../src/externalInterface/api/http/client/index.ts</title>
<path fill="none" stroke="#c6c5fe" d="M2382.8007,-305.374C2382.8007,-305.374 2087.1724,-305.374 2087.1724,-305.374 2082.9225,-305.374 2078.6726,-301.1241 2078.6726,-296.8742 2078.6726,-296.8742 2078.6726,-288.3743 2078.6726,-288.3743 2078.6726,-284.1244 2082.9225,-279.8745 2087.1724,-279.8745 2087.1724,-279.8745 2382.8007,-279.8745 2382.8007,-279.8745 2387.0507,-279.8745 2391.3006,-284.1244 2391.3006,-288.3743 2391.3006,-288.3743 2391.3006,-296.8742 2391.3006,-296.8742 2391.3006,-301.1241 2387.0507,-305.374 2382.8007,-305.374"/>
<text text-anchor="middle" x="2234.9866" y="-289.2485" font-family="Arial" font-size="15.00" fill="#c6c5fe">../src/externalInterface/api/http/client/index.ts</text>
</g>
<!-- ../src/externalInterface/api/http/client/index.ts&#45;&gt;../src/externalInterface/api/http/client/client.ts -->
<g id="edge9" class="edge">
<title>../src/externalInterface/api/http/client/index.ts&#45;&gt;../src/externalInterface/api/http/client/client.ts</title>
<path fill="none" stroke="#757575" d="M2391.3489,-292.6243C2399.93,-292.6243 2408.5695,-292.6243 2417.1828,-292.6243"/>
<polygon fill="#757575" stroke="#757575" points="2417.277,-296.1244 2427.277,-292.6243 2417.277,-289.1244 2417.277,-296.1244"/>
</g>
<!-- ../src/externalInterface/api/http/client/util.ts -->
<g id="node13" class="node">
<title>../src/externalInterface/api/http/client/util.ts</title>
<path fill="none" stroke="#cfffac" d="M2374.6161,-262.374C2374.6161,-262.374 2095.357,-262.374 2095.357,-262.374 2091.1071,-262.374 2086.8571,-258.1241 2086.8571,-253.8742 2086.8571,-253.8742 2086.8571,-245.3743 2086.8571,-245.3743 2086.8571,-241.1244 2091.1071,-236.8745 2095.357,-236.8745 2095.357,-236.8745 2374.6161,-236.8745 2374.6161,-236.8745 2378.8661,-236.8745 2383.116,-241.1244 2383.116,-245.3743 2383.116,-245.3743 2383.116,-253.8742 2383.116,-253.8742 2383.116,-258.1241 2378.8661,-262.374 2374.6161,-262.374"/>
<text text-anchor="middle" x="2234.9866" y="-246.2485" font-family="Arial" font-size="15.00" fill="#cfffac">../src/externalInterface/api/http/client/util.ts</text>
</g>
<!-- ../src/externalInterface/api/http/me/index.ts -->
<g id="node14" class="node">
<title>../src/externalInterface/api/http/me/index.ts</title>
<path fill="none" stroke="#c6c5fe" d="M1714.2848,-283.374C1714.2848,-283.374 1433.0155,-283.374 1433.0155,-283.374 1428.7656,-283.374 1424.5156,-279.1241 1424.5156,-274.8742 1424.5156,-274.8742 1424.5156,-266.3743 1424.5156,-266.3743 1424.5156,-262.1244 1428.7656,-257.8745 1433.0155,-257.8745 1433.0155,-257.8745 1714.2848,-257.8745 1714.2848,-257.8745 1718.5347,-257.8745 1722.7846,-262.1244 1722.7846,-266.3743 1722.7846,-266.3743 1722.7846,-274.8742 1722.7846,-274.8742 1722.7846,-279.1241 1718.5347,-283.374 1714.2848,-283.374"/>
<text text-anchor="middle" x="1573.6501" y="-267.2485" font-family="Arial" font-size="15.00" fill="#c6c5fe">../src/externalInterface/api/http/me/index.ts</text>
</g>
<!-- ../src/externalInterface/api/http/me/me.ts -->
<g id="node15" class="node">
<title>../src/externalInterface/api/http/me/me.ts</title>
<path fill="none" stroke="#c6c5fe" d="M2033.8862,-283.374C2033.8862,-283.374 1767.6607,-283.374 1767.6607,-283.374 1763.4108,-283.374 1759.1609,-279.1241 1759.1609,-274.8742 1759.1609,-274.8742 1759.1609,-266.3743 1759.1609,-266.3743 1759.1609,-262.1244 1763.4108,-257.8745 1767.6607,-257.8745 1767.6607,-257.8745 2033.8862,-257.8745 2033.8862,-257.8745 2038.1361,-257.8745 2042.386,-262.1244 2042.386,-266.3743 2042.386,-266.3743 2042.386,-274.8742 2042.386,-274.8742 2042.386,-279.1241 2038.1361,-283.374 2033.8862,-283.374"/>
<text text-anchor="middle" x="1900.7734" y="-267.2485" font-family="Arial" font-size="15.00" fill="#c6c5fe">../src/externalInterface/api/http/me/me.ts</text>
</g>
<!-- ../src/externalInterface/api/http/me/index.ts&#45;&gt;../src/externalInterface/api/http/me/me.ts -->
<g id="edge10" class="edge">
<title>../src/externalInterface/api/http/me/index.ts&#45;&gt;../src/externalInterface/api/http/me/me.ts</title>
<path fill="none" stroke="#757575" d="M1722.8527,-270.6243C1731.5124,-270.6243 1740.2261,-270.6243 1748.8959,-270.6243"/>
<polygon fill="#757575" stroke="#757575" points="1749.0474,-274.1244 1759.0474,-270.6243 1749.0473,-267.1244 1749.0474,-274.1244"/>
</g>
<!-- ../src/externalInterface/api/http/me/me.ts&#45;&gt;../src/externalInterface/api/http/client/index.ts -->
<g id="edge11" class="edge">
<title>../src/externalInterface/api/http/me/me.ts&#45;&gt;../src/externalInterface/api/http/client/index.ts</title>
<path fill="none" stroke="#757575" d="M2042.5099,-279.9542C2051.0774,-280.5182 2059.7359,-281.0882 2068.3926,-281.658"/>
<polygon fill="#757575" stroke="#757575" points="2068.3401,-285.162 2078.5485,-282.3265 2068.8,-278.1772 2068.3401,-285.162"/>
</g>
<!-- ../src/externalInterface/api/http/me/me.ts&#45;&gt;../src/externalInterface/api/http/client/util.ts -->
<g id="edge12" class="edge">
<title>../src/externalInterface/api/http/me/me.ts&#45;&gt;../src/externalInterface/api/http/client/util.ts</title>
<path fill="none" stroke="#757575" d="M2042.5099,-261.7184C2053.8621,-261.0051 2065.3742,-260.2817 2076.83,-259.5619"/>
<polygon fill="#757575" stroke="#757575" points="2077.1166,-263.0509 2086.8774,-258.9306 2076.6775,-256.0647 2077.1166,-263.0509"/>
</g>
<!-- ../src/gateway/me/me.ts&#45;&gt;../src/externalInterface/api/http/me/index.ts -->
<g id="edge14" class="edge">
<title>../src/gateway/me/me.ts&#45;&gt;../src/externalInterface/api/http/me/index.ts</title>
<path fill="none" stroke="#757575" d="M1271.4423,-270.6243C1313.5309,-270.6243 1365.3429,-270.6243 1414.1044,-270.6243"/>
<polygon fill="#757575" stroke="#757575" points="1414.1349,-274.1244 1424.1349,-270.6243 1414.1348,-267.1244 1414.1349,-274.1244"/>
</g>
<!-- ../src/presenter/components/ecosystem/Me/Me.tsx -->
<g id="node18" class="node">
<title>../src/presenter/components/ecosystem/Me/Me.tsx</title>
<path fill="none" stroke="#c6c5fe" d="M912.7013,-25.374C912.7013,-25.374 578.4617,-25.374 578.4617,-25.374 574.2118,-25.374 569.9619,-21.1241 569.9619,-16.8742 569.9619,-16.8742 569.9619,-8.3743 569.9619,-8.3743 569.9619,-4.1244 574.2118,.1255 578.4617,.1255 578.4617,.1255 912.7013,.1255 912.7013,.1255 916.9513,.1255 921.2012,-4.1244 921.2012,-8.3743 921.2012,-8.3743 921.2012,-16.8742 921.2012,-16.8742 921.2012,-21.1241 916.9513,-25.374 912.7013,-25.374"/>
<text text-anchor="middle" x="745.5815" y="-9.2485" font-family="Arial" font-size="15.00" fill="#c6c5fe">../src/presenter/components/ecosystem/Me/Me.tsx</text>
</g>
<!-- ../src/presenter/components/ecosystem/Me/Placeholder.tsx -->
<g id="node19" class="node">
<title>../src/presenter/components/ecosystem/Me/Placeholder.tsx</title>
<path fill="none" stroke="#cfffac" d="M1379.67,-25.374C1379.67,-25.374 988.3227,-25.374 988.3227,-25.374 984.0728,-25.374 979.8229,-21.1241 979.8229,-16.8742 979.8229,-16.8742 979.8229,-8.3743 979.8229,-8.3743 979.8229,-4.1244 984.0728,.1255 988.3227,.1255 988.3227,.1255 1379.67,.1255 1379.67,.1255 1383.9199,.1255 1388.1698,-4.1244 1388.1698,-8.3743 1388.1698,-8.3743 1388.1698,-16.8742 1388.1698,-16.8742 1388.1698,-21.1241 1383.9199,-25.374 1379.67,-25.374"/>
<text text-anchor="middle" x="1183.9963" y="-9.2485" font-family="Arial" font-size="15.00" fill="#cfffac">../src/presenter/components/ecosystem/Me/Placeholder.tsx</text>
</g>
<!-- ../src/presenter/components/ecosystem/Me/Me.tsx&#45;&gt;../src/presenter/components/ecosystem/Me/Placeholder.tsx -->
<g id="edge16" class="edge">
<title>../src/presenter/components/ecosystem/Me/Me.tsx&#45;&gt;../src/presenter/components/ecosystem/Me/Placeholder.tsx</title>
<path fill="none" stroke="#757575" d="M921.3755,-12.6243C937.2564,-12.6243 953.454,-12.6243 969.6166,-12.6243"/>
<polygon fill="#757575" stroke="#757575" points="969.6725,-16.1244 979.6725,-12.6243 969.6725,-9.1244 969.6725,-16.1244"/>
</g>
<!-- ../src/presenter/components/ecosystem/Me/index.ts -->
<g id="node20" class="node">
<title>../src/presenter/components/ecosystem/Me/index.ts</title>
<path fill="none" stroke="#c6c5fe" d="M502.8246,-26.374C502.8246,-26.374 161.5407,-26.374 161.5407,-26.374 157.2908,-26.374 153.0408,-22.1241 153.0408,-17.8742 153.0408,-17.8742 153.0408,-9.3743 153.0408,-9.3743 153.0408,-5.1244 157.2908,-.8745 161.5407,-.8745 161.5407,-.8745 502.8246,-.8745 502.8246,-.8745 507.0745,-.8745 511.3244,-5.1244 511.3244,-9.3743 511.3244,-9.3743 511.3244,-17.8742 511.3244,-17.8742 511.3244,-22.1241 507.0745,-26.374 502.8246,-26.374"/>
<text text-anchor="middle" x="332.1826" y="-10.2485" font-family="Arial" font-size="15.00" fill="#c6c5fe">../src/presenter/components/ecosystem/Me/index.ts</text>
</g>
<!-- ../src/presenter/components/ecosystem/Me/index.ts&#45;&gt;../src/presenter/components/ecosystem/Me/Me.tsx -->
<g id="edge17" class="edge">
<title>../src/presenter/components/ecosystem/Me/index.ts&#45;&gt;../src/presenter/components/ecosystem/Me/Me.tsx</title>
<path fill="none" stroke="#757575" d="M511.4014,-13.1907C527.4729,-13.1519 543.7701,-13.1124 559.8949,-13.0734"/>
<polygon fill="#757575" stroke="#757575" points="559.9176,-16.5735 569.909,-13.0492 559.9006,-9.5735 559.9176,-16.5735"/>
</g>
<!-- ../src/presenter/containers/ErrorBoundary.tsx -->
<g id="node21" class="node">
<title>../src/presenter/containers/ErrorBoundary.tsx</title>
<path fill="none" stroke="#cfffac" d="M480.5243,-197.374C480.5243,-197.374 183.841,-197.374 183.841,-197.374 179.591,-197.374 175.3411,-193.1241 175.3411,-188.8742 175.3411,-188.8742 175.3411,-180.3743 175.3411,-180.3743 175.3411,-176.1244 179.591,-171.8745 183.841,-171.8745 183.841,-171.8745 480.5243,-171.8745 480.5243,-171.8745 484.7742,-171.8745 489.0241,-176.1244 489.0241,-180.3743 489.0241,-180.3743 489.0241,-188.8742 489.0241,-188.8742 489.0241,-193.1241 484.7742,-197.374 480.5243,-197.374"/>
<text text-anchor="middle" x="332.1826" y="-181.2485" font-family="Arial" font-size="15.00" fill="#cfffac">../src/presenter/containers/ErrorBoundary.tsx</text>
</g>
<!-- _app.tsx -->
<g id="node22" class="node">
<title>_app.tsx</title>
<path fill="none" stroke="#c6c5fe" d="M86.1358,-197.374C86.1358,-197.374 30.7261,-197.374 30.7261,-197.374 26.4761,-197.374 22.2262,-193.1241 22.2262,-188.8742 22.2262,-188.8742 22.2262,-180.3743 22.2262,-180.3743 22.2262,-176.1244 26.4761,-171.8745 30.7261,-171.8745 30.7261,-171.8745 86.1358,-171.8745 86.1358,-171.8745 90.3857,-171.8745 94.6356,-176.1244 94.6356,-180.3743 94.6356,-180.3743 94.6356,-188.8742 94.6356,-188.8742 94.6356,-193.1241 90.3857,-197.374 86.1358,-197.374"/>
<text text-anchor="middle" x="58.4309" y="-181.2485" font-family="Arial" font-size="15.00" fill="#c6c5fe">_app.tsx</text>
</g>
<!-- _app.tsx&#45;&gt;../src/presenter/containers/ErrorBoundary.tsx -->
<g id="edge19" class="edge">
<title>_app.tsx&#45;&gt;../src/presenter/containers/ErrorBoundary.tsx</title>
<path fill="none" stroke="#757575" d="M94.783,-184.6243C113.8699,-184.6243 138.769,-184.6243 165.2467,-184.6243"/>
<polygon fill="#757575" stroke="#757575" points="165.4631,-188.1244 175.4631,-184.6243 165.463,-181.1244 165.4631,-188.1244"/>
</g>
<!-- api/mock/me.ts -->
<g id="node23" class="node">
<title>api/mock/me.ts</title>
<path fill="none" stroke="#cfffac" d="M108.293,-240.374C108.293,-240.374 8.5689,-240.374 8.5689,-240.374 4.3189,-240.374 .069,-236.1241 .069,-231.8742 .069,-231.8742 .069,-223.3743 .069,-223.3743 .069,-219.1244 4.3189,-214.8745 8.5689,-214.8745 8.5689,-214.8745 108.293,-214.8745 108.293,-214.8745 112.5429,-214.8745 116.7928,-219.1244 116.7928,-223.3743 116.7928,-223.3743 116.7928,-231.8742 116.7928,-231.8742 116.7928,-236.1241 112.5429,-240.374 108.293,-240.374"/>
<text text-anchor="middle" x="58.4309" y="-224.2485" font-family="Arial" font-size="15.00" fill="#cfffac">api/mock/me.ts</text>
</g>
<!-- index.tsx -->
<g id="node24" class="node">
<title>index.tsx</title>
<path fill="none" stroke="#cfffac" d="M87.6256,-283.374C87.6256,-283.374 29.2362,-283.374 29.2362,-283.374 24.9862,-283.374 20.7363,-279.1241 20.7363,-274.8742 20.7363,-274.8742 20.7363,-266.3743 20.7363,-266.3743 20.7363,-262.1244 24.9862,-257.8745 29.2362,-257.8745 29.2362,-257.8745 87.6256,-257.8745 87.6256,-257.8745 91.8756,-257.8745 96.1255,-262.1244 96.1255,-266.3743 96.1255,-266.3743 96.1255,-274.8742 96.1255,-274.8742 96.1255,-279.1241 91.8756,-283.374 87.6256,-283.374"/>
<text text-anchor="middle" x="58.4309" y="-267.2485" font-family="Arial" font-size="15.00" fill="#cfffac">index.tsx</text>
</g>
<!-- me.tsx -->
<g id="node25" class="node">
<title>me.tsx</title>
<path fill="none" stroke="#c6c5fe" d="M80.1037,-68.374C80.1037,-68.374 36.7581,-68.374 36.7581,-68.374 32.5082,-68.374 28.2583,-64.1241 28.2583,-59.8742 28.2583,-59.8742 28.2583,-51.3743 28.2583,-51.3743 28.2583,-47.1244 32.5082,-42.8745 36.7581,-42.8745 36.7581,-42.8745 80.1037,-42.8745 80.1037,-42.8745 84.3536,-42.8745 88.6035,-47.1244 88.6035,-51.3743 88.6035,-51.3743 88.6035,-59.8742 88.6035,-59.8742 88.6035,-64.1241 84.3536,-68.374 80.1037,-68.374"/>
<text text-anchor="middle" x="58.4309" y="-52.2485" font-family="Arial" font-size="15.00" fill="#c6c5fe">me.tsx</text>
</g>
<!-- me.tsx&#45;&gt;../src/controller/me/me.tsx -->
<g id="edge20" class="edge">
<title>me.tsx&#45;&gt;../src/controller/me/me.tsx</title>
<path fill="none" stroke="#757575" d="M88.7731,-65.1564C135.5242,-79.8434 225.6698,-108.1629 282.1681,-125.912"/>
<polygon fill="#757575" stroke="#757575" points="281.3749,-129.3315 291.9643,-128.9895 283.473,-122.6532 281.3749,-129.3315"/>
</g>
<!-- me.tsx&#45;&gt;../src/presenter/hooks/useReRender.ts -->
<g id="edge22" class="edge">
<title>me.tsx&#45;&gt;../src/presenter/hooks/useReRender.ts</title>
<path fill="none" stroke="#757575" d="M88.8435,-55.6243C176.4872,-55.6243 433.8619,-55.6243 599.176,-55.6243"/>
<polygon fill="#757575" stroke="#757575" points="599.4362,-59.1244 609.4362,-55.6243 599.4362,-52.1244 599.4362,-59.1244"/>
</g>
<!-- me.tsx&#45;&gt;../src/presenter/components/ecosystem/Me/index.ts -->
<g id="edge21" class="edge">
<title>me.tsx&#45;&gt;../src/presenter/components/ecosystem/Me/index.ts</title>
<path fill="none" stroke="#757575" d="M88.7731,-50.9691C124.999,-45.4111 187.2799,-35.8558 239.7723,-27.8022"/>
<polygon fill="#757575" stroke="#757575" points="240.4365,-31.2413 249.79,-26.2652 239.3749,-24.3223 240.4365,-31.2413"/>
</g>
</g>
</svg>
