<?xml version="1.0" encoding="UTF-8" standalone="no"?>
<!DOCTYPE svg PUBLIC "-//W3C//DTD SVG 1.1//EN"
 "http://www.w3.org/Graphics/SVG/1.1/DTD/svg11.dtd">
<!-- Generated by graphviz version 2.40.1 (20161225.0304)
 -->
<!-- Title: G Pages: 1 -->
<svg width="2083pt" height="451pt"
 viewBox="0.00 0.00 2083.28 451.45" xmlns="http://www.w3.org/2000/svg" xmlns:xlink="http://www.w3.org/1999/xlink">
<g id="graph0" class="graph" transform="scale(1 1) rotate(0) translate(21.6 429.8485)">
<title>G</title>
<polygon fill="#111111" stroke="transparent" points="-21.6,21.6 -21.6,-429.8485 2061.682,-429.8485 2061.682,21.6 -21.6,21.6"/>
<!-- ../src/domain/me/index.ts -->
<g id="node1" class="node">
<title>../src/domain/me/index.ts</title>
<path fill="none" stroke="#c6c5fe" d="M1221.6886,-193.374C1221.6886,-193.374 1056.2308,-193.374 1056.2308,-193.374 1051.9809,-193.374 1047.731,-189.1241 1047.731,-184.8742 1047.731,-184.8742 1047.731,-176.3743 1047.731,-176.3743 1047.731,-172.1244 1051.9809,-167.8745 1056.2308,-167.8745 1056.2308,-167.8745 1221.6886,-167.8745 1221.6886,-167.8745 1225.9385,-167.8745 1230.1884,-172.1244 1230.1884,-176.3743 1230.1884,-176.3743 1230.1884,-184.8742 1230.1884,-184.8742 1230.1884,-189.1241 1225.9385,-193.374 1221.6886,-193.374"/>
<text text-anchor="middle" x="1138.9597" y="-177.2485" font-family="Arial" font-size="15.00" fill="#c6c5fe">../src/domain/me/index.ts</text>
</g>
<!-- ../src/domain/me/me.ts -->
<g id="node2" class="node">
<title>../src/domain/me/me.ts</title>
<path fill="none" stroke="#cfffac" d="M1610.9103,-195.374C1610.9103,-195.374 1460.4964,-195.374 1460.4964,-195.374 1456.2465,-195.374 1451.9966,-191.1241 1451.9966,-186.8742 1451.9966,-186.8742 1451.9966,-178.3743 1451.9966,-178.3743 1451.9966,-174.1244 1456.2465,-169.8745 1460.4964,-169.8745 1460.4964,-169.8745 1610.9103,-169.8745 1610.9103,-169.8745 1615.1602,-169.8745 1619.4102,-174.1244 1619.4102,-178.3743 1619.4102,-178.3743 1619.4102,-186.8742 1619.4102,-186.8742 1619.4102,-191.1241 1615.1602,-195.374 1610.9103,-195.374"/>
<text text-anchor="middle" x="1535.7034" y="-179.2485" font-family="Arial" font-size="15.00" fill="#cfffac">../src/domain/me/me.ts</text>
</g>
<!-- ../src/domain/me/index.ts&#45;&gt;../src/domain/me/me.ts -->
<g id="edge1" class="edge">
<title>../src/domain/me/index.ts&#45;&gt;../src/domain/me/me.ts</title>
<path fill="none" stroke="#757575" d="M1230.4789,-181.0856C1293.7993,-181.4048 1377.8233,-181.8284 1441.6802,-182.1503"/>
<polygon fill="#757575" stroke="#757575" points="1441.7319,-185.6505 1451.7495,-182.2011 1441.7673,-178.6506 1441.7319,-185.6505"/>
</g>
<!-- ../src/domain/me/type.ts -->
<g id="node3" class="node">
<title>../src/domain/me/type.ts</title>
<path fill="none" stroke="#cfffac" d="M1614.9249,-152.374C1614.9249,-152.374 1456.4819,-152.374 1456.4819,-152.374 1452.232,-152.374 1447.982,-148.1241 1447.982,-143.8742 1447.982,-143.8742 1447.982,-135.3743 1447.982,-135.3743 1447.982,-131.1244 1452.232,-126.8745 1456.4819,-126.8745 1456.4819,-126.8745 1614.9249,-126.8745 1614.9249,-126.8745 1619.1748,-126.8745 1623.4247,-131.1244 1623.4247,-135.3743 1623.4247,-135.3743 1623.4247,-143.8742 1623.4247,-143.8742 1623.4247,-148.1241 1619.1748,-152.374 1614.9249,-152.374"/>
<text text-anchor="middle" x="1535.7034" y="-136.2485" font-family="Arial" font-size="15.00" fill="#cfffac">../src/domain/me/type.ts</text>
</g>
<!-- ../src/domain/me/index.ts&#45;&gt;../src/domain/me/type.ts -->
<g id="edge2" class="edge">
<title>../src/domain/me/index.ts&#45;&gt;../src/domain/me/type.ts</title>
<path fill="none" stroke="#757575" d="M1230.4789,-171.1666C1292.6046,-164.7464 1374.66,-156.2667 1438.0444,-149.7165"/>
<polygon fill="#757575" stroke="#757575" points="1438.4638,-153.1919 1448.051,-148.6824 1437.7442,-146.2289 1438.4638,-153.1919"/>
</g>
<!-- ../src/externalInterface/api/http/client/client.ts -->
<g id="node4" class="node">
<title>../src/externalInterface/api/http/client/client.ts</title>
<path fill="none" stroke="#cfffac" d="M2031.568,-301.374C2031.568,-301.374 1736.6244,-301.374 1736.6244,-301.374 1732.3744,-301.374 1728.1245,-297.1241 1728.1245,-292.8742 1728.1245,-292.8742 1728.1245,-284.3743 1728.1245,-284.3743 1728.1245,-280.1244 1732.3744,-275.8745 1736.6244,-275.8745 1736.6244,-275.8745 2031.568,-275.8745 2031.568,-275.8745 2035.8179,-275.8745 2040.0679,-280.1244 2040.0679,-284.3743 2040.0679,-284.3743 2040.0679,-292.8742 2040.0679,-292.8742 2040.0679,-297.1241 2035.8179,-301.374 2031.568,-301.374"/>
<text text-anchor="middle" x="1884.0962" y="-285.2485" font-family="Arial" font-size="15.00" fill="#cfffac">../src/externalInterface/api/http/client/client.ts</text>
</g>
<!-- ../src/externalInterface/api/http/client/index.ts -->
<g id="node5" class="node">
<title>../src/externalInterface/api/http/client/index.ts</title>
<path fill="none" stroke="#c6c5fe" d="M1683.5175,-301.374C1683.5175,-301.374 1387.8892,-301.374 1387.8892,-301.374 1383.6393,-301.374 1379.3893,-297.1241 1379.3893,-292.8742 1379.3893,-292.8742 1379.3893,-284.3743 1379.3893,-284.3743 1379.3893,-280.1244 1383.6393,-275.8745 1387.8892,-275.8745 1387.8892,-275.8745 1683.5175,-275.8745 1683.5175,-275.8745 1687.7675,-275.8745 1692.0174,-280.1244 1692.0174,-284.3743 1692.0174,-284.3743 1692.0174,-292.8742 1692.0174,-292.8742 1692.0174,-297.1241 1687.7675,-301.374 1683.5175,-301.374"/>
<text text-anchor="middle" x="1535.7034" y="-285.2485" font-family="Arial" font-size="15.00" fill="#c6c5fe">../src/externalInterface/api/http/client/index.ts</text>
</g>
<!-- ../src/externalInterface/api/http/client/index.ts&#45;&gt;../src/externalInterface/api/http/client/client.ts -->
<g id="edge3" class="edge">
<title>../src/externalInterface/api/http/client/index.ts&#45;&gt;../src/externalInterface/api/http/client/client.ts</title>
<path fill="none" stroke="#757575" d="M1692.0657,-288.6243C1700.6468,-288.6243 1709.2863,-288.6243 1717.8996,-288.6243"/>
<polygon fill="#757575" stroke="#757575" points="1717.9938,-292.1244 1727.9938,-288.6243 1717.9938,-285.1244 1717.9938,-292.1244"/>
</g>
<!-- ../src/externalInterface/api/http/client/util.ts -->
<g id="node6" class="node">
<title>../src/externalInterface/api/http/client/util.ts</title>
<path fill="none" stroke="#cfffac" d="M1675.3329,-258.374C1675.3329,-258.374 1396.0738,-258.374 1396.0738,-258.374 1391.8239,-258.374 1387.5739,-254.1241 1387.5739,-249.8742 1387.5739,-249.8742 1387.5739,-241.3743 1387.5739,-241.3743 1387.5739,-237.1244 1391.8239,-232.8745 1396.0738,-232.8745 1396.0738,-232.8745 1675.3329,-232.8745 1675.3329,-232.8745 1679.5829,-232.8745 1683.8328,-237.1244 1683.8328,-241.3743 1683.8328,-241.3743 1683.8328,-249.8742 1683.8328,-249.8742 1683.8328,-254.1241 1679.5829,-258.374 1675.3329,-258.374"/>
<text text-anchor="middle" x="1535.7034" y="-242.2485" font-family="Arial" font-size="15.00" fill="#cfffac">../src/externalInterface/api/http/client/util.ts</text>
</g>
<!-- ../src/externalInterface/api/http/me.ts -->
<g id="node7" class="node">
<title>../src/externalInterface/api/http/me.ts</title>
<path fill="none" stroke="#c6c5fe" d="M1259.5676,-279.374C1259.5676,-279.374 1018.3518,-279.374 1018.3518,-279.374 1014.1019,-279.374 1009.852,-275.1241 1009.852,-270.8742 1009.852,-270.8742 1009.852,-262.3743 1009.852,-262.3743 1009.852,-258.1244 1014.1019,-253.8745 1018.3518,-253.8745 1018.3518,-253.8745 1259.5676,-253.8745 1259.5676,-253.8745 1263.8175,-253.8745 1268.0674,-258.1244 1268.0674,-262.3743 1268.0674,-262.3743 1268.0674,-270.8742 1268.0674,-270.8742 1268.0674,-275.1241 1263.8175,-279.374 1259.5676,-279.374"/>
<text text-anchor="middle" x="1138.9597" y="-263.2485" font-family="Arial" font-size="15.00" fill="#c6c5fe">../src/externalInterface/api/http/me.ts</text>
</g>
<!-- ../src/externalInterface/api/http/me.ts&#45;&gt;../src/externalInterface/api/http/client/index.ts -->
<g id="edge4" class="edge">
<title>../src/externalInterface/api/http/me.ts&#45;&gt;../src/externalInterface/api/http/client/index.ts</title>
<path fill="none" stroke="#757575" d="M1268.3195,-273.7974C1300.3908,-275.5758 1335.2113,-277.5067 1368.7971,-279.3691"/>
<polygon fill="#757575" stroke="#757575" points="1368.9978,-282.8855 1379.1762,-279.9446 1369.3854,-275.8962 1368.9978,-282.8855"/>
</g>
<!-- ../src/externalInterface/api/http/me.ts&#45;&gt;../src/externalInterface/api/http/client/util.ts -->
<g id="edge5" class="edge">
<title>../src/externalInterface/api/http/me.ts&#45;&gt;../src/externalInterface/api/http/client/util.ts</title>
<path fill="none" stroke="#757575" d="M1268.3195,-259.7771C1303.1476,-257.9337 1341.2179,-255.9186 1377.4282,-254.0019"/>
<polygon fill="#757575" stroke="#757575" points="1377.7868,-257.4879 1387.5878,-253.4642 1377.4167,-250.4977 1377.7868,-257.4879"/>
</g>
<!-- ../src/gateway/me/index.ts -->
<g id="node8" class="node">
<title>../src/gateway/me/index.ts</title>
<path fill="none" stroke="#c6c5fe" d="M418.5841,-279.374C418.5841,-279.374 245.7812,-279.374 245.7812,-279.374 241.5312,-279.374 237.2813,-275.1241 237.2813,-270.8742 237.2813,-270.8742 237.2813,-262.3743 237.2813,-262.3743 237.2813,-258.1244 241.5312,-253.8745 245.7812,-253.8745 245.7812,-253.8745 418.5841,-253.8745 418.5841,-253.8745 422.834,-253.8745 427.0839,-258.1244 427.0839,-262.3743 427.0839,-262.3743 427.0839,-270.8742 427.0839,-270.8742 427.0839,-275.1241 422.834,-279.374 418.5841,-279.374"/>
<text text-anchor="middle" x="332.1826" y="-263.2485" font-family="Arial" font-size="15.00" fill="#c6c5fe">../src/gateway/me/index.ts</text>
</g>
<!-- ../src/gateway/me/me.ts -->
<g id="node9" class="node">
<title>../src/gateway/me/me.ts</title>
<path fill="none" stroke="#c6c5fe" d="M801.9427,-279.374C801.9427,-279.374 644.1838,-279.374 644.1838,-279.374 639.9338,-279.374 635.6839,-275.1241 635.6839,-270.8742 635.6839,-270.8742 635.6839,-262.3743 635.6839,-262.3743 635.6839,-258.1244 639.9338,-253.8745 644.1838,-253.8745 644.1838,-253.8745 801.9427,-253.8745 801.9427,-253.8745 806.1926,-253.8745 810.4426,-258.1244 810.4426,-262.3743 810.4426,-262.3743 810.4426,-270.8742 810.4426,-270.8742 810.4426,-275.1241 806.1926,-279.374 801.9427,-279.374"/>
<text text-anchor="middle" x="723.0632" y="-263.2485" font-family="Arial" font-size="15.00" fill="#c6c5fe">../src/gateway/me/me.ts</text>
</g>
<!-- ../src/gateway/me/index.ts&#45;&gt;../src/gateway/me/me.ts -->
<g id="edge6" class="edge">
<title>../src/gateway/me/index.ts&#45;&gt;../src/gateway/me/me.ts</title>
<path fill="none" stroke="#757575" d="M427.3029,-266.6243C487.3306,-266.6243 564.6811,-266.6243 625.2222,-266.6243"/>
<polygon fill="#757575" stroke="#757575" points="625.554,-270.1244 635.554,-266.6243 625.554,-263.1244 625.554,-270.1244"/>
</g>
<!-- ../src/gateway/me/me.ts&#45;&gt;../src/externalInterface/api/http/me.ts -->
<g id="edge7" class="edge">
<title>../src/gateway/me/me.ts&#45;&gt;../src/externalInterface/api/http/me.ts</title>
<path fill="none" stroke="#757575" d="M810.5023,-266.6243C865.2324,-266.6243 936.9685,-266.6243 999.4341,-266.6243"/>
<polygon fill="#757575" stroke="#757575" points="999.7758,-270.1244 1009.7758,-266.6243 999.7758,-263.1244 999.7758,-270.1244"/>
</g>
<!-- ../src/presenter/components/ecosystem/Me/Content.tsx -->
<g id="node10" class="node">
<title>../src/presenter/components/ecosystem/Me/Content.tsx</title>
<path fill="none" stroke="#c6c5fe" d="M1321.7788,-111.374C1321.7788,-111.374 956.1407,-111.374 956.1407,-111.374 951.8907,-111.374 947.6408,-107.1241 947.6408,-102.8742 947.6408,-102.8742 947.6408,-94.3743 947.6408,-94.3743 947.6408,-90.1244 951.8907,-85.8745 956.1407,-85.8745 956.1407,-85.8745 1321.7788,-85.8745 1321.7788,-85.8745 1326.0287,-85.8745 1330.2786,-90.1244 1330.2786,-94.3743 1330.2786,-94.3743 1330.2786,-102.8742 1330.2786,-102.8742 1330.2786,-107.1241 1326.0287,-111.374 1321.7788,-111.374"/>
<text text-anchor="middle" x="1138.9597" y="-95.2485" font-family="Arial" font-size="15.00" fill="#c6c5fe">../src/presenter/components/ecosystem/Me/Content.tsx</text>
</g>
<!-- ../src/useCase/useMe/type.ts -->
<g id="node11" class="node">
<title>../src/useCase/useMe/type.ts</title>
<path fill="none" stroke="#cfffac" d="M1632.1146,-67.374C1632.1146,-67.374 1439.2922,-67.374 1439.2922,-67.374 1435.0422,-67.374 1430.7923,-63.1241 1430.7923,-58.8742 1430.7923,-58.8742 1430.7923,-50.3743 1430.7923,-50.3743 1430.7923,-46.1244 1435.0422,-41.8745 1439.2922,-41.8745 1439.2922,-41.8745 1632.1146,-41.8745 1632.1146,-41.8745 1636.3645,-41.8745 1640.6144,-46.1244 1640.6144,-50.3743 1640.6144,-50.3743 1640.6144,-58.8742 1640.6144,-58.8742 1640.6144,-63.1241 1636.3645,-67.374 1632.1146,-67.374"/>
<text text-anchor="middle" x="1535.7034" y="-51.2485" font-family="Arial" font-size="15.00" fill="#cfffac">../src/useCase/useMe/type.ts</text>
</g>
<!-- ../src/presenter/components/ecosystem/Me/Content.tsx&#45;&gt;../src/useCase/useMe/type.ts -->
<g id="edge8" class="edge">
<title>../src/presenter/components/ecosystem/Me/Content.tsx&#45;&gt;../src/useCase/useMe/type.ts</title>
<path fill="none" stroke="#757575" d="M1265.1641,-85.9845C1291.0179,-83.3023 1318.0427,-80.4311 1343.2964,-77.6243 1368.8291,-74.7864 1396.2496,-71.595 1422.1597,-68.5136"/>
<polygon fill="#757575" stroke="#757575" points="1422.875,-71.9531 1432.3901,-67.2933 1422.0459,-65.0024 1422.875,-71.9531"/>
</g>
<!-- ../src/presenter/components/ecosystem/Me/Exception.tsx -->
<g id="node12" class="node">
<title>../src/presenter/components/ecosystem/Me/Exception.tsx</title>
<path fill="none" stroke="#cfffac" d="M1328.6162,-68.374C1328.6162,-68.374 949.3033,-68.374 949.3033,-68.374 945.0534,-68.374 940.8034,-64.1241 940.8034,-59.8742 940.8034,-59.8742 940.8034,-51.3743 940.8034,-51.3743 940.8034,-47.1244 945.0534,-42.8745 949.3033,-42.8745 949.3033,-42.8745 1328.6162,-42.8745 1328.6162,-42.8745 1332.8661,-42.8745 1337.116,-47.1244 1337.116,-51.3743 1337.116,-51.3743 1337.116,-59.8742 1337.116,-59.8742 1337.116,-64.1241 1332.8661,-68.374 1328.6162,-68.374"/>
<text text-anchor="middle" x="1138.9597" y="-52.2485" font-family="Arial" font-size="15.00" fill="#cfffac">../src/presenter/components/ecosystem/Me/Exception.tsx</text>
</g>
<!-- ../src/presenter/components/ecosystem/Me/Me.tsx -->
<g id="node13" class="node">
<title>../src/presenter/components/ecosystem/Me/Me.tsx</title>
<path fill="none" stroke="#c6c5fe" d="M890.183,-236.374C890.183,-236.374 555.9434,-236.374 555.9434,-236.374 551.6935,-236.374 547.4436,-232.1241 547.4436,-227.8742 547.4436,-227.8742 547.4436,-219.3743 547.4436,-219.3743 547.4436,-215.1244 551.6935,-210.8745 555.9434,-210.8745 555.9434,-210.8745 890.183,-210.8745 890.183,-210.8745 894.433,-210.8745 898.6829,-215.1244 898.6829,-219.3743 898.6829,-219.3743 898.6829,-227.8742 898.6829,-227.8742 898.6829,-232.1241 894.433,-236.374 890.183,-236.374"/>
<text text-anchor="middle" x="723.0632" y="-220.2485" font-family="Arial" font-size="15.00" fill="#c6c5fe">../src/presenter/components/ecosystem/Me/Me.tsx</text>
</g>
<!-- ../src/presenter/components/ecosystem/Me/Placeholder.tsx -->
<g id="node14" class="node">
<title>../src/presenter/components/ecosystem/Me/Placeholder.tsx</title>
<path fill="none" stroke="#cfffac" d="M1334.6333,-236.374C1334.6333,-236.374 943.2861,-236.374 943.2861,-236.374 939.0362,-236.374 934.7862,-232.1241 934.7862,-227.8742 934.7862,-227.8742 934.7862,-219.3743 934.7862,-219.3743 934.7862,-215.1244 939.0362,-210.8745 943.2861,-210.8745 943.2861,-210.8745 1334.6333,-210.8745 1334.6333,-210.8745 1338.8833,-210.8745 1343.1332,-215.1244 1343.1332,-219.3743 1343.1332,-219.3743 1343.1332,-227.8742 1343.1332,-227.8742 1343.1332,-232.1241 1338.8833,-236.374 1334.6333,-236.374"/>
<text text-anchor="middle" x="1138.9597" y="-220.2485" font-family="Arial" font-size="15.00" fill="#cfffac">../src/presenter/components/ecosystem/Me/Placeholder.tsx</text>
</g>
<!-- ../src/presenter/components/ecosystem/Me/Me.tsx&#45;&gt;../src/presenter/components/ecosystem/Me/Placeholder.tsx -->
<g id="edge9" class="edge">
<title>../src/presenter/components/ecosystem/Me/Me.tsx&#45;&gt;../src/presenter/components/ecosystem/Me/Placeholder.tsx</title>
<path fill="none" stroke="#757575" d="M898.838,-223.6243C907.3628,-223.6243 915.9616,-223.6243 924.5751,-223.6243"/>
<polygon fill="#757575" stroke="#757575" points="924.6899,-227.1244 934.6898,-223.6243 924.6898,-220.1244 924.6899,-227.1244"/>
</g>
<!-- ../src/presenter/components/ecosystem/Me/index.ts -->
<g id="node15" class="node">
<title>../src/presenter/components/ecosystem/Me/index.ts</title>
<path fill="none" stroke="#c6c5fe" d="M502.8246,-236.374C502.8246,-236.374 161.5407,-236.374 161.5407,-236.374 157.2908,-236.374 153.0408,-232.1241 153.0408,-227.8742 153.0408,-227.8742 153.0408,-219.3743 153.0408,-219.3743 153.0408,-215.1244 157.2908,-210.8745 161.5407,-210.8745 161.5407,-210.8745 502.8246,-210.8745 502.8246,-210.8745 507.0745,-210.8745 511.3244,-215.1244 511.3244,-219.3743 511.3244,-219.3743 511.3244,-227.8742 511.3244,-227.8742 511.3244,-232.1241 507.0745,-236.374 502.8246,-236.374"/>
<text text-anchor="middle" x="332.1826" y="-220.2485" font-family="Arial" font-size="15.00" fill="#c6c5fe">../src/presenter/components/ecosystem/Me/index.ts</text>
</g>
<!-- ../src/presenter/components/ecosystem/Me/index.ts&#45;&gt;../src/presenter/components/ecosystem/Me/Me.tsx -->
<g id="edge10" class="edge">
<title>../src/presenter/components/ecosystem/Me/index.ts&#45;&gt;../src/presenter/components/ecosystem/Me/Me.tsx</title>
<path fill="none" stroke="#757575" d="M511.6067,-223.6243C520.1896,-223.6243 528.8139,-223.6243 537.4129,-223.6243"/>
<polygon fill="#757575" stroke="#757575" points="537.4918,-227.1244 547.4917,-223.6243 537.4917,-220.1244 537.4918,-227.1244"/>
</g>
<!-- ../src/presenter/containers/ErrorBoundary.tsx -->
<g id="node16" class="node">
<title>../src/presenter/containers/ErrorBoundary.tsx</title>
<path fill="none" stroke="#cfffac" d="M480.5243,-322.374C480.5243,-322.374 183.841,-322.374 183.841,-322.374 179.591,-322.374 175.3411,-318.1241 175.3411,-313.8742 175.3411,-313.8742 175.3411,-305.3743 175.3411,-305.3743 175.3411,-301.1244 179.591,-296.8745 183.841,-296.8745 183.841,-296.8745 480.5243,-296.8745 480.5243,-296.8745 484.7742,-296.8745 489.0241,-301.1244 489.0241,-305.3743 489.0241,-305.3743 489.0241,-313.8742 489.0241,-313.8742 489.0241,-318.1241 484.7742,-322.374 480.5243,-322.374"/>
<text text-anchor="middle" x="332.1826" y="-306.2485" font-family="Arial" font-size="15.00" fill="#cfffac">../src/presenter/containers/ErrorBoundary.tsx</text>
</g>
<!-- ../src/useCase/useMe/index.ts -->
<g id="node17" class="node">
<title>../src/useCase/useMe/index.ts</title>
<path fill="none" stroke="#c6c5fe" d="M432.1008,-111.374C432.1008,-111.374 232.2645,-111.374 232.2645,-111.374 228.0146,-111.374 223.7646,-107.1241 223.7646,-102.8742 223.7646,-102.8742 223.7646,-94.3743 223.7646,-94.3743 223.7646,-90.1244 228.0146,-85.8745 232.2645,-85.8745 232.2645,-85.8745 432.1008,-85.8745 432.1008,-85.8745 436.3507,-85.8745 440.6006,-90.1244 440.6006,-94.3743 440.6006,-94.3743 440.6006,-102.8742 440.6006,-102.8742 440.6006,-107.1241 436.3507,-111.374 432.1008,-111.374"/>
<text text-anchor="middle" x="332.1826" y="-95.2485" font-family="Arial" font-size="15.00" fill="#c6c5fe">../src/useCase/useMe/index.ts</text>
</g>
<!-- ../src/useCase/useMe/interactor.tsx -->
<g id="node18" class="node">
<title>../src/useCase/useMe/interactor.tsx</title>
<path fill="none" stroke="#c6c5fe" d="M839.8213,-111.374C839.8213,-111.374 606.3051,-111.374 606.3051,-111.374 602.0552,-111.374 597.8053,-107.1241 597.8053,-102.8742 597.8053,-102.8742 597.8053,-94.3743 597.8053,-94.3743 597.8053,-90.1244 602.0552,-85.8745 606.3051,-85.8745 606.3051,-85.8745 839.8213,-85.8745 839.8213,-85.8745 844.0713,-85.8745 848.3212,-90.1244 848.3212,-94.3743 848.3212,-94.3743 848.3212,-102.8742 848.3212,-102.8742 848.3212,-107.1241 844.0713,-111.374 839.8213,-111.374"/>
<text text-anchor="middle" x="723.0632" y="-95.2485" font-family="Arial" font-size="15.00" fill="#c6c5fe">../src/useCase/useMe/interactor.tsx</text>
</g>
<!-- ../src/useCase/useMe/index.ts&#45;&gt;../src/useCase/useMe/interactor.tsx -->
<g id="edge11" class="edge">
<title>../src/useCase/useMe/index.ts&#45;&gt;../src/useCase/useMe/interactor.tsx</title>
<path fill="none" stroke="#757575" d="M440.805,-98.6243C486.2569,-98.6243 539.5713,-98.6243 587.551,-98.6243"/>
<polygon fill="#757575" stroke="#757575" points="587.7036,-102.1244 597.7036,-98.6243 587.7036,-95.1244 587.7036,-102.1244"/>
</g>
<!-- ../src/useCase/useMe/useMe.ts -->
<g id="node19" class="node">
<title>../src/useCase/useMe/useMe.ts</title>
<path fill="none" stroke="#c6c5fe" d="M1243.5405,-25.374C1243.5405,-25.374 1034.379,-25.374 1034.379,-25.374 1030.1291,-25.374 1025.8791,-21.1241 1025.8791,-16.8742 1025.8791,-16.8742 1025.8791,-8.3743 1025.8791,-8.3743 1025.8791,-4.1244 1030.1291,.1255 1034.379,.1255 1034.379,.1255 1243.5405,.1255 1243.5405,.1255 1247.7904,.1255 1252.0403,-4.1244 1252.0403,-8.3743 1252.0403,-8.3743 1252.0403,-16.8742 1252.0403,-16.8742 1252.0403,-21.1241 1247.7904,-25.374 1243.5405,-25.374"/>
<text text-anchor="middle" x="1138.9597" y="-9.2485" font-family="Arial" font-size="15.00" fill="#c6c5fe">../src/useCase/useMe/useMe.ts</text>
</g>
<!-- ../src/useCase/useMe/index.ts&#45;&gt;../src/useCase/useMe/useMe.ts -->
<g id="edge12" class="edge">
<title>../src/useCase/useMe/index.ts&#45;&gt;../src/useCase/useMe/useMe.ts</title>
<path fill="none" stroke="#757575" d="M440.7233,-86.746C561.3308,-73.5862 761.8716,-51.8206 934.623,-33.6243 960.8036,-30.8666 988.876,-27.9532 1015.5723,-25.2031"/>
<polygon fill="#757575" stroke="#757575" points="1016.1406,-28.6632 1025.7298,-24.1578 1015.424,-21.7 1016.1406,-28.6632"/>
</g>
<!-- ../src/useCase/useMe/interactor.tsx&#45;&gt;../src/domain/me/index.ts -->
<g id="edge13" class="edge">
<title>../src/useCase/useMe/interactor.tsx&#45;&gt;../src/domain/me/index.ts</title>
<path fill="none" stroke="#757575" d="M765.6592,-111.3481C808.1332,-123.6434 875.4012,-142.0591 934.623,-153.6243 967.8828,-160.1194 1004.4985,-165.504 1037.4355,-169.7108"/>
<polygon fill="#757575" stroke="#757575" points="1037.1732,-173.2053 1047.5314,-170.9785 1038.0454,-166.2598 1037.1732,-173.2053"/>
</g>
<!-- ../src/useCase/useMe/interactor.tsx&#45;&gt;../src/domain/me/type.ts -->
<g id="edge14" class="edge">
<title>../src/useCase/useMe/interactor.tsx&#45;&gt;../src/domain/me/type.ts</title>
<path fill="none" stroke="#757575" d="M830.0175,-111.2593C863.4708,-114.8044 900.5434,-118.3167 934.623,-120.6243 1111.7541,-132.6181 1318.773,-137.0614 1437.8233,-138.6931"/>
<polygon fill="#757575" stroke="#757575" points="1437.9598,-142.1951 1448.0056,-138.8287 1438.0531,-135.1958 1437.9598,-142.1951"/>
</g>
<!-- ../src/useCase/useMe/interactor.tsx&#45;&gt;../src/presenter/components/ecosystem/Me/Content.tsx -->
<g id="edge15" class="edge">
<title>../src/useCase/useMe/interactor.tsx&#45;&gt;../src/presenter/components/ecosystem/Me/Content.tsx</title>
<path fill="none" stroke="#757575" d="M848.4099,-98.6243C876.4523,-98.6243 906.8876,-98.6243 937.1496,-98.6243"/>
<polygon fill="#757575" stroke="#757575" points="937.402,-102.1244 947.4019,-98.6243 937.4019,-95.1244 937.402,-102.1244"/>
</g>
<!-- ../src/useCase/useMe/interactor.tsx&#45;&gt;../src/presenter/components/ecosystem/Me/Exception.tsx -->
<g id="edge16" class="edge">
<title>../src/useCase/useMe/interactor.tsx&#45;&gt;../src/presenter/components/ecosystem/Me/Exception.tsx</title>
<path fill="none" stroke="#757575" d="M844.4446,-85.9765C873.9542,-82.9087 905.4216,-79.6431 934.623,-76.6243 957.5918,-74.2498 982.0136,-71.733 1005.6842,-69.2978"/>
<polygon fill="#757575" stroke="#757575" points="1006.1869,-72.7646 1015.7763,-68.2598 1005.4707,-65.8014 1006.1869,-72.7646"/>
</g>
<!-- ../src/useCase/useMe/interactor.tsx&#45;&gt;../src/useCase/useMe/useMe.ts -->
<g id="edge17" class="edge">
<title>../src/useCase/useMe/interactor.tsx&#45;&gt;../src/useCase/useMe/useMe.ts</title>
<path fill="none" stroke="#757575" d="M776.3181,-85.9192C811.455,-77.011 858.2748,-64.1335 898.623,-49.6243 915.0992,-43.6994 917.7039,-38.1309 934.623,-33.6243 960.3671,-26.767 988.487,-22.1236 1015.4038,-18.9859"/>
<polygon fill="#757575" stroke="#757575" points="1016.0975,-22.4307 1025.6535,-17.8556 1015.3301,-15.4729 1016.0975,-22.4307"/>
</g>
<!-- ../src/useCase/useMe/useMe.ts&#45;&gt;../src/useCase/useMe/type.ts -->
<g id="edge18" class="edge">
<title>../src/useCase/useMe/useMe.ts&#45;&gt;../src/useCase/useMe/type.ts</title>
<path fill="none" stroke="#757575" d="M1252.1923,-24.1329C1281.8424,-27.1816 1313.7731,-30.4961 1343.2964,-33.6243 1368.3709,-36.2811 1395.2773,-39.1847 1420.7873,-41.9621"/>
<polygon fill="#757575" stroke="#757575" points="1420.5443,-45.4563 1430.8647,-43.0606 1421.3029,-38.4975 1420.5443,-45.4563"/>
</g>
<!-- _app.tsx -->
<g id="node20" class="node">
<title>_app.tsx</title>
<path fill="none" stroke="#c6c5fe" d="M86.1358,-322.374C86.1358,-322.374 30.7261,-322.374 30.7261,-322.374 26.4761,-322.374 22.2262,-318.1241 22.2262,-313.8742 22.2262,-313.8742 22.2262,-305.3743 22.2262,-305.3743 22.2262,-301.1244 26.4761,-296.8745 30.7261,-296.8745 30.7261,-296.8745 86.1358,-296.8745 86.1358,-296.8745 90.3857,-296.8745 94.6356,-301.1244 94.6356,-305.3743 94.6356,-305.3743 94.6356,-313.8742 94.6356,-313.8742 94.6356,-318.1241 90.3857,-322.374 86.1358,-322.374"/>
<text text-anchor="middle" x="58.4309" y="-306.2485" font-family="Arial" font-size="15.00" fill="#c6c5fe">_app.tsx</text>
</g>
<!-- _app.tsx&#45;&gt;../src/presenter/containers/ErrorBoundary.tsx -->
<g id="edge19" class="edge">
<title>_app.tsx&#45;&gt;../src/presenter/containers/ErrorBoundary.tsx</title>
<path fill="none" stroke="#757575" d="M94.783,-309.6243C113.8699,-309.6243 138.769,-309.6243 165.2467,-309.6243"/>
<polygon fill="#757575" stroke="#757575" points="165.4631,-313.1244 175.4631,-309.6243 165.463,-306.1244 165.4631,-313.1244"/>
</g>
<!-- api/mock/me.ts -->
<g id="node21" class="node">
<title>api/mock/me.ts</title>
<path fill="none" stroke="#cfffac" d="M108.293,-365.374C108.293,-365.374 8.5689,-365.374 8.5689,-365.374 4.3189,-365.374 .069,-361.1241 .069,-356.8742 .069,-356.8742 .069,-348.3743 .069,-348.3743 .069,-344.1244 4.3189,-339.8745 8.5689,-339.8745 8.5689,-339.8745 108.293,-339.8745 108.293,-339.8745 112.5429,-339.8745 116.7928,-344.1244 116.7928,-348.3743 116.7928,-348.3743 116.7928,-356.8742 116.7928,-356.8742 116.7928,-361.1241 112.5429,-365.374 108.293,-365.374"/>
<text text-anchor="middle" x="58.4309" y="-349.2485" font-family="Arial" font-size="15.00" fill="#cfffac">api/mock/me.ts</text>
</g>
<!-- index.tsx -->
<g id="node22" class="node">
<title>index.tsx</title>
<path fill="none" stroke="#cfffac" d="M87.6256,-408.374C87.6256,-408.374 29.2362,-408.374 29.2362,-408.374 24.9862,-408.374 20.7363,-404.1241 20.7363,-399.8742 20.7363,-399.8742 20.7363,-391.3743 20.7363,-391.3743 20.7363,-387.1244 24.9862,-382.8745 29.2362,-382.8745 29.2362,-382.8745 87.6256,-382.8745 87.6256,-382.8745 91.8756,-382.8745 96.1255,-387.1244 96.1255,-391.3743 96.1255,-391.3743 96.1255,-399.8742 96.1255,-399.8742 96.1255,-404.1241 91.8756,-408.374 87.6256,-408.374"/>
<text text-anchor="middle" x="58.4309" y="-392.2485" font-family="Arial" font-size="15.00" fill="#cfffac">index.tsx</text>
</g>
<!-- me.tsx -->
<g id="node23" class="node">
<title>me.tsx</title>
<path fill="none" stroke="#c6c5fe" d="M80.1037,-236.374C80.1037,-236.374 36.7581,-236.374 36.7581,-236.374 32.5082,-236.374 28.2583,-232.1241 28.2583,-227.8742 28.2583,-227.8742 28.2583,-219.3743 28.2583,-219.3743 28.2583,-215.1244 32.5082,-210.8745 36.7581,-210.8745 36.7581,-210.8745 80.1037,-210.8745 80.1037,-210.8745 84.3536,-210.8745 88.6035,-215.1244 88.6035,-219.3743 88.6035,-219.3743 88.6035,-227.8742 88.6035,-227.8742 88.6035,-232.1241 84.3536,-236.374 80.1037,-236.374"/>
<text text-anchor="middle" x="58.4309" y="-220.2485" font-family="Arial" font-size="15.00" fill="#c6c5fe">me.tsx</text>
</g>
<!-- me.tsx&#45;&gt;../src/gateway/me/index.ts -->
<g id="edge20" class="edge">
<title>me.tsx&#45;&gt;../src/gateway/me/index.ts</title>
<path fill="none" stroke="#757575" d="M88.8729,-231.633C107.2898,-236.2486 131.3042,-241.863 152.8618,-245.6243 176.88,-249.8148 202.8575,-253.3975 227.3864,-256.3549"/>
<polygon fill="#757575" stroke="#757575" points="227.092,-259.8444 237.4336,-257.5417 227.9132,-252.8927 227.092,-259.8444"/>
</g>
<!-- me.tsx&#45;&gt;../src/presenter/components/ecosystem/Me/index.ts -->
<g id="edge21" class="edge">
<title>me.tsx&#45;&gt;../src/presenter/components/ecosystem/Me/index.ts</title>
<path fill="none" stroke="#757575" d="M88.7731,-223.6243C103.3084,-223.6243 122.0384,-223.6243 142.6476,-223.6243"/>
<polygon fill="#757575" stroke="#757575" points="142.9057,-227.1244 152.9057,-223.6243 142.9057,-220.1244 142.9057,-227.1244"/>
</g>
<!-- me.tsx&#45;&gt;../src/useCase/useMe/index.ts -->
<g id="edge22" class="edge">
<title>me.tsx&#45;&gt;../src/useCase/useMe/index.ts</title>
<path fill="none" stroke="#757575" d="M86.1862,-210.9507C135.7854,-188.3028 239.6318,-140.8846 295.2122,-115.5056"/>
<polygon fill="#757575" stroke="#757575" points="296.7111,-118.6689 304.3539,-111.3314 293.8035,-112.3013 296.7111,-118.6689"/>
</g>
</g>
</svg>
