<?xml version="1.0" encoding="UTF-8" standalone="no"?>
<!DOCTYPE svg PUBLIC "-//W3C//DTD SVG 1.1//EN"
 "http://www.w3.org/Graphics/SVG/1.1/DTD/svg11.dtd">
<!-- Generated by graphviz version 2.40.1 (20161225.0304)
 -->
<!-- Title: G Pages: 1 -->
<svg width="2484pt" height="451pt"
 viewBox="0.00 0.00 2483.84 451.45" xmlns="http://www.w3.org/2000/svg" xmlns:xlink="http://www.w3.org/1999/xlink">
<g id="graph0" class="graph" transform="scale(1 1) rotate(0) translate(21.6 429.8485)">
<title>G</title>
<polygon fill="#111111" stroke="transparent" points="-21.6,21.6 -21.6,-429.8485 2462.2416,-429.8485 2462.2416,21.6 -21.6,21.6"/>
<!-- ../src/domain/me/index.ts -->
<g id="node1" class="node">
<title>../src/domain/me/index.ts</title>
<path fill="none" stroke="#c6c5fe" d="M455.3595,-279.374C455.3595,-279.374 289.9017,-279.374 289.9017,-279.374 285.6518,-279.374 281.4019,-275.1241 281.4019,-270.8742 281.4019,-270.8742 281.4019,-262.3743 281.4019,-262.3743 281.4019,-258.1244 285.6518,-253.8745 289.9017,-253.8745 289.9017,-253.8745 455.3595,-253.8745 455.3595,-253.8745 459.6094,-253.8745 463.8593,-258.1244 463.8593,-262.3743 463.8593,-262.3743 463.8593,-270.8742 463.8593,-270.8742 463.8593,-275.1241 459.6094,-279.374 455.3595,-279.374"/>
<text text-anchor="middle" x="372.6306" y="-263.2485" font-family="Arial" font-size="15.00" fill="#c6c5fe">../src/domain/me/index.ts</text>
</g>
<!-- ../src/domain/me/me.ts -->
<g id="node2" class="node">
<title>../src/domain/me/me.ts</title>
<path fill="none" stroke="#cfffac" d="M890.4382,-322.374C890.4382,-322.374 740.0242,-322.374 740.0242,-322.374 735.7743,-322.374 731.5244,-318.1241 731.5244,-313.8742 731.5244,-313.8742 731.5244,-305.3743 731.5244,-305.3743 731.5244,-301.1244 735.7743,-296.8745 740.0242,-296.8745 740.0242,-296.8745 890.4382,-296.8745 890.4382,-296.8745 894.6881,-296.8745 898.938,-301.1244 898.938,-305.3743 898.938,-305.3743 898.938,-313.8742 898.938,-313.8742 898.938,-318.1241 894.6881,-322.374 890.4382,-322.374"/>
<text text-anchor="middle" x="815.2312" y="-306.2485" font-family="Arial" font-size="15.00" fill="#cfffac">../src/domain/me/me.ts</text>
</g>
<!-- ../src/domain/me/index.ts&#45;&gt;../src/domain/me/me.ts -->
<g id="edge1" class="edge">
<title>../src/domain/me/index.ts&#45;&gt;../src/domain/me/me.ts</title>
<path fill="none" stroke="#757575" d="M464.0581,-275.2958C503.5361,-279.0569 550.2453,-283.5293 592.3994,-287.6243 634.7566,-291.7389 681.6358,-296.3575 721.4239,-300.2967"/>
<polygon fill="#757575" stroke="#757575" points="721.0833,-303.78 731.3796,-301.2828 721.7733,-296.8141 721.0833,-303.78"/>
</g>
<!-- ../src/domain/me/type.ts -->
<g id="node3" class="node">
<title>../src/domain/me/type.ts</title>
<path fill="none" stroke="#cfffac" d="M894.4527,-279.374C894.4527,-279.374 736.0097,-279.374 736.0097,-279.374 731.7598,-279.374 727.5099,-275.1241 727.5099,-270.8742 727.5099,-270.8742 727.5099,-262.3743 727.5099,-262.3743 727.5099,-258.1244 731.7598,-253.8745 736.0097,-253.8745 736.0097,-253.8745 894.4527,-253.8745 894.4527,-253.8745 898.7026,-253.8745 902.9525,-258.1244 902.9525,-262.3743 902.9525,-262.3743 902.9525,-270.8742 902.9525,-270.8742 902.9525,-275.1241 898.7026,-279.374 894.4527,-279.374"/>
<text text-anchor="middle" x="815.2312" y="-263.2485" font-family="Arial" font-size="15.00" fill="#cfffac">../src/domain/me/type.ts</text>
</g>
<!-- ../src/domain/me/index.ts&#45;&gt;../src/domain/me/type.ts -->
<g id="edge2" class="edge">
<title>../src/domain/me/index.ts&#45;&gt;../src/domain/me/type.ts</title>
<path fill="none" stroke="#757575" d="M464.0693,-266.6243C537.9569,-266.6243 641.7321,-266.6243 717.3015,-266.6243"/>
<polygon fill="#757575" stroke="#757575" points="717.3045,-270.1244 727.3044,-266.6243 717.3044,-263.1244 717.3045,-270.1244"/>
</g>
<!-- ../src/externalInterface/api/http/client/client.ts -->
<g id="node4" class="node">
<title>../src/externalInterface/api/http/client/client.ts</title>
<path fill="none" stroke="#cfffac" d="M2432.1276,-258.374C2432.1276,-258.374 2137.1839,-258.374 2137.1839,-258.374 2132.934,-258.374 2128.6841,-254.1241 2128.6841,-249.8742 2128.6841,-249.8742 2128.6841,-241.3743 2128.6841,-241.3743 2128.6841,-237.1244 2132.934,-232.8745 2137.1839,-232.8745 2137.1839,-232.8745 2432.1276,-232.8745 2432.1276,-232.8745 2436.3775,-232.8745 2440.6274,-237.1244 2440.6274,-241.3743 2440.6274,-241.3743 2440.6274,-249.8742 2440.6274,-249.8742 2440.6274,-254.1241 2436.3775,-258.374 2432.1276,-258.374"/>
<text text-anchor="middle" x="2284.6558" y="-242.2485" font-family="Arial" font-size="15.00" fill="#cfffac">../src/externalInterface/api/http/client/client.ts</text>
</g>
<!-- ../src/externalInterface/api/http/client/index.ts -->
<g id="node5" class="node">
<title>../src/externalInterface/api/http/client/index.ts</title>
<path fill="none" stroke="#c6c5fe" d="M2084.0771,-258.374C2084.0771,-258.374 1788.4488,-258.374 1788.4488,-258.374 1784.1988,-258.374 1779.9489,-254.1241 1779.9489,-249.8742 1779.9489,-249.8742 1779.9489,-241.3743 1779.9489,-241.3743 1779.9489,-237.1244 1784.1988,-232.8745 1788.4488,-232.8745 1788.4488,-232.8745 2084.0771,-232.8745 2084.0771,-232.8745 2088.327,-232.8745 2092.577,-237.1244 2092.577,-241.3743 2092.577,-241.3743 2092.577,-249.8742 2092.577,-249.8742 2092.577,-254.1241 2088.327,-258.374 2084.0771,-258.374"/>
<text text-anchor="middle" x="1936.2629" y="-242.2485" font-family="Arial" font-size="15.00" fill="#c6c5fe">../src/externalInterface/api/http/client/index.ts</text>
</g>
<!-- ../src/externalInterface/api/http/client/index.ts&#45;&gt;../src/externalInterface/api/http/client/client.ts -->
<g id="edge3" class="edge">
<title>../src/externalInterface/api/http/client/index.ts&#45;&gt;../src/externalInterface/api/http/client/client.ts</title>
<path fill="none" stroke="#757575" d="M2092.6252,-245.6243C2101.2064,-245.6243 2109.8458,-245.6243 2118.4591,-245.6243"/>
<polygon fill="#757575" stroke="#757575" points="2118.5534,-249.1244 2128.5534,-245.6243 2118.5533,-242.1244 2118.5534,-249.1244"/>
</g>
<!-- ../src/externalInterface/api/http/client/util.ts -->
<g id="node6" class="node">
<title>../src/externalInterface/api/http/client/util.ts</title>
<path fill="none" stroke="#cfffac" d="M2075.8925,-215.374C2075.8925,-215.374 1796.6334,-215.374 1796.6334,-215.374 1792.3834,-215.374 1788.1335,-211.1241 1788.1335,-206.8742 1788.1335,-206.8742 1788.1335,-198.3743 1788.1335,-198.3743 1788.1335,-194.1244 1792.3834,-189.8745 1796.6334,-189.8745 1796.6334,-189.8745 2075.8925,-189.8745 2075.8925,-189.8745 2080.1424,-189.8745 2084.3924,-194.1244 2084.3924,-198.3743 2084.3924,-198.3743 2084.3924,-206.8742 2084.3924,-206.8742 2084.3924,-211.1241 2080.1424,-215.374 2075.8925,-215.374"/>
<text text-anchor="middle" x="1936.2629" y="-199.2485" font-family="Arial" font-size="15.00" fill="#cfffac">../src/externalInterface/api/http/client/util.ts</text>
</g>
<!-- ../src/externalInterface/api/http/me/index.ts -->
<g id="node7" class="node">
<title>../src/externalInterface/api/http/me/index.ts</title>
<path fill="none" stroke="#c6c5fe" d="M1371.788,-236.374C1371.788,-236.374 1090.5187,-236.374 1090.5187,-236.374 1086.2687,-236.374 1082.0188,-232.1241 1082.0188,-227.8742 1082.0188,-227.8742 1082.0188,-219.3743 1082.0188,-219.3743 1082.0188,-215.1244 1086.2687,-210.8745 1090.5187,-210.8745 1090.5187,-210.8745 1371.788,-210.8745 1371.788,-210.8745 1376.0379,-210.8745 1380.2878,-215.1244 1380.2878,-219.3743 1380.2878,-219.3743 1380.2878,-227.8742 1380.2878,-227.8742 1380.2878,-232.1241 1376.0379,-236.374 1371.788,-236.374"/>
<text text-anchor="middle" x="1231.1533" y="-220.2485" font-family="Arial" font-size="15.00" fill="#c6c5fe">../src/externalInterface/api/http/me/index.ts</text>
</g>
<!-- ../src/externalInterface/api/http/me/me.ts -->
<g id="node8" class="node">
<title>../src/externalInterface/api/http/me/me.ts</title>
<path fill="none" stroke="#c6c5fe" d="M1735.1625,-236.374C1735.1625,-236.374 1468.9371,-236.374 1468.9371,-236.374 1464.6872,-236.374 1460.4372,-232.1241 1460.4372,-227.8742 1460.4372,-227.8742 1460.4372,-219.3743 1460.4372,-219.3743 1460.4372,-215.1244 1464.6872,-210.8745 1468.9371,-210.8745 1468.9371,-210.8745 1735.1625,-210.8745 1735.1625,-210.8745 1739.4125,-210.8745 1743.6624,-215.1244 1743.6624,-219.3743 1743.6624,-219.3743 1743.6624,-227.8742 1743.6624,-227.8742 1743.6624,-232.1241 1739.4125,-236.374 1735.1625,-236.374"/>
<text text-anchor="middle" x="1602.0498" y="-220.2485" font-family="Arial" font-size="15.00" fill="#c6c5fe">../src/externalInterface/api/http/me/me.ts</text>
</g>
<!-- ../src/externalInterface/api/http/me/index.ts&#45;&gt;../src/externalInterface/api/http/me/me.ts -->
<g id="edge4" class="edge">
<title>../src/externalInterface/api/http/me/index.ts&#45;&gt;../src/externalInterface/api/http/me/me.ts</title>
<path fill="none" stroke="#757575" d="M1380.4079,-223.6243C1403.3782,-223.6243 1427.1192,-223.6243 1450.1465,-223.6243"/>
<polygon fill="#757575" stroke="#757575" points="1450.3177,-227.1244 1460.3177,-223.6243 1450.3176,-220.1244 1450.3177,-227.1244"/>
</g>
<!-- ../src/externalInterface/api/http/me/me.ts&#45;&gt;../src/externalInterface/api/http/client/index.ts -->
<g id="edge5" class="edge">
<title>../src/externalInterface/api/http/me/me.ts&#45;&gt;../src/externalInterface/api/http/client/index.ts</title>
<path fill="none" stroke="#757575" d="M1743.7863,-232.9542C1752.3537,-233.5182 1761.0123,-234.0882 1769.669,-234.658"/>
<polygon fill="#757575" stroke="#757575" points="1769.6165,-238.162 1779.8248,-235.3265 1770.0764,-231.1772 1769.6165,-238.162"/>
</g>
<!-- ../src/externalInterface/api/http/me/me.ts&#45;&gt;../src/externalInterface/api/http/client/util.ts -->
<g id="edge6" class="edge">
<title>../src/externalInterface/api/http/me/me.ts&#45;&gt;../src/externalInterface/api/http/client/util.ts</title>
<path fill="none" stroke="#757575" d="M1743.7863,-214.7184C1755.1384,-214.0051 1766.6505,-213.2817 1778.1064,-212.5619"/>
<polygon fill="#757575" stroke="#757575" points="1778.3929,-216.0509 1788.1537,-211.9306 1777.9539,-209.0647 1778.3929,-216.0509"/>
</g>
<!-- ../src/gateway/me/index.ts -->
<g id="node9" class="node">
<title>../src/gateway/me/index.ts</title>
<path fill="none" stroke="#c6c5fe" d="M459.0321,-215.374C459.0321,-215.374 286.2292,-215.374 286.2292,-215.374 281.9792,-215.374 277.7293,-211.1241 277.7293,-206.8742 277.7293,-206.8742 277.7293,-198.3743 277.7293,-198.3743 277.7293,-194.1244 281.9792,-189.8745 286.2292,-189.8745 286.2292,-189.8745 459.0321,-189.8745 459.0321,-189.8745 463.282,-189.8745 467.5319,-194.1244 467.5319,-198.3743 467.5319,-198.3743 467.5319,-206.8742 467.5319,-206.8742 467.5319,-211.1241 463.282,-215.374 459.0321,-215.374"/>
<text text-anchor="middle" x="372.6306" y="-199.2485" font-family="Arial" font-size="15.00" fill="#c6c5fe">../src/gateway/me/index.ts</text>
</g>
<!-- ../src/gateway/me/me.ts -->
<g id="node10" class="node">
<title>../src/gateway/me/me.ts</title>
<path fill="none" stroke="#c6c5fe" d="M894.1107,-236.374C894.1107,-236.374 736.3517,-236.374 736.3517,-236.374 732.1018,-236.374 727.8519,-232.1241 727.8519,-227.8742 727.8519,-227.8742 727.8519,-219.3743 727.8519,-219.3743 727.8519,-215.1244 732.1018,-210.8745 736.3517,-210.8745 736.3517,-210.8745 894.1107,-210.8745 894.1107,-210.8745 898.3606,-210.8745 902.6105,-215.1244 902.6105,-219.3743 902.6105,-219.3743 902.6105,-227.8742 902.6105,-227.8742 902.6105,-232.1241 898.3606,-236.374 894.1107,-236.374"/>
<text text-anchor="middle" x="815.2312" y="-220.2485" font-family="Arial" font-size="15.00" fill="#c6c5fe">../src/gateway/me/me.ts</text>
</g>
<!-- ../src/gateway/me/index.ts&#45;&gt;../src/gateway/me/me.ts -->
<g id="edge7" class="edge">
<title>../src/gateway/me/index.ts&#45;&gt;../src/gateway/me/me.ts</title>
<path fill="none" stroke="#757575" d="M467.5795,-207.1293C541.3283,-210.6284 643.2313,-215.4634 717.6414,-218.9939"/>
<polygon fill="#757575" stroke="#757575" points="717.798,-222.5052 727.9527,-219.4832 718.1299,-215.5131 717.798,-222.5052"/>
</g>
<!-- ../src/gateway/me/me.ts&#45;&gt;../src/externalInterface/api/http/me/index.ts -->
<g id="edge8" class="edge">
<title>../src/gateway/me/me.ts&#45;&gt;../src/externalInterface/api/http/me/index.ts</title>
<path fill="none" stroke="#757575" d="M902.4221,-223.6243C951.4098,-223.6243 1014.08,-223.6243 1071.5376,-223.6243"/>
<polygon fill="#757575" stroke="#757575" points="1071.8267,-227.1244 1081.8267,-223.6243 1071.8267,-220.1244 1071.8267,-227.1244"/>
</g>
<!-- ../src/presenter/components/domain/Me/ComponentSelector.tsx -->
<g id="node11" class="node">
<title>../src/presenter/components/domain/Me/ComponentSelector.tsx</title>
<path fill="none" stroke="#c6c5fe" d="M583.6686,-150.374C583.6686,-150.374 161.5926,-150.374 161.5926,-150.374 157.3427,-150.374 153.0928,-146.1241 153.0928,-141.8742 153.0928,-141.8742 153.0928,-133.3743 153.0928,-133.3743 153.0928,-129.1244 157.3427,-124.8745 161.5926,-124.8745 161.5926,-124.8745 583.6686,-124.8745 583.6686,-124.8745 587.9185,-124.8745 592.1685,-129.1244 592.1685,-133.3743 592.1685,-133.3743 592.1685,-141.8742 592.1685,-141.8742 592.1685,-146.1241 587.9185,-150.374 583.6686,-150.374"/>
<text text-anchor="middle" x="372.6306" y="-134.2485" font-family="Arial" font-size="15.00" fill="#c6c5fe">../src/presenter/components/domain/Me/ComponentSelector.tsx</text>
</g>
<!-- ../src/presenter/components/domain/Me/Content.tsx -->
<g id="node12" class="node">
<title>../src/presenter/components/domain/Me/Content.tsx</title>
<path fill="none" stroke="#c6c5fe" d="M987.0577,-150.374C987.0577,-150.374 643.4047,-150.374 643.4047,-150.374 639.1548,-150.374 634.9049,-146.1241 634.9049,-141.8742 634.9049,-141.8742 634.9049,-133.3743 634.9049,-133.3743 634.9049,-129.1244 639.1548,-124.8745 643.4047,-124.8745 643.4047,-124.8745 987.0577,-124.8745 987.0577,-124.8745 991.3076,-124.8745 995.5575,-129.1244 995.5575,-133.3743 995.5575,-133.3743 995.5575,-141.8742 995.5575,-141.8742 995.5575,-146.1241 991.3076,-150.374 987.0577,-150.374"/>
<text text-anchor="middle" x="815.2312" y="-134.2485" font-family="Arial" font-size="15.00" fill="#c6c5fe">../src/presenter/components/domain/Me/Content.tsx</text>
</g>
<!-- ../src/presenter/components/domain/Me/ComponentSelector.tsx&#45;&gt;../src/presenter/components/domain/Me/Content.tsx -->
<g id="edge9" class="edge">
<title>../src/presenter/components/domain/Me/ComponentSelector.tsx&#45;&gt;../src/presenter/components/domain/Me/Content.tsx</title>
<path fill="none" stroke="#757575" d="M592.3101,-137.6243C603.0894,-137.6243 613.8738,-137.6243 624.561,-137.6243"/>
<polygon fill="#757575" stroke="#757575" points="624.7745,-141.1244 634.7744,-137.6243 624.7744,-134.1244 624.7745,-141.1244"/>
</g>
<!-- ../src/presenter/components/domain/Me/Exception.tsx -->
<g id="node13" class="node">
<title>../src/presenter/components/domain/Me/Exception.tsx</title>
<path fill="none" stroke="#cfffac" d="M993.3951,-193.374C993.3951,-193.374 637.0673,-193.374 637.0673,-193.374 632.8174,-193.374 628.5675,-189.1241 628.5675,-184.8742 628.5675,-184.8742 628.5675,-176.3743 628.5675,-176.3743 628.5675,-172.1244 632.8174,-167.8745 637.0673,-167.8745 637.0673,-167.8745 993.3951,-167.8745 993.3951,-167.8745 997.645,-167.8745 1001.8949,-172.1244 1001.8949,-176.3743 1001.8949,-176.3743 1001.8949,-184.8742 1001.8949,-184.8742 1001.8949,-189.1241 997.645,-193.374 993.3951,-193.374"/>
<text text-anchor="middle" x="815.2312" y="-177.2485" font-family="Arial" font-size="15.00" fill="#cfffac">../src/presenter/components/domain/Me/Exception.tsx</text>
</g>
<!-- ../src/presenter/components/domain/Me/ComponentSelector.tsx&#45;&gt;../src/presenter/components/domain/Me/Exception.tsx -->
<g id="edge10" class="edge">
<title>../src/presenter/components/domain/Me/ComponentSelector.tsx&#45;&gt;../src/presenter/components/domain/Me/Exception.tsx</title>
<path fill="none" stroke="#757575" d="M502.7331,-150.2641C556.8736,-155.524 619.8406,-161.6415 675.0073,-167.0011"/>
<polygon fill="#757575" stroke="#757575" points="674.9219,-170.5092 685.2135,-167.9927 675.5989,-163.542 674.9219,-170.5092"/>
</g>
<!-- ../src/useCase/useMe/type.ts -->
<g id="node14" class="node">
<title>../src/useCase/useMe/type.ts</title>
<path fill="none" stroke="#cfffac" d="M1327.5645,-109.374C1327.5645,-109.374 1134.7421,-109.374 1134.7421,-109.374 1130.4922,-109.374 1126.2423,-105.1241 1126.2423,-100.8742 1126.2423,-100.8742 1126.2423,-92.3743 1126.2423,-92.3743 1126.2423,-88.1244 1130.4922,-83.8745 1134.7421,-83.8745 1134.7421,-83.8745 1327.5645,-83.8745 1327.5645,-83.8745 1331.8144,-83.8745 1336.0644,-88.1244 1336.0644,-92.3743 1336.0644,-92.3743 1336.0644,-100.8742 1336.0644,-100.8742 1336.0644,-105.1241 1331.8144,-109.374 1327.5645,-109.374"/>
<text text-anchor="middle" x="1231.1533" y="-93.2485" font-family="Arial" font-size="15.00" fill="#cfffac">../src/useCase/useMe/type.ts</text>
</g>
<!-- ../src/presenter/components/domain/Me/ComponentSelector.tsx&#45;&gt;../src/useCase/useMe/type.ts -->
<g id="edge11" class="edge">
<title>../src/presenter/components/domain/Me/ComponentSelector.tsx&#45;&gt;../src/useCase/useMe/type.ts</title>
<path fill="none" stroke="#757575" d="M503.6336,-124.9794C543.6483,-121.4881 587.8008,-118.0084 628.3994,-115.6243 798.0426,-105.662 994.872,-100.6946 1116.2181,-98.393"/>
<polygon fill="#757575" stroke="#757575" points="1116.338,-101.8915 1126.2708,-98.2052 1116.2072,-94.8927 1116.338,-101.8915"/>
</g>
<!-- ../src/presenter/components/domain/Me/Content.tsx&#45;&gt;../src/useCase/useMe/type.ts -->
<g id="edge12" class="edge">
<title>../src/presenter/components/domain/Me/Content.tsx&#45;&gt;../src/useCase/useMe/type.ts</title>
<path fill="none" stroke="#757575" d="M943.4153,-124.9884C998.5772,-119.5507 1062.5657,-113.243 1116.1738,-107.9585"/>
<polygon fill="#757575" stroke="#757575" points="1116.7958,-111.4142 1126.4042,-106.95 1116.1091,-104.448 1116.7958,-111.4142"/>
</g>
<!-- ../src/presenter/components/domain/Me/Me.tsx -->
<g id="node15" class="node">
<title>../src/presenter/components/domain/Me/Me.tsx</title>
<path fill="none" stroke="#c6c5fe" d="M970.8585,-25.374C970.8585,-25.374 659.6039,-25.374 659.6039,-25.374 655.354,-25.374 651.104,-21.1241 651.104,-16.8742 651.104,-16.8742 651.104,-8.3743 651.104,-8.3743 651.104,-4.1244 655.354,.1255 659.6039,.1255 659.6039,.1255 970.8585,.1255 970.8585,.1255 975.1084,.1255 979.3584,-4.1244 979.3584,-8.3743 979.3584,-8.3743 979.3584,-16.8742 979.3584,-16.8742 979.3584,-21.1241 975.1084,-25.374 970.8585,-25.374"/>
<text text-anchor="middle" x="815.2312" y="-9.2485" font-family="Arial" font-size="15.00" fill="#c6c5fe">../src/presenter/components/domain/Me/Me.tsx</text>
</g>
<!-- ../src/presenter/components/domain/Me/Placeholder.tsx -->
<g id="node16" class="node">
<title>../src/presenter/components/domain/Me/Placeholder.tsx</title>
<path fill="none" stroke="#cfffac" d="M1415.8342,-25.374C1415.8342,-25.374 1046.4725,-25.374 1046.4725,-25.374 1042.2225,-25.374 1037.9726,-21.1241 1037.9726,-16.8742 1037.9726,-16.8742 1037.9726,-8.3743 1037.9726,-8.3743 1037.9726,-4.1244 1042.2225,.1255 1046.4725,.1255 1046.4725,.1255 1415.8342,.1255 1415.8342,.1255 1420.0841,.1255 1424.334,-4.1244 1424.334,-8.3743 1424.334,-8.3743 1424.334,-16.8742 1424.334,-16.8742 1424.334,-21.1241 1420.0841,-25.374 1415.8342,-25.374"/>
<text text-anchor="middle" x="1231.1533" y="-9.2485" font-family="Arial" font-size="15.00" fill="#cfffac">../src/presenter/components/domain/Me/Placeholder.tsx</text>
</g>
<!-- ../src/presenter/components/domain/Me/Me.tsx&#45;&gt;../src/presenter/components/domain/Me/Placeholder.tsx -->
<g id="edge13" class="edge">
<title>../src/presenter/components/domain/Me/Me.tsx&#45;&gt;../src/presenter/components/domain/Me/Placeholder.tsx</title>
<path fill="none" stroke="#757575" d="M979.6146,-12.6243C995.5039,-12.6243 1011.7485,-12.6243 1027.9545,-12.6243"/>
<polygon fill="#757575" stroke="#757575" points="1028.0366,-16.1244 1038.0365,-12.6243 1028.0365,-9.1244 1028.0366,-16.1244"/>
</g>
<!-- ../src/presenter/components/domain/Me/index.ts -->
<g id="node17" class="node">
<title>../src/presenter/components/domain/Me/index.ts</title>
<path fill="none" stroke="#c6c5fe" d="M532.2797,-44.374C532.2797,-44.374 212.9815,-44.374 212.9815,-44.374 208.7316,-44.374 204.4817,-40.1241 204.4817,-35.8742 204.4817,-35.8742 204.4817,-27.3743 204.4817,-27.3743 204.4817,-23.1244 208.7316,-18.8745 212.9815,-18.8745 212.9815,-18.8745 532.2797,-18.8745 532.2797,-18.8745 536.5297,-18.8745 540.7796,-23.1244 540.7796,-27.3743 540.7796,-27.3743 540.7796,-35.8742 540.7796,-35.8742 540.7796,-40.1241 536.5297,-44.374 532.2797,-44.374"/>
<text text-anchor="middle" x="372.6306" y="-28.2485" font-family="Arial" font-size="15.00" fill="#c6c5fe">../src/presenter/components/domain/Me/index.ts</text>
</g>
<!-- ../src/presenter/components/domain/Me/index.ts&#45;&gt;../src/presenter/components/domain/Me/Me.tsx -->
<g id="edge14" class="edge">
<title>../src/presenter/components/domain/Me/index.ts&#45;&gt;../src/presenter/components/domain/Me/Me.tsx</title>
<path fill="none" stroke="#757575" d="M540.9057,-24.4005C573.578,-22.998 607.8887,-21.5251 640.7554,-20.1142"/>
<polygon fill="#757575" stroke="#757575" points="641.0649,-23.6042 650.9056,-19.6785 640.7647,-16.6107 641.0649,-23.6042"/>
</g>
<!-- ../src/presenter/containers/ErrorBoundary.tsx -->
<g id="node18" class="node">
<title>../src/presenter/containers/ErrorBoundary.tsx</title>
<path fill="none" stroke="#cfffac" d="M520.9723,-322.374C520.9723,-322.374 224.289,-322.374 224.289,-322.374 220.039,-322.374 215.7891,-318.1241 215.7891,-313.8742 215.7891,-313.8742 215.7891,-305.3743 215.7891,-305.3743 215.7891,-301.1244 220.039,-296.8745 224.289,-296.8745 224.289,-296.8745 520.9723,-296.8745 520.9723,-296.8745 525.2222,-296.8745 529.4721,-301.1244 529.4721,-305.3743 529.4721,-305.3743 529.4721,-313.8742 529.4721,-313.8742 529.4721,-318.1241 525.2222,-322.374 520.9723,-322.374"/>
<text text-anchor="middle" x="372.6306" y="-306.2485" font-family="Arial" font-size="15.00" fill="#cfffac">../src/presenter/containers/ErrorBoundary.tsx</text>
</g>
<!-- ../src/useCase/useMe/index.ts -->
<g id="node19" class="node">
<title>../src/useCase/useMe/index.ts</title>
<path fill="none" stroke="#c6c5fe" d="M472.5488,-87.374C472.5488,-87.374 272.7125,-87.374 272.7125,-87.374 268.4626,-87.374 264.2126,-83.1241 264.2126,-78.8742 264.2126,-78.8742 264.2126,-70.3743 264.2126,-70.3743 264.2126,-66.1244 268.4626,-61.8745 272.7125,-61.8745 272.7125,-61.8745 472.5488,-61.8745 472.5488,-61.8745 476.7987,-61.8745 481.0486,-66.1244 481.0486,-70.3743 481.0486,-70.3743 481.0486,-78.8742 481.0486,-78.8742 481.0486,-83.1241 476.7987,-87.374 472.5488,-87.374"/>
<text text-anchor="middle" x="372.6306" y="-71.2485" font-family="Arial" font-size="15.00" fill="#c6c5fe">../src/useCase/useMe/index.ts</text>
</g>
<!-- ../src/useCase/useMe/useMe.ts -->
<g id="node20" class="node">
<title>../src/useCase/useMe/useMe.ts</title>
<path fill="none" stroke="#c6c5fe" d="M919.8119,-68.374C919.8119,-68.374 710.6505,-68.374 710.6505,-68.374 706.4005,-68.374 702.1506,-64.1241 702.1506,-59.8742 702.1506,-59.8742 702.1506,-51.3743 702.1506,-51.3743 702.1506,-47.1244 706.4005,-42.8745 710.6505,-42.8745 710.6505,-42.8745 919.8119,-42.8745 919.8119,-42.8745 924.0619,-42.8745 928.3118,-47.1244 928.3118,-51.3743 928.3118,-51.3743 928.3118,-59.8742 928.3118,-59.8742 928.3118,-64.1241 924.0619,-68.374 919.8119,-68.374"/>
<text text-anchor="middle" x="815.2312" y="-52.2485" font-family="Arial" font-size="15.00" fill="#c6c5fe">../src/useCase/useMe/useMe.ts</text>
</g>
<!-- ../src/useCase/useMe/index.ts&#45;&gt;../src/useCase/useMe/useMe.ts -->
<g id="edge15" class="edge">
<title>../src/useCase/useMe/index.ts&#45;&gt;../src/useCase/useMe/useMe.ts</title>
<path fill="none" stroke="#757575" d="M481.1862,-69.9642C544.968,-67.2262 625.7986,-63.7562 691.9711,-60.9156"/>
<polygon fill="#757575" stroke="#757575" points="692.2011,-64.409 702.0417,-60.4833 691.9008,-57.4155 692.2011,-64.409"/>
</g>
<!-- ../src/useCase/useMe/useMe.ts&#45;&gt;../src/useCase/useMe/type.ts -->
<g id="edge16" class="edge">
<title>../src/useCase/useMe/useMe.ts&#45;&gt;../src/useCase/useMe/type.ts</title>
<path fill="none" stroke="#757575" d="M928.3344,-66.7735C986.6617,-72.5232 1057.6593,-79.5219 1116.2448,-85.297"/>
<polygon fill="#757575" stroke="#757575" points="1115.9879,-88.7886 1126.2831,-86.2866 1116.6747,-81.8223 1115.9879,-88.7886"/>
</g>
<!-- _app.tsx -->
<g id="node21" class="node">
<title>_app.tsx</title>
<path fill="none" stroke="#c6c5fe" d="M86.1358,-322.374C86.1358,-322.374 30.7261,-322.374 30.7261,-322.374 26.4761,-322.374 22.2262,-318.1241 22.2262,-313.8742 22.2262,-313.8742 22.2262,-305.3743 22.2262,-305.3743 22.2262,-301.1244 26.4761,-296.8745 30.7261,-296.8745 30.7261,-296.8745 86.1358,-296.8745 86.1358,-296.8745 90.3857,-296.8745 94.6356,-301.1244 94.6356,-305.3743 94.6356,-305.3743 94.6356,-313.8742 94.6356,-313.8742 94.6356,-318.1241 90.3857,-322.374 86.1358,-322.374"/>
<text text-anchor="middle" x="58.4309" y="-306.2485" font-family="Arial" font-size="15.00" fill="#c6c5fe">_app.tsx</text>
</g>
<!-- _app.tsx&#45;&gt;../src/presenter/containers/ErrorBoundary.tsx -->
<g id="edge17" class="edge">
<title>_app.tsx&#45;&gt;../src/presenter/containers/ErrorBoundary.tsx</title>
<path fill="none" stroke="#757575" d="M94.7806,-309.6243C122.8208,-309.6243 163.7847,-309.6243 205.6862,-309.6243"/>
<polygon fill="#757575" stroke="#757575" points="205.7758,-313.1244 215.7757,-309.6243 205.7757,-306.1244 205.7758,-313.1244"/>
</g>
<!-- api/mock/me.ts -->
<g id="node22" class="node">
<title>api/mock/me.ts</title>
<path fill="none" stroke="#cfffac" d="M108.293,-365.374C108.293,-365.374 8.5689,-365.374 8.5689,-365.374 4.3189,-365.374 .069,-361.1241 .069,-356.8742 .069,-356.8742 .069,-348.3743 .069,-348.3743 .069,-344.1244 4.3189,-339.8745 8.5689,-339.8745 8.5689,-339.8745 108.293,-339.8745 108.293,-339.8745 112.5429,-339.8745 116.7928,-344.1244 116.7928,-348.3743 116.7928,-348.3743 116.7928,-356.8742 116.7928,-356.8742 116.7928,-361.1241 112.5429,-365.374 108.293,-365.374"/>
<text text-anchor="middle" x="58.4309" y="-349.2485" font-family="Arial" font-size="15.00" fill="#cfffac">api/mock/me.ts</text>
</g>
<!-- index.tsx -->
<g id="node23" class="node">
<title>index.tsx</title>
<path fill="none" stroke="#cfffac" d="M87.6256,-408.374C87.6256,-408.374 29.2362,-408.374 29.2362,-408.374 24.9862,-408.374 20.7363,-404.1241 20.7363,-399.8742 20.7363,-399.8742 20.7363,-391.3743 20.7363,-391.3743 20.7363,-387.1244 24.9862,-382.8745 29.2362,-382.8745 29.2362,-382.8745 87.6256,-382.8745 87.6256,-382.8745 91.8756,-382.8745 96.1255,-387.1244 96.1255,-391.3743 96.1255,-391.3743 96.1255,-399.8742 96.1255,-399.8742 96.1255,-404.1241 91.8756,-408.374 87.6256,-408.374"/>
<text text-anchor="middle" x="58.4309" y="-392.2485" font-family="Arial" font-size="15.00" fill="#cfffac">index.tsx</text>
</g>
<!-- me.tsx -->
<g id="node24" class="node">
<title>me.tsx</title>
<path fill="none" stroke="#c6c5fe" d="M80.1037,-150.374C80.1037,-150.374 36.7581,-150.374 36.7581,-150.374 32.5082,-150.374 28.2583,-146.1241 28.2583,-141.8742 28.2583,-141.8742 28.2583,-133.3743 28.2583,-133.3743 28.2583,-129.1244 32.5082,-124.8745 36.7581,-124.8745 36.7581,-124.8745 80.1037,-124.8745 80.1037,-124.8745 84.3536,-124.8745 88.6035,-129.1244 88.6035,-133.3743 88.6035,-133.3743 88.6035,-141.8742 88.6035,-141.8742 88.6035,-146.1241 84.3536,-150.374 80.1037,-150.374"/>
<text text-anchor="middle" x="58.4309" y="-134.2485" font-family="Arial" font-size="15.00" fill="#c6c5fe">me.tsx</text>
</g>
<!-- me.tsx&#45;&gt;../src/domain/me/index.ts -->
<g id="edge18" class="edge">
<title>me.tsx&#45;&gt;../src/domain/me/index.ts</title>
<path fill="none" stroke="#757575" d="M68.2002,-150.3357C83.83,-169.7003 116.4301,-206.2715 152.8618,-224.6243 189.166,-242.9127 232.5133,-253.2675 271.0789,-259.1189"/>
<polygon fill="#757575" stroke="#757575" points="270.8995,-262.6288 281.2947,-260.5821 271.892,-255.6995 270.8995,-262.6288"/>
</g>
<!-- me.tsx&#45;&gt;../src/gateway/me/index.ts -->
<g id="edge19" class="edge">
<title>me.tsx&#45;&gt;../src/gateway/me/index.ts</title>
<path fill="none" stroke="#757575" d="M88.5642,-144.9334C107.0776,-149.3521 131.2995,-155.0046 152.8618,-159.6243 199.8454,-169.6903 252.6865,-180.0593 294.7785,-188.0925"/>
<polygon fill="#757575" stroke="#757575" points="294.2081,-191.5467 304.6861,-189.9782 295.5169,-184.6701 294.2081,-191.5467"/>
</g>
<!-- me.tsx&#45;&gt;../src/presenter/components/domain/Me/ComponentSelector.tsx -->
<g id="edge20" class="edge">
<title>me.tsx&#45;&gt;../src/presenter/components/domain/Me/ComponentSelector.tsx</title>
<path fill="none" stroke="#757575" d="M88.5577,-137.6243C103.0108,-137.6243 121.7465,-137.6243 142.7024,-137.6243"/>
<polygon fill="#757575" stroke="#757575" points="142.8177,-141.1244 152.8176,-137.6243 142.8176,-134.1244 142.8177,-141.1244"/>
</g>
<!-- me.tsx&#45;&gt;../src/presenter/components/domain/Me/index.ts -->
<g id="edge21" class="edge">
<title>me.tsx&#45;&gt;../src/presenter/components/domain/Me/index.ts</title>
<path fill="none" stroke="#757575" d="M68.0727,-124.7928C83.5321,-105.3217 115.9077,-68.8651 152.8618,-52.6243 166.0476,-46.8293 180.0977,-42.2831 194.4742,-38.744"/>
<polygon fill="#757575" stroke="#757575" points="195.5078,-42.0979 204.4728,-36.4518 193.9435,-35.2749 195.5078,-42.0979"/>
</g>
<!-- me.tsx&#45;&gt;../src/useCase/useMe/index.ts -->
<g id="edge22" class="edge">
<title>me.tsx&#45;&gt;../src/useCase/useMe/index.ts</title>
<path fill="none" stroke="#757575" d="M88.5498,-130.2474C107.058,-125.804 131.2794,-120.1492 152.8618,-115.6243 198.132,-106.133 248.88,-96.5933 290.1951,-89.1072"/>
<polygon fill="#757575" stroke="#757575" points="290.9949,-92.5195 300.214,-87.2986 289.7513,-85.6309 290.9949,-92.5195"/>
</g>
</g>
</svg>
