<?xml version="1.0" encoding="UTF-8" standalone="no"?>
<!DOCTYPE svg PUBLIC "-//W3C//DTD SVG 1.1//EN"
 "http://www.w3.org/Graphics/SVG/1.1/DTD/svg11.dtd">
<!-- Generated by graphviz version 2.40.1 (20161225.0304)
 -->
<!-- Title: G Pages: 1 -->
<svg width="2551pt" height="451pt"
 viewBox="0.00 0.00 2551.32 451.45" xmlns="http://www.w3.org/2000/svg" xmlns:xlink="http://www.w3.org/1999/xlink">
<g id="graph0" class="graph" transform="scale(1 1) rotate(0) translate(21.6 429.8485)">
<title>G</title>
<polygon fill="#111111" stroke="transparent" points="-21.6,21.6 -21.6,-429.8485 2529.7196,-429.8485 2529.7196,21.6 -21.6,21.6"/>
<!-- ../src/domain/me/index.ts -->
<g id="node1" class="node">
<title>../src/domain/me/index.ts</title>
<path fill="none" stroke="#c6c5fe" d="M466.6058,-279.374C466.6058,-279.374 301.1481,-279.374 301.1481,-279.374 296.8982,-279.374 292.6482,-275.1241 292.6482,-270.8742 292.6482,-270.8742 292.6482,-262.3743 292.6482,-262.3743 292.6482,-258.1244 296.8982,-253.8745 301.1481,-253.8745 301.1481,-253.8745 466.6058,-253.8745 466.6058,-253.8745 470.8557,-253.8745 475.1057,-258.1244 475.1057,-262.3743 475.1057,-262.3743 475.1057,-270.8742 475.1057,-270.8742 475.1057,-275.1241 470.8557,-279.374 466.6058,-279.374"/>
<text text-anchor="middle" x="383.877" y="-263.2485" font-family="Arial" font-size="15.00" fill="#c6c5fe">../src/domain/me/index.ts</text>
</g>
<!-- ../src/domain/me/me.ts -->
<g id="node2" class="node">
<title>../src/domain/me/me.ts</title>
<path fill="none" stroke="#cfffac" d="M924.1772,-322.374C924.1772,-322.374 773.7633,-322.374 773.7633,-322.374 769.5133,-322.374 765.2634,-318.1241 765.2634,-313.8742 765.2634,-313.8742 765.2634,-305.3743 765.2634,-305.3743 765.2634,-301.1244 769.5133,-296.8745 773.7633,-296.8745 773.7633,-296.8745 924.1772,-296.8745 924.1772,-296.8745 928.4271,-296.8745 932.677,-301.1244 932.677,-305.3743 932.677,-305.3743 932.677,-313.8742 932.677,-313.8742 932.677,-318.1241 928.4271,-322.374 924.1772,-322.374"/>
<text text-anchor="middle" x="848.9702" y="-306.2485" font-family="Arial" font-size="15.00" fill="#cfffac">../src/domain/me/me.ts</text>
</g>
<!-- ../src/domain/me/index.ts&#45;&gt;../src/domain/me/me.ts -->
<g id="edge1" class="edge">
<title>../src/domain/me/index.ts&#45;&gt;../src/domain/me/me.ts</title>
<path fill="none" stroke="#757575" d="M475.2288,-274.8637C517.6968,-278.7107 568.876,-283.3703 614.8921,-287.6243 660.9861,-291.8854 712.1785,-296.6886 754.9062,-300.7175"/>
<polygon fill="#757575" stroke="#757575" points="754.7277,-304.2161 765.0123,-301.6708 755.3852,-297.247 754.7277,-304.2161"/>
</g>
<!-- ../src/domain/me/type.ts -->
<g id="node3" class="node">
<title>../src/domain/me/type.ts</title>
<path fill="none" stroke="#cfffac" d="M928.1917,-279.374C928.1917,-279.374 769.7487,-279.374 769.7487,-279.374 765.4988,-279.374 761.2489,-275.1241 761.2489,-270.8742 761.2489,-270.8742 761.2489,-262.3743 761.2489,-262.3743 761.2489,-258.1244 765.4988,-253.8745 769.7487,-253.8745 769.7487,-253.8745 928.1917,-253.8745 928.1917,-253.8745 932.4416,-253.8745 936.6915,-258.1244 936.6915,-262.3743 936.6915,-262.3743 936.6915,-270.8742 936.6915,-270.8742 936.6915,-275.1241 932.4416,-279.374 928.1917,-279.374"/>
<text text-anchor="middle" x="848.9702" y="-263.2485" font-family="Arial" font-size="15.00" fill="#cfffac">../src/domain/me/type.ts</text>
</g>
<!-- ../src/domain/me/index.ts&#45;&gt;../src/domain/me/type.ts -->
<g id="edge2" class="edge">
<title>../src/domain/me/index.ts&#45;&gt;../src/domain/me/type.ts</title>
<path fill="none" stroke="#757575" d="M475.2095,-266.6243C554.6162,-266.6243 669.3771,-266.6243 750.7476,-266.6243"/>
<polygon fill="#757575" stroke="#757575" points="750.9996,-270.1244 760.9996,-266.6243 750.9996,-263.1244 750.9996,-270.1244"/>
</g>
<!-- ../src/externalInterface/api/http/client/client.ts -->
<g id="node4" class="node">
<title>../src/externalInterface/api/http/client/client.ts</title>
<path fill="none" stroke="#cfffac" d="M2499.6056,-258.374C2499.6056,-258.374 2204.662,-258.374 2204.662,-258.374 2200.412,-258.374 2196.1621,-254.1241 2196.1621,-249.8742 2196.1621,-249.8742 2196.1621,-241.3743 2196.1621,-241.3743 2196.1621,-237.1244 2200.412,-232.8745 2204.662,-232.8745 2204.662,-232.8745 2499.6056,-232.8745 2499.6056,-232.8745 2503.8555,-232.8745 2508.1055,-237.1244 2508.1055,-241.3743 2508.1055,-241.3743 2508.1055,-249.8742 2508.1055,-249.8742 2508.1055,-254.1241 2503.8555,-258.374 2499.6056,-258.374"/>
<text text-anchor="middle" x="2352.1338" y="-242.2485" font-family="Arial" font-size="15.00" fill="#cfffac">../src/externalInterface/api/http/client/client.ts</text>
</g>
<!-- ../src/externalInterface/api/http/client/index.ts -->
<g id="node5" class="node">
<title>../src/externalInterface/api/http/client/index.ts</title>
<path fill="none" stroke="#c6c5fe" d="M2151.5551,-258.374C2151.5551,-258.374 1855.9268,-258.374 1855.9268,-258.374 1851.6769,-258.374 1847.4269,-254.1241 1847.4269,-249.8742 1847.4269,-249.8742 1847.4269,-241.3743 1847.4269,-241.3743 1847.4269,-237.1244 1851.6769,-232.8745 1855.9268,-232.8745 1855.9268,-232.8745 2151.5551,-232.8745 2151.5551,-232.8745 2155.8051,-232.8745 2160.055,-237.1244 2160.055,-241.3743 2160.055,-241.3743 2160.055,-249.8742 2160.055,-249.8742 2160.055,-254.1241 2155.8051,-258.374 2151.5551,-258.374"/>
<text text-anchor="middle" x="2003.741" y="-242.2485" font-family="Arial" font-size="15.00" fill="#c6c5fe">../src/externalInterface/api/http/client/index.ts</text>
</g>
<!-- ../src/externalInterface/api/http/client/index.ts&#45;&gt;../src/externalInterface/api/http/client/client.ts -->
<g id="edge3" class="edge">
<title>../src/externalInterface/api/http/client/index.ts&#45;&gt;../src/externalInterface/api/http/client/client.ts</title>
<path fill="none" stroke="#757575" d="M2160.1033,-245.6243C2168.6844,-245.6243 2177.3238,-245.6243 2185.9372,-245.6243"/>
<polygon fill="#757575" stroke="#757575" points="2186.0314,-249.1244 2196.0314,-245.6243 2186.0314,-242.1244 2186.0314,-249.1244"/>
</g>
<!-- ../src/externalInterface/api/http/client/util.ts -->
<g id="node6" class="node">
<title>../src/externalInterface/api/http/client/util.ts</title>
<path fill="none" stroke="#cfffac" d="M2143.3705,-215.374C2143.3705,-215.374 1864.1114,-215.374 1864.1114,-215.374 1859.8615,-215.374 1855.6115,-211.1241 1855.6115,-206.8742 1855.6115,-206.8742 1855.6115,-198.3743 1855.6115,-198.3743 1855.6115,-194.1244 1859.8615,-189.8745 1864.1114,-189.8745 1864.1114,-189.8745 2143.3705,-189.8745 2143.3705,-189.8745 2147.6205,-189.8745 2151.8704,-194.1244 2151.8704,-198.3743 2151.8704,-198.3743 2151.8704,-206.8742 2151.8704,-206.8742 2151.8704,-211.1241 2147.6205,-215.374 2143.3705,-215.374"/>
<text text-anchor="middle" x="2003.741" y="-199.2485" font-family="Arial" font-size="15.00" fill="#cfffac">../src/externalInterface/api/http/client/util.ts</text>
</g>
<!-- ../src/externalInterface/api/http/me/index.ts -->
<g id="node7" class="node">
<title>../src/externalInterface/api/http/me/index.ts</title>
<path fill="none" stroke="#c6c5fe" d="M1428.0197,-236.374C1428.0197,-236.374 1146.7504,-236.374 1146.7504,-236.374 1142.5004,-236.374 1138.2505,-232.1241 1138.2505,-227.8742 1138.2505,-227.8742 1138.2505,-219.3743 1138.2505,-219.3743 1138.2505,-215.1244 1142.5004,-210.8745 1146.7504,-210.8745 1146.7504,-210.8745 1428.0197,-210.8745 1428.0197,-210.8745 1432.2696,-210.8745 1436.5195,-215.1244 1436.5195,-219.3743 1436.5195,-219.3743 1436.5195,-227.8742 1436.5195,-227.8742 1436.5195,-232.1241 1432.2696,-236.374 1428.0197,-236.374"/>
<text text-anchor="middle" x="1287.385" y="-220.2485" font-family="Arial" font-size="15.00" fill="#c6c5fe">../src/externalInterface/api/http/me/index.ts</text>
</g>
<!-- ../src/externalInterface/api/http/me/me.ts -->
<g id="node8" class="node">
<title>../src/externalInterface/api/http/me/me.ts</title>
<path fill="none" stroke="#c6c5fe" d="M1802.6406,-236.374C1802.6406,-236.374 1536.4151,-236.374 1536.4151,-236.374 1532.1652,-236.374 1527.9153,-232.1241 1527.9153,-227.8742 1527.9153,-227.8742 1527.9153,-219.3743 1527.9153,-219.3743 1527.9153,-215.1244 1532.1652,-210.8745 1536.4151,-210.8745 1536.4151,-210.8745 1802.6406,-210.8745 1802.6406,-210.8745 1806.8905,-210.8745 1811.1404,-215.1244 1811.1404,-219.3743 1811.1404,-219.3743 1811.1404,-227.8742 1811.1404,-227.8742 1811.1404,-232.1241 1806.8905,-236.374 1802.6406,-236.374"/>
<text text-anchor="middle" x="1669.5278" y="-220.2485" font-family="Arial" font-size="15.00" fill="#c6c5fe">../src/externalInterface/api/http/me/me.ts</text>
</g>
<!-- ../src/externalInterface/api/http/me/index.ts&#45;&gt;../src/externalInterface/api/http/me/me.ts -->
<g id="edge4" class="edge">
<title>../src/externalInterface/api/http/me/index.ts&#45;&gt;../src/externalInterface/api/http/me/me.ts</title>
<path fill="none" stroke="#757575" d="M1436.7732,-223.6243C1463.3172,-223.6243 1490.9894,-223.6243 1517.6029,-223.6243"/>
<polygon fill="#757575" stroke="#757575" points="1517.7464,-227.1244 1527.7464,-223.6243 1517.7463,-220.1244 1517.7464,-227.1244"/>
</g>
<!-- ../src/externalInterface/api/http/me/me.ts&#45;&gt;../src/externalInterface/api/http/client/index.ts -->
<g id="edge5" class="edge">
<title>../src/externalInterface/api/http/me/me.ts&#45;&gt;../src/externalInterface/api/http/client/index.ts</title>
<path fill="none" stroke="#757575" d="M1811.2643,-232.9542C1819.8318,-233.5182 1828.4903,-234.0882 1837.147,-234.658"/>
<polygon fill="#757575" stroke="#757575" points="1837.0945,-238.162 1847.3029,-235.3265 1837.5544,-231.1772 1837.0945,-238.162"/>
</g>
<!-- ../src/externalInterface/api/http/me/me.ts&#45;&gt;../src/externalInterface/api/http/client/util.ts -->
<g id="edge6" class="edge">
<title>../src/externalInterface/api/http/me/me.ts&#45;&gt;../src/externalInterface/api/http/client/util.ts</title>
<path fill="none" stroke="#757575" d="M1811.2643,-214.7184C1822.6165,-214.0051 1834.1286,-213.2817 1845.5844,-212.5619"/>
<polygon fill="#757575" stroke="#757575" points="1845.871,-216.0509 1855.6318,-211.9306 1845.4319,-209.0647 1845.871,-216.0509"/>
</g>
<!-- ../src/gateway/me/index.ts -->
<g id="node9" class="node">
<title>../src/gateway/me/index.ts</title>
<path fill="none" stroke="#c6c5fe" d="M470.2784,-215.374C470.2784,-215.374 297.4755,-215.374 297.4755,-215.374 293.2256,-215.374 288.9756,-211.1241 288.9756,-206.8742 288.9756,-206.8742 288.9756,-198.3743 288.9756,-198.3743 288.9756,-194.1244 293.2256,-189.8745 297.4755,-189.8745 297.4755,-189.8745 470.2784,-189.8745 470.2784,-189.8745 474.5283,-189.8745 478.7783,-194.1244 478.7783,-198.3743 478.7783,-198.3743 478.7783,-206.8742 478.7783,-206.8742 478.7783,-211.1241 474.5283,-215.374 470.2784,-215.374"/>
<text text-anchor="middle" x="383.877" y="-199.2485" font-family="Arial" font-size="15.00" fill="#c6c5fe">../src/gateway/me/index.ts</text>
</g>
<!-- ../src/gateway/me/me.ts -->
<g id="node10" class="node">
<title>../src/gateway/me/me.ts</title>
<path fill="none" stroke="#c6c5fe" d="M927.8497,-236.374C927.8497,-236.374 770.0907,-236.374 770.0907,-236.374 765.8408,-236.374 761.5909,-232.1241 761.5909,-227.8742 761.5909,-227.8742 761.5909,-219.3743 761.5909,-219.3743 761.5909,-215.1244 765.8408,-210.8745 770.0907,-210.8745 770.0907,-210.8745 927.8497,-210.8745 927.8497,-210.8745 932.0996,-210.8745 936.3495,-215.1244 936.3495,-219.3743 936.3495,-219.3743 936.3495,-227.8742 936.3495,-227.8742 936.3495,-232.1241 932.0996,-236.374 927.8497,-236.374"/>
<text text-anchor="middle" x="848.9702" y="-220.2485" font-family="Arial" font-size="15.00" fill="#c6c5fe">../src/gateway/me/me.ts</text>
</g>
<!-- ../src/gateway/me/index.ts&#45;&gt;../src/gateway/me/me.ts -->
<g id="edge7" class="edge">
<title>../src/gateway/me/index.ts&#45;&gt;../src/gateway/me/me.ts</title>
<path fill="none" stroke="#757575" d="M478.8368,-206.9119C558.329,-210.5012 671.3148,-215.6027 751.5014,-219.2233"/>
<polygon fill="#757575" stroke="#757575" points="751.4572,-222.7248 761.6049,-219.6795 751.773,-215.7319 751.4572,-222.7248"/>
</g>
<!-- ../src/gateway/me/me.ts&#45;&gt;../src/externalInterface/api/http/me/index.ts -->
<g id="edge8" class="edge">
<title>../src/gateway/me/me.ts&#45;&gt;../src/externalInterface/api/http/me/index.ts</title>
<path fill="none" stroke="#757575" d="M936.3735,-223.6243C991.0287,-223.6243 1063.0715,-223.6243 1127.6606,-223.6243"/>
<polygon fill="#757575" stroke="#757575" points="1127.9589,-227.1244 1137.9589,-223.6243 1127.9589,-220.1244 1127.9589,-227.1244"/>
</g>
<!-- ../src/presenter/components/ecosystem/Me/ComponentSelector.tsx -->
<g id="node11" class="node">
<title>../src/presenter/components/ecosystem/Me/ComponentSelector.tsx</title>
<path fill="none" stroke="#c6c5fe" d="M606.4074,-150.374C606.4074,-150.374 161.3465,-150.374 161.3465,-150.374 157.0966,-150.374 152.8467,-146.1241 152.8467,-141.8742 152.8467,-141.8742 152.8467,-133.3743 152.8467,-133.3743 152.8467,-129.1244 157.0966,-124.8745 161.3465,-124.8745 161.3465,-124.8745 606.4074,-124.8745 606.4074,-124.8745 610.6573,-124.8745 614.9072,-129.1244 614.9072,-133.3743 614.9072,-133.3743 614.9072,-141.8742 614.9072,-141.8742 614.9072,-146.1241 610.6573,-150.374 606.4074,-150.374"/>
<text text-anchor="middle" x="383.877" y="-134.2485" font-family="Arial" font-size="15.00" fill="#c6c5fe">../src/presenter/components/ecosystem/Me/ComponentSelector.tsx</text>
</g>
<!-- ../src/presenter/components/ecosystem/Me/Content.tsx -->
<g id="node12" class="node">
<title>../src/presenter/components/ecosystem/Me/Content.tsx</title>
<path fill="none" stroke="#c6c5fe" d="M1031.7893,-150.374C1031.7893,-150.374 666.1512,-150.374 666.1512,-150.374 661.9012,-150.374 657.6513,-146.1241 657.6513,-141.8742 657.6513,-141.8742 657.6513,-133.3743 657.6513,-133.3743 657.6513,-129.1244 661.9012,-124.8745 666.1512,-124.8745 666.1512,-124.8745 1031.7893,-124.8745 1031.7893,-124.8745 1036.0392,-124.8745 1040.2891,-129.1244 1040.2891,-133.3743 1040.2891,-133.3743 1040.2891,-141.8742 1040.2891,-141.8742 1040.2891,-146.1241 1036.0392,-150.374 1031.7893,-150.374"/>
<text text-anchor="middle" x="848.9702" y="-134.2485" font-family="Arial" font-size="15.00" fill="#c6c5fe">../src/presenter/components/ecosystem/Me/Content.tsx</text>
</g>
<!-- ../src/presenter/components/ecosystem/Me/ComponentSelector.tsx&#45;&gt;../src/presenter/components/ecosystem/Me/Content.tsx -->
<g id="edge9" class="edge">
<title>../src/presenter/components/ecosystem/Me/ComponentSelector.tsx&#45;&gt;../src/presenter/components/ecosystem/Me/Content.tsx</title>
<path fill="none" stroke="#757575" d="M615.061,-137.6243C625.8589,-137.6243 636.6607,-137.6243 647.3733,-137.6243"/>
<polygon fill="#757575" stroke="#757575" points="647.6138,-141.1244 657.6137,-137.6243 647.6137,-134.1244 647.6138,-141.1244"/>
</g>
<!-- ../src/presenter/components/ecosystem/Me/Exception.tsx -->
<g id="node13" class="node">
<title>../src/presenter/components/ecosystem/Me/Exception.tsx</title>
<path fill="none" stroke="#cfffac" d="M1038.6266,-193.374C1038.6266,-193.374 659.3138,-193.374 659.3138,-193.374 655.0639,-193.374 650.8139,-189.1241 650.8139,-184.8742 650.8139,-184.8742 650.8139,-176.3743 650.8139,-176.3743 650.8139,-172.1244 655.0639,-167.8745 659.3138,-167.8745 659.3138,-167.8745 1038.6266,-167.8745 1038.6266,-167.8745 1042.8766,-167.8745 1047.1265,-172.1244 1047.1265,-176.3743 1047.1265,-176.3743 1047.1265,-184.8742 1047.1265,-184.8742 1047.1265,-189.1241 1042.8766,-193.374 1038.6266,-193.374"/>
<text text-anchor="middle" x="848.9702" y="-177.2485" font-family="Arial" font-size="15.00" fill="#cfffac">../src/presenter/components/ecosystem/Me/Exception.tsx</text>
</g>
<!-- ../src/presenter/components/ecosystem/Me/ComponentSelector.tsx&#45;&gt;../src/presenter/components/ecosystem/Me/Exception.tsx -->
<g id="edge10" class="edge">
<title>../src/presenter/components/ecosystem/Me/ComponentSelector.tsx&#45;&gt;../src/presenter/components/ecosystem/Me/Exception.tsx</title>
<path fill="none" stroke="#757575" d="M520.5911,-150.2641C577.7191,-155.5459 644.1993,-161.6923 702.3415,-167.0678"/>
<polygon fill="#757575" stroke="#757575" points="702.0653,-170.5571 712.3451,-167.9927 702.7098,-163.5868 702.0653,-170.5571"/>
</g>
<!-- ../src/useCase/useMe/type.ts -->
<g id="node14" class="node">
<title>../src/useCase/useMe/type.ts</title>
<path fill="none" stroke="#cfffac" d="M1383.7962,-109.374C1383.7962,-109.374 1190.9738,-109.374 1190.9738,-109.374 1186.7239,-109.374 1182.474,-105.1241 1182.474,-100.8742 1182.474,-100.8742 1182.474,-92.3743 1182.474,-92.3743 1182.474,-88.1244 1186.7239,-83.8745 1190.9738,-83.8745 1190.9738,-83.8745 1383.7962,-83.8745 1383.7962,-83.8745 1388.0461,-83.8745 1392.2961,-88.1244 1392.2961,-92.3743 1392.2961,-92.3743 1392.2961,-100.8742 1392.2961,-100.8742 1392.2961,-105.1241 1388.0461,-109.374 1383.7962,-109.374"/>
<text text-anchor="middle" x="1287.385" y="-93.2485" font-family="Arial" font-size="15.00" fill="#cfffac">../src/useCase/useMe/type.ts</text>
</g>
<!-- ../src/presenter/components/ecosystem/Me/ComponentSelector.tsx&#45;&gt;../src/useCase/useMe/type.ts -->
<g id="edge11" class="edge">
<title>../src/presenter/components/ecosystem/Me/ComponentSelector.tsx&#45;&gt;../src/useCase/useMe/type.ts</title>
<path fill="none" stroke="#757575" d="M520.305,-124.9988C562.1701,-121.4975 608.3987,-118.0074 650.8921,-115.6243 833.0498,-105.4083 1044.8619,-100.4679 1172.3946,-98.2467"/>
<polygon fill="#757575" stroke="#757575" points="1172.6297,-101.7433 1182.5681,-98.0722 1172.5095,-94.7443 1172.6297,-101.7433"/>
</g>
<!-- ../src/presenter/components/ecosystem/Me/Content.tsx&#45;&gt;../src/useCase/useMe/type.ts -->
<g id="edge12" class="edge">
<title>../src/presenter/components/ecosystem/Me/Content.tsx&#45;&gt;../src/useCase/useMe/type.ts</title>
<path fill="none" stroke="#757575" d="M984.0864,-124.9884C1044.372,-119.3505 1114.659,-112.7774 1172.3826,-107.3791"/>
<polygon fill="#757575" stroke="#757575" points="1173.0087,-110.836 1182.6393,-106.42 1172.3568,-103.8664 1173.0087,-110.836"/>
</g>
<!-- ../src/presenter/components/ecosystem/Me/Me.tsx -->
<g id="node15" class="node">
<title>../src/presenter/components/ecosystem/Me/Me.tsx</title>
<path fill="none" stroke="#c6c5fe" d="M1016.09,-25.374C1016.09,-25.374 681.8504,-25.374 681.8504,-25.374 677.6005,-25.374 673.3506,-21.1241 673.3506,-16.8742 673.3506,-16.8742 673.3506,-8.3743 673.3506,-8.3743 673.3506,-4.1244 677.6005,.1255 681.8504,.1255 681.8504,.1255 1016.09,.1255 1016.09,.1255 1020.3399,.1255 1024.5899,-4.1244 1024.5899,-8.3743 1024.5899,-8.3743 1024.5899,-16.8742 1024.5899,-16.8742 1024.5899,-21.1241 1020.3399,-25.374 1016.09,-25.374"/>
<text text-anchor="middle" x="848.9702" y="-9.2485" font-family="Arial" font-size="15.00" fill="#c6c5fe">../src/presenter/components/ecosystem/Me/Me.tsx</text>
</g>
<!-- ../src/presenter/components/ecosystem/Me/Placeholder.tsx -->
<g id="node16" class="node">
<title>../src/presenter/components/ecosystem/Me/Placeholder.tsx</title>
<path fill="none" stroke="#cfffac" d="M1483.0586,-25.374C1483.0586,-25.374 1091.7114,-25.374 1091.7114,-25.374 1087.4615,-25.374 1083.2115,-21.1241 1083.2115,-16.8742 1083.2115,-16.8742 1083.2115,-8.3743 1083.2115,-8.3743 1083.2115,-4.1244 1087.4615,.1255 1091.7114,.1255 1091.7114,.1255 1483.0586,.1255 1483.0586,.1255 1487.3086,.1255 1491.5585,-4.1244 1491.5585,-8.3743 1491.5585,-8.3743 1491.5585,-16.8742 1491.5585,-16.8742 1491.5585,-21.1241 1487.3086,-25.374 1483.0586,-25.374"/>
<text text-anchor="middle" x="1287.385" y="-9.2485" font-family="Arial" font-size="15.00" fill="#cfffac">../src/presenter/components/ecosystem/Me/Placeholder.tsx</text>
</g>
<!-- ../src/presenter/components/ecosystem/Me/Me.tsx&#45;&gt;../src/presenter/components/ecosystem/Me/Placeholder.tsx -->
<g id="edge13" class="edge">
<title>../src/presenter/components/ecosystem/Me/Me.tsx&#45;&gt;../src/presenter/components/ecosystem/Me/Placeholder.tsx</title>
<path fill="none" stroke="#757575" d="M1024.7642,-12.6243C1040.6451,-12.6243 1056.8427,-12.6243 1073.0053,-12.6243"/>
<polygon fill="#757575" stroke="#757575" points="1073.0612,-16.1244 1083.0612,-12.6243 1073.0611,-9.1244 1073.0612,-16.1244"/>
</g>
<!-- ../src/presenter/components/ecosystem/Me/index.ts -->
<g id="node17" class="node">
<title>../src/presenter/components/ecosystem/Me/index.ts</title>
<path fill="none" stroke="#c6c5fe" d="M554.5189,-44.374C554.5189,-44.374 213.235,-44.374 213.235,-44.374 208.9851,-44.374 204.7352,-40.1241 204.7352,-35.8742 204.7352,-35.8742 204.7352,-27.3743 204.7352,-27.3743 204.7352,-23.1244 208.9851,-18.8745 213.235,-18.8745 213.235,-18.8745 554.5189,-18.8745 554.5189,-18.8745 558.7688,-18.8745 563.0187,-23.1244 563.0187,-27.3743 563.0187,-27.3743 563.0187,-35.8742 563.0187,-35.8742 563.0187,-40.1241 558.7688,-44.374 554.5189,-44.374"/>
<text text-anchor="middle" x="383.877" y="-28.2485" font-family="Arial" font-size="15.00" fill="#c6c5fe">../src/presenter/components/ecosystem/Me/index.ts</text>
</g>
<!-- ../src/presenter/components/ecosystem/Me/index.ts&#45;&gt;../src/presenter/components/ecosystem/Me/Me.tsx -->
<g id="edge14" class="edge">
<title>../src/presenter/components/ecosystem/Me/index.ts&#45;&gt;../src/presenter/components/ecosystem/Me/Me.tsx</title>
<path fill="none" stroke="#757575" d="M563.0289,-24.3055C595.8435,-22.965 630.1576,-21.5632 663.1617,-20.2149"/>
<polygon fill="#757575" stroke="#757575" points="663.5104,-23.7037 673.3591,-19.7983 663.2246,-16.7095 663.5104,-23.7037"/>
</g>
<!-- ../src/presenter/containers/ErrorBoundary.tsx -->
<g id="node18" class="node">
<title>../src/presenter/containers/ErrorBoundary.tsx</title>
<path fill="none" stroke="#cfffac" d="M532.2186,-322.374C532.2186,-322.374 235.5353,-322.374 235.5353,-322.374 231.2854,-322.374 227.0355,-318.1241 227.0355,-313.8742 227.0355,-313.8742 227.0355,-305.3743 227.0355,-305.3743 227.0355,-301.1244 231.2854,-296.8745 235.5353,-296.8745 235.5353,-296.8745 532.2186,-296.8745 532.2186,-296.8745 536.4685,-296.8745 540.7184,-301.1244 540.7184,-305.3743 540.7184,-305.3743 540.7184,-313.8742 540.7184,-313.8742 540.7184,-318.1241 536.4685,-322.374 532.2186,-322.374"/>
<text text-anchor="middle" x="383.877" y="-306.2485" font-family="Arial" font-size="15.00" fill="#cfffac">../src/presenter/containers/ErrorBoundary.tsx</text>
</g>
<!-- ../src/useCase/useMe/index.ts -->
<g id="node19" class="node">
<title>../src/useCase/useMe/index.ts</title>
<path fill="none" stroke="#c6c5fe" d="M483.7951,-87.374C483.7951,-87.374 283.9588,-87.374 283.9588,-87.374 279.7089,-87.374 275.459,-83.1241 275.459,-78.8742 275.459,-78.8742 275.459,-70.3743 275.459,-70.3743 275.459,-66.1244 279.7089,-61.8745 283.9588,-61.8745 283.9588,-61.8745 483.7951,-61.8745 483.7951,-61.8745 488.045,-61.8745 492.2949,-66.1244 492.2949,-70.3743 492.2949,-70.3743 492.2949,-78.8742 492.2949,-78.8742 492.2949,-83.1241 488.045,-87.374 483.7951,-87.374"/>
<text text-anchor="middle" x="383.877" y="-71.2485" font-family="Arial" font-size="15.00" fill="#c6c5fe">../src/useCase/useMe/index.ts</text>
</g>
<!-- ../src/useCase/useMe/useMe.ts -->
<g id="node20" class="node">
<title>../src/useCase/useMe/useMe.ts</title>
<path fill="none" stroke="#c6c5fe" d="M953.5509,-68.374C953.5509,-68.374 744.3895,-68.374 744.3895,-68.374 740.1396,-68.374 735.8896,-64.1241 735.8896,-59.8742 735.8896,-59.8742 735.8896,-51.3743 735.8896,-51.3743 735.8896,-47.1244 740.1396,-42.8745 744.3895,-42.8745 744.3895,-42.8745 953.5509,-42.8745 953.5509,-42.8745 957.8009,-42.8745 962.0508,-47.1244 962.0508,-51.3743 962.0508,-51.3743 962.0508,-59.8742 962.0508,-59.8742 962.0508,-64.1241 957.8009,-68.374 953.5509,-68.374"/>
<text text-anchor="middle" x="848.9702" y="-52.2485" font-family="Arial" font-size="15.00" fill="#c6c5fe">../src/useCase/useMe/useMe.ts</text>
</g>
<!-- ../src/useCase/useMe/index.ts&#45;&gt;../src/useCase/useMe/useMe.ts -->
<g id="edge15" class="edge">
<title>../src/useCase/useMe/index.ts&#45;&gt;../src/useCase/useMe/useMe.ts</title>
<path fill="none" stroke="#757575" d="M492.3337,-70.1936C562.1925,-67.3397 653.1806,-63.6227 725.7666,-60.6574"/>
<polygon fill="#757575" stroke="#757575" points="726.0338,-64.1495 735.8826,-60.2441 725.748,-57.1553 726.0338,-64.1495"/>
</g>
<!-- ../src/useCase/useMe/useMe.ts&#45;&gt;../src/useCase/useMe/type.ts -->
<g id="edge16" class="edge">
<title>../src/useCase/useMe/useMe.ts&#45;&gt;../src/useCase/useMe/type.ts</title>
<path fill="none" stroke="#757575" d="M962.1579,-66.2094C1026.6996,-72.2453 1107.3931,-79.7916 1172.2549,-85.8574"/>
<polygon fill="#757575" stroke="#757575" points="1172.2415,-89.3714 1182.524,-86.8178 1172.8933,-82.4018 1172.2415,-89.3714"/>
</g>
<!-- _app.tsx -->
<g id="node21" class="node">
<title>_app.tsx</title>
<path fill="none" stroke="#c6c5fe" d="M86.1358,-322.374C86.1358,-322.374 30.7261,-322.374 30.7261,-322.374 26.4761,-322.374 22.2262,-318.1241 22.2262,-313.8742 22.2262,-313.8742 22.2262,-305.3743 22.2262,-305.3743 22.2262,-301.1244 26.4761,-296.8745 30.7261,-296.8745 30.7261,-296.8745 86.1358,-296.8745 86.1358,-296.8745 90.3857,-296.8745 94.6356,-301.1244 94.6356,-305.3743 94.6356,-305.3743 94.6356,-313.8742 94.6356,-313.8742 94.6356,-318.1241 90.3857,-322.374 86.1358,-322.374"/>
<text text-anchor="middle" x="58.4309" y="-306.2485" font-family="Arial" font-size="15.00" fill="#c6c5fe">_app.tsx</text>
</g>
<!-- _app.tsx&#45;&gt;../src/presenter/containers/ErrorBoundary.tsx -->
<g id="edge17" class="edge">
<title>_app.tsx&#45;&gt;../src/presenter/containers/ErrorBoundary.tsx</title>
<path fill="none" stroke="#757575" d="M94.8164,-309.6243C125.1813,-309.6243 170.7868,-309.6243 216.8523,-309.6243"/>
<polygon fill="#757575" stroke="#757575" points="216.9942,-313.1244 226.9941,-309.6243 216.9941,-306.1244 216.9942,-313.1244"/>
</g>
<!-- api/mock/me.ts -->
<g id="node22" class="node">
<title>api/mock/me.ts</title>
<path fill="none" stroke="#cfffac" d="M108.293,-365.374C108.293,-365.374 8.5689,-365.374 8.5689,-365.374 4.3189,-365.374 .069,-361.1241 .069,-356.8742 .069,-356.8742 .069,-348.3743 .069,-348.3743 .069,-344.1244 4.3189,-339.8745 8.5689,-339.8745 8.5689,-339.8745 108.293,-339.8745 108.293,-339.8745 112.5429,-339.8745 116.7928,-344.1244 116.7928,-348.3743 116.7928,-348.3743 116.7928,-356.8742 116.7928,-356.8742 116.7928,-361.1241 112.5429,-365.374 108.293,-365.374"/>
<text text-anchor="middle" x="58.4309" y="-349.2485" font-family="Arial" font-size="15.00" fill="#cfffac">api/mock/me.ts</text>
</g>
<!-- index.tsx -->
<g id="node23" class="node">
<title>index.tsx</title>
<path fill="none" stroke="#cfffac" d="M87.6256,-408.374C87.6256,-408.374 29.2362,-408.374 29.2362,-408.374 24.9862,-408.374 20.7363,-404.1241 20.7363,-399.8742 20.7363,-399.8742 20.7363,-391.3743 20.7363,-391.3743 20.7363,-387.1244 24.9862,-382.8745 29.2362,-382.8745 29.2362,-382.8745 87.6256,-382.8745 87.6256,-382.8745 91.8756,-382.8745 96.1255,-387.1244 96.1255,-391.3743 96.1255,-391.3743 96.1255,-399.8742 96.1255,-399.8742 96.1255,-404.1241 91.8756,-408.374 87.6256,-408.374"/>
<text text-anchor="middle" x="58.4309" y="-392.2485" font-family="Arial" font-size="15.00" fill="#cfffac">index.tsx</text>
</g>
<!-- me.tsx -->
<g id="node24" class="node">
<title>me.tsx</title>
<path fill="none" stroke="#c6c5fe" d="M80.1037,-150.374C80.1037,-150.374 36.7581,-150.374 36.7581,-150.374 32.5082,-150.374 28.2583,-146.1241 28.2583,-141.8742 28.2583,-141.8742 28.2583,-133.3743 28.2583,-133.3743 28.2583,-129.1244 32.5082,-124.8745 36.7581,-124.8745 36.7581,-124.8745 80.1037,-124.8745 80.1037,-124.8745 84.3536,-124.8745 88.6035,-129.1244 88.6035,-133.3743 88.6035,-133.3743 88.6035,-141.8742 88.6035,-141.8742 88.6035,-146.1241 84.3536,-150.374 80.1037,-150.374"/>
<text text-anchor="middle" x="58.4309" y="-134.2485" font-family="Arial" font-size="15.00" fill="#c6c5fe">me.tsx</text>
</g>
<!-- me.tsx&#45;&gt;../src/domain/me/index.ts -->
<g id="edge18" class="edge">
<title>me.tsx&#45;&gt;../src/domain/me/index.ts</title>
<path fill="none" stroke="#757575" d="M68.1801,-150.3757C83.7832,-169.7939 116.348,-206.4355 152.8618,-224.6243 192.7219,-244.4799 240.6302,-255.0377 282.4596,-260.6173"/>
<polygon fill="#757575" stroke="#757575" points="282.037,-264.0916 292.3953,-261.8655 282.9096,-257.1462 282.037,-264.0916"/>
</g>
<!-- me.tsx&#45;&gt;../src/gateway/me/index.ts -->
<g id="edge19" class="edge">
<title>me.tsx&#45;&gt;../src/gateway/me/index.ts</title>
<path fill="none" stroke="#757575" d="M88.5492,-145.0043C107.0571,-149.4489 131.2785,-155.1038 152.8618,-159.6243 201.9448,-169.9044 257.1556,-180.2265 301.2925,-188.1799"/>
<polygon fill="#757575" stroke="#757575" points="300.9357,-191.6717 311.3969,-189.9942 302.1729,-184.7819 300.9357,-191.6717"/>
</g>
<!-- me.tsx&#45;&gt;../src/presenter/components/ecosystem/Me/ComponentSelector.tsx -->
<g id="edge20" class="edge">
<title>me.tsx&#45;&gt;../src/presenter/components/ecosystem/Me/ComponentSelector.tsx</title>
<path fill="none" stroke="#757575" d="M88.7558,-137.6243C103.1274,-137.6243 121.7243,-137.6243 142.5887,-137.6243"/>
<polygon fill="#757575" stroke="#757575" points="142.6646,-141.1244 152.6645,-137.6243 142.6645,-134.1244 142.6646,-141.1244"/>
</g>
<!-- me.tsx&#45;&gt;../src/presenter/components/ecosystem/Me/index.ts -->
<g id="edge21" class="edge">
<title>me.tsx&#45;&gt;../src/presenter/components/ecosystem/Me/index.ts</title>
<path fill="none" stroke="#757575" d="M68.0636,-124.772C83.5108,-105.2731 115.8704,-68.7798 152.8618,-52.6243 166.1307,-46.8293 180.229,-42.2478 194.6622,-38.6533"/>
<polygon fill="#757575" stroke="#757575" points="195.7539,-41.9929 204.7018,-36.3196 194.169,-35.1747 195.7539,-41.9929"/>
</g>
<!-- me.tsx&#45;&gt;../src/useCase/useMe/index.ts -->
<g id="edge22" class="edge">
<title>me.tsx&#45;&gt;../src/useCase/useMe/index.ts</title>
<path fill="none" stroke="#757575" d="M88.5358,-130.1795C107.0388,-125.7113 131.2598,-120.0543 152.8618,-115.6243 200.2468,-105.9068 253.3792,-96.3825 296.7311,-88.9631"/>
<polygon fill="#757575" stroke="#757575" points="297.4064,-92.3985 306.6764,-87.2685 296.2305,-85.498 297.4064,-92.3985"/>
</g>
</g>
</svg>
