<?xml version="1.0" encoding="UTF-8" standalone="no"?>
<!DOCTYPE svg PUBLIC "-//W3C//DTD SVG 1.1//EN"
 "http://www.w3.org/Graphics/SVG/1.1/DTD/svg11.dtd">
<!-- Generated by graphviz version 2.40.1 (20161225.0304)
 -->
<!-- Title: G Pages: 1 -->
<svg width="2403pt" height="451pt"
 viewBox="0.00 0.00 2402.89 451.45" xmlns="http://www.w3.org/2000/svg" xmlns:xlink="http://www.w3.org/1999/xlink">
<g id="graph0" class="graph" transform="scale(1 1) rotate(0) translate(21.6 429.8485)">
<title>G</title>
<polygon fill="#111111" stroke="transparent" points="-21.6,21.6 -21.6,-429.8485 2381.2943,-429.8485 2381.2943,21.6 -21.6,21.6"/>
<!-- ../src/domain/me/index.ts -->
<g id="node1" class="node">
<title>../src/domain/me/index.ts</title>
<path fill="none" stroke="#c6c5fe" d="M414.9115,-279.374C414.9115,-279.374 249.4537,-279.374 249.4537,-279.374 245.2038,-279.374 240.9539,-275.1241 240.9539,-270.8742 240.9539,-270.8742 240.9539,-262.3743 240.9539,-262.3743 240.9539,-258.1244 245.2038,-253.8745 249.4537,-253.8745 249.4537,-253.8745 414.9115,-253.8745 414.9115,-253.8745 419.1614,-253.8745 423.4113,-258.1244 423.4113,-262.3743 423.4113,-262.3743 423.4113,-270.8742 423.4113,-270.8742 423.4113,-275.1241 419.1614,-279.374 414.9115,-279.374"/>
<text text-anchor="middle" x="332.1826" y="-263.2485" font-family="Arial" font-size="15.00" fill="#c6c5fe">../src/domain/me/index.ts</text>
</g>
<!-- ../src/domain/me/me.ts -->
<g id="node2" class="node">
<title>../src/domain/me/me.ts</title>
<path fill="none" stroke="#cfffac" d="M798.2702,-322.374C798.2702,-322.374 647.8563,-322.374 647.8563,-322.374 643.6064,-322.374 639.3564,-318.1241 639.3564,-313.8742 639.3564,-313.8742 639.3564,-305.3743 639.3564,-305.3743 639.3564,-301.1244 643.6064,-296.8745 647.8563,-296.8745 647.8563,-296.8745 798.2702,-296.8745 798.2702,-296.8745 802.5201,-296.8745 806.77,-301.1244 806.77,-305.3743 806.77,-305.3743 806.77,-313.8742 806.77,-313.8742 806.77,-318.1241 802.5201,-322.374 798.2702,-322.374"/>
<text text-anchor="middle" x="723.0632" y="-306.2485" font-family="Arial" font-size="15.00" fill="#cfffac">../src/domain/me/me.ts</text>
</g>
<!-- ../src/domain/me/index.ts&#45;&gt;../src/domain/me/me.ts -->
<g id="edge1" class="edge">
<title>../src/domain/me/index.ts&#45;&gt;../src/domain/me/me.ts</title>
<path fill="none" stroke="#757575" d="M423.8268,-276.7059C485.6005,-283.5015 566.8638,-292.4411 629.1145,-299.2892"/>
<polygon fill="#757575" stroke="#757575" points="629.0048,-302.7981 639.3276,-300.4127 629.7703,-295.8401 629.0048,-302.7981"/>
</g>
<!-- ../src/domain/me/type.ts -->
<g id="node3" class="node">
<title>../src/domain/me/type.ts</title>
<path fill="none" stroke="#cfffac" d="M802.2847,-279.374C802.2847,-279.374 643.8417,-279.374 643.8417,-279.374 639.5918,-279.374 635.3419,-275.1241 635.3419,-270.8742 635.3419,-270.8742 635.3419,-262.3743 635.3419,-262.3743 635.3419,-258.1244 639.5918,-253.8745 643.8417,-253.8745 643.8417,-253.8745 802.2847,-253.8745 802.2847,-253.8745 806.5346,-253.8745 810.7846,-258.1244 810.7846,-262.3743 810.7846,-262.3743 810.7846,-270.8742 810.7846,-270.8742 810.7846,-275.1241 806.5346,-279.374 802.2847,-279.374"/>
<text text-anchor="middle" x="723.0632" y="-263.2485" font-family="Arial" font-size="15.00" fill="#cfffac">../src/domain/me/type.ts</text>
</g>
<!-- ../src/domain/me/index.ts&#45;&gt;../src/domain/me/type.ts -->
<g id="edge2" class="edge">
<title>../src/domain/me/index.ts&#45;&gt;../src/domain/me/type.ts</title>
<path fill="none" stroke="#757575" d="M423.8268,-266.6243C484.318,-266.6243 563.4979,-266.6243 625.2131,-266.6243"/>
<polygon fill="#757575" stroke="#757575" points="625.3515,-270.1244 635.3515,-266.6243 625.3515,-263.1244 625.3515,-270.1244"/>
</g>
<!-- ../src/externalInterface/api/http/client/client.ts -->
<g id="node4" class="node">
<title>../src/externalInterface/api/http/client/client.ts</title>
<path fill="none" stroke="#cfffac" d="M2351.1803,-257.374C2351.1803,-257.374 2056.2367,-257.374 2056.2367,-257.374 2051.9867,-257.374 2047.7368,-253.1241 2047.7368,-248.8742 2047.7368,-248.8742 2047.7368,-240.3743 2047.7368,-240.3743 2047.7368,-236.1244 2051.9867,-231.8745 2056.2367,-231.8745 2056.2367,-231.8745 2351.1803,-231.8745 2351.1803,-231.8745 2355.4303,-231.8745 2359.6802,-236.1244 2359.6802,-240.3743 2359.6802,-240.3743 2359.6802,-248.8742 2359.6802,-248.8742 2359.6802,-253.1241 2355.4303,-257.374 2351.1803,-257.374"/>
<text text-anchor="middle" x="2203.7085" y="-241.2485" font-family="Arial" font-size="15.00" fill="#cfffac">../src/externalInterface/api/http/client/client.ts</text>
</g>
<!-- ../src/externalInterface/api/http/client/index.ts -->
<g id="node5" class="node">
<title>../src/externalInterface/api/http/client/index.ts</title>
<path fill="none" stroke="#c6c5fe" d="M2003.1298,-257.374C2003.1298,-257.374 1707.5015,-257.374 1707.5015,-257.374 1703.2516,-257.374 1699.0017,-253.1241 1699.0017,-248.8742 1699.0017,-248.8742 1699.0017,-240.3743 1699.0017,-240.3743 1699.0017,-236.1244 1703.2516,-231.8745 1707.5015,-231.8745 1707.5015,-231.8745 2003.1298,-231.8745 2003.1298,-231.8745 2007.3798,-231.8745 2011.6297,-236.1244 2011.6297,-240.3743 2011.6297,-240.3743 2011.6297,-248.8742 2011.6297,-248.8742 2011.6297,-253.1241 2007.3798,-257.374 2003.1298,-257.374"/>
<text text-anchor="middle" x="1855.3157" y="-241.2485" font-family="Arial" font-size="15.00" fill="#c6c5fe">../src/externalInterface/api/http/client/index.ts</text>
</g>
<!-- ../src/externalInterface/api/http/client/index.ts&#45;&gt;../src/externalInterface/api/http/client/client.ts -->
<g id="edge3" class="edge">
<title>../src/externalInterface/api/http/client/index.ts&#45;&gt;../src/externalInterface/api/http/client/client.ts</title>
<path fill="none" stroke="#757575" d="M2011.678,-244.6243C2020.2591,-244.6243 2028.8986,-244.6243 2037.5119,-244.6243"/>
<polygon fill="#757575" stroke="#757575" points="2037.6061,-248.1244 2047.6061,-244.6243 2037.6061,-241.1244 2037.6061,-248.1244"/>
</g>
<!-- ../src/externalInterface/api/http/client/util.ts -->
<g id="node6" class="node">
<title>../src/externalInterface/api/http/client/util.ts</title>
<path fill="none" stroke="#cfffac" d="M1994.9452,-214.374C1994.9452,-214.374 1715.6861,-214.374 1715.6861,-214.374 1711.4362,-214.374 1707.1863,-210.1241 1707.1863,-205.8742 1707.1863,-205.8742 1707.1863,-197.3743 1707.1863,-197.3743 1707.1863,-193.1244 1711.4362,-188.8745 1715.6861,-188.8745 1715.6861,-188.8745 1994.9452,-188.8745 1994.9452,-188.8745 1999.1952,-188.8745 2003.4451,-193.1244 2003.4451,-197.3743 2003.4451,-197.3743 2003.4451,-205.8742 2003.4451,-205.8742 2003.4451,-210.1241 1999.1952,-214.374 1994.9452,-214.374"/>
<text text-anchor="middle" x="1855.3157" y="-198.2485" font-family="Arial" font-size="15.00" fill="#cfffac">../src/externalInterface/api/http/client/util.ts</text>
</g>
<!-- ../src/externalInterface/api/http/me/index.ts -->
<g id="node7" class="node">
<title>../src/externalInterface/api/http/me/index.ts</title>
<path fill="none" stroke="#c6c5fe" d="M1279.5944,-236.374C1279.5944,-236.374 998.3251,-236.374 998.3251,-236.374 994.0751,-236.374 989.8252,-232.1241 989.8252,-227.8742 989.8252,-227.8742 989.8252,-219.3743 989.8252,-219.3743 989.8252,-215.1244 994.0751,-210.8745 998.3251,-210.8745 998.3251,-210.8745 1279.5944,-210.8745 1279.5944,-210.8745 1283.8443,-210.8745 1288.0942,-215.1244 1288.0942,-219.3743 1288.0942,-219.3743 1288.0942,-227.8742 1288.0942,-227.8742 1288.0942,-232.1241 1283.8443,-236.374 1279.5944,-236.374"/>
<text text-anchor="middle" x="1138.9597" y="-220.2485" font-family="Arial" font-size="15.00" fill="#c6c5fe">../src/externalInterface/api/http/me/index.ts</text>
</g>
<!-- ../src/externalInterface/api/http/me/me.ts -->
<g id="node8" class="node">
<title>../src/externalInterface/api/http/me/me.ts</title>
<path fill="none" stroke="#c6c5fe" d="M1654.2153,-236.374C1654.2153,-236.374 1387.9898,-236.374 1387.9898,-236.374 1383.7399,-236.374 1379.49,-232.1241 1379.49,-227.8742 1379.49,-227.8742 1379.49,-219.3743 1379.49,-219.3743 1379.49,-215.1244 1383.7399,-210.8745 1387.9898,-210.8745 1387.9898,-210.8745 1654.2153,-210.8745 1654.2153,-210.8745 1658.4652,-210.8745 1662.7151,-215.1244 1662.7151,-219.3743 1662.7151,-219.3743 1662.7151,-227.8742 1662.7151,-227.8742 1662.7151,-232.1241 1658.4652,-236.374 1654.2153,-236.374"/>
<text text-anchor="middle" x="1521.1025" y="-220.2485" font-family="Arial" font-size="15.00" fill="#c6c5fe">../src/externalInterface/api/http/me/me.ts</text>
</g>
<!-- ../src/externalInterface/api/http/me/index.ts&#45;&gt;../src/externalInterface/api/http/me/me.ts -->
<g id="edge4" class="edge">
<title>../src/externalInterface/api/http/me/index.ts&#45;&gt;../src/externalInterface/api/http/me/me.ts</title>
<path fill="none" stroke="#757575" d="M1288.348,-223.6243C1314.8919,-223.6243 1342.5641,-223.6243 1369.1776,-223.6243"/>
<polygon fill="#757575" stroke="#757575" points="1369.3211,-227.1244 1379.3211,-223.6243 1369.321,-220.1244 1369.3211,-227.1244"/>
</g>
<!-- ../src/externalInterface/api/http/me/me.ts&#45;&gt;../src/externalInterface/api/http/client/index.ts -->
<g id="edge5" class="edge">
<title>../src/externalInterface/api/http/me/me.ts&#45;&gt;../src/externalInterface/api/http/client/index.ts</title>
<path fill="none" stroke="#757575" d="M1662.839,-232.5302C1671.4065,-233.0685 1680.065,-233.6125 1688.7217,-234.1565"/>
<polygon fill="#757575" stroke="#757575" points="1688.6777,-237.6605 1698.8776,-234.7946 1689.1168,-230.6743 1688.6777,-237.6605"/>
</g>
<!-- ../src/externalInterface/api/http/me/me.ts&#45;&gt;../src/externalInterface/api/http/client/util.ts -->
<g id="edge6" class="edge">
<title>../src/externalInterface/api/http/me/me.ts&#45;&gt;../src/externalInterface/api/http/client/util.ts</title>
<path fill="none" stroke="#757575" d="M1662.839,-214.2943C1674.1912,-213.547 1685.7033,-212.7892 1697.1591,-212.0351"/>
<polygon fill="#757575" stroke="#757575" points="1697.458,-215.5231 1707.2065,-211.3737 1696.9981,-208.5382 1697.458,-215.5231"/>
</g>
<!-- ../src/gateway/me/index.ts -->
<g id="node9" class="node">
<title>../src/gateway/me/index.ts</title>
<path fill="none" stroke="#c6c5fe" d="M418.5841,-236.374C418.5841,-236.374 245.7812,-236.374 245.7812,-236.374 241.5312,-236.374 237.2813,-232.1241 237.2813,-227.8742 237.2813,-227.8742 237.2813,-219.3743 237.2813,-219.3743 237.2813,-215.1244 241.5312,-210.8745 245.7812,-210.8745 245.7812,-210.8745 418.5841,-210.8745 418.5841,-210.8745 422.834,-210.8745 427.0839,-215.1244 427.0839,-219.3743 427.0839,-219.3743 427.0839,-227.8742 427.0839,-227.8742 427.0839,-232.1241 422.834,-236.374 418.5841,-236.374"/>
<text text-anchor="middle" x="332.1826" y="-220.2485" font-family="Arial" font-size="15.00" fill="#c6c5fe">../src/gateway/me/index.ts</text>
</g>
<!-- ../src/gateway/me/me.ts -->
<g id="node10" class="node">
<title>../src/gateway/me/me.ts</title>
<path fill="none" stroke="#c6c5fe" d="M801.9427,-236.374C801.9427,-236.374 644.1838,-236.374 644.1838,-236.374 639.9338,-236.374 635.6839,-232.1241 635.6839,-227.8742 635.6839,-227.8742 635.6839,-219.3743 635.6839,-219.3743 635.6839,-215.1244 639.9338,-210.8745 644.1838,-210.8745 644.1838,-210.8745 801.9427,-210.8745 801.9427,-210.8745 806.1926,-210.8745 810.4426,-215.1244 810.4426,-219.3743 810.4426,-219.3743 810.4426,-227.8742 810.4426,-227.8742 810.4426,-232.1241 806.1926,-236.374 801.9427,-236.374"/>
<text text-anchor="middle" x="723.0632" y="-220.2485" font-family="Arial" font-size="15.00" fill="#c6c5fe">../src/gateway/me/me.ts</text>
</g>
<!-- ../src/gateway/me/index.ts&#45;&gt;../src/gateway/me/me.ts -->
<g id="edge7" class="edge">
<title>../src/gateway/me/index.ts&#45;&gt;../src/gateway/me/me.ts</title>
<path fill="none" stroke="#757575" d="M427.3029,-223.6243C487.3306,-223.6243 564.6811,-223.6243 625.2222,-223.6243"/>
<polygon fill="#757575" stroke="#757575" points="625.554,-227.1244 635.554,-223.6243 625.554,-220.1244 625.554,-227.1244"/>
</g>
<!-- ../src/gateway/me/me.ts&#45;&gt;../src/externalInterface/api/http/me/index.ts -->
<g id="edge8" class="edge">
<title>../src/gateway/me/me.ts&#45;&gt;../src/externalInterface/api/http/me/index.ts</title>
<path fill="none" stroke="#757575" d="M810.5023,-223.6243C859.5001,-223.6243 922.1281,-223.6243 979.5317,-223.6243"/>
<polygon fill="#757575" stroke="#757575" points="979.8109,-227.1244 989.8108,-223.6243 979.8108,-220.1244 979.8109,-227.1244"/>
</g>
<!-- ../src/presenter/components/ecosystem/Me/Content.tsx -->
<g id="node11" class="node">
<title>../src/presenter/components/ecosystem/Me/Content.tsx</title>
<path fill="none" stroke="#c6c5fe" d="M1321.7788,-150.374C1321.7788,-150.374 956.1407,-150.374 956.1407,-150.374 951.8907,-150.374 947.6408,-146.1241 947.6408,-141.8742 947.6408,-141.8742 947.6408,-133.3743 947.6408,-133.3743 947.6408,-129.1244 951.8907,-124.8745 956.1407,-124.8745 956.1407,-124.8745 1321.7788,-124.8745 1321.7788,-124.8745 1326.0287,-124.8745 1330.2786,-129.1244 1330.2786,-133.3743 1330.2786,-133.3743 1330.2786,-141.8742 1330.2786,-141.8742 1330.2786,-146.1241 1326.0287,-150.374 1321.7788,-150.374"/>
<text text-anchor="middle" x="1138.9597" y="-134.2485" font-family="Arial" font-size="15.00" fill="#c6c5fe">../src/presenter/components/ecosystem/Me/Content.tsx</text>
</g>
<!-- ../src/useCase/useMe/type.ts -->
<g id="node12" class="node">
<title>../src/useCase/useMe/type.ts</title>
<path fill="none" stroke="#cfffac" d="M1617.5137,-109.374C1617.5137,-109.374 1424.6913,-109.374 1424.6913,-109.374 1420.4414,-109.374 1416.1915,-105.1241 1416.1915,-100.8742 1416.1915,-100.8742 1416.1915,-92.3743 1416.1915,-92.3743 1416.1915,-88.1244 1420.4414,-83.8745 1424.6913,-83.8745 1424.6913,-83.8745 1617.5137,-83.8745 1617.5137,-83.8745 1621.7637,-83.8745 1626.0136,-88.1244 1626.0136,-92.3743 1626.0136,-92.3743 1626.0136,-100.8742 1626.0136,-100.8742 1626.0136,-105.1241 1621.7637,-109.374 1617.5137,-109.374"/>
<text text-anchor="middle" x="1521.1025" y="-93.2485" font-family="Arial" font-size="15.00" fill="#cfffac">../src/useCase/useMe/type.ts</text>
</g>
<!-- ../src/presenter/components/ecosystem/Me/Content.tsx&#45;&gt;../src/useCase/useMe/type.ts -->
<g id="edge9" class="edge">
<title>../src/presenter/components/ecosystem/Me/Content.tsx&#45;&gt;../src/useCase/useMe/type.ts</title>
<path fill="none" stroke="#757575" d="M1256.7333,-124.9884C1304.3352,-119.8812 1359.091,-114.0064 1406.3794,-108.9329"/>
<polygon fill="#757575" stroke="#757575" points="1406.7821,-112.4099 1416.3517,-107.863 1406.0353,-105.4498 1406.7821,-112.4099"/>
</g>
<!-- ../src/presenter/components/ecosystem/Me/Exception.tsx -->
<g id="node13" class="node">
<title>../src/presenter/components/ecosystem/Me/Exception.tsx</title>
<path fill="none" stroke="#cfffac" d="M1328.6162,-68.374C1328.6162,-68.374 949.3033,-68.374 949.3033,-68.374 945.0534,-68.374 940.8034,-64.1241 940.8034,-59.8742 940.8034,-59.8742 940.8034,-51.3743 940.8034,-51.3743 940.8034,-47.1244 945.0534,-42.8745 949.3033,-42.8745 949.3033,-42.8745 1328.6162,-42.8745 1328.6162,-42.8745 1332.8661,-42.8745 1337.116,-47.1244 1337.116,-51.3743 1337.116,-51.3743 1337.116,-59.8742 1337.116,-59.8742 1337.116,-64.1241 1332.8661,-68.374 1328.6162,-68.374"/>
<text text-anchor="middle" x="1138.9597" y="-52.2485" font-family="Arial" font-size="15.00" fill="#cfffac">../src/presenter/components/ecosystem/Me/Exception.tsx</text>
</g>
<!-- ../src/presenter/components/ecosystem/Me/Me.tsx -->
<g id="node14" class="node">
<title>../src/presenter/components/ecosystem/Me/Me.tsx</title>
<path fill="none" stroke="#c6c5fe" d="M890.183,-193.374C890.183,-193.374 555.9434,-193.374 555.9434,-193.374 551.6935,-193.374 547.4436,-189.1241 547.4436,-184.8742 547.4436,-184.8742 547.4436,-176.3743 547.4436,-176.3743 547.4436,-172.1244 551.6935,-167.8745 555.9434,-167.8745 555.9434,-167.8745 890.183,-167.8745 890.183,-167.8745 894.433,-167.8745 898.6829,-172.1244 898.6829,-176.3743 898.6829,-176.3743 898.6829,-184.8742 898.6829,-184.8742 898.6829,-189.1241 894.433,-193.374 890.183,-193.374"/>
<text text-anchor="middle" x="723.0632" y="-177.2485" font-family="Arial" font-size="15.00" fill="#c6c5fe">../src/presenter/components/ecosystem/Me/Me.tsx</text>
</g>
<!-- ../src/presenter/components/ecosystem/Me/Placeholder.tsx -->
<g id="node15" class="node">
<title>../src/presenter/components/ecosystem/Me/Placeholder.tsx</title>
<path fill="none" stroke="#cfffac" d="M1334.6333,-193.374C1334.6333,-193.374 943.2861,-193.374 943.2861,-193.374 939.0362,-193.374 934.7862,-189.1241 934.7862,-184.8742 934.7862,-184.8742 934.7862,-176.3743 934.7862,-176.3743 934.7862,-172.1244 939.0362,-167.8745 943.2861,-167.8745 943.2861,-167.8745 1334.6333,-167.8745 1334.6333,-167.8745 1338.8833,-167.8745 1343.1332,-172.1244 1343.1332,-176.3743 1343.1332,-176.3743 1343.1332,-184.8742 1343.1332,-184.8742 1343.1332,-189.1241 1338.8833,-193.374 1334.6333,-193.374"/>
<text text-anchor="middle" x="1138.9597" y="-177.2485" font-family="Arial" font-size="15.00" fill="#cfffac">../src/presenter/components/ecosystem/Me/Placeholder.tsx</text>
</g>
<!-- ../src/presenter/components/ecosystem/Me/Me.tsx&#45;&gt;../src/presenter/components/ecosystem/Me/Placeholder.tsx -->
<g id="edge10" class="edge">
<title>../src/presenter/components/ecosystem/Me/Me.tsx&#45;&gt;../src/presenter/components/ecosystem/Me/Placeholder.tsx</title>
<path fill="none" stroke="#757575" d="M898.838,-180.6243C907.3628,-180.6243 915.9616,-180.6243 924.5751,-180.6243"/>
<polygon fill="#757575" stroke="#757575" points="924.6899,-184.1244 934.6898,-180.6243 924.6898,-177.1244 924.6899,-184.1244"/>
</g>
<!-- ../src/presenter/components/ecosystem/Me/index.ts -->
<g id="node16" class="node">
<title>../src/presenter/components/ecosystem/Me/index.ts</title>
<path fill="none" stroke="#c6c5fe" d="M502.8246,-193.374C502.8246,-193.374 161.5407,-193.374 161.5407,-193.374 157.2908,-193.374 153.0408,-189.1241 153.0408,-184.8742 153.0408,-184.8742 153.0408,-176.3743 153.0408,-176.3743 153.0408,-172.1244 157.2908,-167.8745 161.5407,-167.8745 161.5407,-167.8745 502.8246,-167.8745 502.8246,-167.8745 507.0745,-167.8745 511.3244,-172.1244 511.3244,-176.3743 511.3244,-176.3743 511.3244,-184.8742 511.3244,-184.8742 511.3244,-189.1241 507.0745,-193.374 502.8246,-193.374"/>
<text text-anchor="middle" x="332.1826" y="-177.2485" font-family="Arial" font-size="15.00" fill="#c6c5fe">../src/presenter/components/ecosystem/Me/index.ts</text>
</g>
<!-- ../src/presenter/components/ecosystem/Me/index.ts&#45;&gt;../src/presenter/components/ecosystem/Me/Me.tsx -->
<g id="edge11" class="edge">
<title>../src/presenter/components/ecosystem/Me/index.ts&#45;&gt;../src/presenter/components/ecosystem/Me/Me.tsx</title>
<path fill="none" stroke="#757575" d="M511.6067,-180.6243C520.1896,-180.6243 528.8139,-180.6243 537.4129,-180.6243"/>
<polygon fill="#757575" stroke="#757575" points="537.4918,-184.1244 547.4917,-180.6243 537.4917,-177.1244 537.4918,-184.1244"/>
</g>
<!-- ../src/presenter/containers/ErrorBoundary.tsx -->
<g id="node17" class="node">
<title>../src/presenter/containers/ErrorBoundary.tsx</title>
<path fill="none" stroke="#cfffac" d="M480.5243,-322.374C480.5243,-322.374 183.841,-322.374 183.841,-322.374 179.591,-322.374 175.3411,-318.1241 175.3411,-313.8742 175.3411,-313.8742 175.3411,-305.3743 175.3411,-305.3743 175.3411,-301.1244 179.591,-296.8745 183.841,-296.8745 183.841,-296.8745 480.5243,-296.8745 480.5243,-296.8745 484.7742,-296.8745 489.0241,-301.1244 489.0241,-305.3743 489.0241,-305.3743 489.0241,-313.8742 489.0241,-313.8742 489.0241,-318.1241 484.7742,-322.374 480.5243,-322.374"/>
<text text-anchor="middle" x="332.1826" y="-306.2485" font-family="Arial" font-size="15.00" fill="#cfffac">../src/presenter/containers/ErrorBoundary.tsx</text>
</g>
<!-- ../src/useCase/useMe/index.ts -->
<g id="node18" class="node">
<title>../src/useCase/useMe/index.ts</title>
<path fill="none" stroke="#ff6c60" d="M432.1008,-109.374C432.1008,-109.374 232.2645,-109.374 232.2645,-109.374 228.0146,-109.374 223.7646,-105.1241 223.7646,-100.8742 223.7646,-100.8742 223.7646,-92.3743 223.7646,-92.3743 223.7646,-88.1244 228.0146,-83.8745 232.2645,-83.8745 232.2645,-83.8745 432.1008,-83.8745 432.1008,-83.8745 436.3507,-83.8745 440.6006,-88.1244 440.6006,-92.3743 440.6006,-92.3743 440.6006,-100.8742 440.6006,-100.8742 440.6006,-105.1241 436.3507,-109.374 432.1008,-109.374"/>
<text text-anchor="middle" x="332.1826" y="-93.2485" font-family="Arial" font-size="15.00" fill="#ff6c60">../src/useCase/useMe/index.ts</text>
</g>
<!-- ../src/useCase/useMe/interactor.tsx -->
<g id="node19" class="node">
<title>../src/useCase/useMe/interactor.tsx</title>
<path fill="none" stroke="#ff6c60" d="M839.8213,-109.374C839.8213,-109.374 606.3051,-109.374 606.3051,-109.374 602.0552,-109.374 597.8053,-105.1241 597.8053,-100.8742 597.8053,-100.8742 597.8053,-92.3743 597.8053,-92.3743 597.8053,-88.1244 602.0552,-83.8745 606.3051,-83.8745 606.3051,-83.8745 839.8213,-83.8745 839.8213,-83.8745 844.0713,-83.8745 848.3212,-88.1244 848.3212,-92.3743 848.3212,-92.3743 848.3212,-100.8742 848.3212,-100.8742 848.3212,-105.1241 844.0713,-109.374 839.8213,-109.374"/>
<text text-anchor="middle" x="723.0632" y="-93.2485" font-family="Arial" font-size="15.00" fill="#ff6c60">../src/useCase/useMe/interactor.tsx</text>
</g>
<!-- ../src/useCase/useMe/index.ts&#45;&gt;../src/useCase/useMe/interactor.tsx -->
<g id="edge12" class="edge">
<title>../src/useCase/useMe/index.ts&#45;&gt;../src/useCase/useMe/interactor.tsx</title>
<path fill="none" stroke="#757575" d="M440.805,-90.5049C486.2569,-89.7992 539.5713,-89.6858 587.551,-90.1646"/>
<polygon fill="#757575" stroke="#757575" points="587.6659,-93.666 597.7036,-90.2758 587.7426,-86.6664 587.6659,-93.666"/>
</g>
<!-- ../src/useCase/useMe/useMe.ts -->
<g id="node20" class="node">
<title>../src/useCase/useMe/useMe.ts</title>
<path fill="none" stroke="#c6c5fe" d="M1243.5405,-25.374C1243.5405,-25.374 1034.379,-25.374 1034.379,-25.374 1030.1291,-25.374 1025.8791,-21.1241 1025.8791,-16.8742 1025.8791,-16.8742 1025.8791,-8.3743 1025.8791,-8.3743 1025.8791,-4.1244 1030.1291,.1255 1034.379,.1255 1034.379,.1255 1243.5405,.1255 1243.5405,.1255 1247.7904,.1255 1252.0403,-4.1244 1252.0403,-8.3743 1252.0403,-8.3743 1252.0403,-16.8742 1252.0403,-16.8742 1252.0403,-21.1241 1247.7904,-25.374 1243.5405,-25.374"/>
<text text-anchor="middle" x="1138.9597" y="-9.2485" font-family="Arial" font-size="15.00" fill="#c6c5fe">../src/useCase/useMe/useMe.ts</text>
</g>
<!-- ../src/useCase/useMe/index.ts&#45;&gt;../src/useCase/useMe/useMe.ts -->
<g id="edge13" class="edge">
<title>../src/useCase/useMe/index.ts&#45;&gt;../src/useCase/useMe/useMe.ts</title>
<path fill="none" stroke="#757575" d="M440.7348,-85.2136C561.3525,-72.5483 761.9022,-51.5308 934.623,-33.6243 960.8081,-30.9096 988.8824,-28.0143 1015.5792,-25.2684"/>
<polygon fill="#757575" stroke="#757575" points="1016.1471,-28.7286 1025.7367,-24.224 1015.4311,-21.7653 1016.1471,-28.7286"/>
</g>
<!-- ../src/useCase/useMe/interactor.tsx&#45;&gt;../src/presenter/components/ecosystem/Me/Content.tsx -->
<g id="edge14" class="edge">
<title>../src/useCase/useMe/interactor.tsx&#45;&gt;../src/presenter/components/ecosystem/Me/Content.tsx</title>
<path fill="none" stroke="#757575" d="M848.4099,-108.9812C896.4063,-113.7128 951.4131,-119.1355 1000.5617,-123.9807"/>
<polygon fill="#757575" stroke="#757575" points="1000.337,-127.4754 1010.6322,-124.9735 1001.0238,-120.5092 1000.337,-127.4754"/>
</g>
<!-- ../src/useCase/useMe/interactor.tsx&#45;&gt;../src/useCase/useMe/type.ts -->
<g id="edge17" class="edge">
<title>../src/useCase/useMe/interactor.tsx&#45;&gt;../src/useCase/useMe/type.ts</title>
<path fill="none" stroke="#757575" d="M848.1955,-96.6243C1001.1727,-96.6243 1257.9406,-96.6243 1406.1385,-96.6243"/>
<polygon fill="#757575" stroke="#757575" points="1406.1795,-100.1244 1416.1794,-96.6243 1406.1794,-93.1244 1406.1795,-100.1244"/>
</g>
<!-- ../src/useCase/useMe/interactor.tsx&#45;&gt;../src/presenter/components/ecosystem/Me/Exception.tsx -->
<g id="edge15" class="edge">
<title>../src/useCase/useMe/interactor.tsx&#45;&gt;../src/presenter/components/ecosystem/Me/Exception.tsx</title>
<path fill="none" stroke="#757575" d="M848.4099,-84.2673C896.4063,-79.5357 951.4131,-74.113 1000.5617,-69.2679"/>
<polygon fill="#757575" stroke="#757575" points="1001.0238,-72.7394 1010.6322,-68.2751 1000.337,-65.7731 1001.0238,-72.7394"/>
</g>
<!-- ../src/useCase/useMe/interactor.tsx&#45;&gt;../src/useCase/useMe/index.ts -->
<g id="edge16" class="edge">
<title>../src/useCase/useMe/interactor.tsx&#45;&gt;../src/useCase/useMe/index.ts</title>
<path fill="none" stroke="#757575" d="M597.7036,-102.9728C550.6483,-103.5347 497.3457,-103.5068 450.9105,-102.8891"/>
<polygon fill="#757575" stroke="#757575" points="450.8544,-99.388 440.805,-102.7436 450.7536,-106.3873 450.8544,-99.388"/>
</g>
<!-- ../src/useCase/useMe/useMe.ts&#45;&gt;../src/useCase/useMe/type.ts -->
<g id="edge18" class="edge">
<title>../src/useCase/useMe/useMe.ts&#45;&gt;../src/useCase/useMe/type.ts</title>
<path fill="none" stroke="#757575" d="M1252.1565,-19.414C1282.0259,-22.5213 1314.072,-27.0442 1343.2964,-33.6243 1392.6512,-44.7369 1447.1851,-65.3778 1482.6767,-80.0016"/>
<polygon fill="#757575" stroke="#757575" points="1481.585,-83.3384 1492.162,-83.9537 1484.2774,-76.8768 1481.585,-83.3384"/>
</g>
<!-- _app.tsx -->
<g id="node21" class="node">
<title>_app.tsx</title>
<path fill="none" stroke="#c6c5fe" d="M86.1358,-322.374C86.1358,-322.374 30.7261,-322.374 30.7261,-322.374 26.4761,-322.374 22.2262,-318.1241 22.2262,-313.8742 22.2262,-313.8742 22.2262,-305.3743 22.2262,-305.3743 22.2262,-301.1244 26.4761,-296.8745 30.7261,-296.8745 30.7261,-296.8745 86.1358,-296.8745 86.1358,-296.8745 90.3857,-296.8745 94.6356,-301.1244 94.6356,-305.3743 94.6356,-305.3743 94.6356,-313.8742 94.6356,-313.8742 94.6356,-318.1241 90.3857,-322.374 86.1358,-322.374"/>
<text text-anchor="middle" x="58.4309" y="-306.2485" font-family="Arial" font-size="15.00" fill="#c6c5fe">_app.tsx</text>
</g>
<!-- _app.tsx&#45;&gt;../src/presenter/containers/ErrorBoundary.tsx -->
<g id="edge19" class="edge">
<title>_app.tsx&#45;&gt;../src/presenter/containers/ErrorBoundary.tsx</title>
<path fill="none" stroke="#757575" d="M94.783,-309.6243C113.8699,-309.6243 138.769,-309.6243 165.2467,-309.6243"/>
<polygon fill="#757575" stroke="#757575" points="165.4631,-313.1244 175.4631,-309.6243 165.463,-306.1244 165.4631,-313.1244"/>
</g>
<!-- api/mock/me.ts -->
<g id="node22" class="node">
<title>api/mock/me.ts</title>
<path fill="none" stroke="#cfffac" d="M108.293,-365.374C108.293,-365.374 8.5689,-365.374 8.5689,-365.374 4.3189,-365.374 .069,-361.1241 .069,-356.8742 .069,-356.8742 .069,-348.3743 .069,-348.3743 .069,-344.1244 4.3189,-339.8745 8.5689,-339.8745 8.5689,-339.8745 108.293,-339.8745 108.293,-339.8745 112.5429,-339.8745 116.7928,-344.1244 116.7928,-348.3743 116.7928,-348.3743 116.7928,-356.8742 116.7928,-356.8742 116.7928,-361.1241 112.5429,-365.374 108.293,-365.374"/>
<text text-anchor="middle" x="58.4309" y="-349.2485" font-family="Arial" font-size="15.00" fill="#cfffac">api/mock/me.ts</text>
</g>
<!-- index.tsx -->
<g id="node23" class="node">
<title>index.tsx</title>
<path fill="none" stroke="#cfffac" d="M87.6256,-408.374C87.6256,-408.374 29.2362,-408.374 29.2362,-408.374 24.9862,-408.374 20.7363,-404.1241 20.7363,-399.8742 20.7363,-399.8742 20.7363,-391.3743 20.7363,-391.3743 20.7363,-387.1244 24.9862,-382.8745 29.2362,-382.8745 29.2362,-382.8745 87.6256,-382.8745 87.6256,-382.8745 91.8756,-382.8745 96.1255,-387.1244 96.1255,-391.3743 96.1255,-391.3743 96.1255,-399.8742 96.1255,-399.8742 96.1255,-404.1241 91.8756,-408.374 87.6256,-408.374"/>
<text text-anchor="middle" x="58.4309" y="-392.2485" font-family="Arial" font-size="15.00" fill="#cfffac">index.tsx</text>
</g>
<!-- me.tsx -->
<g id="node24" class="node">
<title>me.tsx</title>
<path fill="none" stroke="#c6c5fe" d="M80.1037,-215.374C80.1037,-215.374 36.7581,-215.374 36.7581,-215.374 32.5082,-215.374 28.2583,-211.1241 28.2583,-206.8742 28.2583,-206.8742 28.2583,-198.3743 28.2583,-198.3743 28.2583,-194.1244 32.5082,-189.8745 36.7581,-189.8745 36.7581,-189.8745 80.1037,-189.8745 80.1037,-189.8745 84.3536,-189.8745 88.6035,-194.1244 88.6035,-198.3743 88.6035,-198.3743 88.6035,-206.8742 88.6035,-206.8742 88.6035,-211.1241 84.3536,-215.374 80.1037,-215.374"/>
<text text-anchor="middle" x="58.4309" y="-199.2485" font-family="Arial" font-size="15.00" fill="#c6c5fe">me.tsx</text>
</g>
<!-- me.tsx&#45;&gt;../src/domain/me/index.ts -->
<g id="edge20" class="edge">
<title>me.tsx&#45;&gt;../src/domain/me/index.ts</title>
<path fill="none" stroke="#757575" d="M80.9584,-215.3027C99.6321,-225.2103 127.1809,-238.4632 152.8618,-245.6243 177.6507,-252.5366 204.9835,-257.1752 230.6788,-260.2875"/>
<polygon fill="#757575" stroke="#757575" points="230.4819,-263.7877 240.8151,-261.4479 231.2781,-256.8331 230.4819,-263.7877"/>
</g>
<!-- me.tsx&#45;&gt;../src/gateway/me/index.ts -->
<g id="edge21" class="edge">
<title>me.tsx&#45;&gt;../src/gateway/me/index.ts</title>
<path fill="none" stroke="#757575" d="M88.7731,-204.9519C122.1135,-207.5095 177.5233,-211.7601 227.0603,-215.5601"/>
<polygon fill="#757575" stroke="#757575" points="226.9674,-219.0632 237.2058,-216.3384 227.5029,-212.0837 226.9674,-219.0632"/>
</g>
<!-- me.tsx&#45;&gt;../src/presenter/components/ecosystem/Me/index.ts -->
<g id="edge22" class="edge">
<title>me.tsx&#45;&gt;../src/presenter/components/ecosystem/Me/index.ts</title>
<path fill="none" stroke="#757575" d="M88.7731,-200.1858C108.4091,-198.6078 135.7002,-196.4145 164.9382,-194.0648"/>
<polygon fill="#757575" stroke="#757575" points="165.2327,-197.5525 174.9201,-193.2626 164.6719,-190.575 165.2327,-197.5525"/>
</g>
<!-- me.tsx&#45;&gt;../src/useCase/useMe/index.ts -->
<g id="edge23" class="edge">
<title>me.tsx&#45;&gt;../src/useCase/useMe/index.ts</title>
<path fill="none" stroke="#757575" d="M83.7673,-189.9498C102.6034,-180.7412 129.0537,-168.2569 152.8618,-158.6243 195.7061,-141.2897 245.4527,-124.3323 281.6655,-112.5458"/>
<polygon fill="#757575" stroke="#757575" points="283.0667,-115.7712 291.5035,-109.3625 280.9117,-109.1111 283.0667,-115.7712"/>
</g>
</g>
</svg>
