<?xml version="1.0" encoding="UTF-8" standalone="no"?>
<!DOCTYPE svg PUBLIC "-//W3C//DTD SVG 1.1//EN"
 "http://www.w3.org/Graphics/SVG/1.1/DTD/svg11.dtd">
<!-- Generated by graphviz version 2.40.1 (20161225.0304)
 -->
<!-- Title: G Pages: 1 -->
<svg width="2894pt" height="369pt"
 viewBox="0.00 0.00 2894.29 369.45" xmlns="http://www.w3.org/2000/svg" xmlns:xlink="http://www.w3.org/1999/xlink">
<g id="graph0" class="graph" transform="scale(1 1) rotate(0) translate(21.6 347.8485)">
<title>G</title>
<polygon fill="#111111" stroke="transparent" points="-21.6,21.6 -21.6,-347.8485 2872.6889,-347.8485 2872.6889,21.6 -21.6,21.6"/>
<!-- ../src/domain/me/index.ts -->
<g id="node1" class="node">
<title>../src/domain/me/index.ts</title>
<path fill="none" stroke="#c6c5fe" d="M940.034,-283.374C940.034,-283.374 774.5763,-283.374 774.5763,-283.374 770.3264,-283.374 766.0765,-279.1241 766.0765,-274.8742 766.0765,-274.8742 766.0765,-266.3743 766.0765,-266.3743 766.0765,-262.1244 770.3264,-257.8745 774.5763,-257.8745 774.5763,-257.8745 940.034,-257.8745 940.034,-257.8745 944.284,-257.8745 948.5339,-262.1244 948.5339,-266.3743 948.5339,-266.3743 948.5339,-274.8742 948.5339,-274.8742 948.5339,-279.1241 944.284,-283.374 940.034,-283.374"/>
<text text-anchor="middle" x="857.3052" y="-267.2485" font-family="Arial" font-size="15.00" fill="#c6c5fe">../src/domain/me/index.ts</text>
</g>
<!-- ../src/domain/me/me.ts -->
<g id="node2" class="node">
<title>../src/domain/me/me.ts</title>
<path fill="none" stroke="#cfffac" d="M1370.9269,-326.374C1370.9269,-326.374 1220.513,-326.374 1220.513,-326.374 1216.2631,-326.374 1212.0132,-322.1241 1212.0132,-317.8742 1212.0132,-317.8742 1212.0132,-309.3743 1212.0132,-309.3743 1212.0132,-305.1244 1216.2631,-300.8745 1220.513,-300.8745 1220.513,-300.8745 1370.9269,-300.8745 1370.9269,-300.8745 1375.1768,-300.8745 1379.4268,-305.1244 1379.4268,-309.3743 1379.4268,-309.3743 1379.4268,-317.8742 1379.4268,-317.8742 1379.4268,-322.1241 1375.1768,-326.374 1370.9269,-326.374"/>
<text text-anchor="middle" x="1295.72" y="-310.2485" font-family="Arial" font-size="15.00" fill="#cfffac">../src/domain/me/me.ts</text>
</g>
<!-- ../src/domain/me/index.ts&#45;&gt;../src/domain/me/me.ts -->
<g id="edge1" class="edge">
<title>../src/domain/me/index.ts&#45;&gt;../src/domain/me/me.ts</title>
<path fill="none" stroke="#757575" d="M948.6776,-279.5861C1022.738,-286.85 1126.723,-297.0489 1201.5293,-304.386"/>
<polygon fill="#757575" stroke="#757575" points="1201.5911,-307.9088 1211.885,-305.4017 1202.2744,-300.9422 1201.5911,-307.9088"/>
</g>
<!-- ../src/domain/me/type.ts -->
<g id="node3" class="node">
<title>../src/domain/me/type.ts</title>
<path fill="none" stroke="#cfffac" d="M1374.9415,-283.374C1374.9415,-283.374 1216.4985,-283.374 1216.4985,-283.374 1212.2486,-283.374 1207.9986,-279.1241 1207.9986,-274.8742 1207.9986,-274.8742 1207.9986,-266.3743 1207.9986,-266.3743 1207.9986,-262.1244 1212.2486,-257.8745 1216.4985,-257.8745 1216.4985,-257.8745 1374.9415,-257.8745 1374.9415,-257.8745 1379.1914,-257.8745 1383.4413,-262.1244 1383.4413,-266.3743 1383.4413,-266.3743 1383.4413,-274.8742 1383.4413,-274.8742 1383.4413,-279.1241 1379.1914,-283.374 1374.9415,-283.374"/>
<text text-anchor="middle" x="1295.72" y="-267.2485" font-family="Arial" font-size="15.00" fill="#cfffac">../src/domain/me/type.ts</text>
</g>
<!-- ../src/domain/me/index.ts&#45;&gt;../src/domain/me/type.ts -->
<g id="edge2" class="edge">
<title>../src/domain/me/index.ts&#45;&gt;../src/domain/me/type.ts</title>
<path fill="none" stroke="#757575" d="M948.6776,-270.6243C1021.4198,-270.6243 1123.0308,-270.6243 1197.5074,-270.6243"/>
<polygon fill="#757575" stroke="#757575" points="1197.8305,-274.1244 1207.8304,-270.6243 1197.8304,-267.1244 1197.8305,-274.1244"/>
</g>
<!-- ../src/externalInterface/api/http/client/client.ts -->
<g id="node4" class="node">
<title>../src/externalInterface/api/http/client/client.ts</title>
<path fill="none" stroke="#cfffac" d="M2842.5749,-262.374C2842.5749,-262.374 2547.6312,-262.374 2547.6312,-262.374 2543.3813,-262.374 2539.1313,-258.1241 2539.1313,-253.8742 2539.1313,-253.8742 2539.1313,-245.3743 2539.1313,-245.3743 2539.1313,-241.1244 2543.3813,-236.8745 2547.6312,-236.8745 2547.6312,-236.8745 2842.5749,-236.8745 2842.5749,-236.8745 2846.8248,-236.8745 2851.0747,-241.1244 2851.0747,-245.3743 2851.0747,-245.3743 2851.0747,-253.8742 2851.0747,-253.8742 2851.0747,-258.1241 2846.8248,-262.374 2842.5749,-262.374"/>
<text text-anchor="middle" x="2695.103" y="-246.2485" font-family="Arial" font-size="15.00" fill="#cfffac">../src/externalInterface/api/http/client/client.ts</text>
</g>
<!-- ../src/externalInterface/api/http/client/index.ts -->
<g id="node5" class="node">
<title>../src/externalInterface/api/http/client/index.ts</title>
<path fill="none" stroke="#c6c5fe" d="M2494.5244,-262.374C2494.5244,-262.374 2198.896,-262.374 2198.896,-262.374 2194.6461,-262.374 2190.3962,-258.1241 2190.3962,-253.8742 2190.3962,-253.8742 2190.3962,-245.3743 2190.3962,-245.3743 2190.3962,-241.1244 2194.6461,-236.8745 2198.896,-236.8745 2198.896,-236.8745 2494.5244,-236.8745 2494.5244,-236.8745 2498.7743,-236.8745 2503.0242,-241.1244 2503.0242,-245.3743 2503.0242,-245.3743 2503.0242,-253.8742 2503.0242,-253.8742 2503.0242,-258.1241 2498.7743,-262.374 2494.5244,-262.374"/>
<text text-anchor="middle" x="2346.7102" y="-246.2485" font-family="Arial" font-size="15.00" fill="#c6c5fe">../src/externalInterface/api/http/client/index.ts</text>
</g>
<!-- ../src/externalInterface/api/http/client/index.ts&#45;&gt;../src/externalInterface/api/http/client/client.ts -->
<g id="edge3" class="edge">
<title>../src/externalInterface/api/http/client/index.ts&#45;&gt;../src/externalInterface/api/http/client/client.ts</title>
<path fill="none" stroke="#757575" d="M2503.0725,-249.6243C2511.6536,-249.6243 2520.2931,-249.6243 2528.9064,-249.6243"/>
<polygon fill="#757575" stroke="#757575" points="2529.0007,-253.1244 2539.0006,-249.6243 2529.0006,-246.1244 2529.0007,-253.1244"/>
</g>
<!-- ../src/externalInterface/api/http/client/util.ts -->
<g id="node6" class="node">
<title>../src/externalInterface/api/http/client/util.ts</title>
<path fill="none" stroke="#cfffac" d="M2486.3398,-219.374C2486.3398,-219.374 2207.0806,-219.374 2207.0806,-219.374 2202.8307,-219.374 2198.5808,-215.1241 2198.5808,-210.8742 2198.5808,-210.8742 2198.5808,-202.3743 2198.5808,-202.3743 2198.5808,-198.1244 2202.8307,-193.8745 2207.0806,-193.8745 2207.0806,-193.8745 2486.3398,-193.8745 2486.3398,-193.8745 2490.5897,-193.8745 2494.8396,-198.1244 2494.8396,-202.3743 2494.8396,-202.3743 2494.8396,-210.8742 2494.8396,-210.8742 2494.8396,-215.1241 2490.5897,-219.374 2486.3398,-219.374"/>
<text text-anchor="middle" x="2346.7102" y="-203.2485" font-family="Arial" font-size="15.00" fill="#cfffac">../src/externalInterface/api/http/client/util.ts</text>
</g>
<!-- ../src/externalInterface/api/http/me/index.ts -->
<g id="node7" class="node">
<title>../src/externalInterface/api/http/me/index.ts</title>
<path fill="none" stroke="#c6c5fe" d="M1826.0084,-240.374C1826.0084,-240.374 1544.7391,-240.374 1544.7391,-240.374 1540.4892,-240.374 1536.2393,-236.1241 1536.2393,-231.8742 1536.2393,-231.8742 1536.2393,-223.3743 1536.2393,-223.3743 1536.2393,-219.1244 1540.4892,-214.8745 1544.7391,-214.8745 1544.7391,-214.8745 1826.0084,-214.8745 1826.0084,-214.8745 1830.2584,-214.8745 1834.5083,-219.1244 1834.5083,-223.3743 1834.5083,-223.3743 1834.5083,-231.8742 1834.5083,-231.8742 1834.5083,-236.1241 1830.2584,-240.374 1826.0084,-240.374"/>
<text text-anchor="middle" x="1685.3738" y="-224.2485" font-family="Arial" font-size="15.00" fill="#c6c5fe">../src/externalInterface/api/http/me/index.ts</text>
</g>
<!-- ../src/externalInterface/api/http/me/me.ts -->
<g id="node8" class="node">
<title>../src/externalInterface/api/http/me/me.ts</title>
<path fill="none" stroke="#c6c5fe" d="M2145.6098,-240.374C2145.6098,-240.374 1879.3843,-240.374 1879.3843,-240.374 1875.1344,-240.374 1870.8845,-236.1241 1870.8845,-231.8742 1870.8845,-231.8742 1870.8845,-223.3743 1870.8845,-223.3743 1870.8845,-219.1244 1875.1344,-214.8745 1879.3843,-214.8745 1879.3843,-214.8745 2145.6098,-214.8745 2145.6098,-214.8745 2149.8597,-214.8745 2154.1096,-219.1244 2154.1096,-223.3743 2154.1096,-223.3743 2154.1096,-231.8742 2154.1096,-231.8742 2154.1096,-236.1241 2149.8597,-240.374 2145.6098,-240.374"/>
<text text-anchor="middle" x="2012.4971" y="-224.2485" font-family="Arial" font-size="15.00" fill="#c6c5fe">../src/externalInterface/api/http/me/me.ts</text>
</g>
<!-- ../src/externalInterface/api/http/me/index.ts&#45;&gt;../src/externalInterface/api/http/me/me.ts -->
<g id="edge4" class="edge">
<title>../src/externalInterface/api/http/me/index.ts&#45;&gt;../src/externalInterface/api/http/me/me.ts</title>
<path fill="none" stroke="#757575" d="M1834.5763,-227.6243C1843.236,-227.6243 1851.9498,-227.6243 1860.6195,-227.6243"/>
<polygon fill="#757575" stroke="#757575" points="1860.771,-231.1244 1870.771,-227.6243 1860.771,-224.1244 1860.771,-231.1244"/>
</g>
<!-- ../src/externalInterface/api/http/me/me.ts&#45;&gt;../src/externalInterface/api/http/client/index.ts -->
<g id="edge5" class="edge">
<title>../src/externalInterface/api/http/me/me.ts&#45;&gt;../src/externalInterface/api/http/client/index.ts</title>
<path fill="none" stroke="#757575" d="M2154.2335,-236.9542C2162.801,-237.5182 2171.4596,-238.0882 2180.1163,-238.658"/>
<polygon fill="#757575" stroke="#757575" points="2180.0638,-242.162 2190.2721,-239.3265 2180.5236,-235.1772 2180.0638,-242.162"/>
</g>
<!-- ../src/externalInterface/api/http/me/me.ts&#45;&gt;../src/externalInterface/api/http/client/util.ts -->
<g id="edge6" class="edge">
<title>../src/externalInterface/api/http/me/me.ts&#45;&gt;../src/externalInterface/api/http/client/util.ts</title>
<path fill="none" stroke="#757575" d="M2154.2335,-218.7184C2165.5857,-218.0051 2177.0978,-217.2817 2188.5537,-216.5619"/>
<polygon fill="#757575" stroke="#757575" points="2188.8402,-220.0509 2198.601,-215.9306 2188.4012,-213.0647 2188.8402,-220.0509"/>
</g>
<!-- ../src/gateway/me/index.ts -->
<g id="node9" class="node">
<title>../src/gateway/me/index.ts</title>
<path fill="none" stroke="#c6c5fe" d="M943.7066,-240.374C943.7066,-240.374 770.9037,-240.374 770.9037,-240.374 766.6538,-240.374 762.4039,-236.1241 762.4039,-231.8742 762.4039,-231.8742 762.4039,-223.3743 762.4039,-223.3743 762.4039,-219.1244 766.6538,-214.8745 770.9037,-214.8745 770.9037,-214.8745 943.7066,-214.8745 943.7066,-214.8745 947.9566,-214.8745 952.2065,-219.1244 952.2065,-223.3743 952.2065,-223.3743 952.2065,-231.8742 952.2065,-231.8742 952.2065,-236.1241 947.9566,-240.374 943.7066,-240.374"/>
<text text-anchor="middle" x="857.3052" y="-224.2485" font-family="Arial" font-size="15.00" fill="#c6c5fe">../src/gateway/me/index.ts</text>
</g>
<!-- ../src/gateway/me/me.ts -->
<g id="node10" class="node">
<title>../src/gateway/me/me.ts</title>
<path fill="none" stroke="#c6c5fe" d="M1374.5994,-240.374C1374.5994,-240.374 1216.8405,-240.374 1216.8405,-240.374 1212.5906,-240.374 1208.3407,-236.1241 1208.3407,-231.8742 1208.3407,-231.8742 1208.3407,-223.3743 1208.3407,-223.3743 1208.3407,-219.1244 1212.5906,-214.8745 1216.8405,-214.8745 1216.8405,-214.8745 1374.5994,-214.8745 1374.5994,-214.8745 1378.8494,-214.8745 1383.0993,-219.1244 1383.0993,-223.3743 1383.0993,-223.3743 1383.0993,-231.8742 1383.0993,-231.8742 1383.0993,-236.1241 1378.8494,-240.374 1374.5994,-240.374"/>
<text text-anchor="middle" x="1295.72" y="-224.2485" font-family="Arial" font-size="15.00" fill="#c6c5fe">../src/gateway/me/me.ts</text>
</g>
<!-- ../src/gateway/me/index.ts&#45;&gt;../src/gateway/me/me.ts -->
<g id="edge7" class="edge">
<title>../src/gateway/me/index.ts&#45;&gt;../src/gateway/me/me.ts</title>
<path fill="none" stroke="#757575" d="M952.1647,-227.6243C1024.907,-227.6243 1124.9472,-227.6243 1198.3161,-227.6243"/>
<polygon fill="#757575" stroke="#757575" points="1198.4862,-231.1244 1208.4861,-227.6243 1198.4861,-224.1244 1198.4862,-231.1244"/>
</g>
<!-- ../src/gateway/me/me.ts&#45;&gt;../src/externalInterface/api/http/me/index.ts -->
<g id="edge8" class="edge">
<title>../src/gateway/me/me.ts&#45;&gt;../src/externalInterface/api/http/me/index.ts</title>
<path fill="none" stroke="#757575" d="M1383.1659,-227.6243C1425.2546,-227.6243 1477.0665,-227.6243 1525.828,-227.6243"/>
<polygon fill="#757575" stroke="#757575" points="1525.8585,-231.1244 1535.8585,-227.6243 1525.8585,-224.1244 1525.8585,-231.1244"/>
</g>
<!-- ../src/presenter/components/ecosystem/Me/ComponentInteractor.tsx -->
<g id="node11" class="node">
<title>../src/presenter/components/ecosystem/Me/ComponentInteractor.tsx</title>
<path fill="none" stroke="#c6c5fe" d="M614.91,-154.374C614.91,-154.374 161.1789,-154.374 161.1789,-154.374 156.929,-154.374 152.6791,-150.1241 152.6791,-145.8742 152.6791,-145.8742 152.6791,-137.3743 152.6791,-137.3743 152.6791,-133.1244 156.929,-128.8745 161.1789,-128.8745 161.1789,-128.8745 614.91,-128.8745 614.91,-128.8745 619.1599,-128.8745 623.4098,-133.1244 623.4098,-137.3743 623.4098,-137.3743 623.4098,-145.8742 623.4098,-145.8742 623.4098,-150.1241 619.1599,-154.374 614.91,-154.374"/>
<text text-anchor="middle" x="388.0444" y="-138.2485" font-family="Arial" font-size="15.00" fill="#c6c5fe">../src/presenter/components/ecosystem/Me/ComponentInteractor.tsx</text>
</g>
<!-- ../src/presenter/components/ecosystem/Me/ComponentInteractor.tsx&#45;&gt;../src/domain/me/index.ts -->
<g id="edge9" class="edge">
<title>../src/presenter/components/ecosystem/Me/ComponentInteractor.tsx&#45;&gt;../src/domain/me/index.ts</title>
<path fill="none" stroke="#757575" d="M470.8313,-128.9932C519.616,-126.0887 580.0373,-130.8848 623.2271,-162.6243 656.9472,-187.4046 625.7134,-224.5654 659.2271,-249.6243 686.5221,-270.0333 722.158,-277.8406 755.6674,-279.7242"/>
<polygon fill="#757575" stroke="#757575" points="755.8583,-283.2342 765.987,-280.126 756.1307,-276.2395 755.8583,-283.2342"/>
</g>
<!-- ../src/presenter/components/ecosystem/Me/ComponentInteractor.tsx&#45;&gt;../src/gateway/me/index.ts -->
<g id="edge10" class="edge">
<title>../src/presenter/components/ecosystem/Me/ComponentInteractor.tsx&#45;&gt;../src/gateway/me/index.ts</title>
<path fill="none" stroke="#757575" d="M605.3031,-154.2944C611.4406,-156.7865 617.4309,-159.5545 623.2271,-162.6243 645.5558,-174.45 636.9971,-194.614 659.2271,-206.6243 687.2984,-221.7905 720.8646,-228.7524 752.3187,-231.4538"/>
<polygon fill="#757575" stroke="#757575" points="752.2208,-234.9558 762.4472,-232.1862 752.7257,-227.974 752.2208,-234.9558"/>
</g>
<!-- ../src/presenter/components/ecosystem/Me/Content.tsx -->
<g id="node12" class="node">
<title>../src/presenter/components/ecosystem/Me/Content.tsx</title>
<path fill="none" stroke="#c6c5fe" d="M1040.1242,-197.374C1040.1242,-197.374 674.4861,-197.374 674.4861,-197.374 670.2362,-197.374 665.9863,-193.1241 665.9863,-188.8742 665.9863,-188.8742 665.9863,-180.3743 665.9863,-180.3743 665.9863,-176.1244 670.2362,-171.8745 674.4861,-171.8745 674.4861,-171.8745 1040.1242,-171.8745 1040.1242,-171.8745 1044.3741,-171.8745 1048.6241,-176.1244 1048.6241,-180.3743 1048.6241,-180.3743 1048.6241,-188.8742 1048.6241,-188.8742 1048.6241,-193.1241 1044.3741,-197.374 1040.1242,-197.374"/>
<text text-anchor="middle" x="857.3052" y="-181.2485" font-family="Arial" font-size="15.00" fill="#c6c5fe">../src/presenter/components/ecosystem/Me/Content.tsx</text>
</g>
<!-- ../src/presenter/components/ecosystem/Me/ComponentInteractor.tsx&#45;&gt;../src/presenter/components/ecosystem/Me/Content.tsx -->
<g id="edge11" class="edge">
<title>../src/presenter/components/ecosystem/Me/ComponentInteractor.tsx&#45;&gt;../src/presenter/components/ecosystem/Me/Content.tsx</title>
<path fill="none" stroke="#757575" d="M530.7667,-154.261C561.2802,-156.9927 593.3251,-159.8841 623.2271,-162.6243 652.5336,-165.3099 683.8997,-168.2278 713.8405,-171.0341"/>
<polygon fill="#757575" stroke="#757575" points="713.6514,-174.5317 723.9347,-171.9811 714.3053,-167.5623 713.6514,-174.5317"/>
</g>
<!-- ../src/presenter/components/ecosystem/Me/Exception.tsx -->
<g id="node13" class="node">
<title>../src/presenter/components/ecosystem/Me/Exception.tsx</title>
<path fill="none" stroke="#cfffac" d="M1046.9616,-154.374C1046.9616,-154.374 667.6487,-154.374 667.6487,-154.374 663.3988,-154.374 659.1489,-150.1241 659.1489,-145.8742 659.1489,-145.8742 659.1489,-137.3743 659.1489,-137.3743 659.1489,-133.1244 663.3988,-128.8745 667.6487,-128.8745 667.6487,-128.8745 1046.9616,-128.8745 1046.9616,-128.8745 1051.2115,-128.8745 1055.4615,-133.1244 1055.4615,-137.3743 1055.4615,-137.3743 1055.4615,-145.8742 1055.4615,-145.8742 1055.4615,-150.1241 1051.2115,-154.374 1046.9616,-154.374"/>
<text text-anchor="middle" x="857.3052" y="-138.2485" font-family="Arial" font-size="15.00" fill="#cfffac">../src/presenter/components/ecosystem/Me/Exception.tsx</text>
</g>
<!-- ../src/presenter/components/ecosystem/Me/ComponentInteractor.tsx&#45;&gt;../src/presenter/components/ecosystem/Me/Exception.tsx -->
<g id="edge12" class="edge">
<title>../src/presenter/components/ecosystem/Me/ComponentInteractor.tsx&#45;&gt;../src/presenter/components/ecosystem/Me/Exception.tsx</title>
<path fill="none" stroke="#757575" d="M623.3622,-141.6243C631.8163,-141.6243 640.2692,-141.6243 648.6771,-141.6243"/>
<polygon fill="#757575" stroke="#757575" points="648.9075,-145.1244 658.9075,-141.6243 648.9074,-138.1244 648.9075,-145.1244"/>
</g>
<!-- ../src/presenter/hooks/useReRender.ts -->
<g id="node14" class="node">
<title>../src/presenter/hooks/useReRender.ts</title>
<path fill="none" stroke="#cfffac" d="M984.7648,-68.374C984.7648,-68.374 729.8455,-68.374 729.8455,-68.374 725.5956,-68.374 721.3457,-64.1241 721.3457,-59.8742 721.3457,-59.8742 721.3457,-51.3743 721.3457,-51.3743 721.3457,-47.1244 725.5956,-42.8745 729.8455,-42.8745 729.8455,-42.8745 984.7648,-42.8745 984.7648,-42.8745 989.0147,-42.8745 993.2647,-47.1244 993.2647,-51.3743 993.2647,-51.3743 993.2647,-59.8742 993.2647,-59.8742 993.2647,-64.1241 989.0147,-68.374 984.7648,-68.374"/>
<text text-anchor="middle" x="857.3052" y="-52.2485" font-family="Arial" font-size="15.00" fill="#cfffac">../src/presenter/hooks/useReRender.ts</text>
</g>
<!-- ../src/presenter/components/ecosystem/Me/ComponentInteractor.tsx&#45;&gt;../src/presenter/hooks/useReRender.ts -->
<g id="edge13" class="edge">
<title>../src/presenter/components/ecosystem/Me/ComponentInteractor.tsx&#45;&gt;../src/presenter/hooks/useReRender.ts</title>
<path fill="none" stroke="#757575" d="M433.2538,-128.8838C486.7845,-114.243 578.8317,-90.461 659.2271,-76.6243 675.8931,-73.7559 693.4198,-71.2171 710.8703,-68.9866"/>
<polygon fill="#757575" stroke="#757575" points="711.6383,-72.4181 721.129,-67.7088 710.773,-65.4718 711.6383,-72.4181"/>
</g>
<!-- ../src/useCase/me/useMe.ts -->
<g id="node15" class="node">
<title>../src/useCase/me/useMe.ts</title>
<path fill="none" stroke="#cfffac" d="M949.7014,-111.374C949.7014,-111.374 764.909,-111.374 764.909,-111.374 760.6591,-111.374 756.4092,-107.1241 756.4092,-102.8742 756.4092,-102.8742 756.4092,-94.3743 756.4092,-94.3743 756.4092,-90.1244 760.6591,-85.8745 764.909,-85.8745 764.909,-85.8745 949.7014,-85.8745 949.7014,-85.8745 953.9513,-85.8745 958.2012,-90.1244 958.2012,-94.3743 958.2012,-94.3743 958.2012,-102.8742 958.2012,-102.8742 958.2012,-107.1241 953.9513,-111.374 949.7014,-111.374"/>
<text text-anchor="middle" x="857.3052" y="-95.2485" font-family="Arial" font-size="15.00" fill="#cfffac">../src/useCase/me/useMe.ts</text>
</g>
<!-- ../src/presenter/components/ecosystem/Me/ComponentInteractor.tsx&#45;&gt;../src/useCase/me/useMe.ts -->
<g id="edge14" class="edge">
<title>../src/presenter/components/ecosystem/Me/ComponentInteractor.tsx&#45;&gt;../src/useCase/me/useMe.ts</title>
<path fill="none" stroke="#757575" d="M525.9836,-128.9844C596.1975,-122.5505 680.4132,-114.8335 746.3678,-108.7898"/>
<polygon fill="#757575" stroke="#757575" points="746.7375,-112.2707 756.3764,-107.8727 746.0987,-105.2999 746.7375,-112.2707"/>
</g>
<!-- ../src/useCase/me/type.ts -->
<g id="node16" class="node">
<title>../src/useCase/me/type.ts</title>
<path fill="none" stroke="#cfffac" d="M1379.9463,-197.374C1379.9463,-197.374 1211.4936,-197.374 1211.4936,-197.374 1207.2437,-197.374 1202.9938,-193.1241 1202.9938,-188.8742 1202.9938,-188.8742 1202.9938,-180.3743 1202.9938,-180.3743 1202.9938,-176.1244 1207.2437,-171.8745 1211.4936,-171.8745 1211.4936,-171.8745 1379.9463,-171.8745 1379.9463,-171.8745 1384.1963,-171.8745 1388.4462,-176.1244 1388.4462,-180.3743 1388.4462,-180.3743 1388.4462,-188.8742 1388.4462,-188.8742 1388.4462,-193.1241 1384.1963,-197.374 1379.9463,-197.374"/>
<text text-anchor="middle" x="1295.72" y="-181.2485" font-family="Arial" font-size="15.00" fill="#cfffac">../src/useCase/me/type.ts</text>
</g>
<!-- ../src/presenter/components/ecosystem/Me/Content.tsx&#45;&gt;../src/useCase/me/type.ts -->
<g id="edge15" class="edge">
<title>../src/presenter/components/ecosystem/Me/Content.tsx&#45;&gt;../src/useCase/me/type.ts</title>
<path fill="none" stroke="#757575" d="M1048.6437,-184.6243C1098.1681,-184.6243 1149.6215,-184.6243 1192.6704,-184.6243"/>
<polygon fill="#757575" stroke="#757575" points="1192.8566,-188.1244 1202.8566,-184.6243 1192.8565,-181.1244 1192.8566,-188.1244"/>
</g>
<!-- ../src/presenter/components/ecosystem/Me/Me.tsx -->
<g id="node17" class="node">
<title>../src/presenter/components/ecosystem/Me/Me.tsx</title>
<path fill="none" stroke="#c6c5fe" d="M1024.425,-25.374C1024.425,-25.374 690.1854,-25.374 690.1854,-25.374 685.9355,-25.374 681.6855,-21.1241 681.6855,-16.8742 681.6855,-16.8742 681.6855,-8.3743 681.6855,-8.3743 681.6855,-4.1244 685.9355,.1255 690.1854,.1255 690.1854,.1255 1024.425,.1255 1024.425,.1255 1028.6749,.1255 1032.9248,-4.1244 1032.9248,-8.3743 1032.9248,-8.3743 1032.9248,-16.8742 1032.9248,-16.8742 1032.9248,-21.1241 1028.6749,-25.374 1024.425,-25.374"/>
<text text-anchor="middle" x="857.3052" y="-9.2485" font-family="Arial" font-size="15.00" fill="#c6c5fe">../src/presenter/components/ecosystem/Me/Me.tsx</text>
</g>
<!-- ../src/presenter/components/ecosystem/Me/Placeholder.tsx -->
<g id="node18" class="node">
<title>../src/presenter/components/ecosystem/Me/Placeholder.tsx</title>
<path fill="none" stroke="#cfffac" d="M1491.3936,-25.374C1491.3936,-25.374 1100.0463,-25.374 1100.0463,-25.374 1095.7964,-25.374 1091.5465,-21.1241 1091.5465,-16.8742 1091.5465,-16.8742 1091.5465,-8.3743 1091.5465,-8.3743 1091.5465,-4.1244 1095.7964,.1255 1100.0463,.1255 1100.0463,.1255 1491.3936,.1255 1491.3936,.1255 1495.6435,.1255 1499.8934,-4.1244 1499.8934,-8.3743 1499.8934,-8.3743 1499.8934,-16.8742 1499.8934,-16.8742 1499.8934,-21.1241 1495.6435,-25.374 1491.3936,-25.374"/>
<text text-anchor="middle" x="1295.72" y="-9.2485" font-family="Arial" font-size="15.00" fill="#cfffac">../src/presenter/components/ecosystem/Me/Placeholder.tsx</text>
</g>
<!-- ../src/presenter/components/ecosystem/Me/Me.tsx&#45;&gt;../src/presenter/components/ecosystem/Me/Placeholder.tsx -->
<g id="edge16" class="edge">
<title>../src/presenter/components/ecosystem/Me/Me.tsx&#45;&gt;../src/presenter/components/ecosystem/Me/Placeholder.tsx</title>
<path fill="none" stroke="#757575" d="M1033.0991,-12.6243C1048.9801,-12.6243 1065.1777,-12.6243 1081.3403,-12.6243"/>
<polygon fill="#757575" stroke="#757575" points="1081.3962,-16.1244 1091.3961,-12.6243 1081.3961,-9.1244 1081.3962,-16.1244"/>
</g>
<!-- ../src/presenter/components/ecosystem/Me/index.ts -->
<g id="node19" class="node">
<title>../src/presenter/components/ecosystem/Me/index.ts</title>
<path fill="none" stroke="#c6c5fe" d="M558.6864,-26.374C558.6864,-26.374 217.4025,-26.374 217.4025,-26.374 213.1526,-26.374 208.9027,-22.1241 208.9027,-17.8742 208.9027,-17.8742 208.9027,-9.3743 208.9027,-9.3743 208.9027,-5.1244 213.1526,-.8745 217.4025,-.8745 217.4025,-.8745 558.6864,-.8745 558.6864,-.8745 562.9363,-.8745 567.1862,-5.1244 567.1862,-9.3743 567.1862,-9.3743 567.1862,-17.8742 567.1862,-17.8742 567.1862,-22.1241 562.9363,-26.374 558.6864,-26.374"/>
<text text-anchor="middle" x="388.0444" y="-10.2485" font-family="Arial" font-size="15.00" fill="#c6c5fe">../src/presenter/components/ecosystem/Me/index.ts</text>
</g>
<!-- ../src/presenter/components/ecosystem/Me/index.ts&#45;&gt;../src/presenter/components/ecosystem/Me/Me.tsx -->
<g id="edge17" class="edge">
<title>../src/presenter/components/ecosystem/Me/index.ts&#45;&gt;../src/presenter/components/ecosystem/Me/Me.tsx</title>
<path fill="none" stroke="#757575" d="M567.4604,-13.2419C601.4891,-13.1694 637.1605,-13.0934 671.3854,-13.0205"/>
<polygon fill="#757575" stroke="#757575" points="671.4829,-16.5204 681.4754,-12.999 671.4679,-9.5204 671.4829,-16.5204"/>
</g>
<!-- ../src/presenter/containers/ErrorBoundary.tsx -->
<g id="node20" class="node">
<title>../src/presenter/containers/ErrorBoundary.tsx</title>
<path fill="none" stroke="#cfffac" d="M536.3861,-197.374C536.3861,-197.374 239.7028,-197.374 239.7028,-197.374 235.4529,-197.374 231.2029,-193.1241 231.2029,-188.8742 231.2029,-188.8742 231.2029,-180.3743 231.2029,-180.3743 231.2029,-176.1244 235.4529,-171.8745 239.7028,-171.8745 239.7028,-171.8745 536.3861,-171.8745 536.3861,-171.8745 540.636,-171.8745 544.8859,-176.1244 544.8859,-180.3743 544.8859,-180.3743 544.8859,-188.8742 544.8859,-188.8742 544.8859,-193.1241 540.636,-197.374 536.3861,-197.374"/>
<text text-anchor="middle" x="388.0444" y="-181.2485" font-family="Arial" font-size="15.00" fill="#cfffac">../src/presenter/containers/ErrorBoundary.tsx</text>
</g>
<!-- _app.tsx -->
<g id="node21" class="node">
<title>_app.tsx</title>
<path fill="none" stroke="#c6c5fe" d="M86.1358,-197.374C86.1358,-197.374 30.7261,-197.374 30.7261,-197.374 26.4761,-197.374 22.2262,-193.1241 22.2262,-188.8742 22.2262,-188.8742 22.2262,-180.3743 22.2262,-180.3743 22.2262,-176.1244 26.4761,-171.8745 30.7261,-171.8745 30.7261,-171.8745 86.1358,-171.8745 86.1358,-171.8745 90.3857,-171.8745 94.6356,-176.1244 94.6356,-180.3743 94.6356,-180.3743 94.6356,-188.8742 94.6356,-188.8742 94.6356,-193.1241 90.3857,-197.374 86.1358,-197.374"/>
<text text-anchor="middle" x="58.4309" y="-181.2485" font-family="Arial" font-size="15.00" fill="#c6c5fe">_app.tsx</text>
</g>
<!-- _app.tsx&#45;&gt;../src/presenter/containers/ErrorBoundary.tsx -->
<g id="edge18" class="edge">
<title>_app.tsx&#45;&gt;../src/presenter/containers/ErrorBoundary.tsx</title>
<path fill="none" stroke="#757575" d="M94.6482,-184.6243C125.8742,-184.6243 173.3452,-184.6243 221.0596,-184.6243"/>
<polygon fill="#757575" stroke="#757575" points="221.2394,-188.1244 231.2393,-184.6243 221.2393,-181.1244 221.2394,-188.1244"/>
</g>
<!-- api/mock/me.ts -->
<g id="node22" class="node">
<title>api/mock/me.ts</title>
<path fill="none" stroke="#cfffac" d="M108.293,-240.374C108.293,-240.374 8.5689,-240.374 8.5689,-240.374 4.3189,-240.374 .069,-236.1241 .069,-231.8742 .069,-231.8742 .069,-223.3743 .069,-223.3743 .069,-219.1244 4.3189,-214.8745 8.5689,-214.8745 8.5689,-214.8745 108.293,-214.8745 108.293,-214.8745 112.5429,-214.8745 116.7928,-219.1244 116.7928,-223.3743 116.7928,-223.3743 116.7928,-231.8742 116.7928,-231.8742 116.7928,-236.1241 112.5429,-240.374 108.293,-240.374"/>
<text text-anchor="middle" x="58.4309" y="-224.2485" font-family="Arial" font-size="15.00" fill="#cfffac">api/mock/me.ts</text>
</g>
<!-- index.tsx -->
<g id="node23" class="node">
<title>index.tsx</title>
<path fill="none" stroke="#cfffac" d="M87.6256,-283.374C87.6256,-283.374 29.2362,-283.374 29.2362,-283.374 24.9862,-283.374 20.7363,-279.1241 20.7363,-274.8742 20.7363,-274.8742 20.7363,-266.3743 20.7363,-266.3743 20.7363,-262.1244 24.9862,-257.8745 29.2362,-257.8745 29.2362,-257.8745 87.6256,-257.8745 87.6256,-257.8745 91.8756,-257.8745 96.1255,-262.1244 96.1255,-266.3743 96.1255,-266.3743 96.1255,-274.8742 96.1255,-274.8742 96.1255,-279.1241 91.8756,-283.374 87.6256,-283.374"/>
<text text-anchor="middle" x="58.4309" y="-267.2485" font-family="Arial" font-size="15.00" fill="#cfffac">index.tsx</text>
</g>
<!-- me.tsx -->
<g id="node24" class="node">
<title>me.tsx</title>
<path fill="none" stroke="#c6c5fe" d="M80.1037,-68.374C80.1037,-68.374 36.7581,-68.374 36.7581,-68.374 32.5082,-68.374 28.2583,-64.1241 28.2583,-59.8742 28.2583,-59.8742 28.2583,-51.3743 28.2583,-51.3743 28.2583,-47.1244 32.5082,-42.8745 36.7581,-42.8745 36.7581,-42.8745 80.1037,-42.8745 80.1037,-42.8745 84.3536,-42.8745 88.6035,-47.1244 88.6035,-51.3743 88.6035,-51.3743 88.6035,-59.8742 88.6035,-59.8742 88.6035,-64.1241 84.3536,-68.374 80.1037,-68.374"/>
<text text-anchor="middle" x="58.4309" y="-52.2485" font-family="Arial" font-size="15.00" fill="#c6c5fe">me.tsx</text>
</g>
<!-- me.tsx&#45;&gt;../src/presenter/components/ecosystem/Me/ComponentInteractor.tsx -->
<g id="edge19" class="edge">
<title>me.tsx&#45;&gt;../src/presenter/components/ecosystem/Me/ComponentInteractor.tsx</title>
<path fill="none" stroke="#757575" d="M88.5557,-63.4842C143.0864,-77.7119 259.035,-107.9642 329.5901,-126.3729"/>
<polygon fill="#757575" stroke="#757575" points="329.0981,-129.8616 339.6578,-128.9996 330.8654,-123.0883 329.0981,-129.8616"/>
</g>
<!-- me.tsx&#45;&gt;../src/presenter/hooks/useReRender.ts -->
<g id="edge21" class="edge">
<title>me.tsx&#45;&gt;../src/presenter/hooks/useReRender.ts</title>
<path fill="none" stroke="#757575" d="M88.7722,-55.6243C189.5015,-55.6243 517.3684,-55.6243 710.7963,-55.6243"/>
<polygon fill="#757575" stroke="#757575" points="711.048,-59.1244 721.0479,-55.6243 711.0479,-52.1244 711.048,-59.1244"/>
</g>
<!-- me.tsx&#45;&gt;../src/presenter/components/ecosystem/Me/index.ts -->
<g id="edge20" class="edge">
<title>me.tsx&#45;&gt;../src/presenter/components/ecosystem/Me/index.ts</title>
<path fill="none" stroke="#757575" d="M88.5945,-50.9272C107.119,-48.0985 131.3419,-44.4999 152.8618,-41.6243 189.65,-36.7083 229.734,-31.778 266.216,-27.4546"/>
<polygon fill="#757575" stroke="#757575" points="266.8839,-30.9002 276.4046,-26.2518 266.0632,-23.9485 266.8839,-30.9002"/>
</g>
</g>
</svg>
