<?xml version="1.0" encoding="UTF-8" standalone="no"?>
<!DOCTYPE svg PUBLIC "-//W3C//DTD SVG 1.1//EN"
 "http://www.w3.org/Graphics/SVG/1.1/DTD/svg11.dtd">
<!-- Generated by graphviz version 2.40.1 (20161225.0304)
 -->
<!-- Title: G Pages: 1 -->
<svg width="2624pt" height="319pt"
 viewBox="0.00 0.00 2624.10 319.45" xmlns="http://www.w3.org/2000/svg" xmlns:xlink="http://www.w3.org/1999/xlink">
<g id="graph0" class="graph" transform="scale(1 1) rotate(0) translate(21.6 297.8485)">
<title>G</title>
<polygon fill="#111111" stroke="transparent" points="-21.6,21.6 -21.6,-297.8485 2602.4984,-297.8485 2602.4984,21.6 -21.6,21.6"/>
<!-- ../src/controller/me/index.ts -->
<g id="node1" class="node">
<title>../src/controller/me/index.ts</title>
<path fill="none" stroke="#c6c5fe" d="M421.4065,-111.374C421.4065,-111.374 242.9587,-111.374 242.9587,-111.374 238.7088,-111.374 234.4589,-107.1241 234.4589,-102.8742 234.4589,-102.8742 234.4589,-94.3743 234.4589,-94.3743 234.4589,-90.1244 238.7088,-85.8745 242.9587,-85.8745 242.9587,-85.8745 421.4065,-85.8745 421.4065,-85.8745 425.6565,-85.8745 429.9064,-90.1244 429.9064,-94.3743 429.9064,-94.3743 429.9064,-102.8742 429.9064,-102.8742 429.9064,-107.1241 425.6565,-111.374 421.4065,-111.374"/>
<text text-anchor="middle" x="332.1826" y="-95.2485" font-family="Arial" font-size="15.00" fill="#c6c5fe">../src/controller/me/index.ts</text>
</g>
<!-- ../src/controller/me/me.ts -->
<g id="node2" class="node">
<title>../src/controller/me/me.ts</title>
<path fill="none" stroke="#c6c5fe" d="M804.7652,-111.374C804.7652,-111.374 641.3613,-111.374 641.3613,-111.374 637.1114,-111.374 632.8615,-107.1241 632.8615,-102.8742 632.8615,-102.8742 632.8615,-94.3743 632.8615,-94.3743 632.8615,-90.1244 637.1114,-85.8745 641.3613,-85.8745 641.3613,-85.8745 804.7652,-85.8745 804.7652,-85.8745 809.0151,-85.8745 813.265,-90.1244 813.265,-94.3743 813.265,-94.3743 813.265,-102.8742 813.265,-102.8742 813.265,-107.1241 809.0151,-111.374 804.7652,-111.374"/>
<text text-anchor="middle" x="723.0632" y="-95.2485" font-family="Arial" font-size="15.00" fill="#c6c5fe">../src/controller/me/me.ts</text>
</g>
<!-- ../src/controller/me/index.ts&#45;&gt;../src/controller/me/me.ts -->
<g id="edge1" class="edge">
<title>../src/controller/me/index.ts&#45;&gt;../src/controller/me/me.ts</title>
<path fill="none" stroke="#757575" d="M429.81,-98.6243C488.5937,-98.6243 563.2837,-98.6243 622.5734,-98.6243"/>
<polygon fill="#757575" stroke="#757575" points="622.7027,-102.1244 632.7027,-98.6243 622.7026,-95.1244 622.7027,-102.1244"/>
</g>
<!-- ../src/useCase/useMe/index.ts -->
<g id="node3" class="node">
<title>../src/useCase/useMe/index.ts</title>
<path fill="none" stroke="#c6c5fe" d="M1238.8779,-111.374C1238.8779,-111.374 1039.0416,-111.374 1039.0416,-111.374 1034.7917,-111.374 1030.5417,-107.1241 1030.5417,-102.8742 1030.5417,-102.8742 1030.5417,-94.3743 1030.5417,-94.3743 1030.5417,-90.1244 1034.7917,-85.8745 1039.0416,-85.8745 1039.0416,-85.8745 1238.8779,-85.8745 1238.8779,-85.8745 1243.1278,-85.8745 1247.3777,-90.1244 1247.3777,-94.3743 1247.3777,-94.3743 1247.3777,-102.8742 1247.3777,-102.8742 1247.3777,-107.1241 1243.1278,-111.374 1238.8779,-111.374"/>
<text text-anchor="middle" x="1138.9597" y="-95.2485" font-family="Arial" font-size="15.00" fill="#c6c5fe">../src/useCase/useMe/index.ts</text>
</g>
<!-- ../src/controller/me/me.ts&#45;&gt;../src/useCase/useMe/index.ts -->
<g id="edge2" class="edge">
<title>../src/controller/me/me.ts&#45;&gt;../src/useCase/useMe/index.ts</title>
<path fill="none" stroke="#757575" d="M813.3066,-98.6243C873.9792,-98.6243 954.5847,-98.6243 1020.4212,-98.6243"/>
<polygon fill="#757575" stroke="#757575" points="1020.4388,-102.1244 1030.4388,-98.6243 1020.4388,-95.1244 1020.4388,-102.1244"/>
</g>
<!-- ../src/useCase/useMe/interactor.tsx -->
<g id="node20" class="node">
<title>../src/useCase/useMe/interactor.tsx</title>
<path fill="none" stroke="#c6c5fe" d="M1652.4615,-192.374C1652.4615,-192.374 1418.9453,-192.374 1418.9453,-192.374 1414.6953,-192.374 1410.4454,-188.1241 1410.4454,-183.8742 1410.4454,-183.8742 1410.4454,-175.3743 1410.4454,-175.3743 1410.4454,-171.1244 1414.6953,-166.8745 1418.9453,-166.8745 1418.9453,-166.8745 1652.4615,-166.8745 1652.4615,-166.8745 1656.7114,-166.8745 1660.9613,-171.1244 1660.9613,-175.3743 1660.9613,-175.3743 1660.9613,-183.8742 1660.9613,-183.8742 1660.9613,-188.1241 1656.7114,-192.374 1652.4615,-192.374"/>
<text text-anchor="middle" x="1535.7034" y="-176.2485" font-family="Arial" font-size="15.00" fill="#c6c5fe">../src/useCase/useMe/interactor.tsx</text>
</g>
<!-- ../src/useCase/useMe/index.ts&#45;&gt;../src/useCase/useMe/interactor.tsx -->
<g id="edge13" class="edge">
<title>../src/useCase/useMe/index.ts&#45;&gt;../src/useCase/useMe/interactor.tsx</title>
<path fill="none" stroke="#757575" d="M1200.9509,-111.2805C1272.1787,-125.8225 1388.8735,-149.6472 1463.9661,-164.9782"/>
<polygon fill="#757575" stroke="#757575" points="1463.3231,-168.4191 1473.8211,-166.9903 1464.7234,-161.5606 1463.3231,-168.4191"/>
</g>
<!-- ../src/useCase/useMe/useMe.ts -->
<g id="node21" class="node">
<title>../src/useCase/useMe/useMe.ts</title>
<path fill="none" stroke="#c6c5fe" d="M1640.2841,-111.374C1640.2841,-111.374 1431.1226,-111.374 1431.1226,-111.374 1426.8727,-111.374 1422.6228,-107.1241 1422.6228,-102.8742 1422.6228,-102.8742 1422.6228,-94.3743 1422.6228,-94.3743 1422.6228,-90.1244 1426.8727,-85.8745 1431.1226,-85.8745 1431.1226,-85.8745 1640.2841,-85.8745 1640.2841,-85.8745 1644.534,-85.8745 1648.7839,-90.1244 1648.7839,-94.3743 1648.7839,-94.3743 1648.7839,-102.8742 1648.7839,-102.8742 1648.7839,-107.1241 1644.534,-111.374 1640.2841,-111.374"/>
<text text-anchor="middle" x="1535.7034" y="-95.2485" font-family="Arial" font-size="15.00" fill="#c6c5fe">../src/useCase/useMe/useMe.ts</text>
</g>
<!-- ../src/useCase/useMe/index.ts&#45;&gt;../src/useCase/useMe/useMe.ts -->
<g id="edge14" class="edge">
<title>../src/useCase/useMe/index.ts&#45;&gt;../src/useCase/useMe/useMe.ts</title>
<path fill="none" stroke="#757575" d="M1247.634,-98.6243C1298.6055,-98.6243 1359.5854,-98.6243 1412.2891,-98.6243"/>
<polygon fill="#757575" stroke="#757575" points="1412.3712,-102.1244 1422.3712,-98.6243 1412.3711,-95.1244 1412.3712,-102.1244"/>
</g>
<!-- ../src/domain/me/index.ts -->
<g id="node4" class="node">
<title>../src/domain/me/index.ts</title>
<path fill="none" stroke="#c6c5fe" d="M2008.9173,-276.374C2008.9173,-276.374 1843.4596,-276.374 1843.4596,-276.374 1839.2097,-276.374 1834.9598,-272.1241 1834.9598,-267.8742 1834.9598,-267.8742 1834.9598,-259.3743 1834.9598,-259.3743 1834.9598,-255.1244 1839.2097,-250.8745 1843.4596,-250.8745 1843.4596,-250.8745 2008.9173,-250.8745 2008.9173,-250.8745 2013.1673,-250.8745 2017.4172,-255.1244 2017.4172,-259.3743 2017.4172,-259.3743 2017.4172,-267.8742 2017.4172,-267.8742 2017.4172,-272.1241 2013.1673,-276.374 2008.9173,-276.374"/>
<text text-anchor="middle" x="1926.1885" y="-260.2485" font-family="Arial" font-size="15.00" fill="#c6c5fe">../src/domain/me/index.ts</text>
</g>
<!-- ../src/domain/me/me.ts -->
<g id="node5" class="node">
<title>../src/domain/me/me.ts</title>
<path fill="none" stroke="#cfffac" d="M2340.1789,-276.374C2340.1789,-276.374 2189.765,-276.374 2189.765,-276.374 2185.515,-276.374 2181.2651,-272.1241 2181.2651,-267.8742 2181.2651,-267.8742 2181.2651,-259.3743 2181.2651,-259.3743 2181.2651,-255.1244 2185.515,-250.8745 2189.765,-250.8745 2189.765,-250.8745 2340.1789,-250.8745 2340.1789,-250.8745 2344.4288,-250.8745 2348.6787,-255.1244 2348.6787,-259.3743 2348.6787,-259.3743 2348.6787,-267.8742 2348.6787,-267.8742 2348.6787,-272.1241 2344.4288,-276.374 2340.1789,-276.374"/>
<text text-anchor="middle" x="2264.9719" y="-260.2485" font-family="Arial" font-size="15.00" fill="#cfffac">../src/domain/me/me.ts</text>
</g>
<!-- ../src/domain/me/index.ts&#45;&gt;../src/domain/me/me.ts -->
<g id="edge3" class="edge">
<title>../src/domain/me/index.ts&#45;&gt;../src/domain/me/me.ts</title>
<path fill="none" stroke="#757575" d="M2017.4219,-263.6243C2064.9934,-263.6243 2123.0983,-263.6243 2171.0568,-263.6243"/>
<polygon fill="#757575" stroke="#757575" points="2171.1292,-267.1244 2181.1291,-263.6243 2171.1291,-260.1244 2171.1292,-267.1244"/>
</g>
<!-- ../src/domain/me/type.ts -->
<g id="node6" class="node">
<title>../src/domain/me/type.ts</title>
<path fill="none" stroke="#cfffac" d="M2572.5093,-213.374C2572.5093,-213.374 2414.0664,-213.374 2414.0664,-213.374 2409.8164,-213.374 2405.5665,-209.1241 2405.5665,-204.8742 2405.5665,-204.8742 2405.5665,-196.3743 2405.5665,-196.3743 2405.5665,-192.1244 2409.8164,-187.8745 2414.0664,-187.8745 2414.0664,-187.8745 2572.5093,-187.8745 2572.5093,-187.8745 2576.7592,-187.8745 2581.0092,-192.1244 2581.0092,-196.3743 2581.0092,-196.3743 2581.0092,-204.8742 2581.0092,-204.8742 2581.0092,-209.1241 2576.7592,-213.374 2572.5093,-213.374"/>
<text text-anchor="middle" x="2493.2878" y="-197.2485" font-family="Arial" font-size="15.00" fill="#cfffac">../src/domain/me/type.ts</text>
</g>
<!-- ../src/domain/me/index.ts&#45;&gt;../src/domain/me/type.ts -->
<g id="edge4" class="edge">
<title>../src/domain/me/index.ts&#45;&gt;../src/domain/me/type.ts</title>
<path fill="none" stroke="#757575" d="M2017.4204,-254.1005C2051.0156,-250.5543 2089.3767,-246.4592 2124.2666,-242.6243 2216.0885,-232.5317 2320.7068,-220.5819 2395.0435,-212.0142"/>
<polygon fill="#757575" stroke="#757575" points="2395.7941,-215.451 2405.3273,-210.8283 2394.9921,-208.497 2395.7941,-215.451"/>
</g>
<!-- ../src/externalInterface/api/http/client/client.ts -->
<g id="node7" class="node">
<title>../src/externalInterface/api/http/client/client.ts</title>
<path fill="none" stroke="#cfffac" d="M2073.6603,-68.374C2073.6603,-68.374 1778.7166,-68.374 1778.7166,-68.374 1774.4667,-68.374 1770.2168,-64.1241 1770.2168,-59.8742 1770.2168,-59.8742 1770.2168,-51.3743 1770.2168,-51.3743 1770.2168,-47.1244 1774.4667,-42.8745 1778.7166,-42.8745 1778.7166,-42.8745 2073.6603,-42.8745 2073.6603,-42.8745 2077.9102,-42.8745 2082.1602,-47.1244 2082.1602,-51.3743 2082.1602,-51.3743 2082.1602,-59.8742 2082.1602,-59.8742 2082.1602,-64.1241 2077.9102,-68.374 2073.6603,-68.374"/>
<text text-anchor="middle" x="1926.1885" y="-52.2485" font-family="Arial" font-size="15.00" fill="#cfffac">../src/externalInterface/api/http/client/client.ts</text>
</g>
<!-- ../src/externalInterface/api/http/client/index.ts -->
<g id="node8" class="node">
<title>../src/externalInterface/api/http/client/index.ts</title>
<path fill="none" stroke="#c6c5fe" d="M1683.5175,-68.374C1683.5175,-68.374 1387.8892,-68.374 1387.8892,-68.374 1383.6393,-68.374 1379.3893,-64.1241 1379.3893,-59.8742 1379.3893,-59.8742 1379.3893,-51.3743 1379.3893,-51.3743 1379.3893,-47.1244 1383.6393,-42.8745 1387.8892,-42.8745 1387.8892,-42.8745 1683.5175,-42.8745 1683.5175,-42.8745 1687.7675,-42.8745 1692.0174,-47.1244 1692.0174,-51.3743 1692.0174,-51.3743 1692.0174,-59.8742 1692.0174,-59.8742 1692.0174,-64.1241 1687.7675,-68.374 1683.5175,-68.374"/>
<text text-anchor="middle" x="1535.7034" y="-52.2485" font-family="Arial" font-size="15.00" fill="#c6c5fe">../src/externalInterface/api/http/client/index.ts</text>
</g>
<!-- ../src/externalInterface/api/http/client/index.ts&#45;&gt;../src/externalInterface/api/http/client/client.ts -->
<g id="edge5" class="edge">
<title>../src/externalInterface/api/http/client/index.ts&#45;&gt;../src/externalInterface/api/http/client/client.ts</title>
<path fill="none" stroke="#757575" d="M1692.2786,-55.6243C1714.5426,-55.6243 1737.5053,-55.6243 1759.9453,-55.6243"/>
<polygon fill="#757575" stroke="#757575" points="1760.2145,-59.1244 1770.2145,-55.6243 1760.2144,-52.1244 1760.2145,-59.1244"/>
</g>
<!-- ../src/externalInterface/api/http/client/util.ts -->
<g id="node9" class="node">
<title>../src/externalInterface/api/http/client/util.ts</title>
<path fill="none" stroke="#cfffac" d="M1675.3329,-25.374C1675.3329,-25.374 1396.0738,-25.374 1396.0738,-25.374 1391.8239,-25.374 1387.5739,-21.1241 1387.5739,-16.8742 1387.5739,-16.8742 1387.5739,-8.3743 1387.5739,-8.3743 1387.5739,-4.1244 1391.8239,.1255 1396.0738,.1255 1396.0738,.1255 1675.3329,.1255 1675.3329,.1255 1679.5829,.1255 1683.8328,-4.1244 1683.8328,-8.3743 1683.8328,-8.3743 1683.8328,-16.8742 1683.8328,-16.8742 1683.8328,-21.1241 1679.5829,-25.374 1675.3329,-25.374"/>
<text text-anchor="middle" x="1535.7034" y="-9.2485" font-family="Arial" font-size="15.00" fill="#cfffac">../src/externalInterface/api/http/client/util.ts</text>
</g>
<!-- ../src/externalInterface/api/http/me.ts -->
<g id="node10" class="node">
<title>../src/externalInterface/api/http/me.ts</title>
<path fill="none" stroke="#c6c5fe" d="M1259.5676,-68.374C1259.5676,-68.374 1018.3518,-68.374 1018.3518,-68.374 1014.1019,-68.374 1009.852,-64.1241 1009.852,-59.8742 1009.852,-59.8742 1009.852,-51.3743 1009.852,-51.3743 1009.852,-47.1244 1014.1019,-42.8745 1018.3518,-42.8745 1018.3518,-42.8745 1259.5676,-42.8745 1259.5676,-42.8745 1263.8175,-42.8745 1268.0674,-47.1244 1268.0674,-51.3743 1268.0674,-51.3743 1268.0674,-59.8742 1268.0674,-59.8742 1268.0674,-64.1241 1263.8175,-68.374 1259.5676,-68.374"/>
<text text-anchor="middle" x="1138.9597" y="-52.2485" font-family="Arial" font-size="15.00" fill="#c6c5fe">../src/externalInterface/api/http/me.ts</text>
</g>
<!-- ../src/externalInterface/api/http/me.ts&#45;&gt;../src/externalInterface/api/http/client/index.ts -->
<g id="edge6" class="edge">
<title>../src/externalInterface/api/http/me.ts&#45;&gt;../src/externalInterface/api/http/client/index.ts</title>
<path fill="none" stroke="#757575" d="M1268.3195,-55.6243C1300.3908,-55.6243 1335.2113,-55.6243 1368.7971,-55.6243"/>
<polygon fill="#757575" stroke="#757575" points="1369.1763,-59.1244 1379.1762,-55.6243 1369.1762,-52.1244 1369.1763,-59.1244"/>
</g>
<!-- ../src/externalInterface/api/http/me.ts&#45;&gt;../src/externalInterface/api/http/client/util.ts -->
<g id="edge7" class="edge">
<title>../src/externalInterface/api/http/me.ts&#45;&gt;../src/externalInterface/api/http/client/util.ts</title>
<path fill="none" stroke="#757575" d="M1264.065,-42.9959C1290.2486,-40.2887 1317.6811,-37.4049 1343.2964,-34.6243 1367.1658,-32.0332 1392.6902,-29.1758 1417.0889,-26.4023"/>
<polygon fill="#757575" stroke="#757575" points="1417.5628,-29.871 1427.1024,-25.2616 1416.7705,-22.916 1417.5628,-29.871"/>
</g>
<!-- ../src/gateway/me/index.ts -->
<g id="node11" class="node">
<title>../src/gateway/me/index.ts</title>
<path fill="none" stroke="#c6c5fe" d="M418.5841,-68.374C418.5841,-68.374 245.7812,-68.374 245.7812,-68.374 241.5312,-68.374 237.2813,-64.1241 237.2813,-59.8742 237.2813,-59.8742 237.2813,-51.3743 237.2813,-51.3743 237.2813,-47.1244 241.5312,-42.8745 245.7812,-42.8745 245.7812,-42.8745 418.5841,-42.8745 418.5841,-42.8745 422.834,-42.8745 427.0839,-47.1244 427.0839,-51.3743 427.0839,-51.3743 427.0839,-59.8742 427.0839,-59.8742 427.0839,-64.1241 422.834,-68.374 418.5841,-68.374"/>
<text text-anchor="middle" x="332.1826" y="-52.2485" font-family="Arial" font-size="15.00" fill="#c6c5fe">../src/gateway/me/index.ts</text>
</g>
<!-- ../src/gateway/me/me.ts -->
<g id="node12" class="node">
<title>../src/gateway/me/me.ts</title>
<path fill="none" stroke="#c6c5fe" d="M801.9427,-68.374C801.9427,-68.374 644.1838,-68.374 644.1838,-68.374 639.9338,-68.374 635.6839,-64.1241 635.6839,-59.8742 635.6839,-59.8742 635.6839,-51.3743 635.6839,-51.3743 635.6839,-47.1244 639.9338,-42.8745 644.1838,-42.8745 644.1838,-42.8745 801.9427,-42.8745 801.9427,-42.8745 806.1926,-42.8745 810.4426,-47.1244 810.4426,-51.3743 810.4426,-51.3743 810.4426,-59.8742 810.4426,-59.8742 810.4426,-64.1241 806.1926,-68.374 801.9427,-68.374"/>
<text text-anchor="middle" x="723.0632" y="-52.2485" font-family="Arial" font-size="15.00" fill="#c6c5fe">../src/gateway/me/me.ts</text>
</g>
<!-- ../src/gateway/me/index.ts&#45;&gt;../src/gateway/me/me.ts -->
<g id="edge8" class="edge">
<title>../src/gateway/me/index.ts&#45;&gt;../src/gateway/me/me.ts</title>
<path fill="none" stroke="#757575" d="M427.3029,-55.6243C487.3306,-55.6243 564.6811,-55.6243 625.2222,-55.6243"/>
<polygon fill="#757575" stroke="#757575" points="625.554,-59.1244 635.554,-55.6243 625.554,-52.1244 625.554,-59.1244"/>
</g>
<!-- ../src/gateway/me/me.ts&#45;&gt;../src/externalInterface/api/http/me.ts -->
<g id="edge9" class="edge">
<title>../src/gateway/me/me.ts&#45;&gt;../src/externalInterface/api/http/me.ts</title>
<path fill="none" stroke="#757575" d="M810.5023,-55.6243C865.2324,-55.6243 936.9685,-55.6243 999.4341,-55.6243"/>
<polygon fill="#757575" stroke="#757575" points="999.7758,-59.1244 1009.7758,-55.6243 999.7758,-52.1244 999.7758,-59.1244"/>
</g>
<!-- ../src/presenter/components/ecosystem/Me/Content.tsx -->
<g id="node13" class="node">
<title>../src/presenter/components/ecosystem/Me/Content.tsx</title>
<path fill="none" stroke="#c6c5fe" d="M2109.0075,-233.374C2109.0075,-233.374 1743.3694,-233.374 1743.3694,-233.374 1739.1195,-233.374 1734.8696,-229.1241 1734.8696,-224.8742 1734.8696,-224.8742 1734.8696,-216.3743 1734.8696,-216.3743 1734.8696,-212.1244 1739.1195,-207.8745 1743.3694,-207.8745 1743.3694,-207.8745 2109.0075,-207.8745 2109.0075,-207.8745 2113.2574,-207.8745 2117.5074,-212.1244 2117.5074,-216.3743 2117.5074,-216.3743 2117.5074,-224.8742 2117.5074,-224.8742 2117.5074,-229.1241 2113.2574,-233.374 2109.0075,-233.374"/>
<text text-anchor="middle" x="1926.1885" y="-217.2485" font-family="Arial" font-size="15.00" fill="#c6c5fe">../src/presenter/components/ecosystem/Me/Content.tsx</text>
</g>
<!-- ../src/useCase/useMe/type.ts -->
<g id="node14" class="node">
<title>../src/useCase/useMe/type.ts</title>
<path fill="none" stroke="#c6c5fe" d="M2361.3831,-193.374C2361.3831,-193.374 2168.5607,-193.374 2168.5607,-193.374 2164.3108,-193.374 2160.0609,-189.1241 2160.0609,-184.8742 2160.0609,-184.8742 2160.0609,-176.3743 2160.0609,-176.3743 2160.0609,-172.1244 2164.3108,-167.8745 2168.5607,-167.8745 2168.5607,-167.8745 2361.3831,-167.8745 2361.3831,-167.8745 2365.633,-167.8745 2369.883,-172.1244 2369.883,-176.3743 2369.883,-176.3743 2369.883,-184.8742 2369.883,-184.8742 2369.883,-189.1241 2365.633,-193.374 2361.3831,-193.374"/>
<text text-anchor="middle" x="2264.9719" y="-177.2485" font-family="Arial" font-size="15.00" fill="#c6c5fe">../src/useCase/useMe/type.ts</text>
</g>
<!-- ../src/presenter/components/ecosystem/Me/Content.tsx&#45;&gt;../src/useCase/useMe/type.ts -->
<g id="edge10" class="edge">
<title>../src/presenter/components/ecosystem/Me/Content.tsx&#45;&gt;../src/useCase/useMe/type.ts</title>
<path fill="none" stroke="#757575" d="M2033.3817,-207.968C2070.5735,-203.5768 2112.4108,-198.6371 2150.1899,-194.1765"/>
<polygon fill="#757575" stroke="#757575" points="2150.6939,-197.6414 2160.2145,-192.9929 2149.8731,-190.6897 2150.6939,-197.6414"/>
</g>
<!-- ../src/useCase/useMe/type.ts&#45;&gt;../src/domain/me/type.ts -->
<g id="edge19" class="edge">
<title>../src/useCase/useMe/type.ts&#45;&gt;../src/domain/me/type.ts</title>
<path fill="none" stroke="#757575" d="M2369.7747,-189.8048C2378.2755,-190.5494 2386.846,-191.3002 2395.2959,-192.0404"/>
<polygon fill="#757575" stroke="#757575" points="2395.2629,-195.5508 2405.5302,-192.9369 2395.8738,-188.5775 2395.2629,-195.5508"/>
</g>
<!-- ../src/presenter/components/ecosystem/Me/Exception.tsx -->
<g id="node15" class="node">
<title>../src/presenter/components/ecosystem/Me/Exception.tsx</title>
<path fill="none" stroke="#cfffac" d="M2115.8449,-151.374C2115.8449,-151.374 1736.532,-151.374 1736.532,-151.374 1732.2821,-151.374 1728.0322,-147.1241 1728.0322,-142.8742 1728.0322,-142.8742 1728.0322,-134.3743 1728.0322,-134.3743 1728.0322,-130.1244 1732.2821,-125.8745 1736.532,-125.8745 1736.532,-125.8745 2115.8449,-125.8745 2115.8449,-125.8745 2120.0948,-125.8745 2124.3448,-130.1244 2124.3448,-134.3743 2124.3448,-134.3743 2124.3448,-142.8742 2124.3448,-142.8742 2124.3448,-147.1241 2120.0948,-151.374 2115.8449,-151.374"/>
<text text-anchor="middle" x="1926.1885" y="-135.2485" font-family="Arial" font-size="15.00" fill="#cfffac">../src/presenter/components/ecosystem/Me/Exception.tsx</text>
</g>
<!-- ../src/presenter/components/ecosystem/Me/Me.tsx -->
<g id="node16" class="node">
<title>../src/presenter/components/ecosystem/Me/Me.tsx</title>
<path fill="none" stroke="#c6c5fe" d="M890.183,-25.374C890.183,-25.374 555.9434,-25.374 555.9434,-25.374 551.6935,-25.374 547.4436,-21.1241 547.4436,-16.8742 547.4436,-16.8742 547.4436,-8.3743 547.4436,-8.3743 547.4436,-4.1244 551.6935,.1255 555.9434,.1255 555.9434,.1255 890.183,.1255 890.183,.1255 894.433,.1255 898.6829,-4.1244 898.6829,-8.3743 898.6829,-8.3743 898.6829,-16.8742 898.6829,-16.8742 898.6829,-21.1241 894.433,-25.374 890.183,-25.374"/>
<text text-anchor="middle" x="723.0632" y="-9.2485" font-family="Arial" font-size="15.00" fill="#c6c5fe">../src/presenter/components/ecosystem/Me/Me.tsx</text>
</g>
<!-- ../src/presenter/components/ecosystem/Me/Placeholder.tsx -->
<g id="node17" class="node">
<title>../src/presenter/components/ecosystem/Me/Placeholder.tsx</title>
<path fill="none" stroke="#cfffac" d="M1334.6333,-25.374C1334.6333,-25.374 943.2861,-25.374 943.2861,-25.374 939.0362,-25.374 934.7862,-21.1241 934.7862,-16.8742 934.7862,-16.8742 934.7862,-8.3743 934.7862,-8.3743 934.7862,-4.1244 939.0362,.1255 943.2861,.1255 943.2861,.1255 1334.6333,.1255 1334.6333,.1255 1338.8833,.1255 1343.1332,-4.1244 1343.1332,-8.3743 1343.1332,-8.3743 1343.1332,-16.8742 1343.1332,-16.8742 1343.1332,-21.1241 1338.8833,-25.374 1334.6333,-25.374"/>
<text text-anchor="middle" x="1138.9597" y="-9.2485" font-family="Arial" font-size="15.00" fill="#cfffac">../src/presenter/components/ecosystem/Me/Placeholder.tsx</text>
</g>
<!-- ../src/presenter/components/ecosystem/Me/Me.tsx&#45;&gt;../src/presenter/components/ecosystem/Me/Placeholder.tsx -->
<g id="edge11" class="edge">
<title>../src/presenter/components/ecosystem/Me/Me.tsx&#45;&gt;../src/presenter/components/ecosystem/Me/Placeholder.tsx</title>
<path fill="none" stroke="#757575" d="M898.838,-12.6243C907.3628,-12.6243 915.9616,-12.6243 924.5751,-12.6243"/>
<polygon fill="#757575" stroke="#757575" points="924.6899,-16.1244 934.6898,-12.6243 924.6898,-9.1244 924.6899,-16.1244"/>
</g>
<!-- ../src/presenter/components/ecosystem/Me/index.ts -->
<g id="node18" class="node">
<title>../src/presenter/components/ecosystem/Me/index.ts</title>
<path fill="none" stroke="#c6c5fe" d="M502.8246,-25.374C502.8246,-25.374 161.5407,-25.374 161.5407,-25.374 157.2908,-25.374 153.0408,-21.1241 153.0408,-16.8742 153.0408,-16.8742 153.0408,-8.3743 153.0408,-8.3743 153.0408,-4.1244 157.2908,.1255 161.5407,.1255 161.5407,.1255 502.8246,.1255 502.8246,.1255 507.0745,.1255 511.3244,-4.1244 511.3244,-8.3743 511.3244,-8.3743 511.3244,-16.8742 511.3244,-16.8742 511.3244,-21.1241 507.0745,-25.374 502.8246,-25.374"/>
<text text-anchor="middle" x="332.1826" y="-9.2485" font-family="Arial" font-size="15.00" fill="#c6c5fe">../src/presenter/components/ecosystem/Me/index.ts</text>
</g>
<!-- ../src/presenter/components/ecosystem/Me/index.ts&#45;&gt;../src/presenter/components/ecosystem/Me/Me.tsx -->
<g id="edge12" class="edge">
<title>../src/presenter/components/ecosystem/Me/index.ts&#45;&gt;../src/presenter/components/ecosystem/Me/Me.tsx</title>
<path fill="none" stroke="#757575" d="M511.6067,-12.6243C520.1896,-12.6243 528.8139,-12.6243 537.4129,-12.6243"/>
<polygon fill="#757575" stroke="#757575" points="537.4918,-16.1244 547.4917,-12.6243 537.4917,-9.1244 537.4918,-16.1244"/>
</g>
<!-- ../src/presenter/containers/ErrorBoundary.tsx -->
<g id="node19" class="node">
<title>../src/presenter/containers/ErrorBoundary.tsx</title>
<path fill="none" stroke="#cfffac" d="M480.5243,-154.374C480.5243,-154.374 183.841,-154.374 183.841,-154.374 179.591,-154.374 175.3411,-150.1241 175.3411,-145.8742 175.3411,-145.8742 175.3411,-137.3743 175.3411,-137.3743 175.3411,-133.1244 179.591,-128.8745 183.841,-128.8745 183.841,-128.8745 480.5243,-128.8745 480.5243,-128.8745 484.7742,-128.8745 489.0241,-133.1244 489.0241,-137.3743 489.0241,-137.3743 489.0241,-145.8742 489.0241,-145.8742 489.0241,-150.1241 484.7742,-154.374 480.5243,-154.374"/>
<text text-anchor="middle" x="332.1826" y="-138.2485" font-family="Arial" font-size="15.00" fill="#cfffac">../src/presenter/containers/ErrorBoundary.tsx</text>
</g>
<!-- ../src/useCase/useMe/interactor.tsx&#45;&gt;../src/domain/me/index.ts -->
<g id="edge15" class="edge">
<title>../src/useCase/useMe/interactor.tsx&#45;&gt;../src/domain/me/index.ts</title>
<path fill="none" stroke="#757575" d="M1567.4746,-192.3251C1605.1651,-206.8502 1670.1981,-230.2185 1728.1104,-242.6243 1759.2326,-249.2911 1793.5798,-253.8786 1824.8102,-257.0202"/>
<polygon fill="#757575" stroke="#757575" points="1824.5417,-260.5104 1834.8324,-257.9901 1825.2161,-253.543 1824.5417,-260.5104"/>
</g>
<!-- ../src/useCase/useMe/interactor.tsx&#45;&gt;../src/presenter/components/ecosystem/Me/Content.tsx -->
<g id="edge16" class="edge">
<title>../src/useCase/useMe/interactor.tsx&#45;&gt;../src/presenter/components/ecosystem/Me/Content.tsx</title>
<path fill="none" stroke="#757575" d="M1656.048,-192.2602C1700.3188,-196.9085 1750.6452,-202.1926 1795.7627,-206.9299"/>
<polygon fill="#757575" stroke="#757575" points="1795.5944,-210.4314 1805.9052,-207.9948 1796.3254,-203.4696 1795.5944,-210.4314"/>
</g>
<!-- ../src/useCase/useMe/interactor.tsx&#45;&gt;../src/useCase/useMe/type.ts -->
<g id="edge18" class="edge">
<title>../src/useCase/useMe/interactor.tsx&#45;&gt;../src/useCase/useMe/type.ts</title>
<path fill="none" stroke="#757575" d="M1661.0691,-179.7962C1798.3976,-179.9845 2016.7941,-180.284 2149.9012,-180.4665"/>
<polygon fill="#757575" stroke="#757575" points="2150.123,-183.9667 2160.1278,-180.4805 2150.1326,-176.9667 2150.123,-183.9667"/>
</g>
<!-- ../src/useCase/useMe/interactor.tsx&#45;&gt;../src/presenter/components/ecosystem/Me/Exception.tsx -->
<g id="edge17" class="edge">
<title>../src/useCase/useMe/interactor.tsx&#45;&gt;../src/presenter/components/ecosystem/Me/Exception.tsx</title>
<path fill="none" stroke="#757575" d="M1656.048,-166.9884C1700.3188,-162.34 1750.6452,-157.0559 1795.7627,-152.3187"/>
<polygon fill="#757575" stroke="#757575" points="1796.3254,-155.7789 1805.9052,-151.2537 1795.5944,-148.8172 1796.3254,-155.7789"/>
</g>
<!-- ../src/useCase/useMe/useMe.ts&#45;&gt;../src/useCase/useMe/type.ts -->
<g id="edge20" class="edge">
<title>../src/useCase/useMe/useMe.ts&#45;&gt;../src/useCase/useMe/type.ts</title>
<path fill="none" stroke="#757575" d="M1648.864,-89.0166C1768.6341,-81.8621 1962.3467,-78.9291 2124.2666,-116.6243 2164.6569,-126.0272 2207.555,-147.3984 2235.2159,-162.8627"/>
<polygon fill="#757575" stroke="#757575" points="2233.5646,-165.95 2243.9868,-167.8548 2237.0272,-159.8664 2233.5646,-165.95"/>
</g>
<!-- _app.tsx -->
<g id="node22" class="node">
<title>_app.tsx</title>
<path fill="none" stroke="#c6c5fe" d="M86.1358,-154.374C86.1358,-154.374 30.7261,-154.374 30.7261,-154.374 26.4761,-154.374 22.2262,-150.1241 22.2262,-145.8742 22.2262,-145.8742 22.2262,-137.3743 22.2262,-137.3743 22.2262,-133.1244 26.4761,-128.8745 30.7261,-128.8745 30.7261,-128.8745 86.1358,-128.8745 86.1358,-128.8745 90.3857,-128.8745 94.6356,-133.1244 94.6356,-137.3743 94.6356,-137.3743 94.6356,-145.8742 94.6356,-145.8742 94.6356,-150.1241 90.3857,-154.374 86.1358,-154.374"/>
<text text-anchor="middle" x="58.4309" y="-138.2485" font-family="Arial" font-size="15.00" fill="#c6c5fe">_app.tsx</text>
</g>
<!-- _app.tsx&#45;&gt;../src/presenter/containers/ErrorBoundary.tsx -->
<g id="edge21" class="edge">
<title>_app.tsx&#45;&gt;../src/presenter/containers/ErrorBoundary.tsx</title>
<path fill="none" stroke="#757575" d="M94.783,-141.6243C113.8699,-141.6243 138.769,-141.6243 165.2467,-141.6243"/>
<polygon fill="#757575" stroke="#757575" points="165.4631,-145.1244 175.4631,-141.6243 165.463,-138.1244 165.4631,-145.1244"/>
</g>
<!-- api/mock/me.ts -->
<g id="node23" class="node">
<title>api/mock/me.ts</title>
<path fill="none" stroke="#cfffac" d="M108.293,-197.374C108.293,-197.374 8.5689,-197.374 8.5689,-197.374 4.3189,-197.374 .069,-193.1241 .069,-188.8742 .069,-188.8742 .069,-180.3743 .069,-180.3743 .069,-176.1244 4.3189,-171.8745 8.5689,-171.8745 8.5689,-171.8745 108.293,-171.8745 108.293,-171.8745 112.5429,-171.8745 116.7928,-176.1244 116.7928,-180.3743 116.7928,-180.3743 116.7928,-188.8742 116.7928,-188.8742 116.7928,-193.1241 112.5429,-197.374 108.293,-197.374"/>
<text text-anchor="middle" x="58.4309" y="-181.2485" font-family="Arial" font-size="15.00" fill="#cfffac">api/mock/me.ts</text>
</g>
<!-- index.tsx -->
<g id="node24" class="node">
<title>index.tsx</title>
<path fill="none" stroke="#cfffac" d="M87.6256,-240.374C87.6256,-240.374 29.2362,-240.374 29.2362,-240.374 24.9862,-240.374 20.7363,-236.1241 20.7363,-231.8742 20.7363,-231.8742 20.7363,-223.3743 20.7363,-223.3743 20.7363,-219.1244 24.9862,-214.8745 29.2362,-214.8745 29.2362,-214.8745 87.6256,-214.8745 87.6256,-214.8745 91.8756,-214.8745 96.1255,-219.1244 96.1255,-223.3743 96.1255,-223.3743 96.1255,-231.8742 96.1255,-231.8742 96.1255,-236.1241 91.8756,-240.374 87.6256,-240.374"/>
<text text-anchor="middle" x="58.4309" y="-224.2485" font-family="Arial" font-size="15.00" fill="#cfffac">index.tsx</text>
</g>
<!-- me.tsx -->
<g id="node25" class="node">
<title>me.tsx</title>
<path fill="none" stroke="#c6c5fe" d="M80.1037,-68.374C80.1037,-68.374 36.7581,-68.374 36.7581,-68.374 32.5082,-68.374 28.2583,-64.1241 28.2583,-59.8742 28.2583,-59.8742 28.2583,-51.3743 28.2583,-51.3743 28.2583,-47.1244 32.5082,-42.8745 36.7581,-42.8745 36.7581,-42.8745 80.1037,-42.8745 80.1037,-42.8745 84.3536,-42.8745 88.6035,-47.1244 88.6035,-51.3743 88.6035,-51.3743 88.6035,-59.8742 88.6035,-59.8742 88.6035,-64.1241 84.3536,-68.374 80.1037,-68.374"/>
<text text-anchor="middle" x="58.4309" y="-52.2485" font-family="Arial" font-size="15.00" fill="#c6c5fe">me.tsx</text>
</g>
<!-- me.tsx&#45;&gt;../src/controller/me/index.ts -->
<g id="edge22" class="edge">
<title>me.tsx&#45;&gt;../src/controller/me/index.ts</title>
<path fill="none" stroke="#757575" d="M88.8729,-63.633C107.2898,-68.2486 131.3042,-73.863 152.8618,-77.6243 175.8276,-81.6312 200.5848,-85.0824 224.154,-87.9626"/>
<polygon fill="#757575" stroke="#757575" points="223.8286,-91.4485 234.1737,-89.1619 224.6606,-84.4981 223.8286,-91.4485"/>
</g>
<!-- me.tsx&#45;&gt;../src/gateway/me/index.ts -->
<g id="edge23" class="edge">
<title>me.tsx&#45;&gt;../src/gateway/me/index.ts</title>
<path fill="none" stroke="#757575" d="M88.7731,-55.6243C122.1135,-55.6243 177.5233,-55.6243 227.0603,-55.6243"/>
<polygon fill="#757575" stroke="#757575" points="227.2059,-59.1244 237.2058,-55.6243 227.2058,-52.1244 227.2059,-59.1244"/>
</g>
<!-- me.tsx&#45;&gt;../src/presenter/components/ecosystem/Me/index.ts -->
<g id="edge24" class="edge">
<title>me.tsx&#45;&gt;../src/presenter/components/ecosystem/Me/index.ts</title>
<path fill="none" stroke="#757575" d="M88.8729,-47.6155C107.2898,-42.9999 131.3042,-37.3855 152.8618,-33.6243 167.5532,-31.061 182.9776,-28.7252 198.3552,-26.6208"/>
<polygon fill="#757575" stroke="#757575" points="198.9978,-30.0661 208.4455,-25.2712 198.0697,-23.1278 198.9978,-30.0661"/>
</g>
</g>
</svg>
