<?xml version="1.0" encoding="UTF-8" standalone="no"?>
<!DOCTYPE svg PUBLIC "-//W3C//DTD SVG 1.1//EN"
 "http://www.w3.org/Graphics/SVG/1.1/DTD/svg11.dtd">
<!-- Generated by graphviz version 2.40.1 (20161225.0304)
 -->
<!-- Title: G Pages: 1 -->
<svg width="2083pt" height="472pt"
 viewBox="0.00 0.00 2083.28 471.98" xmlns="http://www.w3.org/2000/svg" xmlns:xlink="http://www.w3.org/1999/xlink">
<g id="graph0" class="graph" transform="scale(1 1) rotate(0) translate(21.6 450.3752)">
<title>G</title>
<polygon fill="#111111" stroke="transparent" points="-21.6,21.6 -21.6,-450.3752 2061.682,-450.3752 2061.682,21.6 -21.6,21.6"/>
<!-- ../src/domain/me/index.ts -->
<g id="node1" class="node">
<title>../src/domain/me/index.ts</title>
<path fill="none" stroke="#c6c5fe" d="M1221.6886,-213.9007C1221.6886,-213.9007 1056.2308,-213.9007 1056.2308,-213.9007 1051.9809,-213.9007 1047.731,-209.6508 1047.731,-205.4008 1047.731,-205.4008 1047.731,-196.901 1047.731,-196.901 1047.731,-192.6511 1051.9809,-188.4011 1056.2308,-188.4011 1056.2308,-188.4011 1221.6886,-188.4011 1221.6886,-188.4011 1225.9385,-188.4011 1230.1884,-192.6511 1230.1884,-196.901 1230.1884,-196.901 1230.1884,-205.4008 1230.1884,-205.4008 1230.1884,-209.6508 1225.9385,-213.9007 1221.6886,-213.9007"/>
<text text-anchor="middle" x="1138.9597" y="-197.7752" font-family="Arial" font-size="15.00" fill="#c6c5fe">../src/domain/me/index.ts</text>
</g>
<!-- ../src/domain/me/me.ts -->
<g id="node2" class="node">
<title>../src/domain/me/me.ts</title>
<path fill="none" stroke="#cfffac" d="M1610.9103,-215.9007C1610.9103,-215.9007 1460.4964,-215.9007 1460.4964,-215.9007 1456.2465,-215.9007 1451.9966,-211.6508 1451.9966,-207.4008 1451.9966,-207.4008 1451.9966,-198.901 1451.9966,-198.901 1451.9966,-194.6511 1456.2465,-190.4011 1460.4964,-190.4011 1460.4964,-190.4011 1610.9103,-190.4011 1610.9103,-190.4011 1615.1602,-190.4011 1619.4102,-194.6511 1619.4102,-198.901 1619.4102,-198.901 1619.4102,-207.4008 1619.4102,-207.4008 1619.4102,-211.6508 1615.1602,-215.9007 1610.9103,-215.9007"/>
<text text-anchor="middle" x="1535.7034" y="-199.7752" font-family="Arial" font-size="15.00" fill="#cfffac">../src/domain/me/me.ts</text>
</g>
<!-- ../src/domain/me/index.ts&#45;&gt;../src/domain/me/me.ts -->
<g id="edge1" class="edge">
<title>../src/domain/me/index.ts&#45;&gt;../src/domain/me/me.ts</title>
<path fill="none" stroke="#757575" d="M1230.4789,-201.6123C1293.7993,-201.9315 1377.8233,-202.355 1441.6802,-202.6769"/>
<polygon fill="#757575" stroke="#757575" points="1441.7319,-206.1771 1451.7495,-202.7277 1441.7673,-199.1772 1441.7319,-206.1771"/>
</g>
<!-- ../src/domain/me/type.ts -->
<g id="node3" class="node">
<title>../src/domain/me/type.ts</title>
<path fill="none" stroke="#cfffac" d="M1614.9249,-172.9007C1614.9249,-172.9007 1456.4819,-172.9007 1456.4819,-172.9007 1452.232,-172.9007 1447.982,-168.6508 1447.982,-164.4008 1447.982,-164.4008 1447.982,-155.901 1447.982,-155.901 1447.982,-151.6511 1452.232,-147.4011 1456.4819,-147.4011 1456.4819,-147.4011 1614.9249,-147.4011 1614.9249,-147.4011 1619.1748,-147.4011 1623.4247,-151.6511 1623.4247,-155.901 1623.4247,-155.901 1623.4247,-164.4008 1623.4247,-164.4008 1623.4247,-168.6508 1619.1748,-172.9007 1614.9249,-172.9007"/>
<text text-anchor="middle" x="1535.7034" y="-156.7752" font-family="Arial" font-size="15.00" fill="#cfffac">../src/domain/me/type.ts</text>
</g>
<!-- ../src/domain/me/index.ts&#45;&gt;../src/domain/me/type.ts -->
<g id="edge2" class="edge">
<title>../src/domain/me/index.ts&#45;&gt;../src/domain/me/type.ts</title>
<path fill="none" stroke="#757575" d="M1230.4789,-191.6932C1292.6046,-185.2731 1374.66,-176.7933 1438.0444,-170.2431"/>
<polygon fill="#757575" stroke="#757575" points="1438.4638,-173.7185 1448.051,-169.209 1437.7442,-166.7556 1438.4638,-173.7185"/>
</g>
<!-- ../src/externalInterface/api/http/client/client.ts -->
<g id="node4" class="node">
<title>../src/externalInterface/api/http/client/client.ts</title>
<path fill="none" stroke="#cfffac" d="M2031.568,-321.9007C2031.568,-321.9007 1736.6244,-321.9007 1736.6244,-321.9007 1732.3744,-321.9007 1728.1245,-317.6508 1728.1245,-313.4008 1728.1245,-313.4008 1728.1245,-304.901 1728.1245,-304.901 1728.1245,-300.6511 1732.3744,-296.4011 1736.6244,-296.4011 1736.6244,-296.4011 2031.568,-296.4011 2031.568,-296.4011 2035.8179,-296.4011 2040.0679,-300.6511 2040.0679,-304.901 2040.0679,-304.901 2040.0679,-313.4008 2040.0679,-313.4008 2040.0679,-317.6508 2035.8179,-321.9007 2031.568,-321.9007"/>
<text text-anchor="middle" x="1884.0962" y="-305.7752" font-family="Arial" font-size="15.00" fill="#cfffac">../src/externalInterface/api/http/client/client.ts</text>
</g>
<!-- ../src/externalInterface/api/http/client/index.ts -->
<g id="node5" class="node">
<title>../src/externalInterface/api/http/client/index.ts</title>
<path fill="none" stroke="#c6c5fe" d="M1683.5175,-321.9007C1683.5175,-321.9007 1387.8892,-321.9007 1387.8892,-321.9007 1383.6393,-321.9007 1379.3893,-317.6508 1379.3893,-313.4008 1379.3893,-313.4008 1379.3893,-304.901 1379.3893,-304.901 1379.3893,-300.6511 1383.6393,-296.4011 1387.8892,-296.4011 1387.8892,-296.4011 1683.5175,-296.4011 1683.5175,-296.4011 1687.7675,-296.4011 1692.0174,-300.6511 1692.0174,-304.901 1692.0174,-304.901 1692.0174,-313.4008 1692.0174,-313.4008 1692.0174,-317.6508 1687.7675,-321.9007 1683.5175,-321.9007"/>
<text text-anchor="middle" x="1535.7034" y="-305.7752" font-family="Arial" font-size="15.00" fill="#c6c5fe">../src/externalInterface/api/http/client/index.ts</text>
</g>
<!-- ../src/externalInterface/api/http/client/index.ts&#45;&gt;../src/externalInterface/api/http/client/client.ts -->
<g id="edge3" class="edge">
<title>../src/externalInterface/api/http/client/index.ts&#45;&gt;../src/externalInterface/api/http/client/client.ts</title>
<path fill="none" stroke="#757575" d="M1692.0657,-309.1509C1700.6468,-309.1509 1709.2863,-309.1509 1717.8996,-309.1509"/>
<polygon fill="#757575" stroke="#757575" points="1717.9938,-312.651 1727.9938,-309.1509 1717.9938,-305.651 1717.9938,-312.651"/>
</g>
<!-- ../src/externalInterface/api/http/client/util.ts -->
<g id="node6" class="node">
<title>../src/externalInterface/api/http/client/util.ts</title>
<path fill="none" stroke="#cfffac" d="M1675.3329,-278.9007C1675.3329,-278.9007 1396.0738,-278.9007 1396.0738,-278.9007 1391.8239,-278.9007 1387.5739,-274.6508 1387.5739,-270.4008 1387.5739,-270.4008 1387.5739,-261.901 1387.5739,-261.901 1387.5739,-257.6511 1391.8239,-253.4011 1396.0738,-253.4011 1396.0738,-253.4011 1675.3329,-253.4011 1675.3329,-253.4011 1679.5829,-253.4011 1683.8328,-257.6511 1683.8328,-261.901 1683.8328,-261.901 1683.8328,-270.4008 1683.8328,-270.4008 1683.8328,-274.6508 1679.5829,-278.9007 1675.3329,-278.9007"/>
<text text-anchor="middle" x="1535.7034" y="-262.7752" font-family="Arial" font-size="15.00" fill="#cfffac">../src/externalInterface/api/http/client/util.ts</text>
</g>
<!-- ../src/externalInterface/api/http/me.ts -->
<g id="node7" class="node">
<title>../src/externalInterface/api/http/me.ts</title>
<path fill="none" stroke="#c6c5fe" d="M1259.5676,-299.9007C1259.5676,-299.9007 1018.3518,-299.9007 1018.3518,-299.9007 1014.1019,-299.9007 1009.852,-295.6508 1009.852,-291.4008 1009.852,-291.4008 1009.852,-282.901 1009.852,-282.901 1009.852,-278.6511 1014.1019,-274.4011 1018.3518,-274.4011 1018.3518,-274.4011 1259.5676,-274.4011 1259.5676,-274.4011 1263.8175,-274.4011 1268.0674,-278.6511 1268.0674,-282.901 1268.0674,-282.901 1268.0674,-291.4008 1268.0674,-291.4008 1268.0674,-295.6508 1263.8175,-299.9007 1259.5676,-299.9007"/>
<text text-anchor="middle" x="1138.9597" y="-283.7752" font-family="Arial" font-size="15.00" fill="#c6c5fe">../src/externalInterface/api/http/me.ts</text>
</g>
<!-- ../src/externalInterface/api/http/me.ts&#45;&gt;../src/externalInterface/api/http/client/index.ts -->
<g id="edge4" class="edge">
<title>../src/externalInterface/api/http/me.ts&#45;&gt;../src/externalInterface/api/http/client/index.ts</title>
<path fill="none" stroke="#757575" d="M1268.3195,-294.3241C1300.3908,-296.1025 1335.2113,-298.0333 1368.7971,-299.8957"/>
<polygon fill="#757575" stroke="#757575" points="1368.9978,-303.4121 1379.1762,-300.4713 1369.3854,-296.4229 1368.9978,-303.4121"/>
</g>
<!-- ../src/externalInterface/api/http/me.ts&#45;&gt;../src/externalInterface/api/http/client/util.ts -->
<g id="edge5" class="edge">
<title>../src/externalInterface/api/http/me.ts&#45;&gt;../src/externalInterface/api/http/client/util.ts</title>
<path fill="none" stroke="#757575" d="M1268.3195,-280.3038C1303.1476,-278.4603 1341.2179,-276.4452 1377.4282,-274.5286"/>
<polygon fill="#757575" stroke="#757575" points="1377.7868,-278.0146 1387.5878,-273.9908 1377.4167,-271.0244 1377.7868,-278.0146"/>
</g>
<!-- ../src/gateway/me/index.ts -->
<g id="node8" class="node">
<title>../src/gateway/me/index.ts</title>
<path fill="none" stroke="#c6c5fe" d="M418.5841,-299.9007C418.5841,-299.9007 245.7812,-299.9007 245.7812,-299.9007 241.5312,-299.9007 237.2813,-295.6508 237.2813,-291.4008 237.2813,-291.4008 237.2813,-282.901 237.2813,-282.901 237.2813,-278.6511 241.5312,-274.4011 245.7812,-274.4011 245.7812,-274.4011 418.5841,-274.4011 418.5841,-274.4011 422.834,-274.4011 427.0839,-278.6511 427.0839,-282.901 427.0839,-282.901 427.0839,-291.4008 427.0839,-291.4008 427.0839,-295.6508 422.834,-299.9007 418.5841,-299.9007"/>
<text text-anchor="middle" x="332.1826" y="-283.7752" font-family="Arial" font-size="15.00" fill="#c6c5fe">../src/gateway/me/index.ts</text>
</g>
<!-- ../src/gateway/me/me.ts -->
<g id="node9" class="node">
<title>../src/gateway/me/me.ts</title>
<path fill="none" stroke="#c6c5fe" d="M801.9427,-299.9007C801.9427,-299.9007 644.1838,-299.9007 644.1838,-299.9007 639.9338,-299.9007 635.6839,-295.6508 635.6839,-291.4008 635.6839,-291.4008 635.6839,-282.901 635.6839,-282.901 635.6839,-278.6511 639.9338,-274.4011 644.1838,-274.4011 644.1838,-274.4011 801.9427,-274.4011 801.9427,-274.4011 806.1926,-274.4011 810.4426,-278.6511 810.4426,-282.901 810.4426,-282.901 810.4426,-291.4008 810.4426,-291.4008 810.4426,-295.6508 806.1926,-299.9007 801.9427,-299.9007"/>
<text text-anchor="middle" x="723.0632" y="-283.7752" font-family="Arial" font-size="15.00" fill="#c6c5fe">../src/gateway/me/me.ts</text>
</g>
<!-- ../src/gateway/me/index.ts&#45;&gt;../src/gateway/me/me.ts -->
<g id="edge6" class="edge">
<title>../src/gateway/me/index.ts&#45;&gt;../src/gateway/me/me.ts</title>
<path fill="none" stroke="#757575" d="M427.3029,-287.1509C487.3306,-287.1509 564.6811,-287.1509 625.2222,-287.1509"/>
<polygon fill="#757575" stroke="#757575" points="625.554,-290.651 635.554,-287.1509 625.554,-283.651 625.554,-290.651"/>
</g>
<!-- ../src/gateway/me/me.ts&#45;&gt;../src/externalInterface/api/http/me.ts -->
<g id="edge7" class="edge">
<title>../src/gateway/me/me.ts&#45;&gt;../src/externalInterface/api/http/me.ts</title>
<path fill="none" stroke="#757575" d="M810.5023,-287.1509C865.2324,-287.1509 936.9685,-287.1509 999.4341,-287.1509"/>
<polygon fill="#757575" stroke="#757575" points="999.7758,-290.651 1009.7758,-287.1509 999.7758,-283.651 999.7758,-290.651"/>
</g>
<!-- ../src/presenter/components/ecosystem/Me/Content.tsx -->
<g id="node10" class="node">
<title>../src/presenter/components/ecosystem/Me/Content.tsx</title>
<path fill="none" stroke="#c6c5fe" d="M1321.7788,-131.9007C1321.7788,-131.9007 956.1407,-131.9007 956.1407,-131.9007 951.8907,-131.9007 947.6408,-127.6508 947.6408,-123.4008 947.6408,-123.4008 947.6408,-114.901 947.6408,-114.901 947.6408,-110.6511 951.8907,-106.4011 956.1407,-106.4011 956.1407,-106.4011 1321.7788,-106.4011 1321.7788,-106.4011 1326.0287,-106.4011 1330.2786,-110.6511 1330.2786,-114.901 1330.2786,-114.901 1330.2786,-123.4008 1330.2786,-123.4008 1330.2786,-127.6508 1326.0287,-131.9007 1321.7788,-131.9007"/>
<text text-anchor="middle" x="1138.9597" y="-115.7752" font-family="Arial" font-size="15.00" fill="#c6c5fe">../src/presenter/components/ecosystem/Me/Content.tsx</text>
</g>
<!-- ../src/useCase/useMe/type.ts -->
<g id="node11" class="node">
<title>../src/useCase/useMe/type.ts</title>
<path fill="none" stroke="#cfffac" d="M1632.1146,-90.9007C1632.1146,-90.9007 1439.2922,-90.9007 1439.2922,-90.9007 1435.0422,-90.9007 1430.7923,-86.6508 1430.7923,-82.4008 1430.7923,-82.4008 1430.7923,-73.901 1430.7923,-73.901 1430.7923,-69.6511 1435.0422,-65.4011 1439.2922,-65.4011 1439.2922,-65.4011 1632.1146,-65.4011 1632.1146,-65.4011 1636.3645,-65.4011 1640.6144,-69.6511 1640.6144,-73.901 1640.6144,-73.901 1640.6144,-82.4008 1640.6144,-82.4008 1640.6144,-86.6508 1636.3645,-90.9007 1632.1146,-90.9007"/>
<text text-anchor="middle" x="1535.7034" y="-74.7752" font-family="Arial" font-size="15.00" fill="#cfffac">../src/useCase/useMe/type.ts</text>
</g>
<!-- ../src/presenter/components/ecosystem/Me/Content.tsx&#45;&gt;../src/useCase/useMe/type.ts -->
<g id="edge8" class="edge">
<title>../src/presenter/components/ecosystem/Me/Content.tsx&#45;&gt;../src/useCase/useMe/type.ts</title>
<path fill="none" stroke="#757575" d="M1261.2332,-106.515C1312.0352,-101.2651 1370.6856,-95.2041 1420.6954,-90.036"/>
<polygon fill="#757575" stroke="#757575" points="1421.3159,-93.4906 1430.9031,-88.9811 1420.5963,-86.5277 1421.3159,-93.4906"/>
</g>
<!-- ../src/presenter/components/ecosystem/Me/Exception.tsx -->
<g id="node12" class="node">
<title>../src/presenter/components/ecosystem/Me/Exception.tsx</title>
<path fill="none" stroke="#cfffac" d="M1328.6162,-49.9007C1328.6162,-49.9007 949.3033,-49.9007 949.3033,-49.9007 945.0534,-49.9007 940.8034,-45.6508 940.8034,-41.4008 940.8034,-41.4008 940.8034,-32.901 940.8034,-32.901 940.8034,-28.6511 945.0534,-24.4011 949.3033,-24.4011 949.3033,-24.4011 1328.6162,-24.4011 1328.6162,-24.4011 1332.8661,-24.4011 1337.116,-28.6511 1337.116,-32.901 1337.116,-32.901 1337.116,-41.4008 1337.116,-41.4008 1337.116,-45.6508 1332.8661,-49.9007 1328.6162,-49.9007"/>
<text text-anchor="middle" x="1138.9597" y="-33.7752" font-family="Arial" font-size="15.00" fill="#cfffac">../src/presenter/components/ecosystem/Me/Exception.tsx</text>
</g>
<!-- ../src/presenter/components/ecosystem/Me/Me.tsx -->
<g id="node13" class="node">
<title>../src/presenter/components/ecosystem/Me/Me.tsx</title>
<path fill="none" stroke="#c6c5fe" d="M890.183,-256.9007C890.183,-256.9007 555.9434,-256.9007 555.9434,-256.9007 551.6935,-256.9007 547.4436,-252.6508 547.4436,-248.4008 547.4436,-248.4008 547.4436,-239.901 547.4436,-239.901 547.4436,-235.6511 551.6935,-231.4011 555.9434,-231.4011 555.9434,-231.4011 890.183,-231.4011 890.183,-231.4011 894.433,-231.4011 898.6829,-235.6511 898.6829,-239.901 898.6829,-239.901 898.6829,-248.4008 898.6829,-248.4008 898.6829,-252.6508 894.433,-256.9007 890.183,-256.9007"/>
<text text-anchor="middle" x="723.0632" y="-240.7752" font-family="Arial" font-size="15.00" fill="#c6c5fe">../src/presenter/components/ecosystem/Me/Me.tsx</text>
</g>
<!-- ../src/presenter/components/ecosystem/Me/Placeholder.tsx -->
<g id="node14" class="node">
<title>../src/presenter/components/ecosystem/Me/Placeholder.tsx</title>
<path fill="none" stroke="#cfffac" d="M1334.6333,-256.9007C1334.6333,-256.9007 943.2861,-256.9007 943.2861,-256.9007 939.0362,-256.9007 934.7862,-252.6508 934.7862,-248.4008 934.7862,-248.4008 934.7862,-239.901 934.7862,-239.901 934.7862,-235.6511 939.0362,-231.4011 943.2861,-231.4011 943.2861,-231.4011 1334.6333,-231.4011 1334.6333,-231.4011 1338.8833,-231.4011 1343.1332,-235.6511 1343.1332,-239.901 1343.1332,-239.901 1343.1332,-248.4008 1343.1332,-248.4008 1343.1332,-252.6508 1338.8833,-256.9007 1334.6333,-256.9007"/>
<text text-anchor="middle" x="1138.9597" y="-240.7752" font-family="Arial" font-size="15.00" fill="#cfffac">../src/presenter/components/ecosystem/Me/Placeholder.tsx</text>
</g>
<!-- ../src/presenter/components/ecosystem/Me/Me.tsx&#45;&gt;../src/presenter/components/ecosystem/Me/Placeholder.tsx -->
<g id="edge9" class="edge">
<title>../src/presenter/components/ecosystem/Me/Me.tsx&#45;&gt;../src/presenter/components/ecosystem/Me/Placeholder.tsx</title>
<path fill="none" stroke="#757575" d="M898.838,-244.1509C907.3628,-244.1509 915.9616,-244.1509 924.5751,-244.1509"/>
<polygon fill="#757575" stroke="#757575" points="924.6899,-247.651 934.6898,-244.1509 924.6898,-240.651 924.6899,-247.651"/>
</g>
<!-- ../src/presenter/components/ecosystem/Me/index.ts -->
<g id="node15" class="node">
<title>../src/presenter/components/ecosystem/Me/index.ts</title>
<path fill="none" stroke="#c6c5fe" d="M502.8246,-256.9007C502.8246,-256.9007 161.5407,-256.9007 161.5407,-256.9007 157.2908,-256.9007 153.0408,-252.6508 153.0408,-248.4008 153.0408,-248.4008 153.0408,-239.901 153.0408,-239.901 153.0408,-235.6511 157.2908,-231.4011 161.5407,-231.4011 161.5407,-231.4011 502.8246,-231.4011 502.8246,-231.4011 507.0745,-231.4011 511.3244,-235.6511 511.3244,-239.901 511.3244,-239.901 511.3244,-248.4008 511.3244,-248.4008 511.3244,-252.6508 507.0745,-256.9007 502.8246,-256.9007"/>
<text text-anchor="middle" x="332.1826" y="-240.7752" font-family="Arial" font-size="15.00" fill="#c6c5fe">../src/presenter/components/ecosystem/Me/index.ts</text>
</g>
<!-- ../src/presenter/components/ecosystem/Me/index.ts&#45;&gt;../src/presenter/components/ecosystem/Me/Me.tsx -->
<g id="edge10" class="edge">
<title>../src/presenter/components/ecosystem/Me/index.ts&#45;&gt;../src/presenter/components/ecosystem/Me/Me.tsx</title>
<path fill="none" stroke="#757575" d="M511.6067,-244.1509C520.1896,-244.1509 528.8139,-244.1509 537.4129,-244.1509"/>
<polygon fill="#757575" stroke="#757575" points="537.4918,-247.651 547.4917,-244.1509 537.4917,-240.651 537.4918,-247.651"/>
</g>
<!-- ../src/presenter/containers/ErrorBoundary.tsx -->
<g id="node16" class="node">
<title>../src/presenter/containers/ErrorBoundary.tsx</title>
<path fill="none" stroke="#cfffac" d="M480.5243,-342.9007C480.5243,-342.9007 183.841,-342.9007 183.841,-342.9007 179.591,-342.9007 175.3411,-338.6508 175.3411,-334.4008 175.3411,-334.4008 175.3411,-325.901 175.3411,-325.901 175.3411,-321.6511 179.591,-317.4011 183.841,-317.4011 183.841,-317.4011 480.5243,-317.4011 480.5243,-317.4011 484.7742,-317.4011 489.0241,-321.6511 489.0241,-325.901 489.0241,-325.901 489.0241,-334.4008 489.0241,-334.4008 489.0241,-338.6508 484.7742,-342.9007 480.5243,-342.9007"/>
<text text-anchor="middle" x="332.1826" y="-326.7752" font-family="Arial" font-size="15.00" fill="#cfffac">../src/presenter/containers/ErrorBoundary.tsx</text>
</g>
<!-- ../src/useCase/useMe/index.ts -->
<g id="node17" class="node">
<title>../src/useCase/useMe/index.ts</title>
<path fill="none" stroke="#c6c5fe" d="M432.1008,-131.9007C432.1008,-131.9007 232.2645,-131.9007 232.2645,-131.9007 228.0146,-131.9007 223.7646,-127.6508 223.7646,-123.4008 223.7646,-123.4008 223.7646,-114.901 223.7646,-114.901 223.7646,-110.6511 228.0146,-106.4011 232.2645,-106.4011 232.2645,-106.4011 432.1008,-106.4011 432.1008,-106.4011 436.3507,-106.4011 440.6006,-110.6511 440.6006,-114.901 440.6006,-114.901 440.6006,-123.4008 440.6006,-123.4008 440.6006,-127.6508 436.3507,-131.9007 432.1008,-131.9007"/>
<text text-anchor="middle" x="332.1826" y="-115.7752" font-family="Arial" font-size="15.00" fill="#c6c5fe">../src/useCase/useMe/index.ts</text>
</g>
<!-- ../src/useCase/useMe/interactor.tsx -->
<g id="node18" class="node">
<title>../src/useCase/useMe/interactor.tsx</title>
<path fill="none" stroke="#c6c5fe" d="M839.8213,-131.9007C839.8213,-131.9007 606.3051,-131.9007 606.3051,-131.9007 602.0552,-131.9007 597.8053,-127.6508 597.8053,-123.4008 597.8053,-123.4008 597.8053,-114.901 597.8053,-114.901 597.8053,-110.6511 602.0552,-106.4011 606.3051,-106.4011 606.3051,-106.4011 839.8213,-106.4011 839.8213,-106.4011 844.0713,-106.4011 848.3212,-110.6511 848.3212,-114.901 848.3212,-114.901 848.3212,-123.4008 848.3212,-123.4008 848.3212,-127.6508 844.0713,-131.9007 839.8213,-131.9007"/>
<text text-anchor="middle" x="723.0632" y="-115.7752" font-family="Arial" font-size="15.00" fill="#c6c5fe">../src/useCase/useMe/interactor.tsx</text>
</g>
<!-- ../src/useCase/useMe/index.ts&#45;&gt;../src/useCase/useMe/interactor.tsx -->
<g id="edge11" class="edge">
<title>../src/useCase/useMe/index.ts&#45;&gt;../src/useCase/useMe/interactor.tsx</title>
<path fill="none" stroke="#757575" d="M440.805,-119.1509C486.2569,-119.1509 539.5713,-119.1509 587.551,-119.1509"/>
<polygon fill="#757575" stroke="#757575" points="587.7036,-122.651 597.7036,-119.1509 587.7036,-115.651 587.7036,-122.651"/>
</g>
<!-- ../src/useCase/useMe/useMe.ts -->
<g id="node19" class="node">
<title>../src/useCase/useMe/useMe.ts</title>
<path fill="none" stroke="#c6c5fe" d="M827.644,-48.9007C827.644,-48.9007 618.4825,-48.9007 618.4825,-48.9007 614.2326,-48.9007 609.9827,-44.6508 609.9827,-40.4008 609.9827,-40.4008 609.9827,-31.901 609.9827,-31.901 609.9827,-27.6511 614.2326,-23.4011 618.4825,-23.4011 618.4825,-23.4011 827.644,-23.4011 827.644,-23.4011 831.8939,-23.4011 836.1438,-27.6511 836.1438,-31.901 836.1438,-31.901 836.1438,-40.4008 836.1438,-40.4008 836.1438,-44.6508 831.8939,-48.9007 827.644,-48.9007"/>
<text text-anchor="middle" x="723.0632" y="-32.7752" font-family="Arial" font-size="15.00" fill="#c6c5fe">../src/useCase/useMe/useMe.ts</text>
</g>
<!-- ../src/useCase/useMe/index.ts&#45;&gt;../src/useCase/useMe/useMe.ts -->
<g id="edge12" class="edge">
<title>../src/useCase/useMe/index.ts&#45;&gt;../src/useCase/useMe/useMe.ts</title>
<path fill="none" stroke="#757575" d="M391.9745,-106.4547C462.3403,-91.5131 578.9974,-66.742 653.391,-50.9452"/>
<polygon fill="#757575" stroke="#757575" points="654.5436,-54.2786 663.5985,-48.7777 653.0896,-47.4312 654.5436,-54.2786"/>
</g>
<!-- ../src/useCase/useMe/interactor.tsx&#45;&gt;../src/domain/me/index.ts -->
<g id="edge13" class="edge">
<title>../src/useCase/useMe/interactor.tsx&#45;&gt;../src/domain/me/index.ts</title>
<path fill="none" stroke="#757575" d="M765.6592,-131.8748C808.1332,-144.17 875.4012,-162.5857 934.623,-174.1509 967.8828,-180.6461 1004.4985,-186.0307 1037.4355,-190.2375"/>
<polygon fill="#757575" stroke="#757575" points="1037.1732,-193.732 1047.5314,-191.5052 1038.0454,-186.7865 1037.1732,-193.732"/>
</g>
<!-- ../src/useCase/useMe/interactor.tsx&#45;&gt;../src/domain/me/type.ts -->
<g id="edge14" class="edge">
<title>../src/useCase/useMe/interactor.tsx&#45;&gt;../src/domain/me/type.ts</title>
<path fill="none" stroke="#757575" d="M830.0175,-131.786C863.4708,-135.3311 900.5434,-138.8433 934.623,-141.1509 1111.7541,-153.1447 1318.773,-157.5881 1437.8233,-159.2197"/>
<polygon fill="#757575" stroke="#757575" points="1437.9598,-162.7218 1448.0056,-159.3554 1438.0531,-155.7224 1437.9598,-162.7218"/>
</g>
<!-- ../src/useCase/useMe/interactor.tsx&#45;&gt;../src/presenter/components/ecosystem/Me/Content.tsx -->
<g id="edge15" class="edge">
<title>../src/useCase/useMe/interactor.tsx&#45;&gt;../src/presenter/components/ecosystem/Me/Content.tsx</title>
<path fill="none" stroke="#757575" d="M848.4099,-119.1509C876.4523,-119.1509 906.8876,-119.1509 937.1496,-119.1509"/>
<polygon fill="#757575" stroke="#757575" points="937.402,-122.651 947.4019,-119.1509 937.4019,-115.651 937.402,-122.651"/>
</g>
<!-- ../src/useCase/useMe/interactor.tsx&#45;&gt;../src/useCase/useMe/type.ts -->
<g id="edge17" class="edge">
<title>../src/useCase/useMe/interactor.tsx&#45;&gt;../src/useCase/useMe/type.ts</title>
<path fill="none" stroke="#757575" d="M830.0175,-106.5159C863.4708,-102.9708 900.5434,-99.4585 934.623,-97.1509 1103.5733,-85.7111 1299.7144,-81.1403 1420.7769,-79.3266"/>
<polygon fill="#757575" stroke="#757575" points="1420.8589,-82.8259 1430.8067,-79.1801 1420.7566,-75.8266 1420.8589,-82.8259"/>
</g>
<!-- ../src/useCase/useMe/interactor.tsx&#45;&gt;../src/presenter/components/ecosystem/Me/Exception.tsx -->
<g id="edge16" class="edge">
<title>../src/useCase/useMe/interactor.tsx&#45;&gt;../src/presenter/components/ecosystem/Me/Exception.tsx</title>
<path fill="none" stroke="#757575" d="M765.6592,-106.4271C808.1332,-94.1318 875.4012,-75.7161 934.623,-64.1509 960.237,-59.1489 987.8413,-54.8055 1014.2229,-51.1515"/>
<polygon fill="#757575" stroke="#757575" points="1014.8305,-54.6011 1024.2673,-49.7848 1013.8868,-47.665 1014.8305,-54.6011"/>
</g>
<!-- ../src/useCase/useMe/useMe.ts&#45;&gt;../src/useCase/useMe/type.ts -->
<g id="edge18" class="edge">
<title>../src/useCase/useMe/useMe.ts&#45;&gt;../src/useCase/useMe/type.ts</title>
<path fill="none" stroke="#757575" d="M804.9563,-23.483C924.2235,-7.2645 1152.3166,15.3195 1343.2964,-15.1509 1398.2596,-23.9202 1458.8439,-45.9452 1497.0661,-61.4721"/>
<polygon fill="#757575" stroke="#757575" points="1496.1779,-64.8915 1506.7572,-65.4648 1498.8445,-58.4193 1496.1779,-64.8915"/>
</g>
<!-- _app.tsx -->
<g id="node20" class="node">
<title>_app.tsx</title>
<path fill="none" stroke="#c6c5fe" d="M86.1358,-342.9007C86.1358,-342.9007 30.7261,-342.9007 30.7261,-342.9007 26.4761,-342.9007 22.2262,-338.6508 22.2262,-334.4008 22.2262,-334.4008 22.2262,-325.901 22.2262,-325.901 22.2262,-321.6511 26.4761,-317.4011 30.7261,-317.4011 30.7261,-317.4011 86.1358,-317.4011 86.1358,-317.4011 90.3857,-317.4011 94.6356,-321.6511 94.6356,-325.901 94.6356,-325.901 94.6356,-334.4008 94.6356,-334.4008 94.6356,-338.6508 90.3857,-342.9007 86.1358,-342.9007"/>
<text text-anchor="middle" x="58.4309" y="-326.7752" font-family="Arial" font-size="15.00" fill="#c6c5fe">_app.tsx</text>
</g>
<!-- _app.tsx&#45;&gt;../src/presenter/containers/ErrorBoundary.tsx -->
<g id="edge19" class="edge">
<title>_app.tsx&#45;&gt;../src/presenter/containers/ErrorBoundary.tsx</title>
<path fill="none" stroke="#757575" d="M94.783,-330.1509C113.8699,-330.1509 138.769,-330.1509 165.2467,-330.1509"/>
<polygon fill="#757575" stroke="#757575" points="165.4631,-333.651 175.4631,-330.1509 165.463,-326.651 165.4631,-333.651"/>
</g>
<!-- api/mock/me.ts -->
<g id="node21" class="node">
<title>api/mock/me.ts</title>
<path fill="none" stroke="#cfffac" d="M108.293,-385.9007C108.293,-385.9007 8.5689,-385.9007 8.5689,-385.9007 4.3189,-385.9007 .069,-381.6508 .069,-377.4008 .069,-377.4008 .069,-368.901 .069,-368.901 .069,-364.6511 4.3189,-360.4011 8.5689,-360.4011 8.5689,-360.4011 108.293,-360.4011 108.293,-360.4011 112.5429,-360.4011 116.7928,-364.6511 116.7928,-368.901 116.7928,-368.901 116.7928,-377.4008 116.7928,-377.4008 116.7928,-381.6508 112.5429,-385.9007 108.293,-385.9007"/>
<text text-anchor="middle" x="58.4309" y="-369.7752" font-family="Arial" font-size="15.00" fill="#cfffac">api/mock/me.ts</text>
</g>
<!-- index.tsx -->
<g id="node22" class="node">
<title>index.tsx</title>
<path fill="none" stroke="#cfffac" d="M87.6256,-428.9007C87.6256,-428.9007 29.2362,-428.9007 29.2362,-428.9007 24.9862,-428.9007 20.7363,-424.6508 20.7363,-420.4008 20.7363,-420.4008 20.7363,-411.901 20.7363,-411.901 20.7363,-407.6511 24.9862,-403.4011 29.2362,-403.4011 29.2362,-403.4011 87.6256,-403.4011 87.6256,-403.4011 91.8756,-403.4011 96.1255,-407.6511 96.1255,-411.901 96.1255,-411.901 96.1255,-420.4008 96.1255,-420.4008 96.1255,-424.6508 91.8756,-428.9007 87.6256,-428.9007"/>
<text text-anchor="middle" x="58.4309" y="-412.7752" font-family="Arial" font-size="15.00" fill="#cfffac">index.tsx</text>
</g>
<!-- me.tsx -->
<g id="node23" class="node">
<title>me.tsx</title>
<path fill="none" stroke="#c6c5fe" d="M80.1037,-256.9007C80.1037,-256.9007 36.7581,-256.9007 36.7581,-256.9007 32.5082,-256.9007 28.2583,-252.6508 28.2583,-248.4008 28.2583,-248.4008 28.2583,-239.901 28.2583,-239.901 28.2583,-235.6511 32.5082,-231.4011 36.7581,-231.4011 36.7581,-231.4011 80.1037,-231.4011 80.1037,-231.4011 84.3536,-231.4011 88.6035,-235.6511 88.6035,-239.901 88.6035,-239.901 88.6035,-248.4008 88.6035,-248.4008 88.6035,-252.6508 84.3536,-256.9007 80.1037,-256.9007"/>
<text text-anchor="middle" x="58.4309" y="-240.7752" font-family="Arial" font-size="15.00" fill="#c6c5fe">me.tsx</text>
</g>
<!-- me.tsx&#45;&gt;../src/gateway/me/index.ts -->
<g id="edge20" class="edge">
<title>me.tsx&#45;&gt;../src/gateway/me/index.ts</title>
<path fill="none" stroke="#757575" d="M88.8729,-252.1597C107.2898,-256.7752 131.3042,-262.3897 152.8618,-266.1509 176.88,-270.3414 202.8575,-273.9242 227.3864,-276.8816"/>
<polygon fill="#757575" stroke="#757575" points="227.092,-280.3711 237.4336,-278.0683 227.9132,-273.4194 227.092,-280.3711"/>
</g>
<!-- me.tsx&#45;&gt;../src/presenter/components/ecosystem/Me/index.ts -->
<g id="edge21" class="edge">
<title>me.tsx&#45;&gt;../src/presenter/components/ecosystem/Me/index.ts</title>
<path fill="none" stroke="#757575" d="M88.7731,-244.1509C103.3084,-244.1509 122.0384,-244.1509 142.6476,-244.1509"/>
<polygon fill="#757575" stroke="#757575" points="142.9057,-247.651 152.9057,-244.1509 142.9057,-240.651 142.9057,-247.651"/>
</g>
<!-- me.tsx&#45;&gt;../src/useCase/useMe/index.ts -->
<g id="edge22" class="edge">
<title>me.tsx&#45;&gt;../src/useCase/useMe/index.ts</title>
<path fill="none" stroke="#757575" d="M86.1862,-231.4774C135.7854,-208.8295 239.6318,-161.4113 295.2122,-136.0323"/>
<polygon fill="#757575" stroke="#757575" points="296.7111,-139.1955 304.3539,-131.858 293.8035,-132.8279 296.7111,-139.1955"/>
</g>
</g>
</svg>
