<?xml version="1.0" encoding="UTF-8" standalone="no"?>
<!DOCTYPE svg PUBLIC "-//W3C//DTD SVG 1.1//EN"
 "http://www.w3.org/Graphics/SVG/1.1/DTD/svg11.dtd">
<!-- Generated by graphviz version 2.40.1 (20161225.0304)
 -->
<!-- Title: G Pages: 1 -->
<svg width="541pt" height="111pt"
 viewBox="0.00 0.00 540.90 111.45" xmlns="http://www.w3.org/2000/svg" xmlns:xlink="http://www.w3.org/1999/xlink">
<g id="graph0" class="graph" transform="scale(1 1) rotate(0) translate(21.6 89.8485)">
<title>G</title>
<polygon fill="#111111" stroke="transparent" points="-21.6,21.6 -21.6,-89.8485 519.3026,-89.8485 519.3026,21.6 -21.6,21.6"/>
<!-- api/http/client/client.ts -->
<g id="node1" class="node">
<title>api/http/client/client.ts</title>
<path fill="none" stroke="#cfffac" d="M489.4074,-68.374C489.4074,-68.374 346.5897,-68.374 346.5897,-68.374 342.3397,-68.374 338.0898,-64.1241 338.0898,-59.8742 338.0898,-59.8742 338.0898,-51.3743 338.0898,-51.3743 338.0898,-47.1244 342.3397,-42.8745 346.5897,-42.8745 346.5897,-42.8745 489.4074,-42.8745 489.4074,-42.8745 493.6573,-42.8745 497.9073,-47.1244 497.9073,-51.3743 497.9073,-51.3743 497.9073,-59.8742 497.9073,-59.8742 497.9073,-64.1241 493.6573,-68.374 489.4074,-68.374"/>
<text text-anchor="middle" x="417.9985" y="-52.2485" font-family="Arial" font-size="15.00" fill="#cfffac">api/http/client/client.ts</text>
</g>
<!-- api/http/client/index.ts -->
<g id="node2" class="node">
<title>api/http/client/index.ts</title>
<path fill="none" stroke="#c6c5fe" d="M293.92,-68.374C293.92,-68.374 150.4184,-68.374 150.4184,-68.374 146.1684,-68.374 141.9185,-64.1241 141.9185,-59.8742 141.9185,-59.8742 141.9185,-51.3743 141.9185,-51.3743 141.9185,-47.1244 146.1684,-42.8745 150.4184,-42.8745 150.4184,-42.8745 293.92,-42.8745 293.92,-42.8745 298.17,-42.8745 302.4199,-47.1244 302.4199,-51.3743 302.4199,-51.3743 302.4199,-59.8742 302.4199,-59.8742 302.4199,-64.1241 298.17,-68.374 293.92,-68.374"/>
<text text-anchor="middle" x="222.1692" y="-52.2485" font-family="Arial" font-size="15.00" fill="#c6c5fe">api/http/client/index.ts</text>
</g>
<!-- api/http/client/index.ts&#45;&gt;api/http/client/client.ts -->
<g id="edge1" class="edge">
<title>api/http/client/index.ts&#45;&gt;api/http/client/client.ts</title>
<path fill="none" stroke="#757575" d="M302.3855,-55.6243C310.8885,-55.6243 319.5756,-55.6243 328.1789,-55.6243"/>
<polygon fill="#757575" stroke="#757575" points="328.2237,-59.1244 338.2237,-55.6243 328.2237,-52.1244 328.2237,-59.1244"/>
</g>
<!-- api/http/client/util.ts -->
<g id="node3" class="node">
<title>api/http/client/util.ts</title>
<path fill="none" stroke="#cfffac" d="M285.2359,-25.374C285.2359,-25.374 159.1025,-25.374 159.1025,-25.374 154.8525,-25.374 150.6026,-21.1241 150.6026,-16.8742 150.6026,-16.8742 150.6026,-8.3743 150.6026,-8.3743 150.6026,-4.1244 154.8525,.1255 159.1025,.1255 159.1025,.1255 285.2359,.1255 285.2359,.1255 289.4858,.1255 293.7358,-4.1244 293.7358,-8.3743 293.7358,-8.3743 293.7358,-16.8742 293.7358,-16.8742 293.7358,-21.1241 289.4858,-25.374 285.2359,-25.374"/>
<text text-anchor="middle" x="222.1692" y="-9.2485" font-family="Arial" font-size="15.00" fill="#cfffac">api/http/client/util.ts</text>
</g>
<!-- api/http/me.ts -->
<g id="node4" class="node">
<title>api/http/me.ts</title>
<path fill="none" stroke="#c6c5fe" d="M97.5661,-46.374C97.5661,-46.374 8.4779,-46.374 8.4779,-46.374 4.2279,-46.374 -.022,-42.1241 -.022,-37.8742 -.022,-37.8742 -.022,-29.3743 -.022,-29.3743 -.022,-25.1244 4.2279,-20.8745 8.4779,-20.8745 8.4779,-20.8745 97.5661,-20.8745 97.5661,-20.8745 101.816,-20.8745 106.0659,-25.1244 106.0659,-29.3743 106.0659,-29.3743 106.0659,-37.8742 106.0659,-37.8742 106.0659,-42.1241 101.816,-46.374 97.5661,-46.374"/>
<text text-anchor="middle" x="53.022" y="-30.2485" font-family="Arial" font-size="15.00" fill="#c6c5fe">api/http/me.ts</text>
</g>
<!-- api/http/me.ts&#45;&gt;api/http/client/index.ts -->
<g id="edge2" class="edge">
<title>api/http/me.ts&#45;&gt;api/http/client/index.ts</title>
<path fill="none" stroke="#757575" d="M106.0771,-40.5248C114.3131,-41.5961 123.0145,-42.7278 131.7997,-43.8704"/>
<polygon fill="#757575" stroke="#757575" points="131.3658,-47.3434 141.7337,-45.1625 132.2687,-40.4019 131.3658,-47.3434"/>
</g>
<!-- api/http/me.ts&#45;&gt;api/http/client/util.ts -->
<g id="edge3" class="edge">
<title>api/http/me.ts&#45;&gt;api/http/client/util.ts</title>
<path fill="none" stroke="#757575" d="M106.0771,-27.0374C116.9427,-25.6884 128.6182,-24.2388 140.2275,-22.7975"/>
<polygon fill="#757575" stroke="#757575" points="140.898,-26.2412 150.3905,-21.5357 140.0355,-19.2946 140.898,-26.2412"/>
</g>
</g>
</svg>
