<?xml version="1.0" encoding="UTF-8" standalone="no"?>
<!DOCTYPE svg PUBLIC "-//W3C//DTD SVG 1.1//EN"
 "http://www.w3.org/Graphics/SVG/1.1/DTD/svg11.dtd">
<!-- Generated by graphviz version 2.40.1 (20161225.0304)
 -->
<!-- Title: G Pages: 1 -->
<svg width="748pt" height="132pt"
 viewBox="0.00 0.00 747.98 132.45" xmlns="http://www.w3.org/2000/svg" xmlns:xlink="http://www.w3.org/1999/xlink">
<g id="graph0" class="graph" transform="scale(1 1) rotate(0) translate(21.6 110.8485)">
<title>G</title>
<polygon fill="#111111" stroke="transparent" points="-21.6,21.6 -21.6,-110.8485 726.3783,-110.8485 726.3783,21.6 -21.6,21.6"/>
<!-- api/http/client/client.ts -->
<g id="node1" class="node">
<title>api/http/client/client.ts</title>
<path fill="none" stroke="#cfffac" d="M696.4831,-68.374C696.4831,-68.374 553.6653,-68.374 553.6653,-68.374 549.4154,-68.374 545.1655,-64.1241 545.1655,-59.8742 545.1655,-59.8742 545.1655,-51.3743 545.1655,-51.3743 545.1655,-47.1244 549.4154,-42.8745 553.6653,-42.8745 553.6653,-42.8745 696.4831,-42.8745 696.4831,-42.8745 700.733,-42.8745 704.9829,-47.1244 704.9829,-51.3743 704.9829,-51.3743 704.9829,-59.8742 704.9829,-59.8742 704.9829,-64.1241 700.733,-68.374 696.4831,-68.374"/>
<text text-anchor="middle" x="625.0742" y="-52.2485" font-family="Arial" font-size="15.00" fill="#cfffac">api/http/client/client.ts</text>
</g>
<!-- api/http/client/index.ts -->
<g id="node2" class="node">
<title>api/http/client/index.ts</title>
<path fill="none" stroke="#c6c5fe" d="M500.9957,-68.374C500.9957,-68.374 357.494,-68.374 357.494,-68.374 353.2441,-68.374 348.9942,-64.1241 348.9942,-59.8742 348.9942,-59.8742 348.9942,-51.3743 348.9942,-51.3743 348.9942,-47.1244 353.2441,-42.8745 357.494,-42.8745 357.494,-42.8745 500.9957,-42.8745 500.9957,-42.8745 505.2456,-42.8745 509.4956,-47.1244 509.4956,-51.3743 509.4956,-51.3743 509.4956,-59.8742 509.4956,-59.8742 509.4956,-64.1241 505.2456,-68.374 500.9957,-68.374"/>
<text text-anchor="middle" x="429.2449" y="-52.2485" font-family="Arial" font-size="15.00" fill="#c6c5fe">api/http/client/index.ts</text>
</g>
<!-- api/http/client/index.ts&#45;&gt;api/http/client/client.ts -->
<g id="edge1" class="edge">
<title>api/http/client/index.ts&#45;&gt;api/http/client/client.ts</title>
<path fill="none" stroke="#757575" d="M509.4612,-55.6243C517.9642,-55.6243 526.6513,-55.6243 535.2545,-55.6243"/>
<polygon fill="#757575" stroke="#757575" points="535.2994,-59.1244 545.2994,-55.6243 535.2993,-52.1244 535.2994,-59.1244"/>
</g>
<!-- api/http/client/util.ts -->
<g id="node3" class="node">
<title>api/http/client/util.ts</title>
<path fill="none" stroke="#cfffac" d="M492.3116,-25.374C492.3116,-25.374 366.1781,-25.374 366.1781,-25.374 361.9282,-25.374 357.6783,-21.1241 357.6783,-16.8742 357.6783,-16.8742 357.6783,-8.3743 357.6783,-8.3743 357.6783,-4.1244 361.9282,.1255 366.1781,.1255 366.1781,.1255 492.3116,.1255 492.3116,.1255 496.5615,.1255 500.8114,-4.1244 500.8114,-8.3743 500.8114,-8.3743 500.8114,-16.8742 500.8114,-16.8742 500.8114,-21.1241 496.5615,-25.374 492.3116,-25.374"/>
<text text-anchor="middle" x="429.2449" y="-9.2485" font-family="Arial" font-size="15.00" fill="#cfffac">api/http/client/util.ts</text>
</g>
<!-- api/http/me/index.ts -->
<g id="node4" class="node">
<title>api/http/me/index.ts</title>
<path fill="none" stroke="#c6c5fe" d="M137.6064,-46.374C137.6064,-46.374 8.4644,-46.374 8.4644,-46.374 4.2145,-46.374 -.0354,-42.1241 -.0354,-37.8742 -.0354,-37.8742 -.0354,-29.3743 -.0354,-29.3743 -.0354,-25.1244 4.2145,-20.8745 8.4644,-20.8745 8.4644,-20.8745 137.6064,-20.8745 137.6064,-20.8745 141.8563,-20.8745 146.1062,-25.1244 146.1062,-29.3743 146.1062,-29.3743 146.1062,-37.8742 146.1062,-37.8742 146.1062,-42.1241 141.8563,-46.374 137.6064,-46.374"/>
<text text-anchor="middle" x="73.0354" y="-30.2485" font-family="Arial" font-size="15.00" fill="#c6c5fe">api/http/me/index.ts</text>
</g>
<!-- api/http/me/me.ts -->
<g id="node5" class="node">
<title>api/http/me/me.ts</title>
<path fill="none" stroke="#c6c5fe" d="M304.6442,-46.374C304.6442,-46.374 190.5462,-46.374 190.5462,-46.374 186.2963,-46.374 182.0464,-42.1241 182.0464,-37.8742 182.0464,-37.8742 182.0464,-29.3743 182.0464,-29.3743 182.0464,-25.1244 186.2963,-20.8745 190.5462,-20.8745 190.5462,-20.8745 304.6442,-20.8745 304.6442,-20.8745 308.8941,-20.8745 313.1441,-25.1244 313.1441,-29.3743 313.1441,-29.3743 313.1441,-37.8742 313.1441,-37.8742 313.1441,-42.1241 308.8941,-46.374 304.6442,-46.374"/>
<text text-anchor="middle" x="247.5952" y="-30.2485" font-family="Arial" font-size="15.00" fill="#c6c5fe">api/http/me/me.ts</text>
</g>
<!-- api/http/me/index.ts&#45;&gt;api/http/me/me.ts -->
<g id="edge2" class="edge">
<title>api/http/me/index.ts&#45;&gt;api/http/me/me.ts</title>
<path fill="none" stroke="#757575" d="M146.3057,-33.6243C154.7298,-33.6243 163.3327,-33.6243 171.7893,-33.6243"/>
<polygon fill="#757575" stroke="#757575" points="172.0102,-37.1244 182.0101,-33.6243 172.0101,-30.1244 172.0102,-37.1244"/>
</g>
<!-- api/http/me/me.ts&#45;&gt;api/http/client/index.ts -->
<g id="edge3" class="edge">
<title>api/http/me/me.ts&#45;&gt;api/http/client/index.ts</title>
<path fill="none" stroke="#757575" d="M313.1749,-41.5668C321.5017,-42.5752 330.136,-43.621 338.7662,-44.6662"/>
<polygon fill="#757575" stroke="#757575" points="338.5283,-48.1629 348.8766,-45.8907 339.37,-41.2137 338.5283,-48.1629"/>
</g>
<!-- api/http/me/me.ts&#45;&gt;api/http/client/util.ts -->
<g id="edge4" class="edge">
<title>api/http/me/me.ts&#45;&gt;api/http/client/util.ts</title>
<path fill="none" stroke="#757575" d="M313.1749,-26.0428C324.3361,-24.7525 336.0497,-23.3983 347.5652,-22.067"/>
<polygon fill="#757575" stroke="#757575" points="348.0832,-25.5305 357.6151,-20.9052 347.2793,-18.5768 348.0832,-25.5305"/>
</g>
<!-- api/http/me/type.ts -->
<g id="node6" class="node">
<title>api/http/me/type.ts</title>
<path fill="none" stroke="#cfffac" d="M133.5997,-89.374C133.5997,-89.374 12.4711,-89.374 12.4711,-89.374 8.2212,-89.374 3.9712,-85.1241 3.9712,-80.8742 3.9712,-80.8742 3.9712,-72.3743 3.9712,-72.3743 3.9712,-68.1244 8.2212,-63.8745 12.4711,-63.8745 12.4711,-63.8745 133.5997,-63.8745 133.5997,-63.8745 137.8496,-63.8745 142.0996,-68.1244 142.0996,-72.3743 142.0996,-72.3743 142.0996,-80.8742 142.0996,-80.8742 142.0996,-85.1241 137.8496,-89.374 133.5997,-89.374"/>
<text text-anchor="middle" x="73.0354" y="-73.2485" font-family="Arial" font-size="15.00" fill="#cfffac">api/http/me/type.ts</text>
</g>
</g>
</svg>
