<?xml version="1.0" encoding="UTF-8" standalone="no"?>
<!DOCTYPE svg PUBLIC "-//W3C//DTD SVG 1.1//EN"
 "http://www.w3.org/Graphics/SVG/1.1/DTD/svg11.dtd">
<!-- Generated by graphviz version 2.40.1 (20161225.0304)
 -->
<!-- Title: G Pages: 1 -->
<svg width="2373pt" height="369pt"
 viewBox="0.00 0.00 2373.05 369.45" xmlns="http://www.w3.org/2000/svg" xmlns:xlink="http://www.w3.org/1999/xlink">
<g id="graph0" class="graph" transform="scale(1 1) rotate(0) translate(21.6 347.8485)">
<title>G</title>
<polygon fill="#111111" stroke="transparent" points="-21.6,21.6 -21.6,-347.8485 2351.4481,-347.8485 2351.4481,21.6 -21.6,21.6"/>
<!-- app.d.ts -->
<g id="node1" class="node">
<title>app.d.ts</title>
<path fill="none" stroke="#cfffac" d="M187.361,-89.374C187.361,-89.374 134.6155,-89.374 134.6155,-89.374 130.3656,-89.374 126.1157,-85.1241 126.1157,-80.8742 126.1157,-80.8742 126.1157,-72.3743 126.1157,-72.3743 126.1157,-68.1244 130.3656,-63.8745 134.6155,-63.8745 134.6155,-63.8745 187.361,-63.8745 187.361,-63.8745 191.6109,-63.8745 195.8609,-68.1244 195.8609,-72.3743 195.8609,-72.3743 195.8609,-80.8742 195.8609,-80.8742 195.8609,-85.1241 191.6109,-89.374 187.361,-89.374"/>
<text text-anchor="middle" x="160.9883" y="-73.2485" font-family="Arial" font-size="15.00" fill="#cfffac">app.d.ts</text>
</g>
<!-- controller/me/me.tsx -->
<g id="node2" class="node">
<title>controller/me/me.tsx</title>
<path fill="none" stroke="#c6c5fe" d="M228.0251,-132.374C228.0251,-132.374 93.9515,-132.374 93.9515,-132.374 89.7016,-132.374 85.4517,-128.1241 85.4517,-123.8742 85.4517,-123.8742 85.4517,-115.3743 85.4517,-115.3743 85.4517,-111.1244 89.7016,-106.8745 93.9515,-106.8745 93.9515,-106.8745 228.0251,-106.8745 228.0251,-106.8745 232.275,-106.8745 236.5249,-111.1244 236.5249,-115.3743 236.5249,-115.3743 236.5249,-123.8742 236.5249,-123.8742 236.5249,-128.1241 232.275,-132.374 228.0251,-132.374"/>
<text text-anchor="middle" x="160.9883" y="-116.2485" font-family="Arial" font-size="15.00" fill="#c6c5fe">controller/me/me.tsx</text>
</g>
<!-- gateway/me/index.ts -->
<g id="node3" class="node">
<title>gateway/me/index.ts</title>
<path fill="none" stroke="#c6c5fe" d="M605.4584,-240.374C605.4584,-240.374 469.9859,-240.374 469.9859,-240.374 465.736,-240.374 461.4861,-236.1241 461.4861,-231.8742 461.4861,-231.8742 461.4861,-223.3743 461.4861,-223.3743 461.4861,-219.1244 465.736,-214.8745 469.9859,-214.8745 469.9859,-214.8745 605.4584,-214.8745 605.4584,-214.8745 609.7083,-214.8745 613.9582,-219.1244 613.9582,-223.3743 613.9582,-223.3743 613.9582,-231.8742 613.9582,-231.8742 613.9582,-236.1241 609.7083,-240.374 605.4584,-240.374"/>
<text text-anchor="middle" x="537.7222" y="-224.2485" font-family="Arial" font-size="15.00" fill="#c6c5fe">gateway/me/index.ts</text>
</g>
<!-- controller/me/me.tsx&#45;&gt;gateway/me/index.ts -->
<g id="edge1" class="edge">
<title>controller/me/me.tsx&#45;&gt;gateway/me/index.ts</title>
<path fill="none" stroke="#757575" d="M198.6363,-132.2935C231.8396,-144.0022 281.1547,-162.7104 321.9766,-183.6243 338.8747,-192.2815 340.0921,-200.2493 357.9766,-206.6243 387.3569,-217.097 420.9817,-222.6053 451.1405,-225.4245"/>
<polygon fill="#757575" stroke="#757575" points="450.9639,-228.922 461.2242,-226.2808 451.5563,-221.9471 450.9639,-228.922"/>
</g>
<!-- presenter/components/ecosystem/Me/Content.tsx -->
<g id="node4" class="node">
<title>presenter/components/ecosystem/Me/Content.tsx</title>
<path fill="none" stroke="#c6c5fe" d="M702.3762,-197.374C702.3762,-197.374 373.0682,-197.374 373.0682,-197.374 368.8182,-197.374 364.5683,-193.1241 364.5683,-188.8742 364.5683,-188.8742 364.5683,-180.3743 364.5683,-180.3743 364.5683,-176.1244 368.8182,-171.8745 373.0682,-171.8745 373.0682,-171.8745 702.3762,-171.8745 702.3762,-171.8745 706.6261,-171.8745 710.876,-176.1244 710.876,-180.3743 710.876,-180.3743 710.876,-188.8742 710.876,-188.8742 710.876,-193.1241 706.6261,-197.374 702.3762,-197.374"/>
<text text-anchor="middle" x="537.7222" y="-181.2485" font-family="Arial" font-size="15.00" fill="#c6c5fe">presenter/components/ecosystem/Me/Content.tsx</text>
</g>
<!-- controller/me/me.tsx&#45;&gt;presenter/components/ecosystem/Me/Content.tsx -->
<g id="edge2" class="edge">
<title>controller/me/me.tsx&#45;&gt;presenter/components/ecosystem/Me/Content.tsx</title>
<path fill="none" stroke="#757575" d="M210.9043,-132.275C250.5572,-141.9599 307.5357,-155.068 357.9766,-163.6243 372.9683,-166.1673 388.7159,-168.4994 404.3979,-170.6094"/>
<polygon fill="#757575" stroke="#757575" points="404.3138,-174.1284 414.6851,-171.9638 405.2276,-167.1883 404.3138,-174.1284"/>
</g>
<!-- presenter/components/ecosystem/Me/Exception.tsx -->
<g id="node5" class="node">
<title>presenter/components/ecosystem/Me/Exception.tsx</title>
<path fill="none" stroke="#cfffac" d="M709.2139,-154.374C709.2139,-154.374 366.2305,-154.374 366.2305,-154.374 361.9805,-154.374 357.7306,-150.1241 357.7306,-145.8742 357.7306,-145.8742 357.7306,-137.3743 357.7306,-137.3743 357.7306,-133.1244 361.9805,-128.8745 366.2305,-128.8745 366.2305,-128.8745 709.2139,-128.8745 709.2139,-128.8745 713.4638,-128.8745 717.7137,-133.1244 717.7137,-137.3743 717.7137,-137.3743 717.7137,-145.8742 717.7137,-145.8742 717.7137,-150.1241 713.4638,-154.374 709.2139,-154.374"/>
<text text-anchor="middle" x="537.7222" y="-138.2485" font-family="Arial" font-size="15.00" fill="#cfffac">presenter/components/ecosystem/Me/Exception.tsx</text>
</g>
<!-- controller/me/me.tsx&#45;&gt;presenter/components/ecosystem/Me/Exception.tsx -->
<g id="edge3" class="edge">
<title>controller/me/me.tsx&#45;&gt;presenter/components/ecosystem/Me/Exception.tsx</title>
<path fill="none" stroke="#757575" d="M236.7728,-124.0498C269.0601,-125.9353 308.3178,-128.2278 347.6734,-130.5261"/>
<polygon fill="#757575" stroke="#757575" points="347.4899,-134.0212 357.677,-131.1102 347.8981,-127.0331 347.4899,-134.0212"/>
</g>
<!-- presenter/hooks/useReRender.ts -->
<g id="node6" class="node">
<title>presenter/hooks/useReRender.ts</title>
<path fill="none" stroke="#cfffac" d="M647.0169,-111.374C647.0169,-111.374 428.4274,-111.374 428.4274,-111.374 424.1775,-111.374 419.9275,-107.1241 419.9275,-102.8742 419.9275,-102.8742 419.9275,-94.3743 419.9275,-94.3743 419.9275,-90.1244 424.1775,-85.8745 428.4274,-85.8745 428.4274,-85.8745 647.0169,-85.8745 647.0169,-85.8745 651.2669,-85.8745 655.5168,-90.1244 655.5168,-94.3743 655.5168,-94.3743 655.5168,-102.8742 655.5168,-102.8742 655.5168,-107.1241 651.2669,-111.374 647.0169,-111.374"/>
<text text-anchor="middle" x="537.7222" y="-95.2485" font-family="Arial" font-size="15.00" fill="#cfffac">presenter/hooks/useReRender.ts</text>
</g>
<!-- controller/me/me.tsx&#45;&gt;presenter/hooks/useReRender.ts -->
<g id="edge4" class="edge">
<title>controller/me/me.tsx&#45;&gt;presenter/hooks/useReRender.ts</title>
<path fill="none" stroke="#757575" d="M236.7728,-115.3999C286.2311,-112.6429 352.0452,-108.9743 409.5129,-105.7709"/>
<polygon fill="#757575" stroke="#757575" points="409.9789,-109.2505 419.7686,-105.1993 409.5893,-102.2613 409.9789,-109.2505"/>
</g>
<!-- useCase/me/interactor.ts -->
<g id="node7" class="node">
<title>useCase/me/interactor.ts</title>
<path fill="none" stroke="#c6c5fe" d="M620.1305,-68.374C620.1305,-68.374 455.3138,-68.374 455.3138,-68.374 451.0639,-68.374 446.8139,-64.1241 446.8139,-59.8742 446.8139,-59.8742 446.8139,-51.3743 446.8139,-51.3743 446.8139,-47.1244 451.0639,-42.8745 455.3138,-42.8745 455.3138,-42.8745 620.1305,-42.8745 620.1305,-42.8745 624.3805,-42.8745 628.6304,-47.1244 628.6304,-51.3743 628.6304,-51.3743 628.6304,-59.8742 628.6304,-59.8742 628.6304,-64.1241 624.3805,-68.374 620.1305,-68.374"/>
<text text-anchor="middle" x="537.7222" y="-52.2485" font-family="Arial" font-size="15.00" fill="#c6c5fe">useCase/me/interactor.ts</text>
</g>
<!-- controller/me/me.tsx&#45;&gt;useCase/me/interactor.ts -->
<g id="edge5" class="edge">
<title>controller/me/me.tsx&#45;&gt;useCase/me/interactor.ts</title>
<path fill="none" stroke="#757575" d="M236.6422,-116.3096C264.1041,-113.4131 294.9971,-108.1415 321.9766,-98.6243 339.6597,-92.3864 340.252,-82.7435 357.9766,-76.6243 382.6213,-68.1159 410.1758,-62.9171 436.164,-59.7761"/>
<polygon fill="#757575" stroke="#757575" points="436.8702,-63.2191 446.4201,-58.6311 436.0935,-56.2623 436.8702,-63.2191"/>
</g>
<!-- useCase/me/useMe.ts -->
<g id="node8" class="node">
<title>useCase/me/useMe.ts</title>
<path fill="none" stroke="#cfffac" d="M611.9534,-25.374C611.9534,-25.374 463.4909,-25.374 463.4909,-25.374 459.241,-25.374 454.991,-21.1241 454.991,-16.8742 454.991,-16.8742 454.991,-8.3743 454.991,-8.3743 454.991,-4.1244 459.241,.1255 463.4909,.1255 463.4909,.1255 611.9534,.1255 611.9534,.1255 616.2034,.1255 620.4533,-4.1244 620.4533,-8.3743 620.4533,-8.3743 620.4533,-16.8742 620.4533,-16.8742 620.4533,-21.1241 616.2034,-25.374 611.9534,-25.374"/>
<text text-anchor="middle" x="537.7222" y="-9.2485" font-family="Arial" font-size="15.00" fill="#cfffac">useCase/me/useMe.ts</text>
</g>
<!-- controller/me/me.tsx&#45;&gt;useCase/me/useMe.ts -->
<g id="edge6" class="edge">
<title>controller/me/me.tsx&#45;&gt;useCase/me/useMe.ts</title>
<path fill="none" stroke="#757575" d="M236.5869,-123.7523C265.4263,-121.9178 297.2733,-115.4291 321.9766,-98.6243 349.2814,-80.0497 330.5478,-52.0154 357.9766,-33.6243 383.1798,-16.7254 414.9501,-9.5885 444.7451,-7.253"/>
<polygon fill="#757575" stroke="#757575" points="444.9948,-10.7443 454.7614,-6.6378 444.5656,-3.7575 444.9948,-10.7443"/>
</g>
<!-- gateway/me/me.ts -->
<g id="node18" class="node">
<title>gateway/me/me.ts</title>
<path fill="none" stroke="#c6c5fe" d="M999.6862,-240.374C999.6862,-240.374 879.2576,-240.374 879.2576,-240.374 875.0077,-240.374 870.7578,-236.1241 870.7578,-231.8742 870.7578,-231.8742 870.7578,-223.3743 870.7578,-223.3743 870.7578,-219.1244 875.0077,-214.8745 879.2576,-214.8745 879.2576,-214.8745 999.6862,-214.8745 999.6862,-214.8745 1003.9362,-214.8745 1008.1861,-219.1244 1008.1861,-223.3743 1008.1861,-223.3743 1008.1861,-231.8742 1008.1861,-231.8742 1008.1861,-236.1241 1003.9362,-240.374 999.6862,-240.374"/>
<text text-anchor="middle" x="939.4719" y="-224.2485" font-family="Arial" font-size="15.00" fill="#c6c5fe">gateway/me/me.ts</text>
</g>
<!-- gateway/me/index.ts&#45;&gt;gateway/me/me.ts -->
<g id="edge13" class="edge">
<title>gateway/me/index.ts&#45;&gt;gateway/me/me.ts</title>
<path fill="none" stroke="#757575" d="M614.2339,-227.6243C684.7564,-227.6243 788.9947,-227.6243 860.338,-227.6243"/>
<polygon fill="#757575" stroke="#757575" points="860.6175,-231.1244 870.6174,-227.6243 860.6174,-224.1244 860.6175,-231.1244"/>
</g>
<!-- useCase/me/type.ts -->
<g id="node19" class="node">
<title>useCase/me/type.ts</title>
<path fill="none" stroke="#cfffac" d="M1005.0338,-197.374C1005.0338,-197.374 873.9101,-197.374 873.9101,-197.374 869.6602,-197.374 865.4102,-193.1241 865.4102,-188.8742 865.4102,-188.8742 865.4102,-180.3743 865.4102,-180.3743 865.4102,-176.1244 869.6602,-171.8745 873.9101,-171.8745 873.9101,-171.8745 1005.0338,-171.8745 1005.0338,-171.8745 1009.2837,-171.8745 1013.5336,-176.1244 1013.5336,-180.3743 1013.5336,-180.3743 1013.5336,-188.8742 1013.5336,-188.8742 1013.5336,-193.1241 1009.2837,-197.374 1005.0338,-197.374"/>
<text text-anchor="middle" x="939.4719" y="-181.2485" font-family="Arial" font-size="15.00" fill="#cfffac">useCase/me/type.ts</text>
</g>
<!-- presenter/components/ecosystem/Me/Content.tsx&#45;&gt;useCase/me/type.ts -->
<g id="edge15" class="edge">
<title>presenter/components/ecosystem/Me/Content.tsx&#45;&gt;useCase/me/type.ts</title>
<path fill="none" stroke="#757575" d="M711.0152,-184.6243C760.9463,-184.6243 813.195,-184.6243 855.1037,-184.6243"/>
<polygon fill="#757575" stroke="#757575" points="855.2521,-188.1244 865.2521,-184.6243 855.2521,-181.1244 855.2521,-188.1244"/>
</g>
<!-- domain/me/index.ts -->
<g id="node9" class="node">
<title>domain/me/index.ts</title>
<path fill="none" stroke="#c6c5fe" d="M1004.0356,-68.374C1004.0356,-68.374 874.9083,-68.374 874.9083,-68.374 870.6584,-68.374 866.4084,-64.1241 866.4084,-59.8742 866.4084,-59.8742 866.4084,-51.3743 866.4084,-51.3743 866.4084,-47.1244 870.6584,-42.8745 874.9083,-42.8745 874.9083,-42.8745 1004.0356,-42.8745 1004.0356,-42.8745 1008.2855,-42.8745 1012.5354,-47.1244 1012.5354,-51.3743 1012.5354,-51.3743 1012.5354,-59.8742 1012.5354,-59.8742 1012.5354,-64.1241 1008.2855,-68.374 1004.0356,-68.374"/>
<text text-anchor="middle" x="939.4719" y="-52.2485" font-family="Arial" font-size="15.00" fill="#c6c5fe">domain/me/index.ts</text>
</g>
<!-- useCase/me/interactor.ts&#45;&gt;domain/me/index.ts -->
<g id="edge18" class="edge">
<title>useCase/me/interactor.ts&#45;&gt;domain/me/index.ts</title>
<path fill="none" stroke="#757575" d="M628.6344,-55.6243C696.9965,-55.6243 789.9187,-55.6243 856.3201,-55.6243"/>
<polygon fill="#757575" stroke="#757575" points="856.3297,-59.1244 866.3297,-55.6243 856.3296,-52.1244 856.3297,-59.1244"/>
</g>
<!-- domain/me/me.ts -->
<g id="node10" class="node">
<title>domain/me/me.ts</title>
<path fill="none" stroke="#cfffac" d="M1349.5024,-90.374C1349.5024,-90.374 1235.419,-90.374 1235.419,-90.374 1231.1691,-90.374 1226.9192,-86.1241 1226.9192,-81.8742 1226.9192,-81.8742 1226.9192,-73.3743 1226.9192,-73.3743 1226.9192,-69.1244 1231.1691,-64.8745 1235.419,-64.8745 1235.419,-64.8745 1349.5024,-64.8745 1349.5024,-64.8745 1353.7523,-64.8745 1358.0022,-69.1244 1358.0022,-73.3743 1358.0022,-73.3743 1358.0022,-81.8742 1358.0022,-81.8742 1358.0022,-86.1241 1353.7523,-90.374 1349.5024,-90.374"/>
<text text-anchor="middle" x="1292.4607" y="-74.2485" font-family="Arial" font-size="15.00" fill="#cfffac">domain/me/me.ts</text>
</g>
<!-- domain/me/index.ts&#45;&gt;domain/me/me.ts -->
<g id="edge7" class="edge">
<title>domain/me/index.ts&#45;&gt;domain/me/me.ts</title>
<path fill="none" stroke="#757575" d="M1012.6114,-60.1827C1072.2662,-63.9007 1156.2438,-69.1346 1216.618,-72.8974"/>
<polygon fill="#757575" stroke="#757575" points="1216.6516,-76.4062 1226.8499,-73.5351 1217.0871,-69.4197 1216.6516,-76.4062"/>
</g>
<!-- domain/me/type.ts -->
<g id="node11" class="node">
<title>domain/me/type.ts</title>
<path fill="none" stroke="#cfffac" d="M1353.0177,-47.374C1353.0177,-47.374 1231.9037,-47.374 1231.9037,-47.374 1227.6538,-47.374 1223.4038,-43.1241 1223.4038,-38.8742 1223.4038,-38.8742 1223.4038,-30.3743 1223.4038,-30.3743 1223.4038,-26.1244 1227.6538,-21.8745 1231.9037,-21.8745 1231.9037,-21.8745 1353.0177,-21.8745 1353.0177,-21.8745 1357.2676,-21.8745 1361.5176,-26.1244 1361.5176,-30.3743 1361.5176,-30.3743 1361.5176,-38.8742 1361.5176,-38.8742 1361.5176,-43.1241 1357.2676,-47.374 1353.0177,-47.374"/>
<text text-anchor="middle" x="1292.4607" y="-31.2485" font-family="Arial" font-size="15.00" fill="#cfffac">domain/me/type.ts</text>
</g>
<!-- domain/me/index.ts&#45;&gt;domain/me/type.ts -->
<g id="edge8" class="edge">
<title>domain/me/index.ts&#45;&gt;domain/me/type.ts</title>
<path fill="none" stroke="#757575" d="M1012.6114,-51.2731C1071.1208,-47.7922 1153.028,-42.9194 1213.1147,-39.3447"/>
<polygon fill="#757575" stroke="#757575" points="1213.5407,-42.8257 1223.3151,-38.7379 1213.1249,-35.838 1213.5407,-42.8257"/>
</g>
<!-- externalInterface/api/http/client/client.ts -->
<g id="node12" class="node">
<title>externalInterface/api/http/client/client.ts</title>
<path fill="none" stroke="#cfffac" d="M2321.5018,-262.374C2321.5018,-262.374 2062.8879,-262.374 2062.8879,-262.374 2058.6379,-262.374 2054.388,-258.1241 2054.388,-253.8742 2054.388,-253.8742 2054.388,-245.3743 2054.388,-245.3743 2054.388,-241.1244 2058.6379,-236.8745 2062.8879,-236.8745 2062.8879,-236.8745 2321.5018,-236.8745 2321.5018,-236.8745 2325.7517,-236.8745 2330.0016,-241.1244 2330.0016,-245.3743 2330.0016,-245.3743 2330.0016,-253.8742 2330.0016,-253.8742 2330.0016,-258.1241 2325.7517,-262.374 2321.5018,-262.374"/>
<text text-anchor="middle" x="2192.1948" y="-246.2485" font-family="Arial" font-size="15.00" fill="#cfffac">externalInterface/api/http/client/client.ts</text>
</g>
<!-- externalInterface/api/http/client/index.ts -->
<g id="node13" class="node">
<title>externalInterface/api/http/client/index.ts</title>
<path fill="none" stroke="#c6c5fe" d="M2010.1162,-262.374C2010.1162,-262.374 1750.8179,-262.374 1750.8179,-262.374 1746.568,-262.374 1742.3181,-258.1241 1742.3181,-253.8742 1742.3181,-253.8742 1742.3181,-245.3743 1742.3181,-245.3743 1742.3181,-241.1244 1746.568,-236.8745 1750.8179,-236.8745 1750.8179,-236.8745 2010.1162,-236.8745 2010.1162,-236.8745 2014.3661,-236.8745 2018.616,-241.1244 2018.616,-245.3743 2018.616,-245.3743 2018.616,-253.8742 2018.616,-253.8742 2018.616,-258.1241 2014.3661,-262.374 2010.1162,-262.374"/>
<text text-anchor="middle" x="1880.467" y="-246.2485" font-family="Arial" font-size="15.00" fill="#c6c5fe">externalInterface/api/http/client/index.ts</text>
</g>
<!-- externalInterface/api/http/client/index.ts&#45;&gt;externalInterface/api/http/client/client.ts -->
<g id="edge9" class="edge">
<title>externalInterface/api/http/client/index.ts&#45;&gt;externalInterface/api/http/client/client.ts</title>
<path fill="none" stroke="#757575" d="M2018.5567,-249.6243C2027.1015,-249.6243 2035.7185,-249.6243 2044.3031,-249.6243"/>
<polygon fill="#757575" stroke="#757575" points="2044.3596,-253.1244 2054.3596,-249.6243 2044.3596,-246.1244 2044.3596,-253.1244"/>
</g>
<!-- externalInterface/api/http/client/util.ts -->
<g id="node14" class="node">
<title>externalInterface/api/http/client/util.ts</title>
<path fill="none" stroke="#cfffac" d="M2001.932,-219.374C2001.932,-219.374 1759.0021,-219.374 1759.0021,-219.374 1754.7522,-219.374 1750.5023,-215.1241 1750.5023,-210.8742 1750.5023,-210.8742 1750.5023,-202.3743 1750.5023,-202.3743 1750.5023,-198.1244 1754.7522,-193.8745 1759.0021,-193.8745 1759.0021,-193.8745 2001.932,-193.8745 2001.932,-193.8745 2006.1819,-193.8745 2010.4318,-198.1244 2010.4318,-202.3743 2010.4318,-202.3743 2010.4318,-210.8742 2010.4318,-210.8742 2010.4318,-215.1241 2006.1819,-219.374 2001.932,-219.374"/>
<text text-anchor="middle" x="1880.467" y="-203.2485" font-family="Arial" font-size="15.00" fill="#cfffac">externalInterface/api/http/client/util.ts</text>
</g>
<!-- externalInterface/api/http/me/index.ts -->
<g id="node15" class="node">
<title>externalInterface/api/http/me/index.ts</title>
<path fill="none" stroke="#c6c5fe" d="M1414.9301,-240.374C1414.9301,-240.374 1169.9913,-240.374 1169.9913,-240.374 1165.7414,-240.374 1161.4915,-236.1241 1161.4915,-231.8742 1161.4915,-231.8742 1161.4915,-223.3743 1161.4915,-223.3743 1161.4915,-219.1244 1165.7414,-214.8745 1169.9913,-214.8745 1169.9913,-214.8745 1414.9301,-214.8745 1414.9301,-214.8745 1419.18,-214.8745 1423.4299,-219.1244 1423.4299,-223.3743 1423.4299,-223.3743 1423.4299,-231.8742 1423.4299,-231.8742 1423.4299,-236.1241 1419.18,-240.374 1414.9301,-240.374"/>
<text text-anchor="middle" x="1292.4607" y="-224.2485" font-family="Arial" font-size="15.00" fill="#c6c5fe">externalInterface/api/http/me/index.ts</text>
</g>
<!-- externalInterface/api/http/me/me.ts -->
<g id="node16" class="node">
<title>externalInterface/api/http/me/me.ts</title>
<path fill="none" stroke="#c6c5fe" d="M1697.8664,-240.374C1697.8664,-240.374 1467.9715,-240.374 1467.9715,-240.374 1463.7216,-240.374 1459.4717,-236.1241 1459.4717,-231.8742 1459.4717,-231.8742 1459.4717,-223.3743 1459.4717,-223.3743 1459.4717,-219.1244 1463.7216,-214.8745 1467.9715,-214.8745 1467.9715,-214.8745 1697.8664,-214.8745 1697.8664,-214.8745 1702.1163,-214.8745 1706.3662,-219.1244 1706.3662,-223.3743 1706.3662,-223.3743 1706.3662,-231.8742 1706.3662,-231.8742 1706.3662,-236.1241 1702.1163,-240.374 1697.8664,-240.374"/>
<text text-anchor="middle" x="1582.9189" y="-224.2485" font-family="Arial" font-size="15.00" fill="#c6c5fe">externalInterface/api/http/me/me.ts</text>
</g>
<!-- externalInterface/api/http/me/index.ts&#45;&gt;externalInterface/api/http/me/me.ts -->
<g id="edge10" class="edge">
<title>externalInterface/api/http/me/index.ts&#45;&gt;externalInterface/api/http/me/me.ts</title>
<path fill="none" stroke="#757575" d="M1423.6686,-227.6243C1432.205,-227.6243 1440.8067,-227.6243 1449.3541,-227.6243"/>
<polygon fill="#757575" stroke="#757575" points="1449.356,-231.1244 1459.356,-227.6243 1449.356,-224.1244 1449.356,-231.1244"/>
</g>
<!-- externalInterface/api/http/me/me.ts&#45;&gt;externalInterface/api/http/client/index.ts -->
<g id="edge11" class="edge">
<title>externalInterface/api/http/me/me.ts&#45;&gt;externalInterface/api/http/client/index.ts</title>
<path fill="none" stroke="#757575" d="M1706.5212,-236.7631C1715.0136,-237.391 1723.6187,-238.0273 1732.2215,-238.6633"/>
<polygon fill="#757575" stroke="#757575" points="1732.0816,-242.1625 1742.3125,-239.4094 1732.5978,-235.1815 1732.0816,-242.1625"/>
</g>
<!-- externalInterface/api/http/me/me.ts&#45;&gt;externalInterface/api/http/client/util.ts -->
<g id="edge12" class="edge">
<title>externalInterface/api/http/me/me.ts&#45;&gt;externalInterface/api/http/client/util.ts</title>
<path fill="none" stroke="#757575" d="M1706.5212,-218.9008C1717.6457,-218.1157 1728.9636,-217.3169 1740.2162,-216.5227"/>
<polygon fill="#757575" stroke="#757575" points="1740.7958,-219.9906 1750.5245,-215.7952 1740.3029,-213.008 1740.7958,-219.9906"/>
</g>
<!-- externalInterface/api/http/me/type.ts -->
<g id="node17" class="node">
<title>externalInterface/api/http/me/type.ts</title>
<path fill="none" stroke="#cfffac" d="M279.9508,-218.374C279.9508,-218.374 42.0258,-218.374 42.0258,-218.374 37.7759,-218.374 33.5259,-214.1241 33.5259,-209.8742 33.5259,-209.8742 33.5259,-201.3743 33.5259,-201.3743 33.5259,-197.1244 37.7759,-192.8745 42.0258,-192.8745 42.0258,-192.8745 279.9508,-192.8745 279.9508,-192.8745 284.2007,-192.8745 288.4506,-197.1244 288.4506,-201.3743 288.4506,-201.3743 288.4506,-209.8742 288.4506,-209.8742 288.4506,-214.1241 284.2007,-218.374 279.9508,-218.374"/>
<text text-anchor="middle" x="160.9883" y="-202.2485" font-family="Arial" font-size="15.00" fill="#cfffac">externalInterface/api/http/me/type.ts</text>
</g>
<!-- gateway/me/me.ts&#45;&gt;externalInterface/api/http/me/index.ts -->
<g id="edge14" class="edge">
<title>gateway/me/me.ts&#45;&gt;externalInterface/api/http/me/index.ts</title>
<path fill="none" stroke="#757575" d="M1008.3697,-227.6243C1049.0079,-227.6243 1101.9528,-227.6243 1151.1077,-227.6243"/>
<polygon fill="#757575" stroke="#757575" points="1151.2079,-231.1244 1161.2079,-227.6243 1151.2078,-224.1244 1151.2079,-231.1244"/>
</g>
<!-- presenter/components/ecosystem/Me/Me.tsx -->
<g id="node20" class="node">
<title>presenter/components/ecosystem/Me/Me.tsx</title>
<path fill="none" stroke="#c6c5fe" d="M686.6772,-283.374C686.6772,-283.374 388.7671,-283.374 388.7671,-283.374 384.5172,-283.374 380.2672,-279.1241 380.2672,-274.8742 380.2672,-274.8742 380.2672,-266.3743 380.2672,-266.3743 380.2672,-262.1244 384.5172,-257.8745 388.7671,-257.8745 388.7671,-257.8745 686.6772,-257.8745 686.6772,-257.8745 690.9272,-257.8745 695.1771,-262.1244 695.1771,-266.3743 695.1771,-266.3743 695.1771,-274.8742 695.1771,-274.8742 695.1771,-279.1241 690.9272,-283.374 686.6772,-283.374"/>
<text text-anchor="middle" x="537.7222" y="-267.2485" font-family="Arial" font-size="15.00" fill="#c6c5fe">presenter/components/ecosystem/Me/Me.tsx</text>
</g>
<!-- presenter/components/ecosystem/Me/Placeholder.tsx -->
<g id="node21" class="node">
<title>presenter/components/ecosystem/Me/Placeholder.tsx</title>
<path fill="none" stroke="#cfffac" d="M1116.9804,-283.374C1116.9804,-283.374 761.9635,-283.374 761.9635,-283.374 757.7135,-283.374 753.4636,-279.1241 753.4636,-274.8742 753.4636,-274.8742 753.4636,-266.3743 753.4636,-266.3743 753.4636,-262.1244 757.7135,-257.8745 761.9635,-257.8745 761.9635,-257.8745 1116.9804,-257.8745 1116.9804,-257.8745 1121.2303,-257.8745 1125.4802,-262.1244 1125.4802,-266.3743 1125.4802,-266.3743 1125.4802,-274.8742 1125.4802,-274.8742 1125.4802,-279.1241 1121.2303,-283.374 1116.9804,-283.374"/>
<text text-anchor="middle" x="939.4719" y="-267.2485" font-family="Arial" font-size="15.00" fill="#cfffac">presenter/components/ecosystem/Me/Placeholder.tsx</text>
</g>
<!-- presenter/components/ecosystem/Me/Me.tsx&#45;&gt;presenter/components/ecosystem/Me/Placeholder.tsx -->
<g id="edge16" class="edge">
<title>presenter/components/ecosystem/Me/Me.tsx&#45;&gt;presenter/components/ecosystem/Me/Placeholder.tsx</title>
<path fill="none" stroke="#757575" d="M695.0632,-270.6243C710.9101,-270.6243 727.1368,-270.6243 743.3225,-270.6243"/>
<polygon fill="#757575" stroke="#757575" points="743.3914,-274.1244 753.3913,-270.6243 743.3913,-267.1244 743.3914,-274.1244"/>
</g>
<!-- presenter/components/ecosystem/Me/index.ts -->
<g id="node22" class="node">
<title>presenter/components/ecosystem/Me/index.ts</title>
<path fill="none" stroke="#c6c5fe" d="M313.465,-283.374C313.465,-283.374 8.5116,-283.374 8.5116,-283.374 4.2616,-283.374 .0117,-279.1241 .0117,-274.8742 .0117,-274.8742 .0117,-266.3743 .0117,-266.3743 .0117,-262.1244 4.2616,-257.8745 8.5116,-257.8745 8.5116,-257.8745 313.465,-257.8745 313.465,-257.8745 317.7149,-257.8745 321.9648,-262.1244 321.9648,-266.3743 321.9648,-266.3743 321.9648,-274.8742 321.9648,-274.8742 321.9648,-279.1241 317.7149,-283.374 313.465,-283.374"/>
<text text-anchor="middle" x="160.9883" y="-267.2485" font-family="Arial" font-size="15.00" fill="#c6c5fe">presenter/components/ecosystem/Me/index.ts</text>
</g>
<!-- presenter/components/ecosystem/Me/index.ts&#45;&gt;presenter/components/ecosystem/Me/Me.tsx -->
<g id="edge17" class="edge">
<title>presenter/components/ecosystem/Me/index.ts&#45;&gt;presenter/components/ecosystem/Me/Me.tsx</title>
<path fill="none" stroke="#757575" d="M322.1234,-270.6243C337.9437,-270.6243 354.0257,-270.6243 369.9104,-270.6243"/>
<polygon fill="#757575" stroke="#757575" points="370.3157,-274.1244 380.3156,-270.6243 370.3156,-267.1244 370.3157,-274.1244"/>
</g>
<!-- presenter/containers/ErrorBoundary.tsx -->
<g id="node23" class="node">
<title>presenter/containers/ErrorBoundary.tsx</title>
<path fill="none" stroke="#cfffac" d="M290.6649,-326.374C290.6649,-326.374 31.3117,-326.374 31.3117,-326.374 27.0617,-326.374 22.8118,-322.1241 22.8118,-317.8742 22.8118,-317.8742 22.8118,-309.3743 22.8118,-309.3743 22.8118,-305.1244 27.0617,-300.8745 31.3117,-300.8745 31.3117,-300.8745 290.6649,-300.8745 290.6649,-300.8745 294.9148,-300.8745 299.1647,-305.1244 299.1647,-309.3743 299.1647,-309.3743 299.1647,-317.8742 299.1647,-317.8742 299.1647,-322.1241 294.9148,-326.374 290.6649,-326.374"/>
<text text-anchor="middle" x="160.9883" y="-310.2485" font-family="Arial" font-size="15.00" fill="#cfffac">presenter/containers/ErrorBoundary.tsx</text>
</g>
</g>
</svg>
