<?xml version="1.0" encoding="UTF-8" standalone="no"?>
<!DOCTYPE svg PUBLIC "-//W3C//DTD SVG 1.1//EN"
 "http://www.w3.org/Graphics/SVG/1.1/DTD/svg11.dtd">
<!-- Generated by graphviz version 2.40.1 (20161225.0304)
 -->
<!-- Title: G Pages: 1 -->
<svg width="2229pt" height="335pt"
 viewBox="0.00 0.00 2228.79 334.76" xmlns="http://www.w3.org/2000/svg" xmlns:xlink="http://www.w3.org/1999/xlink">
<g id="graph0" class="graph" transform="scale(1 1) rotate(0) translate(21.6 313.1637)">
<title>G</title>
<polygon fill="#111111" stroke="transparent" points="-21.6,21.6 -21.6,-313.1637 2207.1903,-313.1637 2207.1903,21.6 -21.6,21.6"/>
<!-- app.d.ts -->
<g id="node1" class="node">
<title>app.d.ts</title>
<path fill="none" stroke="#cfffac" d="M192.7883,-36.6893C192.7883,-36.6893 140.0428,-36.6893 140.0428,-36.6893 135.7929,-36.6893 131.5429,-32.4393 131.5429,-28.1894 131.5429,-28.1894 131.5429,-19.6896 131.5429,-19.6896 131.5429,-15.4396 135.7929,-11.1897 140.0428,-11.1897 140.0428,-11.1897 192.7883,-11.1897 192.7883,-11.1897 197.0382,-11.1897 201.2881,-15.4396 201.2881,-19.6896 201.2881,-19.6896 201.2881,-28.1894 201.2881,-28.1894 201.2881,-32.4393 197.0382,-36.6893 192.7883,-36.6893"/>
<text text-anchor="middle" x="166.4155" y="-20.5637" font-family="Arial" font-size="15.00" fill="#cfffac">app.d.ts</text>
</g>
<!-- domain/me/index.ts -->
<g id="node2" class="node">
<title>domain/me/index.ts</title>
<path fill="none" stroke="#c6c5fe" d="M1687.1066,-184.6893C1687.1066,-184.6893 1557.9793,-184.6893 1557.9793,-184.6893 1553.7294,-184.6893 1549.4795,-180.4393 1549.4795,-176.1894 1549.4795,-176.1894 1549.4795,-167.6896 1549.4795,-167.6896 1549.4795,-163.4396 1553.7294,-159.1897 1557.9793,-159.1897 1557.9793,-159.1897 1687.1066,-159.1897 1687.1066,-159.1897 1691.3565,-159.1897 1695.6065,-163.4396 1695.6065,-167.6896 1695.6065,-167.6896 1695.6065,-176.1894 1695.6065,-176.1894 1695.6065,-180.4393 1691.3565,-184.6893 1687.1066,-184.6893"/>
<text text-anchor="middle" x="1622.543" y="-168.5637" font-family="Arial" font-size="15.00" fill="#c6c5fe">domain/me/index.ts</text>
</g>
<!-- domain/me/me.ts -->
<g id="node3" class="node">
<title>domain/me/me.ts</title>
<path fill="none" stroke="#cfffac" d="M1981.703,-184.6893C1981.703,-184.6893 1867.6197,-184.6893 1867.6197,-184.6893 1863.3698,-184.6893 1859.1199,-180.4393 1859.1199,-176.1894 1859.1199,-176.1894 1859.1199,-167.6896 1859.1199,-167.6896 1859.1199,-163.4396 1863.3698,-159.1897 1867.6197,-159.1897 1867.6197,-159.1897 1981.703,-159.1897 1981.703,-159.1897 1985.953,-159.1897 1990.2029,-163.4396 1990.2029,-167.6896 1990.2029,-167.6896 1990.2029,-176.1894 1990.2029,-176.1894 1990.2029,-180.4393 1985.953,-184.6893 1981.703,-184.6893"/>
<text text-anchor="middle" x="1924.6614" y="-168.5637" font-family="Arial" font-size="15.00" fill="#cfffac">domain/me/me.ts</text>
</g>
<!-- domain/me/index.ts&#45;&gt;domain/me/me.ts -->
<g id="edge1" class="edge">
<title>domain/me/index.ts&#45;&gt;domain/me/me.ts</title>
<path fill="none" stroke="#757575" d="M1695.6774,-171.9395C1742.0459,-171.9395 1801.9037,-171.9395 1848.7899,-171.9395"/>
<polygon fill="#757575" stroke="#757575" points="1848.8909,-175.4396 1858.8908,-171.9395 1848.8908,-168.4396 1848.8909,-175.4396"/>
</g>
<!-- domain/me/type.ts -->
<g id="node4" class="node">
<title>domain/me/type.ts</title>
<path fill="none" stroke="#cfffac" d="M2176.8693,-121.6893C2176.8693,-121.6893 2055.7552,-121.6893 2055.7552,-121.6893 2051.5053,-121.6893 2047.2554,-117.4393 2047.2554,-113.1894 2047.2554,-113.1894 2047.2554,-104.6896 2047.2554,-104.6896 2047.2554,-100.4396 2051.5053,-96.1897 2055.7552,-96.1897 2055.7552,-96.1897 2176.8693,-96.1897 2176.8693,-96.1897 2181.1192,-96.1897 2185.3691,-100.4396 2185.3691,-104.6896 2185.3691,-104.6896 2185.3691,-113.1894 2185.3691,-113.1894 2185.3691,-117.4393 2181.1192,-121.6893 2176.8693,-121.6893"/>
<text text-anchor="middle" x="2116.3123" y="-105.5637" font-family="Arial" font-size="15.00" fill="#cfffac">domain/me/type.ts</text>
</g>
<!-- domain/me/index.ts&#45;&gt;domain/me/type.ts -->
<g id="edge2" class="edge">
<title>domain/me/index.ts&#45;&gt;domain/me/type.ts</title>
<path fill="none" stroke="#757575" d="M1695.6011,-163.6833C1728.2582,-159.9208 1767.2174,-155.3332 1802.2886,-150.9395 1882.3278,-140.9121 1973.7189,-128.59 2037.1884,-119.893"/>
<polygon fill="#757575" stroke="#757575" points="2037.6977,-123.356 2047.1292,-118.5293 2036.7462,-116.421 2037.6977,-123.356"/>
</g>
<!-- externalInterface/api/http/client/client.ts -->
<g id="node5" class="node">
<title>externalInterface/api/http/client/client.ts</title>
<path fill="none" stroke="#cfffac" d="M1751.8499,-227.6893C1751.8499,-227.6893 1493.236,-227.6893 1493.236,-227.6893 1488.9861,-227.6893 1484.7362,-223.4393 1484.7362,-219.1894 1484.7362,-219.1894 1484.7362,-210.6896 1484.7362,-210.6896 1484.7362,-206.4396 1488.9861,-202.1897 1493.236,-202.1897 1493.236,-202.1897 1751.8499,-202.1897 1751.8499,-202.1897 1756.0999,-202.1897 1760.3498,-206.4396 1760.3498,-210.6896 1760.3498,-210.6896 1760.3498,-219.1894 1760.3498,-219.1894 1760.3498,-223.4393 1756.0999,-227.6893 1751.8499,-227.6893"/>
<text text-anchor="middle" x="1622.543" y="-211.5637" font-family="Arial" font-size="15.00" fill="#cfffac">externalInterface/api/http/client/client.ts</text>
</g>
<!-- externalInterface/api/http/client/index.ts -->
<g id="node6" class="node">
<title>externalInterface/api/http/client/index.ts</title>
<path fill="none" stroke="#c6c5fe" d="M1398.372,-227.6893C1398.372,-227.6893 1139.0738,-227.6893 1139.0738,-227.6893 1134.8239,-227.6893 1130.5739,-223.4393 1130.5739,-219.1894 1130.5739,-219.1894 1130.5739,-210.6896 1130.5739,-210.6896 1130.5739,-206.4396 1134.8239,-202.1897 1139.0738,-202.1897 1139.0738,-202.1897 1398.372,-202.1897 1398.372,-202.1897 1402.6219,-202.1897 1406.8719,-206.4396 1406.8719,-210.6896 1406.8719,-210.6896 1406.8719,-219.1894 1406.8719,-219.1894 1406.8719,-223.4393 1402.6219,-227.6893 1398.372,-227.6893"/>
<text text-anchor="middle" x="1268.7229" y="-211.5637" font-family="Arial" font-size="15.00" fill="#c6c5fe">externalInterface/api/http/client/index.ts</text>
</g>
<!-- externalInterface/api/http/client/index.ts&#45;&gt;externalInterface/api/http/client/client.ts -->
<g id="edge3" class="edge">
<title>externalInterface/api/http/client/index.ts&#45;&gt;externalInterface/api/http/client/client.ts</title>
<path fill="none" stroke="#757575" d="M1407.0391,-214.9395C1429.1415,-214.9395 1452.0888,-214.9395 1474.4081,-214.9395"/>
<polygon fill="#757575" stroke="#757575" points="1474.6135,-218.4396 1484.6135,-214.9395 1474.6134,-211.4396 1474.6135,-218.4396"/>
</g>
<!-- externalInterface/api/http/client/util.ts -->
<g id="node7" class="node">
<title>externalInterface/api/http/client/util.ts</title>
<path fill="none" stroke="#cfffac" d="M1390.1878,-184.6893C1390.1878,-184.6893 1147.258,-184.6893 1147.258,-184.6893 1143.0081,-184.6893 1138.7581,-180.4393 1138.7581,-176.1894 1138.7581,-176.1894 1138.7581,-167.6896 1138.7581,-167.6896 1138.7581,-163.4396 1143.0081,-159.1897 1147.258,-159.1897 1147.258,-159.1897 1390.1878,-159.1897 1390.1878,-159.1897 1394.4377,-159.1897 1398.6877,-163.4396 1398.6877,-167.6896 1398.6877,-167.6896 1398.6877,-176.1894 1398.6877,-176.1894 1398.6877,-180.4393 1394.4377,-184.6893 1390.1878,-184.6893"/>
<text text-anchor="middle" x="1268.7229" y="-168.5637" font-family="Arial" font-size="15.00" fill="#cfffac">externalInterface/api/http/client/util.ts</text>
</g>
<!-- externalInterface/api/http/me.ts -->
<g id="node8" class="node">
<title>externalInterface/api/http/me.ts</title>
<path fill="none" stroke="#c6c5fe" d="M1011.0868,-205.6893C1011.0868,-205.6893 806.2017,-205.6893 806.2017,-205.6893 801.9518,-205.6893 797.7019,-201.4393 797.7019,-197.1894 797.7019,-197.1894 797.7019,-188.6896 797.7019,-188.6896 797.7019,-184.4396 801.9518,-180.1897 806.2017,-180.1897 806.2017,-180.1897 1011.0868,-180.1897 1011.0868,-180.1897 1015.3368,-180.1897 1019.5867,-184.4396 1019.5867,-188.6896 1019.5867,-188.6896 1019.5867,-197.1894 1019.5867,-197.1894 1019.5867,-201.4393 1015.3368,-205.6893 1011.0868,-205.6893"/>
<text text-anchor="middle" x="908.6443" y="-189.5637" font-family="Arial" font-size="15.00" fill="#c6c5fe">externalInterface/api/http/me.ts</text>
</g>
<!-- externalInterface/api/http/me.ts&#45;&gt;externalInterface/api/http/client/index.ts -->
<g id="edge4" class="edge">
<title>externalInterface/api/http/me.ts&#45;&gt;externalInterface/api/http/client/index.ts</title>
<path fill="none" stroke="#757575" d="M1019.6179,-199.7197C1051.3597,-201.6591 1086.4775,-203.8047 1120.0884,-205.8582"/>
<polygon fill="#757575" stroke="#757575" points="1120.2707,-209.3758 1130.4655,-206.4923 1120.6976,-202.3888 1120.2707,-209.3758"/>
</g>
<!-- externalInterface/api/http/me.ts&#45;&gt;externalInterface/api/http/client/util.ts -->
<g id="edge5" class="edge">
<title>externalInterface/api/http/me.ts&#45;&gt;externalInterface/api/http/client/util.ts</title>
<path fill="none" stroke="#757575" d="M1019.6179,-186.4674C1054.0888,-184.4571 1092.5411,-182.2145 1128.7212,-180.1045"/>
<polygon fill="#757575" stroke="#757575" points="1129.0812,-183.5895 1138.8604,-179.5131 1128.6736,-176.6014 1129.0812,-183.5895"/>
</g>
<!-- gateway/me/index.ts -->
<g id="node9" class="node">
<title>gateway/me/index.ts</title>
<path fill="none" stroke="#c6c5fe" d="M234.1517,-205.6893C234.1517,-205.6893 98.6793,-205.6893 98.6793,-205.6893 94.4294,-205.6893 90.1795,-201.4393 90.1795,-197.1894 90.1795,-197.1894 90.1795,-188.6896 90.1795,-188.6896 90.1795,-184.4396 94.4294,-180.1897 98.6793,-180.1897 98.6793,-180.1897 234.1517,-180.1897 234.1517,-180.1897 238.4017,-180.1897 242.6516,-184.4396 242.6516,-188.6896 242.6516,-188.6896 242.6516,-197.1894 242.6516,-197.1894 242.6516,-201.4393 238.4017,-205.6893 234.1517,-205.6893"/>
<text text-anchor="middle" x="166.4155" y="-189.5637" font-family="Arial" font-size="15.00" fill="#c6c5fe">gateway/me/index.ts</text>
</g>
<!-- gateway/me/me.ts -->
<g id="node10" class="node">
<title>gateway/me/me.ts</title>
<path fill="none" stroke="#c6c5fe" d="M587.9499,-205.6893C587.9499,-205.6893 467.5213,-205.6893 467.5213,-205.6893 463.2714,-205.6893 459.0214,-201.4393 459.0214,-197.1894 459.0214,-197.1894 459.0214,-188.6896 459.0214,-188.6896 459.0214,-184.4396 463.2714,-180.1897 467.5213,-180.1897 467.5213,-180.1897 587.9499,-180.1897 587.9499,-180.1897 592.1998,-180.1897 596.4498,-184.4396 596.4498,-188.6896 596.4498,-188.6896 596.4498,-197.1894 596.4498,-197.1894 596.4498,-201.4393 592.1998,-205.6893 587.9499,-205.6893"/>
<text text-anchor="middle" x="527.7356" y="-189.5637" font-family="Arial" font-size="15.00" fill="#c6c5fe">gateway/me/me.ts</text>
</g>
<!-- gateway/me/index.ts&#45;&gt;gateway/me/me.ts -->
<g id="edge6" class="edge">
<title>gateway/me/index.ts&#45;&gt;gateway/me/me.ts</title>
<path fill="none" stroke="#757575" d="M243.0422,-192.9395C303.454,-192.9395 387.4093,-192.9395 448.4885,-192.9395"/>
<polygon fill="#757575" stroke="#757575" points="448.8504,-196.4396 458.8503,-192.9395 448.8503,-189.4396 448.8504,-196.4396"/>
</g>
<!-- gateway/me/me.ts&#45;&gt;externalInterface/api/http/me.ts -->
<g id="edge7" class="edge">
<title>gateway/me/me.ts&#45;&gt;externalInterface/api/http/me.ts</title>
<path fill="none" stroke="#757575" d="M596.7153,-192.9395C649.8294,-192.9395 724.5767,-192.9395 787.5853,-192.9395"/>
<polygon fill="#757575" stroke="#757575" points="787.5919,-196.4396 797.5919,-192.9395 787.5919,-189.4396 787.5919,-196.4396"/>
</g>
<!-- presenter/components/ecosystem/Me/Content.tsx -->
<g id="node11" class="node">
<title>presenter/components/ecosystem/Me/Content.tsx</title>
<path fill="none" stroke="#c6c5fe" d="M1787.197,-141.6893C1787.197,-141.6893 1457.889,-141.6893 1457.889,-141.6893 1453.639,-141.6893 1449.3891,-137.4393 1449.3891,-133.1894 1449.3891,-133.1894 1449.3891,-124.6896 1449.3891,-124.6896 1449.3891,-120.4396 1453.639,-116.1897 1457.889,-116.1897 1457.889,-116.1897 1787.197,-116.1897 1787.197,-116.1897 1791.4469,-116.1897 1795.6968,-120.4396 1795.6968,-124.6896 1795.6968,-124.6896 1795.6968,-133.1894 1795.6968,-133.1894 1795.6968,-137.4393 1791.4469,-141.6893 1787.197,-141.6893"/>
<text text-anchor="middle" x="1622.543" y="-125.5637" font-family="Arial" font-size="15.00" fill="#c6c5fe">presenter/components/ecosystem/Me/Content.tsx</text>
</g>
<!-- useCase/useMe/type.ts -->
<g id="node12" class="node">
<title>useCase/useMe/type.ts</title>
<path fill="none" stroke="#c6c5fe" d="M2002.4073,-101.6893C2002.4073,-101.6893 1846.9154,-101.6893 1846.9154,-101.6893 1842.6655,-101.6893 1838.4156,-97.4393 1838.4156,-93.1894 1838.4156,-93.1894 1838.4156,-84.6896 1838.4156,-84.6896 1838.4156,-80.4396 1842.6655,-76.1897 1846.9154,-76.1897 1846.9154,-76.1897 2002.4073,-76.1897 2002.4073,-76.1897 2006.6572,-76.1897 2010.9072,-80.4396 2010.9072,-84.6896 2010.9072,-84.6896 2010.9072,-93.1894 2010.9072,-93.1894 2010.9072,-97.4393 2006.6572,-101.6893 2002.4073,-101.6893"/>
<text text-anchor="middle" x="1924.6614" y="-85.5637" font-family="Arial" font-size="15.00" fill="#c6c5fe">useCase/useMe/type.ts</text>
</g>
<!-- presenter/components/ecosystem/Me/Content.tsx&#45;&gt;useCase/useMe/type.ts -->
<g id="edge8" class="edge">
<title>presenter/components/ecosystem/Me/Content.tsx&#45;&gt;useCase/useMe/type.ts</title>
<path fill="none" stroke="#757575" d="M1718.1351,-116.2832C1753.2224,-111.6377 1792.946,-106.3784 1828.1163,-101.7219"/>
<polygon fill="#757575" stroke="#757575" points="1828.9356,-105.1441 1838.3897,-100.3617 1828.0167,-98.2046 1828.9356,-105.1441"/>
</g>
<!-- useCase/useMe/type.ts&#45;&gt;domain/me/type.ts -->
<g id="edge19" class="edge">
<title>useCase/useMe/type.ts&#45;&gt;domain/me/type.ts</title>
<path fill="none" stroke="#757575" d="M2010.9557,-97.9449C2019.6678,-98.854 2028.486,-99.7743 2037.1185,-100.6751"/>
<polygon fill="#757575" stroke="#757575" points="2036.8401,-104.165 2047.1494,-101.7219 2037.5667,-97.2028 2036.8401,-104.165"/>
</g>
<!-- presenter/components/ecosystem/Me/Exception.tsx -->
<g id="node13" class="node">
<title>presenter/components/ecosystem/Me/Exception.tsx</title>
<path fill="none" stroke="#cfffac" d="M1794.0347,-59.6893C1794.0347,-59.6893 1451.0513,-59.6893 1451.0513,-59.6893 1446.8013,-59.6893 1442.5514,-55.4393 1442.5514,-51.1894 1442.5514,-51.1894 1442.5514,-42.6896 1442.5514,-42.6896 1442.5514,-38.4396 1446.8013,-34.1897 1451.0513,-34.1897 1451.0513,-34.1897 1794.0347,-34.1897 1794.0347,-34.1897 1798.2846,-34.1897 1802.5345,-38.4396 1802.5345,-42.6896 1802.5345,-42.6896 1802.5345,-51.1894 1802.5345,-51.1894 1802.5345,-55.4393 1798.2846,-59.6893 1794.0347,-59.6893"/>
<text text-anchor="middle" x="1622.543" y="-43.5637" font-family="Arial" font-size="15.00" fill="#cfffac">presenter/components/ecosystem/Me/Exception.tsx</text>
</g>
<!-- presenter/components/ecosystem/Me/Me.tsx -->
<g id="node14" class="node">
<title>presenter/components/ecosystem/Me/Me.tsx</title>
<path fill="none" stroke="#c6c5fe" d="M676.6907,-248.6893C676.6907,-248.6893 378.7805,-248.6893 378.7805,-248.6893 374.5306,-248.6893 370.2807,-244.4393 370.2807,-240.1894 370.2807,-240.1894 370.2807,-231.6896 370.2807,-231.6896 370.2807,-227.4396 374.5306,-223.1897 378.7805,-223.1897 378.7805,-223.1897 676.6907,-223.1897 676.6907,-223.1897 680.9406,-223.1897 685.1905,-227.4396 685.1905,-231.6896 685.1905,-231.6896 685.1905,-240.1894 685.1905,-240.1894 685.1905,-244.4393 680.9406,-248.6893 676.6907,-248.6893"/>
<text text-anchor="middle" x="527.7356" y="-232.5637" font-family="Arial" font-size="15.00" fill="#c6c5fe">presenter/components/ecosystem/Me/Me.tsx</text>
</g>
<!-- presenter/components/ecosystem/Me/Placeholder.tsx -->
<g id="node15" class="node">
<title>presenter/components/ecosystem/Me/Placeholder.tsx</title>
<path fill="none" stroke="#cfffac" d="M1086.1527,-248.6893C1086.1527,-248.6893 731.1358,-248.6893 731.1358,-248.6893 726.8859,-248.6893 722.636,-244.4393 722.636,-240.1894 722.636,-240.1894 722.636,-231.6896 722.636,-231.6896 722.636,-227.4396 726.8859,-223.1897 731.1358,-223.1897 731.1358,-223.1897 1086.1527,-223.1897 1086.1527,-223.1897 1090.4027,-223.1897 1094.6526,-227.4396 1094.6526,-231.6896 1094.6526,-231.6896 1094.6526,-240.1894 1094.6526,-240.1894 1094.6526,-244.4393 1090.4027,-248.6893 1086.1527,-248.6893"/>
<text text-anchor="middle" x="908.6443" y="-232.5637" font-family="Arial" font-size="15.00" fill="#cfffac">presenter/components/ecosystem/Me/Placeholder.tsx</text>
</g>
<!-- presenter/components/ecosystem/Me/Me.tsx&#45;&gt;presenter/components/ecosystem/Me/Placeholder.tsx -->
<g id="edge9" class="edge">
<title>presenter/components/ecosystem/Me/Me.tsx&#45;&gt;presenter/components/ecosystem/Me/Placeholder.tsx</title>
<path fill="none" stroke="#757575" d="M685.1401,-235.9395C694.0681,-235.9395 703.0961,-235.9395 712.1423,-235.9395"/>
<polygon fill="#757575" stroke="#757575" points="712.3592,-239.4396 722.3592,-235.9395 712.3591,-232.4396 712.3592,-239.4396"/>
</g>
<!-- presenter/components/ecosystem/Me/index.ts -->
<g id="node16" class="node">
<title>presenter/components/ecosystem/Me/index.ts</title>
<path fill="none" stroke="#c6c5fe" d="M318.8922,-248.6893C318.8922,-248.6893 13.9388,-248.6893 13.9388,-248.6893 9.6889,-248.6893 5.439,-244.4393 5.439,-240.1894 5.439,-240.1894 5.439,-231.6896 5.439,-231.6896 5.439,-227.4396 9.6889,-223.1897 13.9388,-223.1897 13.9388,-223.1897 318.8922,-223.1897 318.8922,-223.1897 323.1422,-223.1897 327.3921,-227.4396 327.3921,-231.6896 327.3921,-231.6896 327.3921,-240.1894 327.3921,-240.1894 327.3921,-244.4393 323.1422,-248.6893 318.8922,-248.6893"/>
<text text-anchor="middle" x="166.4155" y="-232.5637" font-family="Arial" font-size="15.00" fill="#c6c5fe">presenter/components/ecosystem/Me/index.ts</text>
</g>
<!-- presenter/components/ecosystem/Me/index.ts&#45;&gt;presenter/components/ecosystem/Me/Me.tsx -->
<g id="edge10" class="edge">
<title>presenter/components/ecosystem/Me/index.ts&#45;&gt;presenter/components/ecosystem/Me/Me.tsx</title>
<path fill="none" stroke="#757575" d="M327.5264,-235.9395C338.2935,-235.9395 349.1543,-235.9395 359.9535,-235.9395"/>
<polygon fill="#757575" stroke="#757575" points="360.2834,-239.4396 370.2834,-235.9395 360.2833,-232.4396 360.2834,-239.4396"/>
</g>
<!-- presenter/components/environment/Me/Me.ts -->
<g id="node17" class="node">
<title>presenter/components/environment/Me/Me.ts</title>
<path fill="none" stroke="#c6c5fe" d="M678.0449,-79.6893C678.0449,-79.6893 377.4263,-79.6893 377.4263,-79.6893 373.1764,-79.6893 368.9265,-75.4393 368.9265,-71.1894 368.9265,-71.1894 368.9265,-62.6896 368.9265,-62.6896 368.9265,-58.4396 373.1764,-54.1897 377.4263,-54.1897 377.4263,-54.1897 678.0449,-54.1897 678.0449,-54.1897 682.2948,-54.1897 686.5447,-58.4396 686.5447,-62.6896 686.5447,-62.6896 686.5447,-71.1894 686.5447,-71.1894 686.5447,-75.4393 682.2948,-79.6893 678.0449,-79.6893"/>
<text text-anchor="middle" x="527.7356" y="-63.5637" font-family="Arial" font-size="15.00" fill="#c6c5fe">presenter/components/environment/Me/Me.ts</text>
</g>
<!-- useCase/useMe/index.ts -->
<g id="node18" class="node">
<title>useCase/useMe/index.ts</title>
<path fill="none" stroke="#c6c5fe" d="M990.3975,-79.6893C990.3975,-79.6893 826.891,-79.6893 826.891,-79.6893 822.6411,-79.6893 818.3912,-75.4393 818.3912,-71.1894 818.3912,-71.1894 818.3912,-62.6896 818.3912,-62.6896 818.3912,-58.4396 822.6411,-54.1897 826.891,-54.1897 826.891,-54.1897 990.3975,-54.1897 990.3975,-54.1897 994.6475,-54.1897 998.8974,-58.4396 998.8974,-62.6896 998.8974,-62.6896 998.8974,-71.1894 998.8974,-71.1894 998.8974,-75.4393 994.6475,-79.6893 990.3975,-79.6893"/>
<text text-anchor="middle" x="908.6443" y="-63.5637" font-family="Arial" font-size="15.00" fill="#c6c5fe">useCase/useMe/index.ts</text>
</g>
<!-- presenter/components/environment/Me/Me.ts&#45;&gt;useCase/useMe/index.ts -->
<g id="edge11" class="edge">
<title>presenter/components/environment/Me/Me.ts&#45;&gt;useCase/useMe/index.ts</title>
<path fill="none" stroke="#757575" d="M686.7925,-66.9395C727.8156,-66.9395 770.8374,-66.9395 807.9594,-66.9395"/>
<polygon fill="#757575" stroke="#757575" points="808.2668,-70.4396 818.2667,-66.9395 808.2667,-63.4396 808.2668,-70.4396"/>
</g>
<!-- useCase/useMe/interactor.tsx -->
<g id="node21" class="node">
<title>useCase/useMe/interactor.tsx</title>
<path fill="none" stroke="#c6c5fe" d="M1366.8162,-100.6893C1366.8162,-100.6893 1170.6296,-100.6893 1170.6296,-100.6893 1166.3797,-100.6893 1162.1297,-96.4393 1162.1297,-92.1894 1162.1297,-92.1894 1162.1297,-83.6896 1162.1297,-83.6896 1162.1297,-79.4396 1166.3797,-75.1897 1170.6296,-75.1897 1170.6296,-75.1897 1366.8162,-75.1897 1366.8162,-75.1897 1371.0661,-75.1897 1375.3161,-79.4396 1375.3161,-83.6896 1375.3161,-83.6896 1375.3161,-92.1894 1375.3161,-92.1894 1375.3161,-96.4393 1371.0661,-100.6893 1366.8162,-100.6893"/>
<text text-anchor="middle" x="1268.7229" y="-84.5637" font-family="Arial" font-size="15.00" fill="#c6c5fe">useCase/useMe/interactor.tsx</text>
</g>
<!-- useCase/useMe/index.ts&#45;&gt;useCase/useMe/interactor.tsx -->
<g id="edge13" class="edge">
<title>useCase/useMe/index.ts&#45;&gt;useCase/useMe/interactor.tsx</title>
<path fill="none" stroke="#757575" d="M999.0425,-72.2116C1045.3307,-74.9111 1102.2323,-78.2297 1151.8182,-81.1215"/>
<polygon fill="#757575" stroke="#757575" points="1151.7697,-84.6246 1161.9566,-81.7128 1152.1773,-77.6364 1151.7697,-84.6246"/>
</g>
<!-- useCase/useMe/useMe.ts -->
<g id="node22" class="node">
<title>useCase/useMe/useMe.ts</title>
<path fill="none" stroke="#c6c5fe" d="M1355.139,-38.6893C1355.139,-38.6893 1182.3068,-38.6893 1182.3068,-38.6893 1178.0568,-38.6893 1173.8069,-34.4393 1173.8069,-30.1894 1173.8069,-30.1894 1173.8069,-21.6896 1173.8069,-21.6896 1173.8069,-17.4396 1178.0568,-13.1897 1182.3068,-13.1897 1182.3068,-13.1897 1355.139,-13.1897 1355.139,-13.1897 1359.389,-13.1897 1363.6389,-17.4396 1363.6389,-21.6896 1363.6389,-21.6896 1363.6389,-30.1894 1363.6389,-30.1894 1363.6389,-34.4393 1359.389,-38.6893 1355.139,-38.6893"/>
<text text-anchor="middle" x="1268.7229" y="-22.5637" font-family="Arial" font-size="15.00" fill="#c6c5fe">useCase/useMe/useMe.ts</text>
</g>
<!-- useCase/useMe/index.ts&#45;&gt;useCase/useMe/useMe.ts -->
<g id="edge14" class="edge">
<title>useCase/useMe/index.ts&#45;&gt;useCase/useMe/useMe.ts</title>
<path fill="none" stroke="#757575" d="M999.0425,-56.6464C1049.1446,-50.9415 1111.6813,-43.8209 1163.9161,-37.8732"/>
<polygon fill="#757575" stroke="#757575" points="1164.3413,-41.3475 1173.8811,-36.7386 1163.5493,-34.3924 1164.3413,-41.3475"/>
</g>
<!-- presenter/components/environment/Me/index.ts -->
<g id="node19" class="node">
<title>presenter/components/environment/Me/index.ts</title>
<path fill="none" stroke="#c6c5fe" d="M324.2468,-79.6893C324.2468,-79.6893 8.5843,-79.6893 8.5843,-79.6893 4.3344,-79.6893 .0844,-75.4393 .0844,-71.1894 .0844,-71.1894 .0844,-62.6896 .0844,-62.6896 .0844,-58.4396 4.3344,-54.1897 8.5843,-54.1897 8.5843,-54.1897 324.2468,-54.1897 324.2468,-54.1897 328.4967,-54.1897 332.7466,-58.4396 332.7466,-62.6896 332.7466,-62.6896 332.7466,-71.1894 332.7466,-71.1894 332.7466,-75.4393 328.4967,-79.6893 324.2468,-79.6893"/>
<text text-anchor="middle" x="166.4155" y="-63.5637" font-family="Arial" font-size="15.00" fill="#c6c5fe">presenter/components/environment/Me/index.ts</text>
</g>
<!-- presenter/components/environment/Me/index.ts&#45;&gt;presenter/components/environment/Me/Me.ts -->
<g id="edge12" class="edge">
<title>presenter/components/environment/Me/index.ts&#45;&gt;presenter/components/environment/Me/Me.ts</title>
<path fill="none" stroke="#757575" d="M332.7983,-66.9395C341.3847,-66.9395 350.0143,-66.9395 358.609,-66.9395"/>
<polygon fill="#757575" stroke="#757575" points="358.6777,-70.4396 368.6777,-66.9395 358.6776,-63.4396 358.6777,-70.4396"/>
</g>
<!-- presenter/containers/ErrorBoundary.tsx -->
<g id="node20" class="node">
<title>presenter/containers/ErrorBoundary.tsx</title>
<path fill="none" stroke="#cfffac" d="M296.0921,-291.6893C296.0921,-291.6893 36.7389,-291.6893 36.7389,-291.6893 32.489,-291.6893 28.2391,-287.4393 28.2391,-283.1894 28.2391,-283.1894 28.2391,-274.6896 28.2391,-274.6896 28.2391,-270.4396 32.489,-266.1897 36.7389,-266.1897 36.7389,-266.1897 296.0921,-266.1897 296.0921,-266.1897 300.3421,-266.1897 304.592,-270.4396 304.592,-274.6896 304.592,-274.6896 304.592,-283.1894 304.592,-283.1894 304.592,-287.4393 300.3421,-291.6893 296.0921,-291.6893"/>
<text text-anchor="middle" x="166.4155" y="-275.5637" font-family="Arial" font-size="15.00" fill="#cfffac">presenter/containers/ErrorBoundary.tsx</text>
</g>
<!-- useCase/useMe/interactor.tsx&#45;&gt;domain/me/index.ts -->
<g id="edge15" class="edge">
<title>useCase/useMe/interactor.tsx&#45;&gt;domain/me/index.ts</title>
<path fill="none" stroke="#757575" d="M1297.3574,-100.6283C1331.3526,-115.1421 1390.0903,-138.4996 1442.7974,-150.9395 1473.8412,-158.2664 1508.5315,-163.0847 1539.0939,-166.2317"/>
<polygon fill="#757575" stroke="#757575" points="1538.994,-169.7387 1549.289,-167.2361 1539.6804,-162.7725 1538.994,-169.7387"/>
</g>
<!-- useCase/useMe/interactor.tsx&#45;&gt;presenter/components/ecosystem/Me/Content.tsx -->
<g id="edge16" class="edge">
<title>useCase/useMe/interactor.tsx&#45;&gt;presenter/components/ecosystem/Me/Content.tsx</title>
<path fill="none" stroke="#757575" d="M1375.3604,-100.2964C1415.6815,-104.9688 1461.818,-110.315 1503.2286,-115.1136"/>
<polygon fill="#757575" stroke="#757575" points="1503.0331,-118.6142 1513.3695,-116.2887 1503.8389,-111.6608 1503.0331,-118.6142"/>
</g>
<!-- useCase/useMe/interactor.tsx&#45;&gt;useCase/useMe/type.ts -->
<g id="edge18" class="edge">
<title>useCase/useMe/interactor.tsx&#45;&gt;useCase/useMe/type.ts</title>
<path fill="none" stroke="#757575" d="M1375.5706,-88.1024C1500.9705,-88.2936 1707.0993,-88.6078 1827.946,-88.792"/>
<polygon fill="#757575" stroke="#757575" points="1828.2857,-92.2925 1838.2911,-88.8078 1828.2965,-85.2925 1828.2857,-92.2925"/>
</g>
<!-- useCase/useMe/interactor.tsx&#45;&gt;presenter/components/ecosystem/Me/Exception.tsx -->
<g id="edge17" class="edge">
<title>useCase/useMe/interactor.tsx&#45;&gt;presenter/components/ecosystem/Me/Exception.tsx</title>
<path fill="none" stroke="#757575" d="M1375.3604,-75.5825C1415.6815,-70.9102 1461.818,-65.564 1503.2286,-60.7654"/>
<polygon fill="#757575" stroke="#757575" points="1503.8389,-64.2182 1513.3695,-59.5903 1503.0331,-57.2647 1503.8389,-64.2182"/>
</g>
<!-- useCase/useMe/useMe.ts&#45;&gt;useCase/useMe/type.ts -->
<g id="edge20" class="edge">
<title>useCase/useMe/useMe.ts&#45;&gt;useCase/useMe/type.ts</title>
<path fill="none" stroke="#757575" d="M1354.3185,-13.2944C1460.9799,-.3636 1648.0116,12.9677 1802.2886,-24.9395 1838.005,-33.7153 1874.8578,-54.9544 1898.6602,-70.569"/>
<polygon fill="#757575" stroke="#757575" points="1896.8598,-73.5758 1907.1141,-76.2403 1900.7596,-67.7627 1896.8598,-73.5758"/>
</g>
</g>
</svg>
