<?xml version="1.0" encoding="UTF-8" standalone="no"?>
<!DOCTYPE svg PUBLIC "-//W3C//DTD SVG 1.1//EN"
 "http://www.w3.org/Graphics/SVG/1.1/DTD/svg11.dtd">
<!-- Generated by graphviz version 2.40.1 (20161225.0304)
 -->
<!-- Title: G Pages: 1 -->
<svg width="2485pt" height="412pt"
 viewBox="0.00 0.00 2484.77 412.45" xmlns="http://www.w3.org/2000/svg" xmlns:xlink="http://www.w3.org/1999/xlink">
<g id="graph0" class="graph" transform="scale(1 1) rotate(0) translate(21.6 390.8485)">
<title>G</title>
<polygon fill="#111111" stroke="transparent" points="-21.6,21.6 -21.6,-390.8485 2463.1718,-390.8485 2463.1718,21.6 -21.6,21.6"/>
<!-- app.d.ts -->
<g id="node1" class="node">
<title>app.d.ts</title>
<path fill="none" stroke="#cfffac" d="M243.2228,-89.374C243.2228,-89.374 190.4774,-89.374 190.4774,-89.374 186.2274,-89.374 181.9775,-85.1241 181.9775,-80.8742 181.9775,-80.8742 181.9775,-72.3743 181.9775,-72.3743 181.9775,-68.1244 186.2274,-63.8745 190.4774,-63.8745 190.4774,-63.8745 243.2228,-63.8745 243.2228,-63.8745 247.4728,-63.8745 251.7227,-68.1244 251.7227,-72.3743 251.7227,-72.3743 251.7227,-80.8742 251.7227,-80.8742 251.7227,-85.1241 247.4728,-89.374 243.2228,-89.374"/>
<text text-anchor="middle" x="216.8501" y="-73.2485" font-family="Arial" font-size="15.00" fill="#cfffac">app.d.ts</text>
</g>
<!-- domain/me/index.ts -->
<g id="node2" class="node">
<title>domain/me/index.ts</title>
<path fill="none" stroke="#c6c5fe" d="M714.0094,-240.374C714.0094,-240.374 584.8822,-240.374 584.8822,-240.374 580.6322,-240.374 576.3823,-236.1241 576.3823,-231.8742 576.3823,-231.8742 576.3823,-223.3743 576.3823,-223.3743 576.3823,-219.1244 580.6322,-214.8745 584.8822,-214.8745 584.8822,-214.8745 714.0094,-214.8745 714.0094,-214.8745 718.2594,-214.8745 722.5093,-219.1244 722.5093,-223.3743 722.5093,-223.3743 722.5093,-231.8742 722.5093,-231.8742 722.5093,-236.1241 718.2594,-240.374 714.0094,-240.374"/>
<text text-anchor="middle" x="649.4458" y="-224.2485" font-family="Arial" font-size="15.00" fill="#c6c5fe">domain/me/index.ts</text>
</g>
<!-- domain/me/me.ts -->
<g id="node3" class="node">
<title>domain/me/me.ts</title>
<path fill="none" stroke="#cfffac" d="M1108.2372,-283.374C1108.2372,-283.374 994.1539,-283.374 994.1539,-283.374 989.904,-283.374 985.654,-279.1241 985.654,-274.8742 985.654,-274.8742 985.654,-266.3743 985.654,-266.3743 985.654,-262.1244 989.904,-257.8745 994.1539,-257.8745 994.1539,-257.8745 1108.2372,-257.8745 1108.2372,-257.8745 1112.4871,-257.8745 1116.7371,-262.1244 1116.7371,-266.3743 1116.7371,-266.3743 1116.7371,-274.8742 1116.7371,-274.8742 1116.7371,-279.1241 1112.4871,-283.374 1108.2372,-283.374"/>
<text text-anchor="middle" x="1051.1956" y="-267.2485" font-family="Arial" font-size="15.00" fill="#cfffac">domain/me/me.ts</text>
</g>
<!-- domain/me/index.ts&#45;&gt;domain/me/me.ts -->
<g id="edge1" class="edge">
<title>domain/me/index.ts&#45;&gt;domain/me/me.ts</title>
<path fill="none" stroke="#757575" d="M722.6658,-235.4611C794.3221,-243.1306 902.9834,-254.7609 975.4832,-262.5206"/>
<polygon fill="#757575" stroke="#757575" points="975.1499,-266.0049 985.4656,-263.5891 975.8949,-259.0446 975.1499,-266.0049"/>
</g>
<!-- domain/me/type.ts -->
<g id="node4" class="node">
<title>domain/me/type.ts</title>
<path fill="none" stroke="#cfffac" d="M1111.7526,-240.374C1111.7526,-240.374 990.6385,-240.374 990.6385,-240.374 986.3886,-240.374 982.1387,-236.1241 982.1387,-231.8742 982.1387,-231.8742 982.1387,-223.3743 982.1387,-223.3743 982.1387,-219.1244 986.3886,-214.8745 990.6385,-214.8745 990.6385,-214.8745 1111.7526,-214.8745 1111.7526,-214.8745 1116.0025,-214.8745 1120.2524,-219.1244 1120.2524,-223.3743 1120.2524,-223.3743 1120.2524,-231.8742 1120.2524,-231.8742 1120.2524,-236.1241 1116.0025,-240.374 1111.7526,-240.374"/>
<text text-anchor="middle" x="1051.1956" y="-224.2485" font-family="Arial" font-size="15.00" fill="#cfffac">domain/me/type.ts</text>
</g>
<!-- domain/me/index.ts&#45;&gt;domain/me/type.ts -->
<g id="edge2" class="edge">
<title>domain/me/index.ts&#45;&gt;domain/me/type.ts</title>
<path fill="none" stroke="#757575" d="M722.6658,-227.6243C792.9892,-227.6243 898.9535,-227.6243 971.4001,-227.6243"/>
<polygon fill="#757575" stroke="#757575" points="971.8376,-231.1244 981.8375,-227.6243 971.8375,-224.1244 971.8376,-231.1244"/>
</g>
<!-- externalInterface/api/http/client/client.ts -->
<g id="node5" class="node">
<title>externalInterface/api/http/client/client.ts</title>
<path fill="none" stroke="#cfffac" d="M2433.2254,-219.374C2433.2254,-219.374 2174.6115,-219.374 2174.6115,-219.374 2170.3616,-219.374 2166.1116,-215.1241 2166.1116,-210.8742 2166.1116,-210.8742 2166.1116,-202.3743 2166.1116,-202.3743 2166.1116,-198.1244 2170.3616,-193.8745 2174.6115,-193.8745 2174.6115,-193.8745 2433.2254,-193.8745 2433.2254,-193.8745 2437.4753,-193.8745 2441.7253,-198.1244 2441.7253,-202.3743 2441.7253,-202.3743 2441.7253,-210.8742 2441.7253,-210.8742 2441.7253,-215.1241 2437.4753,-219.374 2433.2254,-219.374"/>
<text text-anchor="middle" x="2303.9185" y="-203.2485" font-family="Arial" font-size="15.00" fill="#cfffac">externalInterface/api/http/client/client.ts</text>
</g>
<!-- externalInterface/api/http/client/index.ts -->
<g id="node6" class="node">
<title>externalInterface/api/http/client/index.ts</title>
<path fill="none" stroke="#c6c5fe" d="M2121.8398,-219.374C2121.8398,-219.374 1862.5416,-219.374 1862.5416,-219.374 1858.2916,-219.374 1854.0417,-215.1241 1854.0417,-210.8742 1854.0417,-210.8742 1854.0417,-202.3743 1854.0417,-202.3743 1854.0417,-198.1244 1858.2916,-193.8745 1862.5416,-193.8745 1862.5416,-193.8745 2121.8398,-193.8745 2121.8398,-193.8745 2126.0897,-193.8745 2130.3396,-198.1244 2130.3396,-202.3743 2130.3396,-202.3743 2130.3396,-210.8742 2130.3396,-210.8742 2130.3396,-215.1241 2126.0897,-219.374 2121.8398,-219.374"/>
<text text-anchor="middle" x="1992.1907" y="-203.2485" font-family="Arial" font-size="15.00" fill="#c6c5fe">externalInterface/api/http/client/index.ts</text>
</g>
<!-- externalInterface/api/http/client/index.ts&#45;&gt;externalInterface/api/http/client/client.ts -->
<g id="edge3" class="edge">
<title>externalInterface/api/http/client/index.ts&#45;&gt;externalInterface/api/http/client/client.ts</title>
<path fill="none" stroke="#757575" d="M2130.2803,-206.6243C2138.8251,-206.6243 2147.4421,-206.6243 2156.0267,-206.6243"/>
<polygon fill="#757575" stroke="#757575" points="2156.0833,-210.1244 2166.0832,-206.6243 2156.0832,-203.1244 2156.0833,-210.1244"/>
</g>
<!-- externalInterface/api/http/client/util.ts -->
<g id="node7" class="node">
<title>externalInterface/api/http/client/util.ts</title>
<path fill="none" stroke="#cfffac" d="M2113.6556,-176.374C2113.6556,-176.374 1870.7257,-176.374 1870.7257,-176.374 1866.4758,-176.374 1862.2259,-172.1241 1862.2259,-167.8742 1862.2259,-167.8742 1862.2259,-159.3743 1862.2259,-159.3743 1862.2259,-155.1244 1866.4758,-150.8745 1870.7257,-150.8745 1870.7257,-150.8745 2113.6556,-150.8745 2113.6556,-150.8745 2117.9055,-150.8745 2122.1554,-155.1244 2122.1554,-159.3743 2122.1554,-159.3743 2122.1554,-167.8742 2122.1554,-167.8742 2122.1554,-172.1241 2117.9055,-176.374 2113.6556,-176.374"/>
<text text-anchor="middle" x="1992.1907" y="-160.2485" font-family="Arial" font-size="15.00" fill="#cfffac">externalInterface/api/http/client/util.ts</text>
</g>
<!-- externalInterface/api/http/me/index.ts -->
<g id="node8" class="node">
<title>externalInterface/api/http/me/index.ts</title>
<path fill="none" stroke="#c6c5fe" d="M1526.6537,-197.374C1526.6537,-197.374 1281.7149,-197.374 1281.7149,-197.374 1277.465,-197.374 1273.2151,-193.1241 1273.2151,-188.8742 1273.2151,-188.8742 1273.2151,-180.3743 1273.2151,-180.3743 1273.2151,-176.1244 1277.465,-171.8745 1281.7149,-171.8745 1281.7149,-171.8745 1526.6537,-171.8745 1526.6537,-171.8745 1530.9036,-171.8745 1535.1536,-176.1244 1535.1536,-180.3743 1535.1536,-180.3743 1535.1536,-188.8742 1535.1536,-188.8742 1535.1536,-193.1241 1530.9036,-197.374 1526.6537,-197.374"/>
<text text-anchor="middle" x="1404.1843" y="-181.2485" font-family="Arial" font-size="15.00" fill="#c6c5fe">externalInterface/api/http/me/index.ts</text>
</g>
<!-- externalInterface/api/http/me/me.ts -->
<g id="node9" class="node">
<title>externalInterface/api/http/me/me.ts</title>
<path fill="none" stroke="#c6c5fe" d="M1809.59,-197.374C1809.59,-197.374 1579.6952,-197.374 1579.6952,-197.374 1575.4452,-197.374 1571.1953,-193.1241 1571.1953,-188.8742 1571.1953,-188.8742 1571.1953,-180.3743 1571.1953,-180.3743 1571.1953,-176.1244 1575.4452,-171.8745 1579.6952,-171.8745 1579.6952,-171.8745 1809.59,-171.8745 1809.59,-171.8745 1813.8399,-171.8745 1818.0898,-176.1244 1818.0898,-180.3743 1818.0898,-180.3743 1818.0898,-188.8742 1818.0898,-188.8742 1818.0898,-193.1241 1813.8399,-197.374 1809.59,-197.374"/>
<text text-anchor="middle" x="1694.6426" y="-181.2485" font-family="Arial" font-size="15.00" fill="#c6c5fe">externalInterface/api/http/me/me.ts</text>
</g>
<!-- externalInterface/api/http/me/index.ts&#45;&gt;externalInterface/api/http/me/me.ts -->
<g id="edge4" class="edge">
<title>externalInterface/api/http/me/index.ts&#45;&gt;externalInterface/api/http/me/me.ts</title>
<path fill="none" stroke="#757575" d="M1535.3922,-184.6243C1543.9286,-184.6243 1552.5303,-184.6243 1561.0777,-184.6243"/>
<polygon fill="#757575" stroke="#757575" points="1561.0797,-188.1244 1571.0796,-184.6243 1561.0796,-181.1244 1561.0797,-188.1244"/>
</g>
<!-- externalInterface/api/http/me/me.ts&#45;&gt;externalInterface/api/http/client/index.ts -->
<g id="edge5" class="edge">
<title>externalInterface/api/http/me/me.ts&#45;&gt;externalInterface/api/http/client/index.ts</title>
<path fill="none" stroke="#757575" d="M1818.2448,-193.7631C1826.7372,-194.391 1835.3424,-195.0273 1843.9452,-195.6633"/>
<polygon fill="#757575" stroke="#757575" points="1843.8052,-199.1625 1854.0361,-196.4094 1844.3215,-192.1815 1843.8052,-199.1625"/>
</g>
<!-- externalInterface/api/http/me/me.ts&#45;&gt;externalInterface/api/http/client/util.ts -->
<g id="edge6" class="edge">
<title>externalInterface/api/http/me/me.ts&#45;&gt;externalInterface/api/http/client/util.ts</title>
<path fill="none" stroke="#757575" d="M1818.2448,-175.9008C1829.3693,-175.1157 1840.6872,-174.3169 1851.9398,-173.5227"/>
<polygon fill="#757575" stroke="#757575" points="1852.5194,-176.9906 1862.2482,-172.7952 1852.0265,-170.008 1852.5194,-176.9906"/>
</g>
<!-- externalInterface/api/http/me/type.ts -->
<g id="node10" class="node">
<title>externalInterface/api/http/me/type.ts</title>
<path fill="none" stroke="#cfffac" d="M335.8126,-239.374C335.8126,-239.374 97.8876,-239.374 97.8876,-239.374 93.6377,-239.374 89.3878,-235.1241 89.3878,-230.8742 89.3878,-230.8742 89.3878,-222.3743 89.3878,-222.3743 89.3878,-218.1244 93.6377,-213.8745 97.8876,-213.8745 97.8876,-213.8745 335.8126,-213.8745 335.8126,-213.8745 340.0625,-213.8745 344.3124,-218.1244 344.3124,-222.3743 344.3124,-222.3743 344.3124,-230.8742 344.3124,-230.8742 344.3124,-235.1241 340.0625,-239.374 335.8126,-239.374"/>
<text text-anchor="middle" x="216.8501" y="-223.2485" font-family="Arial" font-size="15.00" fill="#cfffac">externalInterface/api/http/me/type.ts</text>
</g>
<!-- gateway/me/index.ts -->
<g id="node11" class="node">
<title>gateway/me/index.ts</title>
<path fill="none" stroke="#c6c5fe" d="M717.182,-197.374C717.182,-197.374 581.7096,-197.374 581.7096,-197.374 577.4597,-197.374 573.2097,-193.1241 573.2097,-188.8742 573.2097,-188.8742 573.2097,-180.3743 573.2097,-180.3743 573.2097,-176.1244 577.4597,-171.8745 581.7096,-171.8745 581.7096,-171.8745 717.182,-171.8745 717.182,-171.8745 721.4319,-171.8745 725.6819,-176.1244 725.6819,-180.3743 725.6819,-180.3743 725.6819,-188.8742 725.6819,-188.8742 725.6819,-193.1241 721.4319,-197.374 717.182,-197.374"/>
<text text-anchor="middle" x="649.4458" y="-181.2485" font-family="Arial" font-size="15.00" fill="#c6c5fe">gateway/me/index.ts</text>
</g>
<!-- gateway/me/me.ts -->
<g id="node12" class="node">
<title>gateway/me/me.ts</title>
<path fill="none" stroke="#c6c5fe" d="M1111.4099,-197.374C1111.4099,-197.374 990.9812,-197.374 990.9812,-197.374 986.7313,-197.374 982.4814,-193.1241 982.4814,-188.8742 982.4814,-188.8742 982.4814,-180.3743 982.4814,-180.3743 982.4814,-176.1244 986.7313,-171.8745 990.9812,-171.8745 990.9812,-171.8745 1111.4099,-171.8745 1111.4099,-171.8745 1115.6598,-171.8745 1119.9097,-176.1244 1119.9097,-180.3743 1119.9097,-180.3743 1119.9097,-188.8742 1119.9097,-188.8742 1119.9097,-193.1241 1115.6598,-197.374 1111.4099,-197.374"/>
<text text-anchor="middle" x="1051.1956" y="-181.2485" font-family="Arial" font-size="15.00" fill="#c6c5fe">gateway/me/me.ts</text>
</g>
<!-- gateway/me/index.ts&#45;&gt;gateway/me/me.ts -->
<g id="edge7" class="edge">
<title>gateway/me/index.ts&#45;&gt;gateway/me/me.ts</title>
<path fill="none" stroke="#757575" d="M725.9575,-184.6243C796.48,-184.6243 900.7183,-184.6243 972.0616,-184.6243"/>
<polygon fill="#757575" stroke="#757575" points="972.3411,-188.1244 982.3411,-184.6243 972.341,-181.1244 972.3411,-188.1244"/>
</g>
<!-- gateway/me/me.ts&#45;&gt;externalInterface/api/http/me/index.ts -->
<g id="edge8" class="edge">
<title>gateway/me/me.ts&#45;&gt;externalInterface/api/http/me/index.ts</title>
<path fill="none" stroke="#757575" d="M1120.0933,-184.6243C1160.7315,-184.6243 1213.6765,-184.6243 1262.8314,-184.6243"/>
<polygon fill="#757575" stroke="#757575" points="1262.9315,-188.1244 1272.9315,-184.6243 1262.9315,-181.1244 1262.9315,-188.1244"/>
</g>
<!-- presenter/components/ecosystem/Me/ComponentInteractor.tsx -->
<g id="node13" class="node">
<title>presenter/components/ecosystem/Me/ComponentInteractor.tsx</title>
<path fill="none" stroke="#c6c5fe" d="M425.0505,-132.374C425.0505,-132.374 8.6496,-132.374 8.6496,-132.374 4.3997,-132.374 .1498,-128.1241 .1498,-123.8742 .1498,-123.8742 .1498,-115.3743 .1498,-115.3743 .1498,-111.1244 4.3997,-106.8745 8.6496,-106.8745 8.6496,-106.8745 425.0505,-106.8745 425.0505,-106.8745 429.3005,-106.8745 433.5504,-111.1244 433.5504,-115.3743 433.5504,-115.3743 433.5504,-123.8742 433.5504,-123.8742 433.5504,-128.1241 429.3005,-132.374 425.0505,-132.374"/>
<text text-anchor="middle" x="216.8501" y="-116.2485" font-family="Arial" font-size="15.00" fill="#c6c5fe">presenter/components/ecosystem/Me/ComponentInteractor.tsx</text>
</g>
<!-- presenter/components/ecosystem/Me/ComponentInteractor.tsx&#45;&gt;domain/me/index.ts -->
<g id="edge9" class="edge">
<title>presenter/components/ecosystem/Me/ComponentInteractor.tsx&#45;&gt;domain/me/index.ts</title>
<path fill="none" stroke="#757575" d="M246.9816,-132.3701C293.7629,-151.6104 387.0912,-187.8173 469.7002,-206.6243 500.8011,-213.7048 535.5033,-218.4721 566.0591,-221.6473"/>
<polygon fill="#757575" stroke="#757575" points="565.9533,-225.1541 576.2514,-222.6642 566.6483,-218.1886 565.9533,-225.1541"/>
</g>
<!-- presenter/components/ecosystem/Me/ComponentInteractor.tsx&#45;&gt;gateway/me/index.ts -->
<g id="edge10" class="edge">
<title>presenter/components/ecosystem/Me/ComponentInteractor.tsx&#45;&gt;gateway/me/index.ts</title>
<path fill="none" stroke="#757575" d="M283.4988,-132.2718C334.3884,-141.6736 406.3148,-154.4139 469.7002,-163.6243 499.8766,-168.0091 533.0078,-172.0876 562.5159,-175.4618"/>
<polygon fill="#757575" stroke="#757575" points="562.461,-178.9779 572.7913,-176.6253 563.2486,-172.0223 562.461,-178.9779"/>
</g>
<!-- presenter/components/ecosystem/Me/Content.tsx -->
<g id="node14" class="node">
<title>presenter/components/ecosystem/Me/Content.tsx</title>
<path fill="none" stroke="#c6c5fe" d="M814.0998,-154.374C814.0998,-154.374 484.7918,-154.374 484.7918,-154.374 480.5419,-154.374 476.292,-150.1241 476.292,-145.8742 476.292,-145.8742 476.292,-137.3743 476.292,-137.3743 476.292,-133.1244 480.5419,-128.8745 484.7918,-128.8745 484.7918,-128.8745 814.0998,-128.8745 814.0998,-128.8745 818.3497,-128.8745 822.5996,-133.1244 822.5996,-137.3743 822.5996,-137.3743 822.5996,-145.8742 822.5996,-145.8742 822.5996,-150.1241 818.3497,-154.374 814.0998,-154.374"/>
<text text-anchor="middle" x="649.4458" y="-138.2485" font-family="Arial" font-size="15.00" fill="#c6c5fe">presenter/components/ecosystem/Me/Content.tsx</text>
</g>
<!-- presenter/components/ecosystem/Me/ComponentInteractor.tsx&#45;&gt;presenter/components/ecosystem/Me/Content.tsx -->
<g id="edge11" class="edge">
<title>presenter/components/ecosystem/Me/ComponentInteractor.tsx&#45;&gt;presenter/components/ecosystem/Me/Content.tsx</title>
<path fill="none" stroke="#757575" d="M433.7816,-130.6565C444.5653,-131.2049 455.3469,-131.7532 466.0192,-132.296"/>
<polygon fill="#757575" stroke="#757575" points="466.0494,-135.8019 476.2143,-132.8144 466.405,-128.811 466.0494,-135.8019"/>
</g>
<!-- presenter/components/ecosystem/Me/Exception.tsx -->
<g id="node15" class="node">
<title>presenter/components/ecosystem/Me/Exception.tsx</title>
<path fill="none" stroke="#cfffac" d="M820.9375,-111.374C820.9375,-111.374 477.9541,-111.374 477.9541,-111.374 473.7042,-111.374 469.4543,-107.1241 469.4543,-102.8742 469.4543,-102.8742 469.4543,-94.3743 469.4543,-94.3743 469.4543,-90.1244 473.7042,-85.8745 477.9541,-85.8745 477.9541,-85.8745 820.9375,-85.8745 820.9375,-85.8745 825.1874,-85.8745 829.4373,-90.1244 829.4373,-94.3743 829.4373,-94.3743 829.4373,-102.8742 829.4373,-102.8742 829.4373,-107.1241 825.1874,-111.374 820.9375,-111.374"/>
<text text-anchor="middle" x="649.4458" y="-95.2485" font-family="Arial" font-size="15.00" fill="#cfffac">presenter/components/ecosystem/Me/Exception.tsx</text>
</g>
<!-- presenter/components/ecosystem/Me/ComponentInteractor.tsx&#45;&gt;presenter/components/ecosystem/Me/Exception.tsx -->
<g id="edge12" class="edge">
<title>presenter/components/ecosystem/Me/ComponentInteractor.tsx&#45;&gt;presenter/components/ecosystem/Me/Exception.tsx</title>
<path fill="none" stroke="#757575" d="M433.7816,-109.0935C442.4185,-108.6742 451.0539,-108.255 459.633,-107.8386"/>
<polygon fill="#757575" stroke="#757575" points="459.8563,-111.3319 469.6748,-107.3511 459.5169,-104.3402 459.8563,-111.3319"/>
</g>
<!-- presenter/hooks/useReRender.ts -->
<g id="node16" class="node">
<title>presenter/hooks/useReRender.ts</title>
<path fill="none" stroke="#cfffac" d="M758.7406,-68.374C758.7406,-68.374 540.151,-68.374 540.151,-68.374 535.9011,-68.374 531.6512,-64.1241 531.6512,-59.8742 531.6512,-59.8742 531.6512,-51.3743 531.6512,-51.3743 531.6512,-47.1244 535.9011,-42.8745 540.151,-42.8745 540.151,-42.8745 758.7406,-42.8745 758.7406,-42.8745 762.9905,-42.8745 767.2404,-47.1244 767.2404,-51.3743 767.2404,-51.3743 767.2404,-59.8742 767.2404,-59.8742 767.2404,-64.1241 762.9905,-68.374 758.7406,-68.374"/>
<text text-anchor="middle" x="649.4458" y="-52.2485" font-family="Arial" font-size="15.00" fill="#cfffac">presenter/hooks/useReRender.ts</text>
</g>
<!-- presenter/components/ecosystem/Me/ComponentInteractor.tsx&#45;&gt;presenter/hooks/useReRender.ts -->
<g id="edge13" class="edge">
<title>presenter/components/ecosystem/Me/ComponentInteractor.tsx&#45;&gt;presenter/hooks/useReRender.ts</title>
<path fill="none" stroke="#757575" d="M404.0056,-106.98C414.1458,-104.5976 424.1041,-101.8314 433.7002,-98.6243 451.4844,-92.6805 451.9756,-82.7435 469.7002,-76.6243 486.2383,-70.9147 504.0867,-66.6954 521.8929,-63.5882"/>
<polygon fill="#757575" stroke="#757575" points="522.4675,-67.0408 531.7722,-61.974 521.3387,-60.1324 522.4675,-67.0408"/>
</g>
<!-- useCase/me/useMe.ts -->
<g id="node17" class="node">
<title>useCase/me/useMe.ts</title>
<path fill="none" stroke="#cfffac" d="M723.6771,-25.374C723.6771,-25.374 575.2145,-25.374 575.2145,-25.374 570.9646,-25.374 566.7147,-21.1241 566.7147,-16.8742 566.7147,-16.8742 566.7147,-8.3743 566.7147,-8.3743 566.7147,-4.1244 570.9646,.1255 575.2145,.1255 575.2145,.1255 723.6771,.1255 723.6771,.1255 727.927,.1255 732.1769,-4.1244 732.1769,-8.3743 732.1769,-8.3743 732.1769,-16.8742 732.1769,-16.8742 732.1769,-21.1241 727.927,-25.374 723.6771,-25.374"/>
<text text-anchor="middle" x="649.4458" y="-9.2485" font-family="Arial" font-size="15.00" fill="#cfffac">useCase/me/useMe.ts</text>
</g>
<!-- presenter/components/ecosystem/Me/ComponentInteractor.tsx&#45;&gt;useCase/me/useMe.ts -->
<g id="edge14" class="edge">
<title>presenter/components/ecosystem/Me/ComponentInteractor.tsx&#45;&gt;useCase/me/useMe.ts</title>
<path fill="none" stroke="#757575" d="M419.1967,-106.9807C424.1893,-104.4633 429.0359,-101.6853 433.7002,-98.6243 461.3093,-80.5051 442.2715,-52.0154 469.7002,-33.6243 494.9034,-16.7254 526.6737,-9.5885 556.4687,-7.253"/>
<polygon fill="#757575" stroke="#757575" points="556.7184,-10.7443 566.485,-6.6378 556.2892,-3.7575 556.7184,-10.7443"/>
</g>
<!-- useCase/me/type.ts -->
<g id="node18" class="node">
<title>useCase/me/type.ts</title>
<path fill="none" stroke="#cfffac" d="M1116.7574,-154.374C1116.7574,-154.374 985.6337,-154.374 985.6337,-154.374 981.3838,-154.374 977.1339,-150.1241 977.1339,-145.8742 977.1339,-145.8742 977.1339,-137.3743 977.1339,-137.3743 977.1339,-133.1244 981.3838,-128.8745 985.6337,-128.8745 985.6337,-128.8745 1116.7574,-128.8745 1116.7574,-128.8745 1121.0073,-128.8745 1125.2572,-133.1244 1125.2572,-137.3743 1125.2572,-137.3743 1125.2572,-145.8742 1125.2572,-145.8742 1125.2572,-150.1241 1121.0073,-154.374 1116.7574,-154.374"/>
<text text-anchor="middle" x="1051.1956" y="-138.2485" font-family="Arial" font-size="15.00" fill="#cfffac">useCase/me/type.ts</text>
</g>
<!-- presenter/components/ecosystem/Me/Content.tsx&#45;&gt;useCase/me/type.ts -->
<g id="edge15" class="edge">
<title>presenter/components/ecosystem/Me/Content.tsx&#45;&gt;useCase/me/type.ts</title>
<path fill="none" stroke="#757575" d="M822.7388,-141.6243C872.67,-141.6243 924.9186,-141.6243 966.8273,-141.6243"/>
<polygon fill="#757575" stroke="#757575" points="966.9758,-145.1244 976.9757,-141.6243 966.9757,-138.1244 966.9758,-145.1244"/>
</g>
<!-- presenter/components/ecosystem/Me/Me.tsx -->
<g id="node19" class="node">
<title>presenter/components/ecosystem/Me/Me.tsx</title>
<path fill="none" stroke="#c6c5fe" d="M798.4009,-326.374C798.4009,-326.374 500.4907,-326.374 500.4907,-326.374 496.2408,-326.374 491.9909,-322.1241 491.9909,-317.8742 491.9909,-317.8742 491.9909,-309.3743 491.9909,-309.3743 491.9909,-305.1244 496.2408,-300.8745 500.4907,-300.8745 500.4907,-300.8745 798.4009,-300.8745 798.4009,-300.8745 802.6508,-300.8745 806.9007,-305.1244 806.9007,-309.3743 806.9007,-309.3743 806.9007,-317.8742 806.9007,-317.8742 806.9007,-322.1241 802.6508,-326.374 798.4009,-326.374"/>
<text text-anchor="middle" x="649.4458" y="-310.2485" font-family="Arial" font-size="15.00" fill="#c6c5fe">presenter/components/ecosystem/Me/Me.tsx</text>
</g>
<!-- presenter/components/ecosystem/Me/Placeholder.tsx -->
<g id="node20" class="node">
<title>presenter/components/ecosystem/Me/Placeholder.tsx</title>
<path fill="none" stroke="#cfffac" d="M1228.704,-326.374C1228.704,-326.374 873.6871,-326.374 873.6871,-326.374 869.4372,-326.374 865.1873,-322.1241 865.1873,-317.8742 865.1873,-317.8742 865.1873,-309.3743 865.1873,-309.3743 865.1873,-305.1244 869.4372,-300.8745 873.6871,-300.8745 873.6871,-300.8745 1228.704,-300.8745 1228.704,-300.8745 1232.9539,-300.8745 1237.2039,-305.1244 1237.2039,-309.3743 1237.2039,-309.3743 1237.2039,-317.8742 1237.2039,-317.8742 1237.2039,-322.1241 1232.9539,-326.374 1228.704,-326.374"/>
<text text-anchor="middle" x="1051.1956" y="-310.2485" font-family="Arial" font-size="15.00" fill="#cfffac">presenter/components/ecosystem/Me/Placeholder.tsx</text>
</g>
<!-- presenter/components/ecosystem/Me/Me.tsx&#45;&gt;presenter/components/ecosystem/Me/Placeholder.tsx -->
<g id="edge16" class="edge">
<title>presenter/components/ecosystem/Me/Me.tsx&#45;&gt;presenter/components/ecosystem/Me/Placeholder.tsx</title>
<path fill="none" stroke="#757575" d="M806.7868,-313.6243C822.6337,-313.6243 838.8604,-313.6243 855.0461,-313.6243"/>
<polygon fill="#757575" stroke="#757575" points="855.115,-317.1244 865.115,-313.6243 855.1149,-310.1244 855.115,-317.1244"/>
</g>
<!-- presenter/components/ecosystem/Me/index.ts -->
<g id="node21" class="node">
<title>presenter/components/ecosystem/Me/index.ts</title>
<path fill="none" stroke="#c6c5fe" d="M369.3268,-326.374C369.3268,-326.374 64.3734,-326.374 64.3734,-326.374 60.1235,-326.374 55.8735,-322.1241 55.8735,-317.8742 55.8735,-317.8742 55.8735,-309.3743 55.8735,-309.3743 55.8735,-305.1244 60.1235,-300.8745 64.3734,-300.8745 64.3734,-300.8745 369.3268,-300.8745 369.3268,-300.8745 373.5767,-300.8745 377.8267,-305.1244 377.8267,-309.3743 377.8267,-309.3743 377.8267,-317.8742 377.8267,-317.8742 377.8267,-322.1241 373.5767,-326.374 369.3268,-326.374"/>
<text text-anchor="middle" x="216.8501" y="-310.2485" font-family="Arial" font-size="15.00" fill="#c6c5fe">presenter/components/ecosystem/Me/index.ts</text>
</g>
<!-- presenter/components/ecosystem/Me/index.ts&#45;&gt;presenter/components/ecosystem/Me/Me.tsx -->
<g id="edge17" class="edge">
<title>presenter/components/ecosystem/Me/index.ts&#45;&gt;presenter/components/ecosystem/Me/Me.tsx</title>
<path fill="none" stroke="#757575" d="M377.9328,-313.6243C411.9311,-313.6243 447.8799,-313.6243 482.103,-313.6243"/>
<polygon fill="#757575" stroke="#757575" points="482.1838,-317.1244 492.1838,-313.6243 482.1838,-310.1244 482.1838,-317.1244"/>
</g>
<!-- presenter/containers/ErrorBoundary.tsx -->
<g id="node22" class="node">
<title>presenter/containers/ErrorBoundary.tsx</title>
<path fill="none" stroke="#cfffac" d="M346.5267,-369.374C346.5267,-369.374 87.1735,-369.374 87.1735,-369.374 82.9236,-369.374 78.6736,-365.1241 78.6736,-360.8742 78.6736,-360.8742 78.6736,-352.3743 78.6736,-352.3743 78.6736,-348.1244 82.9236,-343.8745 87.1735,-343.8745 87.1735,-343.8745 346.5267,-343.8745 346.5267,-343.8745 350.7766,-343.8745 355.0266,-348.1244 355.0266,-352.3743 355.0266,-352.3743 355.0266,-360.8742 355.0266,-360.8742 355.0266,-365.1241 350.7766,-369.374 346.5267,-369.374"/>
<text text-anchor="middle" x="216.8501" y="-353.2485" font-family="Arial" font-size="15.00" fill="#cfffac">presenter/containers/ErrorBoundary.tsx</text>
</g>
</g>
</svg>
