<?xml version="1.0" encoding="UTF-8" standalone="no"?>
<!DOCTYPE svg PUBLIC "-//W3C//DTD SVG 1.1//EN"
 "http://www.w3.org/Graphics/SVG/1.1/DTD/svg11.dtd">
<!-- Generated by graphviz version 2.40.1 (20161225.0304)
 -->
<!-- Title: G Pages: 1 -->
<svg width="2075pt" height="430pt"
 viewBox="0.00 0.00 2075.08 430.45" xmlns="http://www.w3.org/2000/svg" xmlns:xlink="http://www.w3.org/1999/xlink">
<g id="graph0" class="graph" transform="scale(1 1) rotate(0) translate(21.6 408.8485)">
<title>G</title>
<polygon fill="#111111" stroke="transparent" points="-21.6,21.6 -21.6,-408.8485 2053.4789,-408.8485 2053.4789,21.6 -21.6,21.6"/>
<!-- app.d.ts -->
<g id="node1" class="node">
<title>app.d.ts</title>
<path fill="none" stroke="#cfffac" d="M187.361,-25.374C187.361,-25.374 134.6155,-25.374 134.6155,-25.374 130.3656,-25.374 126.1157,-21.1241 126.1157,-16.8742 126.1157,-16.8742 126.1157,-8.3743 126.1157,-8.3743 126.1157,-4.1244 130.3656,.1255 134.6155,.1255 134.6155,.1255 187.361,.1255 187.361,.1255 191.6109,.1255 195.8609,-4.1244 195.8609,-8.3743 195.8609,-8.3743 195.8609,-16.8742 195.8609,-16.8742 195.8609,-21.1241 191.6109,-25.374 187.361,-25.374"/>
<text text-anchor="middle" x="160.9883" y="-9.2485" font-family="Arial" font-size="15.00" fill="#cfffac">app.d.ts</text>
</g>
<!-- domain/me/index.ts -->
<g id="node2" class="node">
<title>domain/me/index.ts</title>
<path fill="none" stroke="#c6c5fe" d="M225.5519,-68.374C225.5519,-68.374 96.4246,-68.374 96.4246,-68.374 92.1747,-68.374 87.9248,-64.1241 87.9248,-59.8742 87.9248,-59.8742 87.9248,-51.3743 87.9248,-51.3743 87.9248,-47.1244 92.1747,-42.8745 96.4246,-42.8745 96.4246,-42.8745 225.5519,-42.8745 225.5519,-42.8745 229.8018,-42.8745 234.0518,-47.1244 234.0518,-51.3743 234.0518,-51.3743 234.0518,-59.8742 234.0518,-59.8742 234.0518,-64.1241 229.8018,-68.374 225.5519,-68.374"/>
<text text-anchor="middle" x="160.9883" y="-52.2485" font-family="Arial" font-size="15.00" fill="#c6c5fe">domain/me/index.ts</text>
</g>
<!-- domain/me/me.ts -->
<g id="node3" class="node">
<title>domain/me/me.ts</title>
<path fill="none" stroke="#cfffac" d="M594.7638,-90.374C594.7638,-90.374 480.6805,-90.374 480.6805,-90.374 476.4306,-90.374 472.1807,-86.1241 472.1807,-81.8742 472.1807,-81.8742 472.1807,-73.3743 472.1807,-73.3743 472.1807,-69.1244 476.4306,-64.8745 480.6805,-64.8745 480.6805,-64.8745 594.7638,-64.8745 594.7638,-64.8745 599.0138,-64.8745 603.2637,-69.1244 603.2637,-73.3743 603.2637,-73.3743 603.2637,-81.8742 603.2637,-81.8742 603.2637,-86.1241 599.0138,-90.374 594.7638,-90.374"/>
<text text-anchor="middle" x="537.7222" y="-74.2485" font-family="Arial" font-size="15.00" fill="#cfffac">domain/me/me.ts</text>
</g>
<!-- domain/me/index.ts&#45;&gt;domain/me/me.ts -->
<g id="edge1" class="edge">
<title>domain/me/index.ts&#45;&gt;domain/me/me.ts</title>
<path fill="none" stroke="#757575" d="M234.0731,-59.8922C299.7112,-63.7252 395.6939,-69.3303 462.0997,-73.2082"/>
<polygon fill="#757575" stroke="#757575" points="461.8975,-76.7022 472.0846,-73.7913 462.3057,-69.7141 461.8975,-76.7022"/>
</g>
<!-- domain/me/type.ts -->
<g id="node4" class="node">
<title>domain/me/type.ts</title>
<path fill="none" stroke="#cfffac" d="M598.2792,-47.374C598.2792,-47.374 477.1652,-47.374 477.1652,-47.374 472.9152,-47.374 468.6653,-43.1241 468.6653,-38.8742 468.6653,-38.8742 468.6653,-30.3743 468.6653,-30.3743 468.6653,-26.1244 472.9152,-21.8745 477.1652,-21.8745 477.1652,-21.8745 598.2792,-21.8745 598.2792,-21.8745 602.5291,-21.8745 606.779,-26.1244 606.779,-30.3743 606.779,-30.3743 606.779,-38.8742 606.779,-38.8742 606.779,-43.1241 602.5291,-47.374 598.2792,-47.374"/>
<text text-anchor="middle" x="537.7222" y="-31.2485" font-family="Arial" font-size="15.00" fill="#cfffac">domain/me/type.ts</text>
</g>
<!-- domain/me/index.ts&#45;&gt;domain/me/type.ts -->
<g id="edge2" class="edge">
<title>domain/me/index.ts&#45;&gt;domain/me/type.ts</title>
<path fill="none" stroke="#757575" d="M234.0731,-51.5504C298.4593,-47.9613 392.0437,-42.7447 458.2683,-39.0532"/>
<polygon fill="#757575" stroke="#757575" points="458.8637,-42.5255 468.6533,-38.4743 458.474,-35.5364 458.8637,-42.5255"/>
</g>
<!-- externalInterface/api/http/client/client.ts -->
<g id="node5" class="node">
<title>externalInterface/api/http/client/client.ts</title>
<path fill="none" stroke="#cfffac" d="M2023.5326,-155.374C2023.5326,-155.374 1764.9186,-155.374 1764.9186,-155.374 1760.6687,-155.374 1756.4188,-151.1241 1756.4188,-146.8742 1756.4188,-146.8742 1756.4188,-138.3743 1756.4188,-138.3743 1756.4188,-134.1244 1760.6687,-129.8745 1764.9186,-129.8745 1764.9186,-129.8745 2023.5326,-129.8745 2023.5326,-129.8745 2027.7825,-129.8745 2032.0324,-134.1244 2032.0324,-138.3743 2032.0324,-138.3743 2032.0324,-146.8742 2032.0324,-146.8742 2032.0324,-151.1241 2027.7825,-155.374 2023.5326,-155.374"/>
<text text-anchor="middle" x="1894.2256" y="-139.2485" font-family="Arial" font-size="15.00" fill="#cfffac">externalInterface/api/http/client/client.ts</text>
</g>
<!-- externalInterface/api/http/client/index.ts -->
<g id="node6" class="node">
<title>externalInterface/api/http/client/index.ts</title>
<path fill="none" stroke="#c6c5fe" d="M1712.1469,-155.374C1712.1469,-155.374 1452.8487,-155.374 1452.8487,-155.374 1448.5988,-155.374 1444.3488,-151.1241 1444.3488,-146.8742 1444.3488,-146.8742 1444.3488,-138.3743 1444.3488,-138.3743 1444.3488,-134.1244 1448.5988,-129.8745 1452.8487,-129.8745 1452.8487,-129.8745 1712.1469,-129.8745 1712.1469,-129.8745 1716.3968,-129.8745 1720.6468,-134.1244 1720.6468,-138.3743 1720.6468,-138.3743 1720.6468,-146.8742 1720.6468,-146.8742 1720.6468,-151.1241 1716.3968,-155.374 1712.1469,-155.374"/>
<text text-anchor="middle" x="1582.4978" y="-139.2485" font-family="Arial" font-size="15.00" fill="#c6c5fe">externalInterface/api/http/client/index.ts</text>
</g>
<!-- externalInterface/api/http/client/index.ts&#45;&gt;externalInterface/api/http/client/client.ts -->
<g id="edge3" class="edge">
<title>externalInterface/api/http/client/index.ts&#45;&gt;externalInterface/api/http/client/client.ts</title>
<path fill="none" stroke="#757575" d="M1720.5875,-142.6243C1729.1322,-142.6243 1737.7492,-142.6243 1746.3339,-142.6243"/>
<polygon fill="#757575" stroke="#757575" points="1746.3904,-146.1244 1756.3904,-142.6243 1746.3903,-139.1244 1746.3904,-146.1244"/>
</g>
<!-- externalInterface/api/http/client/util.ts -->
<g id="node7" class="node">
<title>externalInterface/api/http/client/util.ts</title>
<path fill="none" stroke="#cfffac" d="M1703.9627,-112.374C1703.9627,-112.374 1461.0329,-112.374 1461.0329,-112.374 1456.783,-112.374 1452.533,-108.1241 1452.533,-103.8742 1452.533,-103.8742 1452.533,-95.3743 1452.533,-95.3743 1452.533,-91.1244 1456.783,-86.8745 1461.0329,-86.8745 1461.0329,-86.8745 1703.9627,-86.8745 1703.9627,-86.8745 1708.2127,-86.8745 1712.4626,-91.1244 1712.4626,-95.3743 1712.4626,-95.3743 1712.4626,-103.8742 1712.4626,-103.8742 1712.4626,-108.1241 1708.2127,-112.374 1703.9627,-112.374"/>
<text text-anchor="middle" x="1582.4978" y="-96.2485" font-family="Arial" font-size="15.00" fill="#cfffac">externalInterface/api/http/client/util.ts</text>
</g>
<!-- externalInterface/api/http/me/index.ts -->
<g id="node8" class="node">
<title>externalInterface/api/http/me/index.ts</title>
<path fill="none" stroke="#c6c5fe" d="M1061.9413,-133.374C1061.9413,-133.374 817.0025,-133.374 817.0025,-133.374 812.7526,-133.374 808.5027,-129.1241 808.5027,-124.8742 808.5027,-124.8742 808.5027,-116.3743 808.5027,-116.3743 808.5027,-112.1244 812.7526,-107.8745 817.0025,-107.8745 817.0025,-107.8745 1061.9413,-107.8745 1061.9413,-107.8745 1066.1912,-107.8745 1070.4412,-112.1244 1070.4412,-116.3743 1070.4412,-116.3743 1070.4412,-124.8742 1070.4412,-124.8742 1070.4412,-129.1241 1066.1912,-133.374 1061.9413,-133.374"/>
<text text-anchor="middle" x="939.4719" y="-117.2485" font-family="Arial" font-size="15.00" fill="#c6c5fe">externalInterface/api/http/me/index.ts</text>
</g>
<!-- externalInterface/api/http/me/me.ts -->
<g id="node9" class="node">
<title>externalInterface/api/http/me/me.ts</title>
<path fill="none" stroke="#c6c5fe" d="M1399.8971,-133.374C1399.8971,-133.374 1170.0023,-133.374 1170.0023,-133.374 1165.7524,-133.374 1161.5024,-129.1241 1161.5024,-124.8742 1161.5024,-124.8742 1161.5024,-116.3743 1161.5024,-116.3743 1161.5024,-112.1244 1165.7524,-107.8745 1170.0023,-107.8745 1170.0023,-107.8745 1399.8971,-107.8745 1399.8971,-107.8745 1404.1471,-107.8745 1408.397,-112.1244 1408.397,-116.3743 1408.397,-116.3743 1408.397,-124.8742 1408.397,-124.8742 1408.397,-129.1241 1404.1471,-133.374 1399.8971,-133.374"/>
<text text-anchor="middle" x="1284.9497" y="-117.2485" font-family="Arial" font-size="15.00" fill="#c6c5fe">externalInterface/api/http/me/me.ts</text>
</g>
<!-- externalInterface/api/http/me/index.ts&#45;&gt;externalInterface/api/http/me/me.ts -->
<g id="edge4" class="edge">
<title>externalInterface/api/http/me/index.ts&#45;&gt;externalInterface/api/http/me/me.ts</title>
<path fill="none" stroke="#757575" d="M1070.5749,-120.6243C1096.9796,-120.6243 1124.7646,-120.6243 1151.2566,-120.6243"/>
<polygon fill="#757575" stroke="#757575" points="1151.3411,-124.1244 1161.341,-120.6243 1151.341,-117.1244 1151.3411,-124.1244"/>
</g>
<!-- externalInterface/api/http/me/me.ts&#45;&gt;externalInterface/api/http/client/index.ts -->
<g id="edge5" class="edge">
<title>externalInterface/api/http/me/me.ts&#45;&gt;externalInterface/api/http/client/index.ts</title>
<path fill="none" stroke="#757575" d="M1408.5519,-129.7631C1417.0444,-130.391 1425.6495,-131.0273 1434.2523,-131.6633"/>
<polygon fill="#757575" stroke="#757575" points="1434.1124,-135.1625 1444.3432,-132.4094 1434.6286,-128.1815 1434.1124,-135.1625"/>
</g>
<!-- externalInterface/api/http/me/me.ts&#45;&gt;externalInterface/api/http/client/util.ts -->
<g id="edge6" class="edge">
<title>externalInterface/api/http/me/me.ts&#45;&gt;externalInterface/api/http/client/util.ts</title>
<path fill="none" stroke="#757575" d="M1408.5519,-111.9008C1419.6764,-111.1157 1430.9943,-110.3169 1442.247,-109.5227"/>
<polygon fill="#757575" stroke="#757575" points="1442.8265,-112.9906 1452.5553,-108.7952 1442.3337,-106.008 1442.8265,-112.9906"/>
</g>
<!-- externalInterface/api/http/me/type.ts -->
<g id="node10" class="node">
<title>externalInterface/api/http/me/type.ts</title>
<path fill="none" stroke="#cfffac" d="M279.9508,-195.374C279.9508,-195.374 42.0258,-195.374 42.0258,-195.374 37.7759,-195.374 33.5259,-191.1241 33.5259,-186.8742 33.5259,-186.8742 33.5259,-178.3743 33.5259,-178.3743 33.5259,-174.1244 37.7759,-169.8745 42.0258,-169.8745 42.0258,-169.8745 279.9508,-169.8745 279.9508,-169.8745 284.2007,-169.8745 288.4506,-174.1244 288.4506,-178.3743 288.4506,-178.3743 288.4506,-186.8742 288.4506,-186.8742 288.4506,-191.1241 284.2007,-195.374 279.9508,-195.374"/>
<text text-anchor="middle" x="160.9883" y="-179.2485" font-family="Arial" font-size="15.00" fill="#cfffac">externalInterface/api/http/me/type.ts</text>
</g>
<!-- gateway/me/index.ts -->
<g id="node11" class="node">
<title>gateway/me/index.ts</title>
<path fill="none" stroke="#c6c5fe" d="M228.7245,-133.374C228.7245,-133.374 93.2521,-133.374 93.2521,-133.374 89.0021,-133.374 84.7522,-129.1241 84.7522,-124.8742 84.7522,-124.8742 84.7522,-116.3743 84.7522,-116.3743 84.7522,-112.1244 89.0021,-107.8745 93.2521,-107.8745 93.2521,-107.8745 228.7245,-107.8745 228.7245,-107.8745 232.9744,-107.8745 237.2243,-112.1244 237.2243,-116.3743 237.2243,-116.3743 237.2243,-124.8742 237.2243,-124.8742 237.2243,-129.1241 232.9744,-133.374 228.7245,-133.374"/>
<text text-anchor="middle" x="160.9883" y="-117.2485" font-family="Arial" font-size="15.00" fill="#c6c5fe">gateway/me/index.ts</text>
</g>
<!-- gateway/me/me.ts -->
<g id="node12" class="node">
<title>gateway/me/me.ts</title>
<path fill="none" stroke="#c6c5fe" d="M597.9365,-133.374C597.9365,-133.374 477.5079,-133.374 477.5079,-133.374 473.2579,-133.374 469.008,-129.1241 469.008,-124.8742 469.008,-124.8742 469.008,-116.3743 469.008,-116.3743 469.008,-112.1244 473.2579,-107.8745 477.5079,-107.8745 477.5079,-107.8745 597.9365,-107.8745 597.9365,-107.8745 602.1864,-107.8745 606.4363,-112.1244 606.4363,-116.3743 606.4363,-116.3743 606.4363,-124.8742 606.4363,-124.8742 606.4363,-129.1241 602.1864,-133.374 597.9365,-133.374"/>
<text text-anchor="middle" x="537.7222" y="-117.2485" font-family="Arial" font-size="15.00" fill="#c6c5fe">gateway/me/me.ts</text>
</g>
<!-- gateway/me/index.ts&#45;&gt;gateway/me/me.ts -->
<g id="edge7" class="edge">
<title>gateway/me/index.ts&#45;&gt;gateway/me/me.ts</title>
<path fill="none" stroke="#757575" d="M237.226,-120.6243C301.6155,-120.6243 393.4885,-120.6243 458.6642,-120.6243"/>
<polygon fill="#757575" stroke="#757575" points="458.887,-124.1244 468.887,-120.6243 458.887,-117.1244 458.887,-124.1244"/>
</g>
<!-- gateway/me/me.ts&#45;&gt;externalInterface/api/http/me/index.ts -->
<g id="edge8" class="edge">
<title>gateway/me/me.ts&#45;&gt;externalInterface/api/http/me/index.ts</title>
<path fill="none" stroke="#757575" d="M606.7854,-120.6243C659.2789,-120.6243 733.274,-120.6243 798.1553,-120.6243"/>
<polygon fill="#757575" stroke="#757575" points="798.4854,-124.1244 808.4854,-120.6243 798.4853,-117.1244 798.4854,-124.1244"/>
</g>
<!-- presenter/components/ecosystem/Me/Content.tsx -->
<g id="node13" class="node">
<title>presenter/components/ecosystem/Me/Content.tsx</title>
<path fill="none" stroke="#c6c5fe" d="M1104.1259,-258.374C1104.1259,-258.374 774.8179,-258.374 774.8179,-258.374 770.568,-258.374 766.3181,-254.1241 766.3181,-249.8742 766.3181,-249.8742 766.3181,-241.3743 766.3181,-241.3743 766.3181,-237.1244 770.568,-232.8745 774.8179,-232.8745 774.8179,-232.8745 1104.1259,-232.8745 1104.1259,-232.8745 1108.3758,-232.8745 1112.6258,-237.1244 1112.6258,-241.3743 1112.6258,-241.3743 1112.6258,-249.8742 1112.6258,-249.8742 1112.6258,-254.1241 1108.3758,-258.374 1104.1259,-258.374"/>
<text text-anchor="middle" x="939.4719" y="-242.2485" font-family="Arial" font-size="15.00" fill="#c6c5fe">presenter/components/ecosystem/Me/Content.tsx</text>
</g>
<!-- useCase/useMe/type.ts -->
<g id="node14" class="node">
<title>useCase/useMe/type.ts</title>
<path fill="none" stroke="#cfffac" d="M1362.6957,-258.374C1362.6957,-258.374 1207.2038,-258.374 1207.2038,-258.374 1202.9538,-258.374 1198.7039,-254.1241 1198.7039,-249.8742 1198.7039,-249.8742 1198.7039,-241.3743 1198.7039,-241.3743 1198.7039,-237.1244 1202.9538,-232.8745 1207.2038,-232.8745 1207.2038,-232.8745 1362.6957,-232.8745 1362.6957,-232.8745 1366.9456,-232.8745 1371.1955,-237.1244 1371.1955,-241.3743 1371.1955,-241.3743 1371.1955,-249.8742 1371.1955,-249.8742 1371.1955,-254.1241 1366.9456,-258.374 1362.6957,-258.374"/>
<text text-anchor="middle" x="1284.9497" y="-242.2485" font-family="Arial" font-size="15.00" fill="#cfffac">useCase/useMe/type.ts</text>
</g>
<!-- presenter/components/ecosystem/Me/Content.tsx&#45;&gt;useCase/useMe/type.ts -->
<g id="edge9" class="edge">
<title>presenter/components/ecosystem/Me/Content.tsx&#45;&gt;useCase/useMe/type.ts</title>
<path fill="none" stroke="#757575" d="M1112.7169,-245.6243C1138.6753,-245.6243 1164.6184,-245.6243 1188.2015,-245.6243"/>
<polygon fill="#757575" stroke="#757575" points="1188.5084,-249.1244 1198.5084,-245.6243 1188.5084,-242.1244 1188.5084,-249.1244"/>
</g>
<!-- presenter/components/ecosystem/Me/Exception.tsx -->
<g id="node15" class="node">
<title>presenter/components/ecosystem/Me/Exception.tsx</title>
<path fill="none" stroke="#cfffac" d="M709.2139,-176.374C709.2139,-176.374 366.2305,-176.374 366.2305,-176.374 361.9805,-176.374 357.7306,-172.1241 357.7306,-167.8742 357.7306,-167.8742 357.7306,-159.3743 357.7306,-159.3743 357.7306,-155.1244 361.9805,-150.8745 366.2305,-150.8745 366.2305,-150.8745 709.2139,-150.8745 709.2139,-150.8745 713.4638,-150.8745 717.7137,-155.1244 717.7137,-159.3743 717.7137,-159.3743 717.7137,-167.8742 717.7137,-167.8742 717.7137,-172.1241 713.4638,-176.374 709.2139,-176.374"/>
<text text-anchor="middle" x="537.7222" y="-160.2485" font-family="Arial" font-size="15.00" fill="#cfffac">presenter/components/ecosystem/Me/Exception.tsx</text>
</g>
<!-- presenter/components/ecosystem/Me/Me.tsx -->
<g id="node16" class="node">
<title>presenter/components/ecosystem/Me/Me.tsx</title>
<path fill="none" stroke="#c6c5fe" d="M686.6772,-344.374C686.6772,-344.374 388.7671,-344.374 388.7671,-344.374 384.5172,-344.374 380.2672,-340.1241 380.2672,-335.8742 380.2672,-335.8742 380.2672,-327.3743 380.2672,-327.3743 380.2672,-323.1244 384.5172,-318.8745 388.7671,-318.8745 388.7671,-318.8745 686.6772,-318.8745 686.6772,-318.8745 690.9272,-318.8745 695.1771,-323.1244 695.1771,-327.3743 695.1771,-327.3743 695.1771,-335.8742 695.1771,-335.8742 695.1771,-340.1241 690.9272,-344.374 686.6772,-344.374"/>
<text text-anchor="middle" x="537.7222" y="-328.2485" font-family="Arial" font-size="15.00" fill="#c6c5fe">presenter/components/ecosystem/Me/Me.tsx</text>
</g>
<!-- presenter/components/ecosystem/Me/Placeholder.tsx -->
<g id="node17" class="node">
<title>presenter/components/ecosystem/Me/Placeholder.tsx</title>
<path fill="none" stroke="#cfffac" d="M1116.9804,-344.374C1116.9804,-344.374 761.9635,-344.374 761.9635,-344.374 757.7135,-344.374 753.4636,-340.1241 753.4636,-335.8742 753.4636,-335.8742 753.4636,-327.3743 753.4636,-327.3743 753.4636,-323.1244 757.7135,-318.8745 761.9635,-318.8745 761.9635,-318.8745 1116.9804,-318.8745 1116.9804,-318.8745 1121.2303,-318.8745 1125.4802,-323.1244 1125.4802,-327.3743 1125.4802,-327.3743 1125.4802,-335.8742 1125.4802,-335.8742 1125.4802,-340.1241 1121.2303,-344.374 1116.9804,-344.374"/>
<text text-anchor="middle" x="939.4719" y="-328.2485" font-family="Arial" font-size="15.00" fill="#cfffac">presenter/components/ecosystem/Me/Placeholder.tsx</text>
</g>
<!-- presenter/components/ecosystem/Me/Me.tsx&#45;&gt;presenter/components/ecosystem/Me/Placeholder.tsx -->
<g id="edge10" class="edge">
<title>presenter/components/ecosystem/Me/Me.tsx&#45;&gt;presenter/components/ecosystem/Me/Placeholder.tsx</title>
<path fill="none" stroke="#757575" d="M695.0632,-331.6243C710.9101,-331.6243 727.1368,-331.6243 743.3225,-331.6243"/>
<polygon fill="#757575" stroke="#757575" points="743.3914,-335.1244 753.3913,-331.6243 743.3913,-328.1244 743.3914,-335.1244"/>
</g>
<!-- presenter/components/ecosystem/Me/index.ts -->
<g id="node18" class="node">
<title>presenter/components/ecosystem/Me/index.ts</title>
<path fill="none" stroke="#c6c5fe" d="M313.465,-344.374C313.465,-344.374 8.5116,-344.374 8.5116,-344.374 4.2616,-344.374 .0117,-340.1241 .0117,-335.8742 .0117,-335.8742 .0117,-327.3743 .0117,-327.3743 .0117,-323.1244 4.2616,-318.8745 8.5116,-318.8745 8.5116,-318.8745 313.465,-318.8745 313.465,-318.8745 317.7149,-318.8745 321.9648,-323.1244 321.9648,-327.3743 321.9648,-327.3743 321.9648,-335.8742 321.9648,-335.8742 321.9648,-340.1241 317.7149,-344.374 313.465,-344.374"/>
<text text-anchor="middle" x="160.9883" y="-328.2485" font-family="Arial" font-size="15.00" fill="#c6c5fe">presenter/components/ecosystem/Me/index.ts</text>
</g>
<!-- presenter/components/ecosystem/Me/index.ts&#45;&gt;presenter/components/ecosystem/Me/Me.tsx -->
<g id="edge11" class="edge">
<title>presenter/components/ecosystem/Me/index.ts&#45;&gt;presenter/components/ecosystem/Me/Me.tsx</title>
<path fill="none" stroke="#757575" d="M322.1234,-331.6243C337.9437,-331.6243 354.0257,-331.6243 369.9104,-331.6243"/>
<polygon fill="#757575" stroke="#757575" points="370.3157,-335.1244 380.3156,-331.6243 370.3156,-328.1244 370.3157,-335.1244"/>
</g>
<!-- presenter/containers/ErrorBoundary.tsx -->
<g id="node19" class="node">
<title>presenter/containers/ErrorBoundary.tsx</title>
<path fill="none" stroke="#cfffac" d="M290.6649,-387.374C290.6649,-387.374 31.3117,-387.374 31.3117,-387.374 27.0617,-387.374 22.8118,-383.1241 22.8118,-378.8742 22.8118,-378.8742 22.8118,-370.3743 22.8118,-370.3743 22.8118,-366.1244 27.0617,-361.8745 31.3117,-361.8745 31.3117,-361.8745 290.6649,-361.8745 290.6649,-361.8745 294.9148,-361.8745 299.1647,-366.1244 299.1647,-370.3743 299.1647,-370.3743 299.1647,-378.8742 299.1647,-378.8742 299.1647,-383.1241 294.9148,-387.374 290.6649,-387.374"/>
<text text-anchor="middle" x="160.9883" y="-371.2485" font-family="Arial" font-size="15.00" fill="#cfffac">presenter/containers/ErrorBoundary.tsx</text>
</g>
<!-- useCase/useMe/index.ts -->
<g id="node20" class="node">
<title>useCase/useMe/index.ts</title>
<path fill="none" stroke="#ff6c60" d="M619.4754,-298.374C619.4754,-298.374 455.9689,-298.374 455.9689,-298.374 451.719,-298.374 447.4691,-294.1241 447.4691,-289.8742 447.4691,-289.8742 447.4691,-281.3743 447.4691,-281.3743 447.4691,-277.1244 451.719,-272.8745 455.9689,-272.8745 455.9689,-272.8745 619.4754,-272.8745 619.4754,-272.8745 623.7254,-272.8745 627.9753,-277.1244 627.9753,-281.3743 627.9753,-281.3743 627.9753,-289.8742 627.9753,-289.8742 627.9753,-294.1241 623.7254,-298.374 619.4754,-298.374"/>
<text text-anchor="middle" x="537.7222" y="-282.2485" font-family="Arial" font-size="15.00" fill="#ff6c60">useCase/useMe/index.ts</text>
</g>
<!-- useCase/useMe/interactor.tsx -->
<g id="node21" class="node">
<title>useCase/useMe/interactor.tsx</title>
<path fill="none" stroke="#ff6c60" d="M259.0816,-257.374C259.0816,-257.374 62.895,-257.374 62.895,-257.374 58.645,-257.374 54.3951,-253.1241 54.3951,-248.8742 54.3951,-248.8742 54.3951,-240.3743 54.3951,-240.3743 54.3951,-236.1244 58.645,-231.8745 62.895,-231.8745 62.895,-231.8745 259.0816,-231.8745 259.0816,-231.8745 263.3315,-231.8745 267.5814,-236.1244 267.5814,-240.3743 267.5814,-240.3743 267.5814,-248.8742 267.5814,-248.8742 267.5814,-253.1241 263.3315,-257.374 259.0816,-257.374"/>
<text text-anchor="middle" x="160.9883" y="-241.2485" font-family="Arial" font-size="15.00" fill="#ff6c60">useCase/useMe/interactor.tsx</text>
</g>
<!-- useCase/useMe/index.ts&#45;&gt;useCase/useMe/interactor.tsx -->
<g id="edge12" class="edge">
<title>useCase/useMe/index.ts&#45;&gt;useCase/useMe/interactor.tsx</title>
<path fill="none" stroke="#757575" d="M447.586,-281.6719C383.7466,-276.0027 299.0059,-266.6859 238.2558,-258.607"/>
<polygon fill="#757575" stroke="#757575" points="238.7188,-255.1378 228.3408,-257.2701 237.7834,-262.0751 238.7188,-255.1378"/>
</g>
<!-- useCase/useMe/useMe.ts -->
<g id="node22" class="node">
<title>useCase/useMe/useMe.ts</title>
<path fill="none" stroke="#c6c5fe" d="M1025.8881,-301.374C1025.8881,-301.374 853.0558,-301.374 853.0558,-301.374 848.8059,-301.374 844.5559,-297.1241 844.5559,-292.8742 844.5559,-292.8742 844.5559,-284.3743 844.5559,-284.3743 844.5559,-280.1244 848.8059,-275.8745 853.0558,-275.8745 853.0558,-275.8745 1025.8881,-275.8745 1025.8881,-275.8745 1030.138,-275.8745 1034.3879,-280.1244 1034.3879,-284.3743 1034.3879,-284.3743 1034.3879,-292.8742 1034.3879,-292.8742 1034.3879,-297.1241 1030.138,-301.374 1025.8881,-301.374"/>
<text text-anchor="middle" x="939.4719" y="-285.2485" font-family="Arial" font-size="15.00" fill="#c6c5fe">useCase/useMe/useMe.ts</text>
</g>
<!-- useCase/useMe/index.ts&#45;&gt;useCase/useMe/useMe.ts -->
<g id="edge13" class="edge">
<title>useCase/useMe/index.ts&#45;&gt;useCase/useMe/useMe.ts</title>
<path fill="none" stroke="#757575" d="M627.8827,-286.2975C689.1505,-286.755 770.4017,-287.3618 834.5715,-287.8409"/>
<polygon fill="#757575" stroke="#757575" points="834.6921,-291.3418 844.718,-287.9167 834.7444,-284.342 834.6921,-291.3418"/>
</g>
<!-- useCase/useMe/interactor.tsx&#45;&gt;presenter/components/ecosystem/Me/Content.tsx -->
<g id="edge14" class="edge">
<title>useCase/useMe/interactor.tsx&#45;&gt;presenter/components/ecosystem/Me/Content.tsx</title>
<path fill="none" stroke="#757575" d="M267.6008,-244.7612C393.181,-244.9225 603.9168,-245.1932 755.9269,-245.3885"/>
<polygon fill="#757575" stroke="#757575" points="756.3058,-248.8889 766.3103,-245.4018 756.3149,-241.8889 756.3058,-248.8889"/>
</g>
<!-- useCase/useMe/interactor.tsx&#45;&gt;useCase/useMe/type.ts -->
<g id="edge17" class="edge">
<title>useCase/useMe/interactor.tsx&#45;&gt;useCase/useMe/type.ts</title>
<path fill="none" stroke="#757575" d="M267.8194,-236.0128C445.8705,-223.0696 814.4757,-202.2735 1125.4761,-223.6243 1149.3857,-225.2657 1175.1705,-228.2759 1198.8917,-231.5537"/>
<polygon fill="#757575" stroke="#757575" points="1198.5285,-235.0371 1208.92,-232.9716 1199.5085,-228.106 1198.5285,-235.0371"/>
</g>
<!-- useCase/useMe/interactor.tsx&#45;&gt;presenter/components/ecosystem/Me/Exception.tsx -->
<g id="edge15" class="edge">
<title>useCase/useMe/interactor.tsx&#45;&gt;presenter/components/ecosystem/Me/Exception.tsx</title>
<path fill="none" stroke="#757575" d="M219.6106,-231.9523C250.3544,-224.8317 288.4866,-215.2492 321.9766,-204.6243 338.3401,-199.4328 341.3862,-195.0376 357.9766,-190.6243 376.8902,-185.5929 397.1897,-181.4147 417.0933,-177.9716"/>
<polygon fill="#757575" stroke="#757575" points="417.8546,-181.3929 427.1389,-176.2888 416.6981,-174.4891 417.8546,-181.3929"/>
</g>
<!-- useCase/useMe/interactor.tsx&#45;&gt;useCase/useMe/index.ts -->
<g id="edge16" class="edge">
<title>useCase/useMe/interactor.tsx&#45;&gt;useCase/useMe/index.ts</title>
<path fill="none" stroke="#757575" d="M267.6859,-250.085C329.0278,-255.8029 404.6993,-264.2296 460.316,-271.6231"/>
<polygon fill="#757575" stroke="#757575" points="460.0814,-275.1231 470.4594,-272.9907 461.0168,-268.1858 460.0814,-275.1231"/>
</g>
<!-- useCase/useMe/useMe.ts&#45;&gt;useCase/useMe/type.ts -->
<g id="edge18" class="edge">
<title>useCase/useMe/useMe.ts&#45;&gt;useCase/useMe/type.ts</title>
<path fill="none" stroke="#757575" d="M1034.6286,-278.3381C1063.7965,-275.0622 1095.9719,-271.3243 1125.4761,-267.6243 1145.8521,-265.0689 1167.6689,-262.1681 1188.4209,-259.3306"/>
<polygon fill="#757575" stroke="#757575" points="1189.081,-262.7729 1198.5117,-257.9446 1188.1284,-255.838 1189.081,-262.7729"/>
</g>
</g>
</svg>
