<?xml version="1.0" encoding="UTF-8" standalone="no"?>
<!DOCTYPE svg PUBLIC "-//W3C//DTD SVG 1.1//EN"
 "http://www.w3.org/Graphics/SVG/1.1/DTD/svg11.dtd">
<!-- Generated by graphviz version 2.40.1 (20161225.0304)
 -->
<!-- Title: G Pages: 1 -->
<svg width="2111pt" height="451pt"
 viewBox="0.00 0.00 2110.99 451.45" xmlns="http://www.w3.org/2000/svg" xmlns:xlink="http://www.w3.org/1999/xlink">
<g id="graph0" class="graph" transform="scale(1 1) rotate(0) translate(21.6 429.8485)">
<title>G</title>
<polygon fill="#111111" stroke="transparent" points="-21.6,21.6 -21.6,-429.8485 2089.3896,-429.8485 2089.3896,21.6 -21.6,21.6"/>
<!-- app.d.ts -->
<g id="node1" class="node">
<title>app.d.ts</title>
<path fill="none" stroke="#cfffac" d="M227.809,-25.374C227.809,-25.374 175.0635,-25.374 175.0635,-25.374 170.8136,-25.374 166.5637,-21.1241 166.5637,-16.8742 166.5637,-16.8742 166.5637,-8.3743 166.5637,-8.3743 166.5637,-4.1244 170.8136,.1255 175.0635,.1255 175.0635,.1255 227.809,.1255 227.809,.1255 232.0589,.1255 236.3089,-4.1244 236.3089,-8.3743 236.3089,-8.3743 236.3089,-16.8742 236.3089,-16.8742 236.3089,-21.1241 232.0589,-25.374 227.809,-25.374"/>
<text text-anchor="middle" x="201.4363" y="-9.2485" font-family="Arial" font-size="15.00" fill="#cfffac">app.d.ts</text>
</g>
<!-- domain/me/index.ts -->
<g id="node2" class="node">
<title>domain/me/index.ts</title>
<path fill="none" stroke="#c6c5fe" d="M265.9999,-68.374C265.9999,-68.374 136.8726,-68.374 136.8726,-68.374 132.6227,-68.374 128.3728,-64.1241 128.3728,-59.8742 128.3728,-59.8742 128.3728,-51.3743 128.3728,-51.3743 128.3728,-47.1244 132.6227,-42.8745 136.8726,-42.8745 136.8726,-42.8745 265.9999,-42.8745 265.9999,-42.8745 270.2498,-42.8745 274.4998,-47.1244 274.4998,-51.3743 274.4998,-51.3743 274.4998,-59.8742 274.4998,-59.8742 274.4998,-64.1241 270.2498,-68.374 265.9999,-68.374"/>
<text text-anchor="middle" x="201.4363" y="-52.2485" font-family="Arial" font-size="15.00" fill="#c6c5fe">domain/me/index.ts</text>
</g>
<!-- domain/me/me.ts -->
<g id="node3" class="node">
<title>domain/me/me.ts</title>
<path fill="none" stroke="#cfffac" d="M664.4135,-68.374C664.4135,-68.374 550.3302,-68.374 550.3302,-68.374 546.0802,-68.374 541.8303,-64.1241 541.8303,-59.8742 541.8303,-59.8742 541.8303,-51.3743 541.8303,-51.3743 541.8303,-47.1244 546.0802,-42.8745 550.3302,-42.8745 550.3302,-42.8745 664.4135,-42.8745 664.4135,-42.8745 668.6634,-42.8745 672.9133,-47.1244 672.9133,-51.3743 672.9133,-51.3743 672.9133,-59.8742 672.9133,-59.8742 672.9133,-64.1241 668.6634,-68.374 664.4135,-68.374"/>
<text text-anchor="middle" x="607.3718" y="-52.2485" font-family="Arial" font-size="15.00" fill="#cfffac">domain/me/me.ts</text>
</g>
<!-- domain/me/index.ts&#45;&gt;domain/me/me.ts -->
<g id="edge1" class="edge">
<title>domain/me/index.ts&#45;&gt;domain/me/me.ts</title>
<path fill="none" stroke="#757575" d="M274.4782,-55.6243C347.0757,-55.6243 457.9312,-55.6243 531.5027,-55.6243"/>
<polygon fill="#757575" stroke="#757575" points="531.6287,-59.1244 541.6286,-55.6243 531.6286,-52.1244 531.6287,-59.1244"/>
</g>
<!-- domain/me/type.ts -->
<g id="node4" class="node">
<title>domain/me/type.ts</title>
<path fill="none" stroke="#cfffac" d="M667.9288,-25.374C667.9288,-25.374 546.8148,-25.374 546.8148,-25.374 542.5649,-25.374 538.315,-21.1241 538.315,-16.8742 538.315,-16.8742 538.315,-8.3743 538.315,-8.3743 538.315,-4.1244 542.5649,.1255 546.8148,.1255 546.8148,.1255 667.9288,.1255 667.9288,.1255 672.1788,.1255 676.4287,-4.1244 676.4287,-8.3743 676.4287,-8.3743 676.4287,-16.8742 676.4287,-16.8742 676.4287,-21.1241 672.1788,-25.374 667.9288,-25.374"/>
<text text-anchor="middle" x="607.3718" y="-9.2485" font-family="Arial" font-size="15.00" fill="#cfffac">domain/me/type.ts</text>
</g>
<!-- domain/me/index.ts&#45;&gt;domain/me/type.ts -->
<g id="edge2" class="edge">
<title>domain/me/index.ts&#45;&gt;domain/me/type.ts</title>
<path fill="none" stroke="#757575" d="M274.6392,-48.0513C312.8578,-44.0827 360.3894,-39.1239 402.8726,-34.6243 444.2704,-30.2396 490.3738,-25.286 528.3116,-21.1909"/>
<polygon fill="#757575" stroke="#757575" points="528.711,-24.6682 538.2774,-20.1146 527.9594,-17.7086 528.711,-24.6682"/>
</g>
<!-- externalInterface/api/http/client/client.ts -->
<g id="node5" class="node">
<title>externalInterface/api/http/client/client.ts</title>
<path fill="none" stroke="#cfffac" d="M2059.4432,-133.374C2059.4432,-133.374 1800.8293,-133.374 1800.8293,-133.374 1796.5793,-133.374 1792.3294,-129.1241 1792.3294,-124.8742 1792.3294,-124.8742 1792.3294,-116.3743 1792.3294,-116.3743 1792.3294,-112.1244 1796.5793,-107.8745 1800.8293,-107.8745 1800.8293,-107.8745 2059.4432,-107.8745 2059.4432,-107.8745 2063.6931,-107.8745 2067.943,-112.1244 2067.943,-116.3743 2067.943,-116.3743 2067.943,-124.8742 2067.943,-124.8742 2067.943,-129.1241 2063.6931,-133.374 2059.4432,-133.374"/>
<text text-anchor="middle" x="1930.1362" y="-117.2485" font-family="Arial" font-size="15.00" fill="#cfffac">externalInterface/api/http/client/client.ts</text>
</g>
<!-- externalInterface/api/http/client/index.ts -->
<g id="node6" class="node">
<title>externalInterface/api/http/client/index.ts</title>
<path fill="none" stroke="#c6c5fe" d="M1748.0576,-133.374C1748.0576,-133.374 1488.7593,-133.374 1488.7593,-133.374 1484.5094,-133.374 1480.2595,-129.1241 1480.2595,-124.8742 1480.2595,-124.8742 1480.2595,-116.3743 1480.2595,-116.3743 1480.2595,-112.1244 1484.5094,-107.8745 1488.7593,-107.8745 1488.7593,-107.8745 1748.0576,-107.8745 1748.0576,-107.8745 1752.3075,-107.8745 1756.5574,-112.1244 1756.5574,-116.3743 1756.5574,-116.3743 1756.5574,-124.8742 1756.5574,-124.8742 1756.5574,-129.1241 1752.3075,-133.374 1748.0576,-133.374"/>
<text text-anchor="middle" x="1618.4084" y="-117.2485" font-family="Arial" font-size="15.00" fill="#c6c5fe">externalInterface/api/http/client/index.ts</text>
</g>
<!-- externalInterface/api/http/client/index.ts&#45;&gt;externalInterface/api/http/client/client.ts -->
<g id="edge3" class="edge">
<title>externalInterface/api/http/client/index.ts&#45;&gt;externalInterface/api/http/client/client.ts</title>
<path fill="none" stroke="#757575" d="M1756.4981,-120.6243C1765.0429,-120.6243 1773.6599,-120.6243 1782.2445,-120.6243"/>
<polygon fill="#757575" stroke="#757575" points="1782.3011,-124.1244 1792.301,-120.6243 1782.301,-117.1244 1782.3011,-124.1244"/>
</g>
<!-- externalInterface/api/http/client/util.ts -->
<g id="node7" class="node">
<title>externalInterface/api/http/client/util.ts</title>
<path fill="none" stroke="#cfffac" d="M1739.8734,-90.374C1739.8734,-90.374 1496.9435,-90.374 1496.9435,-90.374 1492.6936,-90.374 1488.4437,-86.1241 1488.4437,-81.8742 1488.4437,-81.8742 1488.4437,-73.3743 1488.4437,-73.3743 1488.4437,-69.1244 1492.6936,-64.8745 1496.9435,-64.8745 1496.9435,-64.8745 1739.8734,-64.8745 1739.8734,-64.8745 1744.1233,-64.8745 1748.3732,-69.1244 1748.3732,-73.3743 1748.3732,-73.3743 1748.3732,-81.8742 1748.3732,-81.8742 1748.3732,-86.1241 1744.1233,-90.374 1739.8734,-90.374"/>
<text text-anchor="middle" x="1618.4084" y="-74.2485" font-family="Arial" font-size="15.00" fill="#cfffac">externalInterface/api/http/client/util.ts</text>
</g>
<!-- externalInterface/api/http/me/index.ts -->
<g id="node8" class="node">
<title>externalInterface/api/http/me/index.ts</title>
<path fill="none" stroke="#c6c5fe" d="M1109.0983,-111.374C1109.0983,-111.374 864.1595,-111.374 864.1595,-111.374 859.9096,-111.374 855.6597,-107.1241 855.6597,-102.8742 855.6597,-102.8742 855.6597,-94.3743 855.6597,-94.3743 855.6597,-90.1244 859.9096,-85.8745 864.1595,-85.8745 864.1595,-85.8745 1109.0983,-85.8745 1109.0983,-85.8745 1113.3482,-85.8745 1117.5981,-90.1244 1117.5981,-94.3743 1117.5981,-94.3743 1117.5981,-102.8742 1117.5981,-102.8742 1117.5981,-107.1241 1113.3482,-111.374 1109.0983,-111.374"/>
<text text-anchor="middle" x="986.6289" y="-95.2485" font-family="Arial" font-size="15.00" fill="#c6c5fe">externalInterface/api/http/me/index.ts</text>
</g>
<!-- externalInterface/api/http/me/me.ts -->
<g id="node9" class="node">
<title>externalInterface/api/http/me/me.ts</title>
<path fill="none" stroke="#c6c5fe" d="M1435.8078,-111.374C1435.8078,-111.374 1205.9129,-111.374 1205.9129,-111.374 1201.663,-111.374 1197.4131,-107.1241 1197.4131,-102.8742 1197.4131,-102.8742 1197.4131,-94.3743 1197.4131,-94.3743 1197.4131,-90.1244 1201.663,-85.8745 1205.9129,-85.8745 1205.9129,-85.8745 1435.8078,-85.8745 1435.8078,-85.8745 1440.0577,-85.8745 1444.3076,-90.1244 1444.3076,-94.3743 1444.3076,-94.3743 1444.3076,-102.8742 1444.3076,-102.8742 1444.3076,-107.1241 1440.0577,-111.374 1435.8078,-111.374"/>
<text text-anchor="middle" x="1320.8604" y="-95.2485" font-family="Arial" font-size="15.00" fill="#c6c5fe">externalInterface/api/http/me/me.ts</text>
</g>
<!-- externalInterface/api/http/me/index.ts&#45;&gt;externalInterface/api/http/me/me.ts -->
<g id="edge4" class="edge">
<title>externalInterface/api/http/me/index.ts&#45;&gt;externalInterface/api/http/me/me.ts</title>
<path fill="none" stroke="#757575" d="M1117.7667,-98.6243C1140.548,-98.6243 1164.2657,-98.6243 1187.1156,-98.6243"/>
<polygon fill="#757575" stroke="#757575" points="1187.197,-102.1244 1197.1969,-98.6243 1187.1969,-95.1244 1187.197,-102.1244"/>
</g>
<!-- externalInterface/api/http/me/me.ts&#45;&gt;externalInterface/api/http/client/index.ts -->
<g id="edge5" class="edge">
<title>externalInterface/api/http/me/me.ts&#45;&gt;externalInterface/api/http/client/index.ts</title>
<path fill="none" stroke="#757575" d="M1444.4626,-107.7631C1452.955,-108.391 1461.5602,-109.0273 1470.1629,-109.6633"/>
<polygon fill="#757575" stroke="#757575" points="1470.023,-113.1625 1480.2539,-110.4094 1470.5392,-106.1815 1470.023,-113.1625"/>
</g>
<!-- externalInterface/api/http/me/me.ts&#45;&gt;externalInterface/api/http/client/util.ts -->
<g id="edge6" class="edge">
<title>externalInterface/api/http/me/me.ts&#45;&gt;externalInterface/api/http/client/util.ts</title>
<path fill="none" stroke="#757575" d="M1444.4626,-89.9008C1455.5871,-89.1157 1466.905,-88.3169 1478.1576,-87.5227"/>
<polygon fill="#757575" stroke="#757575" points="1478.7372,-90.9906 1488.4659,-86.7952 1478.2443,-84.008 1478.7372,-90.9906"/>
</g>
<!-- externalInterface/api/http/me/type.ts -->
<g id="node10" class="node">
<title>externalInterface/api/http/me/type.ts</title>
<path fill="none" stroke="#cfffac" d="M320.3988,-154.374C320.3988,-154.374 82.4738,-154.374 82.4738,-154.374 78.2239,-154.374 73.9739,-150.1241 73.9739,-145.8742 73.9739,-145.8742 73.9739,-137.3743 73.9739,-137.3743 73.9739,-133.1244 78.2239,-128.8745 82.4738,-128.8745 82.4738,-128.8745 320.3988,-128.8745 320.3988,-128.8745 324.6487,-128.8745 328.8986,-133.1244 328.8986,-137.3743 328.8986,-137.3743 328.8986,-145.8742 328.8986,-145.8742 328.8986,-150.1241 324.6487,-154.374 320.3988,-154.374"/>
<text text-anchor="middle" x="201.4363" y="-138.2485" font-family="Arial" font-size="15.00" fill="#cfffac">externalInterface/api/http/me/type.ts</text>
</g>
<!-- gateway/me/index.ts -->
<g id="node11" class="node">
<title>gateway/me/index.ts</title>
<path fill="none" stroke="#c6c5fe" d="M269.1725,-111.374C269.1725,-111.374 133.7001,-111.374 133.7001,-111.374 129.4501,-111.374 125.2002,-107.1241 125.2002,-102.8742 125.2002,-102.8742 125.2002,-94.3743 125.2002,-94.3743 125.2002,-90.1244 129.4501,-85.8745 133.7001,-85.8745 133.7001,-85.8745 269.1725,-85.8745 269.1725,-85.8745 273.4224,-85.8745 277.6723,-90.1244 277.6723,-94.3743 277.6723,-94.3743 277.6723,-102.8742 277.6723,-102.8742 277.6723,-107.1241 273.4224,-111.374 269.1725,-111.374"/>
<text text-anchor="middle" x="201.4363" y="-95.2485" font-family="Arial" font-size="15.00" fill="#c6c5fe">gateway/me/index.ts</text>
</g>
<!-- gateway/me/me.ts -->
<g id="node12" class="node">
<title>gateway/me/me.ts</title>
<path fill="none" stroke="#c6c5fe" d="M667.5861,-111.374C667.5861,-111.374 547.1575,-111.374 547.1575,-111.374 542.9076,-111.374 538.6577,-107.1241 538.6577,-102.8742 538.6577,-102.8742 538.6577,-94.3743 538.6577,-94.3743 538.6577,-90.1244 542.9076,-85.8745 547.1575,-85.8745 547.1575,-85.8745 667.5861,-85.8745 667.5861,-85.8745 671.8361,-85.8745 676.086,-90.1244 676.086,-94.3743 676.086,-94.3743 676.086,-102.8742 676.086,-102.8742 676.086,-107.1241 671.8361,-111.374 667.5861,-111.374"/>
<text text-anchor="middle" x="607.3718" y="-95.2485" font-family="Arial" font-size="15.00" fill="#c6c5fe">gateway/me/me.ts</text>
</g>
<!-- gateway/me/index.ts&#45;&gt;gateway/me/me.ts -->
<g id="edge7" class="edge">
<title>gateway/me/index.ts&#45;&gt;gateway/me/me.ts</title>
<path fill="none" stroke="#757575" d="M277.7897,-98.6243C349.261,-98.6243 455.6072,-98.6243 528.0308,-98.6243"/>
<polygon fill="#757575" stroke="#757575" points="528.4619,-102.1244 538.4619,-98.6243 528.4619,-95.1244 528.4619,-102.1244"/>
</g>
<!-- gateway/me/me.ts&#45;&gt;externalInterface/api/http/me/index.ts -->
<g id="edge8" class="edge">
<title>gateway/me/me.ts&#45;&gt;externalInterface/api/http/me/index.ts</title>
<path fill="none" stroke="#757575" d="M676.4924,-98.6243C723.5549,-98.6243 787.5265,-98.6243 845.1468,-98.6243"/>
<polygon fill="#757575" stroke="#757575" points="845.452,-102.1244 855.4519,-98.6243 845.4519,-95.1244 845.452,-102.1244"/>
</g>
<!-- presenter/components/domain/Me/ComponentSelector.tsx -->
<g id="node13" class="node">
<title>presenter/components/domain/Me/ComponentSelector.tsx</title>
<path fill="none" stroke="#c6c5fe" d="M394.309,-279.374C394.309,-279.374 8.5635,-279.374 8.5635,-279.374 4.3136,-279.374 .0637,-275.1241 .0637,-270.8742 .0637,-270.8742 .0637,-262.3743 .0637,-262.3743 .0637,-258.1244 4.3136,-253.8745 8.5635,-253.8745 8.5635,-253.8745 394.309,-253.8745 394.309,-253.8745 398.5589,-253.8745 402.8089,-258.1244 402.8089,-262.3743 402.8089,-262.3743 402.8089,-270.8742 402.8089,-270.8742 402.8089,-275.1241 398.5589,-279.374 394.309,-279.374"/>
<text text-anchor="middle" x="201.4363" y="-263.2485" font-family="Arial" font-size="15.00" fill="#c6c5fe">presenter/components/domain/Me/ComponentSelector.tsx</text>
</g>
<!-- presenter/components/domain/Me/Content.tsx -->
<g id="node14" class="node">
<title>presenter/components/domain/Me/Content.tsx</title>
<path fill="none" stroke="#c6c5fe" d="M760.5333,-322.374C760.5333,-322.374 454.2104,-322.374 454.2104,-322.374 449.9604,-322.374 445.7105,-318.1241 445.7105,-313.8742 445.7105,-313.8742 445.7105,-305.3743 445.7105,-305.3743 445.7105,-301.1244 449.9604,-296.8745 454.2104,-296.8745 454.2104,-296.8745 760.5333,-296.8745 760.5333,-296.8745 764.7832,-296.8745 769.0331,-301.1244 769.0331,-305.3743 769.0331,-305.3743 769.0331,-313.8742 769.0331,-313.8742 769.0331,-318.1241 764.7832,-322.374 760.5333,-322.374"/>
<text text-anchor="middle" x="607.3718" y="-306.2485" font-family="Arial" font-size="15.00" fill="#c6c5fe">presenter/components/domain/Me/Content.tsx</text>
</g>
<!-- presenter/components/domain/Me/ComponentSelector.tsx&#45;&gt;presenter/components/domain/Me/Content.tsx -->
<g id="edge9" class="edge">
<title>presenter/components/domain/Me/ComponentSelector.tsx&#45;&gt;presenter/components/domain/Me/Content.tsx</title>
<path fill="none" stroke="#757575" d="M320.7611,-279.2641C370.2105,-284.5022 427.6883,-290.5907 478.1339,-295.9343"/>
<polygon fill="#757575" stroke="#757575" points="477.8117,-299.4197 488.1248,-296.9927 478.5492,-292.4586 477.8117,-299.4197"/>
</g>
<!-- presenter/components/domain/Me/Exception.tsx -->
<g id="node15" class="node">
<title>presenter/components/domain/Me/Exception.tsx</title>
<path fill="none" stroke="#cfffac" d="M767.3705,-279.374C767.3705,-279.374 447.3731,-279.374 447.3731,-279.374 443.1232,-279.374 438.8733,-275.1241 438.8733,-270.8742 438.8733,-270.8742 438.8733,-262.3743 438.8733,-262.3743 438.8733,-258.1244 443.1232,-253.8745 447.3731,-253.8745 447.3731,-253.8745 767.3705,-253.8745 767.3705,-253.8745 771.6204,-253.8745 775.8704,-258.1244 775.8704,-262.3743 775.8704,-262.3743 775.8704,-270.8742 775.8704,-270.8742 775.8704,-275.1241 771.6204,-279.374 767.3705,-279.374"/>
<text text-anchor="middle" x="607.3718" y="-263.2485" font-family="Arial" font-size="15.00" fill="#cfffac">presenter/components/domain/Me/Exception.tsx</text>
</g>
<!-- presenter/components/domain/Me/ComponentSelector.tsx&#45;&gt;presenter/components/domain/Me/Exception.tsx -->
<g id="edge10" class="edge">
<title>presenter/components/domain/Me/ComponentSelector.tsx&#45;&gt;presenter/components/domain/Me/Exception.tsx</title>
<path fill="none" stroke="#757575" d="M402.9175,-266.6243C411.4135,-266.6243 419.913,-266.6243 428.3564,-266.6243"/>
<polygon fill="#757575" stroke="#757575" points="428.6237,-270.1244 438.6237,-266.6243 428.6236,-263.1244 428.6237,-270.1244"/>
</g>
<!-- useCase/useMe/type.ts -->
<g id="node16" class="node">
<title>useCase/useMe/type.ts</title>
<path fill="none" stroke="#cfffac" d="M1064.3749,-238.374C1064.3749,-238.374 908.883,-238.374 908.883,-238.374 904.633,-238.374 900.3831,-234.1241 900.3831,-229.8742 900.3831,-229.8742 900.3831,-221.3743 900.3831,-221.3743 900.3831,-217.1244 904.633,-212.8745 908.883,-212.8745 908.883,-212.8745 1064.3749,-212.8745 1064.3749,-212.8745 1068.6248,-212.8745 1072.8747,-217.1244 1072.8747,-221.3743 1072.8747,-221.3743 1072.8747,-229.8742 1072.8747,-229.8742 1072.8747,-234.1241 1068.6248,-238.374 1064.3749,-238.374"/>
<text text-anchor="middle" x="986.6289" y="-222.2485" font-family="Arial" font-size="15.00" fill="#cfffac">useCase/useMe/type.ts</text>
</g>
<!-- presenter/components/domain/Me/ComponentSelector.tsx&#45;&gt;useCase/useMe/type.ts -->
<g id="edge11" class="edge">
<title>presenter/components/domain/Me/ComponentSelector.tsx&#45;&gt;useCase/useMe/type.ts</title>
<path fill="none" stroke="#757575" d="M323.0359,-253.9971C360.182,-250.5064 401.173,-247.0227 438.8726,-244.6243 596.8017,-234.5771 780.7079,-229.5654 890.1882,-227.2869"/>
<polygon fill="#757575" stroke="#757575" points="890.2948,-230.7856 900.221,-227.0814 890.1514,-223.787 890.2948,-230.7856"/>
</g>
<!-- presenter/components/domain/Me/Content.tsx&#45;&gt;useCase/useMe/type.ts -->
<g id="edge12" class="edge">
<title>presenter/components/domain/Me/Content.tsx&#45;&gt;useCase/useMe/type.ts</title>
<path fill="none" stroke="#757575" d="M728.8062,-296.9482C744.7052,-294.5701 760.7254,-291.8086 775.8711,-288.6243 833.8241,-276.4398 898.8991,-255.9008 941.2041,-241.5992"/>
<polygon fill="#757575" stroke="#757575" points="942.5874,-244.8255 950.9243,-238.2873 940.3298,-238.1995 942.5874,-244.8255"/>
</g>
<!-- presenter/components/domain/Me/Me.tsx -->
<g id="node17" class="node">
<title>presenter/components/domain/Me/Me.tsx</title>
<path fill="none" stroke="#c6c5fe" d="M744.8339,-365.374C744.8339,-365.374 469.9098,-365.374 469.9098,-365.374 465.6598,-365.374 461.4099,-361.1241 461.4099,-356.8742 461.4099,-356.8742 461.4099,-348.3743 461.4099,-348.3743 461.4099,-344.1244 465.6598,-339.8745 469.9098,-339.8745 469.9098,-339.8745 744.8339,-339.8745 744.8339,-339.8745 749.0838,-339.8745 753.3337,-344.1244 753.3337,-348.3743 753.3337,-348.3743 753.3337,-356.8742 753.3337,-356.8742 753.3337,-361.1241 749.0838,-365.374 744.8339,-365.374"/>
<text text-anchor="middle" x="607.3718" y="-349.2485" font-family="Arial" font-size="15.00" fill="#c6c5fe">presenter/components/domain/Me/Me.tsx</text>
</g>
<!-- presenter/components/domain/Me/Placeholder.tsx -->
<g id="node18" class="node">
<title>presenter/components/domain/Me/Placeholder.tsx</title>
<path fill="none" stroke="#cfffac" d="M1152.645,-365.374C1152.645,-365.374 820.6128,-365.374 820.6128,-365.374 816.3629,-365.374 812.1129,-361.1241 812.1129,-356.8742 812.1129,-356.8742 812.1129,-348.3743 812.1129,-348.3743 812.1129,-344.1244 816.3629,-339.8745 820.6128,-339.8745 820.6128,-339.8745 1152.645,-339.8745 1152.645,-339.8745 1156.8949,-339.8745 1161.1449,-344.1244 1161.1449,-348.3743 1161.1449,-348.3743 1161.1449,-356.8742 1161.1449,-356.8742 1161.1449,-361.1241 1156.8949,-365.374 1152.645,-365.374"/>
<text text-anchor="middle" x="986.6289" y="-349.2485" font-family="Arial" font-size="15.00" fill="#cfffac">presenter/components/domain/Me/Placeholder.tsx</text>
</g>
<!-- presenter/components/domain/Me/Me.tsx&#45;&gt;presenter/components/domain/Me/Placeholder.tsx -->
<g id="edge13" class="edge">
<title>presenter/components/domain/Me/Me.tsx&#45;&gt;presenter/components/domain/Me/Placeholder.tsx</title>
<path fill="none" stroke="#757575" d="M753.46,-352.6243C769.3579,-352.6243 785.6875,-352.6243 801.9682,-352.6243"/>
<polygon fill="#757575" stroke="#757575" points="802.0946,-356.1244 812.0946,-352.6243 802.0945,-349.1244 802.0946,-356.1244"/>
</g>
<!-- presenter/components/domain/Me/index.ts -->
<g id="node19" class="node">
<title>presenter/components/domain/Me/index.ts</title>
<path fill="none" stroke="#c6c5fe" d="M342.9207,-365.374C342.9207,-365.374 59.9518,-365.374 59.9518,-365.374 55.7019,-365.374 51.452,-361.1241 51.452,-356.8742 51.452,-356.8742 51.452,-348.3743 51.452,-348.3743 51.452,-344.1244 55.7019,-339.8745 59.9518,-339.8745 59.9518,-339.8745 342.9207,-339.8745 342.9207,-339.8745 347.1706,-339.8745 351.4206,-344.1244 351.4206,-348.3743 351.4206,-348.3743 351.4206,-356.8742 351.4206,-356.8742 351.4206,-361.1241 347.1706,-365.374 342.9207,-365.374"/>
<text text-anchor="middle" x="201.4363" y="-349.2485" font-family="Arial" font-size="15.00" fill="#c6c5fe">presenter/components/domain/Me/index.ts</text>
</g>
<!-- presenter/components/domain/Me/index.ts&#45;&gt;presenter/components/domain/Me/Me.tsx -->
<g id="edge14" class="edge">
<title>presenter/components/domain/Me/index.ts&#45;&gt;presenter/components/domain/Me/Me.tsx</title>
<path fill="none" stroke="#757575" d="M351.4384,-352.6243C383.9821,-352.6243 418.4792,-352.6243 451.2526,-352.6243"/>
<polygon fill="#757575" stroke="#757575" points="451.3642,-356.1244 461.3642,-352.6243 451.3641,-349.1244 451.3642,-356.1244"/>
</g>
<!-- presenter/containers/ErrorBoundary.tsx -->
<g id="node20" class="node">
<title>presenter/containers/ErrorBoundary.tsx</title>
<path fill="none" stroke="#cfffac" d="M331.1129,-408.374C331.1129,-408.374 71.7597,-408.374 71.7597,-408.374 67.5097,-408.374 63.2598,-404.1241 63.2598,-399.8742 63.2598,-399.8742 63.2598,-391.3743 63.2598,-391.3743 63.2598,-387.1244 67.5097,-382.8745 71.7597,-382.8745 71.7597,-382.8745 331.1129,-382.8745 331.1129,-382.8745 335.3628,-382.8745 339.6127,-387.1244 339.6127,-391.3743 339.6127,-391.3743 339.6127,-399.8742 339.6127,-399.8742 339.6127,-404.1241 335.3628,-408.374 331.1129,-408.374"/>
<text text-anchor="middle" x="201.4363" y="-392.2485" font-family="Arial" font-size="15.00" fill="#cfffac">presenter/containers/ErrorBoundary.tsx</text>
</g>
<!-- useCase/useMe/index.ts -->
<g id="node21" class="node">
<title>useCase/useMe/index.ts</title>
<path fill="none" stroke="#c6c5fe" d="M283.1895,-197.374C283.1895,-197.374 119.683,-197.374 119.683,-197.374 115.4331,-197.374 111.1832,-193.1241 111.1832,-188.8742 111.1832,-188.8742 111.1832,-180.3743 111.1832,-180.3743 111.1832,-176.1244 115.4331,-171.8745 119.683,-171.8745 119.683,-171.8745 283.1895,-171.8745 283.1895,-171.8745 287.4395,-171.8745 291.6894,-176.1244 291.6894,-180.3743 291.6894,-180.3743 291.6894,-188.8742 291.6894,-188.8742 291.6894,-193.1241 287.4395,-197.374 283.1895,-197.374"/>
<text text-anchor="middle" x="201.4363" y="-181.2485" font-family="Arial" font-size="15.00" fill="#c6c5fe">useCase/useMe/index.ts</text>
</g>
<!-- useCase/useMe/useMe.ts -->
<g id="node22" class="node">
<title>useCase/useMe/useMe.ts</title>
<path fill="none" stroke="#c6c5fe" d="M693.788,-197.374C693.788,-197.374 520.9557,-197.374 520.9557,-197.374 516.7058,-197.374 512.4558,-193.1241 512.4558,-188.8742 512.4558,-188.8742 512.4558,-180.3743 512.4558,-180.3743 512.4558,-176.1244 516.7058,-171.8745 520.9557,-171.8745 520.9557,-171.8745 693.788,-171.8745 693.788,-171.8745 698.0379,-171.8745 702.2878,-176.1244 702.2878,-180.3743 702.2878,-180.3743 702.2878,-188.8742 702.2878,-188.8742 702.2878,-193.1241 698.0379,-197.374 693.788,-197.374"/>
<text text-anchor="middle" x="607.3718" y="-181.2485" font-family="Arial" font-size="15.00" fill="#c6c5fe">useCase/useMe/useMe.ts</text>
</g>
<!-- useCase/useMe/index.ts&#45;&gt;useCase/useMe/useMe.ts -->
<g id="edge15" class="edge">
<title>useCase/useMe/index.ts&#45;&gt;useCase/useMe/useMe.ts</title>
<path fill="none" stroke="#757575" d="M291.7786,-184.6243C353.9823,-184.6243 436.8369,-184.6243 502.0423,-184.6243"/>
<polygon fill="#757575" stroke="#757575" points="502.3499,-188.1244 512.3499,-184.6243 502.3499,-181.1244 502.3499,-188.1244"/>
</g>
<!-- useCase/useMe/useMe.ts&#45;&gt;useCase/useMe/type.ts -->
<g id="edge16" class="edge">
<title>useCase/useMe/useMe.ts&#45;&gt;useCase/useMe/type.ts</title>
<path fill="none" stroke="#757575" d="M702.0961,-194.8645C759.4279,-201.0625 832.3536,-208.9462 890.0221,-215.1805"/>
<polygon fill="#757575" stroke="#757575" points="889.9196,-218.6897 900.2379,-216.2849 890.672,-211.7303 889.9196,-218.6897"/>
</g>
</g>
</svg>
