<?xml version="1.0" encoding="UTF-8" standalone="no"?>
<!DOCTYPE svg PUBLIC "-//W3C//DTD SVG 1.1//EN"
 "http://www.w3.org/Graphics/SVG/1.1/DTD/svg11.dtd">
<!-- Generated by graphviz version 2.40.1 (20161225.0304)
 -->
<!-- Title: G Pages: 1 -->
<svg width="2030pt" height="425pt"
 viewBox="0.00 0.00 2030.04 425.45" xmlns="http://www.w3.org/2000/svg" xmlns:xlink="http://www.w3.org/1999/xlink">
<g id="graph0" class="graph" transform="scale(1 1) rotate(0) translate(21.6 403.8485)">
<title>G</title>
<polygon fill="#111111" stroke="transparent" points="-21.6,21.6 -21.6,-403.8485 2008.4423,-403.8485 2008.4423,21.6 -21.6,21.6"/>
<!-- app.d.ts -->
<g id="node1" class="node">
<title>app.d.ts</title>
<path fill="none" stroke="#cfffac" d="M187.361,-25.374C187.361,-25.374 134.6155,-25.374 134.6155,-25.374 130.3656,-25.374 126.1157,-21.1241 126.1157,-16.8742 126.1157,-16.8742 126.1157,-8.3743 126.1157,-8.3743 126.1157,-4.1244 130.3656,.1255 134.6155,.1255 134.6155,.1255 187.361,.1255 187.361,.1255 191.6109,.1255 195.8609,-4.1244 195.8609,-8.3743 195.8609,-8.3743 195.8609,-16.8742 195.8609,-16.8742 195.8609,-21.1241 191.6109,-25.374 187.361,-25.374"/>
<text text-anchor="middle" x="160.9883" y="-9.2485" font-family="Arial" font-size="15.00" fill="#cfffac">app.d.ts</text>
</g>
<!-- domain/me/index.ts -->
<g id="node2" class="node">
<title>domain/me/index.ts</title>
<path fill="none" stroke="#c6c5fe" d="M225.5519,-68.374C225.5519,-68.374 96.4246,-68.374 96.4246,-68.374 92.1747,-68.374 87.9248,-64.1241 87.9248,-59.8742 87.9248,-59.8742 87.9248,-51.3743 87.9248,-51.3743 87.9248,-47.1244 92.1747,-42.8745 96.4246,-42.8745 96.4246,-42.8745 225.5519,-42.8745 225.5519,-42.8745 229.8018,-42.8745 234.0518,-47.1244 234.0518,-51.3743 234.0518,-51.3743 234.0518,-59.8742 234.0518,-59.8742 234.0518,-64.1241 229.8018,-68.374 225.5519,-68.374"/>
<text text-anchor="middle" x="160.9883" y="-52.2485" font-family="Arial" font-size="15.00" fill="#c6c5fe">domain/me/index.ts</text>
</g>
<!-- domain/me/me.ts -->
<g id="node3" class="node">
<title>domain/me/me.ts</title>
<path fill="none" stroke="#cfffac" d="M572.2455,-89.374C572.2455,-89.374 458.1622,-89.374 458.1622,-89.374 453.9123,-89.374 449.6623,-85.1241 449.6623,-80.8742 449.6623,-80.8742 449.6623,-72.3743 449.6623,-72.3743 449.6623,-68.1244 453.9123,-63.8745 458.1622,-63.8745 458.1622,-63.8745 572.2455,-63.8745 572.2455,-63.8745 576.4954,-63.8745 580.7454,-68.1244 580.7454,-72.3743 580.7454,-72.3743 580.7454,-80.8742 580.7454,-80.8742 580.7454,-85.1241 576.4954,-89.374 572.2455,-89.374"/>
<text text-anchor="middle" x="515.2039" y="-73.2485" font-family="Arial" font-size="15.00" fill="#cfffac">domain/me/me.ts</text>
</g>
<!-- domain/me/index.ts&#45;&gt;domain/me/me.ts -->
<g id="edge1" class="edge">
<title>domain/me/index.ts&#45;&gt;domain/me/me.ts</title>
<path fill="none" stroke="#757575" d="M234.382,-59.9755C294.3398,-63.5301 378.7832,-68.5364 439.3882,-72.1295"/>
<polygon fill="#757575" stroke="#757575" points="439.4681,-75.6403 449.6577,-72.7383 439.8824,-68.6525 439.4681,-75.6403"/>
</g>
<!-- domain/me/type.ts -->
<g id="node4" class="node">
<title>domain/me/type.ts</title>
<path fill="none" stroke="#cfffac" d="M575.7609,-46.374C575.7609,-46.374 454.6468,-46.374 454.6468,-46.374 450.3969,-46.374 446.147,-42.1241 446.147,-37.8742 446.147,-37.8742 446.147,-29.3743 446.147,-29.3743 446.147,-25.1244 450.3969,-20.8745 454.6468,-20.8745 454.6468,-20.8745 575.7609,-20.8745 575.7609,-20.8745 580.0108,-20.8745 584.2607,-25.1244 584.2607,-29.3743 584.2607,-29.3743 584.2607,-37.8742 584.2607,-37.8742 584.2607,-42.1241 580.0108,-46.374 575.7609,-46.374"/>
<text text-anchor="middle" x="515.2039" y="-30.2485" font-family="Arial" font-size="15.00" fill="#cfffac">domain/me/type.ts</text>
</g>
<!-- domain/me/index.ts&#45;&gt;domain/me/type.ts -->
<g id="edge2" class="edge">
<title>domain/me/index.ts&#45;&gt;domain/me/type.ts</title>
<path fill="none" stroke="#757575" d="M234.382,-51.0659C293.1905,-47.4133 375.5548,-42.2977 435.877,-38.5512"/>
<polygon fill="#757575" stroke="#757575" points="436.3522,-42.0285 446.116,-37.9152 435.9183,-35.042 436.3522,-42.0285"/>
</g>
<!-- externalInterface/api/http/client/client.ts -->
<g id="node5" class="node">
<title>externalInterface/api/http/client/client.ts</title>
<path fill="none" stroke="#cfffac" d="M1978.4959,-154.374C1978.4959,-154.374 1719.882,-154.374 1719.882,-154.374 1715.6321,-154.374 1711.3822,-150.1241 1711.3822,-145.8742 1711.3822,-145.8742 1711.3822,-137.3743 1711.3822,-137.3743 1711.3822,-133.1244 1715.6321,-128.8745 1719.882,-128.8745 1719.882,-128.8745 1978.4959,-128.8745 1978.4959,-128.8745 1982.7459,-128.8745 1986.9958,-133.1244 1986.9958,-137.3743 1986.9958,-137.3743 1986.9958,-145.8742 1986.9958,-145.8742 1986.9958,-150.1241 1982.7459,-154.374 1978.4959,-154.374"/>
<text text-anchor="middle" x="1849.189" y="-138.2485" font-family="Arial" font-size="15.00" fill="#cfffac">externalInterface/api/http/client/client.ts</text>
</g>
<!-- externalInterface/api/http/client/index.ts -->
<g id="node6" class="node">
<title>externalInterface/api/http/client/index.ts</title>
<path fill="none" stroke="#c6c5fe" d="M1667.1103,-154.374C1667.1103,-154.374 1407.8121,-154.374 1407.8121,-154.374 1403.5621,-154.374 1399.3122,-150.1241 1399.3122,-145.8742 1399.3122,-145.8742 1399.3122,-137.3743 1399.3122,-137.3743 1399.3122,-133.1244 1403.5621,-128.8745 1407.8121,-128.8745 1407.8121,-128.8745 1667.1103,-128.8745 1667.1103,-128.8745 1671.3602,-128.8745 1675.6101,-133.1244 1675.6101,-137.3743 1675.6101,-137.3743 1675.6101,-145.8742 1675.6101,-145.8742 1675.6101,-150.1241 1671.3602,-154.374 1667.1103,-154.374"/>
<text text-anchor="middle" x="1537.4612" y="-138.2485" font-family="Arial" font-size="15.00" fill="#c6c5fe">externalInterface/api/http/client/index.ts</text>
</g>
<!-- externalInterface/api/http/client/index.ts&#45;&gt;externalInterface/api/http/client/client.ts -->
<g id="edge3" class="edge">
<title>externalInterface/api/http/client/index.ts&#45;&gt;externalInterface/api/http/client/client.ts</title>
<path fill="none" stroke="#757575" d="M1675.5508,-141.6243C1684.0956,-141.6243 1692.7126,-141.6243 1701.2972,-141.6243"/>
<polygon fill="#757575" stroke="#757575" points="1701.3538,-145.1244 1711.3538,-141.6243 1701.3537,-138.1244 1701.3538,-145.1244"/>
</g>
<!-- externalInterface/api/http/client/util.ts -->
<g id="node7" class="node">
<title>externalInterface/api/http/client/util.ts</title>
<path fill="none" stroke="#cfffac" d="M1658.9261,-111.374C1658.9261,-111.374 1415.9963,-111.374 1415.9963,-111.374 1411.7463,-111.374 1407.4964,-107.1241 1407.4964,-102.8742 1407.4964,-102.8742 1407.4964,-94.3743 1407.4964,-94.3743 1407.4964,-90.1244 1411.7463,-85.8745 1415.9963,-85.8745 1415.9963,-85.8745 1658.9261,-85.8745 1658.9261,-85.8745 1663.176,-85.8745 1667.426,-90.1244 1667.426,-94.3743 1667.426,-94.3743 1667.426,-102.8742 1667.426,-102.8742 1667.426,-107.1241 1663.176,-111.374 1658.9261,-111.374"/>
<text text-anchor="middle" x="1537.4612" y="-95.2485" font-family="Arial" font-size="15.00" fill="#cfffac">externalInterface/api/http/client/util.ts</text>
</g>
<!-- externalInterface/api/http/me/index.ts -->
<g id="node8" class="node">
<title>externalInterface/api/http/me/index.ts</title>
<path fill="none" stroke="#c6c5fe" d="M1016.9047,-132.374C1016.9047,-132.374 771.9659,-132.374 771.9659,-132.374 767.716,-132.374 763.4661,-128.1241 763.4661,-123.8742 763.4661,-123.8742 763.4661,-115.3743 763.4661,-115.3743 763.4661,-111.1244 767.716,-106.8745 771.9659,-106.8745 771.9659,-106.8745 1016.9047,-106.8745 1016.9047,-106.8745 1021.1546,-106.8745 1025.4045,-111.1244 1025.4045,-115.3743 1025.4045,-115.3743 1025.4045,-123.8742 1025.4045,-123.8742 1025.4045,-128.1241 1021.1546,-132.374 1016.9047,-132.374"/>
<text text-anchor="middle" x="894.4353" y="-116.2485" font-family="Arial" font-size="15.00" fill="#c6c5fe">externalInterface/api/http/me/index.ts</text>
</g>
<!-- externalInterface/api/http/me/me.ts -->
<g id="node9" class="node">
<title>externalInterface/api/http/me/me.ts</title>
<path fill="none" stroke="#c6c5fe" d="M1354.8605,-132.374C1354.8605,-132.374 1124.9657,-132.374 1124.9657,-132.374 1120.7157,-132.374 1116.4658,-128.1241 1116.4658,-123.8742 1116.4658,-123.8742 1116.4658,-115.3743 1116.4658,-115.3743 1116.4658,-111.1244 1120.7157,-106.8745 1124.9657,-106.8745 1124.9657,-106.8745 1354.8605,-106.8745 1354.8605,-106.8745 1359.1104,-106.8745 1363.3604,-111.1244 1363.3604,-115.3743 1363.3604,-115.3743 1363.3604,-123.8742 1363.3604,-123.8742 1363.3604,-128.1241 1359.1104,-132.374 1354.8605,-132.374"/>
<text text-anchor="middle" x="1239.9131" y="-116.2485" font-family="Arial" font-size="15.00" fill="#c6c5fe">externalInterface/api/http/me/me.ts</text>
</g>
<!-- externalInterface/api/http/me/index.ts&#45;&gt;externalInterface/api/http/me/me.ts -->
<g id="edge4" class="edge">
<title>externalInterface/api/http/me/index.ts&#45;&gt;externalInterface/api/http/me/me.ts</title>
<path fill="none" stroke="#757575" d="M1025.5383,-119.6243C1051.943,-119.6243 1079.7279,-119.6243 1106.22,-119.6243"/>
<polygon fill="#757575" stroke="#757575" points="1106.3044,-123.1244 1116.3044,-119.6243 1106.3044,-116.1244 1106.3044,-123.1244"/>
</g>
<!-- externalInterface/api/http/me/me.ts&#45;&gt;externalInterface/api/http/client/index.ts -->
<g id="edge5" class="edge">
<title>externalInterface/api/http/me/me.ts&#45;&gt;externalInterface/api/http/client/index.ts</title>
<path fill="none" stroke="#757575" d="M1363.5153,-128.7631C1372.0077,-129.391 1380.6129,-130.0273 1389.2157,-130.6633"/>
<polygon fill="#757575" stroke="#757575" points="1389.0757,-134.1625 1399.3066,-131.4094 1389.592,-127.1815 1389.0757,-134.1625"/>
</g>
<!-- externalInterface/api/http/me/me.ts&#45;&gt;externalInterface/api/http/client/util.ts -->
<g id="edge6" class="edge">
<title>externalInterface/api/http/me/me.ts&#45;&gt;externalInterface/api/http/client/util.ts</title>
<path fill="none" stroke="#757575" d="M1363.5153,-110.9008C1374.6398,-110.1157 1385.9577,-109.3169 1397.2103,-108.5227"/>
<polygon fill="#757575" stroke="#757575" points="1397.7899,-111.9906 1407.5187,-107.7952 1397.297,-105.008 1397.7899,-111.9906"/>
</g>
<!-- externalInterface/api/http/me/type.ts -->
<g id="node10" class="node">
<title>externalInterface/api/http/me/type.ts</title>
<path fill="none" stroke="#cfffac" d="M279.9508,-180.374C279.9508,-180.374 42.0258,-180.374 42.0258,-180.374 37.7759,-180.374 33.5259,-176.1241 33.5259,-171.8742 33.5259,-171.8742 33.5259,-163.3743 33.5259,-163.3743 33.5259,-159.1244 37.7759,-154.8745 42.0258,-154.8745 42.0258,-154.8745 279.9508,-154.8745 279.9508,-154.8745 284.2007,-154.8745 288.4506,-159.1244 288.4506,-163.3743 288.4506,-163.3743 288.4506,-171.8742 288.4506,-171.8742 288.4506,-176.1241 284.2007,-180.374 279.9508,-180.374"/>
<text text-anchor="middle" x="160.9883" y="-164.2485" font-family="Arial" font-size="15.00" fill="#cfffac">externalInterface/api/http/me/type.ts</text>
</g>
<!-- gateway/me/index.ts -->
<g id="node11" class="node">
<title>gateway/me/index.ts</title>
<path fill="none" stroke="#c6c5fe" d="M228.7245,-132.374C228.7245,-132.374 93.2521,-132.374 93.2521,-132.374 89.0021,-132.374 84.7522,-128.1241 84.7522,-123.8742 84.7522,-123.8742 84.7522,-115.3743 84.7522,-115.3743 84.7522,-111.1244 89.0021,-106.8745 93.2521,-106.8745 93.2521,-106.8745 228.7245,-106.8745 228.7245,-106.8745 232.9744,-106.8745 237.2243,-111.1244 237.2243,-115.3743 237.2243,-115.3743 237.2243,-123.8742 237.2243,-123.8742 237.2243,-128.1241 232.9744,-132.374 228.7245,-132.374"/>
<text text-anchor="middle" x="160.9883" y="-116.2485" font-family="Arial" font-size="15.00" fill="#c6c5fe">gateway/me/index.ts</text>
</g>
<!-- gateway/me/me.ts -->
<g id="node12" class="node">
<title>gateway/me/me.ts</title>
<path fill="none" stroke="#c6c5fe" d="M575.4182,-132.374C575.4182,-132.374 454.9895,-132.374 454.9895,-132.374 450.7396,-132.374 446.4897,-128.1241 446.4897,-123.8742 446.4897,-123.8742 446.4897,-115.3743 446.4897,-115.3743 446.4897,-111.1244 450.7396,-106.8745 454.9895,-106.8745 454.9895,-106.8745 575.4182,-106.8745 575.4182,-106.8745 579.6681,-106.8745 583.918,-111.1244 583.918,-115.3743 583.918,-115.3743 583.918,-123.8742 583.918,-123.8742 583.918,-128.1241 579.6681,-132.374 575.4182,-132.374"/>
<text text-anchor="middle" x="515.2039" y="-116.2485" font-family="Arial" font-size="15.00" fill="#c6c5fe">gateway/me/me.ts</text>
</g>
<!-- gateway/me/index.ts&#45;&gt;gateway/me/me.ts -->
<g id="edge7" class="edge">
<title>gateway/me/index.ts&#45;&gt;gateway/me/me.ts</title>
<path fill="none" stroke="#757575" d="M237.4117,-119.6243C296.1459,-119.6243 377.0021,-119.6243 436.3381,-119.6243"/>
<polygon fill="#757575" stroke="#757575" points="436.4116,-123.1244 446.4116,-119.6243 436.4115,-116.1244 436.4116,-123.1244"/>
</g>
<!-- gateway/me/me.ts&#45;&gt;externalInterface/api/http/me/index.ts -->
<g id="edge8" class="edge">
<title>gateway/me/me.ts&#45;&gt;externalInterface/api/http/me/index.ts</title>
<path fill="none" stroke="#757575" d="M584.3198,-119.6243C631.3791,-119.6243 695.3463,-119.6243 752.9628,-119.6243"/>
<polygon fill="#757575" stroke="#757575" points="753.2672,-123.1244 763.2672,-119.6243 753.2672,-116.1244 753.2672,-123.1244"/>
</g>
<!-- presenter/components/ecosystem/Me/Content.tsx -->
<g id="node13" class="node">
<title>presenter/components/ecosystem/Me/Content.tsx</title>
<path fill="none" stroke="#c6c5fe" d="M1059.0893,-296.374C1059.0893,-296.374 729.7813,-296.374 729.7813,-296.374 725.5314,-296.374 721.2815,-292.1241 721.2815,-287.8742 721.2815,-287.8742 721.2815,-279.3743 721.2815,-279.3743 721.2815,-275.1244 725.5314,-270.8745 729.7813,-270.8745 729.7813,-270.8745 1059.0893,-270.8745 1059.0893,-270.8745 1063.3392,-270.8745 1067.5891,-275.1244 1067.5891,-279.3743 1067.5891,-279.3743 1067.5891,-287.8742 1067.5891,-287.8742 1067.5891,-292.1241 1063.3392,-296.374 1059.0893,-296.374"/>
<text text-anchor="middle" x="894.4353" y="-280.2485" font-family="Arial" font-size="15.00" fill="#c6c5fe">presenter/components/ecosystem/Me/Content.tsx</text>
</g>
<!-- useCase/useMe/type.ts -->
<g id="node14" class="node">
<title>useCase/useMe/type.ts</title>
<path fill="none" stroke="#cfffac" d="M1317.659,-255.374C1317.659,-255.374 1162.1671,-255.374 1162.1671,-255.374 1157.9172,-255.374 1153.6673,-251.1241 1153.6673,-246.8742 1153.6673,-246.8742 1153.6673,-238.3743 1153.6673,-238.3743 1153.6673,-234.1244 1157.9172,-229.8745 1162.1671,-229.8745 1162.1671,-229.8745 1317.659,-229.8745 1317.659,-229.8745 1321.909,-229.8745 1326.1589,-234.1244 1326.1589,-238.3743 1326.1589,-238.3743 1326.1589,-246.8742 1326.1589,-246.8742 1326.1589,-251.1241 1321.909,-255.374 1317.659,-255.374"/>
<text text-anchor="middle" x="1239.9131" y="-239.2485" font-family="Arial" font-size="15.00" fill="#cfffac">useCase/useMe/type.ts</text>
</g>
<!-- presenter/components/ecosystem/Me/Content.tsx&#45;&gt;useCase/useMe/type.ts -->
<g id="edge9" class="edge">
<title>presenter/components/ecosystem/Me/Content.tsx&#45;&gt;useCase/useMe/type.ts</title>
<path fill="none" stroke="#757575" d="M1000.909,-270.9884C1046.3406,-265.5967 1098.9803,-259.3496 1143.2756,-254.0928"/>
<polygon fill="#757575" stroke="#757575" points="1143.9496,-257.5375 1153.4674,-252.8833 1143.1246,-250.5863 1143.9496,-257.5375"/>
</g>
<!-- presenter/components/ecosystem/Me/Exception.tsx -->
<g id="node15" class="node">
<title>presenter/components/ecosystem/Me/Exception.tsx</title>
<path fill="none" stroke="#cfffac" d="M1065.927,-214.374C1065.927,-214.374 722.9436,-214.374 722.9436,-214.374 718.6937,-214.374 714.4438,-210.1241 714.4438,-205.8742 714.4438,-205.8742 714.4438,-197.3743 714.4438,-197.3743 714.4438,-193.1244 718.6937,-188.8745 722.9436,-188.8745 722.9436,-188.8745 1065.927,-188.8745 1065.927,-188.8745 1070.1769,-188.8745 1074.4268,-193.1244 1074.4268,-197.3743 1074.4268,-197.3743 1074.4268,-205.8742 1074.4268,-205.8742 1074.4268,-210.1241 1070.1769,-214.374 1065.927,-214.374"/>
<text text-anchor="middle" x="894.4353" y="-198.2485" font-family="Arial" font-size="15.00" fill="#cfffac">presenter/components/ecosystem/Me/Exception.tsx</text>
</g>
<!-- presenter/components/ecosystem/Me/Me.tsx -->
<g id="node16" class="node">
<title>presenter/components/ecosystem/Me/Me.tsx</title>
<path fill="none" stroke="#c6c5fe" d="M664.1589,-339.374C664.1589,-339.374 366.2488,-339.374 366.2488,-339.374 361.9989,-339.374 357.7489,-335.1241 357.7489,-330.8742 357.7489,-330.8742 357.7489,-322.3743 357.7489,-322.3743 357.7489,-318.1244 361.9989,-313.8745 366.2488,-313.8745 366.2488,-313.8745 664.1589,-313.8745 664.1589,-313.8745 668.4089,-313.8745 672.6588,-318.1244 672.6588,-322.3743 672.6588,-322.3743 672.6588,-330.8742 672.6588,-330.8742 672.6588,-335.1241 668.4089,-339.374 664.1589,-339.374"/>
<text text-anchor="middle" x="515.2039" y="-323.2485" font-family="Arial" font-size="15.00" fill="#c6c5fe">presenter/components/ecosystem/Me/Me.tsx</text>
</g>
<!-- presenter/components/ecosystem/Me/Placeholder.tsx -->
<g id="node17" class="node">
<title>presenter/components/ecosystem/Me/Placeholder.tsx</title>
<path fill="none" stroke="#cfffac" d="M1071.9438,-339.374C1071.9438,-339.374 716.9268,-339.374 716.9268,-339.374 712.6769,-339.374 708.427,-335.1241 708.427,-330.8742 708.427,-330.8742 708.427,-322.3743 708.427,-322.3743 708.427,-318.1244 712.6769,-313.8745 716.9268,-313.8745 716.9268,-313.8745 1071.9438,-313.8745 1071.9438,-313.8745 1076.1937,-313.8745 1080.4436,-318.1244 1080.4436,-322.3743 1080.4436,-322.3743 1080.4436,-330.8742 1080.4436,-330.8742 1080.4436,-335.1241 1076.1937,-339.374 1071.9438,-339.374"/>
<text text-anchor="middle" x="894.4353" y="-323.2485" font-family="Arial" font-size="15.00" fill="#cfffac">presenter/components/ecosystem/Me/Placeholder.tsx</text>
</g>
<!-- presenter/components/ecosystem/Me/Me.tsx&#45;&gt;presenter/components/ecosystem/Me/Placeholder.tsx -->
<g id="edge10" class="edge">
<title>presenter/components/ecosystem/Me/Me.tsx&#45;&gt;presenter/components/ecosystem/Me/Placeholder.tsx</title>
<path fill="none" stroke="#757575" d="M672.4634,-326.6243C680.9524,-326.6243 689.5306,-326.6243 698.1272,-326.6243"/>
<polygon fill="#757575" stroke="#757575" points="698.2231,-330.1244 708.223,-326.6243 698.223,-323.1244 698.2231,-330.1244"/>
</g>
<!-- presenter/components/ecosystem/Me/index.ts -->
<g id="node18" class="node">
<title>presenter/components/ecosystem/Me/index.ts</title>
<path fill="none" stroke="#c6c5fe" d="M313.465,-339.374C313.465,-339.374 8.5116,-339.374 8.5116,-339.374 4.2616,-339.374 .0117,-335.1241 .0117,-330.8742 .0117,-330.8742 .0117,-322.3743 .0117,-322.3743 .0117,-318.1244 4.2616,-313.8745 8.5116,-313.8745 8.5116,-313.8745 313.465,-313.8745 313.465,-313.8745 317.7149,-313.8745 321.9648,-318.1244 321.9648,-322.3743 321.9648,-322.3743 321.9648,-330.8742 321.9648,-330.8742 321.9648,-335.1241 317.7149,-339.374 313.465,-339.374"/>
<text text-anchor="middle" x="160.9883" y="-323.2485" font-family="Arial" font-size="15.00" fill="#c6c5fe">presenter/components/ecosystem/Me/index.ts</text>
</g>
<!-- presenter/components/ecosystem/Me/index.ts&#45;&gt;presenter/components/ecosystem/Me/Me.tsx -->
<g id="edge11" class="edge">
<title>presenter/components/ecosystem/Me/index.ts&#45;&gt;presenter/components/ecosystem/Me/Me.tsx</title>
<path fill="none" stroke="#757575" d="M322.0307,-326.6243C330.5689,-326.6243 339.1573,-326.6243 347.7156,-326.6243"/>
<polygon fill="#757575" stroke="#757575" points="347.7437,-330.1244 357.7437,-326.6243 347.7437,-323.1244 347.7437,-330.1244"/>
</g>
<!-- presenter/containers/ErrorBoundary.tsx -->
<g id="node19" class="node">
<title>presenter/containers/ErrorBoundary.tsx</title>
<path fill="none" stroke="#cfffac" d="M290.6649,-382.374C290.6649,-382.374 31.3117,-382.374 31.3117,-382.374 27.0617,-382.374 22.8118,-378.1241 22.8118,-373.8742 22.8118,-373.8742 22.8118,-365.3743 22.8118,-365.3743 22.8118,-361.1244 27.0617,-356.8745 31.3117,-356.8745 31.3117,-356.8745 290.6649,-356.8745 290.6649,-356.8745 294.9148,-356.8745 299.1647,-361.1244 299.1647,-365.3743 299.1647,-365.3743 299.1647,-373.8742 299.1647,-373.8742 299.1647,-378.1241 294.9148,-382.374 290.6649,-382.374"/>
<text text-anchor="middle" x="160.9883" y="-366.2485" font-family="Arial" font-size="15.00" fill="#cfffac">presenter/containers/ErrorBoundary.tsx</text>
</g>
<!-- useCase/useMe/index.ts -->
<g id="node20" class="node">
<title>useCase/useMe/index.ts</title>
<path fill="none" stroke="#c6c5fe" d="M242.7415,-228.374C242.7415,-228.374 79.235,-228.374 79.235,-228.374 74.9851,-228.374 70.7352,-224.1241 70.7352,-219.8742 70.7352,-219.8742 70.7352,-211.3743 70.7352,-211.3743 70.7352,-207.1244 74.9851,-202.8745 79.235,-202.8745 79.235,-202.8745 242.7415,-202.8745 242.7415,-202.8745 246.9915,-202.8745 251.2414,-207.1244 251.2414,-211.3743 251.2414,-211.3743 251.2414,-219.8742 251.2414,-219.8742 251.2414,-224.1241 246.9915,-228.374 242.7415,-228.374"/>
<text text-anchor="middle" x="160.9883" y="-212.2485" font-family="Arial" font-size="15.00" fill="#c6c5fe">useCase/useMe/index.ts</text>
</g>
<!-- useCase/useMe/interactor.tsx -->
<g id="node21" class="node">
<title>useCase/useMe/interactor.tsx</title>
<path fill="none" stroke="#c6c5fe" d="M613.2972,-246.374C613.2972,-246.374 417.1105,-246.374 417.1105,-246.374 412.8606,-246.374 408.6107,-242.1241 408.6107,-237.8742 408.6107,-237.8742 408.6107,-229.3743 408.6107,-229.3743 408.6107,-225.1244 412.8606,-220.8745 417.1105,-220.8745 417.1105,-220.8745 613.2972,-220.8745 613.2972,-220.8745 617.5471,-220.8745 621.797,-225.1244 621.797,-229.3743 621.797,-229.3743 621.797,-237.8742 621.797,-237.8742 621.797,-242.1241 617.5471,-246.374 613.2972,-246.374"/>
<text text-anchor="middle" x="515.2039" y="-230.2485" font-family="Arial" font-size="15.00" fill="#c6c5fe">useCase/useMe/interactor.tsx</text>
</g>
<!-- useCase/useMe/index.ts&#45;&gt;useCase/useMe/interactor.tsx -->
<g id="edge12" class="edge">
<title>useCase/useMe/index.ts&#45;&gt;useCase/useMe/interactor.tsx</title>
<path fill="none" stroke="#757575" d="M251.2883,-220.213C295.9708,-222.4836 350.447,-225.2519 398.2771,-227.6825"/>
<polygon fill="#757575" stroke="#757575" points="398.212,-231.1836 408.3767,-228.1957 398.5673,-224.1926 398.212,-231.1836"/>
</g>
<!-- useCase/useMe/useMe.ts -->
<g id="node22" class="node">
<title>useCase/useMe/useMe.ts</title>
<path fill="none" stroke="#c6c5fe" d="M601.62,-185.374C601.62,-185.374 428.7877,-185.374 428.7877,-185.374 424.5378,-185.374 420.2879,-181.1241 420.2879,-176.8742 420.2879,-176.8742 420.2879,-168.3743 420.2879,-168.3743 420.2879,-164.1244 424.5378,-159.8745 428.7877,-159.8745 428.7877,-159.8745 601.62,-159.8745 601.62,-159.8745 605.8699,-159.8745 610.1198,-164.1244 610.1198,-168.3743 610.1198,-168.3743 610.1198,-176.8742 610.1198,-176.8742 610.1198,-181.1241 605.8699,-185.374 601.62,-185.374"/>
<text text-anchor="middle" x="515.2039" y="-169.2485" font-family="Arial" font-size="15.00" fill="#c6c5fe">useCase/useMe/useMe.ts</text>
</g>
<!-- useCase/useMe/index.ts&#45;&gt;useCase/useMe/useMe.ts -->
<g id="edge13" class="edge">
<title>useCase/useMe/index.ts&#45;&gt;useCase/useMe/useMe.ts</title>
<path fill="none" stroke="#757575" d="M251.2883,-204.6623C299.8088,-198.7721 359.8777,-191.4801 410.4447,-185.3415"/>
<polygon fill="#757575" stroke="#757575" points="410.9198,-188.8096 420.4252,-184.1299 410.0762,-181.8606 410.9198,-188.8096"/>
</g>
<!-- useCase/useMe/interactor.tsx&#45;&gt;presenter/components/ecosystem/Me/Content.tsx -->
<g id="edge14" class="edge">
<title>useCase/useMe/interactor.tsx&#45;&gt;presenter/components/ecosystem/Me/Content.tsx</title>
<path fill="none" stroke="#757575" d="M611.3902,-246.306C665.4105,-253.4283 732.9186,-262.329 788.4556,-269.6513"/>
<polygon fill="#757575" stroke="#757575" points="788.3086,-273.1621 798.6803,-270.9994 789.2237,-266.2222 788.3086,-273.1621"/>
</g>
<!-- useCase/useMe/interactor.tsx&#45;&gt;useCase/useMe/type.ts -->
<g id="edge16" class="edge">
<title>useCase/useMe/interactor.tsx&#45;&gt;useCase/useMe/type.ts</title>
<path fill="none" stroke="#757575" d="M622.1372,-234.9522C762.7755,-236.6988 1007.8595,-239.7424 1143.2072,-241.4233"/>
<polygon fill="#757575" stroke="#757575" points="1143.5155,-244.9273 1153.5583,-241.5518 1143.6025,-237.9278 1143.5155,-244.9273"/>
</g>
<!-- useCase/useMe/interactor.tsx&#45;&gt;presenter/components/ecosystem/Me/Exception.tsx -->
<g id="edge15" class="edge">
<title>useCase/useMe/interactor.tsx&#45;&gt;presenter/components/ecosystem/Me/Exception.tsx</title>
<path fill="none" stroke="#757575" d="M621.8502,-224.6253C656.8425,-221.6726 696.5308,-218.3237 734.5794,-215.1131"/>
<polygon fill="#757575" stroke="#757575" points="735.0656,-218.5846 744.7359,-214.2561 734.477,-211.6094 735.0656,-218.5846"/>
</g>
<!-- useCase/useMe/useMe.ts&#45;&gt;useCase/useMe/type.ts -->
<g id="edge17" class="edge">
<title>useCase/useMe/useMe.ts&#45;&gt;useCase/useMe/type.ts</title>
<path fill="none" stroke="#757575" d="M610.0415,-163.4234C723.2111,-154.8177 917.5858,-147.5762 1080.4395,-179.6243 1125.9679,-188.5838 1175.1768,-209.9895 1206.7048,-225.363"/>
<polygon fill="#757575" stroke="#757575" points="1205.3839,-228.6146 1215.898,-229.92 1208.4928,-222.3429 1205.3839,-228.6146"/>
</g>
</g>
</svg>
