<?xml version="1.0" encoding="UTF-8" standalone="no"?>
<!DOCTYPE svg PUBLIC "-//W3C//DTD SVG 1.1//EN"
 "http://www.w3.org/Graphics/SVG/1.1/DTD/svg11.dtd">
<!-- Generated by graphviz version 2.40.1 (20161225.0304)
 -->
<!-- Title: G Pages: 1 -->
<svg width="2054pt" height="334pt"
 viewBox="0.00 0.00 2054.23 334.42" xmlns="http://www.w3.org/2000/svg" xmlns:xlink="http://www.w3.org/1999/xlink">
<g id="graph0" class="graph" transform="scale(1 1) rotate(0) translate(21.6 312.8224)">
<title>G</title>
<polygon fill="#111111" stroke="transparent" points="-21.6,21.6 -21.6,-312.8224 2032.6342,-312.8224 2032.6342,21.6 -21.6,21.6"/>
<!-- app.d.ts -->
<g id="node1" class="node">
<title>app.d.ts</title>
<path fill="none" stroke="#cfffac" d="M192.7883,-36.3479C192.7883,-36.3479 140.0428,-36.3479 140.0428,-36.3479 135.7929,-36.3479 131.5429,-32.098 131.5429,-27.8481 131.5429,-27.8481 131.5429,-19.3482 131.5429,-19.3482 131.5429,-15.0983 135.7929,-10.8484 140.0428,-10.8484 140.0428,-10.8484 192.7883,-10.8484 192.7883,-10.8484 197.0382,-10.8484 201.2881,-15.0983 201.2881,-19.3482 201.2881,-19.3482 201.2881,-27.8481 201.2881,-27.8481 201.2881,-32.098 197.0382,-36.3479 192.7883,-36.3479"/>
<text text-anchor="middle" x="166.4155" y="-20.2224" font-family="Arial" font-size="15.00" fill="#cfffac">app.d.ts</text>
</g>
<!-- domain/me/index.ts -->
<g id="node2" class="node">
<title>domain/me/index.ts</title>
<path fill="none" stroke="#c6c5fe" d="M1687.1066,-184.3479C1687.1066,-184.3479 1557.9793,-184.3479 1557.9793,-184.3479 1553.7294,-184.3479 1549.4795,-180.098 1549.4795,-175.8481 1549.4795,-175.8481 1549.4795,-167.3482 1549.4795,-167.3482 1549.4795,-163.0983 1553.7294,-158.8484 1557.9793,-158.8484 1557.9793,-158.8484 1687.1066,-158.8484 1687.1066,-158.8484 1691.3565,-158.8484 1695.6065,-163.0983 1695.6065,-167.3482 1695.6065,-167.3482 1695.6065,-175.8481 1695.6065,-175.8481 1695.6065,-180.098 1691.3565,-184.3479 1687.1066,-184.3479"/>
<text text-anchor="middle" x="1622.543" y="-168.2224" font-family="Arial" font-size="15.00" fill="#c6c5fe">domain/me/index.ts</text>
</g>
<!-- domain/me/me.ts -->
<g id="node3" class="node">
<title>domain/me/me.ts</title>
<path fill="none" stroke="#cfffac" d="M1981.703,-206.3479C1981.703,-206.3479 1867.6197,-206.3479 1867.6197,-206.3479 1863.3698,-206.3479 1859.1199,-202.098 1859.1199,-197.8481 1859.1199,-197.8481 1859.1199,-189.3482 1859.1199,-189.3482 1859.1199,-185.0983 1863.3698,-180.8484 1867.6197,-180.8484 1867.6197,-180.8484 1981.703,-180.8484 1981.703,-180.8484 1985.953,-180.8484 1990.2029,-185.0983 1990.2029,-189.3482 1990.2029,-189.3482 1990.2029,-197.8481 1990.2029,-197.8481 1990.2029,-202.098 1985.953,-206.3479 1981.703,-206.3479"/>
<text text-anchor="middle" x="1924.6614" y="-190.2224" font-family="Arial" font-size="15.00" fill="#cfffac">domain/me/me.ts</text>
</g>
<!-- domain/me/index.ts&#45;&gt;domain/me/me.ts -->
<g id="edge1" class="edge">
<title>domain/me/index.ts&#45;&gt;domain/me/me.ts</title>
<path fill="none" stroke="#757575" d="M1695.6774,-176.9237C1742.0459,-180.3003 1801.9037,-184.6591 1848.7899,-188.0733"/>
<polygon fill="#757575" stroke="#757575" points="1848.663,-191.5732 1858.8908,-188.8088 1849.1715,-184.5917 1848.663,-191.5732"/>
</g>
<!-- domain/me/type.ts -->
<g id="node4" class="node">
<title>domain/me/type.ts</title>
<path fill="none" stroke="#cfffac" d="M1985.2184,-163.3479C1985.2184,-163.3479 1864.1044,-163.3479 1864.1044,-163.3479 1859.8544,-163.3479 1855.6045,-159.098 1855.6045,-154.8481 1855.6045,-154.8481 1855.6045,-146.3482 1855.6045,-146.3482 1855.6045,-142.0983 1859.8544,-137.8484 1864.1044,-137.8484 1864.1044,-137.8484 1985.2184,-137.8484 1985.2184,-137.8484 1989.4683,-137.8484 1993.7182,-142.0983 1993.7182,-146.3482 1993.7182,-146.3482 1993.7182,-154.8481 1993.7182,-154.8481 1993.7182,-159.098 1989.4683,-163.3479 1985.2184,-163.3479"/>
<text text-anchor="middle" x="1924.6614" y="-147.2224" font-family="Arial" font-size="15.00" fill="#cfffac">domain/me/type.ts</text>
</g>
<!-- domain/me/index.ts&#45;&gt;domain/me/type.ts -->
<g id="edge2" class="edge">
<title>domain/me/index.ts&#45;&gt;domain/me/type.ts</title>
<path fill="none" stroke="#757575" d="M1695.6774,-166.5146C1740.9884,-163.3651 1799.1804,-159.3202 1845.562,-156.0963"/>
<polygon fill="#757575" stroke="#757575" points="1845.8381,-159.5856 1855.5713,-155.4006 1845.3526,-152.6025 1845.8381,-159.5856"/>
</g>
<!-- externalInterface/api/http/client/client.ts -->
<g id="node5" class="node">
<title>externalInterface/api/http/client/client.ts</title>
<path fill="none" stroke="#cfffac" d="M1751.8499,-227.3479C1751.8499,-227.3479 1493.236,-227.3479 1493.236,-227.3479 1488.9861,-227.3479 1484.7362,-223.098 1484.7362,-218.8481 1484.7362,-218.8481 1484.7362,-210.3482 1484.7362,-210.3482 1484.7362,-206.0983 1488.9861,-201.8484 1493.236,-201.8484 1493.236,-201.8484 1751.8499,-201.8484 1751.8499,-201.8484 1756.0999,-201.8484 1760.3498,-206.0983 1760.3498,-210.3482 1760.3498,-210.3482 1760.3498,-218.8481 1760.3498,-218.8481 1760.3498,-223.098 1756.0999,-227.3479 1751.8499,-227.3479"/>
<text text-anchor="middle" x="1622.543" y="-211.2224" font-family="Arial" font-size="15.00" fill="#cfffac">externalInterface/api/http/client/client.ts</text>
</g>
<!-- externalInterface/api/http/client/index.ts -->
<g id="node6" class="node">
<title>externalInterface/api/http/client/index.ts</title>
<path fill="none" stroke="#c6c5fe" d="M1398.372,-227.3479C1398.372,-227.3479 1139.0738,-227.3479 1139.0738,-227.3479 1134.8239,-227.3479 1130.5739,-223.098 1130.5739,-218.8481 1130.5739,-218.8481 1130.5739,-210.3482 1130.5739,-210.3482 1130.5739,-206.0983 1134.8239,-201.8484 1139.0738,-201.8484 1139.0738,-201.8484 1398.372,-201.8484 1398.372,-201.8484 1402.6219,-201.8484 1406.8719,-206.0983 1406.8719,-210.3482 1406.8719,-210.3482 1406.8719,-218.8481 1406.8719,-218.8481 1406.8719,-223.098 1402.6219,-227.3479 1398.372,-227.3479"/>
<text text-anchor="middle" x="1268.7229" y="-211.2224" font-family="Arial" font-size="15.00" fill="#c6c5fe">externalInterface/api/http/client/index.ts</text>
</g>
<!-- externalInterface/api/http/client/index.ts&#45;&gt;externalInterface/api/http/client/client.ts -->
<g id="edge3" class="edge">
<title>externalInterface/api/http/client/index.ts&#45;&gt;externalInterface/api/http/client/client.ts</title>
<path fill="none" stroke="#757575" d="M1407.0391,-214.5982C1429.1415,-214.5982 1452.0888,-214.5982 1474.4081,-214.5982"/>
<polygon fill="#757575" stroke="#757575" points="1474.6135,-218.0983 1484.6135,-214.5982 1474.6134,-211.0983 1474.6135,-218.0983"/>
</g>
<!-- externalInterface/api/http/client/util.ts -->
<g id="node7" class="node">
<title>externalInterface/api/http/client/util.ts</title>
<path fill="none" stroke="#cfffac" d="M1390.1878,-184.3479C1390.1878,-184.3479 1147.258,-184.3479 1147.258,-184.3479 1143.0081,-184.3479 1138.7581,-180.098 1138.7581,-175.8481 1138.7581,-175.8481 1138.7581,-167.3482 1138.7581,-167.3482 1138.7581,-163.0983 1143.0081,-158.8484 1147.258,-158.8484 1147.258,-158.8484 1390.1878,-158.8484 1390.1878,-158.8484 1394.4377,-158.8484 1398.6877,-163.0983 1398.6877,-167.3482 1398.6877,-167.3482 1398.6877,-175.8481 1398.6877,-175.8481 1398.6877,-180.098 1394.4377,-184.3479 1390.1878,-184.3479"/>
<text text-anchor="middle" x="1268.7229" y="-168.2224" font-family="Arial" font-size="15.00" fill="#cfffac">externalInterface/api/http/client/util.ts</text>
</g>
<!-- externalInterface/api/http/me.ts -->
<g id="node8" class="node">
<title>externalInterface/api/http/me.ts</title>
<path fill="none" stroke="#c6c5fe" d="M1011.0868,-205.3479C1011.0868,-205.3479 806.2017,-205.3479 806.2017,-205.3479 801.9518,-205.3479 797.7019,-201.098 797.7019,-196.8481 797.7019,-196.8481 797.7019,-188.3482 797.7019,-188.3482 797.7019,-184.0983 801.9518,-179.8484 806.2017,-179.8484 806.2017,-179.8484 1011.0868,-179.8484 1011.0868,-179.8484 1015.3368,-179.8484 1019.5867,-184.0983 1019.5867,-188.3482 1019.5867,-188.3482 1019.5867,-196.8481 1019.5867,-196.8481 1019.5867,-201.098 1015.3368,-205.3479 1011.0868,-205.3479"/>
<text text-anchor="middle" x="908.6443" y="-189.2224" font-family="Arial" font-size="15.00" fill="#c6c5fe">externalInterface/api/http/me.ts</text>
</g>
<!-- externalInterface/api/http/me.ts&#45;&gt;externalInterface/api/http/client/index.ts -->
<g id="edge4" class="edge">
<title>externalInterface/api/http/me.ts&#45;&gt;externalInterface/api/http/client/index.ts</title>
<path fill="none" stroke="#757575" d="M1019.6179,-199.3784C1051.3597,-201.3178 1086.4775,-203.4634 1120.0884,-205.5169"/>
<polygon fill="#757575" stroke="#757575" points="1120.2707,-209.0345 1130.4655,-206.1509 1120.6976,-202.0475 1120.2707,-209.0345"/>
</g>
<!-- externalInterface/api/http/me.ts&#45;&gt;externalInterface/api/http/client/util.ts -->
<g id="edge5" class="edge">
<title>externalInterface/api/http/me.ts&#45;&gt;externalInterface/api/http/client/util.ts</title>
<path fill="none" stroke="#757575" d="M1019.6179,-186.1261C1054.0888,-184.1157 1092.5411,-181.8732 1128.7212,-179.7631"/>
<polygon fill="#757575" stroke="#757575" points="1129.0812,-183.2482 1138.8604,-179.1718 1128.6736,-176.2601 1129.0812,-183.2482"/>
</g>
<!-- gateway/me/index.ts -->
<g id="node9" class="node">
<title>gateway/me/index.ts</title>
<path fill="none" stroke="#c6c5fe" d="M234.1517,-205.3479C234.1517,-205.3479 98.6793,-205.3479 98.6793,-205.3479 94.4294,-205.3479 90.1795,-201.098 90.1795,-196.8481 90.1795,-196.8481 90.1795,-188.3482 90.1795,-188.3482 90.1795,-184.0983 94.4294,-179.8484 98.6793,-179.8484 98.6793,-179.8484 234.1517,-179.8484 234.1517,-179.8484 238.4017,-179.8484 242.6516,-184.0983 242.6516,-188.3482 242.6516,-188.3482 242.6516,-196.8481 242.6516,-196.8481 242.6516,-201.098 238.4017,-205.3479 234.1517,-205.3479"/>
<text text-anchor="middle" x="166.4155" y="-189.2224" font-family="Arial" font-size="15.00" fill="#c6c5fe">gateway/me/index.ts</text>
</g>
<!-- gateway/me/me.ts -->
<g id="node10" class="node">
<title>gateway/me/me.ts</title>
<path fill="none" stroke="#c6c5fe" d="M587.9499,-205.3479C587.9499,-205.3479 467.5213,-205.3479 467.5213,-205.3479 463.2714,-205.3479 459.0214,-201.098 459.0214,-196.8481 459.0214,-196.8481 459.0214,-188.3482 459.0214,-188.3482 459.0214,-184.0983 463.2714,-179.8484 467.5213,-179.8484 467.5213,-179.8484 587.9499,-179.8484 587.9499,-179.8484 592.1998,-179.8484 596.4498,-184.0983 596.4498,-188.3482 596.4498,-188.3482 596.4498,-196.8481 596.4498,-196.8481 596.4498,-201.098 592.1998,-205.3479 587.9499,-205.3479"/>
<text text-anchor="middle" x="527.7356" y="-189.2224" font-family="Arial" font-size="15.00" fill="#c6c5fe">gateway/me/me.ts</text>
</g>
<!-- gateway/me/index.ts&#45;&gt;gateway/me/me.ts -->
<g id="edge6" class="edge">
<title>gateway/me/index.ts&#45;&gt;gateway/me/me.ts</title>
<path fill="none" stroke="#757575" d="M243.0422,-192.5982C303.454,-192.5982 387.4093,-192.5982 448.4885,-192.5982"/>
<polygon fill="#757575" stroke="#757575" points="448.8504,-196.0983 458.8503,-192.5982 448.8503,-189.0983 448.8504,-196.0983"/>
</g>
<!-- gateway/me/me.ts&#45;&gt;externalInterface/api/http/me.ts -->
<g id="edge7" class="edge">
<title>gateway/me/me.ts&#45;&gt;externalInterface/api/http/me.ts</title>
<path fill="none" stroke="#757575" d="M596.7153,-192.5982C649.8294,-192.5982 724.5767,-192.5982 787.5853,-192.5982"/>
<polygon fill="#757575" stroke="#757575" points="787.5919,-196.0983 797.5919,-192.5982 787.5919,-189.0983 787.5919,-196.0983"/>
</g>
<!-- presenter/components/ecosystem/Me/Content.tsx -->
<g id="node11" class="node">
<title>presenter/components/ecosystem/Me/Content.tsx</title>
<path fill="none" stroke="#c6c5fe" d="M1787.197,-141.3479C1787.197,-141.3479 1457.889,-141.3479 1457.889,-141.3479 1453.639,-141.3479 1449.3891,-137.098 1449.3891,-132.8481 1449.3891,-132.8481 1449.3891,-124.3482 1449.3891,-124.3482 1449.3891,-120.0983 1453.639,-115.8484 1457.889,-115.8484 1457.889,-115.8484 1787.197,-115.8484 1787.197,-115.8484 1791.4469,-115.8484 1795.6968,-120.0983 1795.6968,-124.3482 1795.6968,-124.3482 1795.6968,-132.8481 1795.6968,-132.8481 1795.6968,-137.098 1791.4469,-141.3479 1787.197,-141.3479"/>
<text text-anchor="middle" x="1622.543" y="-125.2224" font-family="Arial" font-size="15.00" fill="#c6c5fe">presenter/components/ecosystem/Me/Content.tsx</text>
</g>
<!-- useCase/useMe/type.ts -->
<g id="node12" class="node">
<title>useCase/useMe/type.ts</title>
<path fill="none" stroke="#cfffac" d="M2002.4073,-100.3479C2002.4073,-100.3479 1846.9154,-100.3479 1846.9154,-100.3479 1842.6655,-100.3479 1838.4156,-96.098 1838.4156,-91.8481 1838.4156,-91.8481 1838.4156,-83.3482 1838.4156,-83.3482 1838.4156,-79.0983 1842.6655,-74.8484 1846.9154,-74.8484 1846.9154,-74.8484 2002.4073,-74.8484 2002.4073,-74.8484 2006.6572,-74.8484 2010.9072,-79.0983 2010.9072,-83.3482 2010.9072,-83.3482 2010.9072,-91.8481 2010.9072,-91.8481 2010.9072,-96.098 2006.6572,-100.3479 2002.4073,-100.3479"/>
<text text-anchor="middle" x="1924.6614" y="-84.2224" font-family="Arial" font-size="15.00" fill="#cfffac">useCase/useMe/type.ts</text>
</g>
<!-- presenter/components/ecosystem/Me/Content.tsx&#45;&gt;useCase/useMe/type.ts -->
<g id="edge8" class="edge">
<title>presenter/components/ecosystem/Me/Content.tsx&#45;&gt;useCase/useMe/type.ts</title>
<path fill="none" stroke="#757575" d="M1715.6536,-115.9623C1751.3905,-111.1125 1792.2275,-105.5705 1828.2664,-100.6798"/>
<polygon fill="#757575" stroke="#757575" points="1828.8572,-104.1318 1838.2957,-99.3187 1827.9158,-97.1953 1828.8572,-104.1318"/>
</g>
<!-- presenter/components/ecosystem/Me/Exception.tsx -->
<g id="node13" class="node">
<title>presenter/components/ecosystem/Me/Exception.tsx</title>
<path fill="none" stroke="#cfffac" d="M1794.0347,-59.3479C1794.0347,-59.3479 1451.0513,-59.3479 1451.0513,-59.3479 1446.8013,-59.3479 1442.5514,-55.098 1442.5514,-50.8481 1442.5514,-50.8481 1442.5514,-42.3482 1442.5514,-42.3482 1442.5514,-38.0983 1446.8013,-33.8484 1451.0513,-33.8484 1451.0513,-33.8484 1794.0347,-33.8484 1794.0347,-33.8484 1798.2846,-33.8484 1802.5345,-38.0983 1802.5345,-42.3482 1802.5345,-42.3482 1802.5345,-50.8481 1802.5345,-50.8481 1802.5345,-55.098 1798.2846,-59.3479 1794.0347,-59.3479"/>
<text text-anchor="middle" x="1622.543" y="-43.2224" font-family="Arial" font-size="15.00" fill="#cfffac">presenter/components/ecosystem/Me/Exception.tsx</text>
</g>
<!-- presenter/components/ecosystem/Me/Me.tsx -->
<g id="node14" class="node">
<title>presenter/components/ecosystem/Me/Me.tsx</title>
<path fill="none" stroke="#c6c5fe" d="M676.6907,-248.3479C676.6907,-248.3479 378.7805,-248.3479 378.7805,-248.3479 374.5306,-248.3479 370.2807,-244.098 370.2807,-239.8481 370.2807,-239.8481 370.2807,-231.3482 370.2807,-231.3482 370.2807,-227.0983 374.5306,-222.8484 378.7805,-222.8484 378.7805,-222.8484 676.6907,-222.8484 676.6907,-222.8484 680.9406,-222.8484 685.1905,-227.0983 685.1905,-231.3482 685.1905,-231.3482 685.1905,-239.8481 685.1905,-239.8481 685.1905,-244.098 680.9406,-248.3479 676.6907,-248.3479"/>
<text text-anchor="middle" x="527.7356" y="-232.2224" font-family="Arial" font-size="15.00" fill="#c6c5fe">presenter/components/ecosystem/Me/Me.tsx</text>
</g>
<!-- presenter/components/ecosystem/Me/Placeholder.tsx -->
<g id="node15" class="node">
<title>presenter/components/ecosystem/Me/Placeholder.tsx</title>
<path fill="none" stroke="#cfffac" d="M1086.1527,-248.3479C1086.1527,-248.3479 731.1358,-248.3479 731.1358,-248.3479 726.8859,-248.3479 722.636,-244.098 722.636,-239.8481 722.636,-239.8481 722.636,-231.3482 722.636,-231.3482 722.636,-227.0983 726.8859,-222.8484 731.1358,-222.8484 731.1358,-222.8484 1086.1527,-222.8484 1086.1527,-222.8484 1090.4027,-222.8484 1094.6526,-227.0983 1094.6526,-231.3482 1094.6526,-231.3482 1094.6526,-239.8481 1094.6526,-239.8481 1094.6526,-244.098 1090.4027,-248.3479 1086.1527,-248.3479"/>
<text text-anchor="middle" x="908.6443" y="-232.2224" font-family="Arial" font-size="15.00" fill="#cfffac">presenter/components/ecosystem/Me/Placeholder.tsx</text>
</g>
<!-- presenter/components/ecosystem/Me/Me.tsx&#45;&gt;presenter/components/ecosystem/Me/Placeholder.tsx -->
<g id="edge9" class="edge">
<title>presenter/components/ecosystem/Me/Me.tsx&#45;&gt;presenter/components/ecosystem/Me/Placeholder.tsx</title>
<path fill="none" stroke="#757575" d="M685.1401,-235.5982C694.0681,-235.5982 703.0961,-235.5982 712.1423,-235.5982"/>
<polygon fill="#757575" stroke="#757575" points="712.3592,-239.0983 722.3592,-235.5982 712.3591,-232.0983 712.3592,-239.0983"/>
</g>
<!-- presenter/components/ecosystem/Me/index.ts -->
<g id="node16" class="node">
<title>presenter/components/ecosystem/Me/index.ts</title>
<path fill="none" stroke="#c6c5fe" d="M318.8922,-248.3479C318.8922,-248.3479 13.9388,-248.3479 13.9388,-248.3479 9.6889,-248.3479 5.439,-244.098 5.439,-239.8481 5.439,-239.8481 5.439,-231.3482 5.439,-231.3482 5.439,-227.0983 9.6889,-222.8484 13.9388,-222.8484 13.9388,-222.8484 318.8922,-222.8484 318.8922,-222.8484 323.1422,-222.8484 327.3921,-227.0983 327.3921,-231.3482 327.3921,-231.3482 327.3921,-239.8481 327.3921,-239.8481 327.3921,-244.098 323.1422,-248.3479 318.8922,-248.3479"/>
<text text-anchor="middle" x="166.4155" y="-232.2224" font-family="Arial" font-size="15.00" fill="#c6c5fe">presenter/components/ecosystem/Me/index.ts</text>
</g>
<!-- presenter/components/ecosystem/Me/index.ts&#45;&gt;presenter/components/ecosystem/Me/Me.tsx -->
<g id="edge10" class="edge">
<title>presenter/components/ecosystem/Me/index.ts&#45;&gt;presenter/components/ecosystem/Me/Me.tsx</title>
<path fill="none" stroke="#757575" d="M327.5264,-235.5982C338.2935,-235.5982 349.1543,-235.5982 359.9535,-235.5982"/>
<polygon fill="#757575" stroke="#757575" points="360.2834,-239.0983 370.2834,-235.5982 360.2833,-232.0983 360.2834,-239.0983"/>
</g>
<!-- presenter/components/environment/Me/Me.ts -->
<g id="node17" class="node">
<title>presenter/components/environment/Me/Me.ts</title>
<path fill="none" stroke="#c6c5fe" d="M678.0449,-79.3479C678.0449,-79.3479 377.4263,-79.3479 377.4263,-79.3479 373.1764,-79.3479 368.9265,-75.098 368.9265,-70.8481 368.9265,-70.8481 368.9265,-62.3482 368.9265,-62.3482 368.9265,-58.0983 373.1764,-53.8484 377.4263,-53.8484 377.4263,-53.8484 678.0449,-53.8484 678.0449,-53.8484 682.2948,-53.8484 686.5447,-58.0983 686.5447,-62.3482 686.5447,-62.3482 686.5447,-70.8481 686.5447,-70.8481 686.5447,-75.098 682.2948,-79.3479 678.0449,-79.3479"/>
<text text-anchor="middle" x="527.7356" y="-63.2224" font-family="Arial" font-size="15.00" fill="#c6c5fe">presenter/components/environment/Me/Me.ts</text>
</g>
<!-- useCase/useMe/index.ts -->
<g id="node18" class="node">
<title>useCase/useMe/index.ts</title>
<path fill="none" stroke="#c6c5fe" d="M990.3975,-79.3479C990.3975,-79.3479 826.891,-79.3479 826.891,-79.3479 822.6411,-79.3479 818.3912,-75.098 818.3912,-70.8481 818.3912,-70.8481 818.3912,-62.3482 818.3912,-62.3482 818.3912,-58.0983 822.6411,-53.8484 826.891,-53.8484 826.891,-53.8484 990.3975,-53.8484 990.3975,-53.8484 994.6475,-53.8484 998.8974,-58.0983 998.8974,-62.3482 998.8974,-62.3482 998.8974,-70.8481 998.8974,-70.8481 998.8974,-75.098 994.6475,-79.3479 990.3975,-79.3479"/>
<text text-anchor="middle" x="908.6443" y="-63.2224" font-family="Arial" font-size="15.00" fill="#c6c5fe">useCase/useMe/index.ts</text>
</g>
<!-- presenter/components/environment/Me/Me.ts&#45;&gt;useCase/useMe/index.ts -->
<g id="edge11" class="edge">
<title>presenter/components/environment/Me/Me.ts&#45;&gt;useCase/useMe/index.ts</title>
<path fill="none" stroke="#757575" d="M686.7925,-66.5982C727.8156,-66.5982 770.8374,-66.5982 807.9594,-66.5982"/>
<polygon fill="#757575" stroke="#757575" points="808.2668,-70.0983 818.2667,-66.5982 808.2667,-63.0983 808.2668,-70.0983"/>
</g>
<!-- useCase/useMe/interactor.tsx -->
<g id="node21" class="node">
<title>useCase/useMe/interactor.tsx</title>
<path fill="none" stroke="#c6c5fe" d="M1366.8162,-100.3479C1366.8162,-100.3479 1170.6296,-100.3479 1170.6296,-100.3479 1166.3797,-100.3479 1162.1297,-96.098 1162.1297,-91.8481 1162.1297,-91.8481 1162.1297,-83.3482 1162.1297,-83.3482 1162.1297,-79.0983 1166.3797,-74.8484 1170.6296,-74.8484 1170.6296,-74.8484 1366.8162,-74.8484 1366.8162,-74.8484 1371.0661,-74.8484 1375.3161,-79.0983 1375.3161,-83.3482 1375.3161,-83.3482 1375.3161,-91.8481 1375.3161,-91.8481 1375.3161,-96.098 1371.0661,-100.3479 1366.8162,-100.3479"/>
<text text-anchor="middle" x="1268.7229" y="-84.2224" font-family="Arial" font-size="15.00" fill="#c6c5fe">useCase/useMe/interactor.tsx</text>
</g>
<!-- useCase/useMe/index.ts&#45;&gt;useCase/useMe/interactor.tsx -->
<g id="edge13" class="edge">
<title>useCase/useMe/index.ts&#45;&gt;useCase/useMe/interactor.tsx</title>
<path fill="none" stroke="#757575" d="M999.0425,-71.8702C1045.3307,-74.5698 1102.2323,-77.8883 1151.8182,-80.7802"/>
<polygon fill="#757575" stroke="#757575" points="1151.7697,-84.2832 1161.9566,-81.3715 1152.1773,-77.2951 1151.7697,-84.2832"/>
</g>
<!-- useCase/useMe/useMe.ts -->
<g id="node22" class="node">
<title>useCase/useMe/useMe.ts</title>
<path fill="none" stroke="#c6c5fe" d="M1355.139,-38.3479C1355.139,-38.3479 1182.3068,-38.3479 1182.3068,-38.3479 1178.0568,-38.3479 1173.8069,-34.098 1173.8069,-29.8481 1173.8069,-29.8481 1173.8069,-21.3482 1173.8069,-21.3482 1173.8069,-17.0983 1178.0568,-12.8484 1182.3068,-12.8484 1182.3068,-12.8484 1355.139,-12.8484 1355.139,-12.8484 1359.389,-12.8484 1363.6389,-17.0983 1363.6389,-21.3482 1363.6389,-21.3482 1363.6389,-29.8481 1363.6389,-29.8481 1363.6389,-34.098 1359.389,-38.3479 1355.139,-38.3479"/>
<text text-anchor="middle" x="1268.7229" y="-22.2224" font-family="Arial" font-size="15.00" fill="#c6c5fe">useCase/useMe/useMe.ts</text>
</g>
<!-- useCase/useMe/index.ts&#45;&gt;useCase/useMe/useMe.ts -->
<g id="edge14" class="edge">
<title>useCase/useMe/index.ts&#45;&gt;useCase/useMe/useMe.ts</title>
<path fill="none" stroke="#757575" d="M999.0425,-56.305C1049.1446,-50.6002 1111.6813,-43.4796 1163.9161,-37.5319"/>
<polygon fill="#757575" stroke="#757575" points="1164.3413,-41.0062 1173.8811,-36.3972 1163.5493,-34.0511 1164.3413,-41.0062"/>
</g>
<!-- presenter/components/environment/Me/index.ts -->
<g id="node19" class="node">
<title>presenter/components/environment/Me/index.ts</title>
<path fill="none" stroke="#c6c5fe" d="M324.2468,-79.3479C324.2468,-79.3479 8.5843,-79.3479 8.5843,-79.3479 4.3344,-79.3479 .0844,-75.098 .0844,-70.8481 .0844,-70.8481 .0844,-62.3482 .0844,-62.3482 .0844,-58.0983 4.3344,-53.8484 8.5843,-53.8484 8.5843,-53.8484 324.2468,-53.8484 324.2468,-53.8484 328.4967,-53.8484 332.7466,-58.0983 332.7466,-62.3482 332.7466,-62.3482 332.7466,-70.8481 332.7466,-70.8481 332.7466,-75.098 328.4967,-79.3479 324.2468,-79.3479"/>
<text text-anchor="middle" x="166.4155" y="-63.2224" font-family="Arial" font-size="15.00" fill="#c6c5fe">presenter/components/environment/Me/index.ts</text>
</g>
<!-- presenter/components/environment/Me/index.ts&#45;&gt;presenter/components/environment/Me/Me.ts -->
<g id="edge12" class="edge">
<title>presenter/components/environment/Me/index.ts&#45;&gt;presenter/components/environment/Me/Me.ts</title>
<path fill="none" stroke="#757575" d="M332.7983,-66.5982C341.3847,-66.5982 350.0143,-66.5982 358.609,-66.5982"/>
<polygon fill="#757575" stroke="#757575" points="358.6777,-70.0983 368.6777,-66.5982 358.6776,-63.0983 358.6777,-70.0983"/>
</g>
<!-- presenter/containers/ErrorBoundary.tsx -->
<g id="node20" class="node">
<title>presenter/containers/ErrorBoundary.tsx</title>
<path fill="none" stroke="#cfffac" d="M296.0921,-291.3479C296.0921,-291.3479 36.7389,-291.3479 36.7389,-291.3479 32.489,-291.3479 28.2391,-287.098 28.2391,-282.8481 28.2391,-282.8481 28.2391,-274.3482 28.2391,-274.3482 28.2391,-270.0983 32.489,-265.8484 36.7389,-265.8484 36.7389,-265.8484 296.0921,-265.8484 296.0921,-265.8484 300.3421,-265.8484 304.592,-270.0983 304.592,-274.3482 304.592,-274.3482 304.592,-282.8481 304.592,-282.8481 304.592,-287.098 300.3421,-291.3479 296.0921,-291.3479"/>
<text text-anchor="middle" x="166.4155" y="-275.2224" font-family="Arial" font-size="15.00" fill="#cfffac">presenter/containers/ErrorBoundary.tsx</text>
</g>
<!-- useCase/useMe/interactor.tsx&#45;&gt;domain/me/index.ts -->
<g id="edge15" class="edge">
<title>useCase/useMe/interactor.tsx&#45;&gt;domain/me/index.ts</title>
<path fill="none" stroke="#757575" d="M1297.3574,-100.287C1331.3526,-114.8008 1390.0903,-138.1583 1442.7974,-150.5982 1473.8412,-157.9251 1508.5315,-162.7433 1539.0939,-165.8904"/>
<polygon fill="#757575" stroke="#757575" points="1538.994,-169.3974 1549.289,-166.8948 1539.6804,-162.4311 1538.994,-169.3974"/>
</g>
<!-- useCase/useMe/interactor.tsx&#45;&gt;presenter/components/ecosystem/Me/Content.tsx -->
<g id="edge16" class="edge">
<title>useCase/useMe/interactor.tsx&#45;&gt;presenter/components/ecosystem/Me/Content.tsx</title>
<path fill="none" stroke="#757575" d="M1375.3604,-99.9551C1415.6815,-104.6274 1461.818,-109.9737 1503.2286,-114.7722"/>
<polygon fill="#757575" stroke="#757575" points="1503.0331,-118.2729 1513.3695,-115.9473 1503.8389,-111.3194 1503.0331,-118.2729"/>
</g>
<!-- useCase/useMe/interactor.tsx&#45;&gt;useCase/useMe/type.ts -->
<g id="edge18" class="edge">
<title>useCase/useMe/interactor.tsx&#45;&gt;useCase/useMe/type.ts</title>
<path fill="none" stroke="#757575" d="M1375.5706,-87.5982C1500.9705,-87.5982 1707.0993,-87.5982 1827.946,-87.5982"/>
<polygon fill="#757575" stroke="#757575" points="1828.2911,-91.0983 1838.2911,-87.5982 1828.2911,-84.0983 1828.2911,-91.0983"/>
</g>
<!-- useCase/useMe/interactor.tsx&#45;&gt;presenter/components/ecosystem/Me/Exception.tsx -->
<g id="edge17" class="edge">
<title>useCase/useMe/interactor.tsx&#45;&gt;presenter/components/ecosystem/Me/Exception.tsx</title>
<path fill="none" stroke="#757575" d="M1375.3604,-75.2412C1415.6815,-70.5689 1461.818,-65.2227 1503.2286,-60.4241"/>
<polygon fill="#757575" stroke="#757575" points="1503.8389,-63.8769 1513.3695,-59.249 1503.0331,-56.9234 1503.8389,-63.8769"/>
</g>
<!-- useCase/useMe/useMe.ts&#45;&gt;useCase/useMe/type.ts -->
<g id="edge19" class="edge">
<title>useCase/useMe/useMe.ts&#45;&gt;useCase/useMe/type.ts</title>
<path fill="none" stroke="#757575" d="M1355.6823,-12.948C1462.5347,-.2361 1648.5656,12.6486 1802.2886,-24.5982 1837.7079,-33.1802 1874.3585,-53.8974 1898.2017,-69.2443"/>
<polygon fill="#757575" stroke="#757575" points="1896.4061,-72.2525 1906.6835,-74.8267 1900.2546,-66.4053 1896.4061,-72.2525"/>
</g>
</g>
</svg>
