<?xml version="1.0" encoding="UTF-8" standalone="no"?>
<!DOCTYPE svg PUBLIC "-//W3C//DTD SVG 1.1//EN"
 "http://www.w3.org/Graphics/SVG/1.1/DTD/svg11.dtd">
<!-- Generated by graphviz version 2.40.1 (20161225.0304)
 -->
<!-- Title: G Pages: 1 -->
<svg width="2178pt" height="451pt"
 viewBox="0.00 0.00 2178.47 451.45" xmlns="http://www.w3.org/2000/svg" xmlns:xlink="http://www.w3.org/1999/xlink">
<g id="graph0" class="graph" transform="scale(1 1) rotate(0) translate(21.6 429.8485)">
<title>G</title>
<polygon fill="#111111" stroke="transparent" points="-21.6,21.6 -21.6,-429.8485 2156.8676,-429.8485 2156.8676,21.6 -21.6,21.6"/>
<!-- app.d.ts -->
<g id="node1" class="node">
<title>app.d.ts</title>
<path fill="none" stroke="#cfffac" d="M239.0554,-25.374C239.0554,-25.374 186.3099,-25.374 186.3099,-25.374 182.06,-25.374 177.81,-21.1241 177.81,-16.8742 177.81,-16.8742 177.81,-8.3743 177.81,-8.3743 177.81,-4.1244 182.06,.1255 186.3099,.1255 186.3099,.1255 239.0554,.1255 239.0554,.1255 243.3053,.1255 247.5552,-4.1244 247.5552,-8.3743 247.5552,-8.3743 247.5552,-16.8742 247.5552,-16.8742 247.5552,-21.1241 243.3053,-25.374 239.0554,-25.374"/>
<text text-anchor="middle" x="212.6826" y="-9.2485" font-family="Arial" font-size="15.00" fill="#cfffac">app.d.ts</text>
</g>
<!-- domain/me/index.ts -->
<g id="node2" class="node">
<title>domain/me/index.ts</title>
<path fill="none" stroke="#c6c5fe" d="M705.6745,-236.374C705.6745,-236.374 576.5472,-236.374 576.5472,-236.374 572.2973,-236.374 568.0473,-232.1241 568.0473,-227.8742 568.0473,-227.8742 568.0473,-219.3743 568.0473,-219.3743 568.0473,-215.1244 572.2973,-210.8745 576.5472,-210.8745 576.5472,-210.8745 705.6745,-210.8745 705.6745,-210.8745 709.9244,-210.8745 714.1743,-215.1244 714.1743,-219.3743 714.1743,-219.3743 714.1743,-227.8742 714.1743,-227.8742 714.1743,-232.1241 709.9244,-236.374 705.6745,-236.374"/>
<text text-anchor="middle" x="641.1108" y="-220.2485" font-family="Arial" font-size="15.00" fill="#c6c5fe">domain/me/index.ts</text>
</g>
<!-- domain/me/me.ts -->
<g id="node3" class="node">
<title>domain/me/me.ts</title>
<path fill="none" stroke="#cfffac" d="M1099.9023,-236.374C1099.9023,-236.374 985.8189,-236.374 985.8189,-236.374 981.569,-236.374 977.3191,-232.1241 977.3191,-227.8742 977.3191,-227.8742 977.3191,-219.3743 977.3191,-219.3743 977.3191,-215.1244 981.569,-210.8745 985.8189,-210.8745 985.8189,-210.8745 1099.9023,-210.8745 1099.9023,-210.8745 1104.1522,-210.8745 1108.4021,-215.1244 1108.4021,-219.3743 1108.4021,-219.3743 1108.4021,-227.8742 1108.4021,-227.8742 1108.4021,-232.1241 1104.1522,-236.374 1099.9023,-236.374"/>
<text text-anchor="middle" x="1042.8606" y="-220.2485" font-family="Arial" font-size="15.00" fill="#cfffac">domain/me/me.ts</text>
</g>
<!-- domain/me/index.ts&#45;&gt;domain/me/me.ts -->
<g id="edge1" class="edge">
<title>domain/me/index.ts&#45;&gt;domain/me/me.ts</title>
<path fill="none" stroke="#757575" d="M714.3308,-223.6243C785.8407,-223.6243 894.2042,-223.6243 966.703,-223.6243"/>
<polygon fill="#757575" stroke="#757575" points="967.1307,-227.1244 977.1306,-223.6243 967.1306,-220.1244 967.1307,-227.1244"/>
</g>
<!-- domain/me/type.ts -->
<g id="node4" class="node">
<title>domain/me/type.ts</title>
<path fill="none" stroke="#cfffac" d="M1103.4176,-193.374C1103.4176,-193.374 982.3036,-193.374 982.3036,-193.374 978.0537,-193.374 973.8037,-189.1241 973.8037,-184.8742 973.8037,-184.8742 973.8037,-176.3743 973.8037,-176.3743 973.8037,-172.1244 978.0537,-167.8745 982.3036,-167.8745 982.3036,-167.8745 1103.4176,-167.8745 1103.4176,-167.8745 1107.6675,-167.8745 1111.9175,-172.1244 1111.9175,-176.3743 1111.9175,-176.3743 1111.9175,-184.8742 1111.9175,-184.8742 1111.9175,-189.1241 1107.6675,-193.374 1103.4176,-193.374"/>
<text text-anchor="middle" x="1042.8606" y="-177.2485" font-family="Arial" font-size="15.00" fill="#cfffac">domain/me/type.ts</text>
</g>
<!-- domain/me/index.ts&#45;&gt;domain/me/type.ts -->
<g id="edge2" class="edge">
<title>domain/me/index.ts&#45;&gt;domain/me/type.ts</title>
<path fill="none" stroke="#757575" d="M714.3308,-215.7874C784.7983,-208.2451 891.053,-196.8725 963.5101,-189.1173"/>
<polygon fill="#757575" stroke="#757575" points="963.9319,-192.5922 973.5026,-188.0478 963.1868,-185.632 963.9319,-192.5922"/>
</g>
<!-- externalInterface/api/http/client/client.ts -->
<g id="node5" class="node">
<title>externalInterface/api/http/client/client.ts</title>
<path fill="none" stroke="#cfffac" d="M2126.9212,-301.374C2126.9212,-301.374 1868.3073,-301.374 1868.3073,-301.374 1864.0574,-301.374 1859.8074,-297.1241 1859.8074,-292.8742 1859.8074,-292.8742 1859.8074,-284.3743 1859.8074,-284.3743 1859.8074,-280.1244 1864.0574,-275.8745 1868.3073,-275.8745 1868.3073,-275.8745 2126.9212,-275.8745 2126.9212,-275.8745 2131.1711,-275.8745 2135.4211,-280.1244 2135.4211,-284.3743 2135.4211,-284.3743 2135.4211,-292.8742 2135.4211,-292.8742 2135.4211,-297.1241 2131.1711,-301.374 2126.9212,-301.374"/>
<text text-anchor="middle" x="1997.6143" y="-285.2485" font-family="Arial" font-size="15.00" fill="#cfffac">externalInterface/api/http/client/client.ts</text>
</g>
<!-- externalInterface/api/http/client/index.ts -->
<g id="node6" class="node">
<title>externalInterface/api/http/client/index.ts</title>
<path fill="none" stroke="#c6c5fe" d="M1815.5356,-301.374C1815.5356,-301.374 1556.2374,-301.374 1556.2374,-301.374 1551.9874,-301.374 1547.7375,-297.1241 1547.7375,-292.8742 1547.7375,-292.8742 1547.7375,-284.3743 1547.7375,-284.3743 1547.7375,-280.1244 1551.9874,-275.8745 1556.2374,-275.8745 1556.2374,-275.8745 1815.5356,-275.8745 1815.5356,-275.8745 1819.7855,-275.8745 1824.0354,-280.1244 1824.0354,-284.3743 1824.0354,-284.3743 1824.0354,-292.8742 1824.0354,-292.8742 1824.0354,-297.1241 1819.7855,-301.374 1815.5356,-301.374"/>
<text text-anchor="middle" x="1685.8865" y="-285.2485" font-family="Arial" font-size="15.00" fill="#c6c5fe">externalInterface/api/http/client/index.ts</text>
</g>
<!-- externalInterface/api/http/client/index.ts&#45;&gt;externalInterface/api/http/client/client.ts -->
<g id="edge3" class="edge">
<title>externalInterface/api/http/client/index.ts&#45;&gt;externalInterface/api/http/client/client.ts</title>
<path fill="none" stroke="#757575" d="M1823.9761,-288.6243C1832.5209,-288.6243 1841.1379,-288.6243 1849.7225,-288.6243"/>
<polygon fill="#757575" stroke="#757575" points="1849.7791,-292.1244 1859.779,-288.6243 1849.779,-285.1244 1849.7791,-292.1244"/>
</g>
<!-- externalInterface/api/http/client/util.ts -->
<g id="node7" class="node">
<title>externalInterface/api/http/client/util.ts</title>
<path fill="none" stroke="#cfffac" d="M1807.3514,-258.374C1807.3514,-258.374 1564.4215,-258.374 1564.4215,-258.374 1560.1716,-258.374 1555.9217,-254.1241 1555.9217,-249.8742 1555.9217,-249.8742 1555.9217,-241.3743 1555.9217,-241.3743 1555.9217,-237.1244 1560.1716,-232.8745 1564.4215,-232.8745 1564.4215,-232.8745 1807.3514,-232.8745 1807.3514,-232.8745 1811.6013,-232.8745 1815.8512,-237.1244 1815.8512,-241.3743 1815.8512,-241.3743 1815.8512,-249.8742 1815.8512,-249.8742 1815.8512,-254.1241 1811.6013,-258.374 1807.3514,-258.374"/>
<text text-anchor="middle" x="1685.8865" y="-242.2485" font-family="Arial" font-size="15.00" fill="#cfffac">externalInterface/api/http/client/util.ts</text>
</g>
<!-- externalInterface/api/http/me/index.ts -->
<g id="node8" class="node">
<title>externalInterface/api/http/me/index.ts</title>
<path fill="none" stroke="#c6c5fe" d="M1165.33,-279.374C1165.33,-279.374 920.3912,-279.374 920.3912,-279.374 916.1413,-279.374 911.8914,-275.1241 911.8914,-270.8742 911.8914,-270.8742 911.8914,-262.3743 911.8914,-262.3743 911.8914,-258.1244 916.1413,-253.8745 920.3912,-253.8745 920.3912,-253.8745 1165.33,-253.8745 1165.33,-253.8745 1169.5799,-253.8745 1173.8298,-258.1244 1173.8298,-262.3743 1173.8298,-262.3743 1173.8298,-270.8742 1173.8298,-270.8742 1173.8298,-275.1241 1169.5799,-279.374 1165.33,-279.374"/>
<text text-anchor="middle" x="1042.8606" y="-263.2485" font-family="Arial" font-size="15.00" fill="#c6c5fe">externalInterface/api/http/me/index.ts</text>
</g>
<!-- externalInterface/api/http/me/me.ts -->
<g id="node9" class="node">
<title>externalInterface/api/http/me/me.ts</title>
<path fill="none" stroke="#c6c5fe" d="M1503.2858,-279.374C1503.2858,-279.374 1273.391,-279.374 1273.391,-279.374 1269.141,-279.374 1264.8911,-275.1241 1264.8911,-270.8742 1264.8911,-270.8742 1264.8911,-262.3743 1264.8911,-262.3743 1264.8911,-258.1244 1269.141,-253.8745 1273.391,-253.8745 1273.391,-253.8745 1503.2858,-253.8745 1503.2858,-253.8745 1507.5357,-253.8745 1511.7857,-258.1244 1511.7857,-262.3743 1511.7857,-262.3743 1511.7857,-270.8742 1511.7857,-270.8742 1511.7857,-275.1241 1507.5357,-279.374 1503.2858,-279.374"/>
<text text-anchor="middle" x="1388.3384" y="-263.2485" font-family="Arial" font-size="15.00" fill="#c6c5fe">externalInterface/api/http/me/me.ts</text>
</g>
<!-- externalInterface/api/http/me/index.ts&#45;&gt;externalInterface/api/http/me/me.ts -->
<g id="edge4" class="edge">
<title>externalInterface/api/http/me/index.ts&#45;&gt;externalInterface/api/http/me/me.ts</title>
<path fill="none" stroke="#757575" d="M1173.9635,-266.6243C1200.3683,-266.6243 1228.1532,-266.6243 1254.6452,-266.6243"/>
<polygon fill="#757575" stroke="#757575" points="1254.7297,-270.1244 1264.7297,-266.6243 1254.7297,-263.1244 1254.7297,-270.1244"/>
</g>
<!-- externalInterface/api/http/me/me.ts&#45;&gt;externalInterface/api/http/client/index.ts -->
<g id="edge5" class="edge">
<title>externalInterface/api/http/me/me.ts&#45;&gt;externalInterface/api/http/client/index.ts</title>
<path fill="none" stroke="#757575" d="M1511.9406,-275.7631C1520.433,-276.391 1529.0382,-277.0273 1537.641,-277.6633"/>
<polygon fill="#757575" stroke="#757575" points="1537.501,-281.1625 1547.7319,-278.4094 1538.0173,-274.1815 1537.501,-281.1625"/>
</g>
<!-- externalInterface/api/http/me/me.ts&#45;&gt;externalInterface/api/http/client/util.ts -->
<g id="edge6" class="edge">
<title>externalInterface/api/http/me/me.ts&#45;&gt;externalInterface/api/http/client/util.ts</title>
<path fill="none" stroke="#757575" d="M1511.9406,-257.9008C1523.0651,-257.1157 1534.383,-256.3169 1545.6356,-255.5227"/>
<polygon fill="#757575" stroke="#757575" points="1546.2152,-258.9906 1555.944,-254.7952 1545.7223,-252.008 1546.2152,-258.9906"/>
</g>
<!-- externalInterface/api/http/me/type.ts -->
<g id="node10" class="node">
<title>externalInterface/api/http/me/type.ts</title>
<path fill="none" stroke="#cfffac" d="M331.6451,-322.374C331.6451,-322.374 93.7201,-322.374 93.7201,-322.374 89.4702,-322.374 85.2203,-318.1241 85.2203,-313.8742 85.2203,-313.8742 85.2203,-305.3743 85.2203,-305.3743 85.2203,-301.1244 89.4702,-296.8745 93.7201,-296.8745 93.7201,-296.8745 331.6451,-296.8745 331.6451,-296.8745 335.895,-296.8745 340.145,-301.1244 340.145,-305.3743 340.145,-305.3743 340.145,-313.8742 340.145,-313.8742 340.145,-318.1241 335.895,-322.374 331.6451,-322.374"/>
<text text-anchor="middle" x="212.6826" y="-306.2485" font-family="Arial" font-size="15.00" fill="#cfffac">externalInterface/api/http/me/type.ts</text>
</g>
<!-- gateway/me/index.ts -->
<g id="node11" class="node">
<title>gateway/me/index.ts</title>
<path fill="none" stroke="#c6c5fe" d="M280.4188,-279.374C280.4188,-279.374 144.9464,-279.374 144.9464,-279.374 140.6965,-279.374 136.4465,-275.1241 136.4465,-270.8742 136.4465,-270.8742 136.4465,-262.3743 136.4465,-262.3743 136.4465,-258.1244 140.6965,-253.8745 144.9464,-253.8745 144.9464,-253.8745 280.4188,-253.8745 280.4188,-253.8745 284.6688,-253.8745 288.9187,-258.1244 288.9187,-262.3743 288.9187,-262.3743 288.9187,-270.8742 288.9187,-270.8742 288.9187,-275.1241 284.6688,-279.374 280.4188,-279.374"/>
<text text-anchor="middle" x="212.6826" y="-263.2485" font-family="Arial" font-size="15.00" fill="#c6c5fe">gateway/me/index.ts</text>
</g>
<!-- gateway/me/me.ts -->
<g id="node12" class="node">
<title>gateway/me/me.ts</title>
<path fill="none" stroke="#c6c5fe" d="M701.3252,-279.374C701.3252,-279.374 580.8965,-279.374 580.8965,-279.374 576.6466,-279.374 572.3967,-275.1241 572.3967,-270.8742 572.3967,-270.8742 572.3967,-262.3743 572.3967,-262.3743 572.3967,-258.1244 576.6466,-253.8745 580.8965,-253.8745 580.8965,-253.8745 701.3252,-253.8745 701.3252,-253.8745 705.5751,-253.8745 709.825,-258.1244 709.825,-262.3743 709.825,-262.3743 709.825,-270.8742 709.825,-270.8742 709.825,-275.1241 705.5751,-279.374 701.3252,-279.374"/>
<text text-anchor="middle" x="641.1108" y="-263.2485" font-family="Arial" font-size="15.00" fill="#c6c5fe">gateway/me/me.ts</text>
</g>
<!-- gateway/me/index.ts&#45;&gt;gateway/me/me.ts -->
<g id="edge7" class="edge">
<title>gateway/me/index.ts&#45;&gt;gateway/me/me.ts</title>
<path fill="none" stroke="#757575" d="M289.277,-266.6243C366.2118,-266.6243 484.2171,-266.6243 562.0244,-266.6243"/>
<polygon fill="#757575" stroke="#757575" points="562.2542,-270.1244 572.2541,-266.6243 562.2541,-263.1244 562.2542,-270.1244"/>
</g>
<!-- gateway/me/me.ts&#45;&gt;externalInterface/api/http/me/index.ts -->
<g id="edge8" class="edge">
<title>gateway/me/me.ts&#45;&gt;externalInterface/api/http/me/index.ts</title>
<path fill="none" stroke="#757575" d="M710.1741,-266.6243C762.6676,-266.6243 836.6627,-266.6243 901.5439,-266.6243"/>
<polygon fill="#757575" stroke="#757575" points="901.8741,-270.1244 911.874,-266.6243 901.874,-263.1244 901.8741,-270.1244"/>
</g>
<!-- presenter/components/ecosystem/Me/ComponentSelector.tsx -->
<g id="node13" class="node">
<title>presenter/components/ecosystem/Me/ComponentSelector.tsx</title>
<path fill="none" stroke="#c6c5fe" d="M417.0482,-171.374C417.0482,-171.374 8.3171,-171.374 8.3171,-171.374 4.0671,-171.374 -.1828,-167.1241 -.1828,-162.8742 -.1828,-162.8742 -.1828,-154.3743 -.1828,-154.3743 -.1828,-150.1244 4.0671,-145.8745 8.3171,-145.8745 8.3171,-145.8745 417.0482,-145.8745 417.0482,-145.8745 421.2981,-145.8745 425.548,-150.1244 425.548,-154.3743 425.548,-154.3743 425.548,-162.8742 425.548,-162.8742 425.548,-167.1241 421.2981,-171.374 417.0482,-171.374"/>
<text text-anchor="middle" x="212.6826" y="-155.2485" font-family="Arial" font-size="15.00" fill="#c6c5fe">presenter/components/ecosystem/Me/ComponentSelector.tsx</text>
</g>
<!-- presenter/components/ecosystem/Me/ComponentSelector.tsx&#45;&gt;domain/me/index.ts -->
<g id="edge9" class="edge">
<title>presenter/components/ecosystem/Me/ComponentSelector.tsx&#45;&gt;domain/me/index.ts</title>
<path fill="none" stroke="#757575" d="M277.9615,-171.2568C328.0217,-180.6811 398.898,-193.4571 461.3652,-202.6243 492.7843,-207.2351 527.413,-211.4786 557.8191,-214.926"/>
<polygon fill="#757575" stroke="#757575" points="557.6301,-218.4267 567.9581,-216.064 558.4109,-211.4704 557.6301,-218.4267"/>
</g>
<!-- presenter/components/ecosystem/Me/Content.tsx -->
<g id="node14" class="node">
<title>presenter/components/ecosystem/Me/Content.tsx</title>
<path fill="none" stroke="#c6c5fe" d="M805.7648,-193.374C805.7648,-193.374 476.4568,-193.374 476.4568,-193.374 472.2069,-193.374 467.957,-189.1241 467.957,-184.8742 467.957,-184.8742 467.957,-176.3743 467.957,-176.3743 467.957,-172.1244 472.2069,-167.8745 476.4568,-167.8745 476.4568,-167.8745 805.7648,-167.8745 805.7648,-167.8745 810.0148,-167.8745 814.2647,-172.1244 814.2647,-176.3743 814.2647,-176.3743 814.2647,-184.8742 814.2647,-184.8742 814.2647,-189.1241 810.0148,-193.374 805.7648,-193.374"/>
<text text-anchor="middle" x="641.1108" y="-177.2485" font-family="Arial" font-size="15.00" fill="#c6c5fe">presenter/components/ecosystem/Me/Content.tsx</text>
</g>
<!-- presenter/components/ecosystem/Me/ComponentSelector.tsx&#45;&gt;presenter/components/ecosystem/Me/Content.tsx -->
<g id="edge10" class="edge">
<title>presenter/components/ecosystem/Me/ComponentSelector.tsx&#45;&gt;presenter/components/ecosystem/Me/Content.tsx</title>
<path fill="none" stroke="#757575" d="M425.6416,-169.5598C436.3839,-170.1114 447.1305,-170.6633 457.7733,-171.2098"/>
<polygon fill="#757575" stroke="#757575" points="457.7754,-174.7144 467.9418,-171.7319 458.1344,-167.7236 457.7754,-174.7144"/>
</g>
<!-- presenter/components/ecosystem/Me/Exception.tsx -->
<g id="node15" class="node">
<title>presenter/components/ecosystem/Me/Exception.tsx</title>
<path fill="none" stroke="#cfffac" d="M812.6025,-150.374C812.6025,-150.374 469.6191,-150.374 469.6191,-150.374 465.3692,-150.374 461.1193,-146.1241 461.1193,-141.8742 461.1193,-141.8742 461.1193,-133.3743 461.1193,-133.3743 461.1193,-129.1244 465.3692,-124.8745 469.6191,-124.8745 469.6191,-124.8745 812.6025,-124.8745 812.6025,-124.8745 816.8525,-124.8745 821.1024,-129.1244 821.1024,-133.3743 821.1024,-133.3743 821.1024,-141.8742 821.1024,-141.8742 821.1024,-146.1241 816.8525,-150.374 812.6025,-150.374"/>
<text text-anchor="middle" x="641.1108" y="-134.2485" font-family="Arial" font-size="15.00" fill="#cfffac">presenter/components/ecosystem/Me/Exception.tsx</text>
</g>
<!-- presenter/components/ecosystem/Me/ComponentSelector.tsx&#45;&gt;presenter/components/ecosystem/Me/Exception.tsx -->
<g id="edge11" class="edge">
<title>presenter/components/ecosystem/Me/ComponentSelector.tsx&#45;&gt;presenter/components/ecosystem/Me/Exception.tsx</title>
<path fill="none" stroke="#757575" d="M425.6416,-148.1858C434.0771,-147.7723 442.5153,-147.3587 450.9037,-146.9475"/>
<polygon fill="#757575" stroke="#757575" points="451.291,-150.4328 461.1076,-146.4474 450.9482,-143.4412 451.291,-150.4328"/>
</g>
<!-- useCase/useMe/type.ts -->
<g id="node16" class="node">
<title>useCase/useMe/type.ts</title>
<path fill="none" stroke="#cfffac" d="M1120.6065,-109.374C1120.6065,-109.374 965.1147,-109.374 965.1147,-109.374 960.8647,-109.374 956.6148,-105.1241 956.6148,-100.8742 956.6148,-100.8742 956.6148,-92.3743 956.6148,-92.3743 956.6148,-88.1244 960.8647,-83.8745 965.1147,-83.8745 965.1147,-83.8745 1120.6065,-83.8745 1120.6065,-83.8745 1124.8565,-83.8745 1129.1064,-88.1244 1129.1064,-92.3743 1129.1064,-92.3743 1129.1064,-100.8742 1129.1064,-100.8742 1129.1064,-105.1241 1124.8565,-109.374 1120.6065,-109.374"/>
<text text-anchor="middle" x="1042.8606" y="-93.2485" font-family="Arial" font-size="15.00" fill="#cfffac">useCase/useMe/type.ts</text>
</g>
<!-- presenter/components/ecosystem/Me/ComponentSelector.tsx&#45;&gt;useCase/useMe/type.ts -->
<g id="edge12" class="edge">
<title>presenter/components/ecosystem/Me/ComponentSelector.tsx&#45;&gt;useCase/useMe/type.ts</title>
<path fill="none" stroke="#757575" d="M272.1573,-145.9513C322.3375,-135.8351 396.2023,-122.2901 461.3652,-115.6243 631.3282,-98.2379 830.5488,-95.5321 946.1666,-95.6975"/>
<polygon fill="#757575" stroke="#757575" points="946.3957,-99.1979 956.4034,-95.7199 946.4112,-92.1979 946.3957,-99.1979"/>
</g>
<!-- presenter/components/ecosystem/Me/Content.tsx&#45;&gt;useCase/useMe/type.ts -->
<g id="edge13" class="edge">
<title>presenter/components/ecosystem/Me/Content.tsx&#45;&gt;useCase/useMe/type.ts</title>
<path fill="none" stroke="#757575" d="M771.0957,-167.9452C787.903,-165.5719 804.8331,-162.8125 820.8564,-159.6243 882.0461,-147.4493 950.9391,-126.775 995.5224,-112.4465"/>
<polygon fill="#757575" stroke="#757575" points="996.7714,-115.7211 1005.207,-109.3108 994.6151,-109.0614 996.7714,-115.7211"/>
</g>
<!-- presenter/components/ecosystem/Me/Me.tsx -->
<g id="node17" class="node">
<title>presenter/components/ecosystem/Me/Me.tsx</title>
<path fill="none" stroke="#c6c5fe" d="M790.0659,-365.374C790.0659,-365.374 492.1558,-365.374 492.1558,-365.374 487.9058,-365.374 483.6559,-361.1241 483.6559,-356.8742 483.6559,-356.8742 483.6559,-348.3743 483.6559,-348.3743 483.6559,-344.1244 487.9058,-339.8745 492.1558,-339.8745 492.1558,-339.8745 790.0659,-339.8745 790.0659,-339.8745 794.3158,-339.8745 798.5658,-344.1244 798.5658,-348.3743 798.5658,-348.3743 798.5658,-356.8742 798.5658,-356.8742 798.5658,-361.1241 794.3158,-365.374 790.0659,-365.374"/>
<text text-anchor="middle" x="641.1108" y="-349.2485" font-family="Arial" font-size="15.00" fill="#c6c5fe">presenter/components/ecosystem/Me/Me.tsx</text>
</g>
<!-- presenter/components/ecosystem/Me/Placeholder.tsx -->
<g id="node18" class="node">
<title>presenter/components/ecosystem/Me/Placeholder.tsx</title>
<path fill="none" stroke="#cfffac" d="M1220.369,-365.374C1220.369,-365.374 865.3521,-365.374 865.3521,-365.374 861.1022,-365.374 856.8523,-361.1241 856.8523,-356.8742 856.8523,-356.8742 856.8523,-348.3743 856.8523,-348.3743 856.8523,-344.1244 861.1022,-339.8745 865.3521,-339.8745 865.3521,-339.8745 1220.369,-339.8745 1220.369,-339.8745 1224.619,-339.8745 1228.8689,-344.1244 1228.8689,-348.3743 1228.8689,-348.3743 1228.8689,-356.8742 1228.8689,-356.8742 1228.8689,-361.1241 1224.619,-365.374 1220.369,-365.374"/>
<text text-anchor="middle" x="1042.8606" y="-349.2485" font-family="Arial" font-size="15.00" fill="#cfffac">presenter/components/ecosystem/Me/Placeholder.tsx</text>
</g>
<!-- presenter/components/ecosystem/Me/Me.tsx&#45;&gt;presenter/components/ecosystem/Me/Placeholder.tsx -->
<g id="edge14" class="edge">
<title>presenter/components/ecosystem/Me/Me.tsx&#45;&gt;presenter/components/ecosystem/Me/Placeholder.tsx</title>
<path fill="none" stroke="#757575" d="M798.4518,-352.6243C814.2988,-352.6243 830.5254,-352.6243 846.7111,-352.6243"/>
<polygon fill="#757575" stroke="#757575" points="846.78,-356.1244 856.78,-352.6243 846.78,-349.1244 846.78,-356.1244"/>
</g>
<!-- presenter/components/ecosystem/Me/index.ts -->
<g id="node19" class="node">
<title>presenter/components/ecosystem/Me/index.ts</title>
<path fill="none" stroke="#c6c5fe" d="M365.1593,-365.374C365.1593,-365.374 60.2059,-365.374 60.2059,-365.374 55.956,-365.374 51.7061,-361.1241 51.7061,-356.8742 51.7061,-356.8742 51.7061,-348.3743 51.7061,-348.3743 51.7061,-344.1244 55.956,-339.8745 60.2059,-339.8745 60.2059,-339.8745 365.1593,-339.8745 365.1593,-339.8745 369.4093,-339.8745 373.6592,-344.1244 373.6592,-348.3743 373.6592,-348.3743 373.6592,-356.8742 373.6592,-356.8742 373.6592,-361.1241 369.4093,-365.374 365.1593,-365.374"/>
<text text-anchor="middle" x="212.6826" y="-349.2485" font-family="Arial" font-size="15.00" fill="#c6c5fe">presenter/components/ecosystem/Me/index.ts</text>
</g>
<!-- presenter/components/ecosystem/Me/index.ts&#45;&gt;presenter/components/ecosystem/Me/Me.tsx -->
<g id="edge15" class="edge">
<title>presenter/components/ecosystem/Me/index.ts&#45;&gt;presenter/components/ecosystem/Me/Me.tsx</title>
<path fill="none" stroke="#757575" d="M373.7374,-352.6243C406.3206,-352.6243 440.6554,-352.6243 473.4593,-352.6243"/>
<polygon fill="#757575" stroke="#757575" points="473.5871,-356.1244 483.5871,-352.6243 473.587,-349.1244 473.5871,-356.1244"/>
</g>
<!-- presenter/containers/ErrorBoundary.tsx -->
<g id="node20" class="node">
<title>presenter/containers/ErrorBoundary.tsx</title>
<path fill="none" stroke="#cfffac" d="M342.3592,-408.374C342.3592,-408.374 83.006,-408.374 83.006,-408.374 78.7561,-408.374 74.5062,-404.1241 74.5062,-399.8742 74.5062,-399.8742 74.5062,-391.3743 74.5062,-391.3743 74.5062,-387.1244 78.7561,-382.8745 83.006,-382.8745 83.006,-382.8745 342.3592,-382.8745 342.3592,-382.8745 346.6092,-382.8745 350.8591,-387.1244 350.8591,-391.3743 350.8591,-391.3743 350.8591,-399.8742 350.8591,-399.8742 350.8591,-404.1241 346.6092,-408.374 342.3592,-408.374"/>
<text text-anchor="middle" x="212.6826" y="-392.2485" font-family="Arial" font-size="15.00" fill="#cfffac">presenter/containers/ErrorBoundary.tsx</text>
</g>
<!-- useCase/useMe/index.ts -->
<g id="node21" class="node">
<title>useCase/useMe/index.ts</title>
<path fill="none" stroke="#c6c5fe" d="M294.4359,-68.374C294.4359,-68.374 130.9294,-68.374 130.9294,-68.374 126.6794,-68.374 122.4295,-64.1241 122.4295,-59.8742 122.4295,-59.8742 122.4295,-51.3743 122.4295,-51.3743 122.4295,-47.1244 126.6794,-42.8745 130.9294,-42.8745 130.9294,-42.8745 294.4359,-42.8745 294.4359,-42.8745 298.6858,-42.8745 302.9357,-47.1244 302.9357,-51.3743 302.9357,-51.3743 302.9357,-59.8742 302.9357,-59.8742 302.9357,-64.1241 298.6858,-68.374 294.4359,-68.374"/>
<text text-anchor="middle" x="212.6826" y="-52.2485" font-family="Arial" font-size="15.00" fill="#c6c5fe">useCase/useMe/index.ts</text>
</g>
<!-- useCase/useMe/useMe.ts -->
<g id="node22" class="node">
<title>useCase/useMe/useMe.ts</title>
<path fill="none" stroke="#c6c5fe" d="M727.527,-68.374C727.527,-68.374 554.6947,-68.374 554.6947,-68.374 550.4448,-68.374 546.1949,-64.1241 546.1949,-59.8742 546.1949,-59.8742 546.1949,-51.3743 546.1949,-51.3743 546.1949,-47.1244 550.4448,-42.8745 554.6947,-42.8745 554.6947,-42.8745 727.527,-42.8745 727.527,-42.8745 731.7769,-42.8745 736.0268,-47.1244 736.0268,-51.3743 736.0268,-51.3743 736.0268,-59.8742 736.0268,-59.8742 736.0268,-64.1241 731.7769,-68.374 727.527,-68.374"/>
<text text-anchor="middle" x="641.1108" y="-52.2485" font-family="Arial" font-size="15.00" fill="#c6c5fe">useCase/useMe/useMe.ts</text>
</g>
<!-- useCase/useMe/index.ts&#45;&gt;useCase/useMe/useMe.ts -->
<g id="edge16" class="edge">
<title>useCase/useMe/index.ts&#45;&gt;useCase/useMe/useMe.ts</title>
<path fill="none" stroke="#757575" d="M303.0177,-55.6243C370.9924,-55.6243 464.3229,-55.6243 535.7058,-55.6243"/>
<polygon fill="#757575" stroke="#757575" points="536.0729,-59.1244 546.0729,-55.6243 536.0728,-52.1244 536.0729,-59.1244"/>
</g>
<!-- useCase/useMe/useMe.ts&#45;&gt;useCase/useMe/type.ts -->
<g id="edge17" class="edge">
<title>useCase/useMe/useMe.ts&#45;&gt;useCase/useMe/type.ts</title>
<path fill="none" stroke="#757575" d="M736.0655,-65.3147C799.4911,-71.7875 882.6497,-80.2742 946.3872,-86.7788"/>
<polygon fill="#757575" stroke="#757575" points="946.1402,-90.2717 956.4439,-87.8051 946.8509,-83.3079 946.1402,-90.2717"/>
</g>
</g>
</svg>
