<?xml version="1.0" encoding="UTF-8" standalone="no"?>
<!DOCTYPE svg PUBLIC "-//W3C//DTD SVG 1.1//EN"
 "http://www.w3.org/Graphics/SVG/1.1/DTD/svg11.dtd">
<!-- Generated by graphviz version 2.40.1 (20161225.0304)
 -->
<!-- Title: G Pages: 1 -->
<svg width="2178pt" height="451pt"
 viewBox="0.00 0.00 2178.47 451.45" xmlns="http://www.w3.org/2000/svg" xmlns:xlink="http://www.w3.org/1999/xlink">
<g id="graph0" class="graph" transform="scale(1 1) rotate(0) translate(21.6 429.8485)">
<title>G</title>
<polygon fill="#111111" stroke="transparent" points="-21.6,21.6 -21.6,-429.8485 2156.8676,-429.8485 2156.8676,21.6 -21.6,21.6"/>
<!-- app.d.ts -->
<g id="node1" class="node">
<title>app.d.ts</title>
<path fill="none" stroke="#cfffac" d="M239.0554,-25.374C239.0554,-25.374 186.3099,-25.374 186.3099,-25.374 182.06,-25.374 177.81,-21.1241 177.81,-16.8742 177.81,-16.8742 177.81,-8.3743 177.81,-8.3743 177.81,-4.1244 182.06,.1255 186.3099,.1255 186.3099,.1255 239.0554,.1255 239.0554,.1255 243.3053,.1255 247.5552,-4.1244 247.5552,-8.3743 247.5552,-8.3743 247.5552,-16.8742 247.5552,-16.8742 247.5552,-21.1241 243.3053,-25.374 239.0554,-25.374"/>
<text text-anchor="middle" x="212.6826" y="-9.2485" font-family="Arial" font-size="15.00" fill="#cfffac">app.d.ts</text>
</g>
<!-- domain/me/index.ts -->
<g id="node2" class="node">
<title>domain/me/index.ts</title>
<path fill="none" stroke="#c6c5fe" d="M277.2463,-68.374C277.2463,-68.374 148.119,-68.374 148.119,-68.374 143.8691,-68.374 139.6191,-64.1241 139.6191,-59.8742 139.6191,-59.8742 139.6191,-51.3743 139.6191,-51.3743 139.6191,-47.1244 143.8691,-42.8745 148.119,-42.8745 148.119,-42.8745 277.2463,-42.8745 277.2463,-42.8745 281.4962,-42.8745 285.7461,-47.1244 285.7461,-51.3743 285.7461,-51.3743 285.7461,-59.8742 285.7461,-59.8742 285.7461,-64.1241 281.4962,-68.374 277.2463,-68.374"/>
<text text-anchor="middle" x="212.6826" y="-52.2485" font-family="Arial" font-size="15.00" fill="#c6c5fe">domain/me/index.ts</text>
</g>
<!-- domain/me/me.ts -->
<g id="node3" class="node">
<title>domain/me/me.ts</title>
<path fill="none" stroke="#cfffac" d="M698.1525,-68.374C698.1525,-68.374 584.0692,-68.374 584.0692,-68.374 579.8193,-68.374 575.5693,-64.1241 575.5693,-59.8742 575.5693,-59.8742 575.5693,-51.3743 575.5693,-51.3743 575.5693,-47.1244 579.8193,-42.8745 584.0692,-42.8745 584.0692,-42.8745 698.1525,-42.8745 698.1525,-42.8745 702.4024,-42.8745 706.6524,-47.1244 706.6524,-51.3743 706.6524,-51.3743 706.6524,-59.8742 706.6524,-59.8742 706.6524,-64.1241 702.4024,-68.374 698.1525,-68.374"/>
<text text-anchor="middle" x="641.1108" y="-52.2485" font-family="Arial" font-size="15.00" fill="#cfffac">domain/me/me.ts</text>
</g>
<!-- domain/me/index.ts&#45;&gt;domain/me/me.ts -->
<g id="edge1" class="edge">
<title>domain/me/index.ts&#45;&gt;domain/me/me.ts</title>
<path fill="none" stroke="#757575" d="M285.8453,-55.6243C363.6112,-55.6243 486.0227,-55.6243 564.9234,-55.6243"/>
<polygon fill="#757575" stroke="#757575" points="565.2797,-59.1244 575.2797,-55.6243 565.2797,-52.1244 565.2797,-59.1244"/>
</g>
<!-- domain/me/type.ts -->
<g id="node4" class="node">
<title>domain/me/type.ts</title>
<path fill="none" stroke="#cfffac" d="M701.6679,-25.374C701.6679,-25.374 580.5538,-25.374 580.5538,-25.374 576.3039,-25.374 572.054,-21.1241 572.054,-16.8742 572.054,-16.8742 572.054,-8.3743 572.054,-8.3743 572.054,-4.1244 576.3039,.1255 580.5538,.1255 580.5538,.1255 701.6679,.1255 701.6679,.1255 705.9178,.1255 710.1677,-4.1244 710.1677,-8.3743 710.1677,-8.3743 710.1677,-16.8742 710.1677,-16.8742 710.1677,-21.1241 705.9178,-25.374 701.6679,-25.374"/>
<text text-anchor="middle" x="641.1108" y="-9.2485" font-family="Arial" font-size="15.00" fill="#cfffac">domain/me/type.ts</text>
</g>
<!-- domain/me/index.ts&#45;&gt;domain/me/type.ts -->
<g id="edge2" class="edge">
<title>domain/me/index.ts&#45;&gt;domain/me/type.ts</title>
<path fill="none" stroke="#757575" d="M286.0191,-48.4415C327.014,-44.4117 379.0329,-39.2739 425.3652,-34.6243 470.4337,-30.1014 520.7892,-24.9709 561.5096,-20.8028"/>
<polygon fill="#757575" stroke="#757575" points="562.0542,-24.2654 571.6455,-19.7648 561.341,-17.3018 562.0542,-24.2654"/>
</g>
<!-- externalInterface/api/http/client/client.ts -->
<g id="node5" class="node">
<title>externalInterface/api/http/client/client.ts</title>
<path fill="none" stroke="#cfffac" d="M2126.9212,-133.374C2126.9212,-133.374 1868.3073,-133.374 1868.3073,-133.374 1864.0574,-133.374 1859.8074,-129.1241 1859.8074,-124.8742 1859.8074,-124.8742 1859.8074,-116.3743 1859.8074,-116.3743 1859.8074,-112.1244 1864.0574,-107.8745 1868.3073,-107.8745 1868.3073,-107.8745 2126.9212,-107.8745 2126.9212,-107.8745 2131.1711,-107.8745 2135.4211,-112.1244 2135.4211,-116.3743 2135.4211,-116.3743 2135.4211,-124.8742 2135.4211,-124.8742 2135.4211,-129.1241 2131.1711,-133.374 2126.9212,-133.374"/>
<text text-anchor="middle" x="1997.6143" y="-117.2485" font-family="Arial" font-size="15.00" fill="#cfffac">externalInterface/api/http/client/client.ts</text>
</g>
<!-- externalInterface/api/http/client/index.ts -->
<g id="node6" class="node">
<title>externalInterface/api/http/client/index.ts</title>
<path fill="none" stroke="#c6c5fe" d="M1815.5356,-133.374C1815.5356,-133.374 1556.2374,-133.374 1556.2374,-133.374 1551.9874,-133.374 1547.7375,-129.1241 1547.7375,-124.8742 1547.7375,-124.8742 1547.7375,-116.3743 1547.7375,-116.3743 1547.7375,-112.1244 1551.9874,-107.8745 1556.2374,-107.8745 1556.2374,-107.8745 1815.5356,-107.8745 1815.5356,-107.8745 1819.7855,-107.8745 1824.0354,-112.1244 1824.0354,-116.3743 1824.0354,-116.3743 1824.0354,-124.8742 1824.0354,-124.8742 1824.0354,-129.1241 1819.7855,-133.374 1815.5356,-133.374"/>
<text text-anchor="middle" x="1685.8865" y="-117.2485" font-family="Arial" font-size="15.00" fill="#c6c5fe">externalInterface/api/http/client/index.ts</text>
</g>
<!-- externalInterface/api/http/client/index.ts&#45;&gt;externalInterface/api/http/client/client.ts -->
<g id="edge3" class="edge">
<title>externalInterface/api/http/client/index.ts&#45;&gt;externalInterface/api/http/client/client.ts</title>
<path fill="none" stroke="#757575" d="M1823.9761,-120.6243C1832.5209,-120.6243 1841.1379,-120.6243 1849.7225,-120.6243"/>
<polygon fill="#757575" stroke="#757575" points="1849.7791,-124.1244 1859.779,-120.6243 1849.779,-117.1244 1849.7791,-124.1244"/>
</g>
<!-- externalInterface/api/http/client/util.ts -->
<g id="node7" class="node">
<title>externalInterface/api/http/client/util.ts</title>
<path fill="none" stroke="#cfffac" d="M1807.3514,-90.374C1807.3514,-90.374 1564.4215,-90.374 1564.4215,-90.374 1560.1716,-90.374 1555.9217,-86.1241 1555.9217,-81.8742 1555.9217,-81.8742 1555.9217,-73.3743 1555.9217,-73.3743 1555.9217,-69.1244 1560.1716,-64.8745 1564.4215,-64.8745 1564.4215,-64.8745 1807.3514,-64.8745 1807.3514,-64.8745 1811.6013,-64.8745 1815.8512,-69.1244 1815.8512,-73.3743 1815.8512,-73.3743 1815.8512,-81.8742 1815.8512,-81.8742 1815.8512,-86.1241 1811.6013,-90.374 1807.3514,-90.374"/>
<text text-anchor="middle" x="1685.8865" y="-74.2485" font-family="Arial" font-size="15.00" fill="#cfffac">externalInterface/api/http/client/util.ts</text>
</g>
<!-- externalInterface/api/http/me/index.ts -->
<g id="node8" class="node">
<title>externalInterface/api/http/me/index.ts</title>
<path fill="none" stroke="#c6c5fe" d="M1165.33,-111.374C1165.33,-111.374 920.3912,-111.374 920.3912,-111.374 916.1413,-111.374 911.8914,-107.1241 911.8914,-102.8742 911.8914,-102.8742 911.8914,-94.3743 911.8914,-94.3743 911.8914,-90.1244 916.1413,-85.8745 920.3912,-85.8745 920.3912,-85.8745 1165.33,-85.8745 1165.33,-85.8745 1169.5799,-85.8745 1173.8298,-90.1244 1173.8298,-94.3743 1173.8298,-94.3743 1173.8298,-102.8742 1173.8298,-102.8742 1173.8298,-107.1241 1169.5799,-111.374 1165.33,-111.374"/>
<text text-anchor="middle" x="1042.8606" y="-95.2485" font-family="Arial" font-size="15.00" fill="#c6c5fe">externalInterface/api/http/me/index.ts</text>
</g>
<!-- externalInterface/api/http/me/me.ts -->
<g id="node9" class="node">
<title>externalInterface/api/http/me/me.ts</title>
<path fill="none" stroke="#c6c5fe" d="M1503.2858,-111.374C1503.2858,-111.374 1273.391,-111.374 1273.391,-111.374 1269.141,-111.374 1264.8911,-107.1241 1264.8911,-102.8742 1264.8911,-102.8742 1264.8911,-94.3743 1264.8911,-94.3743 1264.8911,-90.1244 1269.141,-85.8745 1273.391,-85.8745 1273.391,-85.8745 1503.2858,-85.8745 1503.2858,-85.8745 1507.5357,-85.8745 1511.7857,-90.1244 1511.7857,-94.3743 1511.7857,-94.3743 1511.7857,-102.8742 1511.7857,-102.8742 1511.7857,-107.1241 1507.5357,-111.374 1503.2858,-111.374"/>
<text text-anchor="middle" x="1388.3384" y="-95.2485" font-family="Arial" font-size="15.00" fill="#c6c5fe">externalInterface/api/http/me/me.ts</text>
</g>
<!-- externalInterface/api/http/me/index.ts&#45;&gt;externalInterface/api/http/me/me.ts -->
<g id="edge4" class="edge">
<title>externalInterface/api/http/me/index.ts&#45;&gt;externalInterface/api/http/me/me.ts</title>
<path fill="none" stroke="#757575" d="M1173.9635,-98.6243C1200.3683,-98.6243 1228.1532,-98.6243 1254.6452,-98.6243"/>
<polygon fill="#757575" stroke="#757575" points="1254.7297,-102.1244 1264.7297,-98.6243 1254.7297,-95.1244 1254.7297,-102.1244"/>
</g>
<!-- externalInterface/api/http/me/me.ts&#45;&gt;externalInterface/api/http/client/index.ts -->
<g id="edge5" class="edge">
<title>externalInterface/api/http/me/me.ts&#45;&gt;externalInterface/api/http/client/index.ts</title>
<path fill="none" stroke="#757575" d="M1511.9406,-107.7631C1520.433,-108.391 1529.0382,-109.0273 1537.641,-109.6633"/>
<polygon fill="#757575" stroke="#757575" points="1537.501,-113.1625 1547.7319,-110.4094 1538.0173,-106.1815 1537.501,-113.1625"/>
</g>
<!-- externalInterface/api/http/me/me.ts&#45;&gt;externalInterface/api/http/client/util.ts -->
<g id="edge6" class="edge">
<title>externalInterface/api/http/me/me.ts&#45;&gt;externalInterface/api/http/client/util.ts</title>
<path fill="none" stroke="#757575" d="M1511.9406,-89.9008C1523.0651,-89.1157 1534.383,-88.3169 1545.6356,-87.5227"/>
<polygon fill="#757575" stroke="#757575" points="1546.2152,-90.9906 1555.944,-86.7952 1545.7223,-84.008 1546.2152,-90.9906"/>
</g>
<!-- externalInterface/api/http/me/type.ts -->
<g id="node10" class="node">
<title>externalInterface/api/http/me/type.ts</title>
<path fill="none" stroke="#cfffac" d="M331.6451,-154.374C331.6451,-154.374 93.7201,-154.374 93.7201,-154.374 89.4702,-154.374 85.2203,-150.1241 85.2203,-145.8742 85.2203,-145.8742 85.2203,-137.3743 85.2203,-137.3743 85.2203,-133.1244 89.4702,-128.8745 93.7201,-128.8745 93.7201,-128.8745 331.6451,-128.8745 331.6451,-128.8745 335.895,-128.8745 340.145,-133.1244 340.145,-137.3743 340.145,-137.3743 340.145,-145.8742 340.145,-145.8742 340.145,-150.1241 335.895,-154.374 331.6451,-154.374"/>
<text text-anchor="middle" x="212.6826" y="-138.2485" font-family="Arial" font-size="15.00" fill="#cfffac">externalInterface/api/http/me/type.ts</text>
</g>
<!-- gateway/me/index.ts -->
<g id="node11" class="node">
<title>gateway/me/index.ts</title>
<path fill="none" stroke="#c6c5fe" d="M280.4188,-111.374C280.4188,-111.374 144.9464,-111.374 144.9464,-111.374 140.6965,-111.374 136.4465,-107.1241 136.4465,-102.8742 136.4465,-102.8742 136.4465,-94.3743 136.4465,-94.3743 136.4465,-90.1244 140.6965,-85.8745 144.9464,-85.8745 144.9464,-85.8745 280.4188,-85.8745 280.4188,-85.8745 284.6688,-85.8745 288.9187,-90.1244 288.9187,-94.3743 288.9187,-94.3743 288.9187,-102.8742 288.9187,-102.8742 288.9187,-107.1241 284.6688,-111.374 280.4188,-111.374"/>
<text text-anchor="middle" x="212.6826" y="-95.2485" font-family="Arial" font-size="15.00" fill="#c6c5fe">gateway/me/index.ts</text>
</g>
<!-- gateway/me/me.ts -->
<g id="node12" class="node">
<title>gateway/me/me.ts</title>
<path fill="none" stroke="#c6c5fe" d="M701.3252,-111.374C701.3252,-111.374 580.8965,-111.374 580.8965,-111.374 576.6466,-111.374 572.3967,-107.1241 572.3967,-102.8742 572.3967,-102.8742 572.3967,-94.3743 572.3967,-94.3743 572.3967,-90.1244 576.6466,-85.8745 580.8965,-85.8745 580.8965,-85.8745 701.3252,-85.8745 701.3252,-85.8745 705.5751,-85.8745 709.825,-90.1244 709.825,-94.3743 709.825,-94.3743 709.825,-102.8742 709.825,-102.8742 709.825,-107.1241 705.5751,-111.374 701.3252,-111.374"/>
<text text-anchor="middle" x="641.1108" y="-95.2485" font-family="Arial" font-size="15.00" fill="#c6c5fe">gateway/me/me.ts</text>
</g>
<!-- gateway/me/index.ts&#45;&gt;gateway/me/me.ts -->
<g id="edge7" class="edge">
<title>gateway/me/index.ts&#45;&gt;gateway/me/me.ts</title>
<path fill="none" stroke="#757575" d="M289.277,-98.6243C366.2118,-98.6243 484.2171,-98.6243 562.0244,-98.6243"/>
<polygon fill="#757575" stroke="#757575" points="562.2542,-102.1244 572.2541,-98.6243 562.2541,-95.1244 562.2542,-102.1244"/>
</g>
<!-- gateway/me/me.ts&#45;&gt;externalInterface/api/http/me/index.ts -->
<g id="edge8" class="edge">
<title>gateway/me/me.ts&#45;&gt;externalInterface/api/http/me/index.ts</title>
<path fill="none" stroke="#757575" d="M710.1741,-98.6243C762.6676,-98.6243 836.6627,-98.6243 901.5439,-98.6243"/>
<polygon fill="#757575" stroke="#757575" points="901.8741,-102.1244 911.874,-98.6243 901.874,-95.1244 901.8741,-102.1244"/>
</g>
<!-- presenter/components/ecosystem/Me/ComponentSelector.tsx -->
<g id="node13" class="node">
<title>presenter/components/ecosystem/Me/ComponentSelector.tsx</title>
<path fill="none" stroke="#c6c5fe" d="M417.0482,-279.374C417.0482,-279.374 8.3171,-279.374 8.3171,-279.374 4.0671,-279.374 -.1828,-275.1241 -.1828,-270.8742 -.1828,-270.8742 -.1828,-262.3743 -.1828,-262.3743 -.1828,-258.1244 4.0671,-253.8745 8.3171,-253.8745 8.3171,-253.8745 417.0482,-253.8745 417.0482,-253.8745 421.2981,-253.8745 425.548,-258.1244 425.548,-262.3743 425.548,-262.3743 425.548,-270.8742 425.548,-270.8742 425.548,-275.1241 421.2981,-279.374 417.0482,-279.374"/>
<text text-anchor="middle" x="212.6826" y="-263.2485" font-family="Arial" font-size="15.00" fill="#c6c5fe">presenter/components/ecosystem/Me/ComponentSelector.tsx</text>
</g>
<!-- presenter/components/ecosystem/Me/Content.tsx -->
<g id="node14" class="node">
<title>presenter/components/ecosystem/Me/Content.tsx</title>
<path fill="none" stroke="#c6c5fe" d="M805.7648,-322.374C805.7648,-322.374 476.4568,-322.374 476.4568,-322.374 472.2069,-322.374 467.957,-318.1241 467.957,-313.8742 467.957,-313.8742 467.957,-305.3743 467.957,-305.3743 467.957,-301.1244 472.2069,-296.8745 476.4568,-296.8745 476.4568,-296.8745 805.7648,-296.8745 805.7648,-296.8745 810.0148,-296.8745 814.2647,-301.1244 814.2647,-305.3743 814.2647,-305.3743 814.2647,-313.8742 814.2647,-313.8742 814.2647,-318.1241 810.0148,-322.374 805.7648,-322.374"/>
<text text-anchor="middle" x="641.1108" y="-306.2485" font-family="Arial" font-size="15.00" fill="#c6c5fe">presenter/components/ecosystem/Me/Content.tsx</text>
</g>
<!-- presenter/components/ecosystem/Me/ComponentSelector.tsx&#45;&gt;presenter/components/ecosystem/Me/Content.tsx -->
<g id="edge9" class="edge">
<title>presenter/components/ecosystem/Me/ComponentSelector.tsx&#45;&gt;presenter/components/ecosystem/Me/Content.tsx</title>
<path fill="none" stroke="#757575" d="M338.6191,-279.2641C390.9173,-284.5131 451.7239,-290.6161 505.0446,-295.9677"/>
<polygon fill="#757575" stroke="#757575" points="504.9568,-299.4764 515.2564,-296.9927 505.656,-292.5114 504.9568,-299.4764"/>
</g>
<!-- presenter/components/ecosystem/Me/Exception.tsx -->
<g id="node15" class="node">
<title>presenter/components/ecosystem/Me/Exception.tsx</title>
<path fill="none" stroke="#cfffac" d="M812.6025,-279.374C812.6025,-279.374 469.6191,-279.374 469.6191,-279.374 465.3692,-279.374 461.1193,-275.1241 461.1193,-270.8742 461.1193,-270.8742 461.1193,-262.3743 461.1193,-262.3743 461.1193,-258.1244 465.3692,-253.8745 469.6191,-253.8745 469.6191,-253.8745 812.6025,-253.8745 812.6025,-253.8745 816.8525,-253.8745 821.1024,-258.1244 821.1024,-262.3743 821.1024,-262.3743 821.1024,-270.8742 821.1024,-270.8742 821.1024,-275.1241 816.8525,-279.374 812.6025,-279.374"/>
<text text-anchor="middle" x="641.1108" y="-263.2485" font-family="Arial" font-size="15.00" fill="#cfffac">presenter/components/ecosystem/Me/Exception.tsx</text>
</g>
<!-- presenter/components/ecosystem/Me/ComponentSelector.tsx&#45;&gt;presenter/components/ecosystem/Me/Exception.tsx -->
<g id="edge10" class="edge">
<title>presenter/components/ecosystem/Me/ComponentSelector.tsx&#45;&gt;presenter/components/ecosystem/Me/Exception.tsx</title>
<path fill="none" stroke="#757575" d="M425.6416,-266.6243C434.0771,-266.6243 442.5153,-266.6243 450.9037,-266.6243"/>
<polygon fill="#757575" stroke="#757575" points="451.1076,-270.1244 461.1076,-266.6243 451.1076,-263.1244 451.1076,-270.1244"/>
</g>
<!-- useCase/useMe/type.ts -->
<g id="node16" class="node">
<title>useCase/useMe/type.ts</title>
<path fill="none" stroke="#cfffac" d="M1120.6065,-238.374C1120.6065,-238.374 965.1147,-238.374 965.1147,-238.374 960.8647,-238.374 956.6148,-234.1241 956.6148,-229.8742 956.6148,-229.8742 956.6148,-221.3743 956.6148,-221.3743 956.6148,-217.1244 960.8647,-212.8745 965.1147,-212.8745 965.1147,-212.8745 1120.6065,-212.8745 1120.6065,-212.8745 1124.8565,-212.8745 1129.1064,-217.1244 1129.1064,-221.3743 1129.1064,-221.3743 1129.1064,-229.8742 1129.1064,-229.8742 1129.1064,-234.1241 1124.8565,-238.374 1120.6065,-238.374"/>
<text text-anchor="middle" x="1042.8606" y="-222.2485" font-family="Arial" font-size="15.00" fill="#cfffac">useCase/useMe/type.ts</text>
</g>
<!-- presenter/components/ecosystem/Me/ComponentSelector.tsx&#45;&gt;useCase/useMe/type.ts -->
<g id="edge11" class="edge">
<title>presenter/components/ecosystem/Me/ComponentSelector.tsx&#45;&gt;useCase/useMe/type.ts</title>
<path fill="none" stroke="#757575" d="M340.051,-253.9859C378.9568,-250.4948 421.8873,-247.0136 461.3652,-244.6243 631.9031,-234.3027 830.9389,-229.326 946.3651,-227.1371"/>
<polygon fill="#757575" stroke="#757575" points="946.6517,-230.6325 956.5846,-226.9465 946.521,-223.6337 946.6517,-230.6325"/>
</g>
<!-- presenter/components/ecosystem/Me/Content.tsx&#45;&gt;useCase/useMe/type.ts -->
<g id="edge12" class="edge">
<title>presenter/components/ecosystem/Me/Content.tsx&#45;&gt;useCase/useMe/type.ts</title>
<path fill="none" stroke="#757575" d="M771.0957,-296.9452C787.903,-294.5719 804.8331,-291.8125 820.8564,-288.6243 882.0461,-276.4493 950.9391,-255.775 995.5224,-241.4465"/>
<polygon fill="#757575" stroke="#757575" points="996.7714,-244.7211 1005.207,-238.3108 994.6151,-238.0614 996.7714,-244.7211"/>
</g>
<!-- presenter/components/ecosystem/Me/Me.tsx -->
<g id="node17" class="node">
<title>presenter/components/ecosystem/Me/Me.tsx</title>
<path fill="none" stroke="#c6c5fe" d="M790.0659,-365.374C790.0659,-365.374 492.1558,-365.374 492.1558,-365.374 487.9058,-365.374 483.6559,-361.1241 483.6559,-356.8742 483.6559,-356.8742 483.6559,-348.3743 483.6559,-348.3743 483.6559,-344.1244 487.9058,-339.8745 492.1558,-339.8745 492.1558,-339.8745 790.0659,-339.8745 790.0659,-339.8745 794.3158,-339.8745 798.5658,-344.1244 798.5658,-348.3743 798.5658,-348.3743 798.5658,-356.8742 798.5658,-356.8742 798.5658,-361.1241 794.3158,-365.374 790.0659,-365.374"/>
<text text-anchor="middle" x="641.1108" y="-349.2485" font-family="Arial" font-size="15.00" fill="#c6c5fe">presenter/components/ecosystem/Me/Me.tsx</text>
</g>
<!-- presenter/components/ecosystem/Me/Placeholder.tsx -->
<g id="node18" class="node">
<title>presenter/components/ecosystem/Me/Placeholder.tsx</title>
<path fill="none" stroke="#cfffac" d="M1220.369,-365.374C1220.369,-365.374 865.3521,-365.374 865.3521,-365.374 861.1022,-365.374 856.8523,-361.1241 856.8523,-356.8742 856.8523,-356.8742 856.8523,-348.3743 856.8523,-348.3743 856.8523,-344.1244 861.1022,-339.8745 865.3521,-339.8745 865.3521,-339.8745 1220.369,-339.8745 1220.369,-339.8745 1224.619,-339.8745 1228.8689,-344.1244 1228.8689,-348.3743 1228.8689,-348.3743 1228.8689,-356.8742 1228.8689,-356.8742 1228.8689,-361.1241 1224.619,-365.374 1220.369,-365.374"/>
<text text-anchor="middle" x="1042.8606" y="-349.2485" font-family="Arial" font-size="15.00" fill="#cfffac">presenter/components/ecosystem/Me/Placeholder.tsx</text>
</g>
<!-- presenter/components/ecosystem/Me/Me.tsx&#45;&gt;presenter/components/ecosystem/Me/Placeholder.tsx -->
<g id="edge13" class="edge">
<title>presenter/components/ecosystem/Me/Me.tsx&#45;&gt;presenter/components/ecosystem/Me/Placeholder.tsx</title>
<path fill="none" stroke="#757575" d="M798.4518,-352.6243C814.2988,-352.6243 830.5254,-352.6243 846.7111,-352.6243"/>
<polygon fill="#757575" stroke="#757575" points="846.78,-356.1244 856.78,-352.6243 846.78,-349.1244 846.78,-356.1244"/>
</g>
<!-- presenter/components/ecosystem/Me/index.ts -->
<g id="node19" class="node">
<title>presenter/components/ecosystem/Me/index.ts</title>
<path fill="none" stroke="#c6c5fe" d="M365.1593,-365.374C365.1593,-365.374 60.2059,-365.374 60.2059,-365.374 55.956,-365.374 51.7061,-361.1241 51.7061,-356.8742 51.7061,-356.8742 51.7061,-348.3743 51.7061,-348.3743 51.7061,-344.1244 55.956,-339.8745 60.2059,-339.8745 60.2059,-339.8745 365.1593,-339.8745 365.1593,-339.8745 369.4093,-339.8745 373.6592,-344.1244 373.6592,-348.3743 373.6592,-348.3743 373.6592,-356.8742 373.6592,-356.8742 373.6592,-361.1241 369.4093,-365.374 365.1593,-365.374"/>
<text text-anchor="middle" x="212.6826" y="-349.2485" font-family="Arial" font-size="15.00" fill="#c6c5fe">presenter/components/ecosystem/Me/index.ts</text>
</g>
<!-- presenter/components/ecosystem/Me/index.ts&#45;&gt;presenter/components/ecosystem/Me/Me.tsx -->
<g id="edge14" class="edge">
<title>presenter/components/ecosystem/Me/index.ts&#45;&gt;presenter/components/ecosystem/Me/Me.tsx</title>
<path fill="none" stroke="#757575" d="M373.7374,-352.6243C406.3206,-352.6243 440.6554,-352.6243 473.4593,-352.6243"/>
<polygon fill="#757575" stroke="#757575" points="473.5871,-356.1244 483.5871,-352.6243 473.587,-349.1244 473.5871,-356.1244"/>
</g>
<!-- presenter/containers/ErrorBoundary.tsx -->
<g id="node20" class="node">
<title>presenter/containers/ErrorBoundary.tsx</title>
<path fill="none" stroke="#cfffac" d="M342.3592,-408.374C342.3592,-408.374 83.006,-408.374 83.006,-408.374 78.7561,-408.374 74.5062,-404.1241 74.5062,-399.8742 74.5062,-399.8742 74.5062,-391.3743 74.5062,-391.3743 74.5062,-387.1244 78.7561,-382.8745 83.006,-382.8745 83.006,-382.8745 342.3592,-382.8745 342.3592,-382.8745 346.6092,-382.8745 350.8591,-387.1244 350.8591,-391.3743 350.8591,-391.3743 350.8591,-399.8742 350.8591,-399.8742 350.8591,-404.1241 346.6092,-408.374 342.3592,-408.374"/>
<text text-anchor="middle" x="212.6826" y="-392.2485" font-family="Arial" font-size="15.00" fill="#cfffac">presenter/containers/ErrorBoundary.tsx</text>
</g>
<!-- useCase/useMe/index.ts -->
<g id="node21" class="node">
<title>useCase/useMe/index.ts</title>
<path fill="none" stroke="#c6c5fe" d="M294.4359,-197.374C294.4359,-197.374 130.9294,-197.374 130.9294,-197.374 126.6794,-197.374 122.4295,-193.1241 122.4295,-188.8742 122.4295,-188.8742 122.4295,-180.3743 122.4295,-180.3743 122.4295,-176.1244 126.6794,-171.8745 130.9294,-171.8745 130.9294,-171.8745 294.4359,-171.8745 294.4359,-171.8745 298.6858,-171.8745 302.9357,-176.1244 302.9357,-180.3743 302.9357,-180.3743 302.9357,-188.8742 302.9357,-188.8742 302.9357,-193.1241 298.6858,-197.374 294.4359,-197.374"/>
<text text-anchor="middle" x="212.6826" y="-181.2485" font-family="Arial" font-size="15.00" fill="#c6c5fe">useCase/useMe/index.ts</text>
</g>
<!-- useCase/useMe/useMe.ts -->
<g id="node22" class="node">
<title>useCase/useMe/useMe.ts</title>
<path fill="none" stroke="#c6c5fe" d="M727.527,-197.374C727.527,-197.374 554.6947,-197.374 554.6947,-197.374 550.4448,-197.374 546.1949,-193.1241 546.1949,-188.8742 546.1949,-188.8742 546.1949,-180.3743 546.1949,-180.3743 546.1949,-176.1244 550.4448,-171.8745 554.6947,-171.8745 554.6947,-171.8745 727.527,-171.8745 727.527,-171.8745 731.7769,-171.8745 736.0268,-176.1244 736.0268,-180.3743 736.0268,-180.3743 736.0268,-188.8742 736.0268,-188.8742 736.0268,-193.1241 731.7769,-197.374 727.527,-197.374"/>
<text text-anchor="middle" x="641.1108" y="-181.2485" font-family="Arial" font-size="15.00" fill="#c6c5fe">useCase/useMe/useMe.ts</text>
</g>
<!-- useCase/useMe/index.ts&#45;&gt;useCase/useMe/useMe.ts -->
<g id="edge15" class="edge">
<title>useCase/useMe/index.ts&#45;&gt;useCase/useMe/useMe.ts</title>
<path fill="none" stroke="#757575" d="M303.0177,-184.6243C370.9924,-184.6243 464.3229,-184.6243 535.7058,-184.6243"/>
<polygon fill="#757575" stroke="#757575" points="536.0729,-188.1244 546.0729,-184.6243 536.0728,-181.1244 536.0729,-188.1244"/>
</g>
<!-- useCase/useMe/useMe.ts&#45;&gt;useCase/useMe/type.ts -->
<g id="edge16" class="edge">
<title>useCase/useMe/useMe.ts&#45;&gt;useCase/useMe/type.ts</title>
<path fill="none" stroke="#757575" d="M736.0655,-194.3147C799.4911,-200.7875 882.6497,-209.2742 946.3872,-215.7788"/>
<polygon fill="#757575" stroke="#757575" points="946.1402,-219.2717 956.4439,-216.8051 946.8509,-212.3079 946.1402,-219.2717"/>
</g>
</g>
</svg>
