<?xml version="1.0" encoding="UTF-8" standalone="no"?>
<!DOCTYPE svg PUBLIC "-//W3C//DTD SVG 1.1//EN"
 "http://www.w3.org/Graphics/SVG/1.1/DTD/svg11.dtd">
<!-- Generated by graphviz version 2.40.1 (20161225.0304)
 -->
<!-- Title: G Pages: 1 -->
<svg width="1934pt" height="223pt"
 viewBox="0.00 0.00 1933.60 222.67" xmlns="http://www.w3.org/2000/svg" xmlns:xlink="http://www.w3.org/1999/xlink">
<g id="graph0" class="graph" transform="scale(1 1) rotate(0) translate(21.6 201.0717)">
<title>G</title>
<polygon fill="#111111" stroke="transparent" points="-21.6,21.6 -21.6,-201.0717 1911.995,-201.0717 1911.995,21.6 -21.6,21.6"/>
<!-- ../domain/me/index.ts -->
<g id="node1" class="node">
<title>../domain/me/index.ts</title>
<path fill="none" stroke="#c6c5fe" d="M1406.6777,-179.5972C1406.6777,-179.5972 1265.5444,-179.5972 1265.5444,-179.5972 1261.2945,-179.5972 1257.0446,-175.3472 1257.0446,-171.0973 1257.0446,-171.0973 1257.0446,-162.5975 1257.0446,-162.5975 1257.0446,-158.3476 1261.2945,-154.0976 1265.5444,-154.0976 1265.5444,-154.0976 1406.6777,-154.0976 1406.6777,-154.0976 1410.9277,-154.0976 1415.1776,-158.3476 1415.1776,-162.5975 1415.1776,-162.5975 1415.1776,-171.0973 1415.1776,-171.0973 1415.1776,-175.3472 1410.9277,-179.5972 1406.6777,-179.5972"/>
<text text-anchor="middle" x="1336.1111" y="-163.4717" font-family="Arial" font-size="15.00" fill="#c6c5fe">../domain/me/index.ts</text>
</g>
<!-- ../domain/me/me.ts -->
<g id="node2" class="node">
<title>../domain/me/me.ts</title>
<path fill="none" stroke="#cfffac" d="M1673.7572,-179.5972C1673.7572,-179.5972 1547.6676,-179.5972 1547.6676,-179.5972 1543.4177,-179.5972 1539.1677,-175.3472 1539.1677,-171.0973 1539.1677,-171.0973 1539.1677,-162.5975 1539.1677,-162.5975 1539.1677,-158.3476 1543.4177,-154.0976 1547.6676,-154.0976 1547.6676,-154.0976 1673.7572,-154.0976 1673.7572,-154.0976 1678.0071,-154.0976 1682.2571,-158.3476 1682.2571,-162.5975 1682.2571,-162.5975 1682.2571,-171.0973 1682.2571,-171.0973 1682.2571,-175.3472 1678.0071,-179.5972 1673.7572,-179.5972"/>
<text text-anchor="middle" x="1610.7124" y="-163.4717" font-family="Arial" font-size="15.00" fill="#cfffac">../domain/me/me.ts</text>
</g>
<!-- ../domain/me/index.ts&#45;&gt;../domain/me/me.ts -->
<g id="edge1" class="edge">
<title>../domain/me/index.ts&#45;&gt;../domain/me/me.ts</title>
<path fill="none" stroke="#757575" d="M1415.5372,-166.8474C1451.0024,-166.8474 1492.7735,-166.8474 1528.5533,-166.8474"/>
<polygon fill="#757575" stroke="#757575" points="1528.9621,-170.3475 1538.962,-166.8474 1528.962,-163.3475 1528.9621,-170.3475"/>
</g>
<!-- ../domain/me/type.ts -->
<g id="node3" class="node">
<title>../domain/me/type.ts</title>
<path fill="none" stroke="#cfffac" d="M1881.9245,-117.5972C1881.9245,-117.5972 1747.807,-117.5972 1747.807,-117.5972 1743.557,-117.5972 1739.3071,-113.3472 1739.3071,-109.0973 1739.3071,-109.0973 1739.3071,-100.5975 1739.3071,-100.5975 1739.3071,-96.3476 1743.557,-92.0976 1747.807,-92.0976 1747.807,-92.0976 1881.9245,-92.0976 1881.9245,-92.0976 1886.1744,-92.0976 1890.4243,-96.3476 1890.4243,-100.5975 1890.4243,-100.5975 1890.4243,-109.0973 1890.4243,-109.0973 1890.4243,-113.3472 1886.1744,-117.5972 1881.9245,-117.5972"/>
<text text-anchor="middle" x="1814.8657" y="-101.4717" font-family="Arial" font-size="15.00" fill="#cfffac">../domain/me/type.ts</text>
</g>
<!-- ../domain/me/index.ts&#45;&gt;../domain/me/type.ts -->
<g id="edge2" class="edge">
<title>../domain/me/index.ts&#45;&gt;../domain/me/type.ts</title>
<path fill="none" stroke="#757575" d="M1415.4362,-156.5746C1501.9227,-145.3744 1639.8515,-127.5122 1728.8774,-115.9831"/>
<polygon fill="#757575" stroke="#757575" points="1729.4791,-119.4345 1738.9468,-114.6791 1728.58,-112.4925 1729.4791,-119.4345"/>
</g>
<!-- ../useCase/useMe/index.ts -->
<g id="node4" class="node">
<title>../useCase/useMe/index.ts</title>
<path fill="none" stroke="#c6c5fe" d="M827.5584,-55.5972C827.5584,-55.5972 652.0471,-55.5972 652.0471,-55.5972 647.7971,-55.5972 643.5472,-51.3472 643.5472,-47.0973 643.5472,-47.0973 643.5472,-38.5975 643.5472,-38.5975 643.5472,-34.3476 647.7971,-30.0976 652.0471,-30.0976 652.0471,-30.0976 827.5584,-30.0976 827.5584,-30.0976 831.8083,-30.0976 836.0583,-34.3476 836.0583,-38.5975 836.0583,-38.5975 836.0583,-47.0973 836.0583,-47.0973 836.0583,-51.3472 831.8083,-55.5972 827.5584,-55.5972"/>
<text text-anchor="middle" x="739.8027" y="-39.4717" font-family="Arial" font-size="15.00" fill="#c6c5fe">../useCase/useMe/index.ts</text>
</g>
<!-- ../useCase/useMe/interactor.tsx -->
<g id="node5" class="node">
<title>../useCase/useMe/interactor.tsx</title>
<path fill="none" stroke="#c6c5fe" d="M1145.6816,-97.5972C1145.6816,-97.5972 936.4908,-97.5972 936.4908,-97.5972 932.2409,-97.5972 927.9909,-93.3472 927.9909,-89.0973 927.9909,-89.0973 927.9909,-80.5975 927.9909,-80.5975 927.9909,-76.3476 932.2409,-72.0976 936.4908,-72.0976 936.4908,-72.0976 1145.6816,-72.0976 1145.6816,-72.0976 1149.9315,-72.0976 1154.1814,-76.3476 1154.1814,-80.5975 1154.1814,-80.5975 1154.1814,-89.0973 1154.1814,-89.0973 1154.1814,-93.3472 1149.9315,-97.5972 1145.6816,-97.5972"/>
<text text-anchor="middle" x="1041.0862" y="-81.4717" font-family="Arial" font-size="15.00" fill="#c6c5fe">../useCase/useMe/interactor.tsx</text>
</g>
<!-- ../useCase/useMe/index.ts&#45;&gt;../useCase/useMe/interactor.tsx -->
<g id="edge3" class="edge">
<title>../useCase/useMe/index.ts&#45;&gt;../useCase/useMe/interactor.tsx</title>
<path fill="none" stroke="#757575" d="M831.9857,-55.5198C851.7979,-58.2556 872.6165,-61.1396 892.0386,-63.8474 908.0063,-66.0736 924.9343,-68.4465 941.4323,-70.766"/>
<polygon fill="#757575" stroke="#757575" points="941.2466,-74.2742 951.6367,-72.2015 942.2218,-67.3425 941.2466,-74.2742"/>
</g>
<!-- ../useCase/useMe/useMe.ts -->
<g id="node6" class="node">
<title>../useCase/useMe/useMe.ts</title>
<path fill="none" stroke="#c6c5fe" d="M1133.5043,-34.5972C1133.5043,-34.5972 948.668,-34.5972 948.668,-34.5972 944.4181,-34.5972 940.1682,-30.3472 940.1682,-26.0973 940.1682,-26.0973 940.1682,-17.5975 940.1682,-17.5975 940.1682,-13.3476 944.4181,-9.0976 948.668,-9.0976 948.668,-9.0976 1133.5043,-9.0976 1133.5043,-9.0976 1137.7542,-9.0976 1142.0042,-13.3476 1142.0042,-17.5975 1142.0042,-17.5975 1142.0042,-26.0973 1142.0042,-26.0973 1142.0042,-30.3472 1137.7542,-34.5972 1133.5043,-34.5972"/>
<text text-anchor="middle" x="1041.0862" y="-18.4717" font-family="Arial" font-size="15.00" fill="#c6c5fe">../useCase/useMe/useMe.ts</text>
</g>
<!-- ../useCase/useMe/index.ts&#45;&gt;../useCase/useMe/useMe.ts -->
<g id="edge4" class="edge">
<title>../useCase/useMe/index.ts&#45;&gt;../useCase/useMe/useMe.ts</title>
<path fill="none" stroke="#757575" d="M836.3739,-36.1162C866.1415,-34.0414 899.1569,-31.7401 929.8294,-29.6022"/>
<polygon fill="#757575" stroke="#757575" points="930.4011,-33.0709 940.1335,-28.884 929.9143,-26.0879 930.4011,-33.0709"/>
</g>
<!-- ../useCase/useMe/interactor.tsx&#45;&gt;../domain/me/index.ts -->
<g id="edge5" class="edge">
<title>../useCase/useMe/interactor.tsx&#45;&gt;../domain/me/index.ts</title>
<path fill="none" stroke="#757575" d="M1070.8526,-97.547C1100.5917,-109.8238 1147.8465,-128.2259 1190.1338,-139.8474 1208.2503,-144.8262 1227.8861,-149.1589 1246.7069,-152.8097"/>
<polygon fill="#757575" stroke="#757575" points="1246.2857,-156.292 1256.7621,-154.7118 1247.5869,-149.414 1246.2857,-156.292"/>
</g>
<!-- ../useCase/useMe/type.ts -->
<g id="node7" class="node">
<title>../useCase/useMe/type.ts</title>
<path fill="none" stroke="#c6c5fe" d="M1694.9608,-97.5972C1694.9608,-97.5972 1526.464,-97.5972 1526.464,-97.5972 1522.2141,-97.5972 1517.9642,-93.3472 1517.9642,-89.0973 1517.9642,-89.0973 1517.9642,-80.5975 1517.9642,-80.5975 1517.9642,-76.3476 1522.2141,-72.0976 1526.464,-72.0976 1526.464,-72.0976 1694.9608,-72.0976 1694.9608,-72.0976 1699.2107,-72.0976 1703.4606,-76.3476 1703.4606,-80.5975 1703.4606,-80.5975 1703.4606,-89.0973 1703.4606,-89.0973 1703.4606,-93.3472 1699.2107,-97.5972 1694.9608,-97.5972"/>
<text text-anchor="middle" x="1610.7124" y="-81.4717" font-family="Arial" font-size="15.00" fill="#c6c5fe">../useCase/useMe/type.ts</text>
</g>
<!-- ../useCase/useMe/interactor.tsx&#45;&gt;../useCase/useMe/type.ts -->
<g id="edge6" class="edge">
<title>../useCase/useMe/interactor.tsx&#45;&gt;../useCase/useMe/type.ts</title>
<path fill="none" stroke="#757575" d="M1112.1156,-97.4993C1136.735,-101.307 1164.569,-104.9708 1190.1338,-106.8474 1319.5432,-116.3466 1352.796,-117.8249 1482.0884,-106.8474 1500.8404,-105.2553 1520.9661,-102.3799 1539.5996,-99.2218"/>
<polygon fill="#757575" stroke="#757575" points="1540.2353,-102.6638 1549.485,-97.4974 1539.0323,-95.7679 1540.2353,-102.6638"/>
</g>
<!-- components/ecosystem/Me/Content.tsx -->
<g id="node8" class="node">
<title>components/ecosystem/Me/Content.tsx</title>
<path fill="none" stroke="#c6c5fe" d="M1466.7287,-97.5972C1466.7287,-97.5972 1205.4935,-97.5972 1205.4935,-97.5972 1201.2436,-97.5972 1196.9936,-93.3472 1196.9936,-89.0973 1196.9936,-89.0973 1196.9936,-80.5975 1196.9936,-80.5975 1196.9936,-76.3476 1201.2436,-72.0976 1205.4935,-72.0976 1205.4935,-72.0976 1466.7287,-72.0976 1466.7287,-72.0976 1470.9786,-72.0976 1475.2285,-76.3476 1475.2285,-80.5975 1475.2285,-80.5975 1475.2285,-89.0973 1475.2285,-89.0973 1475.2285,-93.3472 1470.9786,-97.5972 1466.7287,-97.5972"/>
<text text-anchor="middle" x="1336.1111" y="-81.4717" font-family="Arial" font-size="15.00" fill="#c6c5fe">components/ecosystem/Me/Content.tsx</text>
</g>
<!-- ../useCase/useMe/interactor.tsx&#45;&gt;components/ecosystem/Me/Content.tsx -->
<g id="edge7" class="edge">
<title>../useCase/useMe/interactor.tsx&#45;&gt;components/ecosystem/Me/Content.tsx</title>
<path fill="none" stroke="#757575" d="M1154.3068,-84.8474C1164.7739,-84.8474 1175.4848,-84.8474 1186.2126,-84.8474"/>
<polygon fill="#757575" stroke="#757575" points="1186.4958,-88.3475 1196.4958,-84.8474 1186.4958,-81.3475 1186.4958,-88.3475"/>
</g>
<!-- components/ecosystem/Me/Exception.tsx -->
<g id="node9" class="node">
<title>components/ecosystem/Me/Exception.tsx</title>
<path fill="none" stroke="#cfffac" d="M1473.5658,-54.5972C1473.5658,-54.5972 1198.6563,-54.5972 1198.6563,-54.5972 1194.4064,-54.5972 1190.1565,-50.3472 1190.1565,-46.0973 1190.1565,-46.0973 1190.1565,-37.5975 1190.1565,-37.5975 1190.1565,-33.3476 1194.4064,-29.0976 1198.6563,-29.0976 1198.6563,-29.0976 1473.5658,-29.0976 1473.5658,-29.0976 1477.8158,-29.0976 1482.0657,-33.3476 1482.0657,-37.5975 1482.0657,-37.5975 1482.0657,-46.0973 1482.0657,-46.0973 1482.0657,-50.3472 1477.8158,-54.5972 1473.5658,-54.5972"/>
<text text-anchor="middle" x="1336.1111" y="-38.4717" font-family="Arial" font-size="15.00" fill="#cfffac">components/ecosystem/Me/Exception.tsx</text>
</g>
<!-- ../useCase/useMe/interactor.tsx&#45;&gt;components/ecosystem/Me/Exception.tsx -->
<g id="edge8" class="edge">
<title>../useCase/useMe/interactor.tsx&#45;&gt;components/ecosystem/Me/Exception.tsx</title>
<path fill="none" stroke="#757575" d="M1126.5954,-72.1709C1147.3857,-69.104 1169.5566,-65.8461 1190.1338,-62.8474 1205.4099,-60.6212 1221.5877,-58.2788 1237.395,-55.9983"/>
<polygon fill="#757575" stroke="#757575" points="1238.3177,-59.4016 1247.716,-54.5106 1237.3189,-52.4732 1238.3177,-59.4016"/>
</g>
<!-- ../useCase/useMe/useMe.ts&#45;&gt;../useCase/useMe/type.ts -->
<g id="edge10" class="edge">
<title>../useCase/useMe/useMe.ts&#45;&gt;../useCase/useMe/type.ts</title>
<path fill="none" stroke="#757575" d="M1130.7722,-9.1871C1220.8937,.6956 1363.1101,8.5079 1482.0884,-19.8474 1519.8052,-28.8362 1558.9921,-50.7612 1584.0481,-66.6668"/>
<polygon fill="#757575" stroke="#757575" points="1582.3164,-69.7152 1592.6111,-72.2192 1586.1248,-63.8419 1582.3164,-69.7152"/>
</g>
<!-- ../useCase/useMe/type.ts&#45;&gt;../domain/me/type.ts -->
<g id="edge9" class="edge">
<title>../useCase/useMe/type.ts&#45;&gt;../domain/me/type.ts</title>
<path fill="none" stroke="#757575" d="M1703.5298,-93.9403C1711.9917,-94.7693 1720.5393,-95.6067 1728.9372,-96.4294"/>
<polygon fill="#757575" stroke="#757575" points="1728.7972,-99.9323 1739.0908,-97.4241 1729.4797,-92.9657 1728.7972,-99.9323"/>
</g>
<!-- components/ecosystem/Me/Content.tsx&#45;&gt;../useCase/useMe/type.ts -->
<g id="edge11" class="edge">
<title>components/ecosystem/Me/Content.tsx&#45;&gt;../useCase/useMe/type.ts</title>
<path fill="none" stroke="#757575" d="M1475.4229,-84.8474C1486.2885,-84.8474 1497.1374,-84.8474 1507.6971,-84.8474"/>
<polygon fill="#757575" stroke="#757575" points="1507.724,-88.3475 1517.724,-84.8474 1507.7239,-81.3475 1507.724,-88.3475"/>
</g>
<!-- components/ecosystem/Me/Me.tsx -->
<g id="node10" class="node">
<title>components/ecosystem/Me/Me.tsx</title>
<path fill="none" stroke="#c6c5fe" d="M541.3488,-98.5972C541.3488,-98.5972 311.5125,-98.5972 311.5125,-98.5972 307.2626,-98.5972 303.0127,-94.3472 303.0127,-90.0973 303.0127,-90.0973 303.0127,-81.5975 303.0127,-81.5975 303.0127,-77.3476 307.2626,-73.0976 311.5125,-73.0976 311.5125,-73.0976 541.3488,-73.0976 541.3488,-73.0976 545.5987,-73.0976 549.8486,-77.3476 549.8486,-81.5975 549.8486,-81.5975 549.8486,-90.0973 549.8486,-90.0973 549.8486,-94.3472 545.5987,-98.5972 541.3488,-98.5972"/>
<text text-anchor="middle" x="426.4307" y="-82.4717" font-family="Arial" font-size="15.00" fill="#c6c5fe">components/ecosystem/Me/Me.tsx</text>
</g>
<!-- components/ecosystem/Me/Placeholder.tsx -->
<g id="node11" class="node">
<title>components/ecosystem/Me/Placeholder.tsx</title>
<path fill="none" stroke="#cfffac" d="M883.7749,-98.5972C883.7749,-98.5972 595.8305,-98.5972 595.8305,-98.5972 591.5806,-98.5972 587.3307,-94.3472 587.3307,-90.0973 587.3307,-90.0973 587.3307,-81.5975 587.3307,-81.5975 587.3307,-77.3476 591.5806,-73.0976 595.8305,-73.0976 595.8305,-73.0976 883.7749,-73.0976 883.7749,-73.0976 888.0249,-73.0976 892.2748,-77.3476 892.2748,-81.5975 892.2748,-81.5975 892.2748,-90.0973 892.2748,-90.0973 892.2748,-94.3472 888.0249,-98.5972 883.7749,-98.5972"/>
<text text-anchor="middle" x="739.8027" y="-82.4717" font-family="Arial" font-size="15.00" fill="#cfffac">components/ecosystem/Me/Placeholder.tsx</text>
</g>
<!-- components/ecosystem/Me/Me.tsx&#45;&gt;components/ecosystem/Me/Placeholder.tsx -->
<g id="edge12" class="edge">
<title>components/ecosystem/Me/Me.tsx&#45;&gt;components/ecosystem/Me/Placeholder.tsx</title>
<path fill="none" stroke="#757575" d="M550.2836,-85.8474C559.1711,-85.8474 568.2061,-85.8474 577.2672,-85.8474"/>
<polygon fill="#757575" stroke="#757575" points="577.5022,-89.3475 587.5022,-85.8474 577.5022,-82.3475 577.5022,-89.3475"/>
</g>
<!-- components/ecosystem/Me/index.ts -->
<g id="node12" class="node">
<title>components/ecosystem/Me/index.ts</title>
<path fill="none" stroke="#c6c5fe" d="M251.5877,-98.5972C251.5877,-98.5972 13.7067,-98.5972 13.7067,-98.5972 9.4568,-98.5972 5.2069,-94.3472 5.2069,-90.0973 5.2069,-90.0973 5.2069,-81.5975 5.2069,-81.5975 5.2069,-77.3476 9.4568,-73.0976 13.7067,-73.0976 13.7067,-73.0976 251.5877,-73.0976 251.5877,-73.0976 255.8376,-73.0976 260.0875,-77.3476 260.0875,-81.5975 260.0875,-81.5975 260.0875,-90.0973 260.0875,-90.0973 260.0875,-94.3472 255.8376,-98.5972 251.5877,-98.5972"/>
<text text-anchor="middle" x="132.6472" y="-82.4717" font-family="Arial" font-size="15.00" fill="#c6c5fe">components/ecosystem/Me/index.ts</text>
</g>
<!-- components/ecosystem/Me/index.ts&#45;&gt;components/ecosystem/Me/Me.tsx -->
<g id="edge13" class="edge">
<title>components/ecosystem/Me/index.ts&#45;&gt;components/ecosystem/Me/Me.tsx</title>
<path fill="none" stroke="#757575" d="M260.2232,-85.8474C270.9019,-85.8474 281.7192,-85.8474 292.444,-85.8474"/>
<polygon fill="#757575" stroke="#757575" points="292.6907,-89.3475 302.6907,-85.8474 292.6906,-82.3475 292.6907,-89.3475"/>
</g>
<!-- components/environment/Me/Me.ts -->
<g id="node13" class="node">
<title>components/environment/Me/Me.ts</title>
<path fill="none" stroke="#c6c5fe" d="M543.2034,-55.5972C543.2034,-55.5972 309.6579,-55.5972 309.6579,-55.5972 305.408,-55.5972 301.1581,-51.3472 301.1581,-47.0973 301.1581,-47.0973 301.1581,-38.5975 301.1581,-38.5975 301.1581,-34.3476 305.408,-30.0976 309.6579,-30.0976 309.6579,-30.0976 543.2034,-30.0976 543.2034,-30.0976 547.4533,-30.0976 551.7033,-34.3476 551.7033,-38.5975 551.7033,-38.5975 551.7033,-47.0973 551.7033,-47.0973 551.7033,-51.3472 547.4533,-55.5972 543.2034,-55.5972"/>
<text text-anchor="middle" x="426.4307" y="-39.4717" font-family="Arial" font-size="15.00" fill="#c6c5fe">components/environment/Me/Me.ts</text>
</g>
<!-- components/environment/Me/Me.ts&#45;&gt;../useCase/useMe/index.ts -->
<g id="edge14" class="edge">
<title>components/environment/Me/Me.ts&#45;&gt;../useCase/useMe/index.ts</title>
<path fill="none" stroke="#757575" d="M551.6346,-42.8474C578.5746,-42.8474 606.8097,-42.8474 632.9742,-42.8474"/>
<polygon fill="#757575" stroke="#757575" points="633.2764,-46.3475 643.2764,-42.8474 633.2763,-39.3475 633.2764,-46.3475"/>
</g>
<!-- components/environment/Me/index.ts -->
<g id="node14" class="node">
<title>components/environment/Me/index.ts</title>
<path fill="none" stroke="#c6c5fe" d="M256.942,-55.5972C256.942,-55.5972 8.3525,-55.5972 8.3525,-55.5972 4.1025,-55.5972 -.1474,-51.3472 -.1474,-47.0973 -.1474,-47.0973 -.1474,-38.5975 -.1474,-38.5975 -.1474,-34.3476 4.1025,-30.0976 8.3525,-30.0976 8.3525,-30.0976 256.942,-30.0976 256.942,-30.0976 261.1919,-30.0976 265.4418,-34.3476 265.4418,-38.5975 265.4418,-38.5975 265.4418,-47.0973 265.4418,-47.0973 265.4418,-51.3472 261.1919,-55.5972 256.942,-55.5972"/>
<text text-anchor="middle" x="132.6472" y="-39.4717" font-family="Arial" font-size="15.00" fill="#c6c5fe">components/environment/Me/index.ts</text>
</g>
<!-- components/environment/Me/index.ts&#45;&gt;components/environment/Me/Me.ts -->
<g id="edge15" class="edge">
<title>components/environment/Me/index.ts&#45;&gt;components/environment/Me/Me.ts</title>
<path fill="none" stroke="#757575" d="M265.3572,-42.8474C273.7894,-42.8474 282.2845,-42.8474 290.73,-42.8474"/>
<polygon fill="#757575" stroke="#757575" points="290.9996,-46.3475 300.9995,-42.8474 290.9995,-39.3475 290.9996,-46.3475"/>
</g>
<!-- containers/ErrorBoundary.tsx -->
<g id="node15" class="node">
<title>containers/ErrorBoundary.tsx</title>
<path fill="none" stroke="#cfffac" d="M228.7871,-141.5972C228.7871,-141.5972 36.5074,-141.5972 36.5074,-141.5972 32.2574,-141.5972 28.0075,-137.3472 28.0075,-133.0973 28.0075,-133.0973 28.0075,-124.5975 28.0075,-124.5975 28.0075,-120.3476 32.2574,-116.0976 36.5074,-116.0976 36.5074,-116.0976 228.7871,-116.0976 228.7871,-116.0976 233.037,-116.0976 237.2869,-120.3476 237.2869,-124.5975 237.2869,-124.5975 237.2869,-133.0973 237.2869,-133.0973 237.2869,-137.3472 233.037,-141.5972 228.7871,-141.5972"/>
<text text-anchor="middle" x="132.6472" y="-125.4717" font-family="Arial" font-size="15.00" fill="#cfffac">containers/ErrorBoundary.tsx</text>
</g>
</g>
</svg>
