<?xml version="1.0" encoding="UTF-8" standalone="no"?>
<!DOCTYPE svg PUBLIC "-//W3C//DTD SVG 1.1//EN"
 "http://www.w3.org/Graphics/SVG/1.1/DTD/svg11.dtd">
<!-- Generated by graphviz version 2.40.1 (20161225.0304)
 -->
<!-- Title: G Pages: 1 -->
<svg width="1069pt" height="312pt"
 viewBox="0.00 0.00 1069.45 312.45" xmlns="http://www.w3.org/2000/svg" xmlns:xlink="http://www.w3.org/1999/xlink">
<g id="graph0" class="graph" transform="scale(1 1) rotate(0) translate(21.6 290.8485)">
<title>G</title>
<polygon fill="#111111" stroke="transparent" points="-21.6,21.6 -21.6,-290.8485 1047.8549,-290.8485 1047.8549,21.6 -21.6,21.6"/>
<!-- ../domain/me/index.ts -->
<g id="node1" class="node">
<title>../domain/me/index.ts</title>
<path fill="none" stroke="#c6c5fe" d="M610.3726,-150.374C610.3726,-150.374 469.2392,-150.374 469.2392,-150.374 464.9893,-150.374 460.7394,-146.1241 460.7394,-141.8742 460.7394,-141.8742 460.7394,-133.3743 460.7394,-133.3743 460.7394,-129.1244 464.9893,-124.8745 469.2392,-124.8745 469.2392,-124.8745 610.3726,-124.8745 610.3726,-124.8745 614.6225,-124.8745 618.8724,-129.1244 618.8724,-133.3743 618.8724,-133.3743 618.8724,-141.8742 618.8724,-141.8742 618.8724,-146.1241 614.6225,-150.374 610.3726,-150.374"/>
<text text-anchor="middle" x="539.8059" y="-134.2485" font-family="Arial" font-size="15.00" fill="#c6c5fe">../domain/me/index.ts</text>
</g>
<!-- ../domain/me/me.ts -->
<g id="node2" class="node">
<title>../domain/me/me.ts</title>
<path fill="none" stroke="#cfffac" d="M937.0639,-183.374C937.0639,-183.374 810.9742,-183.374 810.9742,-183.374 806.7243,-183.374 802.4744,-179.1241 802.4744,-174.8742 802.4744,-174.8742 802.4744,-166.3743 802.4744,-166.3743 802.4744,-162.1244 806.7243,-157.8745 810.9742,-157.8745 810.9742,-157.8745 937.0639,-157.8745 937.0639,-157.8745 941.3138,-157.8745 945.5637,-162.1244 945.5637,-166.3743 945.5637,-166.3743 945.5637,-174.8742 945.5637,-174.8742 945.5637,-179.1241 941.3138,-183.374 937.0639,-183.374"/>
<text text-anchor="middle" x="874.019" y="-167.2485" font-family="Arial" font-size="15.00" fill="#cfffac">../domain/me/me.ts</text>
</g>
<!-- ../domain/me/index.ts&#45;&gt;../domain/me/me.ts -->
<g id="edge1" class="edge">
<title>../domain/me/index.ts&#45;&gt;../domain/me/me.ts</title>
<path fill="none" stroke="#757575" d="M619.0098,-145.4448C671.2364,-150.6016 739.4772,-157.3397 792.2227,-162.5477"/>
<polygon fill="#757575" stroke="#757575" points="791.9238,-166.0352 802.2193,-163.5348 792.6117,-159.069 791.9238,-166.0352"/>
</g>
<!-- ../domain/me/type.ts -->
<g id="node3" class="node">
<title>../domain/me/type.ts</title>
<path fill="none" stroke="#cfffac" d="M941.0778,-140.374C941.0778,-140.374 806.9603,-140.374 806.9603,-140.374 802.7104,-140.374 798.4604,-136.1241 798.4604,-131.8742 798.4604,-131.8742 798.4604,-123.3743 798.4604,-123.3743 798.4604,-119.1244 802.7104,-114.8745 806.9603,-114.8745 806.9603,-114.8745 941.0778,-114.8745 941.0778,-114.8745 945.3277,-114.8745 949.5776,-119.1244 949.5776,-123.3743 949.5776,-123.3743 949.5776,-131.8742 949.5776,-131.8742 949.5776,-136.1241 945.3277,-140.374 941.0778,-140.374"/>
<text text-anchor="middle" x="874.019" y="-124.2485" font-family="Arial" font-size="15.00" fill="#cfffac">../domain/me/type.ts</text>
</g>
<!-- ../domain/me/index.ts&#45;&gt;../domain/me/type.ts -->
<g id="edge2" class="edge">
<title>../domain/me/index.ts&#45;&gt;../domain/me/type.ts</title>
<path fill="none" stroke="#757575" d="M619.0098,-135.2544C669.8611,-133.7329 735.8942,-131.7571 788.024,-130.1973"/>
<polygon fill="#757575" stroke="#757575" points="788.3652,-133.6888 798.256,-129.8912 788.1557,-126.6919 788.3652,-133.6888"/>
</g>
<!-- ../useCase/useMe/type.ts -->
<g id="node4" class="node">
<title>../useCase/useMe/type.ts</title>
<path fill="none" stroke="#cfffac" d="M958.2674,-87.374C958.2674,-87.374 789.7707,-87.374 789.7707,-87.374 785.5208,-87.374 781.2708,-83.1241 781.2708,-78.8742 781.2708,-78.8742 781.2708,-70.3743 781.2708,-70.3743 781.2708,-66.1244 785.5208,-61.8745 789.7707,-61.8745 789.7707,-61.8745 958.2674,-61.8745 958.2674,-61.8745 962.5173,-61.8745 966.7673,-66.1244 966.7673,-70.3743 966.7673,-70.3743 966.7673,-78.8742 966.7673,-78.8742 966.7673,-83.1241 962.5173,-87.374 958.2674,-87.374"/>
<text text-anchor="middle" x="874.019" y="-71.2485" font-family="Arial" font-size="15.00" fill="#cfffac">../useCase/useMe/type.ts</text>
</g>
<!-- components/ecosystem/Me/ComponentSelector.tsx -->
<g id="node5" class="node">
<title>components/ecosystem/Me/ComponentSelector.tsx</title>
<path fill="none" stroke="#c6c5fe" d="M349.2431,-89.374C349.2431,-89.374 8.5855,-89.374 8.5855,-89.374 4.3356,-89.374 .0857,-85.1241 .0857,-80.8742 .0857,-80.8742 .0857,-72.3743 .0857,-72.3743 .0857,-68.1244 4.3356,-63.8745 8.5855,-63.8745 8.5855,-63.8745 349.2431,-63.8745 349.2431,-63.8745 353.493,-63.8745 357.743,-68.1244 357.743,-72.3743 357.743,-72.3743 357.743,-80.8742 357.743,-80.8742 357.743,-85.1241 353.493,-89.374 349.2431,-89.374"/>
<text text-anchor="middle" x="178.9143" y="-73.2485" font-family="Arial" font-size="15.00" fill="#c6c5fe">components/ecosystem/Me/ComponentSelector.tsx</text>
</g>
<!-- components/ecosystem/Me/ComponentSelector.tsx&#45;&gt;../domain/me/index.ts -->
<g id="edge3" class="edge">
<title>components/ecosystem/Me/ComponentSelector.tsx&#45;&gt;../domain/me/index.ts</title>
<path fill="none" stroke="#757575" d="M253.6913,-89.2635C312.2652,-99.164 393.775,-112.9413 454.8179,-123.2591"/>
<polygon fill="#757575" stroke="#757575" points="454.3715,-126.7332 464.815,-124.9489 455.5382,-119.8311 454.3715,-126.7332"/>
</g>
<!-- components/ecosystem/Me/ComponentSelector.tsx&#45;&gt;../useCase/useMe/type.ts -->
<g id="edge4" class="edge">
<title>components/ecosystem/Me/ComponentSelector.tsx&#45;&gt;../useCase/useMe/type.ts</title>
<path fill="none" stroke="#757575" d="M357.7821,-77.8439C454.8311,-78.2871 576.8888,-78.492 685.7832,-77.6243 713.436,-77.4039 743.3718,-77.0015 771.0608,-76.5615"/>
<polygon fill="#757575" stroke="#757575" points="771.21,-80.0596 781.1519,-76.3979 771.0965,-73.0605 771.21,-80.0596"/>
</g>
<!-- components/ecosystem/Me/Content.tsx -->
<g id="node6" class="node">
<title>components/ecosystem/Me/Content.tsx</title>
<path fill="none" stroke="#c6c5fe" d="M670.4235,-68.374C670.4235,-68.374 409.1883,-68.374 409.1883,-68.374 404.9384,-68.374 400.6885,-64.1241 400.6885,-59.8742 400.6885,-59.8742 400.6885,-51.3743 400.6885,-51.3743 400.6885,-47.1244 404.9384,-42.8745 409.1883,-42.8745 409.1883,-42.8745 670.4235,-42.8745 670.4235,-42.8745 674.6734,-42.8745 678.9234,-47.1244 678.9234,-51.3743 678.9234,-51.3743 678.9234,-59.8742 678.9234,-59.8742 678.9234,-64.1241 674.6734,-68.374 670.4235,-68.374"/>
<text text-anchor="middle" x="539.8059" y="-52.2485" font-family="Arial" font-size="15.00" fill="#c6c5fe">components/ecosystem/Me/Content.tsx</text>
</g>
<!-- components/ecosystem/Me/ComponentSelector.tsx&#45;&gt;components/ecosystem/Me/Content.tsx -->
<g id="edge5" class="edge">
<title>components/ecosystem/Me/ComponentSelector.tsx&#45;&gt;components/ecosystem/Me/Content.tsx</title>
<path fill="none" stroke="#757575" d="M357.7742,-66.2166C368.6539,-65.5835 379.5412,-64.9499 390.278,-64.3252"/>
<polygon fill="#757575" stroke="#757575" points="390.7411,-67.8042 400.5208,-63.7292 390.3344,-60.8161 390.7411,-67.8042"/>
</g>
<!-- components/ecosystem/Me/Exception.tsx -->
<g id="node7" class="node">
<title>components/ecosystem/Me/Exception.tsx</title>
<path fill="none" stroke="#cfffac" d="M677.2607,-25.374C677.2607,-25.374 402.3512,-25.374 402.3512,-25.374 398.1012,-25.374 393.8513,-21.1241 393.8513,-16.8742 393.8513,-16.8742 393.8513,-8.3743 393.8513,-8.3743 393.8513,-4.1244 398.1012,.1255 402.3512,.1255 402.3512,.1255 677.2607,.1255 677.2607,.1255 681.5106,.1255 685.7605,-4.1244 685.7605,-8.3743 685.7605,-8.3743 685.7605,-16.8742 685.7605,-16.8742 685.7605,-21.1241 681.5106,-25.374 677.2607,-25.374"/>
<text text-anchor="middle" x="539.8059" y="-9.2485" font-family="Arial" font-size="15.00" fill="#cfffac">components/ecosystem/Me/Exception.tsx</text>
</g>
<!-- components/ecosystem/Me/ComponentSelector.tsx&#45;&gt;components/ecosystem/Me/Exception.tsx -->
<g id="edge6" class="edge">
<title>components/ecosystem/Me/ComponentSelector.tsx&#45;&gt;components/ecosystem/Me/Exception.tsx</title>
<path fill="none" stroke="#757575" d="M237.5884,-63.9854C280.7012,-54.9181 340.7642,-42.7427 393.8286,-33.6243 407.6681,-31.2461 422.2775,-28.9231 436.6919,-26.7408"/>
<polygon fill="#757575" stroke="#757575" points="437.2564,-30.1954 446.6281,-25.2535 436.2201,-23.2725 437.2564,-30.1954"/>
</g>
<!-- components/ecosystem/Me/Content.tsx&#45;&gt;../useCase/useMe/type.ts -->
<g id="edge7" class="edge">
<title>components/ecosystem/Me/Content.tsx&#45;&gt;../useCase/useMe/type.ts</title>
<path fill="none" stroke="#757575" d="M679.1223,-63.5444C709.8844,-65.2932 741.9393,-67.1155 770.958,-68.7653"/>
<polygon fill="#757575" stroke="#757575" points="770.906,-72.2679 781.0886,-69.3412 771.3034,-65.2791 770.906,-72.2679"/>
</g>
<!-- components/ecosystem/Me/Me.tsx -->
<g id="node8" class="node">
<title>components/ecosystem/Me/Me.tsx</title>
<path fill="none" stroke="#c6c5fe" d="M654.724,-226.374C654.724,-226.374 424.8878,-226.374 424.8878,-226.374 420.6378,-226.374 416.3879,-222.1241 416.3879,-217.8742 416.3879,-217.8742 416.3879,-209.3743 416.3879,-209.3743 416.3879,-205.1244 420.6378,-200.8745 424.8878,-200.8745 424.8878,-200.8745 654.724,-200.8745 654.724,-200.8745 658.974,-200.8745 663.2239,-205.1244 663.2239,-209.3743 663.2239,-209.3743 663.2239,-217.8742 663.2239,-217.8742 663.2239,-222.1241 658.974,-226.374 654.724,-226.374"/>
<text text-anchor="middle" x="539.8059" y="-210.2485" font-family="Arial" font-size="15.00" fill="#c6c5fe">components/ecosystem/Me/Me.tsx</text>
</g>
<!-- components/ecosystem/Me/Placeholder.tsx -->
<g id="node9" class="node">
<title>components/ecosystem/Me/Placeholder.tsx</title>
<path fill="none" stroke="#cfffac" d="M1017.9912,-226.374C1017.9912,-226.374 730.0468,-226.374 730.0468,-226.374 725.7969,-226.374 721.547,-222.1241 721.547,-217.8742 721.547,-217.8742 721.547,-209.3743 721.547,-209.3743 721.547,-205.1244 725.7969,-200.8745 730.0468,-200.8745 730.0468,-200.8745 1017.9912,-200.8745 1017.9912,-200.8745 1022.2412,-200.8745 1026.4911,-205.1244 1026.4911,-209.3743 1026.4911,-209.3743 1026.4911,-217.8742 1026.4911,-217.8742 1026.4911,-222.1241 1022.2412,-226.374 1017.9912,-226.374"/>
<text text-anchor="middle" x="874.019" y="-210.2485" font-family="Arial" font-size="15.00" fill="#cfffac">components/ecosystem/Me/Placeholder.tsx</text>
</g>
<!-- components/ecosystem/Me/Me.tsx&#45;&gt;components/ecosystem/Me/Placeholder.tsx -->
<g id="edge8" class="edge">
<title>components/ecosystem/Me/Me.tsx&#45;&gt;components/ecosystem/Me/Placeholder.tsx</title>
<path fill="none" stroke="#757575" d="M663.305,-213.6243C679.0117,-213.6243 695.271,-213.6243 711.4732,-213.6243"/>
<polygon fill="#757575" stroke="#757575" points="711.5485,-217.1244 721.5485,-213.6243 711.5484,-210.1244 711.5485,-217.1244"/>
</g>
<!-- components/ecosystem/Me/index.ts -->
<g id="node10" class="node">
<title>components/ecosystem/Me/index.ts</title>
<path fill="none" stroke="#c6c5fe" d="M297.8548,-226.374C297.8548,-226.374 59.9738,-226.374 59.9738,-226.374 55.7239,-226.374 51.474,-222.1241 51.474,-217.8742 51.474,-217.8742 51.474,-209.3743 51.474,-209.3743 51.474,-205.1244 55.7239,-200.8745 59.9738,-200.8745 59.9738,-200.8745 297.8548,-200.8745 297.8548,-200.8745 302.1047,-200.8745 306.3546,-205.1244 306.3546,-209.3743 306.3546,-209.3743 306.3546,-217.8742 306.3546,-217.8742 306.3546,-222.1241 302.1047,-226.374 297.8548,-226.374"/>
<text text-anchor="middle" x="178.9143" y="-210.2485" font-family="Arial" font-size="15.00" fill="#c6c5fe">components/ecosystem/Me/index.ts</text>
</g>
<!-- components/ecosystem/Me/index.ts&#45;&gt;components/ecosystem/Me/Me.tsx -->
<g id="edge9" class="edge">
<title>components/ecosystem/Me/index.ts&#45;&gt;components/ecosystem/Me/Me.tsx</title>
<path fill="none" stroke="#757575" d="M306.1512,-213.6243C338.5194,-213.6243 373.3961,-213.6243 406.0772,-213.6243"/>
<polygon fill="#757575" stroke="#757575" points="406.144,-217.1244 416.1439,-213.6243 406.1439,-210.1244 406.144,-217.1244"/>
</g>
<!-- containers/ErrorBoundary.tsx -->
<g id="node11" class="node">
<title>containers/ErrorBoundary.tsx</title>
<path fill="none" stroke="#cfffac" d="M275.0542,-269.374C275.0542,-269.374 82.7745,-269.374 82.7745,-269.374 78.5245,-269.374 74.2746,-265.1241 74.2746,-260.8742 74.2746,-260.8742 74.2746,-252.3743 74.2746,-252.3743 74.2746,-248.1244 78.5245,-243.8745 82.7745,-243.8745 82.7745,-243.8745 275.0542,-243.8745 275.0542,-243.8745 279.3041,-243.8745 283.554,-248.1244 283.554,-252.3743 283.554,-252.3743 283.554,-260.8742 283.554,-260.8742 283.554,-265.1241 279.3041,-269.374 275.0542,-269.374"/>
<text text-anchor="middle" x="178.9143" y="-253.2485" font-family="Arial" font-size="15.00" fill="#cfffac">containers/ErrorBoundary.tsx</text>
</g>
</g>
</svg>
