<?xml version="1.0" encoding="UTF-8" standalone="no"?>
<!DOCTYPE svg PUBLIC "-//W3C//DTD SVG 1.1//EN"
 "http://www.w3.org/Graphics/SVG/1.1/DTD/svg11.dtd">
<!-- Generated by graphviz version 2.40.1 (20161225.0304)
 -->
<!-- Title: G Pages: 1 -->
<svg width="1002pt" height="246pt"
 viewBox="0.00 0.00 1001.98 246.45" xmlns="http://www.w3.org/2000/svg" xmlns:xlink="http://www.w3.org/1999/xlink">
<g id="graph0" class="graph" transform="scale(1 1) rotate(0) translate(21.6 224.8485)">
<title>G</title>
<polygon fill="#111111" stroke="transparent" points="-21.6,21.6 -21.6,-224.8485 980.3769,-224.8485 980.3769,21.6 -21.6,21.6"/>
<!-- ../useCase/useMe/type.ts -->
<g id="node1" class="node">
<title>../useCase/useMe/type.ts</title>
<path fill="none" stroke="#cfffac" d="M902.0357,-98.374C902.0357,-98.374 733.539,-98.374 733.539,-98.374 729.2891,-98.374 725.0391,-94.1241 725.0391,-89.8742 725.0391,-89.8742 725.0391,-81.3743 725.0391,-81.3743 725.0391,-77.1244 729.2891,-72.8745 733.539,-72.8745 733.539,-72.8745 902.0357,-72.8745 902.0357,-72.8745 906.2856,-72.8745 910.5356,-77.1244 910.5356,-81.3743 910.5356,-81.3743 910.5356,-89.8742 910.5356,-89.8742 910.5356,-94.1241 906.2856,-98.374 902.0357,-98.374"/>
<text text-anchor="middle" x="817.7874" y="-82.2485" font-family="Arial" font-size="15.00" fill="#cfffac">../useCase/useMe/type.ts</text>
</g>
<!-- components/domain/Me/ComponentSelector.tsx -->
<g id="node2" class="node">
<title>components/domain/Me/ComponentSelector.tsx</title>
<path fill="none" stroke="#c6c5fe" d="M327.0042,-68.374C327.0042,-68.374 8.3317,-68.374 8.3317,-68.374 4.0818,-68.374 -.1681,-64.1241 -.1681,-59.8742 -.1681,-59.8742 -.1681,-51.3743 -.1681,-51.3743 -.1681,-47.1244 4.0818,-42.8745 8.3317,-42.8745 8.3317,-42.8745 327.0042,-42.8745 327.0042,-42.8745 331.2542,-42.8745 335.5041,-47.1244 335.5041,-51.3743 335.5041,-51.3743 335.5041,-59.8742 335.5041,-59.8742 335.5041,-64.1241 331.2542,-68.374 327.0042,-68.374"/>
<text text-anchor="middle" x="167.668" y="-52.2485" font-family="Arial" font-size="15.00" fill="#c6c5fe">components/domain/Me/ComponentSelector.tsx</text>
</g>
<!-- components/domain/Me/ComponentSelector.tsx&#45;&gt;../useCase/useMe/type.ts -->
<g id="edge1" class="edge">
<title>components/domain/Me/ComponentSelector.tsx&#45;&gt;../useCase/useMe/type.ts</title>
<path fill="none" stroke="#757575" d="M267.9995,-68.2696C300.8753,-71.9293 337.616,-75.5052 371.3359,-77.6243 488.856,-85.0095 624.0927,-86.4472 714.6482,-86.3952"/>
<polygon fill="#757575" stroke="#757575" points="714.9197,-89.895 724.9155,-86.3828 714.9112,-82.895 714.9197,-89.895"/>
</g>
<!-- components/domain/Me/Content.tsx -->
<g id="node3" class="node">
<title>components/domain/Me/Content.tsx</title>
<path fill="none" stroke="#c6c5fe" d="M625.6916,-68.374C625.6916,-68.374 386.4422,-68.374 386.4422,-68.374 382.1923,-68.374 377.9424,-64.1241 377.9424,-59.8742 377.9424,-59.8742 377.9424,-51.3743 377.9424,-51.3743 377.9424,-47.1244 382.1923,-42.8745 386.4422,-42.8745 386.4422,-42.8745 625.6916,-42.8745 625.6916,-42.8745 629.9415,-42.8745 634.1914,-47.1244 634.1914,-51.3743 634.1914,-51.3743 634.1914,-59.8742 634.1914,-59.8742 634.1914,-64.1241 629.9415,-68.374 625.6916,-68.374"/>
<text text-anchor="middle" x="506.0669" y="-52.2485" font-family="Arial" font-size="15.00" fill="#c6c5fe">components/domain/Me/Content.tsx</text>
</g>
<!-- components/domain/Me/ComponentSelector.tsx&#45;&gt;components/domain/Me/Content.tsx -->
<g id="edge2" class="edge">
<title>components/domain/Me/ComponentSelector.tsx&#45;&gt;components/domain/Me/Content.tsx</title>
<path fill="none" stroke="#757575" d="M335.3803,-55.6243C346.2117,-55.6243 357.0511,-55.6243 367.7211,-55.6243"/>
<polygon fill="#757575" stroke="#757575" points="367.8935,-59.1244 377.8934,-55.6243 367.8934,-52.1244 367.8935,-59.1244"/>
</g>
<!-- components/domain/Me/Exception.tsx -->
<g id="node4" class="node">
<title>components/domain/Me/Exception.tsx</title>
<path fill="none" stroke="#cfffac" d="M632.5294,-25.374C632.5294,-25.374 379.6044,-25.374 379.6044,-25.374 375.3545,-25.374 371.1046,-21.1241 371.1046,-16.8742 371.1046,-16.8742 371.1046,-8.3743 371.1046,-8.3743 371.1046,-4.1244 375.3545,.1255 379.6044,.1255 379.6044,.1255 632.5294,.1255 632.5294,.1255 636.7793,.1255 641.0292,-4.1244 641.0292,-8.3743 641.0292,-8.3743 641.0292,-16.8742 641.0292,-16.8742 641.0292,-21.1241 636.7793,-25.374 632.5294,-25.374"/>
<text text-anchor="middle" x="506.0669" y="-9.2485" font-family="Arial" font-size="15.00" fill="#cfffac">components/domain/Me/Exception.tsx</text>
</g>
<!-- components/domain/Me/ComponentSelector.tsx&#45;&gt;components/domain/Me/Exception.tsx -->
<g id="edge3" class="edge">
<title>components/domain/Me/ComponentSelector.tsx&#45;&gt;components/domain/Me/Exception.tsx</title>
<path fill="none" stroke="#757575" d="M267.3685,-42.9554C307.8931,-37.806 354.8554,-31.8386 396.3491,-26.566"/>
<polygon fill="#757575" stroke="#757575" points="397.0157,-30.0095 406.4947,-25.2768 396.1332,-23.0654 397.0157,-30.0095"/>
</g>
<!-- components/domain/Me/Content.tsx&#45;&gt;../useCase/useMe/type.ts -->
<g id="edge4" class="edge">
<title>components/domain/Me/Content.tsx&#45;&gt;../useCase/useMe/type.ts</title>
<path fill="none" stroke="#757575" d="M634.205,-67.9563C661.0373,-70.5386 689.0023,-73.23 714.7795,-75.7108"/>
<polygon fill="#757575" stroke="#757575" points="714.632,-79.2127 724.9213,-76.6868 715.3026,-72.2449 714.632,-79.2127"/>
</g>
<!-- components/domain/Me/Me.tsx -->
<g id="node5" class="node">
<title>components/domain/Me/Me.tsx</title>
<path fill="none" stroke="#c6c5fe" d="M609.9927,-160.374C609.9927,-160.374 402.141,-160.374 402.141,-160.374 397.8911,-160.374 393.6412,-156.1241 393.6412,-151.8742 393.6412,-151.8742 393.6412,-143.3743 393.6412,-143.3743 393.6412,-139.1244 397.8911,-134.8745 402.141,-134.8745 402.141,-134.8745 609.9927,-134.8745 609.9927,-134.8745 614.2427,-134.8745 618.4926,-139.1244 618.4926,-143.3743 618.4926,-143.3743 618.4926,-151.8742 618.4926,-151.8742 618.4926,-156.1241 614.2427,-160.374 609.9927,-160.374"/>
<text text-anchor="middle" x="506.0669" y="-144.2485" font-family="Arial" font-size="15.00" fill="#c6c5fe">components/domain/Me/Me.tsx</text>
</g>
<!-- components/domain/Me/Placeholder.tsx -->
<g id="node6" class="node">
<title>components/domain/Me/Placeholder.tsx</title>
<path fill="none" stroke="#cfffac" d="M950.2665,-160.374C950.2665,-160.374 685.3082,-160.374 685.3082,-160.374 681.0583,-160.374 676.8083,-156.1241 676.8083,-151.8742 676.8083,-151.8742 676.8083,-143.3743 676.8083,-143.3743 676.8083,-139.1244 681.0583,-134.8745 685.3082,-134.8745 685.3082,-134.8745 950.2665,-134.8745 950.2665,-134.8745 954.5164,-134.8745 958.7664,-139.1244 958.7664,-143.3743 958.7664,-143.3743 958.7664,-151.8742 958.7664,-151.8742 958.7664,-156.1241 954.5164,-160.374 950.2665,-160.374"/>
<text text-anchor="middle" x="817.7874" y="-144.2485" font-family="Arial" font-size="15.00" fill="#cfffac">components/domain/Me/Placeholder.tsx</text>
</g>
<!-- components/domain/Me/Me.tsx&#45;&gt;components/domain/Me/Placeholder.tsx -->
<g id="edge5" class="edge">
<title>components/domain/Me/Me.tsx&#45;&gt;components/domain/Me/Placeholder.tsx</title>
<path fill="none" stroke="#757575" d="M618.6051,-147.6243C634.2023,-147.6243 650.4282,-147.6243 666.5873,-147.6243"/>
<polygon fill="#757575" stroke="#757575" points="666.6337,-151.1244 676.6337,-147.6243 666.6337,-144.1244 666.6337,-151.1244"/>
</g>
<!-- components/domain/Me/index.ts -->
<g id="node7" class="node">
<title>components/domain/Me/index.ts</title>
<path fill="none" stroke="#c6c5fe" d="M275.1154,-160.374C275.1154,-160.374 60.2205,-160.374 60.2205,-160.374 55.9706,-160.374 51.7207,-156.1241 51.7207,-151.8742 51.7207,-151.8742 51.7207,-143.3743 51.7207,-143.3743 51.7207,-139.1244 55.9706,-134.8745 60.2205,-134.8745 60.2205,-134.8745 275.1154,-134.8745 275.1154,-134.8745 279.3653,-134.8745 283.6152,-139.1244 283.6152,-143.3743 283.6152,-143.3743 283.6152,-151.8742 283.6152,-151.8742 283.6152,-156.1241 279.3653,-160.374 275.1154,-160.374"/>
<text text-anchor="middle" x="167.668" y="-144.2485" font-family="Arial" font-size="15.00" fill="#c6c5fe">components/domain/Me/index.ts</text>
</g>
<!-- components/domain/Me/index.ts&#45;&gt;components/domain/Me/Me.tsx -->
<g id="edge6" class="edge">
<title>components/domain/Me/index.ts&#45;&gt;components/domain/Me/Me.tsx</title>
<path fill="none" stroke="#757575" d="M283.6522,-147.6243C315.9029,-147.6243 351.0253,-147.6243 383.633,-147.6243"/>
<polygon fill="#757575" stroke="#757575" points="383.666,-151.1244 393.6659,-147.6243 383.6659,-144.1244 383.666,-151.1244"/>
</g>
<!-- containers/ErrorBoundary.tsx -->
<g id="node8" class="node">
<title>containers/ErrorBoundary.tsx</title>
<path fill="none" stroke="#cfffac" d="M263.8078,-203.374C263.8078,-203.374 71.5281,-203.374 71.5281,-203.374 67.2782,-203.374 63.0283,-199.1241 63.0283,-194.8742 63.0283,-194.8742 63.0283,-186.3743 63.0283,-186.3743 63.0283,-182.1244 67.2782,-177.8745 71.5281,-177.8745 71.5281,-177.8745 263.8078,-177.8745 263.8078,-177.8745 268.0577,-177.8745 272.3077,-182.1244 272.3077,-186.3743 272.3077,-186.3743 272.3077,-194.8742 272.3077,-194.8742 272.3077,-199.1241 268.0577,-203.374 263.8078,-203.374"/>
<text text-anchor="middle" x="167.668" y="-187.2485" font-family="Arial" font-size="15.00" fill="#cfffac">containers/ErrorBoundary.tsx</text>
</g>
</g>
</svg>
