<?xml version="1.0" encoding="UTF-8" standalone="no"?>
<!DOCTYPE svg PUBLIC "-//W3C//DTD SVG 1.1//EN"
 "http://www.w3.org/Graphics/SVG/1.1/DTD/svg11.dtd">
<!-- Generated by graphviz version 2.40.1 (20161225.0304)
 -->
<!-- Title: G Pages: 1 -->
<svg width="1069pt" height="246pt"
 viewBox="0.00 0.00 1069.45 246.45" xmlns="http://www.w3.org/2000/svg" xmlns:xlink="http://www.w3.org/1999/xlink">
<g id="graph0" class="graph" transform="scale(1 1) rotate(0) translate(21.6 224.8485)">
<title>G</title>
<polygon fill="#111111" stroke="transparent" points="-21.6,21.6 -21.6,-224.8485 1047.8549,-224.8485 1047.8549,21.6 -21.6,21.6"/>
<!-- ../useCase/useMe/type.ts -->
<g id="node1" class="node">
<title>../useCase/useMe/type.ts</title>
<path fill="none" stroke="#cfffac" d="M958.2674,-98.374C958.2674,-98.374 789.7707,-98.374 789.7707,-98.374 785.5208,-98.374 781.2708,-94.1241 781.2708,-89.8742 781.2708,-89.8742 781.2708,-81.3743 781.2708,-81.3743 781.2708,-77.1244 785.5208,-72.8745 789.7707,-72.8745 789.7707,-72.8745 958.2674,-72.8745 958.2674,-72.8745 962.5173,-72.8745 966.7673,-77.1244 966.7673,-81.3743 966.7673,-81.3743 966.7673,-89.8742 966.7673,-89.8742 966.7673,-94.1241 962.5173,-98.374 958.2674,-98.374"/>
<text text-anchor="middle" x="874.019" y="-82.2485" font-family="Arial" font-size="15.00" fill="#cfffac">../useCase/useMe/type.ts</text>
</g>
<!-- components/ecosystem/Me/ComponentSelector.tsx -->
<g id="node2" class="node">
<title>components/ecosystem/Me/ComponentSelector.tsx</title>
<path fill="none" stroke="#c6c5fe" d="M349.2431,-68.374C349.2431,-68.374 8.5855,-68.374 8.5855,-68.374 4.3356,-68.374 .0857,-64.1241 .0857,-59.8742 .0857,-59.8742 .0857,-51.3743 .0857,-51.3743 .0857,-47.1244 4.3356,-42.8745 8.5855,-42.8745 8.5855,-42.8745 349.2431,-42.8745 349.2431,-42.8745 353.493,-42.8745 357.743,-47.1244 357.743,-51.3743 357.743,-51.3743 357.743,-59.8742 357.743,-59.8742 357.743,-64.1241 353.493,-68.374 349.2431,-68.374"/>
<text text-anchor="middle" x="178.9143" y="-52.2485" font-family="Arial" font-size="15.00" fill="#c6c5fe">components/ecosystem/Me/ComponentSelector.tsx</text>
</g>
<!-- components/ecosystem/Me/ComponentSelector.tsx&#45;&gt;../useCase/useMe/type.ts -->
<g id="edge1" class="edge">
<title>components/ecosystem/Me/ComponentSelector.tsx&#45;&gt;../useCase/useMe/type.ts</title>
<path fill="none" stroke="#757575" d="M284.802,-68.2768C319.4942,-71.937 358.2601,-75.5113 393.8286,-77.6243 523.6527,-85.3364 673.5411,-86.6205 770.8474,-86.4467"/>
<polygon fill="#757575" stroke="#757575" points="770.9856,-89.9465 780.9774,-86.423 770.9692,-82.9465 770.9856,-89.9465"/>
</g>
<!-- components/ecosystem/Me/Content.tsx -->
<g id="node3" class="node">
<title>components/ecosystem/Me/Content.tsx</title>
<path fill="none" stroke="#c6c5fe" d="M670.4235,-68.374C670.4235,-68.374 409.1883,-68.374 409.1883,-68.374 404.9384,-68.374 400.6885,-64.1241 400.6885,-59.8742 400.6885,-59.8742 400.6885,-51.3743 400.6885,-51.3743 400.6885,-47.1244 404.9384,-42.8745 409.1883,-42.8745 409.1883,-42.8745 670.4235,-42.8745 670.4235,-42.8745 674.6734,-42.8745 678.9234,-47.1244 678.9234,-51.3743 678.9234,-51.3743 678.9234,-59.8742 678.9234,-59.8742 678.9234,-64.1241 674.6734,-68.374 670.4235,-68.374"/>
<text text-anchor="middle" x="539.8059" y="-52.2485" font-family="Arial" font-size="15.00" fill="#c6c5fe">components/ecosystem/Me/Content.tsx</text>
</g>
<!-- components/ecosystem/Me/ComponentSelector.tsx&#45;&gt;components/ecosystem/Me/Content.tsx -->
<g id="edge2" class="edge">
<title>components/ecosystem/Me/ComponentSelector.tsx&#45;&gt;components/ecosystem/Me/Content.tsx</title>
<path fill="none" stroke="#757575" d="M357.7742,-55.6243C368.6539,-55.6243 379.5412,-55.6243 390.278,-55.6243"/>
<polygon fill="#757575" stroke="#757575" points="390.5209,-59.1244 400.5208,-55.6243 390.5208,-52.1244 390.5209,-59.1244"/>
</g>
<!-- components/ecosystem/Me/Exception.tsx -->
<g id="node4" class="node">
<title>components/ecosystem/Me/Exception.tsx</title>
<path fill="none" stroke="#cfffac" d="M677.2607,-25.374C677.2607,-25.374 402.3512,-25.374 402.3512,-25.374 398.1012,-25.374 393.8513,-21.1241 393.8513,-16.8742 393.8513,-16.8742 393.8513,-8.3743 393.8513,-8.3743 393.8513,-4.1244 398.1012,.1255 402.3512,.1255 402.3512,.1255 677.2607,.1255 677.2607,.1255 681.5106,.1255 685.7605,-4.1244 685.7605,-8.3743 685.7605,-8.3743 685.7605,-16.8742 685.7605,-16.8742 685.7605,-21.1241 681.5106,-25.374 677.2607,-25.374"/>
<text text-anchor="middle" x="539.8059" y="-9.2485" font-family="Arial" font-size="15.00" fill="#cfffac">components/ecosystem/Me/Exception.tsx</text>
</g>
<!-- components/ecosystem/Me/ComponentSelector.tsx&#45;&gt;components/ecosystem/Me/Exception.tsx -->
<g id="edge3" class="edge">
<title>components/ecosystem/Me/ComponentSelector.tsx&#45;&gt;components/ecosystem/Me/Exception.tsx</title>
<path fill="none" stroke="#757575" d="M285.2418,-42.9554C328.734,-37.7733 379.1793,-31.7628 423.6367,-26.4657"/>
<polygon fill="#757575" stroke="#757575" points="424.0997,-29.9354 433.6154,-25.2768 423.2715,-22.9846 424.0997,-29.9354"/>
</g>
<!-- components/ecosystem/Me/Content.tsx&#45;&gt;../useCase/useMe/type.ts -->
<g id="edge4" class="edge">
<title>components/ecosystem/Me/Content.tsx&#45;&gt;../useCase/useMe/type.ts</title>
<path fill="none" stroke="#757575" d="M679.1223,-68.1297C709.8844,-70.891 741.9393,-73.7684 770.958,-76.3732"/>
<polygon fill="#757575" stroke="#757575" points="770.8157,-79.8744 781.0886,-77.2825 771.4415,-72.9024 770.8157,-79.8744"/>
</g>
<!-- components/ecosystem/Me/Me.tsx -->
<g id="node5" class="node">
<title>components/ecosystem/Me/Me.tsx</title>
<path fill="none" stroke="#c6c5fe" d="M654.724,-160.374C654.724,-160.374 424.8878,-160.374 424.8878,-160.374 420.6378,-160.374 416.3879,-156.1241 416.3879,-151.8742 416.3879,-151.8742 416.3879,-143.3743 416.3879,-143.3743 416.3879,-139.1244 420.6378,-134.8745 424.8878,-134.8745 424.8878,-134.8745 654.724,-134.8745 654.724,-134.8745 658.974,-134.8745 663.2239,-139.1244 663.2239,-143.3743 663.2239,-143.3743 663.2239,-151.8742 663.2239,-151.8742 663.2239,-156.1241 658.974,-160.374 654.724,-160.374"/>
<text text-anchor="middle" x="539.8059" y="-144.2485" font-family="Arial" font-size="15.00" fill="#c6c5fe">components/ecosystem/Me/Me.tsx</text>
</g>
<!-- components/ecosystem/Me/Placeholder.tsx -->
<g id="node6" class="node">
<title>components/ecosystem/Me/Placeholder.tsx</title>
<path fill="none" stroke="#cfffac" d="M1017.9912,-160.374C1017.9912,-160.374 730.0468,-160.374 730.0468,-160.374 725.7969,-160.374 721.547,-156.1241 721.547,-151.8742 721.547,-151.8742 721.547,-143.3743 721.547,-143.3743 721.547,-139.1244 725.7969,-134.8745 730.0468,-134.8745 730.0468,-134.8745 1017.9912,-134.8745 1017.9912,-134.8745 1022.2412,-134.8745 1026.4911,-139.1244 1026.4911,-143.3743 1026.4911,-143.3743 1026.4911,-151.8742 1026.4911,-151.8742 1026.4911,-156.1241 1022.2412,-160.374 1017.9912,-160.374"/>
<text text-anchor="middle" x="874.019" y="-144.2485" font-family="Arial" font-size="15.00" fill="#cfffac">components/ecosystem/Me/Placeholder.tsx</text>
</g>
<!-- components/ecosystem/Me/Me.tsx&#45;&gt;components/ecosystem/Me/Placeholder.tsx -->
<g id="edge5" class="edge">
<title>components/ecosystem/Me/Me.tsx&#45;&gt;components/ecosystem/Me/Placeholder.tsx</title>
<path fill="none" stroke="#757575" d="M663.305,-147.6243C679.0117,-147.6243 695.271,-147.6243 711.4732,-147.6243"/>
<polygon fill="#757575" stroke="#757575" points="711.5485,-151.1244 721.5485,-147.6243 711.5484,-144.1244 711.5485,-151.1244"/>
</g>
<!-- components/ecosystem/Me/index.ts -->
<g id="node7" class="node">
<title>components/ecosystem/Me/index.ts</title>
<path fill="none" stroke="#c6c5fe" d="M297.8548,-160.374C297.8548,-160.374 59.9738,-160.374 59.9738,-160.374 55.7239,-160.374 51.474,-156.1241 51.474,-151.8742 51.474,-151.8742 51.474,-143.3743 51.474,-143.3743 51.474,-139.1244 55.7239,-134.8745 59.9738,-134.8745 59.9738,-134.8745 297.8548,-134.8745 297.8548,-134.8745 302.1047,-134.8745 306.3546,-139.1244 306.3546,-143.3743 306.3546,-143.3743 306.3546,-151.8742 306.3546,-151.8742 306.3546,-156.1241 302.1047,-160.374 297.8548,-160.374"/>
<text text-anchor="middle" x="178.9143" y="-144.2485" font-family="Arial" font-size="15.00" fill="#c6c5fe">components/ecosystem/Me/index.ts</text>
</g>
<!-- components/ecosystem/Me/index.ts&#45;&gt;components/ecosystem/Me/Me.tsx -->
<g id="edge6" class="edge">
<title>components/ecosystem/Me/index.ts&#45;&gt;components/ecosystem/Me/Me.tsx</title>
<path fill="none" stroke="#757575" d="M306.1512,-147.6243C338.5194,-147.6243 373.3961,-147.6243 406.0772,-147.6243"/>
<polygon fill="#757575" stroke="#757575" points="406.144,-151.1244 416.1439,-147.6243 406.1439,-144.1244 406.144,-151.1244"/>
</g>
<!-- containers/ErrorBoundary.tsx -->
<g id="node8" class="node">
<title>containers/ErrorBoundary.tsx</title>
<path fill="none" stroke="#cfffac" d="M275.0542,-203.374C275.0542,-203.374 82.7745,-203.374 82.7745,-203.374 78.5245,-203.374 74.2746,-199.1241 74.2746,-194.8742 74.2746,-194.8742 74.2746,-186.3743 74.2746,-186.3743 74.2746,-182.1244 78.5245,-177.8745 82.7745,-177.8745 82.7745,-177.8745 275.0542,-177.8745 275.0542,-177.8745 279.3041,-177.8745 283.554,-182.1244 283.554,-186.3743 283.554,-186.3743 283.554,-194.8742 283.554,-194.8742 283.554,-199.1241 279.3041,-203.374 275.0542,-203.374"/>
<text text-anchor="middle" x="178.9143" y="-187.2485" font-family="Arial" font-size="15.00" fill="#cfffac">containers/ErrorBoundary.tsx</text>
</g>
</g>
</svg>
