<?xml version="1.0" encoding="UTF-8" standalone="no"?>
<!DOCTYPE svg PUBLIC "-//W3C//DTD SVG 1.1//EN"
 "http://www.w3.org/Graphics/SVG/1.1/DTD/svg11.dtd">
<!-- Generated by graphviz version 2.40.1 (20161225.0304)
 -->
<!-- Title: G Pages: 1 -->
<svg width="959pt" height="240pt"
 viewBox="0.00 0.00 958.54 240.45" xmlns="http://www.w3.org/2000/svg" xmlns:xlink="http://www.w3.org/1999/xlink">
<g id="graph0" class="graph" transform="scale(1 1) rotate(0) translate(21.6 218.8485)">
<title>G</title>
<polygon fill="#111111" stroke="transparent" points="-21.6,21.6 -21.6,-218.8485 936.9442,-218.8485 936.9442,21.6 -21.6,21.6"/>
<!-- ../useCase/me/type.ts -->
<g id="node1" class="node">
<title>../useCase/me/type.ts</title>
<path fill="none" stroke="#cfffac" d="M523.4772,-25.374C523.4772,-25.374 379.3499,-25.374 379.3499,-25.374 375.1,-25.374 370.8501,-21.1241 370.8501,-16.8742 370.8501,-16.8742 370.8501,-8.3743 370.8501,-8.3743 370.8501,-4.1244 375.1,.1255 379.3499,.1255 379.3499,.1255 523.4772,.1255 523.4772,.1255 527.7271,.1255 531.9771,-4.1244 531.9771,-8.3743 531.9771,-8.3743 531.9771,-16.8742 531.9771,-16.8742 531.9771,-21.1241 527.7271,-25.374 523.4772,-25.374"/>
<text text-anchor="middle" x="451.4136" y="-9.2485" font-family="Arial" font-size="15.00" fill="#cfffac">../useCase/me/type.ts</text>
</g>
<!-- components/ecosystem/Me/Content.tsx -->
<g id="node2" class="node">
<title>components/ecosystem/Me/Content.tsx</title>
<path fill="none" stroke="#c6c5fe" d="M276.5949,-25.374C276.5949,-25.374 15.3597,-25.374 15.3597,-25.374 11.1098,-25.374 6.8598,-21.1241 6.8598,-16.8742 6.8598,-16.8742 6.8598,-8.3743 6.8598,-8.3743 6.8598,-4.1244 11.1098,.1255 15.3597,.1255 15.3597,.1255 276.5949,.1255 276.5949,.1255 280.8448,.1255 285.0947,-4.1244 285.0947,-8.3743 285.0947,-8.3743 285.0947,-16.8742 285.0947,-16.8742 285.0947,-21.1241 280.8448,-25.374 276.5949,-25.374"/>
<text text-anchor="middle" x="145.9773" y="-9.2485" font-family="Arial" font-size="15.00" fill="#c6c5fe">components/ecosystem/Me/Content.tsx</text>
</g>
<!-- components/ecosystem/Me/Content.tsx&#45;&gt;../useCase/me/type.ts -->
<g id="edge1" class="edge">
<title>components/ecosystem/Me/Content.tsx&#45;&gt;../useCase/me/type.ts</title>
<path fill="none" stroke="#757575" d="M285.2883,-12.6243C310.8946,-12.6243 337.0076,-12.6243 360.7177,-12.6243"/>
<polygon fill="#757575" stroke="#757575" points="360.7237,-16.1244 370.7236,-12.6243 360.7236,-9.1244 360.7237,-16.1244"/>
</g>
<!-- components/ecosystem/Me/Exception.tsx -->
<g id="node3" class="node">
<title>components/ecosystem/Me/Exception.tsx</title>
<path fill="none" stroke="#cfffac" d="M283.432,-68.374C283.432,-68.374 8.5225,-68.374 8.5225,-68.374 4.2726,-68.374 .0227,-64.1241 .0227,-59.8742 .0227,-59.8742 .0227,-51.3743 .0227,-51.3743 .0227,-47.1244 4.2726,-42.8745 8.5225,-42.8745 8.5225,-42.8745 283.432,-42.8745 283.432,-42.8745 287.682,-42.8745 291.9319,-47.1244 291.9319,-51.3743 291.9319,-51.3743 291.9319,-59.8742 291.9319,-59.8742 291.9319,-64.1241 287.682,-68.374 283.432,-68.374"/>
<text text-anchor="middle" x="145.9773" y="-52.2485" font-family="Arial" font-size="15.00" fill="#cfffac">components/ecosystem/Me/Exception.tsx</text>
</g>
<!-- components/ecosystem/Me/Me.tsx -->
<g id="node4" class="node">
<title>components/ecosystem/Me/Me.tsx</title>
<path fill="none" stroke="#c6c5fe" d="M566.3317,-111.374C566.3317,-111.374 336.4954,-111.374 336.4954,-111.374 332.2455,-111.374 327.9956,-107.1241 327.9956,-102.8742 327.9956,-102.8742 327.9956,-94.3743 327.9956,-94.3743 327.9956,-90.1244 332.2455,-85.8745 336.4954,-85.8745 336.4954,-85.8745 566.3317,-85.8745 566.3317,-85.8745 570.5816,-85.8745 574.8316,-90.1244 574.8316,-94.3743 574.8316,-94.3743 574.8316,-102.8742 574.8316,-102.8742 574.8316,-107.1241 570.5816,-111.374 566.3317,-111.374"/>
<text text-anchor="middle" x="451.4136" y="-95.2485" font-family="Arial" font-size="15.00" fill="#c6c5fe">components/ecosystem/Me/Me.tsx</text>
</g>
<!-- components/ecosystem/Me/Placeholder.tsx -->
<g id="node5" class="node">
<title>components/ecosystem/Me/Placeholder.tsx</title>
<path fill="none" stroke="#cfffac" d="M907.0806,-111.374C907.0806,-111.374 619.1362,-111.374 619.1362,-111.374 614.8863,-111.374 610.6364,-107.1241 610.6364,-102.8742 610.6364,-102.8742 610.6364,-94.3743 610.6364,-94.3743 610.6364,-90.1244 614.8863,-85.8745 619.1362,-85.8745 619.1362,-85.8745 907.0806,-85.8745 907.0806,-85.8745 911.3305,-85.8745 915.5804,-90.1244 915.5804,-94.3743 915.5804,-94.3743 915.5804,-102.8742 915.5804,-102.8742 915.5804,-107.1241 911.3305,-111.374 907.0806,-111.374"/>
<text text-anchor="middle" x="763.1084" y="-95.2485" font-family="Arial" font-size="15.00" fill="#cfffac">components/ecosystem/Me/Placeholder.tsx</text>
</g>
<!-- components/ecosystem/Me/Me.tsx&#45;&gt;components/ecosystem/Me/Placeholder.tsx -->
<g id="edge2" class="edge">
<title>components/ecosystem/Me/Me.tsx&#45;&gt;components/ecosystem/Me/Placeholder.tsx</title>
<path fill="none" stroke="#757575" d="M575.0513,-98.6243C583.4806,-98.6243 592.0414,-98.6243 600.6291,-98.6243"/>
<polygon fill="#757575" stroke="#757575" points="600.7164,-102.1244 610.7163,-98.6243 600.7163,-95.1244 600.7164,-102.1244"/>
</g>
<!-- components/ecosystem/Me/index.ts -->
<g id="node6" class="node">
<title>components/ecosystem/Me/index.ts</title>
<path fill="none" stroke="#c6c5fe" d="M264.9178,-111.374C264.9178,-111.374 27.0368,-111.374 27.0368,-111.374 22.7869,-111.374 18.537,-107.1241 18.537,-102.8742 18.537,-102.8742 18.537,-94.3743 18.537,-94.3743 18.537,-90.1244 22.7869,-85.8745 27.0368,-85.8745 27.0368,-85.8745 264.9178,-85.8745 264.9178,-85.8745 269.1677,-85.8745 273.4176,-90.1244 273.4176,-94.3743 273.4176,-94.3743 273.4176,-102.8742 273.4176,-102.8742 273.4176,-107.1241 269.1677,-111.374 264.9178,-111.374"/>
<text text-anchor="middle" x="145.9773" y="-95.2485" font-family="Arial" font-size="15.00" fill="#c6c5fe">components/ecosystem/Me/index.ts</text>
</g>
<!-- components/ecosystem/Me/index.ts&#45;&gt;components/ecosystem/Me/Me.tsx -->
<g id="edge3" class="edge">
<title>components/ecosystem/Me/index.ts&#45;&gt;components/ecosystem/Me/Me.tsx</title>
<path fill="none" stroke="#757575" d="M273.2981,-98.6243C287.9277,-98.6243 302.8772,-98.6243 317.5892,-98.6243"/>
<polygon fill="#757575" stroke="#757575" points="317.7296,-102.1244 327.7296,-98.6243 317.7296,-95.1244 317.7296,-102.1244"/>
</g>
<!-- containers/ErrorBoundary.tsx -->
<g id="node7" class="node">
<title>containers/ErrorBoundary.tsx</title>
<path fill="none" stroke="#cfffac" d="M242.1171,-154.374C242.1171,-154.374 49.8374,-154.374 49.8374,-154.374 45.5875,-154.374 41.3376,-150.1241 41.3376,-145.8742 41.3376,-145.8742 41.3376,-137.3743 41.3376,-137.3743 41.3376,-133.1244 45.5875,-128.8745 49.8374,-128.8745 49.8374,-128.8745 242.1171,-128.8745 242.1171,-128.8745 246.3671,-128.8745 250.617,-133.1244 250.617,-137.3743 250.617,-137.3743 250.617,-145.8742 250.617,-145.8742 250.617,-150.1241 246.3671,-154.374 242.1171,-154.374"/>
<text text-anchor="middle" x="145.9773" y="-138.2485" font-family="Arial" font-size="15.00" fill="#cfffac">containers/ErrorBoundary.tsx</text>
</g>
<!-- hooks/useReRender.ts -->
<g id="node8" class="node">
<title>hooks/useReRender.ts</title>
<path fill="none" stroke="#cfffac" d="M221.2354,-197.374C221.2354,-197.374 70.7192,-197.374 70.7192,-197.374 66.4692,-197.374 62.2193,-193.1241 62.2193,-188.8742 62.2193,-188.8742 62.2193,-180.3743 62.2193,-180.3743 62.2193,-176.1244 66.4692,-171.8745 70.7192,-171.8745 70.7192,-171.8745 221.2354,-171.8745 221.2354,-171.8745 225.4854,-171.8745 229.7353,-176.1244 229.7353,-180.3743 229.7353,-180.3743 229.7353,-188.8742 229.7353,-188.8742 229.7353,-193.1241 225.4854,-197.374 221.2354,-197.374"/>
<text text-anchor="middle" x="145.9773" y="-181.2485" font-family="Arial" font-size="15.00" fill="#cfffac">hooks/useReRender.ts</text>
</g>
</g>
</svg>
