<?xml version="1.0" encoding="UTF-8" standalone="no"?>
<!DOCTYPE svg PUBLIC "-//W3C//DTD SVG 1.1//EN"
 "http://www.w3.org/Graphics/SVG/1.1/DTD/svg11.dtd">
<!-- Generated by graphviz version 2.40.1 (20161225.0304)
 -->
<!-- Title: G Pages: 1 -->
<svg width="2332pt" height="412pt"
 viewBox="0.00 0.00 2332.17 412.45" xmlns="http://www.w3.org/2000/svg" xmlns:xlink="http://www.w3.org/1999/xlink">
<g id="graph0" class="graph" transform="scale(1 1) rotate(0) translate(21.6 390.8485)">
<title>G</title>
<polygon fill="#111111" stroke="transparent" points="-21.6,21.6 -21.6,-390.8485 2310.5717,-390.8485 2310.5717,21.6 -21.6,21.6"/>
<!-- ../domain/me/index.ts -->
<g id="node1" class="node">
<title>../domain/me/index.ts</title>
<path fill="none" stroke="#c6c5fe" d="M618.7075,-240.374C618.7075,-240.374 477.5742,-240.374 477.5742,-240.374 473.3243,-240.374 469.0744,-236.1241 469.0744,-231.8742 469.0744,-231.8742 469.0744,-223.3743 469.0744,-223.3743 469.0744,-219.1244 473.3243,-214.8745 477.5742,-214.8745 477.5742,-214.8745 618.7075,-214.8745 618.7075,-214.8745 622.9575,-214.8745 627.2074,-219.1244 627.2074,-223.3743 627.2074,-223.3743 627.2074,-231.8742 627.2074,-231.8742 627.2074,-236.1241 622.9575,-240.374 618.7075,-240.374"/>
<text text-anchor="middle" x="548.1409" y="-224.2485" font-family="Arial" font-size="15.00" fill="#c6c5fe">../domain/me/index.ts</text>
</g>
<!-- ../domain/me/me.ts -->
<g id="node2" class="node">
<title>../domain/me/me.ts</title>
<path fill="none" stroke="#cfffac" d="M945.3988,-283.374C945.3988,-283.374 819.3092,-283.374 819.3092,-283.374 815.0593,-283.374 810.8093,-279.1241 810.8093,-274.8742 810.8093,-274.8742 810.8093,-266.3743 810.8093,-266.3743 810.8093,-262.1244 815.0593,-257.8745 819.3092,-257.8745 819.3092,-257.8745 945.3988,-257.8745 945.3988,-257.8745 949.6487,-257.8745 953.8987,-262.1244 953.8987,-266.3743 953.8987,-266.3743 953.8987,-274.8742 953.8987,-274.8742 953.8987,-279.1241 949.6487,-283.374 945.3988,-283.374"/>
<text text-anchor="middle" x="882.354" y="-267.2485" font-family="Arial" font-size="15.00" fill="#cfffac">../domain/me/me.ts</text>
</g>
<!-- ../domain/me/index.ts&#45;&gt;../domain/me/me.ts -->
<g id="edge1" class="edge">
<title>../domain/me/index.ts&#45;&gt;../domain/me/me.ts</title>
<path fill="none" stroke="#757575" d="M627.3447,-237.8147C679.5714,-244.5342 747.8122,-253.3141 800.5576,-260.1003"/>
<polygon fill="#757575" stroke="#757575" points="800.1894,-263.5817 810.5543,-261.3865 801.0827,-256.6389 800.1894,-263.5817"/>
</g>
<!-- ../domain/me/type.ts -->
<g id="node3" class="node">
<title>../domain/me/type.ts</title>
<path fill="none" stroke="#cfffac" d="M949.4128,-240.374C949.4128,-240.374 815.2952,-240.374 815.2952,-240.374 811.0453,-240.374 806.7954,-236.1241 806.7954,-231.8742 806.7954,-231.8742 806.7954,-223.3743 806.7954,-223.3743 806.7954,-219.1244 811.0453,-214.8745 815.2952,-214.8745 815.2952,-214.8745 949.4128,-214.8745 949.4128,-214.8745 953.6627,-214.8745 957.9126,-219.1244 957.9126,-223.3743 957.9126,-223.3743 957.9126,-231.8742 957.9126,-231.8742 957.9126,-236.1241 953.6627,-240.374 949.4128,-240.374"/>
<text text-anchor="middle" x="882.354" y="-224.2485" font-family="Arial" font-size="15.00" fill="#cfffac">../domain/me/type.ts</text>
</g>
<!-- ../domain/me/index.ts&#45;&gt;../domain/me/type.ts -->
<g id="edge2" class="edge">
<title>../domain/me/index.ts&#45;&gt;../domain/me/type.ts</title>
<path fill="none" stroke="#757575" d="M627.3447,-227.6243C678.1961,-227.6243 744.2292,-227.6243 796.359,-227.6243"/>
<polygon fill="#757575" stroke="#757575" points="796.591,-231.1244 806.5909,-227.6243 796.5909,-224.1244 796.591,-231.1244"/>
</g>
<!-- ../externalInterface/api/http/client/client.ts -->
<g id="node4" class="node">
<title>../externalInterface/api/http/client/client.ts</title>
<path fill="none" stroke="#cfffac" d="M2280.3764,-219.374C2280.3764,-219.374 2009.7578,-219.374 2009.7578,-219.374 2005.5079,-219.374 2001.258,-215.1241 2001.258,-210.8742 2001.258,-210.8742 2001.258,-202.3743 2001.258,-202.3743 2001.258,-198.1244 2005.5079,-193.8745 2009.7578,-193.8745 2009.7578,-193.8745 2280.3764,-193.8745 2280.3764,-193.8745 2284.6264,-193.8745 2288.8763,-198.1244 2288.8763,-202.3743 2288.8763,-202.3743 2288.8763,-210.8742 2288.8763,-210.8742 2288.8763,-215.1241 2284.6264,-219.374 2280.3764,-219.374"/>
<text text-anchor="middle" x="2145.0671" y="-203.2485" font-family="Arial" font-size="15.00" fill="#cfffac">../externalInterface/api/http/client/client.ts</text>
</g>
<!-- ../externalInterface/api/http/client/index.ts -->
<g id="node5" class="node">
<title>../externalInterface/api/http/client/index.ts</title>
<path fill="none" stroke="#c6c5fe" d="M1956.4886,-219.374C1956.4886,-219.374 1685.1852,-219.374 1685.1852,-219.374 1680.9353,-219.374 1676.6853,-215.1241 1676.6853,-210.8742 1676.6853,-210.8742 1676.6853,-202.3743 1676.6853,-202.3743 1676.6853,-198.1244 1680.9353,-193.8745 1685.1852,-193.8745 1685.1852,-193.8745 1956.4886,-193.8745 1956.4886,-193.8745 1960.7386,-193.8745 1964.9885,-198.1244 1964.9885,-202.3743 1964.9885,-202.3743 1964.9885,-210.8742 1964.9885,-210.8742 1964.9885,-215.1241 1960.7386,-219.374 1956.4886,-219.374"/>
<text text-anchor="middle" x="1820.8369" y="-203.2485" font-family="Arial" font-size="15.00" fill="#c6c5fe">../externalInterface/api/http/client/index.ts</text>
</g>
<!-- ../externalInterface/api/http/client/index.ts&#45;&gt;../externalInterface/api/http/client/client.ts -->
<g id="edge3" class="edge">
<title>../externalInterface/api/http/client/index.ts&#45;&gt;../externalInterface/api/http/client/client.ts</title>
<path fill="none" stroke="#757575" d="M1965.4096,-206.6243C1973.9665,-206.6243 1982.5895,-206.6243 1991.1815,-206.6243"/>
<polygon fill="#757575" stroke="#757575" points="1991.2478,-210.1244 2001.2477,-206.6243 1991.2477,-203.1244 1991.2478,-210.1244"/>
</g>
<!-- ../externalInterface/api/http/client/util.ts -->
<g id="node6" class="node">
<title>../externalInterface/api/http/client/util.ts</title>
<path fill="none" stroke="#cfffac" d="M1948.3039,-176.374C1948.3039,-176.374 1693.37,-176.374 1693.37,-176.374 1689.12,-176.374 1684.8701,-172.1241 1684.8701,-167.8742 1684.8701,-167.8742 1684.8701,-159.3743 1684.8701,-159.3743 1684.8701,-155.1244 1689.12,-150.8745 1693.37,-150.8745 1693.37,-150.8745 1948.3039,-150.8745 1948.3039,-150.8745 1952.5538,-150.8745 1956.8037,-155.1244 1956.8037,-159.3743 1956.8037,-159.3743 1956.8037,-167.8742 1956.8037,-167.8742 1956.8037,-172.1241 1952.5538,-176.374 1948.3039,-176.374"/>
<text text-anchor="middle" x="1820.8369" y="-160.2485" font-family="Arial" font-size="15.00" fill="#cfffac">../externalInterface/api/http/client/util.ts</text>
</g>
<!-- ../externalInterface/api/http/me/index.ts -->
<g id="node7" class="node">
<title>../externalInterface/api/http/me/index.ts</title>
<path fill="none" stroke="#c6c5fe" d="M1336.7979,-197.374C1336.7979,-197.374 1078.8534,-197.374 1078.8534,-197.374 1074.6035,-197.374 1070.3536,-193.1241 1070.3536,-188.8742 1070.3536,-188.8742 1070.3536,-180.3743 1070.3536,-180.3743 1070.3536,-176.1244 1074.6035,-171.8745 1078.8534,-171.8745 1078.8534,-171.8745 1336.7979,-171.8745 1336.7979,-171.8745 1341.0478,-171.8745 1345.2978,-176.1244 1345.2978,-180.3743 1345.2978,-180.3743 1345.2978,-188.8742 1345.2978,-188.8742 1345.2978,-193.1241 1341.0478,-197.374 1336.7979,-197.374"/>
<text text-anchor="middle" x="1207.8257" y="-181.2485" font-family="Arial" font-size="15.00" fill="#c6c5fe">../externalInterface/api/http/me/index.ts</text>
</g>
<!-- ../externalInterface/api/http/me/me.ts -->
<g id="node8" class="node">
<title>../externalInterface/api/http/me/me.ts</title>
<path fill="none" stroke="#c6c5fe" d="M1632.2366,-197.374C1632.2366,-197.374 1389.3361,-197.374 1389.3361,-197.374 1385.0862,-197.374 1380.8363,-193.1241 1380.8363,-188.8742 1380.8363,-188.8742 1380.8363,-180.3743 1380.8363,-180.3743 1380.8363,-176.1244 1385.0862,-171.8745 1389.3361,-171.8745 1389.3361,-171.8745 1632.2366,-171.8745 1632.2366,-171.8745 1636.4866,-171.8745 1640.7365,-176.1244 1640.7365,-180.3743 1640.7365,-180.3743 1640.7365,-188.8742 1640.7365,-188.8742 1640.7365,-193.1241 1636.4866,-197.374 1632.2366,-197.374"/>
<text text-anchor="middle" x="1510.7864" y="-181.2485" font-family="Arial" font-size="15.00" fill="#c6c5fe">../externalInterface/api/http/me/me.ts</text>
</g>
<!-- ../externalInterface/api/http/me/index.ts&#45;&gt;../externalInterface/api/http/me/me.ts -->
<g id="edge4" class="edge">
<title>../externalInterface/api/http/me/index.ts&#45;&gt;../externalInterface/api/http/me/me.ts</title>
<path fill="none" stroke="#757575" d="M1345.1232,-184.6243C1353.6754,-184.6243 1362.2884,-184.6243 1370.8519,-184.6243"/>
<polygon fill="#757575" stroke="#757575" points="1370.8755,-188.1244 1380.8754,-184.6243 1370.8754,-181.1244 1370.8755,-188.1244"/>
</g>
<!-- ../externalInterface/api/http/me/me.ts&#45;&gt;../externalInterface/api/http/client/index.ts -->
<g id="edge5" class="edge">
<title>../externalInterface/api/http/me/me.ts&#45;&gt;../externalInterface/api/http/client/index.ts</title>
<path fill="none" stroke="#757575" d="M1640.9281,-193.8586C1649.385,-194.4587 1657.9433,-195.066 1666.4989,-195.673"/>
<polygon fill="#757575" stroke="#757575" points="1666.3121,-199.1685 1676.5348,-196.3851 1666.8076,-192.186 1666.3121,-199.1685"/>
</g>
<!-- ../externalInterface/api/http/me/me.ts&#45;&gt;../externalInterface/api/http/client/util.ts -->
<g id="edge6" class="edge">
<title>../externalInterface/api/http/me/me.ts&#45;&gt;../externalInterface/api/http/client/util.ts</title>
<path fill="none" stroke="#757575" d="M1640.9281,-175.8097C1651.9666,-175.062 1663.1779,-174.3027 1674.3303,-173.5473"/>
<polygon fill="#757575" stroke="#757575" points="1674.8084,-177.023 1684.549,-172.8552 1674.3353,-170.039 1674.8084,-177.023"/>
</g>
<!-- ../gateway/me/index.ts -->
<g id="node9" class="node">
<title>../gateway/me/index.ts</title>
<path fill="none" stroke="#c6c5fe" d="M622.3795,-197.374C622.3795,-197.374 473.9023,-197.374 473.9023,-197.374 469.6523,-197.374 465.4024,-193.1241 465.4024,-188.8742 465.4024,-188.8742 465.4024,-180.3743 465.4024,-180.3743 465.4024,-176.1244 469.6523,-171.8745 473.9023,-171.8745 473.9023,-171.8745 622.3795,-171.8745 622.3795,-171.8745 626.6294,-171.8745 630.8793,-176.1244 630.8793,-180.3743 630.8793,-180.3743 630.8793,-188.8742 630.8793,-188.8742 630.8793,-193.1241 626.6294,-197.374 622.3795,-197.374"/>
<text text-anchor="middle" x="548.1409" y="-181.2485" font-family="Arial" font-size="15.00" fill="#c6c5fe">../gateway/me/index.ts</text>
</g>
<!-- ../gateway/me/me.ts -->
<g id="node10" class="node">
<title>../gateway/me/me.ts</title>
<path fill="none" stroke="#c6c5fe" d="M949.0706,-197.374C949.0706,-197.374 815.6374,-197.374 815.6374,-197.374 811.3875,-197.374 807.1375,-193.1241 807.1375,-188.8742 807.1375,-188.8742 807.1375,-180.3743 807.1375,-180.3743 807.1375,-176.1244 811.3875,-171.8745 815.6374,-171.8745 815.6374,-171.8745 949.0706,-171.8745 949.0706,-171.8745 953.3205,-171.8745 957.5705,-176.1244 957.5705,-180.3743 957.5705,-180.3743 957.5705,-188.8742 957.5705,-188.8742 957.5705,-193.1241 953.3205,-197.374 949.0706,-197.374"/>
<text text-anchor="middle" x="882.354" y="-181.2485" font-family="Arial" font-size="15.00" fill="#c6c5fe">../gateway/me/me.ts</text>
</g>
<!-- ../gateway/me/index.ts&#45;&gt;../gateway/me/me.ts -->
<g id="edge7" class="edge">
<title>../gateway/me/index.ts&#45;&gt;../gateway/me/me.ts</title>
<path fill="none" stroke="#757575" d="M631.1848,-184.6243C681.7509,-184.6243 746.2029,-184.6243 797.1563,-184.6243"/>
<polygon fill="#757575" stroke="#757575" points="797.1589,-188.1244 807.1589,-184.6243 797.1588,-181.1244 797.1589,-188.1244"/>
</g>
<!-- ../gateway/me/me.ts&#45;&gt;../externalInterface/api/http/me/index.ts -->
<g id="edge8" class="edge">
<title>../gateway/me/me.ts&#45;&gt;../externalInterface/api/http/me/index.ts</title>
<path fill="none" stroke="#757575" d="M957.8418,-184.6243C988.3505,-184.6243 1024.6675,-184.6243 1060.0351,-184.6243"/>
<polygon fill="#757575" stroke="#757575" points="1060.4745,-188.1244 1070.4745,-184.6243 1060.4744,-181.1244 1060.4745,-188.1244"/>
</g>
<!-- ../useCase/me/type.ts -->
<g id="node11" class="node">
<title>../useCase/me/type.ts</title>
<path fill="none" stroke="#cfffac" d="M954.4176,-111.374C954.4176,-111.374 810.2904,-111.374 810.2904,-111.374 806.0404,-111.374 801.7905,-107.1241 801.7905,-102.8742 801.7905,-102.8742 801.7905,-94.3743 801.7905,-94.3743 801.7905,-90.1244 806.0404,-85.8745 810.2904,-85.8745 810.2904,-85.8745 954.4176,-85.8745 954.4176,-85.8745 958.6676,-85.8745 962.9175,-90.1244 962.9175,-94.3743 962.9175,-94.3743 962.9175,-102.8742 962.9175,-102.8742 962.9175,-107.1241 958.6676,-111.374 954.4176,-111.374"/>
<text text-anchor="middle" x="882.354" y="-95.2485" font-family="Arial" font-size="15.00" fill="#cfffac">../useCase/me/type.ts</text>
</g>
<!-- ../useCase/me/useMe.ts -->
<g id="node12" class="node">
<title>../useCase/me/useMe.ts</title>
<path fill="none" stroke="#cfffac" d="M628.3746,-154.374C628.3746,-154.374 467.9071,-154.374 467.9071,-154.374 463.6572,-154.374 459.4073,-150.1241 459.4073,-145.8742 459.4073,-145.8742 459.4073,-137.3743 459.4073,-137.3743 459.4073,-133.1244 463.6572,-128.8745 467.9071,-128.8745 467.9071,-128.8745 628.3746,-128.8745 628.3746,-128.8745 632.6245,-128.8745 636.8745,-133.1244 636.8745,-137.3743 636.8745,-137.3743 636.8745,-145.8742 636.8745,-145.8742 636.8745,-150.1241 632.6245,-154.374 628.3746,-154.374"/>
<text text-anchor="middle" x="548.1409" y="-138.2485" font-family="Arial" font-size="15.00" fill="#cfffac">../useCase/me/useMe.ts</text>
</g>
<!-- components/ecosystem/Me/ComponentInteractor.tsx -->
<g id="node13" class="node">
<title>components/ecosystem/Me/ComponentInteractor.tsx</title>
<path fill="none" stroke="#c6c5fe" d="M357.7456,-132.374C357.7456,-132.374 8.418,-132.374 8.418,-132.374 4.1681,-132.374 -.0818,-128.1241 -.0818,-123.8742 -.0818,-123.8742 -.0818,-115.3743 -.0818,-115.3743 -.0818,-111.1244 4.1681,-106.8745 8.418,-106.8745 8.418,-106.8745 357.7456,-106.8745 357.7456,-106.8745 361.9955,-106.8745 366.2454,-111.1244 366.2454,-115.3743 366.2454,-115.3743 366.2454,-123.8742 366.2454,-123.8742 366.2454,-128.1241 361.9955,-132.374 357.7456,-132.374"/>
<text text-anchor="middle" x="183.0818" y="-116.2485" font-family="Arial" font-size="15.00" fill="#c6c5fe">components/ecosystem/Me/ComponentInteractor.tsx</text>
</g>
<!-- components/ecosystem/Me/ComponentInteractor.tsx&#45;&gt;../domain/me/index.ts -->
<g id="edge9" class="edge">
<title>components/ecosystem/Me/ComponentInteractor.tsx&#45;&gt;../domain/me/index.ts</title>
<path fill="none" stroke="#757575" d="M209.0429,-132.2648C249.3831,-151.3659 329.9955,-187.3915 402.1636,-206.6243 420.304,-211.4587 440.0281,-215.2465 458.9405,-218.1907"/>
<polygon fill="#757575" stroke="#757575" points="458.6381,-221.6842 469.045,-219.6975 459.6707,-214.7607 458.6381,-221.6842"/>
</g>
<!-- components/ecosystem/Me/ComponentInteractor.tsx&#45;&gt;../gateway/me/index.ts -->
<g id="edge10" class="edge">
<title>components/ecosystem/Me/ComponentInteractor.tsx&#45;&gt;../gateway/me/index.ts</title>
<path fill="none" stroke="#757575" d="M241.4991,-132.2715C285.5395,-141.5833 347.4922,-154.2092 402.1636,-163.6243 419.2489,-166.5666 437.5085,-169.4215 455.126,-172.0295"/>
<polygon fill="#757575" stroke="#757575" points="455.0094,-175.5497 465.4109,-173.5353 456.0235,-168.6235 455.0094,-175.5497"/>
</g>
<!-- components/ecosystem/Me/ComponentInteractor.tsx&#45;&gt;../useCase/me/useMe.ts -->
<g id="edge11" class="edge">
<title>components/ecosystem/Me/ComponentInteractor.tsx&#45;&gt;../useCase/me/useMe.ts</title>
<path fill="none" stroke="#757575" d="M366.4135,-130.6726C394.9693,-132.3935 423.499,-134.1128 449.2068,-135.6621"/>
<polygon fill="#757575" stroke="#757575" points="449.0962,-139.1617 459.2887,-136.2697 449.5174,-132.1744 449.0962,-139.1617"/>
</g>
<!-- components/ecosystem/Me/Content.tsx -->
<g id="node14" class="node">
<title>components/ecosystem/Me/Content.tsx</title>
<path fill="none" stroke="#c6c5fe" d="M678.7585,-111.374C678.7585,-111.374 417.5233,-111.374 417.5233,-111.374 413.2733,-111.374 409.0234,-107.1241 409.0234,-102.8742 409.0234,-102.8742 409.0234,-94.3743 409.0234,-94.3743 409.0234,-90.1244 413.2733,-85.8745 417.5233,-85.8745 417.5233,-85.8745 678.7585,-85.8745 678.7585,-85.8745 683.0084,-85.8745 687.2583,-90.1244 687.2583,-94.3743 687.2583,-94.3743 687.2583,-102.8742 687.2583,-102.8742 687.2583,-107.1241 683.0084,-111.374 678.7585,-111.374"/>
<text text-anchor="middle" x="548.1409" y="-95.2485" font-family="Arial" font-size="15.00" fill="#c6c5fe">components/ecosystem/Me/Content.tsx</text>
</g>
<!-- components/ecosystem/Me/ComponentInteractor.tsx&#45;&gt;components/ecosystem/Me/Content.tsx -->
<g id="edge12" class="edge">
<title>components/ecosystem/Me/ComponentInteractor.tsx&#45;&gt;components/ecosystem/Me/Content.tsx</title>
<path fill="none" stroke="#757575" d="M366.4135,-109.0781C377.2555,-108.4544 388.0939,-107.831 398.7754,-107.2165"/>
<polygon fill="#757575" stroke="#757575" points="399.1809,-110.6991 408.9634,-106.6304 398.7789,-103.7106 399.1809,-110.6991"/>
</g>
<!-- components/ecosystem/Me/Exception.tsx -->
<g id="node15" class="node">
<title>components/ecosystem/Me/Exception.tsx</title>
<path fill="none" stroke="#cfffac" d="M685.5956,-68.374C685.5956,-68.374 410.6861,-68.374 410.6861,-68.374 406.4362,-68.374 402.1863,-64.1241 402.1863,-59.8742 402.1863,-59.8742 402.1863,-51.3743 402.1863,-51.3743 402.1863,-47.1244 406.4362,-42.8745 410.6861,-42.8745 410.6861,-42.8745 685.5956,-42.8745 685.5956,-42.8745 689.8455,-42.8745 694.0955,-47.1244 694.0955,-51.3743 694.0955,-51.3743 694.0955,-59.8742 694.0955,-59.8742 694.0955,-64.1241 689.8455,-68.374 685.5956,-68.374"/>
<text text-anchor="middle" x="548.1409" y="-52.2485" font-family="Arial" font-size="15.00" fill="#cfffac">components/ecosystem/Me/Exception.tsx</text>
</g>
<!-- components/ecosystem/Me/ComponentInteractor.tsx&#45;&gt;components/ecosystem/Me/Exception.tsx -->
<g id="edge13" class="edge">
<title>components/ecosystem/Me/ComponentInteractor.tsx&#45;&gt;components/ecosystem/Me/Exception.tsx</title>
<path fill="none" stroke="#757575" d="M243.3736,-106.932C287.2951,-97.8958 348.2835,-85.7813 402.1636,-76.6243 416.0074,-74.2715 430.6193,-71.963 445.0349,-69.7878"/>
<polygon fill="#757575" stroke="#757575" points="445.5982,-73.2425 454.9717,-68.3042 444.5645,-66.3193 445.5982,-73.2425"/>
</g>
<!-- hooks/useReRender.ts -->
<g id="node16" class="node">
<title>hooks/useReRender.ts</title>
<path fill="none" stroke="#cfffac" d="M623.399,-25.374C623.399,-25.374 472.8827,-25.374 472.8827,-25.374 468.6328,-25.374 464.3829,-21.1241 464.3829,-16.8742 464.3829,-16.8742 464.3829,-8.3743 464.3829,-8.3743 464.3829,-4.1244 468.6328,.1255 472.8827,.1255 472.8827,.1255 623.399,.1255 623.399,.1255 627.6489,.1255 631.8989,-4.1244 631.8989,-8.3743 631.8989,-8.3743 631.8989,-16.8742 631.8989,-16.8742 631.8989,-21.1241 627.6489,-25.374 623.399,-25.374"/>
<text text-anchor="middle" x="548.1409" y="-9.2485" font-family="Arial" font-size="15.00" fill="#cfffac">hooks/useReRender.ts</text>
</g>
<!-- components/ecosystem/Me/ComponentInteractor.tsx&#45;&gt;hooks/useReRender.ts -->
<g id="edge14" class="edge">
<title>components/ecosystem/Me/ComponentInteractor.tsx&#45;&gt;hooks/useReRender.ts</title>
<path fill="none" stroke="#757575" d="M209.394,-106.9857C249.8678,-88.0806 330.2677,-52.6325 402.1636,-33.6243 418.7176,-29.2476 436.5845,-25.7245 453.9486,-22.9077"/>
<polygon fill="#757575" stroke="#757575" points="454.7568,-26.3242 464.1005,-21.3297 453.6816,-19.4073 454.7568,-26.3242"/>
</g>
<!-- components/ecosystem/Me/Content.tsx&#45;&gt;../useCase/me/type.ts -->
<g id="edge15" class="edge">
<title>components/ecosystem/Me/Content.tsx&#45;&gt;../useCase/me/type.ts</title>
<path fill="none" stroke="#757575" d="M687.4572,-98.6243C722.5285,-98.6243 759.28,-98.6243 791.2971,-98.6243"/>
<polygon fill="#757575" stroke="#757575" points="791.5178,-102.1244 801.5178,-98.6243 791.5177,-95.1244 791.5178,-102.1244"/>
</g>
<!-- components/ecosystem/Me/Me.tsx -->
<g id="node17" class="node">
<title>components/ecosystem/Me/Me.tsx</title>
<path fill="none" stroke="#c6c5fe" d="M663.059,-326.374C663.059,-326.374 433.2227,-326.374 433.2227,-326.374 428.9728,-326.374 424.7229,-322.1241 424.7229,-317.8742 424.7229,-317.8742 424.7229,-309.3743 424.7229,-309.3743 424.7229,-305.1244 428.9728,-300.8745 433.2227,-300.8745 433.2227,-300.8745 663.059,-300.8745 663.059,-300.8745 667.3089,-300.8745 671.5589,-305.1244 671.5589,-309.3743 671.5589,-309.3743 671.5589,-317.8742 671.5589,-317.8742 671.5589,-322.1241 667.3089,-326.374 663.059,-326.374"/>
<text text-anchor="middle" x="548.1409" y="-310.2485" font-family="Arial" font-size="15.00" fill="#c6c5fe">components/ecosystem/Me/Me.tsx</text>
</g>
<!-- components/ecosystem/Me/Placeholder.tsx -->
<g id="node18" class="node">
<title>components/ecosystem/Me/Placeholder.tsx</title>
<path fill="none" stroke="#cfffac" d="M1026.3262,-326.374C1026.3262,-326.374 738.3818,-326.374 738.3818,-326.374 734.1319,-326.374 729.882,-322.1241 729.882,-317.8742 729.882,-317.8742 729.882,-309.3743 729.882,-309.3743 729.882,-305.1244 734.1319,-300.8745 738.3818,-300.8745 738.3818,-300.8745 1026.3262,-300.8745 1026.3262,-300.8745 1030.5761,-300.8745 1034.826,-305.1244 1034.826,-309.3743 1034.826,-309.3743 1034.826,-317.8742 1034.826,-317.8742 1034.826,-322.1241 1030.5761,-326.374 1026.3262,-326.374"/>
<text text-anchor="middle" x="882.354" y="-310.2485" font-family="Arial" font-size="15.00" fill="#cfffac">components/ecosystem/Me/Placeholder.tsx</text>
</g>
<!-- components/ecosystem/Me/Me.tsx&#45;&gt;components/ecosystem/Me/Placeholder.tsx -->
<g id="edge16" class="edge">
<title>components/ecosystem/Me/Me.tsx&#45;&gt;components/ecosystem/Me/Placeholder.tsx</title>
<path fill="none" stroke="#757575" d="M671.64,-313.6243C687.3467,-313.6243 703.606,-313.6243 719.8081,-313.6243"/>
<polygon fill="#757575" stroke="#757575" points="719.8835,-317.1244 729.8834,-313.6243 719.8834,-310.1244 719.8835,-317.1244"/>
</g>
<!-- components/ecosystem/Me/index.ts -->
<g id="node19" class="node">
<title>components/ecosystem/Me/index.ts</title>
<path fill="none" stroke="#c6c5fe" d="M302.0223,-326.374C302.0223,-326.374 64.1413,-326.374 64.1413,-326.374 59.8914,-326.374 55.6415,-322.1241 55.6415,-317.8742 55.6415,-317.8742 55.6415,-309.3743 55.6415,-309.3743 55.6415,-305.1244 59.8914,-300.8745 64.1413,-300.8745 64.1413,-300.8745 302.0223,-300.8745 302.0223,-300.8745 306.2722,-300.8745 310.5221,-305.1244 310.5221,-309.3743 310.5221,-309.3743 310.5221,-317.8742 310.5221,-317.8742 310.5221,-322.1241 306.2722,-326.374 302.0223,-326.374"/>
<text text-anchor="middle" x="183.0818" y="-310.2485" font-family="Arial" font-size="15.00" fill="#c6c5fe">components/ecosystem/Me/index.ts</text>
</g>
<!-- components/ecosystem/Me/index.ts&#45;&gt;components/ecosystem/Me/Me.tsx -->
<g id="edge17" class="edge">
<title>components/ecosystem/Me/index.ts&#45;&gt;components/ecosystem/Me/Me.tsx</title>
<path fill="none" stroke="#757575" d="M310.5054,-313.6243C344.0589,-313.6243 380.3538,-313.6243 414.2374,-313.6243"/>
<polygon fill="#757575" stroke="#757575" points="414.6699,-317.1244 424.6698,-313.6243 414.6698,-310.1244 414.6699,-317.1244"/>
</g>
<!-- containers/ErrorBoundary.tsx -->
<g id="node20" class="node">
<title>containers/ErrorBoundary.tsx</title>
<path fill="none" stroke="#cfffac" d="M279.2216,-369.374C279.2216,-369.374 86.9419,-369.374 86.9419,-369.374 82.692,-369.374 78.4421,-365.1241 78.4421,-360.8742 78.4421,-360.8742 78.4421,-352.3743 78.4421,-352.3743 78.4421,-348.1244 82.692,-343.8745 86.9419,-343.8745 86.9419,-343.8745 279.2216,-343.8745 279.2216,-343.8745 283.4716,-343.8745 287.7215,-348.1244 287.7215,-352.3743 287.7215,-352.3743 287.7215,-360.8742 287.7215,-360.8742 287.7215,-365.1241 283.4716,-369.374 279.2216,-369.374"/>
<text text-anchor="middle" x="183.0818" y="-353.2485" font-family="Arial" font-size="15.00" fill="#cfffac">containers/ErrorBoundary.tsx</text>
</g>
</g>
</svg>
