<?xml version="1.0" encoding="UTF-8" standalone="no"?>
<!DOCTYPE svg PUBLIC "-//W3C//DTD SVG 1.1//EN"
 "http://www.w3.org/Graphics/SVG/1.1/DTD/svg11.dtd">
<!-- Generated by graphviz version 2.40.1 (20161225.0304)
 -->
<!-- Title: G Pages: 1 -->
<svg width="1646pt" height="197pt"
 viewBox="0.00 0.00 1646.01 197.45" xmlns="http://www.w3.org/2000/svg" xmlns:xlink="http://www.w3.org/1999/xlink">
<g id="graph0" class="graph" transform="scale(1 1) rotate(0) translate(21.6 175.8485)">
<title>G</title>
<polygon fill="#111111" stroke="transparent" points="-21.6,21.6 -21.6,-175.8485 1624.4096,-175.8485 1624.4096,21.6 -21.6,21.6"/>
<!-- ../domain/me/index.ts -->
<g id="node1" class="node">
<title>../domain/me/index.ts</title>
<path fill="none" stroke="#c6c5fe" d="M484.7932,-111.374C484.7932,-111.374 343.6599,-111.374 343.6599,-111.374 339.41,-111.374 335.1601,-107.1241 335.1601,-102.8742 335.1601,-102.8742 335.1601,-94.3743 335.1601,-94.3743 335.1601,-90.1244 339.41,-85.8745 343.6599,-85.8745 343.6599,-85.8745 484.7932,-85.8745 484.7932,-85.8745 489.0431,-85.8745 493.2931,-90.1244 493.2931,-94.3743 493.2931,-94.3743 493.2931,-102.8742 493.2931,-102.8742 493.2931,-107.1241 489.0431,-111.374 484.7932,-111.374"/>
<text text-anchor="middle" x="414.2266" y="-95.2485" font-family="Arial" font-size="15.00" fill="#c6c5fe">../domain/me/index.ts</text>
</g>
<!-- ../domain/me/me.ts -->
<g id="node2" class="node">
<title>../domain/me/me.ts</title>
<path fill="none" stroke="#cfffac" d="M671.4198,-154.374C671.4198,-154.374 545.3302,-154.374 545.3302,-154.374 541.0803,-154.374 536.8303,-150.1241 536.8303,-145.8742 536.8303,-145.8742 536.8303,-137.3743 536.8303,-137.3743 536.8303,-133.1244 541.0803,-128.8745 545.3302,-128.8745 545.3302,-128.8745 671.4198,-128.8745 671.4198,-128.8745 675.6697,-128.8745 679.9197,-133.1244 679.9197,-137.3743 679.9197,-137.3743 679.9197,-145.8742 679.9197,-145.8742 679.9197,-150.1241 675.6697,-154.374 671.4198,-154.374"/>
<text text-anchor="middle" x="608.375" y="-138.2485" font-family="Arial" font-size="15.00" fill="#cfffac">../domain/me/me.ts</text>
</g>
<!-- ../domain/me/index.ts&#45;&gt;../domain/me/me.ts -->
<g id="edge1" class="edge">
<title>../domain/me/index.ts&#45;&gt;../domain/me/me.ts</title>
<path fill="none" stroke="#757575" d="M471.4274,-111.2931C493.3503,-116.1486 518.557,-121.7314 541.3209,-126.7731"/>
<polygon fill="#757575" stroke="#757575" points="540.7275,-130.2264 551.2478,-128.9717 542.2413,-123.3921 540.7275,-130.2264"/>
</g>
<!-- ../domain/me/type.ts -->
<g id="node3" class="node">
<title>../domain/me/type.ts</title>
<path fill="none" stroke="#cfffac" d="M675.4338,-111.374C675.4338,-111.374 541.3162,-111.374 541.3162,-111.374 537.0663,-111.374 532.8164,-107.1241 532.8164,-102.8742 532.8164,-102.8742 532.8164,-94.3743 532.8164,-94.3743 532.8164,-90.1244 537.0663,-85.8745 541.3162,-85.8745 541.3162,-85.8745 675.4338,-85.8745 675.4338,-85.8745 679.6837,-85.8745 683.9336,-90.1244 683.9336,-94.3743 683.9336,-94.3743 683.9336,-102.8742 683.9336,-102.8742 683.9336,-107.1241 679.6837,-111.374 675.4338,-111.374"/>
<text text-anchor="middle" x="608.375" y="-95.2485" font-family="Arial" font-size="15.00" fill="#cfffac">../domain/me/type.ts</text>
</g>
<!-- ../domain/me/index.ts&#45;&gt;../domain/me/type.ts -->
<g id="edge2" class="edge">
<title>../domain/me/index.ts&#45;&gt;../domain/me/type.ts</title>
<path fill="none" stroke="#757575" d="M493.4742,-98.6243C503.1238,-98.6243 513.0169,-98.6243 522.754,-98.6243"/>
<polygon fill="#757575" stroke="#757575" points="522.828,-102.1244 532.8279,-98.6243 522.8279,-95.1244 522.828,-102.1244"/>
</g>
<!-- ../externalInterface/api/http/client/client.ts -->
<g id="node4" class="node">
<title>../externalInterface/api/http/client/client.ts</title>
<path fill="none" stroke="#cfffac" d="M1594.2143,-90.374C1594.2143,-90.374 1323.5957,-90.374 1323.5957,-90.374 1319.3458,-90.374 1315.0959,-86.1241 1315.0959,-81.8742 1315.0959,-81.8742 1315.0959,-73.3743 1315.0959,-73.3743 1315.0959,-69.1244 1319.3458,-64.8745 1323.5957,-64.8745 1323.5957,-64.8745 1594.2143,-64.8745 1594.2143,-64.8745 1598.4643,-64.8745 1602.7142,-69.1244 1602.7142,-73.3743 1602.7142,-73.3743 1602.7142,-81.8742 1602.7142,-81.8742 1602.7142,-86.1241 1598.4643,-90.374 1594.2143,-90.374"/>
<text text-anchor="middle" x="1458.905" y="-74.2485" font-family="Arial" font-size="15.00" fill="#cfffac">../externalInterface/api/http/client/client.ts</text>
</g>
<!-- ../externalInterface/api/http/client/index.ts -->
<g id="node5" class="node">
<title>../externalInterface/api/http/client/index.ts</title>
<path fill="none" stroke="#c6c5fe" d="M1270.3265,-90.374C1270.3265,-90.374 999.0231,-90.374 999.0231,-90.374 994.7732,-90.374 990.5232,-86.1241 990.5232,-81.8742 990.5232,-81.8742 990.5232,-73.3743 990.5232,-73.3743 990.5232,-69.1244 994.7732,-64.8745 999.0231,-64.8745 999.0231,-64.8745 1270.3265,-64.8745 1270.3265,-64.8745 1274.5765,-64.8745 1278.8264,-69.1244 1278.8264,-73.3743 1278.8264,-73.3743 1278.8264,-81.8742 1278.8264,-81.8742 1278.8264,-86.1241 1274.5765,-90.374 1270.3265,-90.374"/>
<text text-anchor="middle" x="1134.6748" y="-74.2485" font-family="Arial" font-size="15.00" fill="#c6c5fe">../externalInterface/api/http/client/index.ts</text>
</g>
<!-- ../externalInterface/api/http/client/index.ts&#45;&gt;../externalInterface/api/http/client/client.ts -->
<g id="edge3" class="edge">
<title>../externalInterface/api/http/client/index.ts&#45;&gt;../externalInterface/api/http/client/client.ts</title>
<path fill="none" stroke="#757575" d="M1279.2475,-77.6243C1287.8044,-77.6243 1296.4273,-77.6243 1305.0194,-77.6243"/>
<polygon fill="#757575" stroke="#757575" points="1305.0857,-81.1244 1315.0856,-77.6243 1305.0856,-74.1244 1305.0857,-81.1244"/>
</g>
<!-- ../externalInterface/api/http/client/util.ts -->
<g id="node6" class="node">
<title>../externalInterface/api/http/client/util.ts</title>
<path fill="none" stroke="#cfffac" d="M1262.1418,-47.374C1262.1418,-47.374 1007.2079,-47.374 1007.2079,-47.374 1002.9579,-47.374 998.708,-43.1241 998.708,-38.8742 998.708,-38.8742 998.708,-30.3743 998.708,-30.3743 998.708,-26.1244 1002.9579,-21.8745 1007.2079,-21.8745 1007.2079,-21.8745 1262.1418,-21.8745 1262.1418,-21.8745 1266.3917,-21.8745 1270.6416,-26.1244 1270.6416,-30.3743 1270.6416,-30.3743 1270.6416,-38.8742 1270.6416,-38.8742 1270.6416,-43.1241 1266.3917,-47.374 1262.1418,-47.374"/>
<text text-anchor="middle" x="1134.6748" y="-31.2485" font-family="Arial" font-size="15.00" fill="#cfffac">../externalInterface/api/http/client/util.ts</text>
</g>
<!-- ../externalInterface/api/http/me.ts -->
<g id="node7" class="node">
<title>../externalInterface/api/http/me.ts</title>
<path fill="none" stroke="#c6c5fe" d="M946.0721,-68.374C946.0721,-68.374 728.1813,-68.374 728.1813,-68.374 723.9314,-68.374 719.6815,-64.1241 719.6815,-59.8742 719.6815,-59.8742 719.6815,-51.3743 719.6815,-51.3743 719.6815,-47.1244 723.9314,-42.8745 728.1813,-42.8745 728.1813,-42.8745 946.0721,-42.8745 946.0721,-42.8745 950.322,-42.8745 954.572,-47.1244 954.572,-51.3743 954.572,-51.3743 954.572,-59.8742 954.572,-59.8742 954.572,-64.1241 950.322,-68.374 946.0721,-68.374"/>
<text text-anchor="middle" x="837.1267" y="-52.2485" font-family="Arial" font-size="15.00" fill="#c6c5fe">../externalInterface/api/http/me.ts</text>
</g>
<!-- ../externalInterface/api/http/me.ts&#45;&gt;../externalInterface/api/http/client/index.ts -->
<g id="edge4" class="edge">
<title>../externalInterface/api/http/me.ts&#45;&gt;../externalInterface/api/http/client/index.ts</title>
<path fill="none" stroke="#757575" d="M954.7256,-64.3193C963.1319,-64.9408 971.6773,-65.5726 980.2477,-66.2063"/>
<polygon fill="#757575" stroke="#757575" points="980.0824,-69.7035 990.3133,-66.9505 980.5986,-62.7226 980.0824,-69.7035"/>
</g>
<!-- ../externalInterface/api/http/me.ts&#45;&gt;../externalInterface/api/http/client/util.ts -->
<g id="edge5" class="edge">
<title>../externalInterface/api/http/me.ts&#45;&gt;../externalInterface/api/http/client/util.ts</title>
<path fill="none" stroke="#757575" d="M954.7256,-47.3245C965.6701,-46.5521 976.8502,-45.763 988.0145,-44.9751"/>
<polygon fill="#757575" stroke="#757575" points="988.5269,-48.4477 998.2557,-44.2523 988.034,-41.4651 988.5269,-48.4477"/>
</g>
<!-- ../gateway/me/index.ts -->
<g id="node8" class="node">
<title>../gateway/me/index.ts</title>
<path fill="none" stroke="#c6c5fe" d="M488.4652,-68.374C488.4652,-68.374 339.988,-68.374 339.988,-68.374 335.738,-68.374 331.4881,-64.1241 331.4881,-59.8742 331.4881,-59.8742 331.4881,-51.3743 331.4881,-51.3743 331.4881,-47.1244 335.738,-42.8745 339.988,-42.8745 339.988,-42.8745 488.4652,-42.8745 488.4652,-42.8745 492.7151,-42.8745 496.965,-47.1244 496.965,-51.3743 496.965,-51.3743 496.965,-59.8742 496.965,-59.8742 496.965,-64.1241 492.7151,-68.374 488.4652,-68.374"/>
<text text-anchor="middle" x="414.2266" y="-52.2485" font-family="Arial" font-size="15.00" fill="#c6c5fe">../gateway/me/index.ts</text>
</g>
<!-- ../gateway/me/me.ts -->
<g id="node9" class="node">
<title>../gateway/me/me.ts</title>
<path fill="none" stroke="#c6c5fe" d="M675.0916,-68.374C675.0916,-68.374 541.6584,-68.374 541.6584,-68.374 537.4085,-68.374 533.1585,-64.1241 533.1585,-59.8742 533.1585,-59.8742 533.1585,-51.3743 533.1585,-51.3743 533.1585,-47.1244 537.4085,-42.8745 541.6584,-42.8745 541.6584,-42.8745 675.0916,-42.8745 675.0916,-42.8745 679.3415,-42.8745 683.5915,-47.1244 683.5915,-51.3743 683.5915,-51.3743 683.5915,-59.8742 683.5915,-59.8742 683.5915,-64.1241 679.3415,-68.374 675.0916,-68.374"/>
<text text-anchor="middle" x="608.375" y="-52.2485" font-family="Arial" font-size="15.00" fill="#c6c5fe">../gateway/me/me.ts</text>
</g>
<!-- ../gateway/me/index.ts&#45;&gt;../gateway/me/me.ts -->
<g id="edge6" class="edge">
<title>../gateway/me/index.ts&#45;&gt;../gateway/me/me.ts</title>
<path fill="none" stroke="#757575" d="M497.1261,-55.6243C505.7191,-55.6243 514.4636,-55.6243 523.0822,-55.6243"/>
<polygon fill="#757575" stroke="#757575" points="523.1255,-59.1244 533.1255,-55.6243 523.1254,-52.1244 523.1255,-59.1244"/>
</g>
<!-- ../gateway/me/me.ts&#45;&gt;../externalInterface/api/http/me.ts -->
<g id="edge7" class="edge">
<title>../gateway/me/me.ts&#45;&gt;../externalInterface/api/http/me.ts</title>
<path fill="none" stroke="#757575" d="M683.5937,-55.6243C692.0142,-55.6243 700.7568,-55.6243 709.6057,-55.6243"/>
<polygon fill="#757575" stroke="#757575" points="709.6301,-59.1244 719.6301,-55.6243 709.63,-52.1244 709.6301,-59.1244"/>
</g>
<!-- useMe/index.ts -->
<g id="node10" class="node">
<title>useMe/index.ts</title>
<path fill="none" stroke="#c6c5fe" d="M108.3259,-46.374C108.3259,-46.374 8.5579,-46.374 8.5579,-46.374 4.308,-46.374 .058,-42.1241 .058,-37.8742 .058,-37.8742 .058,-29.3743 .058,-29.3743 .058,-25.1244 4.308,-20.8745 8.5579,-20.8745 8.5579,-20.8745 108.3259,-20.8745 108.3259,-20.8745 112.5758,-20.8745 116.8257,-25.1244 116.8257,-29.3743 116.8257,-29.3743 116.8257,-37.8742 116.8257,-37.8742 116.8257,-42.1241 112.5758,-46.374 108.3259,-46.374"/>
<text text-anchor="middle" x="58.4419" y="-30.2485" font-family="Arial" font-size="15.00" fill="#c6c5fe">useMe/index.ts</text>
</g>
<!-- useMe/interactor.ts -->
<g id="node11" class="node">
<title>useMe/interactor.ts</title>
<path fill="none" stroke="#c6c5fe" d="M286.9697,-68.374C286.9697,-68.374 161.5216,-68.374 161.5216,-68.374 157.2716,-68.374 153.0217,-64.1241 153.0217,-59.8742 153.0217,-59.8742 153.0217,-51.3743 153.0217,-51.3743 153.0217,-47.1244 157.2716,-42.8745 161.5216,-42.8745 161.5216,-42.8745 286.9697,-42.8745 286.9697,-42.8745 291.2196,-42.8745 295.4695,-47.1244 295.4695,-51.3743 295.4695,-51.3743 295.4695,-59.8742 295.4695,-59.8742 295.4695,-64.1241 291.2196,-68.374 286.9697,-68.374"/>
<text text-anchor="middle" x="224.2456" y="-52.2485" font-family="Arial" font-size="15.00" fill="#c6c5fe">useMe/interactor.ts</text>
</g>
<!-- useMe/index.ts&#45;&gt;useMe/interactor.ts -->
<g id="edge8" class="edge">
<title>useMe/index.ts&#45;&gt;useMe/interactor.ts</title>
<path fill="none" stroke="#757575" d="M116.8981,-41.3806C125.3656,-42.5042 134.2069,-43.6773 143.0228,-44.847"/>
<polygon fill="#757575" stroke="#757575" points="142.5706,-48.3177 152.9442,-46.1635 143.4914,-41.3785 142.5706,-48.3177"/>
</g>
<!-- useMe/useMe.tsx -->
<g id="node12" class="node">
<title>useMe/useMe.tsx</title>
<path fill="none" stroke="#c6c5fe" d="M282.2929,-25.374C282.2929,-25.374 166.1983,-25.374 166.1983,-25.374 161.9484,-25.374 157.6985,-21.1241 157.6985,-16.8742 157.6985,-16.8742 157.6985,-8.3743 157.6985,-8.3743 157.6985,-4.1244 161.9484,.1255 166.1983,.1255 166.1983,.1255 282.2929,.1255 282.2929,.1255 286.5428,.1255 290.7928,-4.1244 290.7928,-8.3743 290.7928,-8.3743 290.7928,-16.8742 290.7928,-16.8742 290.7928,-21.1241 286.5428,-25.374 282.2929,-25.374"/>
<text text-anchor="middle" x="224.2456" y="-9.2485" font-family="Arial" font-size="15.00" fill="#c6c5fe">useMe/useMe.tsx</text>
</g>
<!-- useMe/index.ts&#45;&gt;useMe/useMe.tsx -->
<g id="edge9" class="edge">
<title>useMe/index.ts&#45;&gt;useMe/useMe.tsx</title>
<path fill="none" stroke="#757575" d="M116.8981,-26.2205C126.7576,-24.9717 137.1237,-23.6588 147.3666,-22.3614"/>
<polygon fill="#757575" stroke="#757575" points="148.0641,-25.8011 157.545,-21.0723 147.1845,-18.8566 148.0641,-25.8011"/>
</g>
<!-- useMe/interactor.ts&#45;&gt;../domain/me/index.ts -->
<g id="edge10" class="edge">
<title>useMe/interactor.ts&#45;&gt;../domain/me/index.ts</title>
<path fill="none" stroke="#757575" d="M280.2186,-68.2931C301.5747,-73.1268 326.1154,-78.6813 348.312,-83.7053"/>
<polygon fill="#757575" stroke="#757575" points="347.7997,-87.1778 358.3256,-85.9717 349.345,-80.3505 347.7997,-87.1778"/>
</g>
<!-- useMe/interactor.ts&#45;&gt;../gateway/me/index.ts -->
<g id="edge11" class="edge">
<title>useMe/interactor.ts&#45;&gt;../gateway/me/index.ts</title>
<path fill="none" stroke="#757575" d="M295.528,-55.6243C303.9281,-55.6243 312.5924,-55.6243 321.2347,-55.6243"/>
<polygon fill="#757575" stroke="#757575" points="321.3526,-59.1244 331.3526,-55.6243 321.3526,-52.1244 321.3526,-59.1244"/>
</g>
<!-- useMe/type.ts -->
<g id="node13" class="node">
<title>useMe/type.ts</title>
<path fill="none" stroke="#cfffac" d="M460.6038,-25.374C460.6038,-25.374 367.8493,-25.374 367.8493,-25.374 363.5994,-25.374 359.3494,-21.1241 359.3494,-16.8742 359.3494,-16.8742 359.3494,-8.3743 359.3494,-8.3743 359.3494,-4.1244 363.5994,.1255 367.8493,.1255 367.8493,.1255 460.6038,.1255 460.6038,.1255 464.8538,.1255 469.1037,-4.1244 469.1037,-8.3743 469.1037,-8.3743 469.1037,-16.8742 469.1037,-16.8742 469.1037,-21.1241 464.8538,-25.374 460.6038,-25.374"/>
<text text-anchor="middle" x="414.2266" y="-9.2485" font-family="Arial" font-size="15.00" fill="#cfffac">useMe/type.ts</text>
</g>
<!-- useMe/interactor.ts&#45;&gt;useMe/type.ts -->
<g id="edge12" class="edge">
<title>useMe/interactor.ts&#45;&gt;useMe/type.ts</title>
<path fill="none" stroke="#757575" d="M280.2186,-42.9554C301.9569,-38.0352 326.9949,-32.3682 349.5015,-27.274"/>
<polygon fill="#757575" stroke="#757575" points="350.3274,-30.6757 359.3081,-25.0544 348.7821,-23.8484 350.3274,-30.6757"/>
</g>
<!-- useMe/useMe.tsx&#45;&gt;useMe/type.ts -->
<g id="edge13" class="edge">
<title>useMe/useMe.tsx&#45;&gt;useMe/type.ts</title>
<path fill="none" stroke="#757575" d="M290.9586,-12.6243C309.8127,-12.6243 330.302,-12.6243 349.0636,-12.6243"/>
<polygon fill="#757575" stroke="#757575" points="349.2877,-16.1244 359.2877,-12.6243 349.2876,-9.1244 349.2877,-16.1244"/>
</g>
</g>
</svg>
