<?xml version="1.0" encoding="UTF-8" standalone="no"?>
<!DOCTYPE svg PUBLIC "-//W3C//DTD SVG 1.1//EN"
 "http://www.w3.org/Graphics/SVG/1.1/DTD/svg11.dtd">
<!-- Generated by graphviz version 2.40.1 (20161225.0304)
 -->
<!-- Title: G Pages: 1 -->
<svg width="177pt" height="68pt"
 viewBox="0.00 0.00 176.75 68.45" xmlns="http://www.w3.org/2000/svg" xmlns:xlink="http://www.w3.org/1999/xlink">
<g id="graph0" class="graph" transform="scale(1 1) rotate(0) translate(21.6 46.8485)">
<title>G</title>
<polygon fill="#111111" stroke="transparent" points="-21.6,21.6 -21.6,-46.8485 155.1464,-46.8485 155.1464,21.6 -21.6,21.6"/>
<!-- useMe/useMe.tsx -->
<g id="node1" class="node">
<title>useMe/useMe.tsx</title>
<path fill="none" stroke="#cfffac" d="M124.8205,-25.374C124.8205,-25.374 8.7259,-25.374 8.7259,-25.374 4.476,-25.374 .226,-21.1241 .226,-16.8742 .226,-16.8742 .226,-8.3743 .226,-8.3743 .226,-4.1244 4.476,.1255 8.7259,.1255 8.7259,.1255 124.8205,.1255 124.8205,.1255 129.0704,.1255 133.3203,-4.1244 133.3203,-8.3743 133.3203,-8.3743 133.3203,-16.8742 133.3203,-16.8742 133.3203,-21.1241 129.0704,-25.374 124.8205,-25.374"/>
<text text-anchor="middle" x="66.7732" y="-9.2485" font-family="Arial" font-size="15.00" fill="#cfffac">useMe/useMe.tsx</text>
</g>
</g>
</svg>
