<?xml version="1.0" encoding="UTF-8" standalone="no"?>
<!DOCTYPE svg PUBLIC "-//W3C//DTD SVG 1.1//EN"
 "http://www.w3.org/Graphics/SVG/1.1/DTD/svg11.dtd">
<!-- Generated by graphviz version 2.40.1 (20161225.0304)
 -->
<!-- Title: G Pages: 1 -->
<svg width="1413pt" height="197pt"
 viewBox="0.00 0.00 1412.51 197.45" xmlns="http://www.w3.org/2000/svg" xmlns:xlink="http://www.w3.org/1999/xlink">
<g id="graph0" class="graph" transform="scale(1 1) rotate(0) translate(21.6 175.8485)">
<title>G</title>
<polygon fill="#111111" stroke="transparent" points="-21.6,21.6 -21.6,-175.8485 1390.9135,-175.8485 1390.9135,21.6 -21.6,21.6"/>
<!-- ../domain/me/index.ts -->
<g id="node1" class="node">
<title>../domain/me/index.ts</title>
<path fill="none" stroke="#c6c5fe" d="M488.5432,-111.374C488.5432,-111.374 347.4099,-111.374 347.4099,-111.374 343.16,-111.374 338.9101,-107.1241 338.9101,-102.8742 338.9101,-102.8742 338.9101,-94.3743 338.9101,-94.3743 338.9101,-90.1244 343.16,-85.8745 347.4099,-85.8745 347.4099,-85.8745 488.5432,-85.8745 488.5432,-85.8745 492.7931,-85.8745 497.0431,-90.1244 497.0431,-94.3743 497.0431,-94.3743 497.0431,-102.8742 497.0431,-102.8742 497.0431,-107.1241 492.7931,-111.374 488.5432,-111.374"/>
<text text-anchor="middle" x="417.9766" y="-95.2485" font-family="Arial" font-size="15.00" fill="#c6c5fe">../domain/me/index.ts</text>
</g>
<!-- ../domain/me/me.ts -->
<g id="node2" class="node">
<title>../domain/me/me.ts</title>
<path fill="none" stroke="#cfffac" d="M682.2487,-154.374C682.2487,-154.374 556.159,-154.374 556.159,-154.374 551.9091,-154.374 547.6592,-150.1241 547.6592,-145.8742 547.6592,-145.8742 547.6592,-137.3743 547.6592,-137.3743 547.6592,-133.1244 551.9091,-128.8745 556.159,-128.8745 556.159,-128.8745 682.2487,-128.8745 682.2487,-128.8745 686.4986,-128.8745 690.7485,-133.1244 690.7485,-137.3743 690.7485,-137.3743 690.7485,-145.8742 690.7485,-145.8742 690.7485,-150.1241 686.4986,-154.374 682.2487,-154.374"/>
<text text-anchor="middle" x="619.2039" y="-138.2485" font-family="Arial" font-size="15.00" fill="#cfffac">../domain/me/me.ts</text>
</g>
<!-- ../domain/me/index.ts&#45;&gt;../domain/me/me.ts -->
<g id="edge1" class="edge">
<title>../domain/me/index.ts&#45;&gt;../domain/me/me.ts</title>
<path fill="none" stroke="#757575" d="M477.263,-111.2931C500.0871,-116.1704 526.3454,-121.7815 550.0221,-126.8409"/>
<polygon fill="#757575" stroke="#757575" points="549.4831,-130.3047 559.9937,-128.9717 550.9459,-123.4592 549.4831,-130.3047"/>
</g>
<!-- ../domain/me/type.ts -->
<g id="node3" class="node">
<title>../domain/me/type.ts</title>
<path fill="none" stroke="#cfffac" d="M686.2626,-111.374C686.2626,-111.374 552.1451,-111.374 552.1451,-111.374 547.8952,-111.374 543.6453,-107.1241 543.6453,-102.8742 543.6453,-102.8742 543.6453,-94.3743 543.6453,-94.3743 543.6453,-90.1244 547.8952,-85.8745 552.1451,-85.8745 552.1451,-85.8745 686.2626,-85.8745 686.2626,-85.8745 690.5125,-85.8745 694.7625,-90.1244 694.7625,-94.3743 694.7625,-94.3743 694.7625,-102.8742 694.7625,-102.8742 694.7625,-107.1241 690.5125,-111.374 686.2626,-111.374"/>
<text text-anchor="middle" x="619.2039" y="-95.2485" font-family="Arial" font-size="15.00" fill="#cfffac">../domain/me/type.ts</text>
</g>
<!-- ../domain/me/index.ts&#45;&gt;../domain/me/type.ts -->
<g id="edge2" class="edge">
<title>../domain/me/index.ts&#45;&gt;../domain/me/type.ts</title>
<path fill="none" stroke="#757575" d="M497.2181,-98.6243C509.1615,-98.6243 521.5261,-98.6243 533.596,-98.6243"/>
<polygon fill="#757575" stroke="#757575" points="533.6497,-102.1244 543.6497,-98.6243 533.6497,-95.1244 533.6497,-102.1244"/>
</g>
<!-- ../infra/api/http/client/client.ts -->
<g id="node4" class="node">
<title>../infra/api/http/client/client.ts</title>
<path fill="none" stroke="#cfffac" d="M1360.9427,-90.374C1360.9427,-90.374 1172.4264,-90.374 1172.4264,-90.374 1168.1765,-90.374 1163.9266,-86.1241 1163.9266,-81.8742 1163.9266,-81.8742 1163.9266,-73.3743 1163.9266,-73.3743 1163.9266,-69.1244 1168.1765,-64.8745 1172.4264,-64.8745 1172.4264,-64.8745 1360.9427,-64.8745 1360.9427,-64.8745 1365.1926,-64.8745 1369.4425,-69.1244 1369.4425,-73.3743 1369.4425,-73.3743 1369.4425,-81.8742 1369.4425,-81.8742 1369.4425,-86.1241 1365.1926,-90.374 1360.9427,-90.374"/>
<text text-anchor="middle" x="1266.6846" y="-74.2485" font-family="Arial" font-size="15.00" fill="#cfffac">../infra/api/http/client/client.ts</text>
</g>
<!-- ../infra/api/http/client/index.ts -->
<g id="node5" class="node">
<title>../infra/api/http/client/index.ts</title>
<path fill="none" stroke="#c6c5fe" d="M1119.6059,-90.374C1119.6059,-90.374 930.4053,-90.374 930.4053,-90.374 926.1554,-90.374 921.9055,-86.1241 921.9055,-81.8742 921.9055,-81.8742 921.9055,-73.3743 921.9055,-73.3743 921.9055,-69.1244 926.1554,-64.8745 930.4053,-64.8745 930.4053,-64.8745 1119.6059,-64.8745 1119.6059,-64.8745 1123.8558,-64.8745 1128.1057,-69.1244 1128.1057,-73.3743 1128.1057,-73.3743 1128.1057,-81.8742 1128.1057,-81.8742 1128.1057,-86.1241 1123.8558,-90.374 1119.6059,-90.374"/>
<text text-anchor="middle" x="1025.0056" y="-74.2485" font-family="Arial" font-size="15.00" fill="#c6c5fe">../infra/api/http/client/index.ts</text>
</g>
<!-- ../infra/api/http/client/index.ts&#45;&gt;../infra/api/http/client/client.ts -->
<g id="edge3" class="edge">
<title>../infra/api/http/client/index.ts&#45;&gt;../infra/api/http/client/client.ts</title>
<path fill="none" stroke="#757575" d="M1128.2003,-77.6243C1136.6839,-77.6243 1145.286,-77.6243 1153.8346,-77.6243"/>
<polygon fill="#757575" stroke="#757575" points="1153.8351,-81.1244 1163.835,-77.6243 1153.835,-74.1244 1153.8351,-81.1244"/>
</g>
<!-- ../infra/api/http/client/util.ts -->
<g id="node6" class="node">
<title>../infra/api/http/client/util.ts</title>
<path fill="none" stroke="#cfffac" d="M1111.4218,-47.374C1111.4218,-47.374 938.5895,-47.374 938.5895,-47.374 934.3396,-47.374 930.0896,-43.1241 930.0896,-38.8742 930.0896,-38.8742 930.0896,-30.3743 930.0896,-30.3743 930.0896,-26.1244 934.3396,-21.8745 938.5895,-21.8745 938.5895,-21.8745 1111.4218,-21.8745 1111.4218,-21.8745 1115.6717,-21.8745 1119.9216,-26.1244 1119.9216,-30.3743 1119.9216,-30.3743 1119.9216,-38.8742 1119.9216,-38.8742 1119.9216,-43.1241 1115.6717,-47.374 1111.4218,-47.374"/>
<text text-anchor="middle" x="1025.0056" y="-31.2485" font-family="Arial" font-size="15.00" fill="#cfffac">../infra/api/http/client/util.ts</text>
</g>
<!-- ../infra/api/http/me.ts -->
<g id="node7" class="node">
<title>../infra/api/http/me.ts</title>
<path fill="none" stroke="#c6c5fe" d="M877.4025,-68.374C877.4025,-68.374 742.615,-68.374 742.615,-68.374 738.3651,-68.374 734.1152,-64.1241 734.1152,-59.8742 734.1152,-59.8742 734.1152,-51.3743 734.1152,-51.3743 734.1152,-47.1244 738.3651,-42.8745 742.615,-42.8745 742.615,-42.8745 877.4025,-42.8745 877.4025,-42.8745 881.6525,-42.8745 885.9024,-47.1244 885.9024,-51.3743 885.9024,-51.3743 885.9024,-59.8742 885.9024,-59.8742 885.9024,-64.1241 881.6525,-68.374 877.4025,-68.374"/>
<text text-anchor="middle" x="810.0088" y="-52.2485" font-family="Arial" font-size="15.00" fill="#c6c5fe">../infra/api/http/me.ts</text>
</g>
<!-- ../infra/api/http/me.ts&#45;&gt;../infra/api/http/client/index.ts -->
<g id="edge4" class="edge">
<title>../infra/api/http/me.ts&#45;&gt;../infra/api/http/client/index.ts</title>
<path fill="none" stroke="#757575" d="M886.1112,-63.4116C894.4462,-64.2645 903.0572,-65.1456 911.7184,-66.0319"/>
<polygon fill="#757575" stroke="#757575" points="911.5912,-69.5371 921.8955,-67.0733 912.3038,-62.5735 911.5912,-69.5371"/>
</g>
<!-- ../infra/api/http/me.ts&#45;&gt;../infra/api/http/client/util.ts -->
<g id="edge5" class="edge">
<title>../infra/api/http/me.ts&#45;&gt;../infra/api/http/client/util.ts</title>
<path fill="none" stroke="#757575" d="M886.1112,-48.1909C897.1358,-47.1141 908.6433,-45.9901 920.1112,-44.8699"/>
<polygon fill="#757575" stroke="#757575" points="920.5535,-48.3435 930.1659,-43.8878 919.8729,-41.3766 920.5535,-48.3435"/>
</g>
<!-- ../infra/repo/me/index.ts -->
<g id="node8" class="node">
<title>../infra/repo/me/index.ts</title>
<path fill="none" stroke="#c6c5fe" d="M495.7152,-68.374C495.7152,-68.374 340.2379,-68.374 340.2379,-68.374 335.988,-68.374 331.7381,-64.1241 331.7381,-59.8742 331.7381,-59.8742 331.7381,-51.3743 331.7381,-51.3743 331.7381,-47.1244 335.988,-42.8745 340.2379,-42.8745 340.2379,-42.8745 495.7152,-42.8745 495.7152,-42.8745 499.9651,-42.8745 504.215,-47.1244 504.215,-51.3743 504.215,-51.3743 504.215,-59.8742 504.215,-59.8742 504.215,-64.1241 499.9651,-68.374 495.7152,-68.374"/>
<text text-anchor="middle" x="417.9766" y="-52.2485" font-family="Arial" font-size="15.00" fill="#c6c5fe">../infra/repo/me/index.ts</text>
</g>
<!-- ../infra/repo/me/me.ts -->
<g id="node9" class="node">
<title>../infra/repo/me/me.ts</title>
<path fill="none" stroke="#c6c5fe" d="M689.4206,-68.374C689.4206,-68.374 548.9871,-68.374 548.9871,-68.374 544.7372,-68.374 540.4873,-64.1241 540.4873,-59.8742 540.4873,-59.8742 540.4873,-51.3743 540.4873,-51.3743 540.4873,-47.1244 544.7372,-42.8745 548.9871,-42.8745 548.9871,-42.8745 689.4206,-42.8745 689.4206,-42.8745 693.6705,-42.8745 697.9204,-47.1244 697.9204,-51.3743 697.9204,-51.3743 697.9204,-59.8742 697.9204,-59.8742 697.9204,-64.1241 693.6705,-68.374 689.4206,-68.374"/>
<text text-anchor="middle" x="619.2039" y="-52.2485" font-family="Arial" font-size="15.00" fill="#c6c5fe">../infra/repo/me/me.ts</text>
</g>
<!-- ../infra/repo/me/index.ts&#45;&gt;../infra/repo/me/me.ts -->
<g id="edge6" class="edge">
<title>../infra/repo/me/index.ts&#45;&gt;../infra/repo/me/me.ts</title>
<path fill="none" stroke="#757575" d="M504.4829,-55.6243C513.0579,-55.6243 521.7725,-55.6243 530.3706,-55.6243"/>
<polygon fill="#757575" stroke="#757575" points="530.3954,-59.1244 540.3953,-55.6243 530.3953,-52.1244 530.3954,-59.1244"/>
</g>
<!-- ../infra/repo/me/me.ts&#45;&gt;../infra/api/http/me.ts -->
<g id="edge7" class="edge">
<title>../infra/repo/me/me.ts&#45;&gt;../infra/api/http/me.ts</title>
<path fill="none" stroke="#757575" d="M698.1889,-55.6243C706.5709,-55.6243 715.1272,-55.6243 723.5885,-55.6243"/>
<polygon fill="#757575" stroke="#757575" points="723.8442,-59.1244 733.8442,-55.6243 723.8441,-52.1244 723.8442,-59.1244"/>
</g>
<!-- useMe/index.ts -->
<g id="node10" class="node">
<title>useMe/index.ts</title>
<path fill="none" stroke="#c6c5fe" d="M108.3259,-46.374C108.3259,-46.374 8.5579,-46.374 8.5579,-46.374 4.308,-46.374 .058,-42.1241 .058,-37.8742 .058,-37.8742 .058,-29.3743 .058,-29.3743 .058,-25.1244 4.308,-20.8745 8.5579,-20.8745 8.5579,-20.8745 108.3259,-20.8745 108.3259,-20.8745 112.5758,-20.8745 116.8257,-25.1244 116.8257,-29.3743 116.8257,-29.3743 116.8257,-37.8742 116.8257,-37.8742 116.8257,-42.1241 112.5758,-46.374 108.3259,-46.374"/>
<text text-anchor="middle" x="58.4419" y="-30.2485" font-family="Arial" font-size="15.00" fill="#c6c5fe">useMe/index.ts</text>
</g>
<!-- useMe/interactor.ts -->
<g id="node11" class="node">
<title>useMe/interactor.ts</title>
<path fill="none" stroke="#c6c5fe" d="M286.9697,-68.374C286.9697,-68.374 161.5216,-68.374 161.5216,-68.374 157.2716,-68.374 153.0217,-64.1241 153.0217,-59.8742 153.0217,-59.8742 153.0217,-51.3743 153.0217,-51.3743 153.0217,-47.1244 157.2716,-42.8745 161.5216,-42.8745 161.5216,-42.8745 286.9697,-42.8745 286.9697,-42.8745 291.2196,-42.8745 295.4695,-47.1244 295.4695,-51.3743 295.4695,-51.3743 295.4695,-59.8742 295.4695,-59.8742 295.4695,-64.1241 291.2196,-68.374 286.9697,-68.374"/>
<text text-anchor="middle" x="224.2456" y="-52.2485" font-family="Arial" font-size="15.00" fill="#c6c5fe">useMe/interactor.ts</text>
</g>
<!-- useMe/index.ts&#45;&gt;useMe/interactor.ts -->
<g id="edge8" class="edge">
<title>useMe/index.ts&#45;&gt;useMe/interactor.ts</title>
<path fill="none" stroke="#757575" d="M116.8981,-41.3806C125.3656,-42.5042 134.2069,-43.6773 143.0228,-44.847"/>
<polygon fill="#757575" stroke="#757575" points="142.5706,-48.3177 152.9442,-46.1635 143.4914,-41.3785 142.5706,-48.3177"/>
</g>
<!-- useMe/useMe.tsx -->
<g id="node12" class="node">
<title>useMe/useMe.tsx</title>
<path fill="none" stroke="#c6c5fe" d="M282.2929,-25.374C282.2929,-25.374 166.1983,-25.374 166.1983,-25.374 161.9484,-25.374 157.6985,-21.1241 157.6985,-16.8742 157.6985,-16.8742 157.6985,-8.3743 157.6985,-8.3743 157.6985,-4.1244 161.9484,.1255 166.1983,.1255 166.1983,.1255 282.2929,.1255 282.2929,.1255 286.5428,.1255 290.7928,-4.1244 290.7928,-8.3743 290.7928,-8.3743 290.7928,-16.8742 290.7928,-16.8742 290.7928,-21.1241 286.5428,-25.374 282.2929,-25.374"/>
<text text-anchor="middle" x="224.2456" y="-9.2485" font-family="Arial" font-size="15.00" fill="#c6c5fe">useMe/useMe.tsx</text>
</g>
<!-- useMe/index.ts&#45;&gt;useMe/useMe.tsx -->
<g id="edge9" class="edge">
<title>useMe/index.ts&#45;&gt;useMe/useMe.tsx</title>
<path fill="none" stroke="#757575" d="M116.8981,-26.2205C126.7576,-24.9717 137.1237,-23.6588 147.3666,-22.3614"/>
<polygon fill="#757575" stroke="#757575" points="148.0641,-25.8011 157.545,-21.0723 147.1845,-18.8566 148.0641,-25.8011"/>
</g>
<!-- useMe/interactor.ts&#45;&gt;../domain/me/index.ts -->
<g id="edge10" class="edge">
<title>useMe/interactor.ts&#45;&gt;../domain/me/index.ts</title>
<path fill="none" stroke="#757575" d="M281.3235,-68.2931C303.1992,-73.1486 328.3517,-78.7314 351.0666,-83.7731"/>
<polygon fill="#757575" stroke="#757575" points="350.4514,-87.2217 360.9722,-85.9717 351.9682,-80.388 350.4514,-87.2217"/>
</g>
<!-- useMe/interactor.ts&#45;&gt;../infra/repo/me/index.ts -->
<g id="edge11" class="edge">
<title>useMe/interactor.ts&#45;&gt;../infra/repo/me/index.ts</title>
<path fill="none" stroke="#757575" d="M295.5585,-55.6243C304.0109,-55.6243 312.7429,-55.6243 321.471,-55.6243"/>
<polygon fill="#757575" stroke="#757575" points="321.6982,-59.1244 331.6982,-55.6243 321.6981,-52.1244 321.6982,-59.1244"/>
</g>
<!-- useMe/type.ts -->
<g id="node13" class="node">
<title>useMe/type.ts</title>
<path fill="none" stroke="#cfffac" d="M464.3538,-25.374C464.3538,-25.374 371.5993,-25.374 371.5993,-25.374 367.3494,-25.374 363.0994,-21.1241 363.0994,-16.8742 363.0994,-16.8742 363.0994,-8.3743 363.0994,-8.3743 363.0994,-4.1244 367.3494,.1255 371.5993,.1255 371.5993,.1255 464.3538,.1255 464.3538,.1255 468.6038,.1255 472.8537,-4.1244 472.8537,-8.3743 472.8537,-8.3743 472.8537,-16.8742 472.8537,-16.8742 472.8537,-21.1241 468.6038,-25.374 464.3538,-25.374"/>
<text text-anchor="middle" x="417.9766" y="-9.2485" font-family="Arial" font-size="15.00" fill="#cfffac">useMe/type.ts</text>
</g>
<!-- useMe/interactor.ts&#45;&gt;useMe/type.ts -->
<g id="edge12" class="edge">
<title>useMe/interactor.ts&#45;&gt;useMe/type.ts</title>
<path fill="none" stroke="#757575" d="M281.3235,-42.9554C303.8832,-37.9481 329.928,-32.1673 353.1902,-27.0041"/>
<polygon fill="#757575" stroke="#757575" points="353.9672,-30.4169 362.9712,-24.8331 352.4503,-23.5832 353.9672,-30.4169"/>
</g>
<!-- useMe/useMe.tsx&#45;&gt;useMe/type.ts -->
<g id="edge13" class="edge">
<title>useMe/useMe.tsx&#45;&gt;useMe/type.ts</title>
<path fill="none" stroke="#757575" d="M290.9168,-12.6243C310.9559,-12.6243 332.9107,-12.6243 352.8486,-12.6243"/>
<polygon fill="#757575" stroke="#757575" points="353.0702,-16.1244 363.0702,-12.6243 353.0702,-9.1244 353.0702,-16.1244"/>
</g>
</g>
</svg>
