<?xml version="1.0" encoding="UTF-8" standalone="no"?>
<!DOCTYPE svg PUBLIC "-//W3C//DTD SVG 1.1//EN"
 "http://www.w3.org/Graphics/SVG/1.1/DTD/svg11.dtd">
<!-- Generated by graphviz version 2.40.1 (20161225.0304)
 -->
<!-- Title: G Pages: 1 -->
<svg width="852pt" height="111pt"
 viewBox="0.00 0.00 851.66 111.45" xmlns="http://www.w3.org/2000/svg" xmlns:xlink="http://www.w3.org/1999/xlink">
<g id="graph0" class="graph" transform="scale(1 1) rotate(0) translate(21.6 89.8485)">
<title>G</title>
<polygon fill="#111111" stroke="transparent" points="-21.6,21.6 -21.6,-89.8485 830.058,-89.8485 830.058,21.6 -21.6,21.6"/>
<!-- api/http/client/client.ts -->
<g id="node1" class="node">
<title>api/http/client/client.ts</title>
<path fill="none" stroke="#cfffac" d="M800.1628,-68.374C800.1628,-68.374 657.345,-68.374 657.345,-68.374 653.0951,-68.374 648.8452,-64.1241 648.8452,-59.8742 648.8452,-59.8742 648.8452,-51.3743 648.8452,-51.3743 648.8452,-47.1244 653.0951,-42.8745 657.345,-42.8745 657.345,-42.8745 800.1628,-42.8745 800.1628,-42.8745 804.4127,-42.8745 808.6626,-47.1244 808.6626,-51.3743 808.6626,-51.3743 808.6626,-59.8742 808.6626,-59.8742 808.6626,-64.1241 804.4127,-68.374 800.1628,-68.374"/>
<text text-anchor="middle" x="728.7539" y="-52.2485" font-family="Arial" font-size="15.00" fill="#cfffac">api/http/client/client.ts</text>
</g>
<!-- api/http/client/index.ts -->
<g id="node2" class="node">
<title>api/http/client/index.ts</title>
<path fill="none" stroke="#c6c5fe" d="M604.6754,-68.374C604.6754,-68.374 461.1737,-68.374 461.1737,-68.374 456.9238,-68.374 452.6739,-64.1241 452.6739,-59.8742 452.6739,-59.8742 452.6739,-51.3743 452.6739,-51.3743 452.6739,-47.1244 456.9238,-42.8745 461.1737,-42.8745 461.1737,-42.8745 604.6754,-42.8745 604.6754,-42.8745 608.9253,-42.8745 613.1752,-47.1244 613.1752,-51.3743 613.1752,-51.3743 613.1752,-59.8742 613.1752,-59.8742 613.1752,-64.1241 608.9253,-68.374 604.6754,-68.374"/>
<text text-anchor="middle" x="532.9246" y="-52.2485" font-family="Arial" font-size="15.00" fill="#c6c5fe">api/http/client/index.ts</text>
</g>
<!-- api/http/client/index.ts&#45;&gt;api/http/client/client.ts -->
<g id="edge1" class="edge">
<title>api/http/client/index.ts&#45;&gt;api/http/client/client.ts</title>
<path fill="none" stroke="#757575" d="M613.1409,-55.6243C621.6438,-55.6243 630.331,-55.6243 638.9342,-55.6243"/>
<polygon fill="#757575" stroke="#757575" points="638.9791,-59.1244 648.9791,-55.6243 638.979,-52.1244 638.9791,-59.1244"/>
</g>
<!-- api/http/client/util.ts -->
<g id="node3" class="node">
<title>api/http/client/util.ts</title>
<path fill="none" stroke="#cfffac" d="M595.9913,-25.374C595.9913,-25.374 469.8578,-25.374 469.8578,-25.374 465.6079,-25.374 461.358,-21.1241 461.358,-16.8742 461.358,-16.8742 461.358,-8.3743 461.358,-8.3743 461.358,-4.1244 465.6079,.1255 469.8578,.1255 469.8578,.1255 595.9913,.1255 595.9913,.1255 600.2412,.1255 604.4911,-4.1244 604.4911,-8.3743 604.4911,-8.3743 604.4911,-16.8742 604.4911,-16.8742 604.4911,-21.1241 600.2412,-25.374 595.9913,-25.374"/>
<text text-anchor="middle" x="532.9246" y="-9.2485" font-family="Arial" font-size="15.00" fill="#cfffac">api/http/client/util.ts</text>
</g>
<!-- api/http/me.ts -->
<g id="node4" class="node">
<title>api/http/me.ts</title>
<path fill="none" stroke="#c6c5fe" d="M408.3215,-46.374C408.3215,-46.374 319.2332,-46.374 319.2332,-46.374 314.9833,-46.374 310.7334,-42.1241 310.7334,-37.8742 310.7334,-37.8742 310.7334,-29.3743 310.7334,-29.3743 310.7334,-25.1244 314.9833,-20.8745 319.2332,-20.8745 319.2332,-20.8745 408.3215,-20.8745 408.3215,-20.8745 412.5714,-20.8745 416.8213,-25.1244 416.8213,-29.3743 416.8213,-29.3743 416.8213,-37.8742 416.8213,-37.8742 416.8213,-42.1241 412.5714,-46.374 408.3215,-46.374"/>
<text text-anchor="middle" x="363.7773" y="-30.2485" font-family="Arial" font-size="15.00" fill="#c6c5fe">api/http/me.ts</text>
</g>
<!-- api/http/me.ts&#45;&gt;api/http/client/index.ts -->
<g id="edge2" class="edge">
<title>api/http/me.ts&#45;&gt;api/http/client/index.ts</title>
<path fill="none" stroke="#757575" d="M416.8325,-40.5248C425.0685,-41.5961 433.7699,-42.7278 442.5551,-43.8704"/>
<polygon fill="#757575" stroke="#757575" points="442.1211,-47.3434 452.4891,-45.1625 443.024,-40.4019 442.1211,-47.3434"/>
</g>
<!-- api/http/me.ts&#45;&gt;api/http/client/util.ts -->
<g id="edge3" class="edge">
<title>api/http/me.ts&#45;&gt;api/http/client/util.ts</title>
<path fill="none" stroke="#757575" d="M416.8325,-27.0374C427.698,-25.6884 439.3735,-24.2388 450.9828,-22.7975"/>
<polygon fill="#757575" stroke="#757575" points="451.6533,-26.2412 461.1459,-21.5357 450.7908,-19.2946 451.6533,-26.2412"/>
</g>
<!-- repo/me/index.ts -->
<g id="node5" class="node">
<title>repo/me/index.ts</title>
<path fill="none" stroke="#c6c5fe" d="M118.3332,-46.374C118.3332,-46.374 8.5555,-46.374 8.5555,-46.374 4.3055,-46.374 .0556,-42.1241 .0556,-37.8742 .0556,-37.8742 .0556,-29.3743 .0556,-29.3743 .0556,-25.1244 4.3055,-20.8745 8.5555,-20.8745 8.5555,-20.8745 118.3332,-20.8745 118.3332,-20.8745 122.5831,-20.8745 126.8331,-25.1244 126.8331,-29.3743 126.8331,-29.3743 126.8331,-37.8742 126.8331,-37.8742 126.8331,-42.1241 122.5831,-46.374 118.3332,-46.374"/>
<text text-anchor="middle" x="63.4443" y="-30.2485" font-family="Arial" font-size="15.00" fill="#c6c5fe">repo/me/index.ts</text>
</g>
<!-- repo/me/me.ts -->
<g id="node6" class="node">
<title>repo/me/me.ts</title>
<path fill="none" stroke="#c6c5fe" d="M266.189,-46.374C266.189,-46.374 171.4551,-46.374 171.4551,-46.374 167.2052,-46.374 162.9552,-42.1241 162.9552,-37.8742 162.9552,-37.8742 162.9552,-29.3743 162.9552,-29.3743 162.9552,-25.1244 167.2052,-20.8745 171.4551,-20.8745 171.4551,-20.8745 266.189,-20.8745 266.189,-20.8745 270.4389,-20.8745 274.6888,-25.1244 274.6888,-29.3743 274.6888,-29.3743 274.6888,-37.8742 274.6888,-37.8742 274.6888,-42.1241 270.4389,-46.374 266.189,-46.374"/>
<text text-anchor="middle" x="218.822" y="-30.2485" font-family="Arial" font-size="15.00" fill="#c6c5fe">repo/me/me.ts</text>
</g>
<!-- repo/me/index.ts&#45;&gt;repo/me/me.ts -->
<g id="edge4" class="edge">
<title>repo/me/index.ts&#45;&gt;repo/me/me.ts</title>
<path fill="none" stroke="#757575" d="M127.0907,-33.6243C135.4322,-33.6243 143.9971,-33.6243 152.3834,-33.6243"/>
<polygon fill="#757575" stroke="#757575" points="152.4972,-37.1244 162.4971,-33.6243 152.4971,-30.1244 152.4972,-37.1244"/>
</g>
<!-- repo/me/me.ts&#45;&gt;api/http/me.ts -->
<g id="edge5" class="edge">
<title>repo/me/me.ts&#45;&gt;api/http/me.ts</title>
<path fill="none" stroke="#757575" d="M274.8655,-33.6243C283.2482,-33.6243 291.9404,-33.6243 300.461,-33.6243"/>
<polygon fill="#757575" stroke="#757575" points="300.7368,-37.1244 310.7368,-33.6243 300.7367,-30.1244 300.7368,-37.1244"/>
</g>
</g>
</svg>
