<?xml version="1.0" encoding="UTF-8" standalone="no"?>
<!DOCTYPE svg PUBLIC "-//W3C//DTD SVG 1.1//EN"
 "http://www.w3.org/Graphics/SVG/1.1/DTD/svg11.dtd">
<!-- Generated by graphviz version 2.40.1 (20161225.0304)
 -->
<!-- Title: G Pages: 1 -->
<svg width="1504pt" height="111pt"
 viewBox="0.00 0.00 1503.96 111.45" xmlns="http://www.w3.org/2000/svg" xmlns:xlink="http://www.w3.org/1999/xlink">
<g id="graph0" class="graph" transform="scale(1 1) rotate(0) translate(21.6 89.8485)">
<title>G</title>
<polygon fill="#111111" stroke="transparent" points="-21.6,21.6 -21.6,-89.8485 1482.3583,-89.8485 1482.3583,21.6 -21.6,21.6"/>
<!-- ../externalInterface/api/http/client/client.ts -->
<g id="node1" class="node">
<title>../externalInterface/api/http/client/client.ts</title>
<path fill="none" stroke="#cfffac" d="M1452.1631,-68.374C1452.1631,-68.374 1181.5445,-68.374 1181.5445,-68.374 1177.2945,-68.374 1173.0446,-64.1241 1173.0446,-59.8742 1173.0446,-59.8742 1173.0446,-51.3743 1173.0446,-51.3743 1173.0446,-47.1244 1177.2945,-42.8745 1181.5445,-42.8745 1181.5445,-42.8745 1452.1631,-42.8745 1452.1631,-42.8745 1456.413,-42.8745 1460.6629,-47.1244 1460.6629,-51.3743 1460.6629,-51.3743 1460.6629,-59.8742 1460.6629,-59.8742 1460.6629,-64.1241 1456.413,-68.374 1452.1631,-68.374"/>
<text text-anchor="middle" x="1316.8538" y="-52.2485" font-family="Arial" font-size="15.00" fill="#cfffac">../externalInterface/api/http/client/client.ts</text>
</g>
<!-- ../externalInterface/api/http/client/index.ts -->
<g id="node2" class="node">
<title>../externalInterface/api/http/client/index.ts</title>
<path fill="none" stroke="#c6c5fe" d="M1128.2753,-68.374C1128.2753,-68.374 856.9718,-68.374 856.9718,-68.374 852.7219,-68.374 848.472,-64.1241 848.472,-59.8742 848.472,-59.8742 848.472,-51.3743 848.472,-51.3743 848.472,-47.1244 852.7219,-42.8745 856.9718,-42.8745 856.9718,-42.8745 1128.2753,-42.8745 1128.2753,-42.8745 1132.5252,-42.8745 1136.7751,-47.1244 1136.7751,-51.3743 1136.7751,-51.3743 1136.7751,-59.8742 1136.7751,-59.8742 1136.7751,-64.1241 1132.5252,-68.374 1128.2753,-68.374"/>
<text text-anchor="middle" x="992.6235" y="-52.2485" font-family="Arial" font-size="15.00" fill="#c6c5fe">../externalInterface/api/http/client/index.ts</text>
</g>
<!-- ../externalInterface/api/http/client/index.ts&#45;&gt;../externalInterface/api/http/client/client.ts -->
<g id="edge1" class="edge">
<title>../externalInterface/api/http/client/index.ts&#45;&gt;../externalInterface/api/http/client/client.ts</title>
<path fill="none" stroke="#757575" d="M1137.1962,-55.6243C1145.7532,-55.6243 1154.3761,-55.6243 1162.9681,-55.6243"/>
<polygon fill="#757575" stroke="#757575" points="1163.0344,-59.1244 1173.0344,-55.6243 1163.0343,-52.1244 1163.0344,-59.1244"/>
</g>
<!-- ../externalInterface/api/http/client/util.ts -->
<g id="node3" class="node">
<title>../externalInterface/api/http/client/util.ts</title>
<path fill="none" stroke="#cfffac" d="M1120.0905,-25.374C1120.0905,-25.374 865.1566,-25.374 865.1566,-25.374 860.9067,-25.374 856.6567,-21.1241 856.6567,-16.8742 856.6567,-16.8742 856.6567,-8.3743 856.6567,-8.3743 856.6567,-4.1244 860.9067,.1255 865.1566,.1255 865.1566,.1255 1120.0905,.1255 1120.0905,.1255 1124.3404,.1255 1128.5903,-4.1244 1128.5903,-8.3743 1128.5903,-8.3743 1128.5903,-16.8742 1128.5903,-16.8742 1128.5903,-21.1241 1124.3404,-25.374 1120.0905,-25.374"/>
<text text-anchor="middle" x="992.6235" y="-9.2485" font-family="Arial" font-size="15.00" fill="#cfffac">../externalInterface/api/http/client/util.ts</text>
</g>
<!-- ../externalInterface/api/http/me/index.ts -->
<g id="node4" class="node">
<title>../externalInterface/api/http/me/index.ts</title>
<path fill="none" stroke="#c6c5fe" d="M508.5845,-46.374C508.5845,-46.374 250.6401,-46.374 250.6401,-46.374 246.3901,-46.374 242.1402,-42.1241 242.1402,-37.8742 242.1402,-37.8742 242.1402,-29.3743 242.1402,-29.3743 242.1402,-25.1244 246.3901,-20.8745 250.6401,-20.8745 250.6401,-20.8745 508.5845,-20.8745 508.5845,-20.8745 512.8345,-20.8745 517.0844,-25.1244 517.0844,-29.3743 517.0844,-29.3743 517.0844,-37.8742 517.0844,-37.8742 517.0844,-42.1241 512.8345,-46.374 508.5845,-46.374"/>
<text text-anchor="middle" x="379.6123" y="-30.2485" font-family="Arial" font-size="15.00" fill="#c6c5fe">../externalInterface/api/http/me/index.ts</text>
</g>
<!-- ../externalInterface/api/http/me/me.ts -->
<g id="node5" class="node">
<title>../externalInterface/api/http/me/me.ts</title>
<path fill="none" stroke="#c6c5fe" d="M804.0232,-46.374C804.0232,-46.374 561.1227,-46.374 561.1227,-46.374 556.8728,-46.374 552.6229,-42.1241 552.6229,-37.8742 552.6229,-37.8742 552.6229,-29.3743 552.6229,-29.3743 552.6229,-25.1244 556.8728,-20.8745 561.1227,-20.8745 561.1227,-20.8745 804.0232,-20.8745 804.0232,-20.8745 808.2732,-20.8745 812.5231,-25.1244 812.5231,-29.3743 812.5231,-29.3743 812.5231,-37.8742 812.5231,-37.8742 812.5231,-42.1241 808.2732,-46.374 804.0232,-46.374"/>
<text text-anchor="middle" x="682.573" y="-30.2485" font-family="Arial" font-size="15.00" fill="#c6c5fe">../externalInterface/api/http/me/me.ts</text>
</g>
<!-- ../externalInterface/api/http/me/index.ts&#45;&gt;../externalInterface/api/http/me/me.ts -->
<g id="edge2" class="edge">
<title>../externalInterface/api/http/me/index.ts&#45;&gt;../externalInterface/api/http/me/me.ts</title>
<path fill="none" stroke="#757575" d="M516.9099,-33.6243C525.462,-33.6243 534.0751,-33.6243 542.6386,-33.6243"/>
<polygon fill="#757575" stroke="#757575" points="542.6621,-37.1244 552.662,-33.6243 542.662,-30.1244 542.6621,-37.1244"/>
</g>
<!-- ../externalInterface/api/http/me/me.ts&#45;&gt;../externalInterface/api/http/client/index.ts -->
<g id="edge3" class="edge">
<title>../externalInterface/api/http/me/me.ts&#45;&gt;../externalInterface/api/http/client/index.ts</title>
<path fill="none" stroke="#757575" d="M812.7147,-42.8586C821.1716,-43.4587 829.7299,-44.066 838.2855,-44.673"/>
<polygon fill="#757575" stroke="#757575" points="838.0988,-48.1685 848.3214,-45.3851 838.5943,-41.186 838.0988,-48.1685"/>
</g>
<!-- ../externalInterface/api/http/me/me.ts&#45;&gt;../externalInterface/api/http/client/util.ts -->
<g id="edge4" class="edge">
<title>../externalInterface/api/http/me/me.ts&#45;&gt;../externalInterface/api/http/client/util.ts</title>
<path fill="none" stroke="#757575" d="M812.7147,-24.8097C823.7532,-24.062 834.9645,-23.3027 846.1169,-22.5473"/>
<polygon fill="#757575" stroke="#757575" points="846.5951,-26.023 856.3357,-21.8552 846.122,-19.039 846.5951,-26.023"/>
</g>
<!-- me/index.ts -->
<g id="node6" class="node">
<title>me/index.ts</title>
<path fill="none" stroke="#c6c5fe" d="M84.0495,-46.374C84.0495,-46.374 8.6498,-46.374 8.6498,-46.374 4.3998,-46.374 .1499,-42.1241 .1499,-37.8742 .1499,-37.8742 .1499,-29.3743 .1499,-29.3743 .1499,-25.1244 4.3998,-20.8745 8.6498,-20.8745 8.6498,-20.8745 84.0495,-20.8745 84.0495,-20.8745 88.2994,-20.8745 92.5493,-25.1244 92.5493,-29.3743 92.5493,-29.3743 92.5493,-37.8742 92.5493,-37.8742 92.5493,-42.1241 88.2994,-46.374 84.0495,-46.374"/>
<text text-anchor="middle" x="46.3496" y="-30.2485" font-family="Arial" font-size="15.00" fill="#c6c5fe">me/index.ts</text>
</g>
<!-- me/me.ts -->
<g id="node7" class="node">
<title>me/me.ts</title>
<path fill="none" stroke="#c6c5fe" d="M197.7159,-46.374C197.7159,-46.374 137.3598,-46.374 137.3598,-46.374 133.1099,-46.374 128.8599,-42.1241 128.8599,-37.8742 128.8599,-37.8742 128.8599,-29.3743 128.8599,-29.3743 128.8599,-25.1244 133.1099,-20.8745 137.3598,-20.8745 137.3598,-20.8745 197.7159,-20.8745 197.7159,-20.8745 201.9658,-20.8745 206.2158,-25.1244 206.2158,-29.3743 206.2158,-29.3743 206.2158,-37.8742 206.2158,-37.8742 206.2158,-42.1241 201.9658,-46.374 197.7159,-46.374"/>
<text text-anchor="middle" x="167.5378" y="-30.2485" font-family="Arial" font-size="15.00" fill="#c6c5fe">me/me.ts</text>
</g>
<!-- me/index.ts&#45;&gt;me/me.ts -->
<g id="edge5" class="edge">
<title>me/index.ts&#45;&gt;me/me.ts</title>
<path fill="none" stroke="#757575" d="M92.8576,-33.6243C101.3045,-33.6243 110.138,-33.6243 118.6511,-33.6243"/>
<polygon fill="#757575" stroke="#757575" points="118.8287,-37.1244 128.8287,-33.6243 118.8286,-30.1244 118.8287,-37.1244"/>
</g>
<!-- me/me.ts&#45;&gt;../externalInterface/api/http/me/index.ts -->
<g id="edge6" class="edge">
<title>me/me.ts&#45;&gt;../externalInterface/api/http/me/index.ts</title>
<path fill="none" stroke="#757575" d="M206.4356,-33.6243C214.2511,-33.6243 222.8934,-33.6243 232.0238,-33.6243"/>
<polygon fill="#757575" stroke="#757575" points="232.107,-37.1244 242.107,-33.6243 232.1069,-30.1244 232.107,-37.1244"/>
</g>
</g>
</svg>
