<?xml version="1.0" encoding="UTF-8" standalone="no"?>
<!DOCTYPE svg PUBLIC "-//W3C//DTD SVG 1.1//EN"
 "http://www.w3.org/Graphics/SVG/1.1/DTD/svg11.dtd">
<!-- Generated by graphviz version 2.40.1 (20161225.0304)
 -->
<!-- Title: G Pages: 1 -->
<svg width="1168pt" height="111pt"
 viewBox="0.00 0.00 1168.48 111.45" xmlns="http://www.w3.org/2000/svg" xmlns:xlink="http://www.w3.org/1999/xlink">
<g id="graph0" class="graph" transform="scale(1 1) rotate(0) translate(21.6 89.8485)">
<title>G</title>
<polygon fill="#111111" stroke="transparent" points="-21.6,21.6 -21.6,-89.8485 1146.8817,-89.8485 1146.8817,21.6 -21.6,21.6"/>
<!-- ../externalInterface/api/http/client/client.ts -->
<g id="node1" class="node">
<title>../externalInterface/api/http/client/client.ts</title>
<path fill="none" stroke="#cfffac" d="M1116.6865,-68.374C1116.6865,-68.374 846.0679,-68.374 846.0679,-68.374 841.818,-68.374 837.5681,-64.1241 837.5681,-59.8742 837.5681,-59.8742 837.5681,-51.3743 837.5681,-51.3743 837.5681,-47.1244 841.818,-42.8745 846.0679,-42.8745 846.0679,-42.8745 1116.6865,-42.8745 1116.6865,-42.8745 1120.9364,-42.8745 1125.1863,-47.1244 1125.1863,-51.3743 1125.1863,-51.3743 1125.1863,-59.8742 1125.1863,-59.8742 1125.1863,-64.1241 1120.9364,-68.374 1116.6865,-68.374"/>
<text text-anchor="middle" x="981.3772" y="-52.2485" font-family="Arial" font-size="15.00" fill="#cfffac">../externalInterface/api/http/client/client.ts</text>
</g>
<!-- ../externalInterface/api/http/client/index.ts -->
<g id="node2" class="node">
<title>../externalInterface/api/http/client/index.ts</title>
<path fill="none" stroke="#c6c5fe" d="M792.7987,-68.374C792.7987,-68.374 521.4952,-68.374 521.4952,-68.374 517.2453,-68.374 512.9954,-64.1241 512.9954,-59.8742 512.9954,-59.8742 512.9954,-51.3743 512.9954,-51.3743 512.9954,-47.1244 517.2453,-42.8745 521.4952,-42.8745 521.4952,-42.8745 792.7987,-42.8745 792.7987,-42.8745 797.0486,-42.8745 801.2986,-47.1244 801.2986,-51.3743 801.2986,-51.3743 801.2986,-59.8742 801.2986,-59.8742 801.2986,-64.1241 797.0486,-68.374 792.7987,-68.374"/>
<text text-anchor="middle" x="657.147" y="-52.2485" font-family="Arial" font-size="15.00" fill="#c6c5fe">../externalInterface/api/http/client/index.ts</text>
</g>
<!-- ../externalInterface/api/http/client/index.ts&#45;&gt;../externalInterface/api/http/client/client.ts -->
<g id="edge1" class="edge">
<title>../externalInterface/api/http/client/index.ts&#45;&gt;../externalInterface/api/http/client/client.ts</title>
<path fill="none" stroke="#757575" d="M801.7197,-55.6243C810.2766,-55.6243 818.8995,-55.6243 827.4915,-55.6243"/>
<polygon fill="#757575" stroke="#757575" points="827.5578,-59.1244 837.5578,-55.6243 827.5578,-52.1244 827.5578,-59.1244"/>
</g>
<!-- ../externalInterface/api/http/client/util.ts -->
<g id="node3" class="node">
<title>../externalInterface/api/http/client/util.ts</title>
<path fill="none" stroke="#cfffac" d="M784.6139,-25.374C784.6139,-25.374 529.68,-25.374 529.68,-25.374 525.4301,-25.374 521.1802,-21.1241 521.1802,-16.8742 521.1802,-16.8742 521.1802,-8.3743 521.1802,-8.3743 521.1802,-4.1244 525.4301,.1255 529.68,.1255 529.68,.1255 784.6139,.1255 784.6139,.1255 788.8638,.1255 793.1138,-4.1244 793.1138,-8.3743 793.1138,-8.3743 793.1138,-16.8742 793.1138,-16.8742 793.1138,-21.1241 788.8638,-25.374 784.6139,-25.374"/>
<text text-anchor="middle" x="657.147" y="-9.2485" font-family="Arial" font-size="15.00" fill="#cfffac">../externalInterface/api/http/client/util.ts</text>
</g>
<!-- ../externalInterface/api/http/me.ts -->
<g id="node4" class="node">
<title>../externalInterface/api/http/me.ts</title>
<path fill="none" stroke="#c6c5fe" d="M468.5443,-46.374C468.5443,-46.374 250.6535,-46.374 250.6535,-46.374 246.4036,-46.374 242.1536,-42.1241 242.1536,-37.8742 242.1536,-37.8742 242.1536,-29.3743 242.1536,-29.3743 242.1536,-25.1244 246.4036,-20.8745 250.6535,-20.8745 250.6535,-20.8745 468.5443,-20.8745 468.5443,-20.8745 472.7942,-20.8745 477.0441,-25.1244 477.0441,-29.3743 477.0441,-29.3743 477.0441,-37.8742 477.0441,-37.8742 477.0441,-42.1241 472.7942,-46.374 468.5443,-46.374"/>
<text text-anchor="middle" x="359.5989" y="-30.2485" font-family="Arial" font-size="15.00" fill="#c6c5fe">../externalInterface/api/http/me.ts</text>
</g>
<!-- ../externalInterface/api/http/me.ts&#45;&gt;../externalInterface/api/http/client/index.ts -->
<g id="edge2" class="edge">
<title>../externalInterface/api/http/me.ts&#45;&gt;../externalInterface/api/http/client/index.ts</title>
<path fill="none" stroke="#757575" d="M477.1978,-42.3193C485.6041,-42.9408 494.1494,-43.5726 502.7199,-44.2063"/>
<polygon fill="#757575" stroke="#757575" points="502.5546,-47.7035 512.7854,-44.9505 503.0708,-40.7226 502.5546,-47.7035"/>
</g>
<!-- ../externalInterface/api/http/me.ts&#45;&gt;../externalInterface/api/http/client/util.ts -->
<g id="edge3" class="edge">
<title>../externalInterface/api/http/me.ts&#45;&gt;../externalInterface/api/http/client/util.ts</title>
<path fill="none" stroke="#757575" d="M477.1978,-25.3245C488.1422,-24.5521 499.3224,-23.763 510.4866,-22.9751"/>
<polygon fill="#757575" stroke="#757575" points="510.9991,-26.4477 520.7278,-22.2523 510.5062,-19.4651 510.9991,-26.4477"/>
</g>
<!-- me/index.ts -->
<g id="node5" class="node">
<title>me/index.ts</title>
<path fill="none" stroke="#c6c5fe" d="M84.0495,-46.374C84.0495,-46.374 8.6498,-46.374 8.6498,-46.374 4.3998,-46.374 .1499,-42.1241 .1499,-37.8742 .1499,-37.8742 .1499,-29.3743 .1499,-29.3743 .1499,-25.1244 4.3998,-20.8745 8.6498,-20.8745 8.6498,-20.8745 84.0495,-20.8745 84.0495,-20.8745 88.2994,-20.8745 92.5493,-25.1244 92.5493,-29.3743 92.5493,-29.3743 92.5493,-37.8742 92.5493,-37.8742 92.5493,-42.1241 88.2994,-46.374 84.0495,-46.374"/>
<text text-anchor="middle" x="46.3496" y="-30.2485" font-family="Arial" font-size="15.00" fill="#c6c5fe">me/index.ts</text>
</g>
<!-- me/me.ts -->
<g id="node6" class="node">
<title>me/me.ts</title>
<path fill="none" stroke="#c6c5fe" d="M197.7159,-46.374C197.7159,-46.374 137.3598,-46.374 137.3598,-46.374 133.1099,-46.374 128.8599,-42.1241 128.8599,-37.8742 128.8599,-37.8742 128.8599,-29.3743 128.8599,-29.3743 128.8599,-25.1244 133.1099,-20.8745 137.3598,-20.8745 137.3598,-20.8745 197.7159,-20.8745 197.7159,-20.8745 201.9658,-20.8745 206.2158,-25.1244 206.2158,-29.3743 206.2158,-29.3743 206.2158,-37.8742 206.2158,-37.8742 206.2158,-42.1241 201.9658,-46.374 197.7159,-46.374"/>
<text text-anchor="middle" x="167.5378" y="-30.2485" font-family="Arial" font-size="15.00" fill="#c6c5fe">me/me.ts</text>
</g>
<!-- me/index.ts&#45;&gt;me/me.ts -->
<g id="edge4" class="edge">
<title>me/index.ts&#45;&gt;me/me.ts</title>
<path fill="none" stroke="#757575" d="M92.8576,-33.6243C101.3045,-33.6243 110.138,-33.6243 118.6511,-33.6243"/>
<polygon fill="#757575" stroke="#757575" points="118.8287,-37.1244 128.8287,-33.6243 118.8286,-30.1244 118.8287,-37.1244"/>
</g>
<!-- me/me.ts&#45;&gt;../externalInterface/api/http/me.ts -->
<g id="edge5" class="edge">
<title>me/me.ts&#45;&gt;../externalInterface/api/http/me.ts</title>
<path fill="none" stroke="#757575" d="M206.4043,-33.6243C214.2928,-33.6243 222.9905,-33.6243 232.1141,-33.6243"/>
<polygon fill="#757575" stroke="#757575" points="232.1631,-37.1244 242.1631,-33.6243 232.163,-30.1244 232.1631,-37.1244"/>
</g>
</g>
</svg>
