<?xml version="1.0" encoding="UTF-8" standalone="no"?>
<!DOCTYPE svg PUBLIC "-//W3C//DTD SVG 1.1//EN"
 "http://www.w3.org/Graphics/SVG/1.1/DTD/svg11.dtd">
<!-- Generated by graphviz version 2.40.1 (20161225.0304)
 -->
<!-- Title: G Pages: 1 -->
<svg width="640pt" height="197pt"
 viewBox="0.00 0.00 639.78 197.45" xmlns="http://www.w3.org/2000/svg" xmlns:xlink="http://www.w3.org/1999/xlink">
<g id="graph0" class="graph" transform="scale(1 1) rotate(0) translate(21.6 175.8485)">
<title>G</title>
<polygon fill="#111111" stroke="transparent" points="-21.6,21.6 -21.6,-175.8485 618.1815,-175.8485 618.1815,21.6 -21.6,21.6"/>
<!-- components/environment/Me/Content.tsx -->
<g id="node1" class="node">
<title>components/environment/Me/Content.tsx</title>
<path fill="none" stroke="#cfffac" d="M287.8768,-25.374C287.8768,-25.374 14.9323,-25.374 14.9323,-25.374 10.6824,-25.374 6.4325,-21.1241 6.4325,-16.8742 6.4325,-16.8742 6.4325,-8.3743 6.4325,-8.3743 6.4325,-4.1244 10.6824,.1255 14.9323,.1255 14.9323,.1255 287.8768,.1255 287.8768,.1255 292.1267,.1255 296.3766,-4.1244 296.3766,-8.3743 296.3766,-8.3743 296.3766,-16.8742 296.3766,-16.8742 296.3766,-21.1241 292.1267,-25.374 287.8768,-25.374"/>
<text text-anchor="middle" x="151.4045" y="-9.2485" font-family="Arial" font-size="15.00" fill="#cfffac">components/environment/Me/Content.tsx</text>
</g>
<!-- components/environment/Me/Exception.tsx -->
<g id="node2" class="node">
<title>components/environment/Me/Exception.tsx</title>
<path fill="none" stroke="#cfffac" d="M294.2138,-68.374C294.2138,-68.374 8.5952,-68.374 8.5952,-68.374 4.3453,-68.374 .0954,-64.1241 .0954,-59.8742 .0954,-59.8742 .0954,-51.3743 .0954,-51.3743 .0954,-47.1244 4.3453,-42.8745 8.5952,-42.8745 8.5952,-42.8745 294.2138,-42.8745 294.2138,-42.8745 298.4638,-42.8745 302.7137,-47.1244 302.7137,-51.3743 302.7137,-51.3743 302.7137,-59.8742 302.7137,-59.8742 302.7137,-64.1241 298.4638,-68.374 294.2138,-68.374"/>
<text text-anchor="middle" x="151.4045" y="-52.2485" font-family="Arial" font-size="15.00" fill="#cfffac">components/environment/Me/Exception.tsx</text>
</g>
<!-- components/environment/Me/Me.tsx -->
<g id="node3" class="node">
<title>components/environment/Me/Me.tsx</title>
<path fill="none" stroke="#cfffac" d="M587.968,-111.374C587.968,-111.374 347.4226,-111.374 347.4226,-111.374 343.1727,-111.374 338.9228,-107.1241 338.9228,-102.8742 338.9228,-102.8742 338.9228,-94.3743 338.9228,-94.3743 338.9228,-90.1244 343.1727,-85.8745 347.4226,-85.8745 347.4226,-85.8745 587.968,-85.8745 587.968,-85.8745 592.218,-85.8745 596.4679,-90.1244 596.4679,-94.3743 596.4679,-94.3743 596.4679,-102.8742 596.4679,-102.8742 596.4679,-107.1241 592.218,-111.374 587.968,-111.374"/>
<text text-anchor="middle" x="467.6953" y="-95.2485" font-family="Arial" font-size="15.00" fill="#cfffac">components/environment/Me/Me.tsx</text>
</g>
<!-- components/environment/Me/index.ts -->
<g id="node4" class="node">
<title>components/environment/Me/index.ts</title>
<path fill="none" stroke="#c6c5fe" d="M275.6993,-111.374C275.6993,-111.374 27.1098,-111.374 27.1098,-111.374 22.8599,-111.374 18.6099,-107.1241 18.6099,-102.8742 18.6099,-102.8742 18.6099,-94.3743 18.6099,-94.3743 18.6099,-90.1244 22.8599,-85.8745 27.1098,-85.8745 27.1098,-85.8745 275.6993,-85.8745 275.6993,-85.8745 279.9492,-85.8745 284.1991,-90.1244 284.1991,-94.3743 284.1991,-94.3743 284.1991,-102.8742 284.1991,-102.8742 284.1991,-107.1241 279.9492,-111.374 275.6993,-111.374"/>
<text text-anchor="middle" x="151.4045" y="-95.2485" font-family="Arial" font-size="15.00" fill="#c6c5fe">components/environment/Me/index.ts</text>
</g>
<!-- components/environment/Me/index.ts&#45;&gt;components/environment/Me/Me.tsx -->
<g id="edge1" class="edge">
<title>components/environment/Me/index.ts&#45;&gt;components/environment/Me/Me.tsx</title>
<path fill="none" stroke="#757575" d="M284.1655,-98.6243C298.8628,-98.6243 313.8604,-98.6243 328.6326,-98.6243"/>
<polygon fill="#757575" stroke="#757575" points="328.817,-102.1244 338.817,-98.6243 328.817,-95.1244 328.817,-102.1244"/>
</g>
<!-- containers/ErrorBoundary.tsx -->
<g id="node5" class="node">
<title>containers/ErrorBoundary.tsx</title>
<path fill="none" stroke="#cfffac" d="M247.5444,-154.374C247.5444,-154.374 55.2647,-154.374 55.2647,-154.374 51.0148,-154.374 46.7648,-150.1241 46.7648,-145.8742 46.7648,-145.8742 46.7648,-137.3743 46.7648,-137.3743 46.7648,-133.1244 51.0148,-128.8745 55.2647,-128.8745 55.2647,-128.8745 247.5444,-128.8745 247.5444,-128.8745 251.7943,-128.8745 256.0442,-133.1244 256.0442,-137.3743 256.0442,-137.3743 256.0442,-145.8742 256.0442,-145.8742 256.0442,-150.1241 251.7943,-154.374 247.5444,-154.374"/>
<text text-anchor="middle" x="151.4045" y="-138.2485" font-family="Arial" font-size="15.00" fill="#cfffac">containers/ErrorBoundary.tsx</text>
</g>
</g>
</svg>
