<?xml version="1.0" encoding="UTF-8" standalone="no"?>
<!DOCTYPE svg PUBLIC "-//W3C//DTD SVG 1.1//EN"
 "http://www.w3.org/Graphics/SVG/1.1/DTD/svg11.dtd">
<!-- Generated by graphviz version 2.40.1 (20161225.0304)
 -->
<!-- Title: G Pages: 1 -->
<svg width="466pt" height="197pt"
 viewBox="0.00 0.00 466.36 197.45" xmlns="http://www.w3.org/2000/svg" xmlns:xlink="http://www.w3.org/1999/xlink">
<g id="graph0" class="graph" transform="scale(1 1) rotate(0) translate(21.6 175.8485)">
<title>G</title>
<polygon fill="#111111" stroke="transparent" points="-21.6,21.6 -21.6,-175.8485 444.7587,-175.8485 444.7587,21.6 -21.6,21.6"/>
<!-- components/Me/Content.tsx -->
<g id="node1" class="node">
<title>components/Me/Content.tsx</title>
<path fill="none" stroke="#cfffac" d="M200.8094,-25.374C200.8094,-25.374 15.2883,-25.374 15.2883,-25.374 11.0384,-25.374 6.7884,-21.1241 6.7884,-16.8742 6.7884,-16.8742 6.7884,-8.3743 6.7884,-8.3743 6.7884,-4.1244 11.0384,.1255 15.2883,.1255 15.2883,.1255 200.8094,.1255 200.8094,.1255 205.0593,.1255 209.3092,-4.1244 209.3092,-8.3743 209.3092,-8.3743 209.3092,-16.8742 209.3092,-16.8742 209.3092,-21.1241 205.0593,-25.374 200.8094,-25.374"/>
<text text-anchor="middle" x="108.0488" y="-9.2485" font-family="Arial" font-size="15.00" fill="#cfffac">components/Me/Content.tsx</text>
</g>
<!-- components/Me/Exception.tsx -->
<g id="node2" class="node">
<title>components/Me/Exception.tsx</title>
<path fill="none" stroke="#cfffac" d="M207.6467,-68.374C207.6467,-68.374 8.451,-68.374 8.451,-68.374 4.2011,-68.374 -.0489,-64.1241 -.0489,-59.8742 -.0489,-59.8742 -.0489,-51.3743 -.0489,-51.3743 -.0489,-47.1244 4.2011,-42.8745 8.451,-42.8745 8.451,-42.8745 207.6467,-42.8745 207.6467,-42.8745 211.8966,-42.8745 216.1465,-47.1244 216.1465,-51.3743 216.1465,-51.3743 216.1465,-59.8742 216.1465,-59.8742 216.1465,-64.1241 211.8966,-68.374 207.6467,-68.374"/>
<text text-anchor="middle" x="108.0488" y="-52.2485" font-family="Arial" font-size="15.00" fill="#cfffac">components/Me/Exception.tsx</text>
</g>
<!-- components/Me/Me.tsx -->
<g id="node3" class="node">
<title>components/Me/Me.tsx</title>
<path fill="none" stroke="#cfffac" d="M414.6894,-111.374C414.6894,-111.374 260.567,-111.374 260.567,-111.374 256.3171,-111.374 252.0671,-107.1241 252.0671,-102.8742 252.0671,-102.8742 252.0671,-94.3743 252.0671,-94.3743 252.0671,-90.1244 256.3171,-85.8745 260.567,-85.8745 260.567,-85.8745 414.6894,-85.8745 414.6894,-85.8745 418.9393,-85.8745 423.1892,-90.1244 423.1892,-94.3743 423.1892,-94.3743 423.1892,-102.8742 423.1892,-102.8742 423.1892,-107.1241 418.9393,-111.374 414.6894,-111.374"/>
<text text-anchor="middle" x="337.6282" y="-95.2485" font-family="Arial" font-size="15.00" fill="#cfffac">components/Me/Me.tsx</text>
</g>
<!-- components/Me/index.ts -->
<g id="node4" class="node">
<title>components/Me/index.ts</title>
<path fill="none" stroke="#c6c5fe" d="M188.6325,-111.374C188.6325,-111.374 27.4652,-111.374 27.4652,-111.374 23.2153,-111.374 18.9653,-107.1241 18.9653,-102.8742 18.9653,-102.8742 18.9653,-94.3743 18.9653,-94.3743 18.9653,-90.1244 23.2153,-85.8745 27.4652,-85.8745 27.4652,-85.8745 188.6325,-85.8745 188.6325,-85.8745 192.8824,-85.8745 197.1323,-90.1244 197.1323,-94.3743 197.1323,-94.3743 197.1323,-102.8742 197.1323,-102.8742 197.1323,-107.1241 192.8824,-111.374 188.6325,-111.374"/>
<text text-anchor="middle" x="108.0488" y="-95.2485" font-family="Arial" font-size="15.00" fill="#c6c5fe">components/Me/index.ts</text>
</g>
<!-- components/Me/index.ts&#45;&gt;components/Me/Me.tsx -->
<g id="edge1" class="edge">
<title>components/Me/index.ts&#45;&gt;components/Me/Me.tsx</title>
<path fill="none" stroke="#757575" d="M197.1388,-98.6243C211.7832,-98.6243 227.0159,-98.6243 241.8157,-98.6243"/>
<polygon fill="#757575" stroke="#757575" points="241.98,-102.1244 251.98,-98.6243 241.98,-95.1244 241.98,-102.1244"/>
</g>
<!-- containers/ErrorBoundary.tsx -->
<g id="node5" class="node">
<title>containers/ErrorBoundary.tsx</title>
<path fill="none" stroke="#cfffac" d="M204.1887,-154.374C204.1887,-154.374 11.909,-154.374 11.909,-154.374 7.6591,-154.374 3.4091,-150.1241 3.4091,-145.8742 3.4091,-145.8742 3.4091,-137.3743 3.4091,-137.3743 3.4091,-133.1244 7.6591,-128.8745 11.909,-128.8745 11.909,-128.8745 204.1887,-128.8745 204.1887,-128.8745 208.4386,-128.8745 212.6885,-133.1244 212.6885,-137.3743 212.6885,-137.3743 212.6885,-145.8742 212.6885,-145.8742 212.6885,-150.1241 208.4386,-154.374 204.1887,-154.374"/>
<text text-anchor="middle" x="108.0488" y="-138.2485" font-family="Arial" font-size="15.00" fill="#cfffac">containers/ErrorBoundary.tsx</text>
</g>
</g>
</svg>
