<?xml version="1.0" encoding="UTF-8" standalone="no"?>
<!DOCTYPE svg PUBLIC "-//W3C//DTD SVG 1.1//EN"
 "http://www.w3.org/Graphics/SVG/1.1/DTD/svg11.dtd">
<!-- Generated by graphviz version 2.40.1 (20161225.0304)
 -->
<!-- Title: G Pages: 1 -->
<svg width="1700pt" height="681pt"
 viewBox="0.00 0.00 1699.89 681.45" xmlns="http://www.w3.org/2000/svg" xmlns:xlink="http://www.w3.org/1999/xlink">
<g id="graph0" class="graph" transform="scale(1 1) rotate(0) translate(21.6 659.8485)">
<title>G</title>
<polygon fill="#111111" stroke="transparent" points="-21.6,21.6 -21.6,-659.8485 1678.2865,-659.8485 1678.2865,21.6 -21.6,21.6"/>
<!-- app.d.ts -->
<g id="node1" class="node">
<title>app.d.ts</title>
<path fill="none" stroke="#cfffac" d="M138.8637,-205.374C138.8637,-205.374 86.1182,-205.374 86.1182,-205.374 81.8683,-205.374 77.6184,-201.1241 77.6184,-196.8742 77.6184,-196.8742 77.6184,-188.3743 77.6184,-188.3743 77.6184,-184.1244 81.8683,-179.8745 86.1182,-179.8745 86.1182,-179.8745 138.8637,-179.8745 138.8637,-179.8745 143.1136,-179.8745 147.3635,-184.1244 147.3635,-188.3743 147.3635,-188.3743 147.3635,-196.8742 147.3635,-196.8742 147.3635,-201.1241 143.1136,-205.374 138.8637,-205.374"/>
<text text-anchor="middle" x="112.491" y="-189.2485" font-family="Arial" font-size="15.00" fill="#cfffac">app.d.ts</text>
</g>
<!-- controller/me.tsx -->
<g id="node2" class="node">
<title>controller/me.tsx</title>
<path fill="none" stroke="#c6c5fe" d="M167.0229,-248.374C167.0229,-248.374 57.9591,-248.374 57.9591,-248.374 53.7091,-248.374 49.4592,-244.1241 49.4592,-239.8742 49.4592,-239.8742 49.4592,-231.3743 49.4592,-231.3743 49.4592,-227.1244 53.7091,-222.8745 57.9591,-222.8745 57.9591,-222.8745 167.0229,-222.8745 167.0229,-222.8745 171.2728,-222.8745 175.5227,-227.1244 175.5227,-231.3743 175.5227,-231.3743 175.5227,-239.8742 175.5227,-239.8742 175.5227,-244.1241 171.2728,-248.374 167.0229,-248.374"/>
<text text-anchor="middle" x="112.491" y="-232.2485" font-family="Arial" font-size="15.00" fill="#c6c5fe">controller/me.tsx</text>
</g>
<!-- domain/me/index.ts -->
<g id="node3" class="node">
<title>domain/me/index.ts</title>
<path fill="none" stroke="#c6c5fe" d="M1046.8893,-389.374C1046.8893,-389.374 917.762,-389.374 917.762,-389.374 913.5121,-389.374 909.2622,-385.1241 909.2622,-380.8742 909.2622,-380.8742 909.2622,-372.3743 909.2622,-372.3743 909.2622,-368.1244 913.5121,-363.8745 917.762,-363.8745 917.762,-363.8745 1046.8893,-363.8745 1046.8893,-363.8745 1051.1393,-363.8745 1055.3892,-368.1244 1055.3892,-372.3743 1055.3892,-372.3743 1055.3892,-380.8742 1055.3892,-380.8742 1055.3892,-385.1241 1051.1393,-389.374 1046.8893,-389.374"/>
<text text-anchor="middle" x="982.3257" y="-373.2485" font-family="Arial" font-size="15.00" fill="#c6c5fe">domain/me/index.ts</text>
</g>
<!-- controller/me.tsx&#45;&gt;domain/me/index.ts -->
<g id="edge1" class="edge">
<title>controller/me.tsx&#45;&gt;domain/me/index.ts</title>
<path fill="none" stroke="#757575" d="M175.748,-245.8782C330.0301,-270.8873 725.6651,-335.0196 898.9347,-363.1066"/>
<polygon fill="#757575" stroke="#757575" points="898.5899,-366.5963 909.0211,-364.7416 899.71,-359.6865 898.5899,-366.5963"/>
</g>
<!-- infra/repo/me/index.ts -->
<g id="node4" class="node">
<title>infra/repo/me/index.ts</title>
<path fill="none" stroke="#c6c5fe" d="M448.6881,-248.374C448.6881,-248.374 305.2157,-248.374 305.2157,-248.374 300.9658,-248.374 296.7159,-244.1241 296.7159,-239.8742 296.7159,-239.8742 296.7159,-231.3743 296.7159,-231.3743 296.7159,-227.1244 300.9658,-222.8745 305.2157,-222.8745 305.2157,-222.8745 448.6881,-222.8745 448.6881,-222.8745 452.938,-222.8745 457.1879,-227.1244 457.1879,-231.3743 457.1879,-231.3743 457.1879,-239.8742 457.1879,-239.8742 457.1879,-244.1241 452.938,-248.374 448.6881,-248.374"/>
<text text-anchor="middle" x="376.9519" y="-232.2485" font-family="Arial" font-size="15.00" fill="#c6c5fe">infra/repo/me/index.ts</text>
</g>
<!-- controller/me.tsx&#45;&gt;infra/repo/me/index.ts -->
<g id="edge2" class="edge">
<title>controller/me.tsx&#45;&gt;infra/repo/me/index.ts</title>
<path fill="none" stroke="#757575" d="M175.836,-235.6243C208.9395,-235.6243 250.0344,-235.6243 286.432,-235.6243"/>
<polygon fill="#757575" stroke="#757575" points="286.5629,-239.1244 296.5629,-235.6243 286.5629,-232.1244 286.5629,-239.1244"/>
</g>
<!-- shared/CQRS/read/DomainData.ts -->
<g id="node5" class="node">
<title>shared/CQRS/read/DomainData.ts</title>
<path fill="none" stroke="#cfffac" d="M1615.216,-476.374C1615.216,-476.374 1385.3504,-476.374 1385.3504,-476.374 1381.1005,-476.374 1376.8506,-472.1241 1376.8506,-467.8742 1376.8506,-467.8742 1376.8506,-459.3743 1376.8506,-459.3743 1376.8506,-455.1244 1381.1005,-450.8745 1385.3504,-450.8745 1385.3504,-450.8745 1615.216,-450.8745 1615.216,-450.8745 1619.4659,-450.8745 1623.7158,-455.1244 1623.7158,-459.3743 1623.7158,-459.3743 1623.7158,-467.8742 1623.7158,-467.8742 1623.7158,-472.1241 1619.4659,-476.374 1615.216,-476.374"/>
<text text-anchor="middle" x="1500.2832" y="-460.2485" font-family="Arial" font-size="15.00" fill="#cfffac">shared/CQRS/read/DomainData.ts</text>
</g>
<!-- controller/me.tsx&#45;&gt;shared/CQRS/read/DomainData.ts -->
<g id="edge3" class="edge">
<title>controller/me.tsx&#45;&gt;shared/CQRS/read/DomainData.ts</title>
<path fill="none" stroke="#757575" d="M119.5556,-248.6128C138.0967,-281.4176 191.5474,-368.0878 260.9819,-411.6243 393.3322,-494.6098 445.3136,-498.6243 601.5288,-498.6243 601.5288,-498.6243 601.5288,-498.6243 982.3257,-498.6243 1115.0395,-498.6243 1266.4467,-487.0445 1371.1342,-477.2063"/>
<polygon fill="#757575" stroke="#757575" points="1371.4921,-480.6881 1381.1172,-476.2601 1370.8315,-473.7194 1371.4921,-480.6881"/>
</g>
<!-- shared/CQRS/read/DomainDataException.ts -->
<g id="node6" class="node">
<title>shared/CQRS/read/DomainDataException.ts</title>
<path fill="none" stroke="#cfffac" d="M1648.0901,-390.374C1648.0901,-390.374 1352.4763,-390.374 1352.4763,-390.374 1348.2264,-390.374 1343.9765,-386.1241 1343.9765,-381.8742 1343.9765,-381.8742 1343.9765,-373.3743 1343.9765,-373.3743 1343.9765,-369.1244 1348.2264,-364.8745 1352.4763,-364.8745 1352.4763,-364.8745 1648.0901,-364.8745 1648.0901,-364.8745 1652.34,-364.8745 1656.5899,-369.1244 1656.5899,-373.3743 1656.5899,-373.3743 1656.5899,-381.8742 1656.5899,-381.8742 1656.5899,-386.1241 1652.34,-390.374 1648.0901,-390.374"/>
<text text-anchor="middle" x="1500.2832" y="-374.2485" font-family="Arial" font-size="15.00" fill="#cfffac">shared/CQRS/read/DomainDataException.ts</text>
</g>
<!-- controller/me.tsx&#45;&gt;shared/CQRS/read/DomainDataException.ts -->
<g id="edge4" class="edge">
<title>controller/me.tsx&#45;&gt;shared/CQRS/read/DomainDataException.ts</title>
<path fill="none" stroke="#757575" d="M127.3586,-248.3659C184.4749,-295.9632 396.857,-460.6243 601.5288,-460.6243 601.5288,-460.6243 601.5288,-460.6243 982.3257,-460.6243 1127.2626,-460.6243 1178.3995,-506.7514 1307.8799,-441.6243 1330.1464,-430.4245 1322.0499,-410.6529 1343.8799,-398.6243 1346.6693,-397.0872 1349.528,-395.6465 1352.4438,-394.2964"/>
<polygon fill="#757575" stroke="#757575" points="1354.0856,-397.4024 1361.9352,-390.2867 1351.3614,-390.9542 1354.0856,-397.4024"/>
</g>
<!-- shared/CQRS/read/InfraException.ts -->
<g id="node7" class="node">
<title>shared/CQRS/read/InfraException.ts</title>
<path fill="none" stroke="#cfffac" d="M1621.7335,-206.374C1621.7335,-206.374 1378.833,-206.374 1378.833,-206.374 1374.583,-206.374 1370.3331,-202.1241 1370.3331,-197.8742 1370.3331,-197.8742 1370.3331,-189.3743 1370.3331,-189.3743 1370.3331,-185.1244 1374.583,-180.8745 1378.833,-180.8745 1378.833,-180.8745 1621.7335,-180.8745 1621.7335,-180.8745 1625.9834,-180.8745 1630.2333,-185.1244 1630.2333,-189.3743 1630.2333,-189.3743 1630.2333,-197.8742 1630.2333,-197.8742 1630.2333,-202.1241 1625.9834,-206.374 1621.7335,-206.374"/>
<text text-anchor="middle" x="1500.2832" y="-190.2485" font-family="Arial" font-size="15.00" fill="#cfffac">shared/CQRS/read/InfraException.ts</text>
</g>
<!-- controller/me.tsx&#45;&gt;shared/CQRS/read/InfraException.ts -->
<g id="edge5" class="edge">
<title>controller/me.tsx&#45;&gt;shared/CQRS/read/InfraException.ts</title>
<path fill="none" stroke="#757575" d="M175.5478,-225.2204C191.7413,-222.175 209.0776,-218.5858 224.9819,-214.6243 395.1612,-172.2348 426.1497,-96.6243 601.5288,-96.6243 601.5288,-96.6243 601.5288,-96.6243 982.3257,-96.6243 1156.9237,-96.6243 1359.0576,-150.5327 1450.6379,-177.973"/>
<polygon fill="#757575" stroke="#757575" points="1449.8789,-181.3999 1460.4639,-180.9432 1451.9044,-174.6994 1449.8789,-181.3999"/>
</g>
<!-- ui/components/Me/Content.tsx -->
<g id="node8" class="node">
<title>ui/components/Me/Content.tsx</title>
<path fill="none" stroke="#cfffac" d="M477.555,-68.374C477.555,-68.374 276.3489,-68.374 276.3489,-68.374 272.0989,-68.374 267.849,-64.1241 267.849,-59.8742 267.849,-59.8742 267.849,-51.3743 267.849,-51.3743 267.849,-47.1244 272.0989,-42.8745 276.3489,-42.8745 276.3489,-42.8745 477.555,-42.8745 477.555,-42.8745 481.8049,-42.8745 486.0548,-47.1244 486.0548,-51.3743 486.0548,-51.3743 486.0548,-59.8742 486.0548,-59.8742 486.0548,-64.1241 481.8049,-68.374 477.555,-68.374"/>
<text text-anchor="middle" x="376.9519" y="-52.2485" font-family="Arial" font-size="15.00" fill="#cfffac">ui/components/Me/Content.tsx</text>
</g>
<!-- controller/me.tsx&#45;&gt;ui/components/Me/Content.tsx -->
<g id="edge6" class="edge">
<title>controller/me.tsx&#45;&gt;ui/components/Me/Content.tsx</title>
<path fill="none" stroke="#757575" d="M175.583,-236.0139C193.4309,-233.1381 211.6137,-226.9427 224.9819,-214.6243 269.7007,-173.4173 217.1844,-124.8091 260.9819,-82.6243 264.6065,-79.1332 268.5903,-76.0619 272.8324,-73.3622"/>
<polygon fill="#757575" stroke="#757575" points="274.8379,-76.2515 281.8702,-68.3269 271.431,-70.1365 274.8379,-76.2515"/>
</g>
<!-- ui/components/Me/Exception.tsx -->
<g id="node9" class="node">
<title>ui/components/Me/Exception.tsx</title>
<path fill="none" stroke="#cfffac" d="M484.392,-25.374C484.392,-25.374 269.5118,-25.374 269.5118,-25.374 265.2619,-25.374 261.012,-21.1241 261.012,-16.8742 261.012,-16.8742 261.012,-8.3743 261.012,-8.3743 261.012,-4.1244 265.2619,.1255 269.5118,.1255 269.5118,.1255 484.392,.1255 484.392,.1255 488.6419,.1255 492.8919,-4.1244 492.8919,-8.3743 492.8919,-8.3743 492.8919,-16.8742 492.8919,-16.8742 492.8919,-21.1241 488.6419,-25.374 484.392,-25.374"/>
<text text-anchor="middle" x="376.9519" y="-9.2485" font-family="Arial" font-size="15.00" fill="#cfffac">ui/components/Me/Exception.tsx</text>
</g>
<!-- controller/me.tsx&#45;&gt;ui/components/Me/Exception.tsx -->
<g id="edge7" class="edge">
<title>controller/me.tsx&#45;&gt;ui/components/Me/Exception.tsx</title>
<path fill="none" stroke="#757575" d="M175.5407,-236.6757C193.5994,-233.8665 211.9111,-227.5421 224.9819,-214.6243 283.3194,-156.9697 202.4885,-91.1206 260.9819,-33.6243 261.7845,-32.8354 262.6061,-32.0707 263.4456,-31.3296"/>
<polygon fill="#757575" stroke="#757575" points="265.5854,-34.0995 271.4507,-25.2762 261.3634,-28.5161 265.5854,-34.0995"/>
</g>
<!-- domain/me/me.ts -->
<g id="node10" class="node">
<title>domain/me/me.ts</title>
<path fill="none" stroke="#c6c5fe" d="M1268.5439,-389.374C1268.5439,-389.374 1154.4605,-389.374 1154.4605,-389.374 1150.2106,-389.374 1145.9607,-385.1241 1145.9607,-380.8742 1145.9607,-380.8742 1145.9607,-372.3743 1145.9607,-372.3743 1145.9607,-368.1244 1150.2106,-363.8745 1154.4605,-363.8745 1154.4605,-363.8745 1268.5439,-363.8745 1268.5439,-363.8745 1272.7938,-363.8745 1277.0437,-368.1244 1277.0437,-372.3743 1277.0437,-372.3743 1277.0437,-380.8742 1277.0437,-380.8742 1277.0437,-385.1241 1272.7938,-389.374 1268.5439,-389.374"/>
<text text-anchor="middle" x="1211.5022" y="-373.2485" font-family="Arial" font-size="15.00" fill="#c6c5fe">domain/me/me.ts</text>
</g>
<!-- domain/me/index.ts&#45;&gt;domain/me/me.ts -->
<g id="edge8" class="edge">
<title>domain/me/index.ts&#45;&gt;domain/me/me.ts</title>
<path fill="none" stroke="#757575" d="M1055.4687,-376.6243C1081.0262,-376.6243 1109.7628,-376.6243 1135.5446,-376.6243"/>
<polygon fill="#757575" stroke="#757575" points="1135.6412,-380.1244 1145.6411,-376.6243 1135.6411,-373.1244 1135.6412,-380.1244"/>
</g>
<!-- domain/me/type.ts -->
<g id="node11" class="node">
<title>domain/me/type.ts</title>
<path fill="none" stroke="#c6c5fe" d="M1272.0592,-432.374C1272.0592,-432.374 1150.9452,-432.374 1150.9452,-432.374 1146.6953,-432.374 1142.4453,-428.1241 1142.4453,-423.8742 1142.4453,-423.8742 1142.4453,-415.3743 1142.4453,-415.3743 1142.4453,-411.1244 1146.6953,-406.8745 1150.9452,-406.8745 1150.9452,-406.8745 1272.0592,-406.8745 1272.0592,-406.8745 1276.3091,-406.8745 1280.5591,-411.1244 1280.5591,-415.3743 1280.5591,-415.3743 1280.5591,-423.8742 1280.5591,-423.8742 1280.5591,-428.1241 1276.3091,-432.374 1272.0592,-432.374"/>
<text text-anchor="middle" x="1211.5022" y="-416.2485" font-family="Arial" font-size="15.00" fill="#c6c5fe">domain/me/type.ts</text>
</g>
<!-- domain/me/index.ts&#45;&gt;domain/me/type.ts -->
<g id="edge9" class="edge">
<title>domain/me/index.ts&#45;&gt;domain/me/type.ts</title>
<path fill="none" stroke="#757575" d="M1049.8467,-389.2931C1076.305,-394.2575 1106.8156,-399.9821 1134.1533,-405.1114"/>
<polygon fill="#757575" stroke="#757575" points="1133.5942,-408.5675 1144.0682,-406.9717 1134.8851,-401.6876 1133.5942,-408.5675"/>
</g>
<!-- infra/repo/me/me.ts -->
<g id="node19" class="node">
<title>infra/repo/me/me.ts</title>
<path fill="none" stroke="#c6c5fe" d="M665.743,-248.374C665.743,-248.374 537.3146,-248.374 537.3146,-248.374 533.0647,-248.374 528.8148,-244.1241 528.8148,-239.8742 528.8148,-239.8742 528.8148,-231.3743 528.8148,-231.3743 528.8148,-227.1244 533.0647,-222.8745 537.3146,-222.8745 537.3146,-222.8745 665.743,-222.8745 665.743,-222.8745 669.9929,-222.8745 674.2428,-227.1244 674.2428,-231.3743 674.2428,-231.3743 674.2428,-239.8742 674.2428,-239.8742 674.2428,-244.1241 669.9929,-248.374 665.743,-248.374"/>
<text text-anchor="middle" x="601.5288" y="-232.2485" font-family="Arial" font-size="15.00" fill="#c6c5fe">infra/repo/me/me.ts</text>
</g>
<!-- infra/repo/me/index.ts&#45;&gt;infra/repo/me/me.ts -->
<g id="edge27" class="edge">
<title>infra/repo/me/index.ts&#45;&gt;infra/repo/me/me.ts</title>
<path fill="none" stroke="#757575" d="M457.0782,-235.6243C477.1218,-235.6243 498.6585,-235.6243 518.8244,-235.6243"/>
<polygon fill="#757575" stroke="#757575" points="518.9144,-239.1244 528.9144,-235.6243 518.9143,-232.1244 518.9144,-239.1244"/>
</g>
<!-- domain/me/me.ts&#45;&gt;shared/CQRS/read/DomainData.ts -->
<g id="edge10" class="edge">
<title>domain/me/me.ts&#45;&gt;shared/CQRS/read/DomainData.ts</title>
<path fill="none" stroke="#757575" d="M1277.105,-384.5926C1287.8866,-387.6447 1298.5668,-391.8463 1307.8799,-397.6243 1329.6439,-411.1271 1321.5865,-430.0145 1343.8799,-442.6243 1351.1643,-446.7445 1358.9372,-450.1805 1366.9783,-453.0368"/>
<polygon fill="#757575" stroke="#757575" points="1365.9359,-456.3782 1376.5278,-456.1299 1368.0929,-449.7188 1365.9359,-456.3782"/>
</g>
<!-- domain/me/me.ts&#45;&gt;shared/CQRS/read/DomainDataException.ts -->
<g id="edge11" class="edge">
<title>domain/me/me.ts&#45;&gt;shared/CQRS/read/DomainDataException.ts</title>
<path fill="none" stroke="#757575" d="M1277.0311,-376.8512C1294.2566,-376.9108 1313.6421,-376.978 1333.6102,-377.0471"/>
<polygon fill="#757575" stroke="#757575" points="1333.7612,-380.5476 1343.7733,-377.0823 1333.7855,-373.5476 1333.7612,-380.5476"/>
</g>
<!-- domain/me/me.ts&#45;&gt;shared/CQRS/read/InfraException.ts -->
<g id="edge13" class="edge">
<title>domain/me/me.ts&#45;&gt;shared/CQRS/read/InfraException.ts</title>
<path fill="none" stroke="#757575" d="M1224.6716,-363.9879C1243.598,-345.661 1279.3505,-310.4145 1307.8799,-278.6243 1324.7558,-259.8194 1322.6174,-248.2745 1343.8799,-234.6243 1361.7232,-223.1691 1382.6538,-214.9044 1403.2961,-208.9446"/>
<polygon fill="#757575" stroke="#757575" points="1404.3398,-212.288 1413.0685,-206.283 1402.5002,-205.534 1404.3398,-212.288"/>
</g>
<!-- shared/CQRS/read/InfraData.ts -->
<g id="node12" class="node">
<title>shared/CQRS/read/InfraData.ts</title>
<path fill="none" stroke="#cfffac" d="M1604.5438,-347.374C1604.5438,-347.374 1396.0226,-347.374 1396.0226,-347.374 1391.7727,-347.374 1387.5228,-343.1241 1387.5228,-338.8742 1387.5228,-338.8742 1387.5228,-330.3743 1387.5228,-330.3743 1387.5228,-326.1244 1391.7727,-321.8745 1396.0226,-321.8745 1396.0226,-321.8745 1604.5438,-321.8745 1604.5438,-321.8745 1608.7937,-321.8745 1613.0436,-326.1244 1613.0436,-330.3743 1613.0436,-330.3743 1613.0436,-338.8742 1613.0436,-338.8742 1613.0436,-343.1241 1608.7937,-347.374 1604.5438,-347.374"/>
<text text-anchor="middle" x="1500.2832" y="-331.2485" font-family="Arial" font-size="15.00" fill="#cfffac">shared/CQRS/read/InfraData.ts</text>
</g>
<!-- domain/me/me.ts&#45;&gt;shared/CQRS/read/InfraData.ts -->
<g id="edge12" class="edge">
<title>domain/me/me.ts&#45;&gt;shared/CQRS/read/InfraData.ts</title>
<path fill="none" stroke="#757575" d="M1277.1044,-365.9003C1298.3893,-362.5057 1322.1221,-358.8103 1343.8799,-355.6243 1359.8185,-353.2904 1376.6861,-350.9208 1393.2152,-348.655"/>
<polygon fill="#757575" stroke="#757575" points="1394.0165,-352.0782 1403.4518,-347.2589 1393.0705,-345.1424 1394.0165,-352.0782"/>
</g>
<!-- domain/me/type.ts&#45;&gt;shared/CQRS/read/DomainData.ts -->
<g id="edge14" class="edge">
<title>domain/me/type.ts&#45;&gt;shared/CQRS/read/DomainData.ts</title>
<path fill="none" stroke="#757575" d="M1280.8097,-432.1847C1301.1093,-435.7231 1323.361,-439.4654 1343.8799,-442.6243 1359.3524,-445.0062 1375.71,-447.3711 1391.7866,-449.6078"/>
<polygon fill="#757575" stroke="#757575" points="1391.3652,-453.0828 1401.7499,-450.983 1392.3224,-446.1485 1391.3652,-453.0828"/>
</g>
<!-- domain/me/type.ts&#45;&gt;shared/CQRS/read/DomainDataException.ts -->
<g id="edge15" class="edge">
<title>domain/me/type.ts&#45;&gt;shared/CQRS/read/DomainDataException.ts</title>
<path fill="none" stroke="#757575" d="M1280.8448,-408.3047C1301.1451,-405.0773 1323.3884,-401.6249 1343.8799,-398.6243 1359.8185,-396.2904 1376.6861,-393.9208 1393.2152,-391.655"/>
<polygon fill="#757575" stroke="#757575" points="1394.0165,-395.0782 1403.4518,-390.2589 1393.0705,-388.1424 1394.0165,-395.0782"/>
</g>
<!-- domain/me/type.ts&#45;&gt;shared/CQRS/read/InfraException.ts -->
<g id="edge17" class="edge">
<title>domain/me/type.ts&#45;&gt;shared/CQRS/read/InfraException.ts</title>
<path fill="none" stroke="#757575" d="M1280.7146,-414.6473C1290.8393,-411.226 1300.3665,-406.1261 1307.8799,-398.6243 1360.688,-345.8977 1292.1861,-288.4438 1343.8799,-234.6243 1353.9914,-224.0969 1366.4483,-216.1547 1379.8805,-210.1817"/>
<polygon fill="#757575" stroke="#757575" points="1381.3675,-213.3556 1389.3187,-206.3536 1378.7364,-206.8688 1381.3675,-213.3556"/>
</g>
<!-- domain/me/type.ts&#45;&gt;shared/CQRS/read/InfraData.ts -->
<g id="edge16" class="edge">
<title>domain/me/type.ts&#45;&gt;shared/CQRS/read/InfraData.ts</title>
<path fill="none" stroke="#757575" d="M1280.7866,-410.3674C1290.2832,-407.4542 1299.6018,-403.6333 1307.8799,-398.6243 1329.2045,-385.7209 1322.0499,-367.6529 1343.8799,-355.6243 1354.2841,-349.8914 1365.6508,-345.498 1377.3553,-342.1549"/>
<polygon fill="#757575" stroke="#757575" points="1378.4521,-345.4863 1387.2528,-339.5874 1376.6943,-338.7106 1378.4521,-345.4863"/>
</g>
<!-- shared/CQRS/read/Model.ts -->
<g id="node13" class="node">
<title>shared/CQRS/read/Model.ts</title>
<path fill="none" stroke="#cfffac" d="M1594.1993,-433.374C1594.1993,-433.374 1406.3671,-433.374 1406.3671,-433.374 1402.1172,-433.374 1397.8673,-429.1241 1397.8673,-424.8742 1397.8673,-424.8742 1397.8673,-416.3743 1397.8673,-416.3743 1397.8673,-412.1244 1402.1172,-407.8745 1406.3671,-407.8745 1406.3671,-407.8745 1594.1993,-407.8745 1594.1993,-407.8745 1598.4492,-407.8745 1602.6992,-412.1244 1602.6992,-416.3743 1602.6992,-416.3743 1602.6992,-424.8742 1602.6992,-424.8742 1602.6992,-429.1241 1598.4492,-433.374 1594.1993,-433.374"/>
<text text-anchor="middle" x="1500.2832" y="-417.2485" font-family="Arial" font-size="15.00" fill="#cfffac">shared/CQRS/read/Model.ts</text>
</g>
<!-- domain/me/type.ts&#45;&gt;shared/CQRS/read/Model.ts -->
<g id="edge18" class="edge">
<title>domain/me/type.ts&#45;&gt;shared/CQRS/read/Model.ts</title>
<path fill="none" stroke="#757575" d="M1280.6724,-419.8638C1312.7784,-419.975 1351.7683,-420.11 1387.9339,-420.2352"/>
<polygon fill="#757575" stroke="#757575" points="1388.0394,-423.7355 1398.0515,-420.2703 1388.0637,-416.7356 1388.0394,-423.7355"/>
</g>
<!-- infra/api/http/client/client.ts -->
<g id="node14" class="node">
<title>infra/api/http/client/client.ts</title>
<path fill="none" stroke="#c6c5fe" d="M1299.2579,-269.374C1299.2579,-269.374 1123.7465,-269.374 1123.7465,-269.374 1119.4966,-269.374 1115.2467,-265.1241 1115.2467,-260.8742 1115.2467,-260.8742 1115.2467,-252.3743 1115.2467,-252.3743 1115.2467,-248.1244 1119.4966,-243.8745 1123.7465,-243.8745 1123.7465,-243.8745 1299.2579,-243.8745 1299.2579,-243.8745 1303.5078,-243.8745 1307.7577,-248.1244 1307.7577,-252.3743 1307.7577,-252.3743 1307.7577,-260.8742 1307.7577,-260.8742 1307.7577,-265.1241 1303.5078,-269.374 1299.2579,-269.374"/>
<text text-anchor="middle" x="1211.5022" y="-253.2485" font-family="Arial" font-size="15.00" fill="#c6c5fe">infra/api/http/client/client.ts</text>
</g>
<!-- infra/api/http/client/client.ts&#45;&gt;shared/CQRS/read/InfraException.ts -->
<g id="edge20" class="edge">
<title>infra/api/http/client/client.ts&#45;&gt;shared/CQRS/read/InfraException.ts</title>
<path fill="none" stroke="#757575" d="M1269.594,-243.9511C1316.5911,-233.6982 1382.8548,-219.2423 1432.3132,-208.4525"/>
<polygon fill="#757575" stroke="#757575" points="1433.2601,-211.8283 1442.2843,-206.2772 1431.768,-204.9892 1433.2601,-211.8283"/>
</g>
<!-- infra/api/http/client/client.ts&#45;&gt;shared/CQRS/read/InfraData.ts -->
<g id="edge19" class="edge">
<title>infra/api/http/client/client.ts&#45;&gt;shared/CQRS/read/InfraData.ts</title>
<path fill="none" stroke="#757575" d="M1258.5426,-269.3299C1309.0967,-282.9846 1389.4525,-304.6888 1443.492,-319.2849"/>
<polygon fill="#757575" stroke="#757575" points="1442.6962,-322.6953 1453.263,-321.9241 1444.5216,-315.9375 1442.6962,-322.6953"/>
</g>
<!-- shared/env.ts -->
<g id="node15" class="node">
<title>shared/env.ts</title>
<path fill="none" stroke="#cfffac" d="M1544.2214,-269.374C1544.2214,-269.374 1456.345,-269.374 1456.345,-269.374 1452.0951,-269.374 1447.8452,-265.1241 1447.8452,-260.8742 1447.8452,-260.8742 1447.8452,-252.3743 1447.8452,-252.3743 1447.8452,-248.1244 1452.0951,-243.8745 1456.345,-243.8745 1456.345,-243.8745 1544.2214,-243.8745 1544.2214,-243.8745 1548.4713,-243.8745 1552.7212,-248.1244 1552.7212,-252.3743 1552.7212,-252.3743 1552.7212,-260.8742 1552.7212,-260.8742 1552.7212,-265.1241 1548.4713,-269.374 1544.2214,-269.374"/>
<text text-anchor="middle" x="1500.2832" y="-253.2485" font-family="Arial" font-size="15.00" fill="#cfffac">shared/env.ts</text>
</g>
<!-- infra/api/http/client/client.ts&#45;&gt;shared/env.ts -->
<g id="edge21" class="edge">
<title>infra/api/http/client/client.ts&#45;&gt;shared/env.ts</title>
<path fill="none" stroke="#757575" d="M1308.0636,-256.6243C1350.6282,-256.6243 1399.4442,-256.6243 1437.2305,-256.6243"/>
<polygon fill="#757575" stroke="#757575" points="1437.5814,-260.1244 1447.5813,-256.6243 1437.5813,-253.1244 1437.5814,-260.1244"/>
</g>
<!-- infra/api/http/client/index.ts -->
<g id="node16" class="node">
<title>infra/api/http/client/index.ts</title>
<path fill="none" stroke="#c6c5fe" d="M1070.4239,-269.374C1070.4239,-269.374 894.2275,-269.374 894.2275,-269.374 889.9775,-269.374 885.7276,-265.1241 885.7276,-260.8742 885.7276,-260.8742 885.7276,-252.3743 885.7276,-252.3743 885.7276,-248.1244 889.9775,-243.8745 894.2275,-243.8745 894.2275,-243.8745 1070.4239,-243.8745 1070.4239,-243.8745 1074.6738,-243.8745 1078.9238,-248.1244 1078.9238,-252.3743 1078.9238,-252.3743 1078.9238,-260.8742 1078.9238,-260.8742 1078.9238,-265.1241 1074.6738,-269.374 1070.4239,-269.374"/>
<text text-anchor="middle" x="982.3257" y="-253.2485" font-family="Arial" font-size="15.00" fill="#c6c5fe">infra/api/http/client/index.ts</text>
</g>
<!-- infra/api/http/client/index.ts&#45;&gt;infra/api/http/client/client.ts -->
<g id="edge22" class="edge">
<title>infra/api/http/client/index.ts&#45;&gt;infra/api/http/client/client.ts</title>
<path fill="none" stroke="#757575" d="M1079.185,-256.6243C1087.702,-256.6243 1096.353,-256.6243 1104.9435,-256.6243"/>
<polygon fill="#757575" stroke="#757575" points="1104.9886,-260.1244 1114.9886,-256.6243 1104.9885,-253.1244 1104.9886,-260.1244"/>
</g>
<!-- infra/api/http/client/util.ts -->
<g id="node17" class="node">
<title>infra/api/http/client/util.ts</title>
<path fill="none" stroke="#cfffac" d="M1062.2389,-226.374C1062.2389,-226.374 902.4124,-226.374 902.4124,-226.374 898.1625,-226.374 893.9126,-222.1241 893.9126,-217.8742 893.9126,-217.8742 893.9126,-209.3743 893.9126,-209.3743 893.9126,-205.1244 898.1625,-200.8745 902.4124,-200.8745 902.4124,-200.8745 1062.2389,-200.8745 1062.2389,-200.8745 1066.4889,-200.8745 1070.7388,-205.1244 1070.7388,-209.3743 1070.7388,-209.3743 1070.7388,-217.8742 1070.7388,-217.8742 1070.7388,-222.1241 1066.4889,-226.374 1062.2389,-226.374"/>
<text text-anchor="middle" x="982.3257" y="-210.2485" font-family="Arial" font-size="15.00" fill="#cfffac">infra/api/http/client/util.ts</text>
</g>
<!-- infra/api/http/me.ts -->
<g id="node18" class="node">
<title>infra/api/http/me.ts</title>
<path fill="none" stroke="#c6c5fe" d="M841.2231,-248.374C841.2231,-248.374 718.4395,-248.374 718.4395,-248.374 714.1896,-248.374 709.9396,-244.1241 709.9396,-239.8742 709.9396,-239.8742 709.9396,-231.3743 709.9396,-231.3743 709.9396,-227.1244 714.1896,-222.8745 718.4395,-222.8745 718.4395,-222.8745 841.2231,-222.8745 841.2231,-222.8745 845.473,-222.8745 849.723,-227.1244 849.723,-231.3743 849.723,-231.3743 849.723,-239.8742 849.723,-239.8742 849.723,-244.1241 845.473,-248.374 841.2231,-248.374"/>
<text text-anchor="middle" x="779.8313" y="-232.2485" font-family="Arial" font-size="15.00" fill="#c6c5fe">infra/api/http/me.ts</text>
</g>
<!-- infra/api/http/me.ts&#45;&gt;shared/CQRS/read/InfraException.ts -->
<g id="edge26" class="edge">
<title>infra/api/http/me.ts&#45;&gt;shared/CQRS/read/InfraException.ts</title>
<path fill="none" stroke="#757575" d="M802.9107,-222.8817C823.7763,-212.1361 855.7055,-197.5836 885.5269,-191.6243 1058.2018,-157.1181 1263.6473,-167.9197 1387.9022,-179.9615"/>
<polygon fill="#757575" stroke="#757575" points="1387.8905,-183.4773 1398.1865,-180.979 1388.5798,-176.5113 1387.8905,-183.4773"/>
</g>
<!-- infra/api/http/me.ts&#45;&gt;shared/CQRS/read/InfraData.ts -->
<g id="edge25" class="edge">
<title>infra/api/http/me.ts&#45;&gt;shared/CQRS/read/InfraData.ts</title>
<path fill="none" stroke="#757575" d="M805.1826,-248.4262C826.1631,-258.4055 857.0382,-271.6946 885.5269,-278.6243 931.9043,-289.9053 1211.4302,-312.6038 1377.1599,-325.3665"/>
<polygon fill="#757575" stroke="#757575" points="1377.1779,-328.8781 1387.4168,-326.1549 1377.7145,-321.8987 1377.1779,-328.8781"/>
</g>
<!-- infra/api/http/me.ts&#45;&gt;infra/api/http/client/index.ts -->
<g id="edge23" class="edge">
<title>infra/api/http/me.ts&#45;&gt;infra/api/http/client/index.ts</title>
<path fill="none" stroke="#757575" d="M849.8019,-242.8807C858.1006,-243.7413 866.7101,-244.6342 875.3756,-245.5328"/>
<polygon fill="#757575" stroke="#757575" points="875.2507,-249.0386 885.5584,-246.5889 875.9728,-242.0759 875.2507,-249.0386"/>
</g>
<!-- infra/api/http/me.ts&#45;&gt;infra/api/http/client/util.ts -->
<g id="edge24" class="edge">
<title>infra/api/http/me.ts&#45;&gt;infra/api/http/client/util.ts</title>
<path fill="none" stroke="#757575" d="M849.8019,-228.0223C860.7656,-226.8312 872.2719,-225.5811 883.7327,-224.3359"/>
<polygon fill="#757575" stroke="#757575" points="884.2145,-227.8042 893.778,-223.2445 883.4584,-220.8452 884.2145,-227.8042"/>
</g>
<!-- infra/repo/me/me.ts&#45;&gt;shared/CQRS/read/InfraException.ts -->
<g id="edge30" class="edge">
<title>infra/repo/me/me.ts&#45;&gt;shared/CQRS/read/InfraException.ts</title>
<path fill="none" stroke="#757575" d="M640.9711,-222.9867C695.3312,-206.2765 796.6539,-177.6586 885.5269,-166.6243 1071.8111,-143.4956 1120.6902,-150.5964 1307.8799,-164.6243 1345.8979,-167.4733 1387.7894,-173.4466 1422.7501,-179.2357"/>
<polygon fill="#757575" stroke="#757575" points="1422.4482,-182.734 1432.8903,-180.9415 1423.6095,-175.831 1422.4482,-182.734"/>
</g>
<!-- infra/repo/me/me.ts&#45;&gt;shared/CQRS/read/InfraData.ts -->
<g id="edge29" class="edge">
<title>infra/repo/me/me.ts&#45;&gt;shared/CQRS/read/InfraData.ts</title>
<path fill="none" stroke="#757575" d="M644.8899,-248.2541C700.2264,-263.8501 799.1418,-289.9824 885.5269,-303.6243 1054.5469,-330.3158 1252.6389,-335.7452 1377.3095,-336.0682"/>
<polygon fill="#757575" stroke="#757575" points="1377.6422,-339.5686 1387.6475,-336.0837 1377.6528,-332.5686 1377.6422,-339.5686"/>
</g>
<!-- infra/repo/me/me.ts&#45;&gt;infra/api/http/me.ts -->
<g id="edge28" class="edge">
<title>infra/repo/me/me.ts&#45;&gt;infra/api/http/me.ts</title>
<path fill="none" stroke="#757575" d="M674.3084,-235.6243C682.6604,-235.6243 691.211,-235.6243 699.6531,-235.6243"/>
<polygon fill="#757575" stroke="#757575" points="699.8762,-239.1244 709.8762,-235.6243 699.8761,-232.1244 699.8762,-239.1244"/>
</g>
<!-- ui/components/Me/Me.tsx -->
<g id="node20" class="node">
<title>ui/components/Me/Me.tsx</title>
<path fill="none" stroke="#cfffac" d="M461.8554,-552.374C461.8554,-552.374 292.0484,-552.374 292.0484,-552.374 287.7985,-552.374 283.5486,-548.1241 283.5486,-543.8742 283.5486,-543.8742 283.5486,-535.3743 283.5486,-535.3743 283.5486,-531.1244 287.7985,-526.8745 292.0484,-526.8745 292.0484,-526.8745 461.8554,-526.8745 461.8554,-526.8745 466.1053,-526.8745 470.3552,-531.1244 470.3552,-535.3743 470.3552,-535.3743 470.3552,-543.8742 470.3552,-543.8742 470.3552,-548.1241 466.1053,-552.374 461.8554,-552.374"/>
<text text-anchor="middle" x="376.9519" y="-536.2485" font-family="Arial" font-size="15.00" fill="#cfffac">ui/components/Me/Me.tsx</text>
</g>
<!-- ui/components/Me/index.ts -->
<g id="node21" class="node">
<title>ui/components/Me/index.ts</title>
<path fill="none" stroke="#c6c5fe" d="M201.4169,-552.374C201.4169,-552.374 23.5651,-552.374 23.5651,-552.374 19.3151,-552.374 15.0652,-548.1241 15.0652,-543.8742 15.0652,-543.8742 15.0652,-535.3743 15.0652,-535.3743 15.0652,-531.1244 19.3151,-526.8745 23.5651,-526.8745 23.5651,-526.8745 201.4169,-526.8745 201.4169,-526.8745 205.6668,-526.8745 209.9167,-531.1244 209.9167,-535.3743 209.9167,-535.3743 209.9167,-543.8742 209.9167,-543.8742 209.9167,-548.1241 205.6668,-552.374 201.4169,-552.374"/>
<text text-anchor="middle" x="112.491" y="-536.2485" font-family="Arial" font-size="15.00" fill="#c6c5fe">ui/components/Me/index.ts</text>
</g>
<!-- ui/components/Me/index.ts&#45;&gt;ui/components/Me/Me.tsx -->
<g id="edge31" class="edge">
<title>ui/components/Me/index.ts&#45;&gt;ui/components/Me/Me.tsx</title>
<path fill="none" stroke="#757575" d="M209.8398,-539.6243C230.4702,-539.6243 252.3207,-539.6243 273.1794,-539.6243"/>
<polygon fill="#757575" stroke="#757575" points="273.3298,-543.1244 283.3298,-539.6243 273.3298,-536.1244 273.3298,-543.1244"/>
</g>
<!-- ui/containers/ErrorBoundary.tsx -->
<g id="node22" class="node">
<title>ui/containers/ErrorBoundary.tsx</title>
<path fill="none" stroke="#cfffac" d="M216.4731,-595.374C216.4731,-595.374 8.5089,-595.374 8.5089,-595.374 4.259,-595.374 .009,-591.1241 .009,-586.8742 .009,-586.8742 .009,-578.3743 .009,-578.3743 .009,-574.1244 4.259,-569.8745 8.5089,-569.8745 8.5089,-569.8745 216.4731,-569.8745 216.4731,-569.8745 220.723,-569.8745 224.9729,-574.1244 224.9729,-578.3743 224.9729,-578.3743 224.9729,-586.8742 224.9729,-586.8742 224.9729,-591.1241 220.723,-595.374 216.4731,-595.374"/>
<text text-anchor="middle" x="112.491" y="-579.2485" font-family="Arial" font-size="15.00" fill="#cfffac">ui/containers/ErrorBoundary.tsx</text>
</g>
<!-- useCase/useMe/useMe.tsx -->
<g id="node23" class="node">
<title>useCase/useMe/useMe.tsx</title>
<path fill="none" stroke="#cfffac" d="M202.4067,-638.374C202.4067,-638.374 22.5753,-638.374 22.5753,-638.374 18.3253,-638.374 14.0754,-634.1241 14.0754,-629.8742 14.0754,-629.8742 14.0754,-621.3743 14.0754,-621.3743 14.0754,-617.1244 18.3253,-612.8745 22.5753,-612.8745 22.5753,-612.8745 202.4067,-612.8745 202.4067,-612.8745 206.6566,-612.8745 210.9065,-617.1244 210.9065,-621.3743 210.9065,-621.3743 210.9065,-629.8742 210.9065,-629.8742 210.9065,-634.1241 206.6566,-638.374 202.4067,-638.374"/>
<text text-anchor="middle" x="112.491" y="-622.2485" font-family="Arial" font-size="15.00" fill="#cfffac">useCase/useMe/useMe.tsx</text>
</g>
</g>
</svg>
