<?xml version="1.0" encoding="UTF-8" standalone="no"?>
<!DOCTYPE svg PUBLIC "-//W3C//DTD SVG 1.1//EN"
 "http://www.w3.org/Graphics/SVG/1.1/DTD/svg11.dtd">
<!-- Generated by graphviz version 2.40.1 (20161225.0304)
 -->
<!-- Title: G Pages: 1 -->
<svg width="2255pt" height="603pt"
 viewBox="0.00 0.00 2255.46 602.98" xmlns="http://www.w3.org/2000/svg" xmlns:xlink="http://www.w3.org/1999/xlink">
<g id="graph0" class="graph" transform="scale(1 1) rotate(0) translate(21.6 581.3793)">
<title>G</title>
<polygon fill="#111111" stroke="transparent" points="-21.6,21.6 -21.6,-581.3793 2233.8632,-581.3793 2233.8632,21.6 -21.6,21.6"/>
<!-- controller/me.tsx -->
<g id="node1" class="node">
<title>controller/me.tsx</title>
<path fill="none" stroke="#c6c5fe" d="M167.0229,-234.374C167.0229,-234.374 57.9591,-234.374 57.9591,-234.374 53.7091,-234.374 49.4592,-230.1241 49.4592,-225.8742 49.4592,-225.8742 49.4592,-217.3743 49.4592,-217.3743 49.4592,-213.1244 53.7091,-208.8745 57.9591,-208.8745 57.9591,-208.8745 167.0229,-208.8745 167.0229,-208.8745 171.2728,-208.8745 175.5227,-213.1244 175.5227,-217.3743 175.5227,-217.3743 175.5227,-225.8742 175.5227,-225.8742 175.5227,-230.1241 171.2728,-234.374 167.0229,-234.374"/>
<text text-anchor="middle" x="112.491" y="-218.2485" font-family="Arial" font-size="15.00" fill="#c6c5fe">controller/me.tsx</text>
</g>
<!-- domain/me/index.ts -->
<g id="node2" class="node">
<title>domain/me/index.ts</title>
<path fill="none" stroke="#c6c5fe" d="M1046.8893,-275.374C1046.8893,-275.374 917.762,-275.374 917.762,-275.374 913.5121,-275.374 909.2622,-271.1241 909.2622,-266.8742 909.2622,-266.8742 909.2622,-258.3743 909.2622,-258.3743 909.2622,-254.1244 913.5121,-249.8745 917.762,-249.8745 917.762,-249.8745 1046.8893,-249.8745 1046.8893,-249.8745 1051.1393,-249.8745 1055.3892,-254.1244 1055.3892,-258.3743 1055.3892,-258.3743 1055.3892,-266.8742 1055.3892,-266.8742 1055.3892,-271.1241 1051.1393,-275.374 1046.8893,-275.374"/>
<text text-anchor="middle" x="982.3257" y="-259.2485" font-family="Arial" font-size="15.00" fill="#c6c5fe">domain/me/index.ts</text>
</g>
<!-- controller/me.tsx&#45;&gt;domain/me/index.ts -->
<g id="edge1" class="edge">
<title>controller/me.tsx&#45;&gt;domain/me/index.ts</title>
<path fill="none" stroke="#757575" d="M175.6514,-228.3743C202.0032,-230.9837 232.9476,-233.7795 260.9819,-235.6243 491.6312,-250.8017 764.3718,-258.1246 898.8207,-261.0325"/>
<polygon fill="#757575" stroke="#757575" points="898.9714,-264.5364 909.0439,-261.2508 899.121,-257.538 898.9714,-264.5364"/>
</g>
<!-- infra/repo/me/index.ts -->
<g id="node3" class="node">
<title>infra/repo/me/index.ts</title>
<path fill="none" stroke="#c6c5fe" d="M448.6881,-418.374C448.6881,-418.374 305.2157,-418.374 305.2157,-418.374 300.9658,-418.374 296.7159,-414.1241 296.7159,-409.8742 296.7159,-409.8742 296.7159,-401.3743 296.7159,-401.3743 296.7159,-397.1244 300.9658,-392.8745 305.2157,-392.8745 305.2157,-392.8745 448.6881,-392.8745 448.6881,-392.8745 452.938,-392.8745 457.1879,-397.1244 457.1879,-401.3743 457.1879,-401.3743 457.1879,-409.8742 457.1879,-409.8742 457.1879,-414.1241 452.938,-418.374 448.6881,-418.374"/>
<text text-anchor="middle" x="376.9519" y="-402.2485" font-family="Arial" font-size="15.00" fill="#c6c5fe">infra/repo/me/index.ts</text>
</g>
<!-- controller/me.tsx&#45;&gt;infra/repo/me/index.ts -->
<g id="edge2" class="edge">
<title>controller/me.tsx&#45;&gt;infra/repo/me/index.ts</title>
<path fill="none" stroke="#757575" d="M124.6442,-234.2792C148.8483,-258.9816 205.5327,-314.3702 260.9819,-350.6243 284.1552,-365.7755 312.1527,-379.1756 334.8327,-388.9552"/>
<polygon fill="#757575" stroke="#757575" points="333.6243,-392.2442 344.1976,-392.9193 336.353,-385.798 333.6243,-392.2442"/>
</g>
<!-- shared/CQRS/read/Data/DomainData.ts -->
<g id="node4" class="node">
<title>shared/CQRS/read/Data/DomainData.ts</title>
<path fill="none" stroke="#c6c5fe" d="M1886.5264,-274.374C1886.5264,-274.374 1620.9566,-274.374 1620.9566,-274.374 1616.7066,-274.374 1612.4567,-270.1241 1612.4567,-265.8742 1612.4567,-265.8742 1612.4567,-257.3743 1612.4567,-257.3743 1612.4567,-253.1244 1616.7066,-248.8745 1620.9566,-248.8745 1620.9566,-248.8745 1886.5264,-248.8745 1886.5264,-248.8745 1890.7763,-248.8745 1895.0262,-253.1244 1895.0262,-257.3743 1895.0262,-257.3743 1895.0262,-265.8742 1895.0262,-265.8742 1895.0262,-270.1241 1890.7763,-274.374 1886.5264,-274.374"/>
<text text-anchor="middle" x="1753.7415" y="-258.2485" font-family="Arial" font-size="15.00" fill="#c6c5fe">shared/CQRS/read/Data/DomainData.ts</text>
</g>
<!-- controller/me.tsx&#45;&gt;shared/CQRS/read/Data/DomainData.ts -->
<g id="edge3" class="edge">
<title>controller/me.tsx&#45;&gt;shared/CQRS/read/Data/DomainData.ts</title>
<path fill="none" stroke="#757575" d="M175.7959,-221.6243C269.0165,-221.6243 448.7045,-221.6243 601.5288,-221.6243 601.5288,-221.6243 601.5288,-221.6243 982.3257,-221.6243 1224.2472,-221.6243 1284.8834,-225.2738 1526.3174,-240.6243 1556.9361,-242.571 1589.8222,-245.2594 1620.8078,-248.0633"/>
<polygon fill="#757575" stroke="#757575" points="1620.5187,-251.5514 1630.796,-248.9769 1621.1564,-244.5805 1620.5187,-251.5514"/>
</g>
<!-- shared/CQRS/read/Exception/DomainDataException.ts -->
<g id="node5" class="node">
<title>shared/CQRS/read/Exception/DomainDataException.ts</title>
<path fill="none" stroke="#cfffac" d="M1936.5898,-191.374C1936.5898,-191.374 1570.8931,-191.374 1570.8931,-191.374 1566.6432,-191.374 1562.3933,-187.1241 1562.3933,-182.8742 1562.3933,-182.8742 1562.3933,-174.3743 1562.3933,-174.3743 1562.3933,-170.1244 1566.6432,-165.8745 1570.8931,-165.8745 1570.8931,-165.8745 1936.5898,-165.8745 1936.5898,-165.8745 1940.8397,-165.8745 1945.0896,-170.1244 1945.0896,-174.3743 1945.0896,-174.3743 1945.0896,-182.8742 1945.0896,-182.8742 1945.0896,-187.1241 1940.8397,-191.374 1936.5898,-191.374"/>
<text text-anchor="middle" x="1753.7415" y="-175.2485" font-family="Arial" font-size="15.00" fill="#cfffac">shared/CQRS/read/Exception/DomainDataException.ts</text>
</g>
<!-- controller/me.tsx&#45;&gt;shared/CQRS/read/Exception/DomainDataException.ts -->
<g id="edge4" class="edge">
<title>controller/me.tsx&#45;&gt;shared/CQRS/read/Exception/DomainDataException.ts</title>
<path fill="none" stroke="#757575" d="M141.0506,-208.9507C215.3527,-177.1721 421.445,-96.6243 601.5288,-96.6243 601.5288,-96.6243 601.5288,-96.6243 982.3257,-96.6243 1224.2472,-96.6243 1287.2063,-78.8559 1526.3174,-115.6243 1590.8291,-125.5443 1663.1222,-147.5155 1708.5287,-162.6971"/>
<polygon fill="#757575" stroke="#757575" points="1707.4817,-166.0376 1718.0759,-165.9218 1709.7218,-159.4057 1707.4817,-166.0376"/>
</g>
<!-- shared/CQRS/read/Exception/InfraException.ts -->
<g id="node6" class="node">
<title>shared/CQRS/read/Exception/InfraException.ts</title>
<path fill="none" stroke="#cfffac" d="M1910.2332,-418.374C1910.2332,-418.374 1597.2497,-418.374 1597.2497,-418.374 1592.9998,-418.374 1588.7499,-414.1241 1588.7499,-409.8742 1588.7499,-409.8742 1588.7499,-401.3743 1588.7499,-401.3743 1588.7499,-397.1244 1592.9998,-392.8745 1597.2497,-392.8745 1597.2497,-392.8745 1910.2332,-392.8745 1910.2332,-392.8745 1914.4831,-392.8745 1918.733,-397.1244 1918.733,-401.3743 1918.733,-401.3743 1918.733,-409.8742 1918.733,-409.8742 1918.733,-414.1241 1914.4831,-418.374 1910.2332,-418.374"/>
<text text-anchor="middle" x="1753.7415" y="-402.2485" font-family="Arial" font-size="15.00" fill="#cfffac">shared/CQRS/read/Exception/InfraException.ts</text>
</g>
<!-- controller/me.tsx&#45;&gt;shared/CQRS/read/Exception/InfraException.ts -->
<g id="edge5" class="edge">
<title>controller/me.tsx&#45;&gt;shared/CQRS/read/Exception/InfraException.ts</title>
<path fill="none" stroke="#757575" d="M158.9855,-234.2506C188.0963,-241.7396 226.4979,-250.8651 260.9819,-256.6243 733.9152,-335.6088 1298.6374,-378.0487 1578.5468,-395.6575"/>
<polygon fill="#757575" stroke="#757575" points="1578.5937,-399.1672 1588.7928,-396.299 1579.0311,-392.1809 1578.5937,-399.1672"/>
</g>
<!-- ui/components/Me/Content.tsx -->
<g id="node7" class="node">
<title>ui/components/Me/Content.tsx</title>
<path fill="none" stroke="#cfffac" d="M477.555,-68.374C477.555,-68.374 276.3489,-68.374 276.3489,-68.374 272.0989,-68.374 267.849,-64.1241 267.849,-59.8742 267.849,-59.8742 267.849,-51.3743 267.849,-51.3743 267.849,-47.1244 272.0989,-42.8745 276.3489,-42.8745 276.3489,-42.8745 477.555,-42.8745 477.555,-42.8745 481.8049,-42.8745 486.0548,-47.1244 486.0548,-51.3743 486.0548,-51.3743 486.0548,-59.8742 486.0548,-59.8742 486.0548,-64.1241 481.8049,-68.374 477.555,-68.374"/>
<text text-anchor="middle" x="376.9519" y="-52.2485" font-family="Arial" font-size="15.00" fill="#cfffac">ui/components/Me/Content.tsx</text>
</g>
<!-- controller/me.tsx&#45;&gt;ui/components/Me/Content.tsx -->
<g id="edge6" class="edge">
<title>controller/me.tsx&#45;&gt;ui/components/Me/Content.tsx</title>
<path fill="none" stroke="#757575" d="M122.0788,-208.9437C143.6522,-181.3597 198.9984,-115.731 260.9819,-82.6243 269.3048,-78.1788 278.3465,-74.4603 287.5862,-71.3507"/>
<polygon fill="#757575" stroke="#757575" points="288.7641,-74.6496 297.2646,-68.3258 286.6758,-67.9684 288.7641,-74.6496"/>
</g>
<!-- ui/components/Me/Exception.tsx -->
<g id="node8" class="node">
<title>ui/components/Me/Exception.tsx</title>
<path fill="none" stroke="#cfffac" d="M484.392,-25.374C484.392,-25.374 269.5118,-25.374 269.5118,-25.374 265.2619,-25.374 261.012,-21.1241 261.012,-16.8742 261.012,-16.8742 261.012,-8.3743 261.012,-8.3743 261.012,-4.1244 265.2619,.1255 269.5118,.1255 269.5118,.1255 484.392,.1255 484.392,.1255 488.6419,.1255 492.8919,-4.1244 492.8919,-8.3743 492.8919,-8.3743 492.8919,-16.8742 492.8919,-16.8742 492.8919,-21.1241 488.6419,-25.374 484.392,-25.374"/>
<text text-anchor="middle" x="376.9519" y="-9.2485" font-family="Arial" font-size="15.00" fill="#cfffac">ui/components/Me/Exception.tsx</text>
</g>
<!-- controller/me.tsx&#45;&gt;ui/components/Me/Exception.tsx -->
<g id="edge7" class="edge">
<title>controller/me.tsx&#45;&gt;ui/components/Me/Exception.tsx</title>
<path fill="none" stroke="#757575" d="M118.3719,-208.9713C135.141,-174.4328 186.8121,-78.1554 260.9819,-33.6243 263.4899,-32.1185 266.0795,-30.7154 268.7337,-29.4082"/>
<polygon fill="#757575" stroke="#757575" points="270.2488,-32.5653 277.9824,-25.3236 267.4208,-26.162 270.2488,-32.5653"/>
</g>
<!-- domain/me/me.ts -->
<g id="node9" class="node">
<title>domain/me/me.ts</title>
<path fill="none" stroke="#c6c5fe" d="M1377.7626,-275.374C1377.7626,-275.374 1263.6793,-275.374 1263.6793,-275.374 1259.4294,-275.374 1255.1794,-271.1241 1255.1794,-266.8742 1255.1794,-266.8742 1255.1794,-258.3743 1255.1794,-258.3743 1255.1794,-254.1244 1259.4294,-249.8745 1263.6793,-249.8745 1263.6793,-249.8745 1377.7626,-249.8745 1377.7626,-249.8745 1382.0125,-249.8745 1386.2625,-254.1244 1386.2625,-258.3743 1386.2625,-258.3743 1386.2625,-266.8742 1386.2625,-266.8742 1386.2625,-271.1241 1382.0125,-275.374 1377.7626,-275.374"/>
<text text-anchor="middle" x="1320.7209" y="-259.2485" font-family="Arial" font-size="15.00" fill="#c6c5fe">domain/me/me.ts</text>
</g>
<!-- domain/me/index.ts&#45;&gt;domain/me/me.ts -->
<g id="edge8" class="edge">
<title>domain/me/index.ts&#45;&gt;domain/me/me.ts</title>
<path fill="none" stroke="#757575" d="M1055.7524,-262.6243C1111.6573,-262.6243 1188.3613,-262.6243 1244.8586,-262.6243"/>
<polygon fill="#757575" stroke="#757575" points="1245.1631,-266.1244 1255.1631,-262.6243 1245.1631,-259.1244 1245.1631,-266.1244"/>
</g>
<!-- domain/me/type.ts -->
<g id="node10" class="node">
<title>domain/me/type.ts</title>
<path fill="none" stroke="#c6c5fe" d="M1381.278,-318.374C1381.278,-318.374 1260.1639,-318.374 1260.1639,-318.374 1255.914,-318.374 1251.6641,-314.1241 1251.6641,-309.8742 1251.6641,-309.8742 1251.6641,-301.3743 1251.6641,-301.3743 1251.6641,-297.1244 1255.914,-292.8745 1260.1639,-292.8745 1260.1639,-292.8745 1381.278,-292.8745 1381.278,-292.8745 1385.5279,-292.8745 1389.7778,-297.1244 1389.7778,-301.3743 1389.7778,-301.3743 1389.7778,-309.8742 1389.7778,-309.8742 1389.7778,-314.1241 1385.5279,-318.374 1381.278,-318.374"/>
<text text-anchor="middle" x="1320.7209" y="-302.2485" font-family="Arial" font-size="15.00" fill="#c6c5fe">domain/me/type.ts</text>
</g>
<!-- domain/me/index.ts&#45;&gt;domain/me/type.ts -->
<g id="edge9" class="edge">
<title>domain/me/index.ts&#45;&gt;domain/me/type.ts</title>
<path fill="none" stroke="#757575" d="M1053.5346,-275.2615C1073.4305,-278.5633 1095.0883,-281.944 1115.1245,-284.6243 1156.7475,-290.1922 1203.2858,-295.0584 1241.5446,-298.7007"/>
<polygon fill="#757575" stroke="#757575" points="1241.3092,-302.194 1251.5935,-299.6475 1241.9659,-295.2248 1241.3092,-302.194"/>
</g>
<!-- infra/repo/me/me.ts -->
<g id="node18" class="node">
<title>infra/repo/me/me.ts</title>
<path fill="none" stroke="#c6c5fe" d="M665.743,-447.374C665.743,-447.374 537.3146,-447.374 537.3146,-447.374 533.0647,-447.374 528.8148,-443.1241 528.8148,-438.8742 528.8148,-438.8742 528.8148,-430.3743 528.8148,-430.3743 528.8148,-426.1244 533.0647,-421.8745 537.3146,-421.8745 537.3146,-421.8745 665.743,-421.8745 665.743,-421.8745 669.9929,-421.8745 674.2428,-426.1244 674.2428,-430.3743 674.2428,-430.3743 674.2428,-438.8742 674.2428,-438.8742 674.2428,-443.1241 669.9929,-447.374 665.743,-447.374"/>
<text text-anchor="middle" x="601.5288" y="-431.2485" font-family="Arial" font-size="15.00" fill="#c6c5fe">infra/repo/me/me.ts</text>
</g>
<!-- infra/repo/me/index.ts&#45;&gt;infra/repo/me/me.ts -->
<g id="edge27" class="edge">
<title>infra/repo/me/index.ts&#45;&gt;infra/repo/me/me.ts</title>
<path fill="none" stroke="#757575" d="M457.0782,-415.9711C477.1218,-418.5594 498.6585,-421.3404 518.8244,-423.9445"/>
<polygon fill="#757575" stroke="#757575" points="518.5484,-427.4378 528.9144,-425.2474 519.445,-420.4955 518.5484,-427.4378"/>
</g>
<!-- shared/CQRS/read/Data/Data.ts -->
<g id="node19" class="node">
<title>shared/CQRS/read/Data/Data.ts</title>
<path fill="none" stroke="#cfffac" d="M2203.8122,-317.374C2203.8122,-317.374 1989.6165,-317.374 1989.6165,-317.374 1985.3666,-317.374 1981.1167,-313.1241 1981.1167,-308.8742 1981.1167,-308.8742 1981.1167,-300.3743 1981.1167,-300.3743 1981.1167,-296.1244 1985.3666,-291.8745 1989.6165,-291.8745 1989.6165,-291.8745 2203.8122,-291.8745 2203.8122,-291.8745 2208.0621,-291.8745 2212.312,-296.1244 2212.312,-300.3743 2212.312,-300.3743 2212.312,-308.8742 2212.312,-308.8742 2212.312,-313.1241 2208.0621,-317.374 2203.8122,-317.374"/>
<text text-anchor="middle" x="2096.7144" y="-301.2485" font-family="Arial" font-size="15.00" fill="#cfffac">shared/CQRS/read/Data/Data.ts</text>
</g>
<!-- shared/CQRS/read/Data/DomainData.ts&#45;&gt;shared/CQRS/read/Data/Data.ts -->
<g id="edge32" class="edge">
<title>shared/CQRS/read/Data/DomainData.ts&#45;&gt;shared/CQRS/read/Data/Data.ts</title>
<path fill="none" stroke="#757575" d="M1874.823,-274.2606C1898.1819,-276.8812 1922.4477,-279.7301 1945.1655,-282.6243 1964.0306,-285.0276 1984.1853,-287.8055 2003.4361,-290.561"/>
<polygon fill="#757575" stroke="#757575" points="2003.0121,-294.036 2013.409,-291.9979 2004.0103,-287.1075 2003.0121,-294.036"/>
</g>
<!-- domain/me/me.ts&#45;&gt;shared/CQRS/read/Data/DomainData.ts -->
<g id="edge10" class="edge">
<title>domain/me/me.ts&#45;&gt;shared/CQRS/read/Data/DomainData.ts</title>
<path fill="none" stroke="#757575" d="M1386.4874,-262.4724C1443.5438,-262.3406 1528.3274,-262.1448 1602.0607,-261.9746"/>
<polygon fill="#757575" stroke="#757575" points="1602.3955,-265.4739 1612.3874,-261.9507 1602.3793,-258.4739 1602.3955,-265.4739"/>
</g>
<!-- domain/me/me.ts&#45;&gt;shared/CQRS/read/Exception/DomainDataException.ts -->
<g id="edge12" class="edge">
<title>domain/me/me.ts&#45;&gt;shared/CQRS/read/Exception/DomainDataException.ts</title>
<path fill="none" stroke="#757575" d="M1386.0173,-249.9577C1464.5721,-234.7191 1596.1714,-209.1907 1678.7963,-193.1626"/>
<polygon fill="#757575" stroke="#757575" points="1679.4724,-196.5968 1688.6229,-191.2564 1678.1393,-189.7249 1679.4724,-196.5968"/>
</g>
<!-- domain/me/me.ts&#45;&gt;shared/CQRS/read/Exception/InfraException.ts -->
<g id="edge13" class="edge">
<title>domain/me/me.ts&#45;&gt;shared/CQRS/read/Exception/InfraException.ts</title>
<path fill="none" stroke="#757575" d="M1386.6231,-253.0681C1430.3191,-250.3611 1486.6898,-254.2384 1526.3174,-283.6243 1559.6006,-308.3055 1530.1011,-343.5656 1562.3174,-369.6243 1572.1716,-377.595 1583.2437,-384.0035 1594.9656,-389.1363"/>
<polygon fill="#757575" stroke="#757575" points="1593.9118,-392.4853 1604.4949,-392.9847 1596.5331,-385.9946 1593.9118,-392.4853"/>
</g>
<!-- shared/CQRS/read/Data/InfraData.ts -->
<g id="node11" class="node">
<title>shared/CQRS/read/Data/InfraData.ts</title>
<path fill="none" stroke="#c6c5fe" d="M1875.8539,-360.374C1875.8539,-360.374 1631.629,-360.374 1631.629,-360.374 1627.379,-360.374 1623.1291,-356.1241 1623.1291,-351.8742 1623.1291,-351.8742 1623.1291,-343.3743 1623.1291,-343.3743 1623.1291,-339.1244 1627.379,-334.8745 1631.629,-334.8745 1631.629,-334.8745 1875.8539,-334.8745 1875.8539,-334.8745 1880.1039,-334.8745 1884.3538,-339.1244 1884.3538,-343.3743 1884.3538,-343.3743 1884.3538,-351.8742 1884.3538,-351.8742 1884.3538,-356.1241 1880.1039,-360.374 1875.8539,-360.374"/>
<text text-anchor="middle" x="1753.7415" y="-344.2485" font-family="Arial" font-size="15.00" fill="#c6c5fe">shared/CQRS/read/Data/InfraData.ts</text>
</g>
<!-- domain/me/me.ts&#45;&gt;shared/CQRS/read/Data/InfraData.ts -->
<g id="edge11" class="edge">
<title>domain/me/me.ts&#45;&gt;shared/CQRS/read/Data/InfraData.ts</title>
<path fill="none" stroke="#757575" d="M1386.4177,-257.0493C1428.6944,-256.3248 1483.529,-260.9232 1526.3174,-283.6243 1548.3351,-295.3056 1540.3435,-314.8607 1562.3174,-326.6243 1577.9851,-335.0119 1595.3995,-340.8217 1613.1598,-344.7625"/>
<polygon fill="#757575" stroke="#757575" points="1612.5578,-348.2116 1623.0533,-346.7641 1613.9459,-341.3506 1612.5578,-348.2116"/>
</g>
<!-- domain/me/type.ts&#45;&gt;shared/CQRS/read/Data/DomainData.ts -->
<g id="edge14" class="edge">
<title>domain/me/type.ts&#45;&gt;shared/CQRS/read/Data/DomainData.ts</title>
<path fill="none" stroke="#757575" d="M1389.8131,-298.6037C1451.3983,-292.3459 1543.2883,-283.0088 1619.3229,-275.2828"/>
<polygon fill="#757575" stroke="#757575" points="1619.8694,-278.7454 1629.4643,-274.2523 1619.1617,-271.7812 1619.8694,-278.7454"/>
</g>
<!-- domain/me/type.ts&#45;&gt;shared/CQRS/read/Exception/DomainDataException.ts -->
<g id="edge16" class="edge">
<title>domain/me/type.ts&#45;&gt;shared/CQRS/read/Exception/DomainDataException.ts</title>
<path fill="none" stroke="#757575" d="M1389.9074,-311.5731C1431.7717,-312.1234 1484.8873,-307.1997 1526.3174,-284.6243 1548.8077,-272.3692 1541.2114,-254.1342 1562.3174,-239.6243 1594.5015,-217.4984 1635.1532,-203.0578 1670.708,-193.8126"/>
<polygon fill="#757575" stroke="#757575" points="1671.7382,-197.1628 1680.5899,-191.3406 1670.0394,-190.3721 1671.7382,-197.1628"/>
</g>
<!-- domain/me/type.ts&#45;&gt;shared/CQRS/read/Exception/InfraException.ts -->
<g id="edge17" class="edge">
<title>domain/me/type.ts&#45;&gt;shared/CQRS/read/Exception/InfraException.ts</title>
<path fill="none" stroke="#757575" d="M1364.5685,-318.2733C1412.7938,-331.9426 1492.6983,-353.8787 1562.3174,-369.6243 1597.1401,-377.5 1635.7985,-385.0027 1669.206,-391.1005"/>
<polygon fill="#757575" stroke="#757575" points="1668.9314,-394.6076 1679.3952,-392.9467 1670.1795,-387.7198 1668.9314,-394.6076"/>
</g>
<!-- domain/me/type.ts&#45;&gt;shared/CQRS/read/Data/InfraData.ts -->
<g id="edge15" class="edge">
<title>domain/me/type.ts&#45;&gt;shared/CQRS/read/Data/InfraData.ts</title>
<path fill="none" stroke="#757575" d="M1389.8131,-312.3257C1449.7987,-318.1439 1538.5353,-326.7508 1613.3669,-334.0089"/>
<polygon fill="#757575" stroke="#757575" points="1613.0671,-337.4962 1623.3583,-334.978 1613.7429,-330.5289 1613.0671,-337.4962"/>
</g>
<!-- shared/CQRS/read/Model.ts -->
<g id="node12" class="node">
<title>shared/CQRS/read/Model.ts</title>
<path fill="none" stroke="#cfffac" d="M1847.6576,-317.374C1847.6576,-317.374 1659.8254,-317.374 1659.8254,-317.374 1655.5754,-317.374 1651.3255,-313.1241 1651.3255,-308.8742 1651.3255,-308.8742 1651.3255,-300.3743 1651.3255,-300.3743 1651.3255,-296.1244 1655.5754,-291.8745 1659.8254,-291.8745 1659.8254,-291.8745 1847.6576,-291.8745 1847.6576,-291.8745 1851.9075,-291.8745 1856.1574,-296.1244 1856.1574,-300.3743 1856.1574,-300.3743 1856.1574,-308.8742 1856.1574,-308.8742 1856.1574,-313.1241 1851.9075,-317.374 1847.6576,-317.374"/>
<text text-anchor="middle" x="1753.7415" y="-301.2485" font-family="Arial" font-size="15.00" fill="#cfffac">shared/CQRS/read/Model.ts</text>
</g>
<!-- domain/me/type.ts&#45;&gt;shared/CQRS/read/Model.ts -->
<g id="edge18" class="edge">
<title>domain/me/type.ts&#45;&gt;shared/CQRS/read/Model.ts</title>
<path fill="none" stroke="#757575" d="M1389.8131,-305.4647C1457.4776,-305.3084 1561.725,-305.0677 1641.3318,-304.8839"/>
<polygon fill="#757575" stroke="#757575" points="1641.4142,-308.3838 1651.4061,-304.8606 1641.398,-301.3838 1641.4142,-308.3838"/>
</g>
<!-- shared/CQRS/read/Data/InfraData.ts&#45;&gt;shared/CQRS/read/Data/Data.ts -->
<g id="edge33" class="edge">
<title>shared/CQRS/read/Data/InfraData.ts&#45;&gt;shared/CQRS/read/Data/Data.ts</title>
<path fill="none" stroke="#757575" d="M1874.823,-334.988C1898.1819,-332.3673 1922.4477,-329.5184 1945.1655,-326.6243 1964.0306,-324.2209 1984.1853,-321.443 2003.4361,-318.6875"/>
<polygon fill="#757575" stroke="#757575" points="2004.0103,-322.141 2013.409,-317.2507 2003.0121,-315.2125 2004.0103,-322.141"/>
</g>
<!-- infra/api/http/client/client.ts -->
<g id="node13" class="node">
<title>infra/api/http/client/client.ts</title>
<path fill="none" stroke="#c6c5fe" d="M1408.4766,-476.374C1408.4766,-476.374 1232.9653,-476.374 1232.9653,-476.374 1228.7153,-476.374 1224.4654,-472.1241 1224.4654,-467.8742 1224.4654,-467.8742 1224.4654,-459.3743 1224.4654,-459.3743 1224.4654,-455.1244 1228.7153,-450.8745 1232.9653,-450.8745 1232.9653,-450.8745 1408.4766,-450.8745 1408.4766,-450.8745 1412.7265,-450.8745 1416.9765,-455.1244 1416.9765,-459.3743 1416.9765,-459.3743 1416.9765,-467.8742 1416.9765,-467.8742 1416.9765,-472.1241 1412.7265,-476.374 1408.4766,-476.374"/>
<text text-anchor="middle" x="1320.7209" y="-460.2485" font-family="Arial" font-size="15.00" fill="#c6c5fe">infra/api/http/client/client.ts</text>
</g>
<!-- infra/api/http/client/client.ts&#45;&gt;shared/CQRS/read/Exception/InfraException.ts -->
<g id="edge20" class="edge">
<title>infra/api/http/client/client.ts&#45;&gt;shared/CQRS/read/Exception/InfraException.ts</title>
<path fill="none" stroke="#757575" d="M1417.2201,-451.0506C1451.654,-446.5377 1490.7243,-441.3872 1526.3174,-436.6243 1567.1965,-431.154 1612.1953,-425.0397 1651.3004,-419.6964"/>
<polygon fill="#757575" stroke="#757575" points="1652.2019,-423.1058 1661.6356,-418.2834 1651.2536,-416.1703 1652.2019,-423.1058"/>
</g>
<!-- infra/api/http/client/client.ts&#45;&gt;shared/CQRS/read/Data/InfraData.ts -->
<g id="edge19" class="edge">
<title>infra/api/http/client/client.ts&#45;&gt;shared/CQRS/read/Data/InfraData.ts</title>
<path fill="none" stroke="#757575" d="M1417.0814,-467.245C1453.5768,-464.6025 1494.0617,-456.5051 1526.3174,-436.6243 1550.5584,-421.6832 1538.4988,-399.23 1562.3174,-383.6243 1577.6512,-373.5777 1595.0748,-366.1717 1613.0156,-360.7386"/>
<polygon fill="#757575" stroke="#757575" points="1614.3494,-363.9991 1623.0258,-357.9188 1612.4514,-357.2613 1614.3494,-363.9991"/>
</g>
<!-- shared/env.ts -->
<g id="node14" class="node">
<title>shared/env.ts</title>
<path fill="none" stroke="#cfffac" d="M1797.6796,-476.374C1797.6796,-476.374 1709.8033,-476.374 1709.8033,-476.374 1705.5534,-476.374 1701.3034,-472.1241 1701.3034,-467.8742 1701.3034,-467.8742 1701.3034,-459.3743 1701.3034,-459.3743 1701.3034,-455.1244 1705.5534,-450.8745 1709.8033,-450.8745 1709.8033,-450.8745 1797.6796,-450.8745 1797.6796,-450.8745 1801.9295,-450.8745 1806.1795,-455.1244 1806.1795,-459.3743 1806.1795,-459.3743 1806.1795,-467.8742 1806.1795,-467.8742 1806.1795,-472.1241 1801.9295,-476.374 1797.6796,-476.374"/>
<text text-anchor="middle" x="1753.7415" y="-460.2485" font-family="Arial" font-size="15.00" fill="#cfffac">shared/env.ts</text>
</g>
<!-- infra/api/http/client/client.ts&#45;&gt;shared/env.ts -->
<g id="edge21" class="edge">
<title>infra/api/http/client/client.ts&#45;&gt;shared/env.ts</title>
<path fill="none" stroke="#757575" d="M1417.0911,-463.6243C1500.5829,-463.6243 1618.9519,-463.6243 1690.8066,-463.6243"/>
<polygon fill="#757575" stroke="#757575" points="1691.0609,-467.1244 1701.0609,-463.6243 1691.0608,-460.1244 1691.0609,-467.1244"/>
</g>
<!-- infra/api/http/client/index.ts -->
<g id="node15" class="node">
<title>infra/api/http/client/index.ts</title>
<path fill="none" stroke="#c6c5fe" d="M1070.4239,-519.374C1070.4239,-519.374 894.2275,-519.374 894.2275,-519.374 889.9775,-519.374 885.7276,-515.1241 885.7276,-510.8742 885.7276,-510.8742 885.7276,-502.3743 885.7276,-502.3743 885.7276,-498.1244 889.9775,-493.8745 894.2275,-493.8745 894.2275,-493.8745 1070.4239,-493.8745 1070.4239,-493.8745 1074.6738,-493.8745 1078.9238,-498.1244 1078.9238,-502.3743 1078.9238,-502.3743 1078.9238,-510.8742 1078.9238,-510.8742 1078.9238,-515.1241 1074.6738,-519.374 1070.4239,-519.374"/>
<text text-anchor="middle" x="982.3257" y="-503.2485" font-family="Arial" font-size="15.00" fill="#c6c5fe">infra/api/http/client/index.ts</text>
</g>
<!-- infra/api/http/client/index.ts&#45;&gt;infra/api/http/client/client.ts -->
<g id="edge22" class="edge">
<title>infra/api/http/client/index.ts&#45;&gt;infra/api/http/client/client.ts</title>
<path fill="none" stroke="#757575" d="M1079.2962,-494.3022C1121.5133,-488.9377 1171.1159,-482.6346 1214.3429,-477.1418"/>
<polygon fill="#757575" stroke="#757575" points="1214.8427,-480.6065 1224.3217,-475.8737 1213.9603,-473.6623 1214.8427,-480.6065"/>
</g>
<!-- infra/api/http/client/util.ts -->
<g id="node16" class="node">
<title>infra/api/http/client/util.ts</title>
<path fill="none" stroke="#cfffac" d="M1062.2389,-476.374C1062.2389,-476.374 902.4124,-476.374 902.4124,-476.374 898.1625,-476.374 893.9126,-472.1241 893.9126,-467.8742 893.9126,-467.8742 893.9126,-459.3743 893.9126,-459.3743 893.9126,-455.1244 898.1625,-450.8745 902.4124,-450.8745 902.4124,-450.8745 1062.2389,-450.8745 1062.2389,-450.8745 1066.4889,-450.8745 1070.7388,-455.1244 1070.7388,-459.3743 1070.7388,-459.3743 1070.7388,-467.8742 1070.7388,-467.8742 1070.7388,-472.1241 1066.4889,-476.374 1062.2389,-476.374"/>
<text text-anchor="middle" x="982.3257" y="-460.2485" font-family="Arial" font-size="15.00" fill="#cfffac">infra/api/http/client/util.ts</text>
</g>
<!-- infra/api/http/me.ts -->
<g id="node17" class="node">
<title>infra/api/http/me.ts</title>
<path fill="none" stroke="#c6c5fe" d="M841.2231,-476.374C841.2231,-476.374 718.4395,-476.374 718.4395,-476.374 714.1896,-476.374 709.9396,-472.1241 709.9396,-467.8742 709.9396,-467.8742 709.9396,-459.3743 709.9396,-459.3743 709.9396,-455.1244 714.1896,-450.8745 718.4395,-450.8745 718.4395,-450.8745 841.2231,-450.8745 841.2231,-450.8745 845.473,-450.8745 849.723,-455.1244 849.723,-459.3743 849.723,-459.3743 849.723,-467.8742 849.723,-467.8742 849.723,-472.1241 845.473,-476.374 841.2231,-476.374"/>
<text text-anchor="middle" x="779.8313" y="-460.2485" font-family="Arial" font-size="15.00" fill="#c6c5fe">infra/api/http/me.ts</text>
</g>
<!-- infra/api/http/me.ts&#45;&gt;shared/CQRS/read/Exception/InfraException.ts -->
<g id="edge26" class="edge">
<title>infra/api/http/me.ts&#45;&gt;shared/CQRS/read/Exception/InfraException.ts</title>
<path fill="none" stroke="#757575" d="M794.6495,-476.4926C814.0043,-492.3621 849.6661,-518.4799 885.5269,-528.6243 968.3213,-552.0453 993.1799,-532.7468 1079.1245,-528.6243 1278.5643,-519.0577 1350.1864,-579.6754 1526.3174,-485.6243 1548.6057,-473.7226 1540.5872,-454.5168 1562.3174,-441.6243 1577.0256,-432.8978 1593.3934,-426.2143 1610.191,-421.1071"/>
<polygon fill="#757575" stroke="#757575" points="1611.4628,-424.3841 1620.1216,-418.2786 1609.5453,-417.6518 1611.4628,-424.3841"/>
</g>
<!-- infra/api/http/me.ts&#45;&gt;shared/CQRS/read/Data/InfraData.ts -->
<g id="edge25" class="edge">
<title>infra/api/http/me.ts&#45;&gt;shared/CQRS/read/Data/InfraData.ts</title>
<path fill="none" stroke="#757575" d="M835.5955,-450.958C851.6537,-447.5987 869.2345,-444.1956 885.5269,-441.6243 1140.6509,-401.3599 1440.6995,-373.0578 1612.9055,-358.6274"/>
<polygon fill="#757575" stroke="#757575" points="1613.3688,-362.101 1623.0431,-357.7816 1612.7867,-355.1253 1613.3688,-362.101"/>
</g>
<!-- infra/api/http/me.ts&#45;&gt;infra/api/http/client/index.ts -->
<g id="edge23" class="edge">
<title>infra/api/http/me.ts&#45;&gt;infra/api/http/client/index.ts</title>
<path fill="none" stroke="#757575" d="M839.4911,-476.2931C862.4589,-481.1704 888.8825,-486.7815 912.7083,-491.8409"/>
<polygon fill="#757575" stroke="#757575" points="912.2338,-495.3181 922.7427,-493.9717 913.6879,-488.4708 912.2338,-495.3181"/>
</g>
<!-- infra/api/http/me.ts&#45;&gt;infra/api/http/client/util.ts -->
<g id="edge24" class="edge">
<title>infra/api/http/me.ts&#45;&gt;infra/api/http/client/util.ts</title>
<path fill="none" stroke="#757575" d="M849.8019,-463.6243C860.7656,-463.6243 872.2719,-463.6243 883.7327,-463.6243"/>
<polygon fill="#757575" stroke="#757575" points="883.778,-467.1244 893.778,-463.6243 883.7779,-460.1244 883.778,-467.1244"/>
</g>
<!-- infra/repo/me/me.ts&#45;&gt;shared/CQRS/read/Exception/InfraException.ts -->
<g id="edge30" class="edge">
<title>infra/repo/me/me.ts&#45;&gt;shared/CQRS/read/Exception/InfraException.ts</title>
<path fill="none" stroke="#757575" d="M624.1245,-447.4385C671.001,-473.1427 783.0173,-530.0391 885.5269,-547.6243 1031.5468,-572.6735 1489.1611,-552.5133 1526.3174,-526.6243 1559.9786,-503.1704 1530.3657,-467.3585 1562.3174,-441.6243 1572.1883,-433.6741 1583.2721,-427.2802 1595.002,-422.1573"/>
<polygon fill="#757575" stroke="#757575" points="1596.5693,-425.2993 1604.5369,-418.3159 1593.9534,-418.8065 1596.5693,-425.2993"/>
</g>
<!-- infra/repo/me/me.ts&#45;&gt;shared/CQRS/read/Data/InfraData.ts -->
<g id="edge29" class="edge">
<title>infra/repo/me/me.ts&#45;&gt;shared/CQRS/read/Data/InfraData.ts</title>
<path fill="none" stroke="#757575" d="M673.9658,-421.9932C773.1599,-405.2967 956.9979,-376.494 1115.1245,-363.6243 1285.8457,-349.7295 1483.0088,-346.7766 1612.5738,-346.6204"/>
<polygon fill="#757575" stroke="#757575" points="1612.9519,-350.1202 1622.9496,-346.6137 1612.9473,-343.1202 1612.9519,-350.1202"/>
</g>
<!-- infra/repo/me/me.ts&#45;&gt;infra/api/http/me.ts -->
<g id="edge28" class="edge">
<title>infra/repo/me/me.ts&#45;&gt;infra/api/http/me.ts</title>
<path fill="none" stroke="#757575" d="M674.3084,-446.4615C682.7522,-447.8348 691.3989,-449.2412 699.9313,-450.6289"/>
<polygon fill="#757575" stroke="#757575" points="699.444,-454.0956 709.8762,-452.2464 700.5678,-447.1864 699.444,-454.0956"/>
</g>
<!-- shared/CQRS/read/Data/DomainData.test.ts -->
<g id="node20" class="node">
<title>shared/CQRS/read/Data/DomainData.test.ts</title>
<path fill="none" stroke="#c6c5fe" d="M1467.8505,-193.374C1467.8505,-193.374 1173.5914,-193.374 1173.5914,-193.374 1169.3414,-193.374 1165.0915,-189.1241 1165.0915,-184.8742 1165.0915,-184.8742 1165.0915,-176.3743 1165.0915,-176.3743 1165.0915,-172.1244 1169.3414,-167.8745 1173.5914,-167.8745 1173.5914,-167.8745 1467.8505,-167.8745 1467.8505,-167.8745 1472.1004,-167.8745 1476.3504,-172.1244 1476.3504,-176.3743 1476.3504,-176.3743 1476.3504,-184.8742 1476.3504,-184.8742 1476.3504,-189.1241 1472.1004,-193.374 1467.8505,-193.374"/>
<text text-anchor="middle" x="1320.7209" y="-177.2485" font-family="Arial" font-size="15.00" fill="#c6c5fe">shared/CQRS/read/Data/DomainData.test.ts</text>
</g>
<!-- shared/CQRS/read/Data/DomainData.test.ts&#45;&gt;shared/CQRS/read/Data/DomainData.ts -->
<g id="edge31" class="edge">
<title>shared/CQRS/read/Data/DomainData.test.ts&#45;&gt;shared/CQRS/read/Data/DomainData.ts</title>
<path fill="none" stroke="#757575" d="M1433.0867,-193.2635C1463.4455,-197.2545 1496.2217,-202.0902 1526.3174,-207.6243 1584.8815,-218.3932 1651.0265,-234.5579 1696.8218,-246.3949"/>
<polygon fill="#757575" stroke="#757575" points="1696.0039,-249.7985 1706.5628,-248.9268 1697.7649,-243.0236 1696.0039,-249.7985"/>
</g>
<!-- shared/CQRS/read/Exception/DomainDataException.test.ts -->
<g id="node21" class="node">
<title>shared/CQRS/read/Exception/DomainDataException.test.ts</title>
<path fill="none" stroke="#c6c5fe" d="M1517.914,-150.374C1517.914,-150.374 1123.5279,-150.374 1123.5279,-150.374 1119.278,-150.374 1115.028,-146.1241 1115.028,-141.8742 1115.028,-141.8742 1115.028,-133.3743 1115.028,-133.3743 1115.028,-129.1244 1119.278,-124.8745 1123.5279,-124.8745 1123.5279,-124.8745 1517.914,-124.8745 1517.914,-124.8745 1522.1639,-124.8745 1526.4139,-129.1244 1526.4139,-133.3743 1526.4139,-133.3743 1526.4139,-141.8742 1526.4139,-141.8742 1526.4139,-146.1241 1522.1639,-150.374 1517.914,-150.374"/>
<text text-anchor="middle" x="1320.7209" y="-134.2485" font-family="Arial" font-size="15.00" fill="#c6c5fe">shared/CQRS/read/Exception/DomainDataException.test.ts</text>
</g>
<!-- shared/CQRS/read/Exception/DomainDataException.test.ts&#45;&gt;shared/CQRS/read/Exception/DomainDataException.ts -->
<g id="edge34" class="edge">
<title>shared/CQRS/read/Exception/DomainDataException.test.ts&#45;&gt;shared/CQRS/read/Exception/DomainDataException.ts</title>
<path fill="none" stroke="#757575" d="M1454.1747,-150.2602C1503.6804,-154.9476 1560.0148,-160.2815 1610.3686,-165.0492"/>
<polygon fill="#757575" stroke="#757575" points="1610.0704,-168.5365 1620.3558,-165.9948 1610.7303,-161.5677 1610.0704,-168.5365"/>
</g>
<!-- ui/components/Me/Me.tsx -->
<g id="node22" class="node">
<title>ui/components/Me/Me.tsx</title>
<path fill="none" stroke="#cfffac" d="M461.8554,-461.374C461.8554,-461.374 292.0484,-461.374 292.0484,-461.374 287.7985,-461.374 283.5486,-457.1241 283.5486,-452.8742 283.5486,-452.8742 283.5486,-444.3743 283.5486,-444.3743 283.5486,-440.1244 287.7985,-435.8745 292.0484,-435.8745 292.0484,-435.8745 461.8554,-435.8745 461.8554,-435.8745 466.1053,-435.8745 470.3552,-440.1244 470.3552,-444.3743 470.3552,-444.3743 470.3552,-452.8742 470.3552,-452.8742 470.3552,-457.1241 466.1053,-461.374 461.8554,-461.374"/>
<text text-anchor="middle" x="376.9519" y="-445.2485" font-family="Arial" font-size="15.00" fill="#cfffac">ui/components/Me/Me.tsx</text>
</g>
<!-- ui/components/Me/index.ts -->
<g id="node23" class="node">
<title>ui/components/Me/index.ts</title>
<path fill="none" stroke="#c6c5fe" d="M201.4169,-461.374C201.4169,-461.374 23.5651,-461.374 23.5651,-461.374 19.3151,-461.374 15.0652,-457.1241 15.0652,-452.8742 15.0652,-452.8742 15.0652,-444.3743 15.0652,-444.3743 15.0652,-440.1244 19.3151,-435.8745 23.5651,-435.8745 23.5651,-435.8745 201.4169,-435.8745 201.4169,-435.8745 205.6668,-435.8745 209.9167,-440.1244 209.9167,-444.3743 209.9167,-444.3743 209.9167,-452.8742 209.9167,-452.8742 209.9167,-457.1241 205.6668,-461.374 201.4169,-461.374"/>
<text text-anchor="middle" x="112.491" y="-445.2485" font-family="Arial" font-size="15.00" fill="#c6c5fe">ui/components/Me/index.ts</text>
</g>
<!-- ui/components/Me/index.ts&#45;&gt;ui/components/Me/Me.tsx -->
<g id="edge35" class="edge">
<title>ui/components/Me/index.ts&#45;&gt;ui/components/Me/Me.tsx</title>
<path fill="none" stroke="#757575" d="M209.8398,-448.6243C230.4702,-448.6243 252.3207,-448.6243 273.1794,-448.6243"/>
<polygon fill="#757575" stroke="#757575" points="273.3298,-452.1244 283.3298,-448.6243 273.3298,-445.1244 273.3298,-452.1244"/>
</g>
<!-- ui/containers/ErrorBoundary.tsx -->
<g id="node24" class="node">
<title>ui/containers/ErrorBoundary.tsx</title>
<path fill="none" stroke="#cfffac" d="M216.4731,-504.374C216.4731,-504.374 8.5089,-504.374 8.5089,-504.374 4.259,-504.374 .009,-500.1241 .009,-495.8742 .009,-495.8742 .009,-487.3743 .009,-487.3743 .009,-483.1244 4.259,-478.8745 8.5089,-478.8745 8.5089,-478.8745 216.4731,-478.8745 216.4731,-478.8745 220.723,-478.8745 224.9729,-483.1244 224.9729,-487.3743 224.9729,-487.3743 224.9729,-495.8742 224.9729,-495.8742 224.9729,-500.1241 220.723,-504.374 216.4731,-504.374"/>
<text text-anchor="middle" x="112.491" y="-488.2485" font-family="Arial" font-size="15.00" fill="#cfffac">ui/containers/ErrorBoundary.tsx</text>
</g>
<!-- useCase/useMe/useMe.tsx -->
<g id="node25" class="node">
<title>useCase/useMe/useMe.tsx</title>
<path fill="none" stroke="#cfffac" d="M202.4067,-547.374C202.4067,-547.374 22.5753,-547.374 22.5753,-547.374 18.3253,-547.374 14.0754,-543.1241 14.0754,-538.8742 14.0754,-538.8742 14.0754,-530.3743 14.0754,-530.3743 14.0754,-526.1244 18.3253,-521.8745 22.5753,-521.8745 22.5753,-521.8745 202.4067,-521.8745 202.4067,-521.8745 206.6566,-521.8745 210.9065,-526.1244 210.9065,-530.3743 210.9065,-530.3743 210.9065,-538.8742 210.9065,-538.8742 210.9065,-543.1241 206.6566,-547.374 202.4067,-547.374"/>
<text text-anchor="middle" x="112.491" y="-531.2485" font-family="Arial" font-size="15.00" fill="#cfffac">useCase/useMe/useMe.tsx</text>
</g>
</g>
</svg>
