<?xml version="1.0" encoding="UTF-8" standalone="no"?>
<!DOCTYPE svg PUBLIC "-//W3C//DTD SVG 1.1//EN"
 "http://www.w3.org/Graphics/SVG/1.1/DTD/svg11.dtd">
<!-- Generated by graphviz version 2.40.1 (20161225.0304)
 -->
<!-- Title: G Pages: 1 -->
<svg width="1351pt" height="326pt"
 viewBox="0.00 0.00 1351.08 326.45" xmlns="http://www.w3.org/2000/svg" xmlns:xlink="http://www.w3.org/1999/xlink">
<g id="graph0" class="graph" transform="scale(1 1) rotate(0) translate(21.6 304.8485)">
<title>G</title>
<polygon fill="#111111" stroke="transparent" points="-21.6,21.6 -21.6,-304.8485 1329.4799,-304.8485 1329.4799,21.6 -21.6,21.6"/>
<!-- app.d.ts -->
<g id="node1" class="node">
<title>app.d.ts</title>
<path fill="none" stroke="#cfffac" d="M138.8637,-46.374C138.8637,-46.374 86.1182,-46.374 86.1182,-46.374 81.8683,-46.374 77.6184,-42.1241 77.6184,-37.8742 77.6184,-37.8742 77.6184,-29.3743 77.6184,-29.3743 77.6184,-25.1244 81.8683,-20.8745 86.1182,-20.8745 86.1182,-20.8745 138.8637,-20.8745 138.8637,-20.8745 143.1136,-20.8745 147.3635,-25.1244 147.3635,-29.3743 147.3635,-29.3743 147.3635,-37.8742 147.3635,-37.8742 147.3635,-42.1241 143.1136,-46.374 138.8637,-46.374"/>
<text text-anchor="middle" x="112.491" y="-30.2485" font-family="Arial" font-size="15.00" fill="#cfffac">app.d.ts</text>
</g>
<!-- controller/me.tsx -->
<g id="node2" class="node">
<title>controller/me.tsx</title>
<path fill="none" stroke="#c6c5fe" d="M167.0229,-89.374C167.0229,-89.374 57.9591,-89.374 57.9591,-89.374 53.7091,-89.374 49.4592,-85.1241 49.4592,-80.8742 49.4592,-80.8742 49.4592,-72.3743 49.4592,-72.3743 49.4592,-68.1244 53.7091,-63.8745 57.9591,-63.8745 57.9591,-63.8745 167.0229,-63.8745 167.0229,-63.8745 171.2728,-63.8745 175.5227,-68.1244 175.5227,-72.3743 175.5227,-72.3743 175.5227,-80.8742 175.5227,-80.8742 175.5227,-85.1241 171.2728,-89.374 167.0229,-89.374"/>
<text text-anchor="middle" x="112.491" y="-73.2485" font-family="Arial" font-size="15.00" fill="#c6c5fe">controller/me.tsx</text>
</g>
<!-- domain/me/index.ts -->
<g id="node3" class="node">
<title>domain/me/index.ts</title>
<path fill="none" stroke="#c6c5fe" d="M441.5155,-154.374C441.5155,-154.374 312.3883,-154.374 312.3883,-154.374 308.1383,-154.374 303.8884,-150.1241 303.8884,-145.8742 303.8884,-145.8742 303.8884,-137.3743 303.8884,-137.3743 303.8884,-133.1244 308.1383,-128.8745 312.3883,-128.8745 312.3883,-128.8745 441.5155,-128.8745 441.5155,-128.8745 445.7655,-128.8745 450.0154,-133.1244 450.0154,-137.3743 450.0154,-137.3743 450.0154,-145.8742 450.0154,-145.8742 450.0154,-150.1241 445.7655,-154.374 441.5155,-154.374"/>
<text text-anchor="middle" x="376.9519" y="-138.2485" font-family="Arial" font-size="15.00" fill="#c6c5fe">domain/me/index.ts</text>
</g>
<!-- controller/me.tsx&#45;&gt;domain/me/index.ts -->
<g id="edge1" class="edge">
<title>controller/me.tsx&#45;&gt;domain/me/index.ts</title>
<path fill="none" stroke="#757575" d="M150.9493,-89.2755C180.7466,-98.771 223.1846,-111.6304 260.9819,-120.6243 271.4976,-123.1265 282.6117,-125.4902 293.6295,-127.6661"/>
<polygon fill="#757575" stroke="#757575" points="293.2188,-131.1514 303.7009,-129.6102 294.5455,-124.2783 293.2188,-131.1514"/>
</g>
<!-- infra/repo/me/index.ts -->
<g id="node4" class="node">
<title>infra/repo/me/index.ts</title>
<path fill="none" stroke="#c6c5fe" d="M448.6881,-111.374C448.6881,-111.374 305.2157,-111.374 305.2157,-111.374 300.9658,-111.374 296.7159,-107.1241 296.7159,-102.8742 296.7159,-102.8742 296.7159,-94.3743 296.7159,-94.3743 296.7159,-90.1244 300.9658,-85.8745 305.2157,-85.8745 305.2157,-85.8745 448.6881,-85.8745 448.6881,-85.8745 452.938,-85.8745 457.1879,-90.1244 457.1879,-94.3743 457.1879,-94.3743 457.1879,-102.8742 457.1879,-102.8742 457.1879,-107.1241 452.938,-111.374 448.6881,-111.374"/>
<text text-anchor="middle" x="376.9519" y="-95.2485" font-family="Arial" font-size="15.00" fill="#c6c5fe">infra/repo/me/index.ts</text>
</g>
<!-- controller/me.tsx&#45;&gt;infra/repo/me/index.ts -->
<g id="edge2" class="edge">
<title>controller/me.tsx&#45;&gt;infra/repo/me/index.ts</title>
<path fill="none" stroke="#757575" d="M175.836,-81.8938C208.9395,-84.6476 250.0344,-88.0662 286.432,-91.0941"/>
<polygon fill="#757575" stroke="#757575" points="286.3071,-94.5957 296.5629,-91.9369 286.8875,-87.6198 286.3071,-94.5957"/>
</g>
<!-- ui/components/Me/Content.tsx -->
<g id="node5" class="node">
<title>ui/components/Me/Content.tsx</title>
<path fill="none" stroke="#cfffac" d="M477.555,-68.374C477.555,-68.374 276.3489,-68.374 276.3489,-68.374 272.0989,-68.374 267.849,-64.1241 267.849,-59.8742 267.849,-59.8742 267.849,-51.3743 267.849,-51.3743 267.849,-47.1244 272.0989,-42.8745 276.3489,-42.8745 276.3489,-42.8745 477.555,-42.8745 477.555,-42.8745 481.8049,-42.8745 486.0548,-47.1244 486.0548,-51.3743 486.0548,-51.3743 486.0548,-59.8742 486.0548,-59.8742 486.0548,-64.1241 481.8049,-68.374 477.555,-68.374"/>
<text text-anchor="middle" x="376.9519" y="-52.2485" font-family="Arial" font-size="15.00" fill="#cfffac">ui/components/Me/Content.tsx</text>
</g>
<!-- controller/me.tsx&#45;&gt;ui/components/Me/Content.tsx -->
<g id="edge3" class="edge">
<title>controller/me.tsx&#45;&gt;ui/components/Me/Content.tsx</title>
<path fill="none" stroke="#757575" d="M175.836,-71.5942C200.3332,-69.649 229.2068,-67.3562 257.3145,-65.1243"/>
<polygon fill="#757575" stroke="#757575" points="257.9343,-68.5862 267.6258,-64.3055 257.3801,-61.6082 257.9343,-68.5862"/>
</g>
<!-- ui/components/Me/Exception.tsx -->
<g id="node6" class="node">
<title>ui/components/Me/Exception.tsx</title>
<path fill="none" stroke="#cfffac" d="M484.392,-25.374C484.392,-25.374 269.5118,-25.374 269.5118,-25.374 265.2619,-25.374 261.012,-21.1241 261.012,-16.8742 261.012,-16.8742 261.012,-8.3743 261.012,-8.3743 261.012,-4.1244 265.2619,.1255 269.5118,.1255 269.5118,.1255 484.392,.1255 484.392,.1255 488.6419,.1255 492.8919,-4.1244 492.8919,-8.3743 492.8919,-8.3743 492.8919,-16.8742 492.8919,-16.8742 492.8919,-21.1241 488.6419,-25.374 484.392,-25.374"/>
<text text-anchor="middle" x="376.9519" y="-9.2485" font-family="Arial" font-size="15.00" fill="#cfffac">ui/components/Me/Exception.tsx</text>
</g>
<!-- controller/me.tsx&#45;&gt;ui/components/Me/Exception.tsx -->
<g id="edge4" class="edge">
<title>controller/me.tsx&#45;&gt;ui/components/Me/Exception.tsx</title>
<path fill="none" stroke="#757575" d="M175.7906,-68.9678C192.1431,-65.8709 209.495,-61.5698 224.9819,-55.6243 242.4874,-48.9039 243.4583,-40.2972 260.9819,-33.6243 266.4331,-31.5485 272.1083,-29.6746 277.8901,-27.9834"/>
<polygon fill="#757575" stroke="#757575" points="278.9744,-31.3155 287.7002,-25.3062 277.1315,-24.5624 278.9744,-31.3155"/>
</g>
<!-- domain/me/me.ts -->
<g id="node7" class="node">
<title>domain/me/me.ts</title>
<path fill="none" stroke="#cfffac" d="M658.5705,-197.374C658.5705,-197.374 544.4871,-197.374 544.4871,-197.374 540.2372,-197.374 535.9873,-193.1241 535.9873,-188.8742 535.9873,-188.8742 535.9873,-180.3743 535.9873,-180.3743 535.9873,-176.1244 540.2372,-171.8745 544.4871,-171.8745 544.4871,-171.8745 658.5705,-171.8745 658.5705,-171.8745 662.8204,-171.8745 667.0703,-176.1244 667.0703,-180.3743 667.0703,-180.3743 667.0703,-188.8742 667.0703,-188.8742 667.0703,-193.1241 662.8204,-197.374 658.5705,-197.374"/>
<text text-anchor="middle" x="601.5288" y="-181.2485" font-family="Arial" font-size="15.00" fill="#cfffac">domain/me/me.ts</text>
</g>
<!-- domain/me/index.ts&#45;&gt;domain/me/me.ts -->
<g id="edge5" class="edge">
<title>domain/me/index.ts&#45;&gt;domain/me/me.ts</title>
<path fill="none" stroke="#757575" d="M448.1387,-154.2745C462.9503,-156.974 478.4536,-159.8492 492.9219,-162.6243 504.9978,-164.9404 517.8135,-167.4714 530.247,-169.9655"/>
<polygon fill="#757575" stroke="#757575" points="529.6208,-173.4096 540.115,-171.953 531.003,-166.5474 529.6208,-173.4096"/>
</g>
<!-- domain/me/type.ts -->
<g id="node8" class="node">
<title>domain/me/type.ts</title>
<path fill="none" stroke="#cfffac" d="M662.0858,-154.374C662.0858,-154.374 540.9718,-154.374 540.9718,-154.374 536.7219,-154.374 532.4719,-150.1241 532.4719,-145.8742 532.4719,-145.8742 532.4719,-137.3743 532.4719,-137.3743 532.4719,-133.1244 536.7219,-128.8745 540.9718,-128.8745 540.9718,-128.8745 662.0858,-128.8745 662.0858,-128.8745 666.3357,-128.8745 670.5857,-133.1244 670.5857,-137.3743 670.5857,-137.3743 670.5857,-145.8742 670.5857,-145.8742 670.5857,-150.1241 666.3357,-154.374 662.0858,-154.374"/>
<text text-anchor="middle" x="601.5288" y="-138.2485" font-family="Arial" font-size="15.00" fill="#cfffac">domain/me/type.ts</text>
</g>
<!-- domain/me/index.ts&#45;&gt;domain/me/type.ts -->
<g id="edge6" class="edge">
<title>domain/me/index.ts&#45;&gt;domain/me/type.ts</title>
<path fill="none" stroke="#757575" d="M450.176,-141.6243C473.145,-141.6243 498.6052,-141.6243 521.989,-141.6243"/>
<polygon fill="#757575" stroke="#757575" points="522.2189,-145.1244 532.2189,-141.6243 522.2188,-138.1244 522.2189,-145.1244"/>
</g>
<!-- infra/repo/me/me.ts -->
<g id="node13" class="node">
<title>infra/repo/me/me.ts</title>
<path fill="none" stroke="#c6c5fe" d="M665.743,-111.374C665.743,-111.374 537.3146,-111.374 537.3146,-111.374 533.0647,-111.374 528.8148,-107.1241 528.8148,-102.8742 528.8148,-102.8742 528.8148,-94.3743 528.8148,-94.3743 528.8148,-90.1244 533.0647,-85.8745 537.3146,-85.8745 537.3146,-85.8745 665.743,-85.8745 665.743,-85.8745 669.9929,-85.8745 674.2428,-90.1244 674.2428,-94.3743 674.2428,-94.3743 674.2428,-102.8742 674.2428,-102.8742 674.2428,-107.1241 669.9929,-111.374 665.743,-111.374"/>
<text text-anchor="middle" x="601.5288" y="-95.2485" font-family="Arial" font-size="15.00" fill="#c6c5fe">infra/repo/me/me.ts</text>
</g>
<!-- infra/repo/me/index.ts&#45;&gt;infra/repo/me/me.ts -->
<g id="edge10" class="edge">
<title>infra/repo/me/index.ts&#45;&gt;infra/repo/me/me.ts</title>
<path fill="none" stroke="#757575" d="M457.0782,-98.6243C477.1218,-98.6243 498.6585,-98.6243 518.8244,-98.6243"/>
<polygon fill="#757575" stroke="#757575" points="518.9144,-102.1244 528.9144,-98.6243 518.9143,-95.1244 518.9144,-102.1244"/>
</g>
<!-- infra/api/http/client/client.ts -->
<g id="node9" class="node">
<title>infra/api/http/client/client.ts</title>
<path fill="none" stroke="#cfffac" d="M1299.2579,-133.374C1299.2579,-133.374 1123.7465,-133.374 1123.7465,-133.374 1119.4966,-133.374 1115.2467,-129.1241 1115.2467,-124.8742 1115.2467,-124.8742 1115.2467,-116.3743 1115.2467,-116.3743 1115.2467,-112.1244 1119.4966,-107.8745 1123.7465,-107.8745 1123.7465,-107.8745 1299.2579,-107.8745 1299.2579,-107.8745 1303.5078,-107.8745 1307.7577,-112.1244 1307.7577,-116.3743 1307.7577,-116.3743 1307.7577,-124.8742 1307.7577,-124.8742 1307.7577,-129.1241 1303.5078,-133.374 1299.2579,-133.374"/>
<text text-anchor="middle" x="1211.5022" y="-117.2485" font-family="Arial" font-size="15.00" fill="#cfffac">infra/api/http/client/client.ts</text>
</g>
<!-- infra/api/http/client/index.ts -->
<g id="node10" class="node">
<title>infra/api/http/client/index.ts</title>
<path fill="none" stroke="#c6c5fe" d="M1070.4239,-133.374C1070.4239,-133.374 894.2275,-133.374 894.2275,-133.374 889.9775,-133.374 885.7276,-129.1241 885.7276,-124.8742 885.7276,-124.8742 885.7276,-116.3743 885.7276,-116.3743 885.7276,-112.1244 889.9775,-107.8745 894.2275,-107.8745 894.2275,-107.8745 1070.4239,-107.8745 1070.4239,-107.8745 1074.6738,-107.8745 1078.9238,-112.1244 1078.9238,-116.3743 1078.9238,-116.3743 1078.9238,-124.8742 1078.9238,-124.8742 1078.9238,-129.1241 1074.6738,-133.374 1070.4239,-133.374"/>
<text text-anchor="middle" x="982.3257" y="-117.2485" font-family="Arial" font-size="15.00" fill="#c6c5fe">infra/api/http/client/index.ts</text>
</g>
<!-- infra/api/http/client/index.ts&#45;&gt;infra/api/http/client/client.ts -->
<g id="edge7" class="edge">
<title>infra/api/http/client/index.ts&#45;&gt;infra/api/http/client/client.ts</title>
<path fill="none" stroke="#757575" d="M1079.185,-120.6243C1087.702,-120.6243 1096.353,-120.6243 1104.9435,-120.6243"/>
<polygon fill="#757575" stroke="#757575" points="1104.9886,-124.1244 1114.9886,-120.6243 1104.9885,-117.1244 1104.9886,-124.1244"/>
</g>
<!-- infra/api/http/client/util.ts -->
<g id="node11" class="node">
<title>infra/api/http/client/util.ts</title>
<path fill="none" stroke="#cfffac" d="M1062.2389,-90.374C1062.2389,-90.374 902.4124,-90.374 902.4124,-90.374 898.1625,-90.374 893.9126,-86.1241 893.9126,-81.8742 893.9126,-81.8742 893.9126,-73.3743 893.9126,-73.3743 893.9126,-69.1244 898.1625,-64.8745 902.4124,-64.8745 902.4124,-64.8745 1062.2389,-64.8745 1062.2389,-64.8745 1066.4889,-64.8745 1070.7388,-69.1244 1070.7388,-73.3743 1070.7388,-73.3743 1070.7388,-81.8742 1070.7388,-81.8742 1070.7388,-86.1241 1066.4889,-90.374 1062.2389,-90.374"/>
<text text-anchor="middle" x="982.3257" y="-74.2485" font-family="Arial" font-size="15.00" fill="#cfffac">infra/api/http/client/util.ts</text>
</g>
<!-- infra/api/http/me.ts -->
<g id="node12" class="node">
<title>infra/api/http/me.ts</title>
<path fill="none" stroke="#c6c5fe" d="M841.2231,-111.374C841.2231,-111.374 718.4395,-111.374 718.4395,-111.374 714.1896,-111.374 709.9396,-107.1241 709.9396,-102.8742 709.9396,-102.8742 709.9396,-94.3743 709.9396,-94.3743 709.9396,-90.1244 714.1896,-85.8745 718.4395,-85.8745 718.4395,-85.8745 841.2231,-85.8745 841.2231,-85.8745 845.473,-85.8745 849.723,-90.1244 849.723,-94.3743 849.723,-94.3743 849.723,-102.8742 849.723,-102.8742 849.723,-107.1241 845.473,-111.374 841.2231,-111.374"/>
<text text-anchor="middle" x="779.8313" y="-95.2485" font-family="Arial" font-size="15.00" fill="#c6c5fe">infra/api/http/me.ts</text>
</g>
<!-- infra/api/http/me.ts&#45;&gt;infra/api/http/client/index.ts -->
<g id="edge8" class="edge">
<title>infra/api/http/me.ts&#45;&gt;infra/api/http/client/index.ts</title>
<path fill="none" stroke="#757575" d="M849.8019,-106.2262C858.1006,-107.1278 866.7101,-108.0632 875.3756,-109.0047"/>
<polygon fill="#757575" stroke="#757575" points="875.2388,-112.5103 885.5584,-110.111 875.995,-105.5513 875.2388,-112.5103"/>
</g>
<!-- infra/api/http/me.ts&#45;&gt;infra/api/http/client/util.ts -->
<g id="edge9" class="edge">
<title>infra/api/http/me.ts&#45;&gt;infra/api/http/client/util.ts</title>
<path fill="none" stroke="#757575" d="M849.8019,-91.3679C860.7656,-90.2308 872.2719,-89.0376 883.7327,-87.849"/>
<polygon fill="#757575" stroke="#757575" points="884.1924,-91.3202 893.778,-86.8072 883.4702,-84.3575 884.1924,-91.3202"/>
</g>
<!-- infra/repo/me/me.ts&#45;&gt;infra/api/http/me.ts -->
<g id="edge11" class="edge">
<title>infra/repo/me/me.ts&#45;&gt;infra/api/http/me.ts</title>
<path fill="none" stroke="#757575" d="M674.3084,-98.6243C682.6604,-98.6243 691.211,-98.6243 699.6531,-98.6243"/>
<polygon fill="#757575" stroke="#757575" points="699.8762,-102.1244 709.8762,-98.6243 699.8761,-95.1244 699.8762,-102.1244"/>
</g>
<!-- ui/components/Me/Me.tsx -->
<g id="node14" class="node">
<title>ui/components/Me/Me.tsx</title>
<path fill="none" stroke="#cfffac" d="M461.8554,-197.374C461.8554,-197.374 292.0484,-197.374 292.0484,-197.374 287.7985,-197.374 283.5486,-193.1241 283.5486,-188.8742 283.5486,-188.8742 283.5486,-180.3743 283.5486,-180.3743 283.5486,-176.1244 287.7985,-171.8745 292.0484,-171.8745 292.0484,-171.8745 461.8554,-171.8745 461.8554,-171.8745 466.1053,-171.8745 470.3552,-176.1244 470.3552,-180.3743 470.3552,-180.3743 470.3552,-188.8742 470.3552,-188.8742 470.3552,-193.1241 466.1053,-197.374 461.8554,-197.374"/>
<text text-anchor="middle" x="376.9519" y="-181.2485" font-family="Arial" font-size="15.00" fill="#cfffac">ui/components/Me/Me.tsx</text>
</g>
<!-- ui/components/Me/index.ts -->
<g id="node15" class="node">
<title>ui/components/Me/index.ts</title>
<path fill="none" stroke="#c6c5fe" d="M201.4169,-197.374C201.4169,-197.374 23.5651,-197.374 23.5651,-197.374 19.3151,-197.374 15.0652,-193.1241 15.0652,-188.8742 15.0652,-188.8742 15.0652,-180.3743 15.0652,-180.3743 15.0652,-176.1244 19.3151,-171.8745 23.5651,-171.8745 23.5651,-171.8745 201.4169,-171.8745 201.4169,-171.8745 205.6668,-171.8745 209.9167,-176.1244 209.9167,-180.3743 209.9167,-180.3743 209.9167,-188.8742 209.9167,-188.8742 209.9167,-193.1241 205.6668,-197.374 201.4169,-197.374"/>
<text text-anchor="middle" x="112.491" y="-181.2485" font-family="Arial" font-size="15.00" fill="#c6c5fe">ui/components/Me/index.ts</text>
</g>
<!-- ui/components/Me/index.ts&#45;&gt;ui/components/Me/Me.tsx -->
<g id="edge12" class="edge">
<title>ui/components/Me/index.ts&#45;&gt;ui/components/Me/Me.tsx</title>
<path fill="none" stroke="#757575" d="M209.8398,-184.6243C230.4702,-184.6243 252.3207,-184.6243 273.1794,-184.6243"/>
<polygon fill="#757575" stroke="#757575" points="273.3298,-188.1244 283.3298,-184.6243 273.3298,-181.1244 273.3298,-188.1244"/>
</g>
<!-- ui/containers/ErrorBoundary.tsx -->
<g id="node16" class="node">
<title>ui/containers/ErrorBoundary.tsx</title>
<path fill="none" stroke="#cfffac" d="M216.4731,-240.374C216.4731,-240.374 8.5089,-240.374 8.5089,-240.374 4.259,-240.374 .009,-236.1241 .009,-231.8742 .009,-231.8742 .009,-223.3743 .009,-223.3743 .009,-219.1244 4.259,-214.8745 8.5089,-214.8745 8.5089,-214.8745 216.4731,-214.8745 216.4731,-214.8745 220.723,-214.8745 224.9729,-219.1244 224.9729,-223.3743 224.9729,-223.3743 224.9729,-231.8742 224.9729,-231.8742 224.9729,-236.1241 220.723,-240.374 216.4731,-240.374"/>
<text text-anchor="middle" x="112.491" y="-224.2485" font-family="Arial" font-size="15.00" fill="#cfffac">ui/containers/ErrorBoundary.tsx</text>
</g>
<!-- useCase/useMe/useMe.tsx -->
<g id="node17" class="node">
<title>useCase/useMe/useMe.tsx</title>
<path fill="none" stroke="#cfffac" d="M202.4067,-283.374C202.4067,-283.374 22.5753,-283.374 22.5753,-283.374 18.3253,-283.374 14.0754,-279.1241 14.0754,-274.8742 14.0754,-274.8742 14.0754,-266.3743 14.0754,-266.3743 14.0754,-262.1244 18.3253,-257.8745 22.5753,-257.8745 22.5753,-257.8745 202.4067,-257.8745 202.4067,-257.8745 206.6566,-257.8745 210.9065,-262.1244 210.9065,-266.3743 210.9065,-266.3743 210.9065,-274.8742 210.9065,-274.8742 210.9065,-279.1241 206.6566,-283.374 202.4067,-283.374"/>
<text text-anchor="middle" x="112.491" y="-267.2485" font-family="Arial" font-size="15.00" fill="#cfffac">useCase/useMe/useMe.tsx</text>
</g>
</g>
</svg>
