<?xml version="1.0" encoding="UTF-8" standalone="no"?>
<!DOCTYPE svg PUBLIC "-//W3C//DTD SVG 1.1//EN"
 "http://www.w3.org/Graphics/SVG/1.1/DTD/svg11.dtd">
<!-- Generated by graphviz version 2.40.1 (20161225.0304)
 -->
<!-- Title: G Pages: 1 -->
<svg width="1988pt" height="305pt"
 viewBox="0.00 0.00 1987.82 305.45" xmlns="http://www.w3.org/2000/svg" xmlns:xlink="http://www.w3.org/1999/xlink">
<g id="graph0" class="graph" transform="scale(1 1) rotate(0) translate(21.6 283.8485)">
<title>G</title>
<polygon fill="#111111" stroke="transparent" points="-21.6,21.6 -21.6,-283.8485 1966.2162,-283.8485 1966.2162,21.6 -21.6,21.6"/>
<!-- ../domain/me/index.ts -->
<g id="node1" class="node">
<title>../domain/me/index.ts</title>
<path fill="none" stroke="#c6c5fe" d="M680.2693,-68.374C680.2693,-68.374 539.136,-68.374 539.136,-68.374 534.886,-68.374 530.6361,-64.1241 530.6361,-59.8742 530.6361,-59.8742 530.6361,-51.3743 530.6361,-51.3743 530.6361,-47.1244 534.886,-42.8745 539.136,-42.8745 539.136,-42.8745 680.2693,-42.8745 680.2693,-42.8745 684.5192,-42.8745 688.7691,-47.1244 688.7691,-51.3743 688.7691,-51.3743 688.7691,-59.8742 688.7691,-59.8742 688.7691,-64.1241 684.5192,-68.374 680.2693,-68.374"/>
<text text-anchor="middle" x="609.7026" y="-52.2485" font-family="Arial" font-size="15.00" fill="#c6c5fe">../domain/me/index.ts</text>
</g>
<!-- ../domain/me/me.ts -->
<g id="node2" class="node">
<title>../domain/me/me.ts</title>
<path fill="none" stroke="#cfffac" d="M926.515,-90.374C926.515,-90.374 800.4254,-90.374 800.4254,-90.374 796.1755,-90.374 791.9255,-86.1241 791.9255,-81.8742 791.9255,-81.8742 791.9255,-73.3743 791.9255,-73.3743 791.9255,-69.1244 796.1755,-64.8745 800.4254,-64.8745 800.4254,-64.8745 926.515,-64.8745 926.515,-64.8745 930.765,-64.8745 935.0149,-69.1244 935.0149,-73.3743 935.0149,-73.3743 935.0149,-81.8742 935.0149,-81.8742 935.0149,-86.1241 930.765,-90.374 926.515,-90.374"/>
<text text-anchor="middle" x="863.4702" y="-74.2485" font-family="Arial" font-size="15.00" fill="#cfffac">../domain/me/me.ts</text>
</g>
<!-- ../domain/me/index.ts&#45;&gt;../domain/me/me.ts -->
<g id="edge1" class="edge">
<title>../domain/me/index.ts&#45;&gt;../domain/me/me.ts</title>
<path fill="none" stroke="#757575" d="M688.9524,-62.4947C718.3524,-65.0435 751.7438,-67.9383 781.3909,-70.5085"/>
<polygon fill="#757575" stroke="#757575" points="781.4437,-74.0261 791.7086,-71.403 782.0483,-67.0523 781.4437,-74.0261"/>
</g>
<!-- ../domain/me/type.ts -->
<g id="node3" class="node">
<title>../domain/me/type.ts</title>
<path fill="none" stroke="#cfffac" d="M930.529,-47.374C930.529,-47.374 796.4115,-47.374 796.4115,-47.374 792.1615,-47.374 787.9116,-43.1241 787.9116,-38.8742 787.9116,-38.8742 787.9116,-30.3743 787.9116,-30.3743 787.9116,-26.1244 792.1615,-21.8745 796.4115,-21.8745 796.4115,-21.8745 930.529,-21.8745 930.529,-21.8745 934.7789,-21.8745 939.0288,-26.1244 939.0288,-30.3743 939.0288,-30.3743 939.0288,-38.8742 939.0288,-38.8742 939.0288,-43.1241 934.7789,-47.374 930.529,-47.374"/>
<text text-anchor="middle" x="863.4702" y="-31.2485" font-family="Arial" font-size="15.00" fill="#cfffac">../domain/me/type.ts</text>
</g>
<!-- ../domain/me/index.ts&#45;&gt;../domain/me/type.ts -->
<g id="edge2" class="edge">
<title>../domain/me/index.ts&#45;&gt;../domain/me/type.ts</title>
<path fill="none" stroke="#757575" d="M688.9524,-49.0661C717.1816,-46.7301 749.0907,-44.0895 777.8317,-41.7111"/>
<polygon fill="#757575" stroke="#757575" points="778.1772,-45.1946 787.8544,-40.8817 777.5998,-38.2184 778.1772,-45.1946"/>
</g>
<!-- ../externalInterface/api/http/client/client.ts -->
<g id="node4" class="node">
<title>../externalInterface/api/http/client/client.ts</title>
<path fill="none" stroke="#cfffac" d="M1936.021,-262.374C1936.021,-262.374 1665.4024,-262.374 1665.4024,-262.374 1661.1524,-262.374 1656.9025,-258.1241 1656.9025,-253.8742 1656.9025,-253.8742 1656.9025,-245.3743 1656.9025,-245.3743 1656.9025,-241.1244 1661.1524,-236.8745 1665.4024,-236.8745 1665.4024,-236.8745 1936.021,-236.8745 1936.021,-236.8745 1940.2709,-236.8745 1944.5208,-241.1244 1944.5208,-245.3743 1944.5208,-245.3743 1944.5208,-253.8742 1944.5208,-253.8742 1944.5208,-258.1241 1940.2709,-262.374 1936.021,-262.374"/>
<text text-anchor="middle" x="1800.7117" y="-246.2485" font-family="Arial" font-size="15.00" fill="#cfffac">../externalInterface/api/http/client/client.ts</text>
</g>
<!-- ../externalInterface/api/http/client/index.ts -->
<g id="node5" class="node">
<title>../externalInterface/api/http/client/index.ts</title>
<path fill="none" stroke="#c6c5fe" d="M1612.1332,-262.374C1612.1332,-262.374 1340.8297,-262.374 1340.8297,-262.374 1336.5798,-262.374 1332.3299,-258.1241 1332.3299,-253.8742 1332.3299,-253.8742 1332.3299,-245.3743 1332.3299,-245.3743 1332.3299,-241.1244 1336.5798,-236.8745 1340.8297,-236.8745 1340.8297,-236.8745 1612.1332,-236.8745 1612.1332,-236.8745 1616.3831,-236.8745 1620.633,-241.1244 1620.633,-245.3743 1620.633,-245.3743 1620.633,-253.8742 1620.633,-253.8742 1620.633,-258.1241 1616.3831,-262.374 1612.1332,-262.374"/>
<text text-anchor="middle" x="1476.4814" y="-246.2485" font-family="Arial" font-size="15.00" fill="#c6c5fe">../externalInterface/api/http/client/index.ts</text>
</g>
<!-- ../externalInterface/api/http/client/index.ts&#45;&gt;../externalInterface/api/http/client/client.ts -->
<g id="edge3" class="edge">
<title>../externalInterface/api/http/client/index.ts&#45;&gt;../externalInterface/api/http/client/client.ts</title>
<path fill="none" stroke="#757575" d="M1621.0541,-249.6243C1629.6111,-249.6243 1638.234,-249.6243 1646.826,-249.6243"/>
<polygon fill="#757575" stroke="#757575" points="1646.8923,-253.1244 1656.8923,-249.6243 1646.8922,-246.1244 1646.8923,-253.1244"/>
</g>
<!-- ../externalInterface/api/http/client/util.ts -->
<g id="node6" class="node">
<title>../externalInterface/api/http/client/util.ts</title>
<path fill="none" stroke="#cfffac" d="M1603.9484,-219.374C1603.9484,-219.374 1349.0145,-219.374 1349.0145,-219.374 1344.7646,-219.374 1340.5146,-215.1241 1340.5146,-210.8742 1340.5146,-210.8742 1340.5146,-202.3743 1340.5146,-202.3743 1340.5146,-198.1244 1344.7646,-193.8745 1349.0145,-193.8745 1349.0145,-193.8745 1603.9484,-193.8745 1603.9484,-193.8745 1608.1983,-193.8745 1612.4482,-198.1244 1612.4482,-202.3743 1612.4482,-202.3743 1612.4482,-210.8742 1612.4482,-210.8742 1612.4482,-215.1241 1608.1983,-219.374 1603.9484,-219.374"/>
<text text-anchor="middle" x="1476.4814" y="-203.2485" font-family="Arial" font-size="15.00" fill="#cfffac">../externalInterface/api/http/client/util.ts</text>
</g>
<!-- ../externalInterface/api/http/me/index.ts -->
<g id="node7" class="node">
<title>../externalInterface/api/http/me/index.ts</title>
<path fill="none" stroke="#c6c5fe" d="M992.4425,-240.374C992.4425,-240.374 734.498,-240.374 734.498,-240.374 730.2481,-240.374 725.9981,-236.1241 725.9981,-231.8742 725.9981,-231.8742 725.9981,-223.3743 725.9981,-223.3743 725.9981,-219.1244 730.2481,-214.8745 734.498,-214.8745 734.498,-214.8745 992.4425,-214.8745 992.4425,-214.8745 996.6924,-214.8745 1000.9423,-219.1244 1000.9423,-223.3743 1000.9423,-223.3743 1000.9423,-231.8742 1000.9423,-231.8742 1000.9423,-236.1241 996.6924,-240.374 992.4425,-240.374"/>
<text text-anchor="middle" x="863.4702" y="-224.2485" font-family="Arial" font-size="15.00" fill="#c6c5fe">../externalInterface/api/http/me/index.ts</text>
</g>
<!-- ../externalInterface/api/http/me/me.ts -->
<g id="node8" class="node">
<title>../externalInterface/api/http/me/me.ts</title>
<path fill="none" stroke="#c6c5fe" d="M1287.8812,-240.374C1287.8812,-240.374 1044.9807,-240.374 1044.9807,-240.374 1040.7307,-240.374 1036.4808,-236.1241 1036.4808,-231.8742 1036.4808,-231.8742 1036.4808,-223.3743 1036.4808,-223.3743 1036.4808,-219.1244 1040.7307,-214.8745 1044.9807,-214.8745 1044.9807,-214.8745 1287.8812,-214.8745 1287.8812,-214.8745 1292.1311,-214.8745 1296.381,-219.1244 1296.381,-223.3743 1296.381,-223.3743 1296.381,-231.8742 1296.381,-231.8742 1296.381,-236.1241 1292.1311,-240.374 1287.8812,-240.374"/>
<text text-anchor="middle" x="1166.4309" y="-224.2485" font-family="Arial" font-size="15.00" fill="#c6c5fe">../externalInterface/api/http/me/me.ts</text>
</g>
<!-- ../externalInterface/api/http/me/index.ts&#45;&gt;../externalInterface/api/http/me/me.ts -->
<g id="edge4" class="edge">
<title>../externalInterface/api/http/me/index.ts&#45;&gt;../externalInterface/api/http/me/me.ts</title>
<path fill="none" stroke="#757575" d="M1000.7678,-227.6243C1009.32,-227.6243 1017.933,-227.6243 1026.4965,-227.6243"/>
<polygon fill="#757575" stroke="#757575" points="1026.52,-231.1244 1036.5199,-227.6243 1026.5199,-224.1244 1026.52,-231.1244"/>
</g>
<!-- ../externalInterface/api/http/me/me.ts&#45;&gt;../externalInterface/api/http/client/index.ts -->
<g id="edge5" class="edge">
<title>../externalInterface/api/http/me/me.ts&#45;&gt;../externalInterface/api/http/client/index.ts</title>
<path fill="none" stroke="#757575" d="M1296.5726,-236.8586C1305.0295,-237.4587 1313.5878,-238.066 1322.1434,-238.673"/>
<polygon fill="#757575" stroke="#757575" points="1321.9567,-242.1685 1332.1793,-239.3851 1322.4522,-235.186 1321.9567,-242.1685"/>
</g>
<!-- ../externalInterface/api/http/me/me.ts&#45;&gt;../externalInterface/api/http/client/util.ts -->
<g id="edge6" class="edge">
<title>../externalInterface/api/http/me/me.ts&#45;&gt;../externalInterface/api/http/client/util.ts</title>
<path fill="none" stroke="#757575" d="M1296.5726,-218.8097C1307.6111,-218.062 1318.8224,-217.3027 1329.9748,-216.5473"/>
<polygon fill="#757575" stroke="#757575" points="1330.453,-220.023 1340.1936,-215.8552 1329.9799,-213.039 1330.453,-220.023"/>
</g>
<!-- ../gateway/me/index.ts -->
<g id="node9" class="node">
<title>../gateway/me/index.ts</title>
<path fill="none" stroke="#c6c5fe" d="M381.4127,-240.374C381.4127,-240.374 232.9355,-240.374 232.9355,-240.374 228.6855,-240.374 224.4356,-236.1241 224.4356,-231.8742 224.4356,-231.8742 224.4356,-223.3743 224.4356,-223.3743 224.4356,-219.1244 228.6855,-214.8745 232.9355,-214.8745 232.9355,-214.8745 381.4127,-214.8745 381.4127,-214.8745 385.6626,-214.8745 389.9125,-219.1244 389.9125,-223.3743 389.9125,-223.3743 389.9125,-231.8742 389.9125,-231.8742 389.9125,-236.1241 385.6626,-240.374 381.4127,-240.374"/>
<text text-anchor="middle" x="307.1741" y="-224.2485" font-family="Arial" font-size="15.00" fill="#c6c5fe">../gateway/me/index.ts</text>
</g>
<!-- ../gateway/me/me.ts -->
<g id="node10" class="node">
<title>../gateway/me/me.ts</title>
<path fill="none" stroke="#c6c5fe" d="M676.4193,-240.374C676.4193,-240.374 542.986,-240.374 542.986,-240.374 538.7361,-240.374 534.4862,-236.1241 534.4862,-231.8742 534.4862,-231.8742 534.4862,-223.3743 534.4862,-223.3743 534.4862,-219.1244 538.7361,-214.8745 542.986,-214.8745 542.986,-214.8745 676.4193,-214.8745 676.4193,-214.8745 680.6692,-214.8745 684.9191,-219.1244 684.9191,-223.3743 684.9191,-223.3743 684.9191,-231.8742 684.9191,-231.8742 684.9191,-236.1241 680.6692,-240.374 676.4193,-240.374"/>
<text text-anchor="middle" x="609.7026" y="-224.2485" font-family="Arial" font-size="15.00" fill="#c6c5fe">../gateway/me/me.ts</text>
</g>
<!-- ../gateway/me/index.ts&#45;&gt;../gateway/me/me.ts -->
<g id="edge7" class="edge">
<title>../gateway/me/index.ts&#45;&gt;../gateway/me/me.ts</title>
<path fill="none" stroke="#757575" d="M389.8413,-227.6243C431.5397,-227.6243 482.0614,-227.6243 524.1551,-227.6243"/>
<polygon fill="#757575" stroke="#757575" points="524.3857,-231.1244 534.3857,-227.6243 524.3856,-224.1244 524.3857,-231.1244"/>
</g>
<!-- ../gateway/me/me.ts&#45;&gt;../externalInterface/api/http/me/index.ts -->
<g id="edge8" class="edge">
<title>../gateway/me/me.ts&#45;&gt;../externalInterface/api/http/me/index.ts</title>
<path fill="none" stroke="#757575" d="M684.8113,-227.6243C694.6685,-227.6243 705.029,-227.6243 715.5891,-227.6243"/>
<polygon fill="#757575" stroke="#757575" points="715.765,-231.1244 725.765,-227.6243 715.7649,-224.1244 715.765,-231.1244"/>
</g>
<!-- ../presenter/components/ecosystem/Me/Content.tsx -->
<g id="node11" class="node">
<title>../presenter/components/ecosystem/Me/Content.tsx</title>
<path fill="none" stroke="#c6c5fe" d="M477.8306,-197.374C477.8306,-197.374 136.5175,-197.374 136.5175,-197.374 132.2676,-197.374 128.0177,-193.1241 128.0177,-188.8742 128.0177,-188.8742 128.0177,-180.3743 128.0177,-180.3743 128.0177,-176.1244 132.2676,-171.8745 136.5175,-171.8745 136.5175,-171.8745 477.8306,-171.8745 477.8306,-171.8745 482.0806,-171.8745 486.3305,-176.1244 486.3305,-180.3743 486.3305,-180.3743 486.3305,-188.8742 486.3305,-188.8742 486.3305,-193.1241 482.0806,-197.374 477.8306,-197.374"/>
<text text-anchor="middle" x="307.1741" y="-181.2485" font-family="Arial" font-size="15.00" fill="#c6c5fe">../presenter/components/ecosystem/Me/Content.tsx</text>
</g>
<!-- ../useCase/me/type.ts -->
<g id="node12" class="node">
<title>../useCase/me/type.ts</title>
<path fill="none" stroke="#cfffac" d="M681.7663,-197.374C681.7663,-197.374 537.639,-197.374 537.639,-197.374 533.3891,-197.374 529.1391,-193.1241 529.1391,-188.8742 529.1391,-188.8742 529.1391,-180.3743 529.1391,-180.3743 529.1391,-176.1244 533.3891,-171.8745 537.639,-171.8745 537.639,-171.8745 681.7663,-171.8745 681.7663,-171.8745 686.0162,-171.8745 690.2661,-176.1244 690.2661,-180.3743 690.2661,-180.3743 690.2661,-188.8742 690.2661,-188.8742 690.2661,-193.1241 686.0162,-197.374 681.7663,-197.374"/>
<text text-anchor="middle" x="609.7026" y="-181.2485" font-family="Arial" font-size="15.00" fill="#cfffac">../useCase/me/type.ts</text>
</g>
<!-- ../presenter/components/ecosystem/Me/Content.tsx&#45;&gt;../useCase/me/type.ts -->
<g id="edge9" class="edge">
<title>../presenter/components/ecosystem/Me/Content.tsx&#45;&gt;../useCase/me/type.ts</title>
<path fill="none" stroke="#757575" d="M486.6527,-184.6243C497.6267,-184.6243 508.3952,-184.6243 518.7162,-184.6243"/>
<polygon fill="#757575" stroke="#757575" points="518.879,-188.1244 528.879,-184.6243 518.8789,-181.1244 518.879,-188.1244"/>
</g>
<!-- ../presenter/components/ecosystem/Me/Exception.tsx -->
<g id="node13" class="node">
<title>../presenter/components/ecosystem/Me/Exception.tsx</title>
<path fill="none" stroke="#cfffac" d="M484.6679,-154.374C484.6679,-154.374 129.6803,-154.374 129.6803,-154.374 125.4303,-154.374 121.1804,-150.1241 121.1804,-145.8742 121.1804,-145.8742 121.1804,-137.3743 121.1804,-137.3743 121.1804,-133.1244 125.4303,-128.8745 129.6803,-128.8745 129.6803,-128.8745 484.6679,-128.8745 484.6679,-128.8745 488.9178,-128.8745 493.1677,-133.1244 493.1677,-137.3743 493.1677,-137.3743 493.1677,-145.8742 493.1677,-145.8742 493.1677,-150.1241 488.9178,-154.374 484.6679,-154.374"/>
<text text-anchor="middle" x="307.1741" y="-138.2485" font-family="Arial" font-size="15.00" fill="#cfffac">../presenter/components/ecosystem/Me/Exception.tsx</text>
</g>
<!-- ../presenter/hooks/useReRender.ts -->
<g id="node14" class="node">
<title>../presenter/hooks/useReRender.ts</title>
<path fill="none" stroke="#cfffac" d="M422.4712,-111.374C422.4712,-111.374 191.877,-111.374 191.877,-111.374 187.627,-111.374 183.3771,-107.1241 183.3771,-102.8742 183.3771,-102.8742 183.3771,-94.3743 183.3771,-94.3743 183.3771,-90.1244 187.627,-85.8745 191.877,-85.8745 191.877,-85.8745 422.4712,-85.8745 422.4712,-85.8745 426.7211,-85.8745 430.971,-90.1244 430.971,-94.3743 430.971,-94.3743 430.971,-102.8742 430.971,-102.8742 430.971,-107.1241 426.7211,-111.374 422.4712,-111.374"/>
<text text-anchor="middle" x="307.1741" y="-95.2485" font-family="Arial" font-size="15.00" fill="#cfffac">../presenter/hooks/useReRender.ts</text>
</g>
<!-- ../useCase/me/interactor.ts -->
<g id="node15" class="node">
<title>../useCase/me/interactor.ts</title>
<path fill="none" stroke="#c6c5fe" d="M396.0853,-68.374C396.0853,-68.374 218.2628,-68.374 218.2628,-68.374 214.0129,-68.374 209.763,-64.1241 209.763,-59.8742 209.763,-59.8742 209.763,-51.3743 209.763,-51.3743 209.763,-47.1244 214.0129,-42.8745 218.2628,-42.8745 218.2628,-42.8745 396.0853,-42.8745 396.0853,-42.8745 400.3352,-42.8745 404.5852,-47.1244 404.5852,-51.3743 404.5852,-51.3743 404.5852,-59.8742 404.5852,-59.8742 404.5852,-64.1241 400.3352,-68.374 396.0853,-68.374"/>
<text text-anchor="middle" x="307.1741" y="-52.2485" font-family="Arial" font-size="15.00" fill="#c6c5fe">../useCase/me/interactor.ts</text>
</g>
<!-- ../useCase/me/interactor.ts&#45;&gt;../domain/me/index.ts -->
<g id="edge10" class="edge">
<title>../useCase/me/interactor.ts&#45;&gt;../domain/me/index.ts</title>
<path fill="none" stroke="#757575" d="M404.5613,-55.6243C441.6649,-55.6243 483.7434,-55.6243 520.0916,-55.6243"/>
<polygon fill="#757575" stroke="#757575" points="520.1829,-59.1244 530.1828,-55.6243 520.1828,-52.1244 520.1829,-59.1244"/>
</g>
<!-- ../useCase/me/useMe.ts -->
<g id="node16" class="node">
<title>../useCase/me/useMe.ts</title>
<path fill="none" stroke="#cfffac" d="M387.4078,-25.374C387.4078,-25.374 226.9403,-25.374 226.9403,-25.374 222.6904,-25.374 218.4405,-21.1241 218.4405,-16.8742 218.4405,-16.8742 218.4405,-8.3743 218.4405,-8.3743 218.4405,-4.1244 222.6904,.1255 226.9403,.1255 226.9403,.1255 387.4078,.1255 387.4078,.1255 391.6577,.1255 395.9077,-4.1244 395.9077,-8.3743 395.9077,-8.3743 395.9077,-16.8742 395.9077,-16.8742 395.9077,-21.1241 391.6577,-25.374 387.4078,-25.374"/>
<text text-anchor="middle" x="307.1741" y="-9.2485" font-family="Arial" font-size="15.00" fill="#cfffac">../useCase/me/useMe.ts</text>
</g>
<!-- me/me.tsx -->
<g id="node17" class="node">
<title>me/me.tsx</title>
<path fill="none" stroke="#c6c5fe" d="M76.7662,-132.374C76.7662,-132.374 8.411,-132.374 8.411,-132.374 4.1611,-132.374 -.0888,-128.1241 -.0888,-123.8742 -.0888,-123.8742 -.0888,-115.3743 -.0888,-115.3743 -.0888,-111.1244 4.1611,-106.8745 8.411,-106.8745 8.411,-106.8745 76.7662,-106.8745 76.7662,-106.8745 81.0161,-106.8745 85.2661,-111.1244 85.2661,-115.3743 85.2661,-115.3743 85.2661,-123.8742 85.2661,-123.8742 85.2661,-128.1241 81.0161,-132.374 76.7662,-132.374"/>
<text text-anchor="middle" x="42.5886" y="-116.2485" font-family="Arial" font-size="15.00" fill="#c6c5fe">me/me.tsx</text>
</g>
<!-- me/me.tsx&#45;&gt;../gateway/me/index.ts -->
<g id="edge11" class="edge">
<title>me/me.tsx&#45;&gt;../gateway/me/index.ts</title>
<path fill="none" stroke="#757575" d="M49.8349,-132.3398C61.8371,-152.0587 87.8597,-189.5199 121.1772,-206.6243 149.3581,-221.0916 183.0461,-227.586 213.9611,-230.0817"/>
<polygon fill="#757575" stroke="#757575" points="214.1143,-233.5999 224.3271,-230.7805 214.5852,-226.6158 214.1143,-233.5999"/>
</g>
<!-- me/me.tsx&#45;&gt;../presenter/components/ecosystem/Me/Content.tsx -->
<g id="edge12" class="edge">
<title>me/me.tsx&#45;&gt;../presenter/components/ecosystem/Me/Content.tsx</title>
<path fill="none" stroke="#757575" d="M60.3684,-132.3118C75.7065,-142.5666 98.8503,-156.4376 121.1772,-163.6243 128.0889,-165.849 135.2109,-167.8454 142.454,-169.6363"/>
<polygon fill="#757575" stroke="#757575" points="141.8641,-173.0926 152.3975,-171.9533 143.4527,-166.2752 141.8641,-173.0926"/>
</g>
<!-- me/me.tsx&#45;&gt;../presenter/components/ecosystem/Me/Exception.tsx -->
<g id="edge13" class="edge">
<title>me/me.tsx&#45;&gt;../presenter/components/ecosystem/Me/Exception.tsx</title>
<path fill="none" stroke="#757575" d="M85.3929,-123.1834C102.3884,-124.5966 123.0934,-126.3182 144.9486,-128.1354"/>
<polygon fill="#757575" stroke="#757575" points="144.8063,-131.6355 155.0619,-128.9763 145.3864,-124.6596 144.8063,-131.6355"/>
</g>
<!-- me/me.tsx&#45;&gt;../presenter/hooks/useReRender.ts -->
<g id="edge14" class="edge">
<title>me/me.tsx&#45;&gt;../presenter/hooks/useReRender.ts</title>
<path fill="none" stroke="#757575" d="M85.3929,-116.2269C109.5441,-114.31 141.1861,-111.7986 172.9748,-109.2756"/>
<polygon fill="#757575" stroke="#757575" points="173.6,-112.7371 183.2917,-108.4567 173.0461,-105.759 173.6,-112.7371"/>
</g>
<!-- me/me.tsx&#45;&gt;../useCase/me/interactor.ts -->
<g id="edge15" class="edge">
<title>me/me.tsx&#45;&gt;../useCase/me/interactor.ts</title>
<path fill="none" stroke="#757575" d="M61.0311,-106.831C76.3947,-96.8568 99.2323,-83.5702 121.1772,-76.6243 145.9297,-68.7897 173.3481,-63.7998 199.3577,-60.6423"/>
<polygon fill="#757575" stroke="#757575" points="200.0886,-64.082 209.6315,-59.4793 199.3012,-57.1264 200.0886,-64.082"/>
</g>
<!-- me/me.tsx&#45;&gt;../useCase/me/useMe.ts -->
<g id="edge16" class="edge">
<title>me/me.tsx&#45;&gt;../useCase/me/useMe.ts</title>
<path fill="none" stroke="#757575" d="M50.071,-106.7339C62.2118,-87.1569 88.2014,-50.4335 121.1772,-33.6243 147.5935,-20.1587 178.807,-13.6241 208.0423,-10.7905"/>
<polygon fill="#757575" stroke="#757575" points="208.6145,-14.255 218.2896,-9.9372 208.0336,-7.2792 208.6145,-14.255"/>
</g>
</g>
</svg>
