<?xml version="1.0" encoding="UTF-8" standalone="no"?>
<!DOCTYPE svg PUBLIC "-//W3C//DTD SVG 1.1//EN"
 "http://www.w3.org/Graphics/SVG/1.1/DTD/svg11.dtd">
<!-- Generated by graphviz version 2.40.1 (20161225.0304)
 -->
<!-- Title: G Pages: 1 -->
<svg width="1557pt" height="226pt"
 viewBox="0.00 0.00 1556.73 226.14" xmlns="http://www.w3.org/2000/svg" xmlns:xlink="http://www.w3.org/1999/xlink">
<g id="graph0" class="graph" transform="scale(1 1) rotate(0) translate(21.6 204.5443)">
<title>G</title>
<polygon fill="#111111" stroke="transparent" points="-21.6,21.6 -21.6,-204.5443 1535.1273,-204.5443 1535.1273,21.6 -21.6,21.6"/>
<!-- ../domain/me/index.ts -->
<g id="node1" class="node">
<title>../domain/me/index.ts</title>
<path fill="none" stroke="#c6c5fe" d="M989.7905,-183.0698C989.7905,-183.0698 848.6572,-183.0698 848.6572,-183.0698 844.4073,-183.0698 840.1574,-178.8198 840.1574,-174.5699 840.1574,-174.5699 840.1574,-166.0701 840.1574,-166.0701 840.1574,-161.8201 844.4073,-157.5702 848.6572,-157.5702 848.6572,-157.5702 989.7905,-157.5702 989.7905,-157.5702 994.0405,-157.5702 998.2904,-161.8201 998.2904,-166.0701 998.2904,-166.0701 998.2904,-174.5699 998.2904,-174.5699 998.2904,-178.8198 994.0405,-183.0698 989.7905,-183.0698"/>
<text text-anchor="middle" x="919.2239" y="-166.9443" font-family="Arial" font-size="15.00" fill="#c6c5fe">../domain/me/index.ts</text>
</g>
<!-- ../domain/me/me.ts -->
<g id="node2" class="node">
<title>../domain/me/me.ts</title>
<path fill="none" stroke="#cfffac" d="M1296.8895,-183.0698C1296.8895,-183.0698 1170.7999,-183.0698 1170.7999,-183.0698 1166.55,-183.0698 1162.3001,-178.8198 1162.3001,-174.5699 1162.3001,-174.5699 1162.3001,-166.0701 1162.3001,-166.0701 1162.3001,-161.8201 1166.55,-157.5702 1170.7999,-157.5702 1170.7999,-157.5702 1296.8895,-157.5702 1296.8895,-157.5702 1301.1395,-157.5702 1305.3894,-161.8201 1305.3894,-166.0701 1305.3894,-166.0701 1305.3894,-174.5699 1305.3894,-174.5699 1305.3894,-178.8198 1301.1395,-183.0698 1296.8895,-183.0698"/>
<text text-anchor="middle" x="1233.8447" y="-166.9443" font-family="Arial" font-size="15.00" fill="#cfffac">../domain/me/me.ts</text>
</g>
<!-- ../domain/me/index.ts&#45;&gt;../domain/me/me.ts -->
<g id="edge1" class="edge">
<title>../domain/me/index.ts&#45;&gt;../domain/me/me.ts</title>
<path fill="none" stroke="#757575" d="M998.616,-170.32C1045.5089,-170.32 1104.76,-170.32 1152.0639,-170.32"/>
<polygon fill="#757575" stroke="#757575" points="1152.2741,-173.8201 1162.2741,-170.32 1152.2741,-166.8201 1152.2741,-173.8201"/>
</g>
<!-- ../domain/me/type.ts -->
<g id="node3" class="node">
<title>../domain/me/type.ts</title>
<path fill="none" stroke="#cfffac" d="M1505.0568,-120.0698C1505.0568,-120.0698 1370.9393,-120.0698 1370.9393,-120.0698 1366.6894,-120.0698 1362.4394,-115.8198 1362.4394,-111.5699 1362.4394,-111.5699 1362.4394,-103.0701 1362.4394,-103.0701 1362.4394,-98.8201 1366.6894,-94.5702 1370.9393,-94.5702 1370.9393,-94.5702 1505.0568,-94.5702 1505.0568,-94.5702 1509.3067,-94.5702 1513.5567,-98.8201 1513.5567,-103.0701 1513.5567,-103.0701 1513.5567,-111.5699 1513.5567,-111.5699 1513.5567,-115.8198 1509.3067,-120.0698 1505.0568,-120.0698"/>
<text text-anchor="middle" x="1437.998" y="-103.9443" font-family="Arial" font-size="15.00" fill="#cfffac">../domain/me/type.ts</text>
</g>
<!-- ../domain/me/index.ts&#45;&gt;../domain/me/type.ts -->
<g id="edge2" class="edge">
<title>../domain/me/index.ts&#45;&gt;../domain/me/type.ts</title>
<path fill="none" stroke="#757575" d="M998.4431,-161.6075C1031.4675,-157.9153 1070.2115,-153.5054 1105.2207,-149.32 1189.2289,-139.2766 1285.0702,-127.1049 1352.2534,-118.4557"/>
<polygon fill="#757575" stroke="#757575" points="1352.8972,-121.9017 1362.3678,-117.1523 1352.0025,-114.9592 1352.8972,-121.9017"/>
</g>
<!-- ../presenter/components/ecosystem/Me/Content.tsx -->
<g id="node4" class="node">
<title>../presenter/components/ecosystem/Me/Content.tsx</title>
<path fill="none" stroke="#c6c5fe" d="M1089.8804,-140.0698C1089.8804,-140.0698 748.5673,-140.0698 748.5673,-140.0698 744.3174,-140.0698 740.0675,-135.8198 740.0675,-131.5699 740.0675,-131.5699 740.0675,-123.0701 740.0675,-123.0701 740.0675,-118.8201 744.3174,-114.5702 748.5673,-114.5702 748.5673,-114.5702 1089.8804,-114.5702 1089.8804,-114.5702 1094.1304,-114.5702 1098.3803,-118.8201 1098.3803,-123.0701 1098.3803,-123.0701 1098.3803,-131.5699 1098.3803,-131.5699 1098.3803,-135.8198 1094.1304,-140.0698 1089.8804,-140.0698"/>
<text text-anchor="middle" x="919.2239" y="-123.9443" font-family="Arial" font-size="15.00" fill="#c6c5fe">../presenter/components/ecosystem/Me/Content.tsx</text>
</g>
<!-- ../useCase/useMe/type.ts -->
<g id="node5" class="node">
<title>../useCase/useMe/type.ts</title>
<path fill="none" stroke="#c6c5fe" d="M1318.0931,-100.0698C1318.0931,-100.0698 1149.5964,-100.0698 1149.5964,-100.0698 1145.3464,-100.0698 1141.0965,-95.8198 1141.0965,-91.5699 1141.0965,-91.5699 1141.0965,-83.0701 1141.0965,-83.0701 1141.0965,-78.8201 1145.3464,-74.5702 1149.5964,-74.5702 1149.5964,-74.5702 1318.0931,-74.5702 1318.0931,-74.5702 1322.343,-74.5702 1326.5929,-78.8201 1326.5929,-83.0701 1326.5929,-83.0701 1326.5929,-91.5699 1326.5929,-91.5699 1326.5929,-95.8198 1322.343,-100.0698 1318.0931,-100.0698"/>
<text text-anchor="middle" x="1233.8447" y="-83.9443" font-family="Arial" font-size="15.00" fill="#c6c5fe">../useCase/useMe/type.ts</text>
</g>
<!-- ../presenter/components/ecosystem/Me/Content.tsx&#45;&gt;../useCase/useMe/type.ts -->
<g id="edge3" class="edge">
<title>../presenter/components/ecosystem/Me/Content.tsx&#45;&gt;../useCase/useMe/type.ts</title>
<path fill="none" stroke="#757575" d="M1018.7719,-114.6637C1054.5629,-110.1134 1094.9864,-104.974 1131.0485,-100.3892"/>
<polygon fill="#757575" stroke="#757575" points="1131.618,-103.8451 1141.0967,-99.1117 1130.7351,-96.901 1131.618,-103.8451"/>
</g>
<!-- ../useCase/useMe/type.ts&#45;&gt;../domain/me/type.ts -->
<g id="edge10" class="edge">
<title>../useCase/useMe/type.ts&#45;&gt;../domain/me/type.ts</title>
<path fill="none" stroke="#757575" d="M1326.6621,-96.4129C1335.124,-97.2419 1343.6716,-98.0792 1352.0695,-98.902"/>
<polygon fill="#757575" stroke="#757575" points="1351.9295,-102.4049 1362.2231,-99.8967 1352.612,-95.4383 1351.9295,-102.4049"/>
</g>
<!-- ../presenter/components/ecosystem/Me/Exception.tsx -->
<g id="node6" class="node">
<title>../presenter/components/ecosystem/Me/Exception.tsx</title>
<path fill="none" stroke="#cfffac" d="M1096.7177,-58.0698C1096.7177,-58.0698 741.7301,-58.0698 741.7301,-58.0698 737.4801,-58.0698 733.2302,-53.8198 733.2302,-49.5699 733.2302,-49.5699 733.2302,-41.0701 733.2302,-41.0701 733.2302,-36.8201 737.4801,-32.5702 741.7301,-32.5702 741.7301,-32.5702 1096.7177,-32.5702 1096.7177,-32.5702 1100.9676,-32.5702 1105.2175,-36.8201 1105.2175,-41.0701 1105.2175,-41.0701 1105.2175,-49.5699 1105.2175,-49.5699 1105.2175,-53.8198 1100.9676,-58.0698 1096.7177,-58.0698"/>
<text text-anchor="middle" x="919.2239" y="-41.9443" font-family="Arial" font-size="15.00" fill="#cfffac">../presenter/components/ecosystem/Me/Exception.tsx</text>
</g>
<!-- ../useCase/useMe/index.ts -->
<g id="node7" class="node">
<title>../useCase/useMe/index.ts</title>
<path fill="none" stroke="#c6c5fe" d="M426.5098,-58.0698C426.5098,-58.0698 250.9985,-58.0698 250.9985,-58.0698 246.7485,-58.0698 242.4986,-53.8198 242.4986,-49.5699 242.4986,-49.5699 242.4986,-41.0701 242.4986,-41.0701 242.4986,-36.8201 246.7485,-32.5702 250.9985,-32.5702 250.9985,-32.5702 426.5098,-32.5702 426.5098,-32.5702 430.7598,-32.5702 435.0097,-36.8201 435.0097,-41.0701 435.0097,-41.0701 435.0097,-49.5699 435.0097,-49.5699 435.0097,-53.8198 430.7598,-58.0698 426.5098,-58.0698"/>
<text text-anchor="middle" x="338.7542" y="-41.9443" font-family="Arial" font-size="15.00" fill="#c6c5fe">../useCase/useMe/index.ts</text>
</g>
<!-- ../useCase/useMe/interactor.tsx -->
<g id="node8" class="node">
<title>../useCase/useMe/interactor.tsx</title>
<path fill="none" stroke="#c6c5fe" d="M688.7748,-99.0698C688.7748,-99.0698 479.5841,-99.0698 479.5841,-99.0698 475.3341,-99.0698 471.0842,-94.8198 471.0842,-90.5699 471.0842,-90.5699 471.0842,-82.0701 471.0842,-82.0701 471.0842,-77.8201 475.3341,-73.5702 479.5841,-73.5702 479.5841,-73.5702 688.7748,-73.5702 688.7748,-73.5702 693.0248,-73.5702 697.2747,-77.8201 697.2747,-82.0701 697.2747,-82.0701 697.2747,-90.5699 697.2747,-90.5699 697.2747,-94.8198 693.0248,-99.0698 688.7748,-99.0698"/>
<text text-anchor="middle" x="584.1794" y="-82.9443" font-family="Arial" font-size="15.00" fill="#c6c5fe">../useCase/useMe/interactor.tsx</text>
</g>
<!-- ../useCase/useMe/index.ts&#45;&gt;../useCase/useMe/interactor.tsx -->
<g id="edge4" class="edge">
<title>../useCase/useMe/index.ts&#45;&gt;../useCase/useMe/interactor.tsx</title>
<path fill="none" stroke="#757575" d="M414.3924,-57.9559C440.9854,-62.3984 471.0549,-67.4217 498.4203,-71.9933"/>
<polygon fill="#757575" stroke="#757575" points="497.9284,-75.4596 508.3684,-73.6552 499.0819,-68.5553 497.9284,-75.4596"/>
</g>
<!-- ../useCase/useMe/useMe.ts -->
<g id="node9" class="node">
<title>../useCase/useMe/useMe.ts</title>
<path fill="none" stroke="#c6c5fe" d="M676.5976,-37.0698C676.5976,-37.0698 491.7613,-37.0698 491.7613,-37.0698 487.5114,-37.0698 483.2615,-32.8198 483.2615,-28.5699 483.2615,-28.5699 483.2615,-20.0701 483.2615,-20.0701 483.2615,-15.8201 487.5114,-11.5702 491.7613,-11.5702 491.7613,-11.5702 676.5976,-11.5702 676.5976,-11.5702 680.8475,-11.5702 685.0974,-15.8201 685.0974,-20.0701 685.0974,-20.0701 685.0974,-28.5699 685.0974,-28.5699 685.0974,-32.8198 680.8475,-37.0698 676.5976,-37.0698"/>
<text text-anchor="middle" x="584.1794" y="-20.9443" font-family="Arial" font-size="15.00" fill="#c6c5fe">../useCase/useMe/useMe.ts</text>
</g>
<!-- ../useCase/useMe/index.ts&#45;&gt;../useCase/useMe/useMe.ts -->
<g id="edge5" class="edge">
<title>../useCase/useMe/index.ts&#45;&gt;../useCase/useMe/useMe.ts</title>
<path fill="none" stroke="#757575" d="M435.0483,-37.0805C447.4462,-36.0197 460.2217,-34.9265 472.8356,-33.8472"/>
<polygon fill="#757575" stroke="#757575" points="473.2416,-37.3254 482.9068,-32.9855 472.6448,-30.3508 473.2416,-37.3254"/>
</g>
<!-- ../useCase/useMe/interactor.tsx&#45;&gt;../domain/me/index.ts -->
<g id="edge6" class="edge">
<title>../useCase/useMe/interactor.tsx&#45;&gt;../domain/me/index.ts</title>
<path fill="none" stroke="#757575" d="M608.2083,-99.0348C637.0546,-113.6879 687.2993,-137.2905 733.2271,-149.32 764.1533,-157.4203 798.7783,-162.3961 829.6919,-165.4526"/>
<polygon fill="#757575" stroke="#757575" points="829.7406,-168.9723 840.0227,-166.4173 830.3915,-162.0026 829.7406,-168.9723"/>
</g>
<!-- ../useCase/useMe/interactor.tsx&#45;&gt;../presenter/components/ecosystem/Me/Content.tsx -->
<g id="edge7" class="edge">
<title>../useCase/useMe/interactor.tsx&#45;&gt;../presenter/components/ecosystem/Me/Content.tsx</title>
<path fill="none" stroke="#757575" d="M687.4377,-98.9559C724.9442,-103.5456 767.5163,-108.7553 805.8498,-113.4462"/>
<polygon fill="#757575" stroke="#757575" points="805.6672,-116.9499 816.0183,-114.6905 806.5175,-110.0017 805.6672,-116.9499"/>
</g>
<!-- ../useCase/useMe/interactor.tsx&#45;&gt;../useCase/useMe/type.ts -->
<g id="edge9" class="edge">
<title>../useCase/useMe/interactor.tsx&#45;&gt;../useCase/useMe/type.ts</title>
<path fill="none" stroke="#757575" d="M697.3425,-86.4942C819.654,-86.6824 1012.8829,-86.9799 1131.0125,-87.1617"/>
<polygon fill="#757575" stroke="#757575" points="1131.1411,-90.6618 1141.1465,-87.1773 1131.1519,-83.6618 1131.1411,-90.6618"/>
</g>
<!-- ../useCase/useMe/interactor.tsx&#45;&gt;../presenter/components/ecosystem/Me/Exception.tsx -->
<g id="edge8" class="edge">
<title>../useCase/useMe/interactor.tsx&#45;&gt;../presenter/components/ecosystem/Me/Exception.tsx</title>
<path fill="none" stroke="#757575" d="M687.4377,-73.6841C724.9442,-69.0944 767.5163,-63.8847 805.8498,-59.1938"/>
<polygon fill="#757575" stroke="#757575" points="806.5175,-62.6383 816.0183,-57.9494 805.6672,-55.6901 806.5175,-62.6383"/>
</g>
<!-- ../useCase/useMe/useMe.ts&#45;&gt;../useCase/useMe/type.ts -->
<g id="edge11" class="edge">
<title>../useCase/useMe/useMe.ts&#45;&gt;../useCase/useMe/type.ts</title>
<path fill="none" stroke="#757575" d="M674.5823,-11.6673C779.649,.1886 957.5017,11.4003 1105.2207,-23.32 1142.6316,-32.1132 1181.603,-53.5053 1206.7047,-69.1454"/>
<polygon fill="#757575" stroke="#757575" points="1204.9809,-72.197 1215.2965,-74.6133 1208.7392,-66.2914 1204.9809,-72.197"/>
</g>
<!-- me/index.ts -->
<g id="node10" class="node">
<title>me/index.ts</title>
<path fill="none" stroke="#c6c5fe" d="M84.0495,-58.0698C84.0495,-58.0698 8.6498,-58.0698 8.6498,-58.0698 4.3998,-58.0698 .1499,-53.8198 .1499,-49.5699 .1499,-49.5699 .1499,-41.0701 .1499,-41.0701 .1499,-36.8201 4.3998,-32.5702 8.6498,-32.5702 8.6498,-32.5702 84.0495,-32.5702 84.0495,-32.5702 88.2994,-32.5702 92.5493,-36.8201 92.5493,-41.0701 92.5493,-41.0701 92.5493,-49.5699 92.5493,-49.5699 92.5493,-53.8198 88.2994,-58.0698 84.0495,-58.0698"/>
<text text-anchor="middle" x="46.3496" y="-41.9443" font-family="Arial" font-size="15.00" fill="#c6c5fe">me/index.ts</text>
</g>
<!-- me/me.ts -->
<g id="node11" class="node">
<title>me/me.ts</title>
<path fill="none" stroke="#c6c5fe" d="M197.7159,-58.0698C197.7159,-58.0698 137.3598,-58.0698 137.3598,-58.0698 133.1099,-58.0698 128.8599,-53.8198 128.8599,-49.5699 128.8599,-49.5699 128.8599,-41.0701 128.8599,-41.0701 128.8599,-36.8201 133.1099,-32.5702 137.3598,-32.5702 137.3598,-32.5702 197.7159,-32.5702 197.7159,-32.5702 201.9658,-32.5702 206.2158,-36.8201 206.2158,-41.0701 206.2158,-41.0701 206.2158,-49.5699 206.2158,-49.5699 206.2158,-53.8198 201.9658,-58.0698 197.7159,-58.0698"/>
<text text-anchor="middle" x="167.5378" y="-41.9443" font-family="Arial" font-size="15.00" fill="#c6c5fe">me/me.ts</text>
</g>
<!-- me/index.ts&#45;&gt;me/me.ts -->
<g id="edge12" class="edge">
<title>me/index.ts&#45;&gt;me/me.ts</title>
<path fill="none" stroke="#757575" d="M92.8576,-45.32C101.3045,-45.32 110.138,-45.32 118.6511,-45.32"/>
<polygon fill="#757575" stroke="#757575" points="118.8287,-48.8201 128.8287,-45.32 118.8286,-41.8201 118.8287,-48.8201"/>
</g>
<!-- me/me.ts&#45;&gt;../useCase/useMe/index.ts -->
<g id="edge13" class="edge">
<title>me/me.ts&#45;&gt;../useCase/useMe/index.ts</title>
<path fill="none" stroke="#757575" d="M206.3895,-45.32C214.2749,-45.32 222.9238,-45.32 231.9056,-45.32"/>
<polygon fill="#757575" stroke="#757575" points="232.165,-48.8201 242.165,-45.32 232.1649,-41.8201 232.165,-48.8201"/>
</g>
</g>
</svg>
