<?xml version="1.0" encoding="UTF-8" standalone="no"?>
<!DOCTYPE svg PUBLIC "-//W3C//DTD SVG 1.1//EN"
 "http://www.w3.org/Graphics/SVG/1.1/DTD/svg11.dtd">
<!-- Generated by graphviz version 2.40.1 (20161225.0304)
 -->
<!-- Title: G Pages: 1 -->
<svg width="1979pt" height="260pt"
 viewBox="0.00 0.00 1978.63 260.45" xmlns="http://www.w3.org/2000/svg" xmlns:xlink="http://www.w3.org/1999/xlink">
<g id="graph0" class="graph" transform="scale(1 1) rotate(0) translate(21.6 238.8485)">
<title>G</title>
<polygon fill="#111111" stroke="transparent" points="-21.6,21.6 -21.6,-238.8485 1957.0316,-238.8485 1957.0316,21.6 -21.6,21.6"/>
<!-- ../domain/me/index.ts -->
<g id="node1" class="node">
<title>../domain/me/index.ts</title>
<path fill="none" stroke="#c6c5fe" d="M1240.3154,-66.374C1240.3154,-66.374 1099.1821,-66.374 1099.1821,-66.374 1094.9322,-66.374 1090.6823,-62.1241 1090.6823,-57.8742 1090.6823,-57.8742 1090.6823,-49.3743 1090.6823,-49.3743 1090.6823,-45.1244 1094.9322,-40.8745 1099.1821,-40.8745 1099.1821,-40.8745 1240.3154,-40.8745 1240.3154,-40.8745 1244.5654,-40.8745 1248.8153,-45.1244 1248.8153,-49.3743 1248.8153,-49.3743 1248.8153,-57.8742 1248.8153,-57.8742 1248.8153,-62.1241 1244.5654,-66.374 1240.3154,-66.374"/>
<text text-anchor="middle" x="1169.7488" y="-50.2485" font-family="Arial" font-size="15.00" fill="#c6c5fe">../domain/me/index.ts</text>
</g>
<!-- ../domain/me/me.ts -->
<g id="node2" class="node">
<title>../domain/me/me.ts</title>
<path fill="none" stroke="#cfffac" d="M1530.3417,-88.374C1530.3417,-88.374 1404.2521,-88.374 1404.2521,-88.374 1400.0021,-88.374 1395.7522,-84.1241 1395.7522,-79.8742 1395.7522,-79.8742 1395.7522,-71.3743 1395.7522,-71.3743 1395.7522,-67.1244 1400.0021,-62.8745 1404.2521,-62.8745 1404.2521,-62.8745 1530.3417,-62.8745 1530.3417,-62.8745 1534.5916,-62.8745 1538.8415,-67.1244 1538.8415,-71.3743 1538.8415,-71.3743 1538.8415,-79.8742 1538.8415,-79.8742 1538.8415,-84.1241 1534.5916,-88.374 1530.3417,-88.374"/>
<text text-anchor="middle" x="1467.2969" y="-72.2485" font-family="Arial" font-size="15.00" fill="#cfffac">../domain/me/me.ts</text>
</g>
<!-- ../domain/me/index.ts&#45;&gt;../domain/me/me.ts -->
<g id="edge1" class="edge">
<title>../domain/me/index.ts&#45;&gt;../domain/me/me.ts</title>
<path fill="none" stroke="#757575" d="M1249.0953,-59.491C1291.2512,-62.6079 1342.994,-66.4336 1385.5111,-69.5772"/>
<polygon fill="#757575" stroke="#757575" points="1385.3183,-73.0724 1395.5492,-70.3194 1385.8345,-66.0915 1385.3183,-73.0724"/>
</g>
<!-- ../domain/me/type.ts -->
<g id="node3" class="node">
<title>../domain/me/type.ts</title>
<path fill="none" stroke="#cfffac" d="M1534.3556,-45.374C1534.3556,-45.374 1400.2381,-45.374 1400.2381,-45.374 1395.9882,-45.374 1391.7383,-41.1241 1391.7383,-36.8742 1391.7383,-36.8742 1391.7383,-28.3743 1391.7383,-28.3743 1391.7383,-24.1244 1395.9882,-19.8745 1400.2381,-19.8745 1400.2381,-19.8745 1534.3556,-19.8745 1534.3556,-19.8745 1538.6056,-19.8745 1542.8555,-24.1244 1542.8555,-28.3743 1542.8555,-28.3743 1542.8555,-36.8742 1542.8555,-36.8742 1542.8555,-41.1241 1538.6056,-45.374 1534.3556,-45.374"/>
<text text-anchor="middle" x="1467.2969" y="-29.2485" font-family="Arial" font-size="15.00" fill="#cfffac">../domain/me/type.ts</text>
</g>
<!-- ../domain/me/index.ts&#45;&gt;../domain/me/type.ts -->
<g id="edge2" class="edge">
<title>../domain/me/index.ts&#45;&gt;../domain/me/type.ts</title>
<path fill="none" stroke="#757575" d="M1249.0953,-48.0242C1289.9695,-45.1395 1339.8563,-41.6186 1381.6078,-38.6719"/>
<polygon fill="#757575" stroke="#757575" points="1382.0311,-42.1509 1391.7598,-37.9554 1381.5382,-35.1682 1382.0311,-42.1509"/>
</g>
<!-- ../externalInterface/api/http/client/client.ts -->
<g id="node4" class="node">
<title>../externalInterface/api/http/client/client.ts</title>
<path fill="none" stroke="#cfffac" d="M1926.8364,-217.374C1926.8364,-217.374 1656.2178,-217.374 1656.2178,-217.374 1651.9679,-217.374 1647.718,-213.1241 1647.718,-208.8742 1647.718,-208.8742 1647.718,-200.3743 1647.718,-200.3743 1647.718,-196.1244 1651.9679,-191.8745 1656.2178,-191.8745 1656.2178,-191.8745 1926.8364,-191.8745 1926.8364,-191.8745 1931.0863,-191.8745 1935.3362,-196.1244 1935.3362,-200.3743 1935.3362,-200.3743 1935.3362,-208.8742 1935.3362,-208.8742 1935.3362,-213.1241 1931.0863,-217.374 1926.8364,-217.374"/>
<text text-anchor="middle" x="1791.5271" y="-201.2485" font-family="Arial" font-size="15.00" fill="#cfffac">../externalInterface/api/http/client/client.ts</text>
</g>
<!-- ../externalInterface/api/http/client/index.ts -->
<g id="node5" class="node">
<title>../externalInterface/api/http/client/index.ts</title>
<path fill="none" stroke="#c6c5fe" d="M1602.9486,-217.374C1602.9486,-217.374 1331.6451,-217.374 1331.6451,-217.374 1327.3952,-217.374 1323.1453,-213.1241 1323.1453,-208.8742 1323.1453,-208.8742 1323.1453,-200.3743 1323.1453,-200.3743 1323.1453,-196.1244 1327.3952,-191.8745 1331.6451,-191.8745 1331.6451,-191.8745 1602.9486,-191.8745 1602.9486,-191.8745 1607.1985,-191.8745 1611.4485,-196.1244 1611.4485,-200.3743 1611.4485,-200.3743 1611.4485,-208.8742 1611.4485,-208.8742 1611.4485,-213.1241 1607.1985,-217.374 1602.9486,-217.374"/>
<text text-anchor="middle" x="1467.2969" y="-201.2485" font-family="Arial" font-size="15.00" fill="#c6c5fe">../externalInterface/api/http/client/index.ts</text>
</g>
<!-- ../externalInterface/api/http/client/index.ts&#45;&gt;../externalInterface/api/http/client/client.ts -->
<g id="edge3" class="edge">
<title>../externalInterface/api/http/client/index.ts&#45;&gt;../externalInterface/api/http/client/client.ts</title>
<path fill="none" stroke="#757575" d="M1611.8696,-204.6243C1620.4265,-204.6243 1629.0494,-204.6243 1637.6414,-204.6243"/>
<polygon fill="#757575" stroke="#757575" points="1637.7077,-208.1244 1647.7077,-204.6243 1637.7077,-201.1244 1637.7077,-208.1244"/>
</g>
<!-- ../externalInterface/api/http/client/util.ts -->
<g id="node6" class="node">
<title>../externalInterface/api/http/client/util.ts</title>
<path fill="none" stroke="#cfffac" d="M1594.7638,-174.374C1594.7638,-174.374 1339.8299,-174.374 1339.8299,-174.374 1335.58,-174.374 1331.3301,-170.1241 1331.3301,-165.8742 1331.3301,-165.8742 1331.3301,-157.3743 1331.3301,-157.3743 1331.3301,-153.1244 1335.58,-148.8745 1339.8299,-148.8745 1339.8299,-148.8745 1594.7638,-148.8745 1594.7638,-148.8745 1599.0138,-148.8745 1603.2637,-153.1244 1603.2637,-157.3743 1603.2637,-157.3743 1603.2637,-165.8742 1603.2637,-165.8742 1603.2637,-170.1241 1599.0138,-174.374 1594.7638,-174.374"/>
<text text-anchor="middle" x="1467.2969" y="-158.2485" font-family="Arial" font-size="15.00" fill="#cfffac">../externalInterface/api/http/client/util.ts</text>
</g>
<!-- ../externalInterface/api/http/me.ts -->
<g id="node7" class="node">
<title>../externalInterface/api/http/me.ts</title>
<path fill="none" stroke="#c6c5fe" d="M1278.6942,-195.374C1278.6942,-195.374 1060.8034,-195.374 1060.8034,-195.374 1056.5535,-195.374 1052.3035,-191.1241 1052.3035,-186.8742 1052.3035,-186.8742 1052.3035,-178.3743 1052.3035,-178.3743 1052.3035,-174.1244 1056.5535,-169.8745 1060.8034,-169.8745 1060.8034,-169.8745 1278.6942,-169.8745 1278.6942,-169.8745 1282.9441,-169.8745 1287.194,-174.1244 1287.194,-178.3743 1287.194,-178.3743 1287.194,-186.8742 1287.194,-186.8742 1287.194,-191.1241 1282.9441,-195.374 1278.6942,-195.374"/>
<text text-anchor="middle" x="1169.7488" y="-179.2485" font-family="Arial" font-size="15.00" fill="#c6c5fe">../externalInterface/api/http/me.ts</text>
</g>
<!-- ../externalInterface/api/http/me.ts&#45;&gt;../externalInterface/api/http/client/index.ts -->
<g id="edge4" class="edge">
<title>../externalInterface/api/http/me.ts&#45;&gt;../externalInterface/api/http/client/index.ts</title>
<path fill="none" stroke="#757575" d="M1287.3477,-191.3193C1295.754,-191.9408 1304.2993,-192.5726 1312.8698,-193.2063"/>
<polygon fill="#757575" stroke="#757575" points="1312.7045,-196.7035 1322.9353,-193.9505 1313.2207,-189.7226 1312.7045,-196.7035"/>
</g>
<!-- ../externalInterface/api/http/me.ts&#45;&gt;../externalInterface/api/http/client/util.ts -->
<g id="edge5" class="edge">
<title>../externalInterface/api/http/me.ts&#45;&gt;../externalInterface/api/http/client/util.ts</title>
<path fill="none" stroke="#757575" d="M1287.3477,-174.3245C1298.2921,-173.5521 1309.4723,-172.763 1320.6365,-171.9751"/>
<polygon fill="#757575" stroke="#757575" points="1321.149,-175.4477 1330.8777,-171.2523 1320.6561,-168.4651 1321.149,-175.4477"/>
</g>
<!-- ../gateway/me/index.ts -->
<g id="node8" class="node">
<title>../gateway/me/index.ts</title>
<path fill="none" stroke="#c6c5fe" d="M510.1119,-194.374C510.1119,-194.374 361.6347,-194.374 361.6347,-194.374 357.3848,-194.374 353.1348,-190.1241 353.1348,-185.8742 353.1348,-185.8742 353.1348,-177.3743 353.1348,-177.3743 353.1348,-173.1244 357.3848,-168.8745 361.6347,-168.8745 361.6347,-168.8745 510.1119,-168.8745 510.1119,-168.8745 514.3618,-168.8745 518.6117,-173.1244 518.6117,-177.3743 518.6117,-177.3743 518.6117,-185.8742 518.6117,-185.8742 518.6117,-190.1241 514.3618,-194.374 510.1119,-194.374"/>
<text text-anchor="middle" x="435.8733" y="-178.2485" font-family="Arial" font-size="15.00" fill="#c6c5fe">../gateway/me/index.ts</text>
</g>
<!-- ../gateway/me/me.ts -->
<g id="node9" class="node">
<title>../gateway/me/me.ts</title>
<path fill="none" stroke="#c6c5fe" d="M903.9149,-195.374C903.9149,-195.374 770.4816,-195.374 770.4816,-195.374 766.2317,-195.374 761.9818,-191.1241 761.9818,-186.8742 761.9818,-186.8742 761.9818,-178.3743 761.9818,-178.3743 761.9818,-174.1244 766.2317,-169.8745 770.4816,-169.8745 770.4816,-169.8745 903.9149,-169.8745 903.9149,-169.8745 908.1648,-169.8745 912.4147,-174.1244 912.4147,-178.3743 912.4147,-178.3743 912.4147,-186.8742 912.4147,-186.8742 912.4147,-191.1241 908.1648,-195.374 903.9149,-195.374"/>
<text text-anchor="middle" x="837.1982" y="-179.2485" font-family="Arial" font-size="15.00" fill="#c6c5fe">../gateway/me/me.ts</text>
</g>
<!-- ../gateway/me/index.ts&#45;&gt;../gateway/me/me.ts -->
<g id="edge6" class="edge">
<title>../gateway/me/index.ts&#45;&gt;../gateway/me/me.ts</title>
<path fill="none" stroke="#757575" d="M518.5415,-181.8303C586.6368,-181.9999 682.8491,-182.2397 751.7067,-182.4112"/>
<polygon fill="#757575" stroke="#757575" points="752.0786,-185.9121 762.0873,-182.4371 752.0961,-178.9121 752.0786,-185.9121"/>
</g>
<!-- ../gateway/me/me.ts&#45;&gt;../externalInterface/api/http/me.ts -->
<g id="edge7" class="edge">
<title>../gateway/me/me.ts&#45;&gt;../externalInterface/api/http/me.ts</title>
<path fill="none" stroke="#757575" d="M912.6591,-182.6243C950.9718,-182.6243 998.5637,-182.6243 1042.3463,-182.6243"/>
<polygon fill="#757575" stroke="#757575" points="1042.5021,-186.1244 1052.5021,-182.6243 1042.502,-179.1244 1042.5021,-186.1244"/>
</g>
<!-- ../presenter/components/ecosystem/Me/Content.tsx -->
<g id="node10" class="node">
<title>../presenter/components/ecosystem/Me/Content.tsx</title>
<path fill="none" stroke="#c6c5fe" d="M1007.8548,-152.374C1007.8548,-152.374 666.5417,-152.374 666.5417,-152.374 662.2918,-152.374 658.0418,-148.1241 658.0418,-143.8742 658.0418,-143.8742 658.0418,-135.3743 658.0418,-135.3743 658.0418,-131.1244 662.2918,-126.8745 666.5417,-126.8745 666.5417,-126.8745 1007.8548,-126.8745 1007.8548,-126.8745 1012.1047,-126.8745 1016.3547,-131.1244 1016.3547,-135.3743 1016.3547,-135.3743 1016.3547,-143.8742 1016.3547,-143.8742 1016.3547,-148.1241 1012.1047,-152.374 1007.8548,-152.374"/>
<text text-anchor="middle" x="837.1982" y="-136.2485" font-family="Arial" font-size="15.00" fill="#c6c5fe">../presenter/components/ecosystem/Me/Content.tsx</text>
</g>
<!-- ../useCase/useMe/type.ts -->
<g id="node11" class="node">
<title>../useCase/useMe/type.ts</title>
<path fill="none" stroke="#cfffac" d="M1253.9971,-109.374C1253.9971,-109.374 1085.5004,-109.374 1085.5004,-109.374 1081.2505,-109.374 1077.0006,-105.1241 1077.0006,-100.8742 1077.0006,-100.8742 1077.0006,-92.3743 1077.0006,-92.3743 1077.0006,-88.1244 1081.2505,-83.8745 1085.5004,-83.8745 1085.5004,-83.8745 1253.9971,-83.8745 1253.9971,-83.8745 1258.2471,-83.8745 1262.497,-88.1244 1262.497,-92.3743 1262.497,-92.3743 1262.497,-100.8742 1262.497,-100.8742 1262.497,-105.1241 1258.2471,-109.374 1253.9971,-109.374"/>
<text text-anchor="middle" x="1169.7488" y="-93.2485" font-family="Arial" font-size="15.00" fill="#cfffac">../useCase/useMe/type.ts</text>
</g>
<!-- ../presenter/components/ecosystem/Me/Content.tsx&#45;&gt;../useCase/useMe/type.ts -->
<g id="edge8" class="edge">
<title>../presenter/components/ecosystem/Me/Content.tsx&#45;&gt;../useCase/useMe/type.ts</title>
<path fill="none" stroke="#757575" d="M949.1767,-126.9666C971.5008,-124.3148 994.7681,-121.4598 1016.5264,-118.6243 1035.248,-116.1845 1055.2336,-113.4269 1074.3793,-110.7097"/>
<polygon fill="#757575" stroke="#757575" points="1074.8979,-114.1713 1084.3036,-109.2944 1073.9096,-107.2414 1074.8979,-114.1713"/>
</g>
<!-- ../presenter/components/ecosystem/Me/Exception.tsx -->
<g id="node12" class="node">
<title>../presenter/components/ecosystem/Me/Exception.tsx</title>
<path fill="none" stroke="#cfffac" d="M613.3671,-111.374C613.3671,-111.374 258.3795,-111.374 258.3795,-111.374 254.1296,-111.374 249.8796,-107.1241 249.8796,-102.8742 249.8796,-102.8742 249.8796,-94.3743 249.8796,-94.3743 249.8796,-90.1244 254.1296,-85.8745 258.3795,-85.8745 258.3795,-85.8745 613.3671,-85.8745 613.3671,-85.8745 617.617,-85.8745 621.8669,-90.1244 621.8669,-94.3743 621.8669,-94.3743 621.8669,-102.8742 621.8669,-102.8742 621.8669,-107.1241 617.617,-111.374 613.3671,-111.374"/>
<text text-anchor="middle" x="435.8733" y="-95.2485" font-family="Arial" font-size="15.00" fill="#cfffac">../presenter/components/ecosystem/Me/Exception.tsx</text>
</g>
<!-- ../useCase/useMe/index.ts -->
<g id="node13" class="node">
<title>../useCase/useMe/index.ts</title>
<path fill="none" stroke="#c6c5fe" d="M523.629,-68.374C523.629,-68.374 348.1176,-68.374 348.1176,-68.374 343.8677,-68.374 339.6178,-64.1241 339.6178,-59.8742 339.6178,-59.8742 339.6178,-51.3743 339.6178,-51.3743 339.6178,-47.1244 343.8677,-42.8745 348.1176,-42.8745 348.1176,-42.8745 523.629,-42.8745 523.629,-42.8745 527.8789,-42.8745 532.1288,-47.1244 532.1288,-51.3743 532.1288,-51.3743 532.1288,-59.8742 532.1288,-59.8742 532.1288,-64.1241 527.8789,-68.374 523.629,-68.374"/>
<text text-anchor="middle" x="435.8733" y="-52.2485" font-family="Arial" font-size="15.00" fill="#c6c5fe">../useCase/useMe/index.ts</text>
</g>
<!-- ../useCase/useMe/interactor.ts -->
<g id="node14" class="node">
<title>../useCase/useMe/interactor.ts</title>
<path fill="none" stroke="#c6c5fe" d="M937.794,-66.374C937.794,-66.374 736.6025,-66.374 736.6025,-66.374 732.3526,-66.374 728.1027,-62.1241 728.1027,-57.8742 728.1027,-57.8742 728.1027,-49.3743 728.1027,-49.3743 728.1027,-45.1244 732.3526,-40.8745 736.6025,-40.8745 736.6025,-40.8745 937.794,-40.8745 937.794,-40.8745 942.0439,-40.8745 946.2938,-45.1244 946.2938,-49.3743 946.2938,-49.3743 946.2938,-57.8742 946.2938,-57.8742 946.2938,-62.1241 942.0439,-66.374 937.794,-66.374"/>
<text text-anchor="middle" x="837.1982" y="-50.2485" font-family="Arial" font-size="15.00" fill="#c6c5fe">../useCase/useMe/interactor.ts</text>
</g>
<!-- ../useCase/useMe/index.ts&#45;&gt;../useCase/useMe/interactor.ts -->
<g id="edge9" class="edge">
<title>../useCase/useMe/index.ts&#45;&gt;../useCase/useMe/interactor.ts</title>
<path fill="none" stroke="#757575" d="M532.2559,-55.1439C587.9407,-54.8664 658.4623,-54.515 717.6581,-54.22"/>
<polygon fill="#757575" stroke="#757575" points="717.8306,-57.7193 727.813,-54.1694 717.7957,-50.7194 717.8306,-57.7193"/>
</g>
<!-- ../useCase/useMe/useMe.tsx -->
<g id="node15" class="node">
<title>../useCase/useMe/useMe.tsx</title>
<path fill="none" stroke="#c6c5fe" d="M933.6168,-109.374C933.6168,-109.374 740.7797,-109.374 740.7797,-109.374 736.5298,-109.374 732.2799,-105.1241 732.2799,-100.8742 732.2799,-100.8742 732.2799,-92.3743 732.2799,-92.3743 732.2799,-88.1244 736.5298,-83.8745 740.7797,-83.8745 740.7797,-83.8745 933.6168,-83.8745 933.6168,-83.8745 937.8667,-83.8745 942.1166,-88.1244 942.1166,-92.3743 942.1166,-92.3743 942.1166,-100.8742 942.1166,-100.8742 942.1166,-105.1241 937.8667,-109.374 933.6168,-109.374"/>
<text text-anchor="middle" x="837.1982" y="-93.2485" font-family="Arial" font-size="15.00" fill="#c6c5fe">../useCase/useMe/useMe.tsx</text>
</g>
<!-- ../useCase/useMe/index.ts&#45;&gt;../useCase/useMe/useMe.tsx -->
<g id="edge10" class="edge">
<title>../useCase/useMe/index.ts&#45;&gt;../useCase/useMe/useMe.tsx</title>
<path fill="none" stroke="#757575" d="M532.2559,-65.4709C589.3657,-71.3053 662.0813,-78.734 722.18,-84.8738"/>
<polygon fill="#757575" stroke="#757575" points="722.1743,-88.3914 732.4782,-85.9259 722.8858,-81.4276 722.1743,-88.3914"/>
</g>
<!-- ../useCase/useMe/interactor.ts&#45;&gt;../domain/me/index.ts -->
<g id="edge11" class="edge">
<title>../useCase/useMe/interactor.ts&#45;&gt;../domain/me/index.ts</title>
<path fill="none" stroke="#757575" d="M946.5483,-53.6243C990.008,-53.6243 1039.3682,-53.6243 1080.6002,-53.6243"/>
<polygon fill="#757575" stroke="#757575" points="1080.6256,-57.1244 1090.6255,-53.6243 1080.6255,-50.1244 1080.6256,-57.1244"/>
</g>
<!-- ../useCase/useMe/interactor.ts&#45;&gt;../useCase/useMe/type.ts -->
<g id="edge12" class="edge">
<title>../useCase/useMe/interactor.ts&#45;&gt;../useCase/useMe/type.ts</title>
<path fill="none" stroke="#757575" d="M946.3118,-65.9421C969.5037,-68.689 993.8356,-71.6672 1016.5264,-74.6243 1035.248,-77.0641 1055.2336,-79.8216 1074.3793,-82.5388"/>
<polygon fill="#757575" stroke="#757575" points="1073.9096,-86.0071 1084.3036,-83.9541 1074.8979,-79.0773 1073.9096,-86.0071"/>
</g>
<!-- ../useCase/useMe/useMe.tsx&#45;&gt;../useCase/useMe/type.ts -->
<g id="edge13" class="edge">
<title>../useCase/useMe/useMe.tsx&#45;&gt;../useCase/useMe/type.ts</title>
<path fill="none" stroke="#757575" d="M941.9629,-96.6243C981.8071,-96.6243 1027.1368,-96.6243 1066.8104,-96.6243"/>
<polygon fill="#757575" stroke="#757575" points="1067.0351,-100.1244 1077.0351,-96.6243 1067.035,-93.1244 1067.0351,-100.1244"/>
</g>
<!-- me/index.ts -->
<g id="node16" class="node">
<title>me/index.ts</title>
<path fill="none" stroke="#c6c5fe" d="M84.0495,-111.374C84.0495,-111.374 8.6498,-111.374 8.6498,-111.374 4.3998,-111.374 .1499,-107.1241 .1499,-102.8742 .1499,-102.8742 .1499,-94.3743 .1499,-94.3743 .1499,-90.1244 4.3998,-85.8745 8.6498,-85.8745 8.6498,-85.8745 84.0495,-85.8745 84.0495,-85.8745 88.2994,-85.8745 92.5493,-90.1244 92.5493,-94.3743 92.5493,-94.3743 92.5493,-102.8742 92.5493,-102.8742 92.5493,-107.1241 88.2994,-111.374 84.0495,-111.374"/>
<text text-anchor="middle" x="46.3496" y="-95.2485" font-family="Arial" font-size="15.00" fill="#c6c5fe">me/index.ts</text>
</g>
<!-- me/me.tsx -->
<g id="node17" class="node">
<title>me/me.tsx</title>
<path fill="none" stroke="#c6c5fe" d="M205.4654,-111.374C205.4654,-111.374 137.1103,-111.374 137.1103,-111.374 132.8603,-111.374 128.6104,-107.1241 128.6104,-102.8742 128.6104,-102.8742 128.6104,-94.3743 128.6104,-94.3743 128.6104,-90.1244 132.8603,-85.8745 137.1103,-85.8745 137.1103,-85.8745 205.4654,-85.8745 205.4654,-85.8745 209.7153,-85.8745 213.9653,-90.1244 213.9653,-94.3743 213.9653,-94.3743 213.9653,-102.8742 213.9653,-102.8742 213.9653,-107.1241 209.7153,-111.374 205.4654,-111.374"/>
<text text-anchor="middle" x="171.2878" y="-95.2485" font-family="Arial" font-size="15.00" fill="#c6c5fe">me/me.tsx</text>
</g>
<!-- me/index.ts&#45;&gt;me/me.tsx -->
<g id="edge14" class="edge">
<title>me/index.ts&#45;&gt;me/me.tsx</title>
<path fill="none" stroke="#757575" d="M92.872,-98.6243C101.1584,-98.6243 109.8459,-98.6243 118.2966,-98.6243"/>
<polygon fill="#757575" stroke="#757575" points="118.4442,-102.1244 128.4441,-98.6243 118.4441,-95.1244 118.4442,-102.1244"/>
</g>
<!-- me/me.tsx&#45;&gt;../gateway/me/index.ts -->
<g id="edge15" class="edge">
<title>me/me.tsx&#45;&gt;../gateway/me/index.ts</title>
<path fill="none" stroke="#757575" d="M185.1604,-111.3772C200.0068,-124.2503 224.8229,-143.617 249.8765,-153.6243 279.029,-165.2689 312.5151,-172.1163 342.9692,-176.1274"/>
<polygon fill="#757575" stroke="#757575" points="342.8178,-179.6351 353.1702,-177.3818 343.6722,-172.6874 342.8178,-179.6351"/>
</g>
<!-- me/me.tsx&#45;&gt;../presenter/components/ecosystem/Me/Content.tsx -->
<g id="edge16" class="edge">
<title>me/me.tsx&#45;&gt;../presenter/components/ecosystem/Me/Content.tsx</title>
<path fill="none" stroke="#757575" d="M209.6559,-111.3555C222.3207,-115.0204 236.573,-118.5776 249.8765,-120.6243 381.7781,-140.9163 532.2335,-145.4315 647.841,-144.9949"/>
<polygon fill="#757575" stroke="#757575" points="647.877,-148.4949 657.8592,-144.9444 647.8417,-141.495 647.877,-148.4949"/>
</g>
<!-- me/me.tsx&#45;&gt;../presenter/components/ecosystem/Me/Exception.tsx -->
<g id="edge17" class="edge">
<title>me/me.tsx&#45;&gt;../presenter/components/ecosystem/Me/Exception.tsx</title>
<path fill="none" stroke="#757575" d="M214.0921,-98.6243C221.8792,-98.6243 230.4449,-98.6243 239.5433,-98.6243"/>
<polygon fill="#757575" stroke="#757575" points="239.6133,-102.1244 249.6133,-98.6243 239.6133,-95.1244 239.6133,-102.1244"/>
</g>
<!-- me/me.tsx&#45;&gt;../useCase/useMe/index.ts -->
<g id="edge18" class="edge">
<title>me/me.tsx&#45;&gt;../useCase/useMe/index.ts</title>
<path fill="none" stroke="#757575" d="M211.7791,-85.95C223.9321,-82.5103 237.3609,-79.0662 249.8765,-76.6243 275.3587,-71.6524 303.0514,-67.7385 329.093,-64.7064"/>
<polygon fill="#757575" stroke="#757575" points="329.8236,-68.1462 339.3672,-63.5451 329.0373,-61.1905 329.8236,-68.1462"/>
</g>
<!-- me/type.ts -->
<g id="node18" class="node">
<title>me/type.ts</title>
<path fill="none" stroke="#cfffac" d="M470.0656,-25.374C470.0656,-25.374 401.681,-25.374 401.681,-25.374 397.4311,-25.374 393.1812,-21.1241 393.1812,-16.8742 393.1812,-16.8742 393.1812,-8.3743 393.1812,-8.3743 393.1812,-4.1244 397.4311,.1255 401.681,.1255 401.681,.1255 470.0656,.1255 470.0656,.1255 474.3155,.1255 478.5654,-4.1244 478.5654,-8.3743 478.5654,-8.3743 478.5654,-16.8742 478.5654,-16.8742 478.5654,-21.1241 474.3155,-25.374 470.0656,-25.374"/>
<text text-anchor="middle" x="435.8733" y="-9.2485" font-family="Arial" font-size="15.00" fill="#cfffac">me/type.ts</text>
</g>
<!-- me/me.tsx&#45;&gt;me/type.ts -->
<g id="edge19" class="edge">
<title>me/me.tsx&#45;&gt;me/type.ts</title>
<path fill="none" stroke="#757575" d="M182.3099,-85.8007C196.3065,-70.4879 222.0099,-45.4631 249.8765,-33.6243 292.1148,-15.6797 344.3538,-11.1427 382.7059,-10.6816"/>
<polygon fill="#757575" stroke="#757575" points="383.145,-14.1804 393.135,-10.6518 383.125,-7.1804 383.145,-14.1804"/>
</g>
</g>
</svg>
