<?xml version="1.0" encoding="UTF-8" standalone="no"?>
<!DOCTYPE svg PUBLIC "-//W3C//DTD SVG 1.1//EN"
 "http://www.w3.org/Graphics/SVG/1.1/DTD/svg11.dtd">
<!-- Generated by graphviz version 2.40.1 (20161225.0304)
 -->
<!-- Title: G Pages: 1 -->
<svg width="1992pt" height="228pt"
 viewBox="0.00 0.00 1992.24 228.49" xmlns="http://www.w3.org/2000/svg" xmlns:xlink="http://www.w3.org/1999/xlink">
<g id="graph0" class="graph" transform="scale(1 1) rotate(0) translate(21.6 206.892)">
<title>G</title>
<polygon fill="#111111" stroke="transparent" points="-21.6,21.6 -21.6,-206.892 1970.6381,-206.892 1970.6381,21.6 -21.6,21.6"/>
<!-- ../domain/me/index.ts -->
<g id="node1" class="node">
<title>../domain/me/index.ts</title>
<path fill="none" stroke="#c6c5fe" d="M1062.013,-89.374C1062.013,-89.374 920.8796,-89.374 920.8796,-89.374 916.6297,-89.374 912.3798,-85.1241 912.3798,-80.8742 912.3798,-80.8742 912.3798,-72.3743 912.3798,-72.3743 912.3798,-68.1244 916.6297,-63.8745 920.8796,-63.8745 920.8796,-63.8745 1062.013,-63.8745 1062.013,-63.8745 1066.2629,-63.8745 1070.5128,-68.1244 1070.5128,-72.3743 1070.5128,-72.3743 1070.5128,-80.8742 1070.5128,-80.8742 1070.5128,-85.1241 1066.2629,-89.374 1062.013,-89.374"/>
<text text-anchor="middle" x="991.4463" y="-73.2485" font-family="Arial" font-size="15.00" fill="#c6c5fe">../domain/me/index.ts</text>
</g>
<!-- ../domain/me/me.ts -->
<g id="node2" class="node">
<title>../domain/me/me.ts</title>
<path fill="none" stroke="#cfffac" d="M1261.9733,-132.374C1261.9733,-132.374 1135.8836,-132.374 1135.8836,-132.374 1131.6337,-132.374 1127.3838,-128.1241 1127.3838,-123.8742 1127.3838,-123.8742 1127.3838,-115.3743 1127.3838,-115.3743 1127.3838,-111.1244 1131.6337,-106.8745 1135.8836,-106.8745 1135.8836,-106.8745 1261.9733,-106.8745 1261.9733,-106.8745 1266.2232,-106.8745 1270.4731,-111.1244 1270.4731,-115.3743 1270.4731,-115.3743 1270.4731,-123.8742 1270.4731,-123.8742 1270.4731,-128.1241 1266.2232,-132.374 1261.9733,-132.374"/>
<text text-anchor="middle" x="1198.9285" y="-116.2485" font-family="Arial" font-size="15.00" fill="#cfffac">../domain/me/me.ts</text>
</g>
<!-- ../domain/me/index.ts&#45;&gt;../domain/me/me.ts -->
<g id="edge1" class="edge">
<title>../domain/me/index.ts&#45;&gt;../domain/me/me.ts</title>
<path fill="none" stroke="#757575" d="M1052.5756,-89.2931C1076.2142,-94.1921 1103.4254,-99.8316 1127.9231,-104.9086"/>
<polygon fill="#757575" stroke="#757575" points="1127.3757,-108.3695 1137.8779,-106.9717 1128.7962,-101.5151 1127.3757,-108.3695"/>
</g>
<!-- ../domain/me/type.ts -->
<g id="node3" class="node">
<title>../domain/me/type.ts</title>
<path fill="none" stroke="#cfffac" d="M1265.9872,-89.374C1265.9872,-89.374 1131.8697,-89.374 1131.8697,-89.374 1127.6198,-89.374 1123.3699,-85.1241 1123.3699,-80.8742 1123.3699,-80.8742 1123.3699,-72.3743 1123.3699,-72.3743 1123.3699,-68.1244 1127.6198,-63.8745 1131.8697,-63.8745 1131.8697,-63.8745 1265.9872,-63.8745 1265.9872,-63.8745 1270.2371,-63.8745 1274.4871,-68.1244 1274.4871,-72.3743 1274.4871,-72.3743 1274.4871,-80.8742 1274.4871,-80.8742 1274.4871,-85.1241 1270.2371,-89.374 1265.9872,-89.374"/>
<text text-anchor="middle" x="1198.9285" y="-73.2485" font-family="Arial" font-size="15.00" fill="#cfffac">../domain/me/type.ts</text>
</g>
<!-- ../domain/me/index.ts&#45;&gt;../domain/me/type.ts -->
<g id="edge2" class="edge">
<title>../domain/me/index.ts&#45;&gt;../domain/me/type.ts</title>
<path fill="none" stroke="#757575" d="M1070.7745,-76.6243C1084.583,-76.6243 1099.0033,-76.6243 1112.9795,-76.6243"/>
<polygon fill="#757575" stroke="#757575" points="1113.0627,-80.1244 1123.0627,-76.6243 1113.0627,-73.1244 1113.0627,-80.1244"/>
</g>
<!-- ../infra/api/http/client/client.ts -->
<g id="node4" class="node">
<title>../infra/api/http/client/client.ts</title>
<path fill="none" stroke="#cfffac" d="M1940.6673,-68.374C1940.6673,-68.374 1752.1511,-68.374 1752.1511,-68.374 1747.9011,-68.374 1743.6512,-64.1241 1743.6512,-59.8742 1743.6512,-59.8742 1743.6512,-51.3743 1743.6512,-51.3743 1743.6512,-47.1244 1747.9011,-42.8745 1752.1511,-42.8745 1752.1511,-42.8745 1940.6673,-42.8745 1940.6673,-42.8745 1944.9172,-42.8745 1949.1672,-47.1244 1949.1672,-51.3743 1949.1672,-51.3743 1949.1672,-59.8742 1949.1672,-59.8742 1949.1672,-64.1241 1944.9172,-68.374 1940.6673,-68.374"/>
<text text-anchor="middle" x="1846.4092" y="-52.2485" font-family="Arial" font-size="15.00" fill="#cfffac">../infra/api/http/client/client.ts</text>
</g>
<!-- ../infra/api/http/client/index.ts -->
<g id="node5" class="node">
<title>../infra/api/http/client/index.ts</title>
<path fill="none" stroke="#c6c5fe" d="M1699.3305,-68.374C1699.3305,-68.374 1510.1299,-68.374 1510.1299,-68.374 1505.88,-68.374 1501.6301,-64.1241 1501.6301,-59.8742 1501.6301,-59.8742 1501.6301,-51.3743 1501.6301,-51.3743 1501.6301,-47.1244 1505.88,-42.8745 1510.1299,-42.8745 1510.1299,-42.8745 1699.3305,-42.8745 1699.3305,-42.8745 1703.5804,-42.8745 1707.8303,-47.1244 1707.8303,-51.3743 1707.8303,-51.3743 1707.8303,-59.8742 1707.8303,-59.8742 1707.8303,-64.1241 1703.5804,-68.374 1699.3305,-68.374"/>
<text text-anchor="middle" x="1604.7302" y="-52.2485" font-family="Arial" font-size="15.00" fill="#c6c5fe">../infra/api/http/client/index.ts</text>
</g>
<!-- ../infra/api/http/client/index.ts&#45;&gt;../infra/api/http/client/client.ts -->
<g id="edge3" class="edge">
<title>../infra/api/http/client/index.ts&#45;&gt;../infra/api/http/client/client.ts</title>
<path fill="none" stroke="#757575" d="M1707.9249,-55.6243C1716.4085,-55.6243 1725.0106,-55.6243 1733.5592,-55.6243"/>
<polygon fill="#757575" stroke="#757575" points="1733.5597,-59.1244 1743.5596,-55.6243 1733.5596,-52.1244 1733.5597,-59.1244"/>
</g>
<!-- ../infra/api/http/client/util.ts -->
<g id="node6" class="node">
<title>../infra/api/http/client/util.ts</title>
<path fill="none" stroke="#cfffac" d="M1691.1464,-25.374C1691.1464,-25.374 1518.3141,-25.374 1518.3141,-25.374 1514.0642,-25.374 1509.8142,-21.1241 1509.8142,-16.8742 1509.8142,-16.8742 1509.8142,-8.3743 1509.8142,-8.3743 1509.8142,-4.1244 1514.0642,.1255 1518.3141,.1255 1518.3141,.1255 1691.1464,.1255 1691.1464,.1255 1695.3963,.1255 1699.6462,-4.1244 1699.6462,-8.3743 1699.6462,-8.3743 1699.6462,-16.8742 1699.6462,-16.8742 1699.6462,-21.1241 1695.3963,-25.374 1691.1464,-25.374"/>
<text text-anchor="middle" x="1604.7302" y="-9.2485" font-family="Arial" font-size="15.00" fill="#cfffac">../infra/api/http/client/util.ts</text>
</g>
<!-- ../infra/api/http/me.ts -->
<g id="node7" class="node">
<title>../infra/api/http/me.ts</title>
<path fill="none" stroke="#c6c5fe" d="M1457.1271,-46.374C1457.1271,-46.374 1322.3397,-46.374 1322.3397,-46.374 1318.0897,-46.374 1313.8398,-42.1241 1313.8398,-37.8742 1313.8398,-37.8742 1313.8398,-29.3743 1313.8398,-29.3743 1313.8398,-25.1244 1318.0897,-20.8745 1322.3397,-20.8745 1322.3397,-20.8745 1457.1271,-20.8745 1457.1271,-20.8745 1461.3771,-20.8745 1465.627,-25.1244 1465.627,-29.3743 1465.627,-29.3743 1465.627,-37.8742 1465.627,-37.8742 1465.627,-42.1241 1461.3771,-46.374 1457.1271,-46.374"/>
<text text-anchor="middle" x="1389.7334" y="-30.2485" font-family="Arial" font-size="15.00" fill="#c6c5fe">../infra/api/http/me.ts</text>
</g>
<!-- ../infra/api/http/me.ts&#45;&gt;../infra/api/http/client/index.ts -->
<g id="edge4" class="edge">
<title>../infra/api/http/me.ts&#45;&gt;../infra/api/http/client/index.ts</title>
<path fill="none" stroke="#757575" d="M1465.8358,-41.4116C1474.1708,-42.2645 1482.7818,-43.1456 1491.443,-44.0319"/>
<polygon fill="#757575" stroke="#757575" points="1491.3158,-47.5371 1501.6202,-45.0733 1492.0284,-40.5735 1491.3158,-47.5371"/>
</g>
<!-- ../infra/api/http/me.ts&#45;&gt;../infra/api/http/client/util.ts -->
<g id="edge5" class="edge">
<title>../infra/api/http/me.ts&#45;&gt;../infra/api/http/client/util.ts</title>
<path fill="none" stroke="#757575" d="M1465.8358,-26.1909C1476.8604,-25.1141 1488.3679,-23.9901 1499.8359,-22.8699"/>
<polygon fill="#757575" stroke="#757575" points="1500.2781,-26.3435 1509.8905,-21.8878 1499.5975,-19.3766 1500.2781,-26.3435"/>
</g>
<!-- ../infra/repo/me/index.ts -->
<g id="node8" class="node">
<title>../infra/repo/me/index.ts</title>
<path fill="none" stroke="#c6c5fe" d="M1069.1849,-46.374C1069.1849,-46.374 913.7077,-46.374 913.7077,-46.374 909.4577,-46.374 905.2078,-42.1241 905.2078,-37.8742 905.2078,-37.8742 905.2078,-29.3743 905.2078,-29.3743 905.2078,-25.1244 909.4577,-20.8745 913.7077,-20.8745 913.7077,-20.8745 1069.1849,-20.8745 1069.1849,-20.8745 1073.4348,-20.8745 1077.6848,-25.1244 1077.6848,-29.3743 1077.6848,-29.3743 1077.6848,-37.8742 1077.6848,-37.8742 1077.6848,-42.1241 1073.4348,-46.374 1069.1849,-46.374"/>
<text text-anchor="middle" x="991.4463" y="-30.2485" font-family="Arial" font-size="15.00" fill="#c6c5fe">../infra/repo/me/index.ts</text>
</g>
<!-- ../infra/repo/me/me.ts -->
<g id="node9" class="node">
<title>../infra/repo/me/me.ts</title>
<path fill="none" stroke="#c6c5fe" d="M1269.1452,-46.374C1269.1452,-46.374 1128.7118,-46.374 1128.7118,-46.374 1124.4618,-46.374 1120.2119,-42.1241 1120.2119,-37.8742 1120.2119,-37.8742 1120.2119,-29.3743 1120.2119,-29.3743 1120.2119,-25.1244 1124.4618,-20.8745 1128.7118,-20.8745 1128.7118,-20.8745 1269.1452,-20.8745 1269.1452,-20.8745 1273.3951,-20.8745 1277.645,-25.1244 1277.645,-29.3743 1277.645,-29.3743 1277.645,-37.8742 1277.645,-37.8742 1277.645,-42.1241 1273.3951,-46.374 1269.1452,-46.374"/>
<text text-anchor="middle" x="1198.9285" y="-30.2485" font-family="Arial" font-size="15.00" fill="#c6c5fe">../infra/repo/me/me.ts</text>
</g>
<!-- ../infra/repo/me/index.ts&#45;&gt;../infra/repo/me/me.ts -->
<g id="edge6" class="edge">
<title>../infra/repo/me/index.ts&#45;&gt;../infra/repo/me/me.ts</title>
<path fill="none" stroke="#757575" d="M1077.935,-33.6243C1088.5522,-33.6243 1099.4174,-33.6243 1110.0689,-33.6243"/>
<polygon fill="#757575" stroke="#757575" points="1110.2006,-37.1244 1120.2006,-33.6243 1110.2006,-30.1244 1110.2006,-37.1244"/>
</g>
<!-- ../infra/repo/me/me.ts&#45;&gt;../infra/api/http/me.ts -->
<g id="edge7" class="edge">
<title>../infra/repo/me/me.ts&#45;&gt;../infra/api/http/me.ts</title>
<path fill="none" stroke="#757575" d="M1277.9135,-33.6243C1286.2955,-33.6243 1294.8519,-33.6243 1303.3131,-33.6243"/>
<polygon fill="#757575" stroke="#757575" points="1303.5688,-37.1244 1313.5688,-33.6243 1303.5687,-30.1244 1303.5688,-37.1244"/>
</g>
<!-- ../presenter/components/ecosystem/Me/Content.tsx -->
<g id="node10" class="node">
<title>../presenter/components/ecosystem/Me/Content.tsx</title>
<path fill="none" stroke="#c6c5fe" d="M854.1507,-175.374C854.1507,-175.374 512.8376,-175.374 512.8376,-175.374 508.5876,-175.374 504.3377,-171.1241 504.3377,-166.8742 504.3377,-166.8742 504.3377,-158.3743 504.3377,-158.3743 504.3377,-154.1244 508.5876,-149.8745 512.8376,-149.8745 512.8376,-149.8745 854.1507,-149.8745 854.1507,-149.8745 858.4006,-149.8745 862.6506,-154.1244 862.6506,-158.3743 862.6506,-158.3743 862.6506,-166.8742 862.6506,-166.8742 862.6506,-171.1241 858.4006,-175.374 854.1507,-175.374"/>
<text text-anchor="middle" x="683.4941" y="-159.2485" font-family="Arial" font-size="15.00" fill="#c6c5fe">../presenter/components/ecosystem/Me/Content.tsx</text>
</g>
<!-- ../useCase/useMe/type.ts -->
<g id="node11" class="node">
<title>../useCase/useMe/type.ts</title>
<path fill="none" stroke="#cfffac" d="M1075.6947,-132.374C1075.6947,-132.374 907.1979,-132.374 907.1979,-132.374 902.948,-132.374 898.6981,-128.1241 898.6981,-123.8742 898.6981,-123.8742 898.6981,-115.3743 898.6981,-115.3743 898.6981,-111.1244 902.948,-106.8745 907.1979,-106.8745 907.1979,-106.8745 1075.6947,-106.8745 1075.6947,-106.8745 1079.9446,-106.8745 1084.1945,-111.1244 1084.1945,-115.3743 1084.1945,-115.3743 1084.1945,-123.8742 1084.1945,-123.8742 1084.1945,-128.1241 1079.9446,-132.374 1075.6947,-132.374"/>
<text text-anchor="middle" x="991.4463" y="-116.2485" font-family="Arial" font-size="15.00" fill="#cfffac">../useCase/useMe/type.ts</text>
</g>
<!-- ../presenter/components/ecosystem/Me/Content.tsx&#45;&gt;../useCase/useMe/type.ts -->
<g id="edge8" class="edge">
<title>../presenter/components/ecosystem/Me/Content.tsx&#45;&gt;../useCase/useMe/type.ts</title>
<path fill="none" stroke="#757575" d="M799.3706,-149.9638C820.5068,-147.3962 842.345,-144.5724 862.8223,-141.6243 878.6064,-139.3518 895.435,-136.6658 911.5404,-133.9653"/>
<polygon fill="#757575" stroke="#757575" points="912.1838,-137.4063 921.459,-132.2856 911.0149,-130.5046 912.1838,-137.4063"/>
</g>
<!-- ../presenter/components/ecosystem/Me/Exception.tsx -->
<g id="node12" class="node">
<title>../presenter/components/ecosystem/Me/Exception.tsx</title>
<path fill="none" stroke="#cfffac" d="M459.663,-134.374C459.663,-134.374 104.6754,-134.374 104.6754,-134.374 100.4255,-134.374 96.1755,-130.1241 96.1755,-125.8742 96.1755,-125.8742 96.1755,-117.3743 96.1755,-117.3743 96.1755,-113.1244 100.4255,-108.8745 104.6754,-108.8745 104.6754,-108.8745 459.663,-108.8745 459.663,-108.8745 463.9129,-108.8745 468.1628,-113.1244 468.1628,-117.3743 468.1628,-117.3743 468.1628,-125.8742 468.1628,-125.8742 468.1628,-130.1241 463.9129,-134.374 459.663,-134.374"/>
<text text-anchor="middle" x="282.1692" y="-118.2485" font-family="Arial" font-size="15.00" fill="#cfffac">../presenter/components/ecosystem/Me/Exception.tsx</text>
</g>
<!-- ../useCase/useMe/index.ts -->
<g id="node13" class="node">
<title>../useCase/useMe/index.ts</title>
<path fill="none" stroke="#c6c5fe" d="M369.9249,-91.374C369.9249,-91.374 194.4135,-91.374 194.4135,-91.374 190.1636,-91.374 185.9137,-87.1241 185.9137,-82.8742 185.9137,-82.8742 185.9137,-74.3743 185.9137,-74.3743 185.9137,-70.1244 190.1636,-65.8745 194.4135,-65.8745 194.4135,-65.8745 369.9249,-65.8745 369.9249,-65.8745 374.1748,-65.8745 378.4247,-70.1244 378.4247,-74.3743 378.4247,-74.3743 378.4247,-82.8742 378.4247,-82.8742 378.4247,-87.1241 374.1748,-91.374 369.9249,-91.374"/>
<text text-anchor="middle" x="282.1692" y="-75.2485" font-family="Arial" font-size="15.00" fill="#c6c5fe">../useCase/useMe/index.ts</text>
</g>
<!-- ../useCase/useMe/interactor.ts -->
<g id="node14" class="node">
<title>../useCase/useMe/interactor.ts</title>
<path fill="none" stroke="#c6c5fe" d="M784.0899,-89.374C784.0899,-89.374 582.8984,-89.374 582.8984,-89.374 578.6485,-89.374 574.3986,-85.1241 574.3986,-80.8742 574.3986,-80.8742 574.3986,-72.3743 574.3986,-72.3743 574.3986,-68.1244 578.6485,-63.8745 582.8984,-63.8745 582.8984,-63.8745 784.0899,-63.8745 784.0899,-63.8745 788.3398,-63.8745 792.5897,-68.1244 792.5897,-72.3743 792.5897,-72.3743 792.5897,-80.8742 792.5897,-80.8742 792.5897,-85.1241 788.3398,-89.374 784.0899,-89.374"/>
<text text-anchor="middle" x="683.4941" y="-73.2485" font-family="Arial" font-size="15.00" fill="#c6c5fe">../useCase/useMe/interactor.ts</text>
</g>
<!-- ../useCase/useMe/index.ts&#45;&gt;../useCase/useMe/interactor.ts -->
<g id="edge9" class="edge">
<title>../useCase/useMe/index.ts&#45;&gt;../useCase/useMe/interactor.ts</title>
<path fill="none" stroke="#757575" d="M378.5518,-78.1439C434.2366,-77.8664 504.7582,-77.515 563.954,-77.22"/>
<polygon fill="#757575" stroke="#757575" points="564.1265,-80.7193 574.1089,-77.1694 564.0916,-73.7194 564.1265,-80.7193"/>
</g>
<!-- ../useCase/useMe/useMe.tsx -->
<g id="node15" class="node">
<title>../useCase/useMe/useMe.tsx</title>
<path fill="none" stroke="#c6c5fe" d="M779.9127,-132.374C779.9127,-132.374 587.0756,-132.374 587.0756,-132.374 582.8257,-132.374 578.5758,-128.1241 578.5758,-123.8742 578.5758,-123.8742 578.5758,-115.3743 578.5758,-115.3743 578.5758,-111.1244 582.8257,-106.8745 587.0756,-106.8745 587.0756,-106.8745 779.9127,-106.8745 779.9127,-106.8745 784.1626,-106.8745 788.4125,-111.1244 788.4125,-115.3743 788.4125,-115.3743 788.4125,-123.8742 788.4125,-123.8742 788.4125,-128.1241 784.1626,-132.374 779.9127,-132.374"/>
<text text-anchor="middle" x="683.4941" y="-116.2485" font-family="Arial" font-size="15.00" fill="#c6c5fe">../useCase/useMe/useMe.tsx</text>
</g>
<!-- ../useCase/useMe/index.ts&#45;&gt;../useCase/useMe/useMe.tsx -->
<g id="edge10" class="edge">
<title>../useCase/useMe/index.ts&#45;&gt;../useCase/useMe/useMe.tsx</title>
<path fill="none" stroke="#757575" d="M378.5518,-88.4709C435.6616,-94.3053 508.3772,-101.734 568.4759,-107.8738"/>
<polygon fill="#757575" stroke="#757575" points="568.4702,-111.3914 578.7741,-108.9259 569.1817,-104.4276 568.4702,-111.3914"/>
</g>
<!-- ../useCase/useMe/interactor.ts&#45;&gt;../domain/me/index.ts -->
<g id="edge11" class="edge">
<title>../useCase/useMe/interactor.ts&#45;&gt;../domain/me/index.ts</title>
<path fill="none" stroke="#757575" d="M792.9336,-76.6243C828.6549,-76.6243 867.8751,-76.6243 901.9524,-76.6243"/>
<polygon fill="#757575" stroke="#757575" points="902.3535,-80.1244 912.3535,-76.6243 902.3534,-73.1244 902.3535,-80.1244"/>
</g>
<!-- ../useCase/useMe/interactor.ts&#45;&gt;../infra/repo/me/index.ts -->
<g id="edge12" class="edge">
<title>../useCase/useMe/interactor.ts&#45;&gt;../infra/repo/me/index.ts</title>
<path fill="none" stroke="#757575" d="M774.2243,-63.9554C812.1718,-58.6567 856.3224,-52.4919 894.8711,-47.1093"/>
<polygon fill="#757575" stroke="#757575" points="895.6429,-50.5355 905.0628,-45.6862 894.6749,-43.6028 895.6429,-50.5355"/>
</g>
<!-- ../useCase/useMe/interactor.ts&#45;&gt;../useCase/useMe/type.ts -->
<g id="edge13" class="edge">
<title>../useCase/useMe/interactor.ts&#45;&gt;../useCase/useMe/type.ts</title>
<path fill="none" stroke="#757575" d="M792.6716,-88.4765C815.8592,-91.2548 840.1731,-94.3635 862.8223,-97.6243 878.6064,-99.8967 895.435,-102.5828 911.5404,-105.2832"/>
<polygon fill="#757575" stroke="#757575" points="911.0149,-108.744 921.459,-106.9629 912.1838,-101.8422 911.0149,-108.744"/>
</g>
<!-- ../useCase/useMe/useMe.tsx&#45;&gt;../useCase/useMe/type.ts -->
<g id="edge14" class="edge">
<title>../useCase/useMe/useMe.tsx&#45;&gt;../useCase/useMe/type.ts</title>
<path fill="none" stroke="#757575" d="M788.6125,-119.6243C820.8437,-119.6243 856.2612,-119.6243 888.3556,-119.6243"/>
<polygon fill="#757575" stroke="#757575" points="888.6509,-123.1244 898.6508,-119.6243 888.6508,-116.1244 888.6509,-123.1244"/>
</g>
<!-- me.tsx -->
<g id="node16" class="node">
<title>me.tsx</title>
<path fill="none" stroke="#c6c5fe" d="M51.7589,-112.374C51.7589,-112.374 8.4134,-112.374 8.4134,-112.374 4.1635,-112.374 -.0864,-108.1241 -.0864,-103.8742 -.0864,-103.8742 -.0864,-95.3743 -.0864,-95.3743 -.0864,-91.1244 4.1635,-86.8745 8.4134,-86.8745 8.4134,-86.8745 51.7589,-86.8745 51.7589,-86.8745 56.0089,-86.8745 60.2588,-91.1244 60.2588,-95.3743 60.2588,-95.3743 60.2588,-103.8742 60.2588,-103.8742 60.2588,-108.1241 56.0089,-112.374 51.7589,-112.374"/>
<text text-anchor="middle" x="30.0862" y="-96.2485" font-family="Arial" font-size="15.00" fill="#c6c5fe">me.tsx</text>
</g>
<!-- me.tsx&#45;&gt;../presenter/components/ecosystem/Me/Content.tsx -->
<g id="edge15" class="edge">
<title>me.tsx&#45;&gt;../presenter/components/ecosystem/Me/Content.tsx</title>
<path fill="none" stroke="#757575" d="M44.0656,-112.3461C56.6623,-122.9217 76.219,-137.2355 96.1724,-143.6243 257.8469,-195.3899 457.4883,-187.8876 577.4319,-176.2948"/>
<polygon fill="#757575" stroke="#757575" points="578.109,-179.7448 587.7134,-175.2721 577.4161,-172.7792 578.109,-179.7448"/>
</g>
<!-- me.tsx&#45;&gt;../presenter/components/ecosystem/Me/Exception.tsx -->
<g id="edge16" class="edge">
<title>me.tsx&#45;&gt;../presenter/components/ecosystem/Me/Exception.tsx</title>
<path fill="none" stroke="#757575" d="M60.4933,-102.278C78.1229,-103.8166 101.8082,-105.8837 127.1455,-108.0949"/>
<polygon fill="#757575" stroke="#757575" points="127.0461,-111.5995 137.3126,-108.9822 127.6548,-104.626 127.0461,-111.5995"/>
</g>
<!-- me.tsx&#45;&gt;../useCase/useMe/index.ts -->
<g id="edge17" class="edge">
<title>me.tsx&#45;&gt;../useCase/useMe/index.ts</title>
<path fill="none" stroke="#757575" d="M60.4933,-97.0912C89.225,-94.6977 134.0408,-90.9642 175.879,-87.4789"/>
<polygon fill="#757575" stroke="#757575" points="176.1993,-90.9644 185.8742,-86.6462 175.6181,-83.9886 176.1993,-90.9644"/>
</g>
<!-- type.ts -->
<g id="node17" class="node">
<title>type.ts</title>
<path fill="none" stroke="#cfffac" d="M303.8566,-48.374C303.8566,-48.374 260.4817,-48.374 260.4817,-48.374 256.2318,-48.374 251.9819,-44.1241 251.9819,-39.8742 251.9819,-39.8742 251.9819,-31.3743 251.9819,-31.3743 251.9819,-27.1244 256.2318,-22.8745 260.4817,-22.8745 260.4817,-22.8745 303.8566,-22.8745 303.8566,-22.8745 308.1066,-22.8745 312.3565,-27.1244 312.3565,-31.3743 312.3565,-31.3743 312.3565,-39.8742 312.3565,-39.8742 312.3565,-44.1241 308.1066,-48.374 303.8566,-48.374"/>
<text text-anchor="middle" x="282.1692" y="-32.2485" font-family="Arial" font-size="15.00" fill="#cfffac">type.ts</text>
</g>
<!-- me.tsx&#45;&gt;type.ts -->
<g id="edge18" class="edge">
<title>me.tsx&#45;&gt;type.ts</title>
<path fill="none" stroke="#757575" d="M45.01,-86.9792C57.7382,-76.9511 76.9762,-63.5149 96.1724,-56.6243 144.1186,-39.4134 203.0889,-35.4063 241.6034,-34.8858"/>
<polygon fill="#757575" stroke="#757575" points="241.9194,-38.3841 251.8979,-34.8234 241.8769,-31.3842 241.9194,-38.3841"/>
</g>
</g>
</svg>
