<?xml version="1.0" encoding="UTF-8" standalone="no"?>
<!DOCTYPE svg PUBLIC "-//W3C//DTD SVG 1.1//EN"
 "http://www.w3.org/Graphics/SVG/1.1/DTD/svg11.dtd">
<!-- Generated by graphviz version 2.40.1 (20161225.0304)
 -->
<!-- Title: G Pages: 1 -->
<svg width="1335pt" height="240pt"
 viewBox="0.00 0.00 1335.49 240.45" xmlns="http://www.w3.org/2000/svg" xmlns:xlink="http://www.w3.org/1999/xlink">
<g id="graph0" class="graph" transform="scale(1 1) rotate(0) translate(21.6 218.8485)">
<title>G</title>
<polygon fill="#111111" stroke="transparent" points="-21.6,21.6 -21.6,-218.8485 1313.8939,-218.8485 1313.8939,21.6 -21.6,21.6"/>
<!-- ../domain/me/index.ts -->
<g id="node1" class="node">
<title>../domain/me/index.ts</title>
<path fill="none" stroke="#c6c5fe" d="M332.3159,-154.374C332.3159,-154.374 191.1826,-154.374 191.1826,-154.374 186.9327,-154.374 182.6828,-150.1241 182.6828,-145.8742 182.6828,-145.8742 182.6828,-137.3743 182.6828,-137.3743 182.6828,-133.1244 186.9327,-128.8745 191.1826,-128.8745 191.1826,-128.8745 332.3159,-128.8745 332.3159,-128.8745 336.5659,-128.8745 340.8158,-133.1244 340.8158,-137.3743 340.8158,-137.3743 340.8158,-145.8742 340.8158,-145.8742 340.8158,-150.1241 336.5659,-154.374 332.3159,-154.374"/>
<text text-anchor="middle" x="261.7493" y="-138.2485" font-family="Arial" font-size="15.00" fill="#c6c5fe">../domain/me/index.ts</text>
</g>
<!-- ../domain/me/me.ts -->
<g id="node2" class="node">
<title>../domain/me/me.ts</title>
<path fill="none" stroke="#cfffac" d="M605.2291,-197.374C605.2291,-197.374 479.1395,-197.374 479.1395,-197.374 474.8896,-197.374 470.6397,-193.1241 470.6397,-188.8742 470.6397,-188.8742 470.6397,-180.3743 470.6397,-180.3743 470.6397,-176.1244 474.8896,-171.8745 479.1395,-171.8745 479.1395,-171.8745 605.2291,-171.8745 605.2291,-171.8745 609.4791,-171.8745 613.729,-176.1244 613.729,-180.3743 613.729,-180.3743 613.729,-188.8742 613.729,-188.8742 613.729,-193.1241 609.4791,-197.374 605.2291,-197.374"/>
<text text-anchor="middle" x="542.1843" y="-181.2485" font-family="Arial" font-size="15.00" fill="#cfffac">../domain/me/me.ts</text>
</g>
<!-- ../domain/me/index.ts&#45;&gt;../domain/me/me.ts -->
<g id="edge1" class="edge">
<title>../domain/me/index.ts&#45;&gt;../domain/me/me.ts</title>
<path fill="none" stroke="#757575" d="M340.9862,-153.7739C378.3054,-159.4962 422.782,-166.3159 460.4163,-172.0865"/>
<polygon fill="#757575" stroke="#757575" points="459.9167,-175.5507 470.3316,-173.6069 460.9776,-168.6316 459.9167,-175.5507"/>
</g>
<!-- ../domain/me/type.ts -->
<g id="node3" class="node">
<title>../domain/me/type.ts</title>
<path fill="none" stroke="#cfffac" d="M609.2431,-154.374C609.2431,-154.374 475.1256,-154.374 475.1256,-154.374 470.8756,-154.374 466.6257,-150.1241 466.6257,-145.8742 466.6257,-145.8742 466.6257,-137.3743 466.6257,-137.3743 466.6257,-133.1244 470.8756,-128.8745 475.1256,-128.8745 475.1256,-128.8745 609.2431,-128.8745 609.2431,-128.8745 613.493,-128.8745 617.7429,-133.1244 617.7429,-137.3743 617.7429,-137.3743 617.7429,-145.8742 617.7429,-145.8742 617.7429,-150.1241 613.493,-154.374 609.2431,-154.374"/>
<text text-anchor="middle" x="542.1843" y="-138.2485" font-family="Arial" font-size="15.00" fill="#cfffac">../domain/me/type.ts</text>
</g>
<!-- ../domain/me/index.ts&#45;&gt;../domain/me/type.ts -->
<g id="edge2" class="edge">
<title>../domain/me/index.ts&#45;&gt;../domain/me/type.ts</title>
<path fill="none" stroke="#757575" d="M340.9862,-141.6243C376.9622,-141.6243 419.5897,-141.6243 456.3268,-141.6243"/>
<polygon fill="#757575" stroke="#757575" points="456.5219,-145.1244 466.5219,-141.6243 456.5219,-138.1244 456.5219,-145.1244"/>
</g>
<!-- ../infra/api/http/client/client.ts -->
<g id="node4" class="node">
<title>../infra/api/http/client/client.ts</title>
<path fill="none" stroke="#cfffac" d="M1283.9232,-133.374C1283.9232,-133.374 1095.4069,-133.374 1095.4069,-133.374 1091.157,-133.374 1086.9071,-129.1241 1086.9071,-124.8742 1086.9071,-124.8742 1086.9071,-116.3743 1086.9071,-116.3743 1086.9071,-112.1244 1091.157,-107.8745 1095.4069,-107.8745 1095.4069,-107.8745 1283.9232,-107.8745 1283.9232,-107.8745 1288.1731,-107.8745 1292.423,-112.1244 1292.423,-116.3743 1292.423,-116.3743 1292.423,-124.8742 1292.423,-124.8742 1292.423,-129.1241 1288.1731,-133.374 1283.9232,-133.374"/>
<text text-anchor="middle" x="1189.665" y="-117.2485" font-family="Arial" font-size="15.00" fill="#cfffac">../infra/api/http/client/client.ts</text>
</g>
<!-- ../infra/api/http/client/index.ts -->
<g id="node5" class="node">
<title>../infra/api/http/client/index.ts</title>
<path fill="none" stroke="#c6c5fe" d="M1042.5864,-133.374C1042.5864,-133.374 853.3858,-133.374 853.3858,-133.374 849.1359,-133.374 844.886,-129.1241 844.886,-124.8742 844.886,-124.8742 844.886,-116.3743 844.886,-116.3743 844.886,-112.1244 849.1359,-107.8745 853.3858,-107.8745 853.3858,-107.8745 1042.5864,-107.8745 1042.5864,-107.8745 1046.8363,-107.8745 1051.0862,-112.1244 1051.0862,-116.3743 1051.0862,-116.3743 1051.0862,-124.8742 1051.0862,-124.8742 1051.0862,-129.1241 1046.8363,-133.374 1042.5864,-133.374"/>
<text text-anchor="middle" x="947.9861" y="-117.2485" font-family="Arial" font-size="15.00" fill="#c6c5fe">../infra/api/http/client/index.ts</text>
</g>
<!-- ../infra/api/http/client/index.ts&#45;&gt;../infra/api/http/client/client.ts -->
<g id="edge3" class="edge">
<title>../infra/api/http/client/index.ts&#45;&gt;../infra/api/http/client/client.ts</title>
<path fill="none" stroke="#757575" d="M1051.1807,-120.6243C1059.6643,-120.6243 1068.2665,-120.6243 1076.8151,-120.6243"/>
<polygon fill="#757575" stroke="#757575" points="1076.8155,-124.1244 1086.8155,-120.6243 1076.8155,-117.1244 1076.8155,-124.1244"/>
</g>
<!-- ../infra/api/http/client/util.ts -->
<g id="node6" class="node">
<title>../infra/api/http/client/util.ts</title>
<path fill="none" stroke="#cfffac" d="M1034.4022,-90.374C1034.4022,-90.374 861.5699,-90.374 861.5699,-90.374 857.32,-90.374 853.0701,-86.1241 853.0701,-81.8742 853.0701,-81.8742 853.0701,-73.3743 853.0701,-73.3743 853.0701,-69.1244 857.32,-64.8745 861.5699,-64.8745 861.5699,-64.8745 1034.4022,-64.8745 1034.4022,-64.8745 1038.6521,-64.8745 1042.9021,-69.1244 1042.9021,-73.3743 1042.9021,-73.3743 1042.9021,-81.8742 1042.9021,-81.8742 1042.9021,-86.1241 1038.6521,-90.374 1034.4022,-90.374"/>
<text text-anchor="middle" x="947.9861" y="-74.2485" font-family="Arial" font-size="15.00" fill="#cfffac">../infra/api/http/client/util.ts</text>
</g>
<!-- ../infra/api/http/me.ts -->
<g id="node7" class="node">
<title>../infra/api/http/me.ts</title>
<path fill="none" stroke="#c6c5fe" d="M800.383,-111.374C800.383,-111.374 665.5955,-111.374 665.5955,-111.374 661.3456,-111.374 657.0957,-107.1241 657.0957,-102.8742 657.0957,-102.8742 657.0957,-94.3743 657.0957,-94.3743 657.0957,-90.1244 661.3456,-85.8745 665.5955,-85.8745 665.5955,-85.8745 800.383,-85.8745 800.383,-85.8745 804.6329,-85.8745 808.8828,-90.1244 808.8828,-94.3743 808.8828,-94.3743 808.8828,-102.8742 808.8828,-102.8742 808.8828,-107.1241 804.6329,-111.374 800.383,-111.374"/>
<text text-anchor="middle" x="732.9893" y="-95.2485" font-family="Arial" font-size="15.00" fill="#c6c5fe">../infra/api/http/me.ts</text>
</g>
<!-- ../infra/api/http/me.ts&#45;&gt;../infra/api/http/client/index.ts -->
<g id="edge4" class="edge">
<title>../infra/api/http/me.ts&#45;&gt;../infra/api/http/client/index.ts</title>
<path fill="none" stroke="#757575" d="M809.0917,-106.4116C817.4266,-107.2645 826.0376,-108.1456 834.6989,-109.0319"/>
<polygon fill="#757575" stroke="#757575" points="834.5716,-112.5371 844.876,-110.0733 835.2843,-105.5735 834.5716,-112.5371"/>
</g>
<!-- ../infra/api/http/me.ts&#45;&gt;../infra/api/http/client/util.ts -->
<g id="edge5" class="edge">
<title>../infra/api/http/me.ts&#45;&gt;../infra/api/http/client/util.ts</title>
<path fill="none" stroke="#757575" d="M809.0917,-91.1909C820.1162,-90.1141 831.6237,-88.9901 843.0917,-87.8699"/>
<polygon fill="#757575" stroke="#757575" points="843.534,-91.3435 853.1463,-86.8878 842.8534,-84.3766 843.534,-91.3435"/>
</g>
<!-- ../infra/repo/me/index.ts -->
<g id="node8" class="node">
<title>../infra/repo/me/index.ts</title>
<path fill="none" stroke="#c6c5fe" d="M339.4879,-111.374C339.4879,-111.374 184.0106,-111.374 184.0106,-111.374 179.7607,-111.374 175.5108,-107.1241 175.5108,-102.8742 175.5108,-102.8742 175.5108,-94.3743 175.5108,-94.3743 175.5108,-90.1244 179.7607,-85.8745 184.0106,-85.8745 184.0106,-85.8745 339.4879,-85.8745 339.4879,-85.8745 343.7378,-85.8745 347.9877,-90.1244 347.9877,-94.3743 347.9877,-94.3743 347.9877,-102.8742 347.9877,-102.8742 347.9877,-107.1241 343.7378,-111.374 339.4879,-111.374"/>
<text text-anchor="middle" x="261.7493" y="-95.2485" font-family="Arial" font-size="15.00" fill="#c6c5fe">../infra/repo/me/index.ts</text>
</g>
<!-- ../infra/repo/me/me.ts -->
<g id="node9" class="node">
<title>../infra/repo/me/me.ts</title>
<path fill="none" stroke="#c6c5fe" d="M612.401,-111.374C612.401,-111.374 471.9676,-111.374 471.9676,-111.374 467.7177,-111.374 463.4678,-107.1241 463.4678,-102.8742 463.4678,-102.8742 463.4678,-94.3743 463.4678,-94.3743 463.4678,-90.1244 467.7177,-85.8745 471.9676,-85.8745 471.9676,-85.8745 612.401,-85.8745 612.401,-85.8745 616.651,-85.8745 620.9009,-90.1244 620.9009,-94.3743 620.9009,-94.3743 620.9009,-102.8742 620.9009,-102.8742 620.9009,-107.1241 616.651,-111.374 612.401,-111.374"/>
<text text-anchor="middle" x="542.1843" y="-95.2485" font-family="Arial" font-size="15.00" fill="#c6c5fe">../infra/repo/me/me.ts</text>
</g>
<!-- ../infra/repo/me/index.ts&#45;&gt;../infra/repo/me/me.ts -->
<g id="edge6" class="edge">
<title>../infra/repo/me/index.ts&#45;&gt;../infra/repo/me/me.ts</title>
<path fill="none" stroke="#757575" d="M348.1773,-98.6243C381.4304,-98.6243 419.4408,-98.6243 452.9529,-98.6243"/>
<polygon fill="#757575" stroke="#757575" points="453.1986,-102.1244 463.1986,-98.6243 453.1986,-95.1244 453.1986,-102.1244"/>
</g>
<!-- ../infra/repo/me/me.ts&#45;&gt;../infra/api/http/me.ts -->
<g id="edge7" class="edge">
<title>../infra/repo/me/me.ts&#45;&gt;../infra/api/http/me.ts</title>
<path fill="none" stroke="#757575" d="M621.1693,-98.6243C629.5514,-98.6243 638.1077,-98.6243 646.569,-98.6243"/>
<polygon fill="#757575" stroke="#757575" points="646.8247,-102.1244 656.8246,-98.6243 646.8246,-95.1244 646.8247,-102.1244"/>
</g>
<!-- ../ui/components/environment/Me/Content.tsx -->
<g id="node10" class="node">
<title>../ui/components/environment/Me/Content.tsx</title>
<path fill="none" stroke="#cfffac" d="M412.0659,-68.374C412.0659,-68.374 111.4327,-68.374 111.4327,-68.374 107.1827,-68.374 102.9328,-64.1241 102.9328,-59.8742 102.9328,-59.8742 102.9328,-51.3743 102.9328,-51.3743 102.9328,-47.1244 107.1827,-42.8745 111.4327,-42.8745 111.4327,-42.8745 412.0659,-42.8745 412.0659,-42.8745 416.3158,-42.8745 420.5657,-47.1244 420.5657,-51.3743 420.5657,-51.3743 420.5657,-59.8742 420.5657,-59.8742 420.5657,-64.1241 416.3158,-68.374 412.0659,-68.374"/>
<text text-anchor="middle" x="261.7493" y="-52.2485" font-family="Arial" font-size="15.00" fill="#cfffac">../ui/components/environment/Me/Content.tsx</text>
</g>
<!-- ../ui/components/environment/Me/Exception.tsx -->
<g id="node11" class="node">
<title>../ui/components/environment/Me/Exception.tsx</title>
<path fill="none" stroke="#cfffac" d="M418.9033,-25.374C418.9033,-25.374 104.5953,-25.374 104.5953,-25.374 100.3453,-25.374 96.0954,-21.1241 96.0954,-16.8742 96.0954,-16.8742 96.0954,-8.3743 96.0954,-8.3743 96.0954,-4.1244 100.3453,.1255 104.5953,.1255 104.5953,.1255 418.9033,.1255 418.9033,.1255 423.1532,.1255 427.4031,-4.1244 427.4031,-8.3743 427.4031,-8.3743 427.4031,-16.8742 427.4031,-16.8742 427.4031,-21.1241 423.1532,-25.374 418.9033,-25.374"/>
<text text-anchor="middle" x="261.7493" y="-9.2485" font-family="Arial" font-size="15.00" fill="#cfffac">../ui/components/environment/Me/Exception.tsx</text>
</g>
<!-- me.tsx -->
<g id="node12" class="node">
<title>me.tsx</title>
<path fill="none" stroke="#c6c5fe" d="M51.7589,-89.374C51.7589,-89.374 8.4134,-89.374 8.4134,-89.374 4.1635,-89.374 -.0864,-85.1241 -.0864,-80.8742 -.0864,-80.8742 -.0864,-72.3743 -.0864,-72.3743 -.0864,-68.1244 4.1635,-63.8745 8.4134,-63.8745 8.4134,-63.8745 51.7589,-63.8745 51.7589,-63.8745 56.0089,-63.8745 60.2588,-68.1244 60.2588,-72.3743 60.2588,-72.3743 60.2588,-80.8742 60.2588,-80.8742 60.2588,-85.1241 56.0089,-89.374 51.7589,-89.374"/>
<text text-anchor="middle" x="30.0862" y="-73.2485" font-family="Arial" font-size="15.00" fill="#c6c5fe">me.tsx</text>
</g>
<!-- me.tsx&#45;&gt;../domain/me/index.ts -->
<g id="edge8" class="edge">
<title>me.tsx&#45;&gt;../domain/me/index.ts</title>
<path fill="none" stroke="#757575" d="M44.7296,-89.2941C57.4398,-99.5381 76.7989,-113.4032 96.1724,-120.6243 120.1421,-129.5585 147.2705,-134.8281 172.5285,-137.8982"/>
<polygon fill="#757575" stroke="#757575" points="172.1499,-141.3776 182.4763,-139.0079 172.9261,-134.4207 172.1499,-141.3776"/>
</g>
<!-- me.tsx&#45;&gt;../infra/repo/me/index.ts -->
<g id="edge9" class="edge">
<title>me.tsx&#45;&gt;../infra/repo/me/index.ts</title>
<path fill="none" stroke="#757575" d="M60.3721,-79.5004C87.1112,-82.0397 127.5919,-85.8839 165.2632,-89.4614"/>
<polygon fill="#757575" stroke="#757575" points="164.9971,-92.9518 175.2832,-90.413 165.6589,-85.9832 164.9971,-92.9518"/>
</g>
<!-- me.tsx&#45;&gt;../ui/components/environment/Me/Content.tsx -->
<g id="edge10" class="edge">
<title>me.tsx&#45;&gt;../ui/components/environment/Me/Content.tsx</title>
<path fill="none" stroke="#757575" d="M60.3721,-73.8789C74.6412,-72.5854 92.8237,-70.9372 112.4042,-69.1622"/>
<polygon fill="#757575" stroke="#757575" points="112.7929,-72.6414 122.4361,-68.2529 112.1609,-65.67 112.7929,-72.6414"/>
</g>
<!-- me.tsx&#45;&gt;../ui/components/environment/Me/Exception.tsx -->
<g id="edge11" class="edge">
<title>me.tsx&#45;&gt;../ui/components/environment/Me/Exception.tsx</title>
<path fill="none" stroke="#757575" d="M45.2924,-63.8466C58.0365,-53.8814 77.1525,-40.5994 96.1724,-33.6243 101.8364,-31.5471 107.6744,-29.6689 113.6205,-27.971"/>
<polygon fill="#757575" stroke="#757575" points="114.9562,-31.2373 123.7179,-25.2806 113.1538,-24.4733 114.9562,-31.2373"/>
</g>
</g>
</svg>
