<?xml version="1.0" encoding="UTF-8" standalone="no"?>
<!DOCTYPE svg PUBLIC "-//W3C//DTD SVG 1.1//EN"
 "http://www.w3.org/Graphics/SVG/1.1/DTD/svg11.dtd">
<!-- Generated by graphviz version 2.40.1 (20161225.0304)
 -->
<!-- Title: G Pages: 1 -->
<svg width="1249pt" height="240pt"
 viewBox="0.00 0.00 1248.78 240.45" xmlns="http://www.w3.org/2000/svg" xmlns:xlink="http://www.w3.org/1999/xlink">
<g id="graph0" class="graph" transform="scale(1 1) rotate(0) translate(21.6 218.8485)">
<title>G</title>
<polygon fill="#111111" stroke="transparent" points="-21.6,21.6 -21.6,-218.8485 1227.1825,-218.8485 1227.1825,21.6 -21.6,21.6"/>
<!-- ../domain/me/index.ts -->
<g id="node1" class="node">
<title>../domain/me/index.ts</title>
<path fill="none" stroke="#c6c5fe" d="M288.9602,-154.374C288.9602,-154.374 147.8269,-154.374 147.8269,-154.374 143.577,-154.374 139.327,-150.1241 139.327,-145.8742 139.327,-145.8742 139.327,-137.3743 139.327,-137.3743 139.327,-133.1244 143.577,-128.8745 147.8269,-128.8745 147.8269,-128.8745 288.9602,-128.8745 288.9602,-128.8745 293.2101,-128.8745 297.4601,-133.1244 297.4601,-137.3743 297.4601,-137.3743 297.4601,-145.8742 297.4601,-145.8742 297.4601,-150.1241 293.2101,-154.374 288.9602,-154.374"/>
<text text-anchor="middle" x="218.3936" y="-138.2485" font-family="Arial" font-size="15.00" fill="#c6c5fe">../domain/me/index.ts</text>
</g>
<!-- ../domain/me/me.ts -->
<g id="node2" class="node">
<title>../domain/me/me.ts</title>
<path fill="none" stroke="#cfffac" d="M518.5177,-197.374C518.5177,-197.374 392.4281,-197.374 392.4281,-197.374 388.1782,-197.374 383.9282,-193.1241 383.9282,-188.8742 383.9282,-188.8742 383.9282,-180.3743 383.9282,-180.3743 383.9282,-176.1244 388.1782,-171.8745 392.4281,-171.8745 392.4281,-171.8745 518.5177,-171.8745 518.5177,-171.8745 522.7676,-171.8745 527.0176,-176.1244 527.0176,-180.3743 527.0176,-180.3743 527.0176,-188.8742 527.0176,-188.8742 527.0176,-193.1241 522.7676,-197.374 518.5177,-197.374"/>
<text text-anchor="middle" x="455.4729" y="-181.2485" font-family="Arial" font-size="15.00" fill="#cfffac">../domain/me/me.ts</text>
</g>
<!-- ../domain/me/index.ts&#45;&gt;../domain/me/me.ts -->
<g id="edge1" class="edge">
<title>../domain/me/index.ts&#45;&gt;../domain/me/me.ts</title>
<path fill="none" stroke="#757575" d="M288.2429,-154.2931C315.7337,-159.2792 347.4532,-165.0323 375.8286,-170.1789"/>
<polygon fill="#757575" stroke="#757575" points="375.2494,-173.6308 385.7135,-171.9717 376.4987,-166.7432 375.2494,-173.6308"/>
</g>
<!-- ../domain/me/type.ts -->
<g id="node3" class="node">
<title>../domain/me/type.ts</title>
<path fill="none" stroke="#cfffac" d="M522.5317,-154.374C522.5317,-154.374 388.4141,-154.374 388.4141,-154.374 384.1642,-154.374 379.9143,-150.1241 379.9143,-145.8742 379.9143,-145.8742 379.9143,-137.3743 379.9143,-137.3743 379.9143,-133.1244 384.1642,-128.8745 388.4141,-128.8745 388.4141,-128.8745 522.5317,-128.8745 522.5317,-128.8745 526.7816,-128.8745 531.0315,-133.1244 531.0315,-137.3743 531.0315,-137.3743 531.0315,-145.8742 531.0315,-145.8742 531.0315,-150.1241 526.7816,-154.374 522.5317,-154.374"/>
<text text-anchor="middle" x="455.4729" y="-138.2485" font-family="Arial" font-size="15.00" fill="#cfffac">../domain/me/type.ts</text>
</g>
<!-- ../domain/me/index.ts&#45;&gt;../domain/me/type.ts -->
<g id="edge2" class="edge">
<title>../domain/me/index.ts&#45;&gt;../domain/me/type.ts</title>
<path fill="none" stroke="#757575" d="M297.6672,-141.6243C320.7671,-141.6243 346.1097,-141.6243 369.5968,-141.6243"/>
<polygon fill="#757575" stroke="#757575" points="369.8886,-145.1244 379.8886,-141.6243 369.8886,-138.1244 369.8886,-145.1244"/>
</g>
<!-- ../infra/api/http/client/client.ts -->
<g id="node4" class="node">
<title>../infra/api/http/client/client.ts</title>
<path fill="none" stroke="#cfffac" d="M1197.2117,-133.374C1197.2117,-133.374 1008.6955,-133.374 1008.6955,-133.374 1004.4456,-133.374 1000.1956,-129.1241 1000.1956,-124.8742 1000.1956,-124.8742 1000.1956,-116.3743 1000.1956,-116.3743 1000.1956,-112.1244 1004.4456,-107.8745 1008.6955,-107.8745 1008.6955,-107.8745 1197.2117,-107.8745 1197.2117,-107.8745 1201.4617,-107.8745 1205.7116,-112.1244 1205.7116,-116.3743 1205.7116,-116.3743 1205.7116,-124.8742 1205.7116,-124.8742 1205.7116,-129.1241 1201.4617,-133.374 1197.2117,-133.374"/>
<text text-anchor="middle" x="1102.9536" y="-117.2485" font-family="Arial" font-size="15.00" fill="#cfffac">../infra/api/http/client/client.ts</text>
</g>
<!-- ../infra/api/http/client/index.ts -->
<g id="node5" class="node">
<title>../infra/api/http/client/index.ts</title>
<path fill="none" stroke="#c6c5fe" d="M955.8749,-133.374C955.8749,-133.374 766.6744,-133.374 766.6744,-133.374 762.4245,-133.374 758.1745,-129.1241 758.1745,-124.8742 758.1745,-124.8742 758.1745,-116.3743 758.1745,-116.3743 758.1745,-112.1244 762.4245,-107.8745 766.6744,-107.8745 766.6744,-107.8745 955.8749,-107.8745 955.8749,-107.8745 960.1249,-107.8745 964.3748,-112.1244 964.3748,-116.3743 964.3748,-116.3743 964.3748,-124.8742 964.3748,-124.8742 964.3748,-129.1241 960.1249,-133.374 955.8749,-133.374"/>
<text text-anchor="middle" x="861.2747" y="-117.2485" font-family="Arial" font-size="15.00" fill="#c6c5fe">../infra/api/http/client/index.ts</text>
</g>
<!-- ../infra/api/http/client/index.ts&#45;&gt;../infra/api/http/client/client.ts -->
<g id="edge3" class="edge">
<title>../infra/api/http/client/index.ts&#45;&gt;../infra/api/http/client/client.ts</title>
<path fill="none" stroke="#757575" d="M964.4693,-120.6243C972.9529,-120.6243 981.5551,-120.6243 990.1037,-120.6243"/>
<polygon fill="#757575" stroke="#757575" points="990.1041,-124.1244 1000.1041,-120.6243 990.104,-117.1244 990.1041,-124.1244"/>
</g>
<!-- ../infra/api/http/client/util.ts -->
<g id="node6" class="node">
<title>../infra/api/http/client/util.ts</title>
<path fill="none" stroke="#cfffac" d="M947.6908,-90.374C947.6908,-90.374 774.8585,-90.374 774.8585,-90.374 770.6086,-90.374 766.3587,-86.1241 766.3587,-81.8742 766.3587,-81.8742 766.3587,-73.3743 766.3587,-73.3743 766.3587,-69.1244 770.6086,-64.8745 774.8585,-64.8745 774.8585,-64.8745 947.6908,-64.8745 947.6908,-64.8745 951.9407,-64.8745 956.1906,-69.1244 956.1906,-73.3743 956.1906,-73.3743 956.1906,-81.8742 956.1906,-81.8742 956.1906,-86.1241 951.9407,-90.374 947.6908,-90.374"/>
<text text-anchor="middle" x="861.2747" y="-74.2485" font-family="Arial" font-size="15.00" fill="#cfffac">../infra/api/http/client/util.ts</text>
</g>
<!-- ../infra/api/http/me.ts -->
<g id="node7" class="node">
<title>../infra/api/http/me.ts</title>
<path fill="none" stroke="#c6c5fe" d="M713.6716,-111.374C713.6716,-111.374 578.8841,-111.374 578.8841,-111.374 574.6342,-111.374 570.3842,-107.1241 570.3842,-102.8742 570.3842,-102.8742 570.3842,-94.3743 570.3842,-94.3743 570.3842,-90.1244 574.6342,-85.8745 578.8841,-85.8745 578.8841,-85.8745 713.6716,-85.8745 713.6716,-85.8745 717.9215,-85.8745 722.1714,-90.1244 722.1714,-94.3743 722.1714,-94.3743 722.1714,-102.8742 722.1714,-102.8742 722.1714,-107.1241 717.9215,-111.374 713.6716,-111.374"/>
<text text-anchor="middle" x="646.2778" y="-95.2485" font-family="Arial" font-size="15.00" fill="#c6c5fe">../infra/api/http/me.ts</text>
</g>
<!-- ../infra/api/http/me.ts&#45;&gt;../infra/api/http/client/index.ts -->
<g id="edge4" class="edge">
<title>../infra/api/http/me.ts&#45;&gt;../infra/api/http/client/index.ts</title>
<path fill="none" stroke="#757575" d="M722.3802,-106.4116C730.7152,-107.2645 739.3262,-108.1456 747.9875,-109.0319"/>
<polygon fill="#757575" stroke="#757575" points="747.8602,-112.5371 758.1646,-110.0733 748.5729,-105.5735 747.8602,-112.5371"/>
</g>
<!-- ../infra/api/http/me.ts&#45;&gt;../infra/api/http/client/util.ts -->
<g id="edge5" class="edge">
<title>../infra/api/http/me.ts&#45;&gt;../infra/api/http/client/util.ts</title>
<path fill="none" stroke="#757575" d="M722.3802,-91.1909C733.4048,-90.1141 744.9123,-88.9901 756.3803,-87.8699"/>
<polygon fill="#757575" stroke="#757575" points="756.8225,-91.3435 766.4349,-86.8878 756.142,-84.3766 756.8225,-91.3435"/>
</g>
<!-- ../infra/repo/me/index.ts -->
<g id="node8" class="node">
<title>../infra/repo/me/index.ts</title>
<path fill="none" stroke="#c6c5fe" d="M296.1322,-111.374C296.1322,-111.374 140.6549,-111.374 140.6549,-111.374 136.405,-111.374 132.1551,-107.1241 132.1551,-102.8742 132.1551,-102.8742 132.1551,-94.3743 132.1551,-94.3743 132.1551,-90.1244 136.405,-85.8745 140.6549,-85.8745 140.6549,-85.8745 296.1322,-85.8745 296.1322,-85.8745 300.3821,-85.8745 304.632,-90.1244 304.632,-94.3743 304.632,-94.3743 304.632,-102.8742 304.632,-102.8742 304.632,-107.1241 300.3821,-111.374 296.1322,-111.374"/>
<text text-anchor="middle" x="218.3936" y="-95.2485" font-family="Arial" font-size="15.00" fill="#c6c5fe">../infra/repo/me/index.ts</text>
</g>
<!-- ../infra/repo/me/me.ts -->
<g id="node9" class="node">
<title>../infra/repo/me/me.ts</title>
<path fill="none" stroke="#c6c5fe" d="M525.6896,-111.374C525.6896,-111.374 385.2562,-111.374 385.2562,-111.374 381.0063,-111.374 376.7563,-107.1241 376.7563,-102.8742 376.7563,-102.8742 376.7563,-94.3743 376.7563,-94.3743 376.7563,-90.1244 381.0063,-85.8745 385.2562,-85.8745 385.2562,-85.8745 525.6896,-85.8745 525.6896,-85.8745 529.9395,-85.8745 534.1895,-90.1244 534.1895,-94.3743 534.1895,-94.3743 534.1895,-102.8742 534.1895,-102.8742 534.1895,-107.1241 529.9395,-111.374 525.6896,-111.374"/>
<text text-anchor="middle" x="455.4729" y="-95.2485" font-family="Arial" font-size="15.00" fill="#c6c5fe">../infra/repo/me/me.ts</text>
</g>
<!-- ../infra/repo/me/index.ts&#45;&gt;../infra/repo/me/me.ts -->
<g id="edge6" class="edge">
<title>../infra/repo/me/index.ts&#45;&gt;../infra/repo/me/me.ts</title>
<path fill="none" stroke="#757575" d="M304.6553,-98.6243C324.8157,-98.6243 346.3245,-98.6243 366.5964,-98.6243"/>
<polygon fill="#757575" stroke="#757575" points="366.7528,-102.1244 376.7528,-98.6243 366.7527,-95.1244 366.7528,-102.1244"/>
</g>
<!-- ../infra/repo/me/me.ts&#45;&gt;../infra/api/http/me.ts -->
<g id="edge7" class="edge">
<title>../infra/repo/me/me.ts&#45;&gt;../infra/api/http/me.ts</title>
<path fill="none" stroke="#757575" d="M534.4579,-98.6243C542.8399,-98.6243 551.3963,-98.6243 559.8576,-98.6243"/>
<polygon fill="#757575" stroke="#757575" points="560.1132,-102.1244 570.1132,-98.6243 560.1132,-95.1244 560.1132,-102.1244"/>
</g>
<!-- ../ui/components/Me/Content.tsx -->
<g id="node10" class="node">
<title>../ui/components/Me/Content.tsx</title>
<path fill="none" stroke="#cfffac" d="M325.4987,-68.374C325.4987,-68.374 111.2884,-68.374 111.2884,-68.374 107.0385,-68.374 102.7886,-64.1241 102.7886,-59.8742 102.7886,-59.8742 102.7886,-51.3743 102.7886,-51.3743 102.7886,-47.1244 107.0385,-42.8745 111.2884,-42.8745 111.2884,-42.8745 325.4987,-42.8745 325.4987,-42.8745 329.7486,-42.8745 333.9986,-47.1244 333.9986,-51.3743 333.9986,-51.3743 333.9986,-59.8742 333.9986,-59.8742 333.9986,-64.1241 329.7486,-68.374 325.4987,-68.374"/>
<text text-anchor="middle" x="218.3936" y="-52.2485" font-family="Arial" font-size="15.00" fill="#cfffac">../ui/components/Me/Content.tsx</text>
</g>
<!-- ../ui/components/Me/Exception.tsx -->
<g id="node11" class="node">
<title>../ui/components/Me/Exception.tsx</title>
<path fill="none" stroke="#cfffac" d="M332.3365,-25.374C332.3365,-25.374 104.4506,-25.374 104.4506,-25.374 100.2007,-25.374 95.9508,-21.1241 95.9508,-16.8742 95.9508,-16.8742 95.9508,-8.3743 95.9508,-8.3743 95.9508,-4.1244 100.2007,.1255 104.4506,.1255 104.4506,.1255 332.3365,.1255 332.3365,.1255 336.5864,.1255 340.8363,-4.1244 340.8363,-8.3743 340.8363,-8.3743 340.8363,-16.8742 340.8363,-16.8742 340.8363,-21.1241 336.5864,-25.374 332.3365,-25.374"/>
<text text-anchor="middle" x="218.3936" y="-9.2485" font-family="Arial" font-size="15.00" fill="#cfffac">../ui/components/Me/Exception.tsx</text>
</g>
<!-- me.tsx -->
<g id="node12" class="node">
<title>me.tsx</title>
<path fill="none" stroke="#c6c5fe" d="M51.7589,-89.374C51.7589,-89.374 8.4134,-89.374 8.4134,-89.374 4.1635,-89.374 -.0864,-85.1241 -.0864,-80.8742 -.0864,-80.8742 -.0864,-72.3743 -.0864,-72.3743 -.0864,-68.1244 4.1635,-63.8745 8.4134,-63.8745 8.4134,-63.8745 51.7589,-63.8745 51.7589,-63.8745 56.0089,-63.8745 60.2588,-68.1244 60.2588,-72.3743 60.2588,-72.3743 60.2588,-80.8742 60.2588,-80.8742 60.2588,-85.1241 56.0089,-89.374 51.7589,-89.374"/>
<text text-anchor="middle" x="30.0862" y="-73.2485" font-family="Arial" font-size="15.00" fill="#c6c5fe">me.tsx</text>
</g>
<!-- me.tsx&#45;&gt;../domain/me/index.ts -->
<g id="edge8" class="edge">
<title>me.tsx&#45;&gt;../domain/me/index.ts</title>
<path fill="none" stroke="#757575" d="M45.0698,-89.2785C57.8337,-99.3702 77.0905,-113.0297 96.1724,-120.6243 106.6157,-124.7807 117.8827,-128.1152 129.2029,-130.7902"/>
<polygon fill="#757575" stroke="#757575" points="128.6271,-134.2472 139.1453,-132.9753 130.1297,-127.4103 128.6271,-134.2472"/>
</g>
<!-- me.tsx&#45;&gt;../infra/repo/me/index.ts -->
<g id="edge9" class="edge">
<title>me.tsx&#45;&gt;../infra/repo/me/index.ts</title>
<path fill="none" stroke="#757575" d="M60.341,-80.1589C77.3669,-82.1481 99.6711,-84.7539 122.1351,-87.3784"/>
<polygon fill="#757575" stroke="#757575" points="121.7632,-90.8586 132.1018,-88.5428 122.5755,-83.9059 121.7632,-90.8586"/>
</g>
<!-- me.tsx&#45;&gt;../ui/components/Me/Content.tsx -->
<g id="edge10" class="edge">
<title>me.tsx&#45;&gt;../ui/components/Me/Content.tsx</title>
<path fill="none" stroke="#757575" d="M60.341,-73.2503C70.3493,-72.1341 82.1814,-70.8146 94.7977,-69.4077"/>
<polygon fill="#757575" stroke="#757575" points="95.5136,-72.8496 105.064,-68.2628 94.7377,-65.8927 95.5136,-72.8496"/>
</g>
<!-- me.tsx&#45;&gt;../ui/components/Me/Exception.tsx -->
<g id="edge11" class="edge">
<title>me.tsx&#45;&gt;../ui/components/Me/Exception.tsx</title>
<path fill="none" stroke="#757575" d="M45.637,-63.8693C58.4285,-54.0546 77.438,-40.9662 96.1724,-33.6243 101.3717,-31.5867 106.7721,-29.7464 112.2794,-28.0844"/>
<polygon fill="#757575" stroke="#757575" points="113.6024,-31.3486 122.2878,-25.2811 111.7144,-24.608 113.6024,-31.3486"/>
</g>
</g>
</svg>
