<?xml version="1.0" encoding="UTF-8" standalone="no"?>
<!DOCTYPE svg PUBLIC "-//W3C//DTD SVG 1.1//EN"
 "http://www.w3.org/Graphics/SVG/1.1/DTD/svg11.dtd">
<!-- Generated by graphviz version 2.40.1 (20161225.0304)
 -->
<!-- Title: G Pages: 1 -->
<svg width="2387pt" height="224pt"
 viewBox="0.00 0.00 2386.94 224.11" xmlns="http://www.w3.org/2000/svg" xmlns:xlink="http://www.w3.org/1999/xlink">
<g id="graph0" class="graph" transform="scale(1 1) rotate(0) translate(21.6 202.5084)">
<title>G</title>
<polygon fill="#111111" stroke="transparent" points="-21.6,21.6 -21.6,-202.5084 2365.3383,-202.5084 2365.3383,21.6 -21.6,21.6"/>
<!-- ../domain/me/index.ts -->
<g id="node1" class="node">
<title>../domain/me/index.ts</title>
<path fill="none" stroke="#c6c5fe" d="M1215.7171,-89.374C1215.7171,-89.374 1074.5837,-89.374 1074.5837,-89.374 1070.3338,-89.374 1066.0839,-85.1241 1066.0839,-80.8742 1066.0839,-80.8742 1066.0839,-72.3743 1066.0839,-72.3743 1066.0839,-68.1244 1070.3338,-63.8745 1074.5837,-63.8745 1074.5837,-63.8745 1215.7171,-63.8745 1215.7171,-63.8745 1219.967,-63.8745 1224.2169,-68.1244 1224.2169,-72.3743 1224.2169,-72.3743 1224.2169,-80.8742 1224.2169,-80.8742 1224.2169,-85.1241 1219.967,-89.374 1215.7171,-89.374"/>
<text text-anchor="middle" x="1145.1504" y="-73.2485" font-family="Arial" font-size="15.00" fill="#c6c5fe">../domain/me/index.ts</text>
</g>
<!-- ../domain/me/me.ts -->
<g id="node2" class="node">
<title>../domain/me/me.ts</title>
<path fill="none" stroke="#cfffac" d="M1412.3485,-132.374C1412.3485,-132.374 1286.2589,-132.374 1286.2589,-132.374 1282.009,-132.374 1277.759,-128.1241 1277.759,-123.8742 1277.759,-123.8742 1277.759,-115.3743 1277.759,-115.3743 1277.759,-111.1244 1282.009,-106.8745 1286.2589,-106.8745 1286.2589,-106.8745 1412.3485,-106.8745 1412.3485,-106.8745 1416.5985,-106.8745 1420.8484,-111.1244 1420.8484,-115.3743 1420.8484,-115.3743 1420.8484,-123.8742 1420.8484,-123.8742 1420.8484,-128.1241 1416.5985,-132.374 1412.3485,-132.374"/>
<text text-anchor="middle" x="1349.3037" y="-116.2485" font-family="Arial" font-size="15.00" fill="#cfffac">../domain/me/me.ts</text>
</g>
<!-- ../domain/me/index.ts&#45;&gt;../domain/me/me.ts -->
<g id="edge1" class="edge">
<title>../domain/me/index.ts&#45;&gt;../domain/me/me.ts</title>
<path fill="none" stroke="#757575" d="M1205.2989,-89.2931C1228.5583,-94.1921 1255.3329,-99.8316 1279.4376,-104.9086"/>
<polygon fill="#757575" stroke="#757575" points="1278.7259,-108.3355 1289.2326,-106.9717 1280.1687,-101.4858 1278.7259,-108.3355"/>
</g>
<!-- ../domain/me/type.ts -->
<g id="node3" class="node">
<title>../domain/me/type.ts</title>
<path fill="none" stroke="#cfffac" d="M1416.3625,-89.374C1416.3625,-89.374 1282.245,-89.374 1282.245,-89.374 1277.995,-89.374 1273.7451,-85.1241 1273.7451,-80.8742 1273.7451,-80.8742 1273.7451,-72.3743 1273.7451,-72.3743 1273.7451,-68.1244 1277.995,-63.8745 1282.245,-63.8745 1282.245,-63.8745 1416.3625,-63.8745 1416.3625,-63.8745 1420.6124,-63.8745 1424.8623,-68.1244 1424.8623,-72.3743 1424.8623,-72.3743 1424.8623,-80.8742 1424.8623,-80.8742 1424.8623,-85.1241 1420.6124,-89.374 1416.3625,-89.374"/>
<text text-anchor="middle" x="1349.3037" y="-73.2485" font-family="Arial" font-size="15.00" fill="#cfffac">../domain/me/type.ts</text>
</g>
<!-- ../domain/me/index.ts&#45;&gt;../domain/me/type.ts -->
<g id="edge2" class="edge">
<title>../domain/me/index.ts&#45;&gt;../domain/me/type.ts</title>
<path fill="none" stroke="#757575" d="M1224.3736,-76.6243C1237.1089,-76.6243 1250.3445,-76.6243 1263.2312,-76.6243"/>
<polygon fill="#757575" stroke="#757575" points="1263.475,-80.1244 1273.475,-76.6243 1263.4749,-73.1244 1263.475,-80.1244"/>
</g>
<!-- ../externalInterface/api/http/client/client.ts -->
<g id="node4" class="node">
<title>../externalInterface/api/http/client/client.ts</title>
<path fill="none" stroke="#cfffac" d="M2335.143,-68.374C2335.143,-68.374 2064.5244,-68.374 2064.5244,-68.374 2060.2745,-68.374 2056.0246,-64.1241 2056.0246,-59.8742 2056.0246,-59.8742 2056.0246,-51.3743 2056.0246,-51.3743 2056.0246,-47.1244 2060.2745,-42.8745 2064.5244,-42.8745 2064.5244,-42.8745 2335.143,-42.8745 2335.143,-42.8745 2339.393,-42.8745 2343.6429,-47.1244 2343.6429,-51.3743 2343.6429,-51.3743 2343.6429,-59.8742 2343.6429,-59.8742 2343.6429,-64.1241 2339.393,-68.374 2335.143,-68.374"/>
<text text-anchor="middle" x="2199.8337" y="-52.2485" font-family="Arial" font-size="15.00" fill="#cfffac">../externalInterface/api/http/client/client.ts</text>
</g>
<!-- ../externalInterface/api/http/client/index.ts -->
<g id="node5" class="node">
<title>../externalInterface/api/http/client/index.ts</title>
<path fill="none" stroke="#c6c5fe" d="M2011.2552,-68.374C2011.2552,-68.374 1739.9518,-68.374 1739.9518,-68.374 1735.7019,-68.374 1731.4519,-64.1241 1731.4519,-59.8742 1731.4519,-59.8742 1731.4519,-51.3743 1731.4519,-51.3743 1731.4519,-47.1244 1735.7019,-42.8745 1739.9518,-42.8745 1739.9518,-42.8745 2011.2552,-42.8745 2011.2552,-42.8745 2015.5052,-42.8745 2019.7551,-47.1244 2019.7551,-51.3743 2019.7551,-51.3743 2019.7551,-59.8742 2019.7551,-59.8742 2019.7551,-64.1241 2015.5052,-68.374 2011.2552,-68.374"/>
<text text-anchor="middle" x="1875.6035" y="-52.2485" font-family="Arial" font-size="15.00" fill="#c6c5fe">../externalInterface/api/http/client/index.ts</text>
</g>
<!-- ../externalInterface/api/http/client/index.ts&#45;&gt;../externalInterface/api/http/client/client.ts -->
<g id="edge3" class="edge">
<title>../externalInterface/api/http/client/index.ts&#45;&gt;../externalInterface/api/http/client/client.ts</title>
<path fill="none" stroke="#757575" d="M2020.1762,-55.6243C2028.7331,-55.6243 2037.3561,-55.6243 2045.9481,-55.6243"/>
<polygon fill="#757575" stroke="#757575" points="2046.0144,-59.1244 2056.0143,-55.6243 2046.0143,-52.1244 2046.0144,-59.1244"/>
</g>
<!-- ../externalInterface/api/http/client/util.ts -->
<g id="node6" class="node">
<title>../externalInterface/api/http/client/util.ts</title>
<path fill="none" stroke="#cfffac" d="M2003.0705,-25.374C2003.0705,-25.374 1748.1366,-25.374 1748.1366,-25.374 1743.8866,-25.374 1739.6367,-21.1241 1739.6367,-16.8742 1739.6367,-16.8742 1739.6367,-8.3743 1739.6367,-8.3743 1739.6367,-4.1244 1743.8866,.1255 1748.1366,.1255 1748.1366,.1255 2003.0705,.1255 2003.0705,.1255 2007.3204,.1255 2011.5703,-4.1244 2011.5703,-8.3743 2011.5703,-8.3743 2011.5703,-16.8742 2011.5703,-16.8742 2011.5703,-21.1241 2007.3204,-25.374 2003.0705,-25.374"/>
<text text-anchor="middle" x="1875.6035" y="-9.2485" font-family="Arial" font-size="15.00" fill="#cfffac">../externalInterface/api/http/client/util.ts</text>
</g>
<!-- ../externalInterface/api/http/me.ts -->
<g id="node7" class="node">
<title>../externalInterface/api/http/me.ts</title>
<path fill="none" stroke="#c6c5fe" d="M1687.0008,-46.374C1687.0008,-46.374 1469.11,-46.374 1469.11,-46.374 1464.8601,-46.374 1460.6102,-42.1241 1460.6102,-37.8742 1460.6102,-37.8742 1460.6102,-29.3743 1460.6102,-29.3743 1460.6102,-25.1244 1464.8601,-20.8745 1469.11,-20.8745 1469.11,-20.8745 1687.0008,-20.8745 1687.0008,-20.8745 1691.2507,-20.8745 1695.5007,-25.1244 1695.5007,-29.3743 1695.5007,-29.3743 1695.5007,-37.8742 1695.5007,-37.8742 1695.5007,-42.1241 1691.2507,-46.374 1687.0008,-46.374"/>
<text text-anchor="middle" x="1578.0554" y="-30.2485" font-family="Arial" font-size="15.00" fill="#c6c5fe">../externalInterface/api/http/me.ts</text>
</g>
<!-- ../externalInterface/api/http/me.ts&#45;&gt;../externalInterface/api/http/client/index.ts -->
<g id="edge4" class="edge">
<title>../externalInterface/api/http/me.ts&#45;&gt;../externalInterface/api/http/client/index.ts</title>
<path fill="none" stroke="#757575" d="M1695.6543,-42.3193C1704.0606,-42.9408 1712.606,-43.5726 1721.1764,-44.2063"/>
<polygon fill="#757575" stroke="#757575" points="1721.0111,-47.7035 1731.242,-44.9505 1721.5273,-40.7226 1721.0111,-47.7035"/>
</g>
<!-- ../externalInterface/api/http/me.ts&#45;&gt;../externalInterface/api/http/client/util.ts -->
<g id="edge5" class="edge">
<title>../externalInterface/api/http/me.ts&#45;&gt;../externalInterface/api/http/client/util.ts</title>
<path fill="none" stroke="#757575" d="M1695.6543,-25.3245C1706.5988,-24.5521 1717.7789,-23.763 1728.9432,-22.9751"/>
<polygon fill="#757575" stroke="#757575" points="1729.4556,-26.4477 1739.1844,-22.2523 1728.9628,-19.4651 1729.4556,-26.4477"/>
</g>
<!-- ../gateway/me/index.ts -->
<g id="node8" class="node">
<title>../gateway/me/index.ts</title>
<path fill="none" stroke="#c6c5fe" d="M1219.389,-46.374C1219.389,-46.374 1070.9118,-46.374 1070.9118,-46.374 1066.6619,-46.374 1062.4119,-42.1241 1062.4119,-37.8742 1062.4119,-37.8742 1062.4119,-29.3743 1062.4119,-29.3743 1062.4119,-25.1244 1066.6619,-20.8745 1070.9118,-20.8745 1070.9118,-20.8745 1219.389,-20.8745 1219.389,-20.8745 1223.6389,-20.8745 1227.8888,-25.1244 1227.8888,-29.3743 1227.8888,-29.3743 1227.8888,-37.8742 1227.8888,-37.8742 1227.8888,-42.1241 1223.6389,-46.374 1219.389,-46.374"/>
<text text-anchor="middle" x="1145.1504" y="-30.2485" font-family="Arial" font-size="15.00" fill="#c6c5fe">../gateway/me/index.ts</text>
</g>
<!-- ../gateway/me/me.ts -->
<g id="node9" class="node">
<title>../gateway/me/me.ts</title>
<path fill="none" stroke="#c6c5fe" d="M1416.0203,-46.374C1416.0203,-46.374 1282.5871,-46.374 1282.5871,-46.374 1278.3372,-46.374 1274.0872,-42.1241 1274.0872,-37.8742 1274.0872,-37.8742 1274.0872,-29.3743 1274.0872,-29.3743 1274.0872,-25.1244 1278.3372,-20.8745 1282.5871,-20.8745 1282.5871,-20.8745 1416.0203,-20.8745 1416.0203,-20.8745 1420.2703,-20.8745 1424.5202,-25.1244 1424.5202,-29.3743 1424.5202,-29.3743 1424.5202,-37.8742 1424.5202,-37.8742 1424.5202,-42.1241 1420.2703,-46.374 1416.0203,-46.374"/>
<text text-anchor="middle" x="1349.3037" y="-30.2485" font-family="Arial" font-size="15.00" fill="#c6c5fe">../gateway/me/me.ts</text>
</g>
<!-- ../gateway/me/index.ts&#45;&gt;../gateway/me/me.ts -->
<g id="edge6" class="edge">
<title>../gateway/me/index.ts&#45;&gt;../gateway/me/me.ts</title>
<path fill="none" stroke="#757575" d="M1227.8931,-33.6243C1239.6903,-33.6243 1251.8451,-33.6243 1263.6958,-33.6243"/>
<polygon fill="#757575" stroke="#757575" points="1264.0152,-37.1244 1274.0151,-33.6243 1264.0151,-30.1244 1264.0152,-37.1244"/>
</g>
<!-- ../gateway/me/me.ts&#45;&gt;../externalInterface/api/http/me.ts -->
<g id="edge7" class="edge">
<title>../gateway/me/me.ts&#45;&gt;../externalInterface/api/http/me.ts</title>
<path fill="none" stroke="#757575" d="M1424.5224,-33.6243C1432.9429,-33.6243 1441.6855,-33.6243 1450.5344,-33.6243"/>
<polygon fill="#757575" stroke="#757575" points="1450.5588,-37.1244 1460.5588,-33.6243 1450.5587,-30.1244 1450.5588,-37.1244"/>
</g>
<!-- ../presenter/components/ecosystem/Me/Content.tsx -->
<g id="node10" class="node">
<title>../presenter/components/ecosystem/Me/Content.tsx</title>
<path fill="none" stroke="#c6c5fe" d="M1007.8548,-175.374C1007.8548,-175.374 666.5417,-175.374 666.5417,-175.374 662.2918,-175.374 658.0418,-171.1241 658.0418,-166.8742 658.0418,-166.8742 658.0418,-158.3743 658.0418,-158.3743 658.0418,-154.1244 662.2918,-149.8745 666.5417,-149.8745 666.5417,-149.8745 1007.8548,-149.8745 1007.8548,-149.8745 1012.1047,-149.8745 1016.3547,-154.1244 1016.3547,-158.3743 1016.3547,-158.3743 1016.3547,-166.8742 1016.3547,-166.8742 1016.3547,-171.1241 1012.1047,-175.374 1007.8548,-175.374"/>
<text text-anchor="middle" x="837.1982" y="-159.2485" font-family="Arial" font-size="15.00" fill="#c6c5fe">../presenter/components/ecosystem/Me/Content.tsx</text>
</g>
<!-- ../useCase/useMe/type.ts -->
<g id="node11" class="node">
<title>../useCase/useMe/type.ts</title>
<path fill="none" stroke="#cfffac" d="M1229.3988,-132.374C1229.3988,-132.374 1060.902,-132.374 1060.902,-132.374 1056.6521,-132.374 1052.4022,-128.1241 1052.4022,-123.8742 1052.4022,-123.8742 1052.4022,-115.3743 1052.4022,-115.3743 1052.4022,-111.1244 1056.6521,-106.8745 1060.902,-106.8745 1060.902,-106.8745 1229.3988,-106.8745 1229.3988,-106.8745 1233.6487,-106.8745 1237.8986,-111.1244 1237.8986,-115.3743 1237.8986,-115.3743 1237.8986,-123.8742 1237.8986,-123.8742 1237.8986,-128.1241 1233.6487,-132.374 1229.3988,-132.374"/>
<text text-anchor="middle" x="1145.1504" y="-116.2485" font-family="Arial" font-size="15.00" fill="#cfffac">../useCase/useMe/type.ts</text>
</g>
<!-- ../presenter/components/ecosystem/Me/Content.tsx&#45;&gt;../useCase/useMe/type.ts -->
<g id="edge8" class="edge">
<title>../presenter/components/ecosystem/Me/Content.tsx&#45;&gt;../useCase/useMe/type.ts</title>
<path fill="none" stroke="#757575" d="M953.0747,-149.9638C974.2109,-147.3962 996.0491,-144.5724 1016.5264,-141.6243 1032.3105,-139.3518 1049.1391,-136.6658 1065.2445,-133.9653"/>
<polygon fill="#757575" stroke="#757575" points="1065.8879,-137.4063 1075.1631,-132.2856 1064.719,-130.5046 1065.8879,-137.4063"/>
</g>
<!-- ../presenter/components/ecosystem/Me/Exception.tsx -->
<g id="node12" class="node">
<title>../presenter/components/ecosystem/Me/Exception.tsx</title>
<path fill="none" stroke="#cfffac" d="M613.3671,-134.374C613.3671,-134.374 258.3795,-134.374 258.3795,-134.374 254.1296,-134.374 249.8796,-130.1241 249.8796,-125.8742 249.8796,-125.8742 249.8796,-117.3743 249.8796,-117.3743 249.8796,-113.1244 254.1296,-108.8745 258.3795,-108.8745 258.3795,-108.8745 613.3671,-108.8745 613.3671,-108.8745 617.617,-108.8745 621.8669,-113.1244 621.8669,-117.3743 621.8669,-117.3743 621.8669,-125.8742 621.8669,-125.8742 621.8669,-130.1241 617.617,-134.374 613.3671,-134.374"/>
<text text-anchor="middle" x="435.8733" y="-118.2485" font-family="Arial" font-size="15.00" fill="#cfffac">../presenter/components/ecosystem/Me/Exception.tsx</text>
</g>
<!-- ../useCase/useMe/index.ts -->
<g id="node13" class="node">
<title>../useCase/useMe/index.ts</title>
<path fill="none" stroke="#c6c5fe" d="M523.629,-91.374C523.629,-91.374 348.1176,-91.374 348.1176,-91.374 343.8677,-91.374 339.6178,-87.1241 339.6178,-82.8742 339.6178,-82.8742 339.6178,-74.3743 339.6178,-74.3743 339.6178,-70.1244 343.8677,-65.8745 348.1176,-65.8745 348.1176,-65.8745 523.629,-65.8745 523.629,-65.8745 527.8789,-65.8745 532.1288,-70.1244 532.1288,-74.3743 532.1288,-74.3743 532.1288,-82.8742 532.1288,-82.8742 532.1288,-87.1241 527.8789,-91.374 523.629,-91.374"/>
<text text-anchor="middle" x="435.8733" y="-75.2485" font-family="Arial" font-size="15.00" fill="#c6c5fe">../useCase/useMe/index.ts</text>
</g>
<!-- ../useCase/useMe/interactor.ts -->
<g id="node14" class="node">
<title>../useCase/useMe/interactor.ts</title>
<path fill="none" stroke="#c6c5fe" d="M937.794,-89.374C937.794,-89.374 736.6025,-89.374 736.6025,-89.374 732.3526,-89.374 728.1027,-85.1241 728.1027,-80.8742 728.1027,-80.8742 728.1027,-72.3743 728.1027,-72.3743 728.1027,-68.1244 732.3526,-63.8745 736.6025,-63.8745 736.6025,-63.8745 937.794,-63.8745 937.794,-63.8745 942.0439,-63.8745 946.2938,-68.1244 946.2938,-72.3743 946.2938,-72.3743 946.2938,-80.8742 946.2938,-80.8742 946.2938,-85.1241 942.0439,-89.374 937.794,-89.374"/>
<text text-anchor="middle" x="837.1982" y="-73.2485" font-family="Arial" font-size="15.00" fill="#c6c5fe">../useCase/useMe/interactor.ts</text>
</g>
<!-- ../useCase/useMe/index.ts&#45;&gt;../useCase/useMe/interactor.ts -->
<g id="edge9" class="edge">
<title>../useCase/useMe/index.ts&#45;&gt;../useCase/useMe/interactor.ts</title>
<path fill="none" stroke="#757575" d="M532.2559,-78.1439C587.9407,-77.8664 658.4623,-77.515 717.6581,-77.22"/>
<polygon fill="#757575" stroke="#757575" points="717.8306,-80.7193 727.813,-77.1694 717.7957,-73.7194 717.8306,-80.7193"/>
</g>
<!-- ../useCase/useMe/useMe.tsx -->
<g id="node15" class="node">
<title>../useCase/useMe/useMe.tsx</title>
<path fill="none" stroke="#c6c5fe" d="M933.6168,-132.374C933.6168,-132.374 740.7797,-132.374 740.7797,-132.374 736.5298,-132.374 732.2799,-128.1241 732.2799,-123.8742 732.2799,-123.8742 732.2799,-115.3743 732.2799,-115.3743 732.2799,-111.1244 736.5298,-106.8745 740.7797,-106.8745 740.7797,-106.8745 933.6168,-106.8745 933.6168,-106.8745 937.8667,-106.8745 942.1166,-111.1244 942.1166,-115.3743 942.1166,-115.3743 942.1166,-123.8742 942.1166,-123.8742 942.1166,-128.1241 937.8667,-132.374 933.6168,-132.374"/>
<text text-anchor="middle" x="837.1982" y="-116.2485" font-family="Arial" font-size="15.00" fill="#c6c5fe">../useCase/useMe/useMe.tsx</text>
</g>
<!-- ../useCase/useMe/index.ts&#45;&gt;../useCase/useMe/useMe.tsx -->
<g id="edge10" class="edge">
<title>../useCase/useMe/index.ts&#45;&gt;../useCase/useMe/useMe.tsx</title>
<path fill="none" stroke="#757575" d="M532.2559,-88.4709C589.3657,-94.3053 662.0813,-101.734 722.18,-107.8738"/>
<polygon fill="#757575" stroke="#757575" points="722.1743,-111.3914 732.4782,-108.9259 722.8858,-104.4276 722.1743,-111.3914"/>
</g>
<!-- ../useCase/useMe/interactor.ts&#45;&gt;../domain/me/index.ts -->
<g id="edge11" class="edge">
<title>../useCase/useMe/interactor.ts&#45;&gt;../domain/me/index.ts</title>
<path fill="none" stroke="#757575" d="M946.6377,-76.6243C982.359,-76.6243 1021.5792,-76.6243 1055.6565,-76.6243"/>
<polygon fill="#757575" stroke="#757575" points="1056.0576,-80.1244 1066.0576,-76.6243 1056.0575,-73.1244 1056.0576,-80.1244"/>
</g>
<!-- ../useCase/useMe/interactor.ts&#45;&gt;../gateway/me/index.ts -->
<g id="edge12" class="edge">
<title>../useCase/useMe/interactor.ts&#45;&gt;../gateway/me/index.ts</title>
<path fill="none" stroke="#757575" d="M927.9284,-63.9554C967.0991,-58.4859 1012.8793,-52.0936 1052.2852,-46.5912"/>
<polygon fill="#757575" stroke="#757575" points="1053.0025,-50.0251 1062.4224,-45.1758 1052.0344,-43.0924 1053.0025,-50.0251"/>
</g>
<!-- ../useCase/useMe/interactor.ts&#45;&gt;../useCase/useMe/type.ts -->
<g id="edge13" class="edge">
<title>../useCase/useMe/interactor.ts&#45;&gt;../useCase/useMe/type.ts</title>
<path fill="none" stroke="#757575" d="M946.3757,-88.4765C969.5633,-91.2548 993.8772,-94.3635 1016.5264,-97.6243 1032.3105,-99.8967 1049.1391,-102.5828 1065.2445,-105.2832"/>
<polygon fill="#757575" stroke="#757575" points="1064.719,-108.744 1075.1631,-106.9629 1065.8879,-101.8422 1064.719,-108.744"/>
</g>
<!-- ../useCase/useMe/useMe.tsx&#45;&gt;../useCase/useMe/type.ts -->
<g id="edge14" class="edge">
<title>../useCase/useMe/useMe.tsx&#45;&gt;../useCase/useMe/type.ts</title>
<path fill="none" stroke="#757575" d="M942.3166,-119.6243C974.5478,-119.6243 1009.9653,-119.6243 1042.0597,-119.6243"/>
<polygon fill="#757575" stroke="#757575" points="1042.355,-123.1244 1052.3549,-119.6243 1042.3549,-116.1244 1042.355,-123.1244"/>
</g>
<!-- me/index.ts -->
<g id="node16" class="node">
<title>me/index.ts</title>
<path fill="none" stroke="#c6c5fe" d="M84.0495,-112.374C84.0495,-112.374 8.6498,-112.374 8.6498,-112.374 4.3998,-112.374 .1499,-108.1241 .1499,-103.8742 .1499,-103.8742 .1499,-95.3743 .1499,-95.3743 .1499,-91.1244 4.3998,-86.8745 8.6498,-86.8745 8.6498,-86.8745 84.0495,-86.8745 84.0495,-86.8745 88.2994,-86.8745 92.5493,-91.1244 92.5493,-95.3743 92.5493,-95.3743 92.5493,-103.8742 92.5493,-103.8742 92.5493,-108.1241 88.2994,-112.374 84.0495,-112.374"/>
<text text-anchor="middle" x="46.3496" y="-96.2485" font-family="Arial" font-size="15.00" fill="#c6c5fe">me/index.ts</text>
</g>
<!-- me/me.tsx -->
<g id="node17" class="node">
<title>me/me.tsx</title>
<path fill="none" stroke="#c6c5fe" d="M205.4654,-112.374C205.4654,-112.374 137.1103,-112.374 137.1103,-112.374 132.8603,-112.374 128.6104,-108.1241 128.6104,-103.8742 128.6104,-103.8742 128.6104,-95.3743 128.6104,-95.3743 128.6104,-91.1244 132.8603,-86.8745 137.1103,-86.8745 137.1103,-86.8745 205.4654,-86.8745 205.4654,-86.8745 209.7153,-86.8745 213.9653,-91.1244 213.9653,-95.3743 213.9653,-95.3743 213.9653,-103.8742 213.9653,-103.8742 213.9653,-108.1241 209.7153,-112.374 205.4654,-112.374"/>
<text text-anchor="middle" x="171.2878" y="-96.2485" font-family="Arial" font-size="15.00" fill="#c6c5fe">me/me.tsx</text>
</g>
<!-- me/index.ts&#45;&gt;me/me.tsx -->
<g id="edge15" class="edge">
<title>me/index.ts&#45;&gt;me/me.tsx</title>
<path fill="none" stroke="#757575" d="M92.872,-99.6243C101.1584,-99.6243 109.8459,-99.6243 118.2966,-99.6243"/>
<polygon fill="#757575" stroke="#757575" points="118.4442,-103.1244 128.4441,-99.6243 118.4441,-96.1244 118.4442,-103.1244"/>
</g>
<!-- me/me.tsx&#45;&gt;../presenter/components/ecosystem/Me/Content.tsx -->
<g id="edge16" class="edge">
<title>me/me.tsx&#45;&gt;../presenter/components/ecosystem/Me/Content.tsx</title>
<path fill="none" stroke="#757575" d="M188.3229,-112.3549C203.5662,-122.9362 226.9784,-137.2533 249.8765,-143.6243 401.7579,-185.8823 584.2833,-184.0466 705.115,-175.9524"/>
<polygon fill="#757575" stroke="#757575" points="705.4236,-179.4395 715.1573,-175.2557 704.9391,-172.4563 705.4236,-179.4395"/>
</g>
<!-- me/me.tsx&#45;&gt;../presenter/components/ecosystem/Me/Exception.tsx -->
<g id="edge17" class="edge">
<title>me/me.tsx&#45;&gt;../presenter/components/ecosystem/Me/Exception.tsx</title>
<path fill="none" stroke="#757575" d="M214.0921,-103.1834C231.0876,-104.5966 251.7926,-106.3182 273.6478,-108.1354"/>
<polygon fill="#757575" stroke="#757575" points="273.5055,-111.6355 283.7611,-108.9763 274.0856,-104.6596 273.5055,-111.6355"/>
</g>
<!-- me/me.tsx&#45;&gt;../useCase/useMe/index.ts -->
<g id="edge18" class="edge">
<title>me/me.tsx&#45;&gt;../useCase/useMe/index.ts</title>
<path fill="none" stroke="#757575" d="M214.0921,-96.2269C245.3054,-93.7495 289.0305,-90.2791 329.414,-87.0739"/>
<polygon fill="#757575" stroke="#757575" points="329.9077,-90.5458 339.5994,-86.2655 329.3538,-83.5677 329.9077,-90.5458"/>
</g>
<!-- me/type.ts -->
<g id="node18" class="node">
<title>me/type.ts</title>
<path fill="none" stroke="#cfffac" d="M470.0656,-48.374C470.0656,-48.374 401.681,-48.374 401.681,-48.374 397.4311,-48.374 393.1812,-44.1241 393.1812,-39.8742 393.1812,-39.8742 393.1812,-31.3743 393.1812,-31.3743 393.1812,-27.1244 397.4311,-22.8745 401.681,-22.8745 401.681,-22.8745 470.0656,-22.8745 470.0656,-22.8745 474.3155,-22.8745 478.5654,-27.1244 478.5654,-31.3743 478.5654,-31.3743 478.5654,-39.8742 478.5654,-39.8742 478.5654,-44.1241 474.3155,-48.374 470.0656,-48.374"/>
<text text-anchor="middle" x="435.8733" y="-32.2485" font-family="Arial" font-size="15.00" fill="#cfffac">me/type.ts</text>
</g>
<!-- me/me.tsx&#45;&gt;me/type.ts -->
<g id="edge19" class="edge">
<title>me/me.tsx&#45;&gt;me/type.ts</title>
<path fill="none" stroke="#757575" d="M189.7303,-86.831C205.0939,-76.8568 227.9316,-63.5702 249.8765,-56.6243 293.346,-42.8653 345.0379,-37.8802 382.8813,-36.1844"/>
<polygon fill="#757575" stroke="#757575" points="383.3114,-39.6705 393.1695,-35.7888 383.0423,-32.6757 383.3114,-39.6705"/>
</g>
</g>
</svg>
