<?xml version="1.0" encoding="UTF-8" standalone="no"?>
<!DOCTYPE svg PUBLIC "-//W3C//DTD SVG 1.1//EN"
 "http://www.w3.org/Graphics/SVG/1.1/DTD/svg11.dtd">
<!-- Generated by graphviz version 2.40.1 (20161225.0304)
 -->
<!-- Title: G Pages: 1 -->
<svg width="2146pt" height="224pt"
 viewBox="0.00 0.00 2145.94 224.11" xmlns="http://www.w3.org/2000/svg" xmlns:xlink="http://www.w3.org/1999/xlink">
<g id="graph0" class="graph" transform="scale(1 1) rotate(0) translate(21.6 202.5084)">
<title>G</title>
<polygon fill="#111111" stroke="transparent" points="-21.6,21.6 -21.6,-202.5084 2124.3422,-202.5084 2124.3422,21.6 -21.6,21.6"/>
<!-- ../domain/me/index.ts -->
<g id="node1" class="node">
<title>../domain/me/index.ts</title>
<path fill="none" stroke="#c6c5fe" d="M1215.7171,-89.374C1215.7171,-89.374 1074.5837,-89.374 1074.5837,-89.374 1070.3338,-89.374 1066.0839,-85.1241 1066.0839,-80.8742 1066.0839,-80.8742 1066.0839,-72.3743 1066.0839,-72.3743 1066.0839,-68.1244 1070.3338,-63.8745 1074.5837,-63.8745 1074.5837,-63.8745 1215.7171,-63.8745 1215.7171,-63.8745 1219.967,-63.8745 1224.2169,-68.1244 1224.2169,-72.3743 1224.2169,-72.3743 1224.2169,-80.8742 1224.2169,-80.8742 1224.2169,-85.1241 1219.967,-89.374 1215.7171,-89.374"/>
<text text-anchor="middle" x="1145.1504" y="-73.2485" font-family="Arial" font-size="15.00" fill="#c6c5fe">../domain/me/index.ts</text>
</g>
<!-- ../domain/me/me.ts -->
<g id="node2" class="node">
<title>../domain/me/me.ts</title>
<path fill="none" stroke="#cfffac" d="M1415.6774,-132.374C1415.6774,-132.374 1289.5877,-132.374 1289.5877,-132.374 1285.3378,-132.374 1281.0879,-128.1241 1281.0879,-123.8742 1281.0879,-123.8742 1281.0879,-115.3743 1281.0879,-115.3743 1281.0879,-111.1244 1285.3378,-106.8745 1289.5877,-106.8745 1289.5877,-106.8745 1415.6774,-106.8745 1415.6774,-106.8745 1419.9273,-106.8745 1424.1772,-111.1244 1424.1772,-115.3743 1424.1772,-115.3743 1424.1772,-123.8742 1424.1772,-123.8742 1424.1772,-128.1241 1419.9273,-132.374 1415.6774,-132.374"/>
<text text-anchor="middle" x="1352.6326" y="-116.2485" font-family="Arial" font-size="15.00" fill="#cfffac">../domain/me/me.ts</text>
</g>
<!-- ../domain/me/index.ts&#45;&gt;../domain/me/me.ts -->
<g id="edge1" class="edge">
<title>../domain/me/index.ts&#45;&gt;../domain/me/me.ts</title>
<path fill="none" stroke="#757575" d="M1206.2797,-89.2931C1229.9183,-94.1921 1257.1295,-99.8316 1281.6272,-104.9086"/>
<polygon fill="#757575" stroke="#757575" points="1281.0798,-108.3695 1291.582,-106.9717 1282.5003,-101.5151 1281.0798,-108.3695"/>
</g>
<!-- ../domain/me/type.ts -->
<g id="node3" class="node">
<title>../domain/me/type.ts</title>
<path fill="none" stroke="#cfffac" d="M1419.6913,-89.374C1419.6913,-89.374 1285.5738,-89.374 1285.5738,-89.374 1281.3239,-89.374 1277.074,-85.1241 1277.074,-80.8742 1277.074,-80.8742 1277.074,-72.3743 1277.074,-72.3743 1277.074,-68.1244 1281.3239,-63.8745 1285.5738,-63.8745 1285.5738,-63.8745 1419.6913,-63.8745 1419.6913,-63.8745 1423.9412,-63.8745 1428.1912,-68.1244 1428.1912,-72.3743 1428.1912,-72.3743 1428.1912,-80.8742 1428.1912,-80.8742 1428.1912,-85.1241 1423.9412,-89.374 1419.6913,-89.374"/>
<text text-anchor="middle" x="1352.6326" y="-73.2485" font-family="Arial" font-size="15.00" fill="#cfffac">../domain/me/type.ts</text>
</g>
<!-- ../domain/me/index.ts&#45;&gt;../domain/me/type.ts -->
<g id="edge2" class="edge">
<title>../domain/me/index.ts&#45;&gt;../domain/me/type.ts</title>
<path fill="none" stroke="#757575" d="M1224.4786,-76.6243C1238.2871,-76.6243 1252.7074,-76.6243 1266.6836,-76.6243"/>
<polygon fill="#757575" stroke="#757575" points="1266.7668,-80.1244 1276.7668,-76.6243 1266.7668,-73.1244 1266.7668,-80.1244"/>
</g>
<!-- ../infra/api/http/client/client.ts -->
<g id="node4" class="node">
<title>../infra/api/http/client/client.ts</title>
<path fill="none" stroke="#cfffac" d="M2094.3714,-68.374C2094.3714,-68.374 1905.8552,-68.374 1905.8552,-68.374 1901.6052,-68.374 1897.3553,-64.1241 1897.3553,-59.8742 1897.3553,-59.8742 1897.3553,-51.3743 1897.3553,-51.3743 1897.3553,-47.1244 1901.6052,-42.8745 1905.8552,-42.8745 1905.8552,-42.8745 2094.3714,-42.8745 2094.3714,-42.8745 2098.6213,-42.8745 2102.8713,-47.1244 2102.8713,-51.3743 2102.8713,-51.3743 2102.8713,-59.8742 2102.8713,-59.8742 2102.8713,-64.1241 2098.6213,-68.374 2094.3714,-68.374"/>
<text text-anchor="middle" x="2000.1133" y="-52.2485" font-family="Arial" font-size="15.00" fill="#cfffac">../infra/api/http/client/client.ts</text>
</g>
<!-- ../infra/api/http/client/index.ts -->
<g id="node5" class="node">
<title>../infra/api/http/client/index.ts</title>
<path fill="none" stroke="#c6c5fe" d="M1853.0346,-68.374C1853.0346,-68.374 1663.8341,-68.374 1663.8341,-68.374 1659.5841,-68.374 1655.3342,-64.1241 1655.3342,-59.8742 1655.3342,-59.8742 1655.3342,-51.3743 1655.3342,-51.3743 1655.3342,-47.1244 1659.5841,-42.8745 1663.8341,-42.8745 1663.8341,-42.8745 1853.0346,-42.8745 1853.0346,-42.8745 1857.2845,-42.8745 1861.5344,-47.1244 1861.5344,-51.3743 1861.5344,-51.3743 1861.5344,-59.8742 1861.5344,-59.8742 1861.5344,-64.1241 1857.2845,-68.374 1853.0346,-68.374"/>
<text text-anchor="middle" x="1758.4343" y="-52.2485" font-family="Arial" font-size="15.00" fill="#c6c5fe">../infra/api/http/client/index.ts</text>
</g>
<!-- ../infra/api/http/client/index.ts&#45;&gt;../infra/api/http/client/client.ts -->
<g id="edge3" class="edge">
<title>../infra/api/http/client/index.ts&#45;&gt;../infra/api/http/client/client.ts</title>
<path fill="none" stroke="#757575" d="M1861.629,-55.6243C1870.1126,-55.6243 1878.7147,-55.6243 1887.2633,-55.6243"/>
<polygon fill="#757575" stroke="#757575" points="1887.2638,-59.1244 1897.2637,-55.6243 1887.2637,-52.1244 1887.2638,-59.1244"/>
</g>
<!-- ../infra/api/http/client/util.ts -->
<g id="node6" class="node">
<title>../infra/api/http/client/util.ts</title>
<path fill="none" stroke="#cfffac" d="M1844.8505,-25.374C1844.8505,-25.374 1672.0182,-25.374 1672.0182,-25.374 1667.7683,-25.374 1663.5183,-21.1241 1663.5183,-16.8742 1663.5183,-16.8742 1663.5183,-8.3743 1663.5183,-8.3743 1663.5183,-4.1244 1667.7683,.1255 1672.0182,.1255 1672.0182,.1255 1844.8505,.1255 1844.8505,.1255 1849.1004,.1255 1853.3503,-4.1244 1853.3503,-8.3743 1853.3503,-8.3743 1853.3503,-16.8742 1853.3503,-16.8742 1853.3503,-21.1241 1849.1004,-25.374 1844.8505,-25.374"/>
<text text-anchor="middle" x="1758.4343" y="-9.2485" font-family="Arial" font-size="15.00" fill="#cfffac">../infra/api/http/client/util.ts</text>
</g>
<!-- ../infra/api/http/me.ts -->
<g id="node7" class="node">
<title>../infra/api/http/me.ts</title>
<path fill="none" stroke="#c6c5fe" d="M1610.8312,-46.374C1610.8312,-46.374 1476.0438,-46.374 1476.0438,-46.374 1471.7938,-46.374 1467.5439,-42.1241 1467.5439,-37.8742 1467.5439,-37.8742 1467.5439,-29.3743 1467.5439,-29.3743 1467.5439,-25.1244 1471.7938,-20.8745 1476.0438,-20.8745 1476.0438,-20.8745 1610.8312,-20.8745 1610.8312,-20.8745 1615.0812,-20.8745 1619.3311,-25.1244 1619.3311,-29.3743 1619.3311,-29.3743 1619.3311,-37.8742 1619.3311,-37.8742 1619.3311,-42.1241 1615.0812,-46.374 1610.8312,-46.374"/>
<text text-anchor="middle" x="1543.4375" y="-30.2485" font-family="Arial" font-size="15.00" fill="#c6c5fe">../infra/api/http/me.ts</text>
</g>
<!-- ../infra/api/http/me.ts&#45;&gt;../infra/api/http/client/index.ts -->
<g id="edge4" class="edge">
<title>../infra/api/http/me.ts&#45;&gt;../infra/api/http/client/index.ts</title>
<path fill="none" stroke="#757575" d="M1619.5399,-41.4116C1627.8749,-42.2645 1636.4859,-43.1456 1645.1471,-44.0319"/>
<polygon fill="#757575" stroke="#757575" points="1645.0199,-47.5371 1655.3243,-45.0733 1645.7325,-40.5735 1645.0199,-47.5371"/>
</g>
<!-- ../infra/api/http/me.ts&#45;&gt;../infra/api/http/client/util.ts -->
<g id="edge5" class="edge">
<title>../infra/api/http/me.ts&#45;&gt;../infra/api/http/client/util.ts</title>
<path fill="none" stroke="#757575" d="M1619.5399,-26.1909C1630.5645,-25.1141 1642.072,-23.9901 1653.54,-22.8699"/>
<polygon fill="#757575" stroke="#757575" points="1653.9822,-26.3435 1663.5946,-21.8878 1653.3016,-19.3766 1653.9822,-26.3435"/>
</g>
<!-- ../infra/repo/me/index.ts -->
<g id="node8" class="node">
<title>../infra/repo/me/index.ts</title>
<path fill="none" stroke="#c6c5fe" d="M1222.889,-46.374C1222.889,-46.374 1067.4118,-46.374 1067.4118,-46.374 1063.1618,-46.374 1058.9119,-42.1241 1058.9119,-37.8742 1058.9119,-37.8742 1058.9119,-29.3743 1058.9119,-29.3743 1058.9119,-25.1244 1063.1618,-20.8745 1067.4118,-20.8745 1067.4118,-20.8745 1222.889,-20.8745 1222.889,-20.8745 1227.1389,-20.8745 1231.3889,-25.1244 1231.3889,-29.3743 1231.3889,-29.3743 1231.3889,-37.8742 1231.3889,-37.8742 1231.3889,-42.1241 1227.1389,-46.374 1222.889,-46.374"/>
<text text-anchor="middle" x="1145.1504" y="-30.2485" font-family="Arial" font-size="15.00" fill="#c6c5fe">../infra/repo/me/index.ts</text>
</g>
<!-- ../infra/repo/me/me.ts -->
<g id="node9" class="node">
<title>../infra/repo/me/me.ts</title>
<path fill="none" stroke="#c6c5fe" d="M1422.8493,-46.374C1422.8493,-46.374 1282.4159,-46.374 1282.4159,-46.374 1278.1659,-46.374 1273.916,-42.1241 1273.916,-37.8742 1273.916,-37.8742 1273.916,-29.3743 1273.916,-29.3743 1273.916,-25.1244 1278.1659,-20.8745 1282.4159,-20.8745 1282.4159,-20.8745 1422.8493,-20.8745 1422.8493,-20.8745 1427.0992,-20.8745 1431.3491,-25.1244 1431.3491,-29.3743 1431.3491,-29.3743 1431.3491,-37.8742 1431.3491,-37.8742 1431.3491,-42.1241 1427.0992,-46.374 1422.8493,-46.374"/>
<text text-anchor="middle" x="1352.6326" y="-30.2485" font-family="Arial" font-size="15.00" fill="#c6c5fe">../infra/repo/me/me.ts</text>
</g>
<!-- ../infra/repo/me/index.ts&#45;&gt;../infra/repo/me/me.ts -->
<g id="edge6" class="edge">
<title>../infra/repo/me/index.ts&#45;&gt;../infra/repo/me/me.ts</title>
<path fill="none" stroke="#757575" d="M1231.6391,-33.6243C1242.2563,-33.6243 1253.1215,-33.6243 1263.773,-33.6243"/>
<polygon fill="#757575" stroke="#757575" points="1263.9047,-37.1244 1273.9047,-33.6243 1263.9047,-30.1244 1263.9047,-37.1244"/>
</g>
<!-- ../infra/repo/me/me.ts&#45;&gt;../infra/api/http/me.ts -->
<g id="edge7" class="edge">
<title>../infra/repo/me/me.ts&#45;&gt;../infra/api/http/me.ts</title>
<path fill="none" stroke="#757575" d="M1431.6176,-33.6243C1439.9996,-33.6243 1448.556,-33.6243 1457.0172,-33.6243"/>
<polygon fill="#757575" stroke="#757575" points="1457.2729,-37.1244 1467.2729,-33.6243 1457.2728,-30.1244 1457.2729,-37.1244"/>
</g>
<!-- ../presenter/components/ecosystem/Me/Content.tsx -->
<g id="node10" class="node">
<title>../presenter/components/ecosystem/Me/Content.tsx</title>
<path fill="none" stroke="#c6c5fe" d="M1007.8548,-175.374C1007.8548,-175.374 666.5417,-175.374 666.5417,-175.374 662.2918,-175.374 658.0418,-171.1241 658.0418,-166.8742 658.0418,-166.8742 658.0418,-158.3743 658.0418,-158.3743 658.0418,-154.1244 662.2918,-149.8745 666.5417,-149.8745 666.5417,-149.8745 1007.8548,-149.8745 1007.8548,-149.8745 1012.1047,-149.8745 1016.3547,-154.1244 1016.3547,-158.3743 1016.3547,-158.3743 1016.3547,-166.8742 1016.3547,-166.8742 1016.3547,-171.1241 1012.1047,-175.374 1007.8548,-175.374"/>
<text text-anchor="middle" x="837.1982" y="-159.2485" font-family="Arial" font-size="15.00" fill="#c6c5fe">../presenter/components/ecosystem/Me/Content.tsx</text>
</g>
<!-- ../useCase/useMe/type.ts -->
<g id="node11" class="node">
<title>../useCase/useMe/type.ts</title>
<path fill="none" stroke="#cfffac" d="M1229.3988,-132.374C1229.3988,-132.374 1060.902,-132.374 1060.902,-132.374 1056.6521,-132.374 1052.4022,-128.1241 1052.4022,-123.8742 1052.4022,-123.8742 1052.4022,-115.3743 1052.4022,-115.3743 1052.4022,-111.1244 1056.6521,-106.8745 1060.902,-106.8745 1060.902,-106.8745 1229.3988,-106.8745 1229.3988,-106.8745 1233.6487,-106.8745 1237.8986,-111.1244 1237.8986,-115.3743 1237.8986,-115.3743 1237.8986,-123.8742 1237.8986,-123.8742 1237.8986,-128.1241 1233.6487,-132.374 1229.3988,-132.374"/>
<text text-anchor="middle" x="1145.1504" y="-116.2485" font-family="Arial" font-size="15.00" fill="#cfffac">../useCase/useMe/type.ts</text>
</g>
<!-- ../presenter/components/ecosystem/Me/Content.tsx&#45;&gt;../useCase/useMe/type.ts -->
<g id="edge8" class="edge">
<title>../presenter/components/ecosystem/Me/Content.tsx&#45;&gt;../useCase/useMe/type.ts</title>
<path fill="none" stroke="#757575" d="M953.0747,-149.9638C974.2109,-147.3962 996.0491,-144.5724 1016.5264,-141.6243 1032.3105,-139.3518 1049.1391,-136.6658 1065.2445,-133.9653"/>
<polygon fill="#757575" stroke="#757575" points="1065.8879,-137.4063 1075.1631,-132.2856 1064.719,-130.5046 1065.8879,-137.4063"/>
</g>
<!-- ../presenter/components/ecosystem/Me/Exception.tsx -->
<g id="node12" class="node">
<title>../presenter/components/ecosystem/Me/Exception.tsx</title>
<path fill="none" stroke="#cfffac" d="M613.3671,-134.374C613.3671,-134.374 258.3795,-134.374 258.3795,-134.374 254.1296,-134.374 249.8796,-130.1241 249.8796,-125.8742 249.8796,-125.8742 249.8796,-117.3743 249.8796,-117.3743 249.8796,-113.1244 254.1296,-108.8745 258.3795,-108.8745 258.3795,-108.8745 613.3671,-108.8745 613.3671,-108.8745 617.617,-108.8745 621.8669,-113.1244 621.8669,-117.3743 621.8669,-117.3743 621.8669,-125.8742 621.8669,-125.8742 621.8669,-130.1241 617.617,-134.374 613.3671,-134.374"/>
<text text-anchor="middle" x="435.8733" y="-118.2485" font-family="Arial" font-size="15.00" fill="#cfffac">../presenter/components/ecosystem/Me/Exception.tsx</text>
</g>
<!-- ../useCase/useMe/index.ts -->
<g id="node13" class="node">
<title>../useCase/useMe/index.ts</title>
<path fill="none" stroke="#c6c5fe" d="M523.629,-91.374C523.629,-91.374 348.1176,-91.374 348.1176,-91.374 343.8677,-91.374 339.6178,-87.1241 339.6178,-82.8742 339.6178,-82.8742 339.6178,-74.3743 339.6178,-74.3743 339.6178,-70.1244 343.8677,-65.8745 348.1176,-65.8745 348.1176,-65.8745 523.629,-65.8745 523.629,-65.8745 527.8789,-65.8745 532.1288,-70.1244 532.1288,-74.3743 532.1288,-74.3743 532.1288,-82.8742 532.1288,-82.8742 532.1288,-87.1241 527.8789,-91.374 523.629,-91.374"/>
<text text-anchor="middle" x="435.8733" y="-75.2485" font-family="Arial" font-size="15.00" fill="#c6c5fe">../useCase/useMe/index.ts</text>
</g>
<!-- ../useCase/useMe/interactor.ts -->
<g id="node14" class="node">
<title>../useCase/useMe/interactor.ts</title>
<path fill="none" stroke="#c6c5fe" d="M937.794,-89.374C937.794,-89.374 736.6025,-89.374 736.6025,-89.374 732.3526,-89.374 728.1027,-85.1241 728.1027,-80.8742 728.1027,-80.8742 728.1027,-72.3743 728.1027,-72.3743 728.1027,-68.1244 732.3526,-63.8745 736.6025,-63.8745 736.6025,-63.8745 937.794,-63.8745 937.794,-63.8745 942.0439,-63.8745 946.2938,-68.1244 946.2938,-72.3743 946.2938,-72.3743 946.2938,-80.8742 946.2938,-80.8742 946.2938,-85.1241 942.0439,-89.374 937.794,-89.374"/>
<text text-anchor="middle" x="837.1982" y="-73.2485" font-family="Arial" font-size="15.00" fill="#c6c5fe">../useCase/useMe/interactor.ts</text>
</g>
<!-- ../useCase/useMe/index.ts&#45;&gt;../useCase/useMe/interactor.ts -->
<g id="edge9" class="edge">
<title>../useCase/useMe/index.ts&#45;&gt;../useCase/useMe/interactor.ts</title>
<path fill="none" stroke="#757575" d="M532.2559,-78.1439C587.9407,-77.8664 658.4623,-77.515 717.6581,-77.22"/>
<polygon fill="#757575" stroke="#757575" points="717.8306,-80.7193 727.813,-77.1694 717.7957,-73.7194 717.8306,-80.7193"/>
</g>
<!-- ../useCase/useMe/useMe.tsx -->
<g id="node15" class="node">
<title>../useCase/useMe/useMe.tsx</title>
<path fill="none" stroke="#c6c5fe" d="M933.6168,-132.374C933.6168,-132.374 740.7797,-132.374 740.7797,-132.374 736.5298,-132.374 732.2799,-128.1241 732.2799,-123.8742 732.2799,-123.8742 732.2799,-115.3743 732.2799,-115.3743 732.2799,-111.1244 736.5298,-106.8745 740.7797,-106.8745 740.7797,-106.8745 933.6168,-106.8745 933.6168,-106.8745 937.8667,-106.8745 942.1166,-111.1244 942.1166,-115.3743 942.1166,-115.3743 942.1166,-123.8742 942.1166,-123.8742 942.1166,-128.1241 937.8667,-132.374 933.6168,-132.374"/>
<text text-anchor="middle" x="837.1982" y="-116.2485" font-family="Arial" font-size="15.00" fill="#c6c5fe">../useCase/useMe/useMe.tsx</text>
</g>
<!-- ../useCase/useMe/index.ts&#45;&gt;../useCase/useMe/useMe.tsx -->
<g id="edge10" class="edge">
<title>../useCase/useMe/index.ts&#45;&gt;../useCase/useMe/useMe.tsx</title>
<path fill="none" stroke="#757575" d="M532.2559,-88.4709C589.3657,-94.3053 662.0813,-101.734 722.18,-107.8738"/>
<polygon fill="#757575" stroke="#757575" points="722.1743,-111.3914 732.4782,-108.9259 722.8858,-104.4276 722.1743,-111.3914"/>
</g>
<!-- ../useCase/useMe/interactor.ts&#45;&gt;../domain/me/index.ts -->
<g id="edge11" class="edge">
<title>../useCase/useMe/interactor.ts&#45;&gt;../domain/me/index.ts</title>
<path fill="none" stroke="#757575" d="M946.6377,-76.6243C982.359,-76.6243 1021.5792,-76.6243 1055.6565,-76.6243"/>
<polygon fill="#757575" stroke="#757575" points="1056.0576,-80.1244 1066.0576,-76.6243 1056.0575,-73.1244 1056.0576,-80.1244"/>
</g>
<!-- ../useCase/useMe/interactor.ts&#45;&gt;../infra/repo/me/index.ts -->
<g id="edge12" class="edge">
<title>../useCase/useMe/interactor.ts&#45;&gt;../infra/repo/me/index.ts</title>
<path fill="none" stroke="#757575" d="M927.9284,-63.9554C965.8759,-58.6567 1010.0265,-52.4919 1048.5752,-47.1093"/>
<polygon fill="#757575" stroke="#757575" points="1049.3471,-50.5355 1058.7669,-45.6862 1048.379,-43.6028 1049.3471,-50.5355"/>
</g>
<!-- ../useCase/useMe/interactor.ts&#45;&gt;../useCase/useMe/type.ts -->
<g id="edge13" class="edge">
<title>../useCase/useMe/interactor.ts&#45;&gt;../useCase/useMe/type.ts</title>
<path fill="none" stroke="#757575" d="M946.3757,-88.4765C969.5633,-91.2548 993.8772,-94.3635 1016.5264,-97.6243 1032.3105,-99.8967 1049.1391,-102.5828 1065.2445,-105.2832"/>
<polygon fill="#757575" stroke="#757575" points="1064.719,-108.744 1075.1631,-106.9629 1065.8879,-101.8422 1064.719,-108.744"/>
</g>
<!-- ../useCase/useMe/useMe.tsx&#45;&gt;../useCase/useMe/type.ts -->
<g id="edge14" class="edge">
<title>../useCase/useMe/useMe.tsx&#45;&gt;../useCase/useMe/type.ts</title>
<path fill="none" stroke="#757575" d="M942.3166,-119.6243C974.5478,-119.6243 1009.9653,-119.6243 1042.0597,-119.6243"/>
<polygon fill="#757575" stroke="#757575" points="1042.355,-123.1244 1052.3549,-119.6243 1042.3549,-116.1244 1042.355,-123.1244"/>
</g>
<!-- me/index.ts -->
<g id="node16" class="node">
<title>me/index.ts</title>
<path fill="none" stroke="#c6c5fe" d="M84.0495,-112.374C84.0495,-112.374 8.6498,-112.374 8.6498,-112.374 4.3998,-112.374 .1499,-108.1241 .1499,-103.8742 .1499,-103.8742 .1499,-95.3743 .1499,-95.3743 .1499,-91.1244 4.3998,-86.8745 8.6498,-86.8745 8.6498,-86.8745 84.0495,-86.8745 84.0495,-86.8745 88.2994,-86.8745 92.5493,-91.1244 92.5493,-95.3743 92.5493,-95.3743 92.5493,-103.8742 92.5493,-103.8742 92.5493,-108.1241 88.2994,-112.374 84.0495,-112.374"/>
<text text-anchor="middle" x="46.3496" y="-96.2485" font-family="Arial" font-size="15.00" fill="#c6c5fe">me/index.ts</text>
</g>
<!-- me/me.tsx -->
<g id="node17" class="node">
<title>me/me.tsx</title>
<path fill="none" stroke="#c6c5fe" d="M205.4654,-112.374C205.4654,-112.374 137.1103,-112.374 137.1103,-112.374 132.8603,-112.374 128.6104,-108.1241 128.6104,-103.8742 128.6104,-103.8742 128.6104,-95.3743 128.6104,-95.3743 128.6104,-91.1244 132.8603,-86.8745 137.1103,-86.8745 137.1103,-86.8745 205.4654,-86.8745 205.4654,-86.8745 209.7153,-86.8745 213.9653,-91.1244 213.9653,-95.3743 213.9653,-95.3743 213.9653,-103.8742 213.9653,-103.8742 213.9653,-108.1241 209.7153,-112.374 205.4654,-112.374"/>
<text text-anchor="middle" x="171.2878" y="-96.2485" font-family="Arial" font-size="15.00" fill="#c6c5fe">me/me.tsx</text>
</g>
<!-- me/index.ts&#45;&gt;me/me.tsx -->
<g id="edge15" class="edge">
<title>me/index.ts&#45;&gt;me/me.tsx</title>
<path fill="none" stroke="#757575" d="M92.872,-99.6243C101.1584,-99.6243 109.8459,-99.6243 118.2966,-99.6243"/>
<polygon fill="#757575" stroke="#757575" points="118.4442,-103.1244 128.4441,-99.6243 118.4441,-96.1244 118.4442,-103.1244"/>
</g>
<!-- me/me.tsx&#45;&gt;../presenter/components/ecosystem/Me/Content.tsx -->
<g id="edge16" class="edge">
<title>me/me.tsx&#45;&gt;../presenter/components/ecosystem/Me/Content.tsx</title>
<path fill="none" stroke="#757575" d="M188.3229,-112.3549C203.5662,-122.9362 226.9784,-137.2533 249.8765,-143.6243 401.7579,-185.8823 584.2833,-184.0466 705.115,-175.9524"/>
<polygon fill="#757575" stroke="#757575" points="705.4236,-179.4395 715.1573,-175.2557 704.9391,-172.4563 705.4236,-179.4395"/>
</g>
<!-- me/me.tsx&#45;&gt;../presenter/components/ecosystem/Me/Exception.tsx -->
<g id="edge17" class="edge">
<title>me/me.tsx&#45;&gt;../presenter/components/ecosystem/Me/Exception.tsx</title>
<path fill="none" stroke="#757575" d="M214.0921,-103.1834C231.0876,-104.5966 251.7926,-106.3182 273.6478,-108.1354"/>
<polygon fill="#757575" stroke="#757575" points="273.5055,-111.6355 283.7611,-108.9763 274.0856,-104.6596 273.5055,-111.6355"/>
</g>
<!-- me/me.tsx&#45;&gt;../useCase/useMe/index.ts -->
<g id="edge18" class="edge">
<title>me/me.tsx&#45;&gt;../useCase/useMe/index.ts</title>
<path fill="none" stroke="#757575" d="M214.0921,-96.2269C245.3054,-93.7495 289.0305,-90.2791 329.414,-87.0739"/>
<polygon fill="#757575" stroke="#757575" points="329.9077,-90.5458 339.5994,-86.2655 329.3538,-83.5677 329.9077,-90.5458"/>
</g>
<!-- me/type.ts -->
<g id="node18" class="node">
<title>me/type.ts</title>
<path fill="none" stroke="#cfffac" d="M470.0656,-48.374C470.0656,-48.374 401.681,-48.374 401.681,-48.374 397.4311,-48.374 393.1812,-44.1241 393.1812,-39.8742 393.1812,-39.8742 393.1812,-31.3743 393.1812,-31.3743 393.1812,-27.1244 397.4311,-22.8745 401.681,-22.8745 401.681,-22.8745 470.0656,-22.8745 470.0656,-22.8745 474.3155,-22.8745 478.5654,-27.1244 478.5654,-31.3743 478.5654,-31.3743 478.5654,-39.8742 478.5654,-39.8742 478.5654,-44.1241 474.3155,-48.374 470.0656,-48.374"/>
<text text-anchor="middle" x="435.8733" y="-32.2485" font-family="Arial" font-size="15.00" fill="#cfffac">me/type.ts</text>
</g>
<!-- me/me.tsx&#45;&gt;me/type.ts -->
<g id="edge19" class="edge">
<title>me/me.tsx&#45;&gt;me/type.ts</title>
<path fill="none" stroke="#757575" d="M189.7303,-86.831C205.0939,-76.8568 227.9316,-63.5702 249.8765,-56.6243 293.346,-42.8653 345.0379,-37.8802 382.8813,-36.1844"/>
<polygon fill="#757575" stroke="#757575" points="383.3114,-39.6705 393.1695,-35.7888 383.0423,-32.6757 383.3114,-39.6705"/>
</g>
</g>
</svg>
