<?xml version="1.0" encoding="UTF-8" standalone="no"?>
<!DOCTYPE svg PUBLIC "-//W3C//DTD SVG 1.1//EN"
 "http://www.w3.org/Graphics/SVG/1.1/DTD/svg11.dtd">
<!-- Generated by graphviz version 2.40.1 (20161225.0304)
 -->
<!-- Title: G Pages: 1 -->
<svg width="941pt" height="264pt"
 viewBox="0.00 0.00 941.36 263.74" xmlns="http://www.w3.org/2000/svg" xmlns:xlink="http://www.w3.org/1999/xlink">
<g id="graph0" class="graph" transform="scale(1 1) rotate(0) translate(21.6 242.1408)">
<title>G</title>
<polygon fill="#111111" stroke="transparent" points="-21.6,21.6 -21.6,-242.1408 919.7597,-242.1408 919.7597,21.6 -21.6,21.6"/>
<!-- ../domain/me/index.ts -->
<g id="node1" class="node">
<title>../domain/me/index.ts</title>
<path fill="none" stroke="#c6c5fe" d="M595.6709,-218.6663C595.6709,-218.6663 454.5376,-218.6663 454.5376,-218.6663 450.2877,-218.6663 446.0377,-214.4164 446.0377,-210.1665 446.0377,-210.1665 446.0377,-201.6666 446.0377,-201.6666 446.0377,-197.4167 450.2877,-193.1668 454.5376,-193.1668 454.5376,-193.1668 595.6709,-193.1668 595.6709,-193.1668 599.9208,-193.1668 604.1708,-197.4167 604.1708,-201.6666 604.1708,-201.6666 604.1708,-210.1665 604.1708,-210.1665 604.1708,-214.4164 599.9208,-218.6663 595.6709,-218.6663"/>
<text text-anchor="middle" x="525.1042" y="-202.5408" font-family="Arial" font-size="15.00" fill="#c6c5fe">../domain/me/index.ts</text>
</g>
<!-- ../domain/me/me.ts -->
<g id="node2" class="node">
<title>../domain/me/me.ts</title>
<path fill="none" stroke="#cfffac" d="M885.6752,-220.6663C885.6752,-220.6663 759.5856,-220.6663 759.5856,-220.6663 755.3356,-220.6663 751.0857,-216.4164 751.0857,-212.1665 751.0857,-212.1665 751.0857,-203.6666 751.0857,-203.6666 751.0857,-199.4167 755.3356,-195.1668 759.5856,-195.1668 759.5856,-195.1668 885.6752,-195.1668 885.6752,-195.1668 889.9251,-195.1668 894.175,-199.4167 894.175,-203.6666 894.175,-203.6666 894.175,-212.1665 894.175,-212.1665 894.175,-216.4164 889.9251,-220.6663 885.6752,-220.6663"/>
<text text-anchor="middle" x="822.6304" y="-204.5408" font-family="Arial" font-size="15.00" fill="#cfffac">../domain/me/me.ts</text>
</g>
<!-- ../domain/me/index.ts&#45;&gt;../domain/me/me.ts -->
<g id="edge1" class="edge">
<title>../domain/me/index.ts&#45;&gt;../domain/me/me.ts</title>
<path fill="none" stroke="#757575" d="M604.4449,-206.4499C646.5977,-206.7332 698.3367,-207.081 740.8507,-207.3668"/>
<polygon fill="#757575" stroke="#757575" points="740.8647,-210.8669 750.888,-207.4343 740.9118,-203.867 740.8647,-210.8669"/>
</g>
<!-- ../domain/me/type.ts -->
<g id="node3" class="node">
<title>../domain/me/type.ts</title>
<path fill="none" stroke="#cfffac" d="M889.6891,-177.6663C889.6891,-177.6663 755.5716,-177.6663 755.5716,-177.6663 751.3217,-177.6663 747.0718,-173.4164 747.0718,-169.1665 747.0718,-169.1665 747.0718,-160.6666 747.0718,-160.6666 747.0718,-156.4167 751.3217,-152.1668 755.5716,-152.1668 755.5716,-152.1668 889.6891,-152.1668 889.6891,-152.1668 893.9391,-152.1668 898.189,-156.4167 898.189,-160.6666 898.189,-160.6666 898.189,-169.1665 898.189,-169.1665 898.189,-173.4164 893.9391,-177.6663 889.6891,-177.6663"/>
<text text-anchor="middle" x="822.6304" y="-161.5408" font-family="Arial" font-size="15.00" fill="#cfffac">../domain/me/type.ts</text>
</g>
<!-- ../domain/me/index.ts&#45;&gt;../domain/me/type.ts -->
<g id="edge2" class="edge">
<title>../domain/me/index.ts&#45;&gt;../domain/me/type.ts</title>
<path fill="none" stroke="#757575" d="M604.4449,-194.9831C645.3161,-189.351 695.1992,-182.4769 736.9477,-176.7239"/>
<polygon fill="#757575" stroke="#757575" points="737.6704,-180.1574 747.0989,-175.325 736.7147,-173.223 737.6704,-180.1574"/>
</g>
<!-- ../presenter/components/ecosystem/Me/Content.tsx -->
<g id="node4" class="node">
<title>../presenter/components/ecosystem/Me/Content.tsx</title>
<path fill="none" stroke="#c6c5fe" d="M695.7608,-136.6663C695.7608,-136.6663 354.4477,-136.6663 354.4477,-136.6663 350.1978,-136.6663 345.9478,-132.4164 345.9478,-128.1665 345.9478,-128.1665 345.9478,-119.6666 345.9478,-119.6666 345.9478,-115.4167 350.1978,-111.1668 354.4477,-111.1668 354.4477,-111.1668 695.7608,-111.1668 695.7608,-111.1668 700.0107,-111.1668 704.2607,-115.4167 704.2607,-119.6666 704.2607,-119.6666 704.2607,-128.1665 704.2607,-128.1665 704.2607,-132.4164 700.0107,-136.6663 695.7608,-136.6663"/>
<text text-anchor="middle" x="525.1042" y="-120.5408" font-family="Arial" font-size="15.00" fill="#c6c5fe">../presenter/components/ecosystem/Me/Content.tsx</text>
</g>
<!-- useMe/type.ts -->
<g id="node5" class="node">
<title>useMe/type.ts</title>
<path fill="none" stroke="#cfffac" d="M869.0076,-95.6663C869.0076,-95.6663 776.2531,-95.6663 776.2531,-95.6663 772.0032,-95.6663 767.7533,-91.4164 767.7533,-87.1665 767.7533,-87.1665 767.7533,-78.6666 767.7533,-78.6666 767.7533,-74.4167 772.0032,-70.1668 776.2531,-70.1668 776.2531,-70.1668 869.0076,-70.1668 869.0076,-70.1668 873.2576,-70.1668 877.5075,-74.4167 877.5075,-78.6666 877.5075,-78.6666 877.5075,-87.1665 877.5075,-87.1665 877.5075,-91.4164 873.2576,-95.6663 869.0076,-95.6663"/>
<text text-anchor="middle" x="822.6304" y="-79.5408" font-family="Arial" font-size="15.00" fill="#cfffac">useMe/type.ts</text>
</g>
<!-- ../presenter/components/ecosystem/Me/Content.tsx&#45;&gt;useMe/type.ts -->
<g id="edge3" class="edge">
<title>../presenter/components/ecosystem/Me/Content.tsx&#45;&gt;useMe/type.ts</title>
<path fill="none" stroke="#757575" d="M616.7996,-111.2806C662.3856,-104.9987 716.3983,-97.5556 757.6538,-91.8705"/>
<polygon fill="#757575" stroke="#757575" points="758.1581,-95.3342 767.5866,-90.5017 757.2024,-88.3997 758.1581,-95.3342"/>
</g>
<!-- ../presenter/components/ecosystem/Me/Exception.tsx -->
<g id="node6" class="node">
<title>../presenter/components/ecosystem/Me/Exception.tsx</title>
<path fill="none" stroke="#cfffac" d="M702.5981,-54.6663C702.5981,-54.6663 347.6104,-54.6663 347.6104,-54.6663 343.3605,-54.6663 339.1106,-50.4164 339.1106,-46.1665 339.1106,-46.1665 339.1106,-37.6666 339.1106,-37.6666 339.1106,-33.4167 343.3605,-29.1668 347.6104,-29.1668 347.6104,-29.1668 702.5981,-29.1668 702.5981,-29.1668 706.848,-29.1668 711.0979,-33.4167 711.0979,-37.6666 711.0979,-37.6666 711.0979,-46.1665 711.0979,-46.1665 711.0979,-50.4164 706.848,-54.6663 702.5981,-54.6663"/>
<text text-anchor="middle" x="525.1042" y="-38.5408" font-family="Arial" font-size="15.00" fill="#cfffac">../presenter/components/ecosystem/Me/Exception.tsx</text>
</g>
<!-- useMe/index.ts -->
<g id="node7" class="node">
<title>useMe/index.ts</title>
<path fill="none" stroke="#c6c5fe" d="M108.3259,-74.6663C108.3259,-74.6663 8.5579,-74.6663 8.5579,-74.6663 4.308,-74.6663 .058,-70.4164 .058,-66.1665 .058,-66.1665 .058,-57.6666 .058,-57.6666 .058,-53.4167 4.308,-49.1668 8.5579,-49.1668 8.5579,-49.1668 108.3259,-49.1668 108.3259,-49.1668 112.5758,-49.1668 116.8257,-53.4167 116.8257,-57.6666 116.8257,-57.6666 116.8257,-66.1665 116.8257,-66.1665 116.8257,-70.4164 112.5758,-74.6663 108.3259,-74.6663"/>
<text text-anchor="middle" x="58.4419" y="-58.5408" font-family="Arial" font-size="15.00" fill="#c6c5fe">useMe/index.ts</text>
</g>
<!-- useMe/interactor.tsx -->
<g id="node8" class="node">
<title>useMe/interactor.tsx</title>
<path fill="none" stroke="#c6c5fe" d="M294.7196,-115.6663C294.7196,-115.6663 161.2717,-115.6663 161.2717,-115.6663 157.0217,-115.6663 152.7718,-111.4164 152.7718,-107.1665 152.7718,-107.1665 152.7718,-98.6666 152.7718,-98.6666 152.7718,-94.4167 157.0217,-90.1668 161.2717,-90.1668 161.2717,-90.1668 294.7196,-90.1668 294.7196,-90.1668 298.9695,-90.1668 303.2194,-94.4167 303.2194,-98.6666 303.2194,-98.6666 303.2194,-107.1665 303.2194,-107.1665 303.2194,-111.4164 298.9695,-115.6663 294.7196,-115.6663"/>
<text text-anchor="middle" x="227.9956" y="-99.5408" font-family="Arial" font-size="15.00" fill="#c6c5fe">useMe/interactor.tsx</text>
</g>
<!-- useMe/index.ts&#45;&gt;useMe/interactor.tsx -->
<g id="edge4" class="edge">
<title>useMe/index.ts&#45;&gt;useMe/interactor.tsx</title>
<path fill="none" stroke="#757575" d="M110.6971,-74.5524C128.1021,-78.7612 147.6627,-83.4911 165.7483,-87.8644"/>
<polygon fill="#757575" stroke="#757575" points="165.0785,-91.3033 175.6211,-90.2518 166.7239,-84.4994 165.0785,-91.3033"/>
</g>
<!-- useMe/useMe.ts -->
<g id="node9" class="node">
<title>useMe/useMe.ts</title>
<path fill="none" stroke="#c6c5fe" d="M282.5422,-53.6663C282.5422,-53.6663 173.4491,-53.6663 173.4491,-53.6663 169.1991,-53.6663 164.9492,-49.4164 164.9492,-45.1665 164.9492,-45.1665 164.9492,-36.6666 164.9492,-36.6666 164.9492,-32.4167 169.1991,-28.1668 173.4491,-28.1668 173.4491,-28.1668 282.5422,-28.1668 282.5422,-28.1668 286.7921,-28.1668 291.042,-32.4167 291.042,-36.6666 291.042,-36.6666 291.042,-45.1665 291.042,-45.1665 291.042,-49.4164 286.7921,-53.6663 282.5422,-53.6663"/>
<text text-anchor="middle" x="227.9956" y="-37.5408" font-family="Arial" font-size="15.00" fill="#c6c5fe">useMe/useMe.ts</text>
</g>
<!-- useMe/index.ts&#45;&gt;useMe/useMe.ts -->
<g id="edge5" class="edge">
<title>useMe/index.ts&#45;&gt;useMe/useMe.ts</title>
<path fill="none" stroke="#757575" d="M117.2677,-54.6307C129.4186,-53.1257 142.3566,-51.5233 154.9431,-49.9644"/>
<polygon fill="#757575" stroke="#757575" points="155.4461,-53.4289 164.9401,-48.7262 154.5857,-46.482 155.4461,-53.4289"/>
</g>
<!-- useMe/interactor.tsx&#45;&gt;../domain/me/index.ts -->
<g id="edge6" class="edge">
<title>useMe/interactor.tsx&#45;&gt;../domain/me/index.ts</title>
<path fill="none" stroke="#757575" d="M241.8616,-115.5718C261.7732,-132.9586 300.3528,-163.7944 339.1074,-178.9165 369.4164,-190.7431 404.3313,-197.453 435.6663,-201.2379"/>
<polygon fill="#757575" stroke="#757575" points="435.3753,-204.7271 445.7039,-202.3667 436.1577,-197.771 435.3753,-204.7271"/>
</g>
<!-- useMe/interactor.tsx&#45;&gt;../domain/me/type.ts -->
<g id="edge7" class="edge">
<title>useMe/interactor.tsx&#45;&gt;../domain/me/type.ts</title>
<path fill="none" stroke="#757575" d="M253.743,-115.6911C275.8005,-125.9418 308.7258,-139.623 339.1074,-145.9165 475.9627,-174.2661 639.1427,-173.7934 736.6376,-169.9867"/>
<polygon fill="#757575" stroke="#757575" points="736.8899,-173.4793 746.7375,-169.5711 736.6021,-166.4853 736.8899,-173.4793"/>
</g>
<!-- useMe/interactor.tsx&#45;&gt;../presenter/components/ecosystem/Me/Content.tsx -->
<g id="edge8" class="edge">
<title>useMe/interactor.tsx&#45;&gt;../presenter/components/ecosystem/Me/Content.tsx</title>
<path fill="none" stroke="#757575" d="M303.3527,-108.2429C313.7907,-108.9806 324.8713,-109.7638 336.2955,-110.5713"/>
<polygon fill="#757575" stroke="#757575" points="336.194,-114.0728 346.4159,-111.2866 336.6876,-107.0902 336.194,-114.0728"/>
</g>
<!-- useMe/interactor.tsx&#45;&gt;useMe/type.ts -->
<g id="edge10" class="edge">
<title>useMe/interactor.tsx&#45;&gt;useMe/type.ts</title>
<path fill="none" stroke="#757575" d="M303.3065,-100.3835C421.0432,-96.4235 646.6908,-88.8341 757.6979,-85.1005"/>
<polygon fill="#757575" stroke="#757575" points="757.8757,-88.5966 767.7523,-84.7623 757.6403,-81.6005 757.8757,-88.5966"/>
</g>
<!-- useMe/interactor.tsx&#45;&gt;../presenter/components/ecosystem/Me/Exception.tsx -->
<g id="edge9" class="edge">
<title>useMe/interactor.tsx&#45;&gt;../presenter/components/ecosystem/Me/Exception.tsx</title>
<path fill="none" stroke="#757575" d="M264.6544,-90.1533C286.1333,-83.0655 313.9113,-74.5655 339.1074,-68.9165 361.2953,-63.942 385.1861,-59.675 408.2086,-56.099"/>
<polygon fill="#757575" stroke="#757575" points="409.0028,-59.5186 418.3639,-54.5567 407.9517,-52.5979 409.0028,-59.5186"/>
</g>
<!-- useMe/useMe.ts&#45;&gt;useMe/type.ts -->
<g id="edge11" class="edge">
<title>useMe/useMe.ts&#45;&gt;useMe/type.ts</title>
<path fill="none" stroke="#757575" d="M282.3652,-28.2349C372.9835,-9.3671 559.8802,19.8415 711.1011,-19.9165 743.6143,-28.4647 776.6196,-48.8858 798.1982,-64.1768"/>
<polygon fill="#757575" stroke="#757575" points="796.2877,-67.115 806.4354,-70.1604 800.4017,-61.4515 796.2877,-67.115"/>
</g>
</g>
</svg>
