<?xml version="1.0" encoding="UTF-8" standalone="no"?>
<!DOCTYPE svg PUBLIC "-//W3C//DTD SVG 1.1//EN"
 "http://www.w3.org/Graphics/SVG/1.1/DTD/svg11.dtd">
<!-- Generated by graphviz version 2.40.1 (20161225.0304)
 -->
<!-- Title: G Pages: 1 -->
<svg width="468pt" height="68pt"
 viewBox="0.00 0.00 467.51 68.45" xmlns="http://www.w3.org/2000/svg" xmlns:xlink="http://www.w3.org/1999/xlink">
<g id="graph0" class="graph" transform="scale(1 1) rotate(0) translate(21.6 46.8485)">
<title>G</title>
<polygon fill="#111111" stroke="transparent" points="-21.6,21.6 -21.6,-46.8485 445.9066,-46.8485 445.9066,21.6 -21.6,21.6"/>
<!-- useMe/index.ts -->
<g id="node1" class="node">
<title>useMe/index.ts</title>
<path fill="none" stroke="#c6c5fe" d="M108.3259,-25.374C108.3259,-25.374 8.5579,-25.374 8.5579,-25.374 4.308,-25.374 .058,-21.1241 .058,-16.8742 .058,-16.8742 .058,-8.3743 .058,-8.3743 .058,-4.1244 4.308,.1255 8.5579,.1255 8.5579,.1255 108.3259,.1255 108.3259,.1255 112.5758,.1255 116.8257,-4.1244 116.8257,-8.3743 116.8257,-8.3743 116.8257,-16.8742 116.8257,-16.8742 116.8257,-21.1241 112.5758,-25.374 108.3259,-25.374"/>
<text text-anchor="middle" x="58.4419" y="-9.2485" font-family="Arial" font-size="15.00" fill="#c6c5fe">useMe/index.ts</text>
</g>
<!-- useMe/useMe.ts -->
<g id="node2" class="node">
<title>useMe/useMe.ts</title>
<path fill="none" stroke="#c6c5fe" d="M270.4535,-25.374C270.4535,-25.374 161.3604,-25.374 161.3604,-25.374 157.1105,-25.374 152.8606,-21.1241 152.8606,-16.8742 152.8606,-16.8742 152.8606,-8.3743 152.8606,-8.3743 152.8606,-4.1244 157.1105,.1255 161.3604,.1255 161.3604,.1255 270.4535,.1255 270.4535,.1255 274.7035,.1255 278.9534,-4.1244 278.9534,-8.3743 278.9534,-8.3743 278.9534,-16.8742 278.9534,-16.8742 278.9534,-21.1241 274.7035,-25.374 270.4535,-25.374"/>
<text text-anchor="middle" x="215.907" y="-9.2485" font-family="Arial" font-size="15.00" fill="#c6c5fe">useMe/useMe.ts</text>
</g>
<!-- useMe/index.ts&#45;&gt;useMe/useMe.ts -->
<g id="edge1" class="edge">
<title>useMe/index.ts&#45;&gt;useMe/useMe.ts</title>
<path fill="none" stroke="#757575" d="M117.0761,-12.6243C125.4348,-12.6243 134.1175,-12.6243 142.7118,-12.6243"/>
<polygon fill="#757575" stroke="#757575" points="142.7354,-16.1244 152.7353,-12.6243 142.7353,-9.1244 142.7354,-16.1244"/>
</g>
<!-- useMe/type.ts -->
<g id="node3" class="node">
<title>useMe/type.ts</title>
<path fill="none" stroke="#cfffac" d="M415.9957,-25.374C415.9957,-25.374 323.2411,-25.374 323.2411,-25.374 318.9912,-25.374 314.7413,-21.1241 314.7413,-16.8742 314.7413,-16.8742 314.7413,-8.3743 314.7413,-8.3743 314.7413,-4.1244 318.9912,.1255 323.2411,.1255 323.2411,.1255 415.9957,.1255 415.9957,.1255 420.2456,.1255 424.4955,-4.1244 424.4955,-8.3743 424.4955,-8.3743 424.4955,-16.8742 424.4955,-16.8742 424.4955,-21.1241 420.2456,-25.374 415.9957,-25.374"/>
<text text-anchor="middle" x="369.6184" y="-9.2485" font-family="Arial" font-size="15.00" fill="#cfffac">useMe/type.ts</text>
</g>
<!-- useMe/useMe.ts&#45;&gt;useMe/type.ts -->
<g id="edge2" class="edge">
<title>useMe/useMe.ts&#45;&gt;useMe/type.ts</title>
<path fill="none" stroke="#757575" d="M279.3147,-12.6243C287.6634,-12.6243 296.2306,-12.6243 304.6055,-12.6243"/>
<polygon fill="#757575" stroke="#757575" points="304.6982,-16.1244 314.6981,-12.6243 304.6981,-9.1244 304.6982,-16.1244"/>
</g>
</g>
</svg>
