<?xml version="1.0" encoding="UTF-8" standalone="no"?>
<!DOCTYPE svg PUBLIC "-//W3C//DTD SVG 1.1//EN"
 "http://www.w3.org/Graphics/SVG/1.1/DTD/svg11.dtd">
<!-- Generated by graphviz version 2.40.1 (20161225.0304)
 -->
<!-- Title: G Pages: 1 -->
<svg width="1141pt" height="193pt"
 viewBox="0.00 0.00 1141.45 193.45" xmlns="http://www.w3.org/2000/svg" xmlns:xlink="http://www.w3.org/1999/xlink">
<g id="graph0" class="graph" transform="scale(1 1) rotate(0) translate(21.6 171.8485)">
<title>G</title>
<polygon fill="#111111" stroke="transparent" points="-21.6,21.6 -21.6,-171.8485 1119.85,-171.8485 1119.85,21.6 -21.6,21.6"/>
<!-- ../presenter/components/ecosystem/Me/Content.tsx -->
<g id="node1" class="node">
<title>../presenter/components/ecosystem/Me/Content.tsx</title>
<path fill="none" stroke="#c6c5fe" d="M944.202,-107.374C944.202,-107.374 602.8888,-107.374 602.8888,-107.374 598.6389,-107.374 594.389,-103.1241 594.389,-98.8742 594.389,-98.8742 594.389,-90.3743 594.389,-90.3743 594.389,-86.1244 598.6389,-81.8745 602.8888,-81.8745 602.8888,-81.8745 944.202,-81.8745 944.202,-81.8745 948.4519,-81.8745 952.7018,-86.1244 952.7018,-90.3743 952.7018,-90.3743 952.7018,-98.8742 952.7018,-98.8742 952.7018,-103.1241 948.4519,-107.374 944.202,-107.374"/>
<text text-anchor="middle" x="773.5454" y="-91.2485" font-family="Arial" font-size="15.00" fill="#c6c5fe">../presenter/components/ecosystem/Me/Content.tsx</text>
</g>
<!-- useMe/type.ts -->
<g id="node2" class="node">
<title>useMe/type.ts</title>
<path fill="none" stroke="#cfffac" d="M1089.939,-107.374C1089.939,-107.374 997.1845,-107.374 997.1845,-107.374 992.9346,-107.374 988.6847,-103.1241 988.6847,-98.8742 988.6847,-98.8742 988.6847,-90.3743 988.6847,-90.3743 988.6847,-86.1244 992.9346,-81.8745 997.1845,-81.8745 997.1845,-81.8745 1089.939,-81.8745 1089.939,-81.8745 1094.189,-81.8745 1098.4389,-86.1244 1098.4389,-90.3743 1098.4389,-90.3743 1098.4389,-98.8742 1098.4389,-98.8742 1098.4389,-103.1241 1094.189,-107.374 1089.939,-107.374"/>
<text text-anchor="middle" x="1043.5618" y="-91.2485" font-family="Arial" font-size="15.00" fill="#cfffac">useMe/type.ts</text>
</g>
<!-- ../presenter/components/ecosystem/Me/Content.tsx&#45;&gt;useMe/type.ts -->
<g id="edge1" class="edge">
<title>../presenter/components/ecosystem/Me/Content.tsx&#45;&gt;useMe/type.ts</title>
<path fill="none" stroke="#757575" d="M952.8991,-94.6243C961.8712,-94.6243 970.5494,-94.6243 978.749,-94.6243"/>
<polygon fill="#757575" stroke="#757575" points="978.8653,-98.1244 988.8653,-94.6243 978.8653,-91.1244 978.8653,-98.1244"/>
</g>
<!-- ../presenter/components/ecosystem/Me/Exception.tsx -->
<g id="node3" class="node">
<title>../presenter/components/ecosystem/Me/Exception.tsx</title>
<path fill="none" stroke="#cfffac" d="M549.7143,-25.374C549.7143,-25.374 194.7267,-25.374 194.7267,-25.374 190.4767,-25.374 186.2268,-21.1241 186.2268,-16.8742 186.2268,-16.8742 186.2268,-8.3743 186.2268,-8.3743 186.2268,-4.1244 190.4767,.1255 194.7267,.1255 194.7267,.1255 549.7143,.1255 549.7143,.1255 553.9642,.1255 558.2141,-4.1244 558.2141,-8.3743 558.2141,-8.3743 558.2141,-16.8742 558.2141,-16.8742 558.2141,-21.1241 553.9642,-25.374 549.7143,-25.374"/>
<text text-anchor="middle" x="372.2205" y="-9.2485" font-family="Arial" font-size="15.00" fill="#cfffac">../presenter/components/ecosystem/Me/Exception.tsx</text>
</g>
<!-- useMe/index.ts -->
<g id="node4" class="node">
<title>useMe/index.ts</title>
<path fill="none" stroke="#ff6c60" d="M422.1045,-146.374C422.1045,-146.374 322.3365,-146.374 322.3365,-146.374 318.0865,-146.374 313.8366,-142.1241 313.8366,-137.8742 313.8366,-137.8742 313.8366,-129.3743 313.8366,-129.3743 313.8366,-125.1244 318.0865,-120.8745 322.3365,-120.8745 322.3365,-120.8745 422.1045,-120.8745 422.1045,-120.8745 426.3544,-120.8745 430.6043,-125.1244 430.6043,-129.3743 430.6043,-129.3743 430.6043,-137.8742 430.6043,-137.8742 430.6043,-142.1241 426.3544,-146.374 422.1045,-146.374"/>
<text text-anchor="middle" x="372.2205" y="-130.2485" font-family="Arial" font-size="15.00" fill="#ff6c60">useMe/index.ts</text>
</g>
<!-- useMe/interactor.tsx -->
<g id="node5" class="node">
<title>useMe/interactor.tsx</title>
<path fill="none" stroke="#ff6c60" d="M141.8358,-105.374C141.8358,-105.374 8.3879,-105.374 8.3879,-105.374 4.1379,-105.374 -.112,-101.1241 -.112,-96.8742 -.112,-96.8742 -.112,-88.3743 -.112,-88.3743 -.112,-84.1244 4.1379,-79.8745 8.3879,-79.8745 8.3879,-79.8745 141.8358,-79.8745 141.8358,-79.8745 146.0857,-79.8745 150.3356,-84.1244 150.3356,-88.3743 150.3356,-88.3743 150.3356,-96.8742 150.3356,-96.8742 150.3356,-101.1241 146.0857,-105.374 141.8358,-105.374"/>
<text text-anchor="middle" x="75.1118" y="-89.2485" font-family="Arial" font-size="15.00" fill="#ff6c60">useMe/interactor.tsx</text>
</g>
<!-- useMe/index.ts&#45;&gt;useMe/interactor.tsx -->
<g id="edge2" class="edge">
<title>useMe/index.ts&#45;&gt;useMe/interactor.tsx</title>
<path fill="none" stroke="#757575" d="M313.7139,-131.0481C263.1424,-125.6898 190.2123,-115.6738 138.315,-106.9878"/>
<polygon fill="#757575" stroke="#757575" points="138.6746,-103.4987 128.2289,-105.2701 137.4993,-110.3994 138.6746,-103.4987"/>
</g>
<!-- useMe/useMe.ts -->
<g id="node6" class="node">
<title>useMe/useMe.ts</title>
<path fill="none" stroke="#c6c5fe" d="M828.092,-150.374C828.092,-150.374 718.9989,-150.374 718.9989,-150.374 714.7489,-150.374 710.499,-146.1241 710.499,-141.8742 710.499,-141.8742 710.499,-133.3743 710.499,-133.3743 710.499,-129.1244 714.7489,-124.8745 718.9989,-124.8745 718.9989,-124.8745 828.092,-124.8745 828.092,-124.8745 832.3419,-124.8745 836.5918,-129.1244 836.5918,-133.3743 836.5918,-133.3743 836.5918,-141.8742 836.5918,-141.8742 836.5918,-146.1241 832.3419,-150.374 828.092,-150.374"/>
<text text-anchor="middle" x="773.5454" y="-134.2485" font-family="Arial" font-size="15.00" fill="#c6c5fe">useMe/useMe.ts</text>
</g>
<!-- useMe/index.ts&#45;&gt;useMe/useMe.ts -->
<g id="edge3" class="edge">
<title>useMe/index.ts&#45;&gt;useMe/useMe.ts</title>
<path fill="none" stroke="#757575" d="M431.0064,-134.2102C502.3708,-134.9215 622.7524,-136.1213 700.1401,-136.8926"/>
<polygon fill="#757575" stroke="#757575" points="700.261,-140.3939 710.2954,-136.9939 700.3308,-133.3943 700.261,-140.3939"/>
</g>
<!-- useMe/interactor.tsx&#45;&gt;../presenter/components/ecosystem/Me/Content.tsx -->
<g id="edge4" class="edge">
<title>useMe/interactor.tsx&#45;&gt;../presenter/components/ecosystem/Me/Content.tsx</title>
<path fill="none" stroke="#757575" d="M150.52,-92.8402C253.4294,-93.1349 441.3524,-93.673 583.9899,-94.0815"/>
<polygon fill="#757575" stroke="#757575" points="584.1698,-97.5819 594.1798,-94.1106 584.1899,-90.5819 584.1698,-97.5819"/>
</g>
<!-- useMe/interactor.tsx&#45;&gt;useMe/type.ts -->
<g id="edge7" class="edge">
<title>useMe/interactor.tsx&#45;&gt;useMe/type.ts</title>
<path fill="none" stroke="#757575" d="M150.3096,-83.7797C302.4779,-67.451 657.5503,-37.3152 952.8735,-72.6243 965.1898,-74.0968 978.2507,-76.6563 990.5092,-79.521"/>
<polygon fill="#757575" stroke="#757575" points="990.0388,-83.0089 1000.5837,-81.9818 991.6999,-76.2088 990.0388,-83.0089"/>
</g>
<!-- useMe/interactor.tsx&#45;&gt;../presenter/components/ecosystem/Me/Exception.tsx -->
<g id="edge5" class="edge">
<title>useMe/interactor.tsx&#45;&gt;../presenter/components/ecosystem/Me/Exception.tsx</title>
<path fill="none" stroke="#757575" d="M96.8741,-79.813C118.7189,-67.5471 153.7057,-49.4918 186.2236,-39.6243 202.9527,-34.5479 220.8264,-30.4137 238.6328,-27.0497"/>
<polygon fill="#757575" stroke="#757575" points="239.2954,-30.4867 248.5106,-25.259 238.0466,-23.599 239.2954,-30.4867"/>
</g>
<!-- useMe/interactor.tsx&#45;&gt;useMe/index.ts -->
<g id="edge6" class="edge">
<title>useMe/interactor.tsx&#45;&gt;useMe/index.ts</title>
<path fill="none" stroke="#757575" d="M150.469,-97.0619C199.4794,-102.676 262.6607,-111.5016 309.0376,-119.2642"/>
<polygon fill="#757575" stroke="#757575" points="308.5171,-122.7258 318.9627,-120.954 309.6921,-115.8251 308.5171,-122.7258"/>
</g>
<!-- useMe/useMe.ts&#45;&gt;useMe/type.ts -->
<g id="edge8" class="edge">
<title>useMe/useMe.ts&#45;&gt;useMe/type.ts</title>
<path fill="none" stroke="#757575" d="M836.8947,-132.0997C871.3442,-128.6203 914.6136,-123.479 952.8735,-116.6243 963.7401,-114.6774 975.247,-112.2082 986.2834,-109.6328"/>
<polygon fill="#757575" stroke="#757575" points="987.3424,-112.9784 996.2549,-107.2497 985.7152,-106.1701 987.3424,-112.9784"/>
</g>
</g>
</svg>
