<?xml version="1.0" encoding="UTF-8" standalone="no"?>
<!DOCTYPE svg PUBLIC "-//W3C//DTD SVG 1.1//EN"
 "http://www.w3.org/Graphics/SVG/1.1/DTD/svg11.dtd">
<!-- Generated by graphviz version 2.40.1 (20161225.0304)
 -->
<!-- Title: G Pages: 1 -->
<svg width="720pt" height="132pt"
 viewBox="0.00 0.00 720.43 132.45" xmlns="http://www.w3.org/2000/svg" xmlns:xlink="http://www.w3.org/1999/xlink">
<g id="graph0" class="graph" transform="scale(1 1) rotate(0) translate(21.6 110.8485)">
<title>G</title>
<polygon fill="#111111" stroke="transparent" points="-21.6,21.6 -21.6,-110.8485 698.8319,-110.8485 698.8319,21.6 -21.6,21.6"/>
<!-- ../domain/me/index.ts -->
<g id="node1" class="node">
<title>../domain/me/index.ts</title>
<path fill="none" stroke="#c6c5fe" d="M481.457,-68.374C481.457,-68.374 340.3237,-68.374 340.3237,-68.374 336.0738,-68.374 331.8239,-64.1241 331.8239,-59.8742 331.8239,-59.8742 331.8239,-51.3743 331.8239,-51.3743 331.8239,-47.1244 336.0738,-42.8745 340.3237,-42.8745 340.3237,-42.8745 481.457,-42.8745 481.457,-42.8745 485.707,-42.8745 489.9569,-47.1244 489.9569,-51.3743 489.9569,-51.3743 489.9569,-59.8742 489.9569,-59.8742 489.9569,-64.1241 485.707,-68.374 481.457,-68.374"/>
<text text-anchor="middle" x="410.8904" y="-52.2485" font-family="Arial" font-size="15.00" fill="#c6c5fe">../domain/me/index.ts</text>
</g>
<!-- ../domain/me/me.ts -->
<g id="node2" class="node">
<title>../domain/me/me.ts</title>
<path fill="none" stroke="#cfffac" d="M664.7475,-89.374C664.7475,-89.374 538.6578,-89.374 538.6578,-89.374 534.4079,-89.374 530.158,-85.1241 530.158,-80.8742 530.158,-80.8742 530.158,-72.3743 530.158,-72.3743 530.158,-68.1244 534.4079,-63.8745 538.6578,-63.8745 538.6578,-63.8745 664.7475,-63.8745 664.7475,-63.8745 668.9974,-63.8745 673.2473,-68.1244 673.2473,-72.3743 673.2473,-72.3743 673.2473,-80.8742 673.2473,-80.8742 673.2473,-85.1241 668.9974,-89.374 664.7475,-89.374"/>
<text text-anchor="middle" x="601.7026" y="-73.2485" font-family="Arial" font-size="15.00" fill="#cfffac">../domain/me/me.ts</text>
</g>
<!-- ../domain/me/index.ts&#45;&gt;../domain/me/me.ts -->
<g id="edge1" class="edge">
<title>../domain/me/index.ts&#45;&gt;../domain/me/me.ts</title>
<path fill="none" stroke="#757575" d="M490.1543,-64.3477C499.9576,-65.4266 509.9952,-66.5313 519.8366,-67.6144"/>
<polygon fill="#757575" stroke="#757575" points="519.6804,-71.1183 530.0033,-68.7333 520.4462,-64.1603 519.6804,-71.1183"/>
</g>
<!-- ../domain/me/type.ts -->
<g id="node3" class="node">
<title>../domain/me/type.ts</title>
<path fill="none" stroke="#cfffac" d="M668.7614,-46.374C668.7614,-46.374 534.6439,-46.374 534.6439,-46.374 530.394,-46.374 526.144,-42.1241 526.144,-37.8742 526.144,-37.8742 526.144,-29.3743 526.144,-29.3743 526.144,-25.1244 530.394,-20.8745 534.6439,-20.8745 534.6439,-20.8745 668.7614,-20.8745 668.7614,-20.8745 673.0113,-20.8745 677.2612,-25.1244 677.2612,-29.3743 677.2612,-29.3743 677.2612,-37.8742 677.2612,-37.8742 677.2612,-42.1241 673.0113,-46.374 668.7614,-46.374"/>
<text text-anchor="middle" x="601.7026" y="-30.2485" font-family="Arial" font-size="15.00" fill="#cfffac">../domain/me/type.ts</text>
</g>
<!-- ../domain/me/index.ts&#45;&gt;../domain/me/type.ts -->
<g id="edge2" class="edge">
<title>../domain/me/index.ts&#45;&gt;../domain/me/type.ts</title>
<path fill="none" stroke="#757575" d="M490.1543,-46.4854C498.6913,-45.5011 507.406,-44.4964 516.014,-43.5039"/>
<polygon fill="#757575" stroke="#757575" points="516.5198,-46.9688 526.0531,-42.3464 515.718,-40.0149 516.5198,-46.9688"/>
</g>
<!-- useMe/index.ts -->
<g id="node4" class="node">
<title>useMe/index.ts</title>
<path fill="none" stroke="#c6c5fe" d="M108.3259,-46.374C108.3259,-46.374 8.5579,-46.374 8.5579,-46.374 4.308,-46.374 .058,-42.1241 .058,-37.8742 .058,-37.8742 .058,-29.3743 .058,-29.3743 .058,-25.1244 4.308,-20.8745 8.5579,-20.8745 8.5579,-20.8745 108.3259,-20.8745 108.3259,-20.8745 112.5758,-20.8745 116.8257,-25.1244 116.8257,-29.3743 116.8257,-29.3743 116.8257,-37.8742 116.8257,-37.8742 116.8257,-42.1241 112.5758,-46.374 108.3259,-46.374"/>
<text text-anchor="middle" x="58.4419" y="-30.2485" font-family="Arial" font-size="15.00" fill="#c6c5fe">useMe/index.ts</text>
</g>
<!-- useMe/interactor.ts -->
<g id="node5" class="node">
<title>useMe/interactor.ts</title>
<path fill="none" stroke="#c6c5fe" d="M286.9697,-68.374C286.9697,-68.374 161.5216,-68.374 161.5216,-68.374 157.2716,-68.374 153.0217,-64.1241 153.0217,-59.8742 153.0217,-59.8742 153.0217,-51.3743 153.0217,-51.3743 153.0217,-47.1244 157.2716,-42.8745 161.5216,-42.8745 161.5216,-42.8745 286.9697,-42.8745 286.9697,-42.8745 291.2196,-42.8745 295.4695,-47.1244 295.4695,-51.3743 295.4695,-51.3743 295.4695,-59.8742 295.4695,-59.8742 295.4695,-64.1241 291.2196,-68.374 286.9697,-68.374"/>
<text text-anchor="middle" x="224.2456" y="-52.2485" font-family="Arial" font-size="15.00" fill="#c6c5fe">useMe/interactor.ts</text>
</g>
<!-- useMe/index.ts&#45;&gt;useMe/interactor.ts -->
<g id="edge3" class="edge">
<title>useMe/index.ts&#45;&gt;useMe/interactor.ts</title>
<path fill="none" stroke="#757575" d="M116.8981,-41.3806C125.3656,-42.5042 134.2069,-43.6773 143.0228,-44.847"/>
<polygon fill="#757575" stroke="#757575" points="142.5706,-48.3177 152.9442,-46.1635 143.4914,-41.3785 142.5706,-48.3177"/>
</g>
<!-- useMe/useMe.tsx -->
<g id="node6" class="node">
<title>useMe/useMe.tsx</title>
<path fill="none" stroke="#c6c5fe" d="M282.2929,-25.374C282.2929,-25.374 166.1983,-25.374 166.1983,-25.374 161.9484,-25.374 157.6985,-21.1241 157.6985,-16.8742 157.6985,-16.8742 157.6985,-8.3743 157.6985,-8.3743 157.6985,-4.1244 161.9484,.1255 166.1983,.1255 166.1983,.1255 282.2929,.1255 282.2929,.1255 286.5428,.1255 290.7928,-4.1244 290.7928,-8.3743 290.7928,-8.3743 290.7928,-16.8742 290.7928,-16.8742 290.7928,-21.1241 286.5428,-25.374 282.2929,-25.374"/>
<text text-anchor="middle" x="224.2456" y="-9.2485" font-family="Arial" font-size="15.00" fill="#c6c5fe">useMe/useMe.tsx</text>
</g>
<!-- useMe/index.ts&#45;&gt;useMe/useMe.tsx -->
<g id="edge4" class="edge">
<title>useMe/index.ts&#45;&gt;useMe/useMe.tsx</title>
<path fill="none" stroke="#757575" d="M116.8981,-26.2205C126.7576,-24.9717 137.1237,-23.6588 147.3666,-22.3614"/>
<polygon fill="#757575" stroke="#757575" points="148.0641,-25.8011 157.545,-21.0723 147.1845,-18.8566 148.0641,-25.8011"/>
</g>
<!-- useMe/interactor.ts&#45;&gt;../domain/me/index.ts -->
<g id="edge5" class="edge">
<title>useMe/interactor.ts&#45;&gt;../domain/me/index.ts</title>
<path fill="none" stroke="#757575" d="M295.6069,-55.6243C304.1132,-55.6243 312.8775,-55.6243 321.5949,-55.6243"/>
<polygon fill="#757575" stroke="#757575" points="321.7885,-59.1244 331.7885,-55.6243 321.7885,-52.1244 321.7885,-59.1244"/>
</g>
<!-- useMe/type.ts -->
<g id="node7" class="node">
<title>useMe/type.ts</title>
<path fill="none" stroke="#cfffac" d="M457.2676,-25.374C457.2676,-25.374 364.5131,-25.374 364.5131,-25.374 360.2632,-25.374 356.0133,-21.1241 356.0133,-16.8742 356.0133,-16.8742 356.0133,-8.3743 356.0133,-8.3743 356.0133,-4.1244 360.2632,.1255 364.5131,.1255 364.5131,.1255 457.2676,.1255 457.2676,.1255 461.5176,.1255 465.7675,-4.1244 465.7675,-8.3743 465.7675,-8.3743 465.7675,-16.8742 465.7675,-16.8742 465.7675,-21.1241 461.5176,-25.374 457.2676,-25.374"/>
<text text-anchor="middle" x="410.8904" y="-9.2485" font-family="Arial" font-size="15.00" fill="#cfffac">useMe/type.ts</text>
</g>
<!-- useMe/interactor.ts&#45;&gt;useMe/type.ts -->
<g id="edge6" class="edge">
<title>useMe/interactor.ts&#45;&gt;useMe/type.ts</title>
<path fill="none" stroke="#757575" d="M279.2357,-42.9554C300.2167,-38.1217 324.3265,-32.5672 346.1333,-27.5433"/>
<polygon fill="#757575" stroke="#757575" points="347.0121,-30.9326 355.9711,-25.2768 345.4406,-24.1113 347.0121,-30.9326"/>
</g>
<!-- useMe/useMe.tsx&#45;&gt;useMe/type.ts -->
<g id="edge7" class="edge">
<title>useMe/useMe.tsx&#45;&gt;useMe/type.ts</title>
<path fill="none" stroke="#757575" d="M290.8382,-12.6243C308.6912,-12.6243 327.9697,-12.6243 345.7435,-12.6243"/>
<polygon fill="#757575" stroke="#757575" points="346.0124,-16.1244 356.0124,-12.6243 346.0123,-9.1244 346.0124,-16.1244"/>
</g>
</g>
</svg>
