<?xml version="1.0" encoding="UTF-8" standalone="no"?>
<!DOCTYPE svg PUBLIC "-//W3C//DTD SVG 1.1//EN"
 "http://www.w3.org/Graphics/SVG/1.1/DTD/svg11.dtd">
<!-- Generated by graphviz version 2.40.1 (20161225.0304)
 -->
<!-- Title: G Pages: 1 -->
<svg width="543pt" height="175pt"
 viewBox="0.00 0.00 543.36 175.45" xmlns="http://www.w3.org/2000/svg" xmlns:xlink="http://www.w3.org/1999/xlink">
<g id="graph0" class="graph" transform="scale(1 1) rotate(0) translate(21.6 153.8485)">
<title>G</title>
<polygon fill="#111111" stroke="transparent" points="-21.6,21.6 -21.6,-153.8485 521.7636,-153.8485 521.7636,21.6 -21.6,21.6"/>
<!-- ../domain/me/index.ts -->
<g id="node1" class="node">
<title>../domain/me/index.ts</title>
<path fill="none" stroke="#c6c5fe" d="M304.3887,-46.374C304.3887,-46.374 163.2554,-46.374 163.2554,-46.374 159.0054,-46.374 154.7555,-42.1241 154.7555,-37.8742 154.7555,-37.8742 154.7555,-29.3743 154.7555,-29.3743 154.7555,-25.1244 159.0054,-20.8745 163.2554,-20.8745 163.2554,-20.8745 304.3887,-20.8745 304.3887,-20.8745 308.6386,-20.8745 312.8885,-25.1244 312.8885,-29.3743 312.8885,-29.3743 312.8885,-37.8742 312.8885,-37.8742 312.8885,-42.1241 308.6386,-46.374 304.3887,-46.374"/>
<text text-anchor="middle" x="233.822" y="-30.2485" font-family="Arial" font-size="15.00" fill="#c6c5fe">../domain/me/index.ts</text>
</g>
<!-- ../domain/me/me.ts -->
<g id="node2" class="node">
<title>../domain/me/me.ts</title>
<path fill="none" stroke="#cfffac" d="M487.6791,-68.374C487.6791,-68.374 361.5895,-68.374 361.5895,-68.374 357.3395,-68.374 353.0896,-64.1241 353.0896,-59.8742 353.0896,-59.8742 353.0896,-51.3743 353.0896,-51.3743 353.0896,-47.1244 357.3395,-42.8745 361.5895,-42.8745 361.5895,-42.8745 487.6791,-42.8745 487.6791,-42.8745 491.929,-42.8745 496.1789,-47.1244 496.1789,-51.3743 496.1789,-51.3743 496.1789,-59.8742 496.1789,-59.8742 496.1789,-64.1241 491.929,-68.374 487.6791,-68.374"/>
<text text-anchor="middle" x="424.6343" y="-52.2485" font-family="Arial" font-size="15.00" fill="#cfffac">../domain/me/me.ts</text>
</g>
<!-- ../domain/me/index.ts&#45;&gt;../domain/me/me.ts -->
<g id="edge1" class="edge">
<title>../domain/me/index.ts&#45;&gt;../domain/me/me.ts</title>
<path fill="none" stroke="#757575" d="M313.0859,-42.7631C322.8893,-43.8934 332.9268,-45.0507 342.7682,-46.1854"/>
<polygon fill="#757575" stroke="#757575" points="342.5998,-49.6891 352.9349,-47.3576 343.4016,-42.7351 342.5998,-49.6891"/>
</g>
<!-- ../domain/me/type.ts -->
<g id="node3" class="node">
<title>../domain/me/type.ts</title>
<path fill="none" stroke="#cfffac" d="M491.693,-25.374C491.693,-25.374 357.5755,-25.374 357.5755,-25.374 353.3256,-25.374 349.0757,-21.1241 349.0757,-16.8742 349.0757,-16.8742 349.0757,-8.3743 349.0757,-8.3743 349.0757,-4.1244 353.3256,.1255 357.5755,.1255 357.5755,.1255 491.693,.1255 491.693,.1255 495.943,.1255 500.1929,-4.1244 500.1929,-8.3743 500.1929,-8.3743 500.1929,-16.8742 500.1929,-16.8742 500.1929,-21.1241 495.943,-25.374 491.693,-25.374"/>
<text text-anchor="middle" x="424.6343" y="-9.2485" font-family="Arial" font-size="15.00" fill="#cfffac">../domain/me/type.ts</text>
</g>
<!-- ../domain/me/index.ts&#45;&gt;../domain/me/type.ts -->
<g id="edge2" class="edge">
<title>../domain/me/index.ts&#45;&gt;../domain/me/type.ts</title>
<path fill="none" stroke="#757575" d="M313.0859,-24.9008C321.623,-23.9613 330.3376,-23.0022 338.9456,-22.0548"/>
<polygon fill="#757575" stroke="#757575" points="339.4276,-25.523 348.9847,-20.9499 338.6618,-18.565 339.4276,-25.523"/>
</g>
<!-- me/interactor.ts -->
<g id="node4" class="node">
<title>me/interactor.ts</title>
<path fill="none" stroke="#c6c5fe" d="M109.8096,-46.374C109.8096,-46.374 8.7294,-46.374 8.7294,-46.374 4.4795,-46.374 .2296,-42.1241 .2296,-37.8742 .2296,-37.8742 .2296,-29.3743 .2296,-29.3743 .2296,-25.1244 4.4795,-20.8745 8.7294,-20.8745 8.7294,-20.8745 109.8096,-20.8745 109.8096,-20.8745 114.0596,-20.8745 118.3095,-25.1244 118.3095,-29.3743 118.3095,-29.3743 118.3095,-37.8742 118.3095,-37.8742 118.3095,-42.1241 114.0596,-46.374 109.8096,-46.374"/>
<text text-anchor="middle" x="59.2695" y="-30.2485" font-family="Arial" font-size="15.00" fill="#c6c5fe">me/interactor.ts</text>
</g>
<!-- me/interactor.ts&#45;&gt;../domain/me/index.ts -->
<g id="edge3" class="edge">
<title>me/interactor.ts&#45;&gt;../domain/me/index.ts</title>
<path fill="none" stroke="#757575" d="M118.365,-33.6243C126.8445,-33.6243 135.7216,-33.6243 144.6254,-33.6243"/>
<polygon fill="#757575" stroke="#757575" points="144.6695,-37.1244 154.6695,-33.6243 144.6695,-30.1244 144.6695,-37.1244"/>
</g>
<!-- me/type.ts -->
<g id="node5" class="node">
<title>me/type.ts</title>
<path fill="none" stroke="#cfffac" d="M93.4618,-89.374C93.4618,-89.374 25.0773,-89.374 25.0773,-89.374 20.8273,-89.374 16.5774,-85.1241 16.5774,-80.8742 16.5774,-80.8742 16.5774,-72.3743 16.5774,-72.3743 16.5774,-68.1244 20.8273,-63.8745 25.0773,-63.8745 25.0773,-63.8745 93.4618,-63.8745 93.4618,-63.8745 97.7117,-63.8745 101.9616,-68.1244 101.9616,-72.3743 101.9616,-72.3743 101.9616,-80.8742 101.9616,-80.8742 101.9616,-85.1241 97.7117,-89.374 93.4618,-89.374"/>
<text text-anchor="middle" x="59.2695" y="-73.2485" font-family="Arial" font-size="15.00" fill="#cfffac">me/type.ts</text>
</g>
<!-- me/useMe.ts -->
<g id="node6" class="node">
<title>me/useMe.ts</title>
<path fill="none" stroke="#cfffac" d="M101.6316,-132.374C101.6316,-132.374 16.9075,-132.374 16.9075,-132.374 12.6575,-132.374 8.4076,-128.1241 8.4076,-123.8742 8.4076,-123.8742 8.4076,-115.3743 8.4076,-115.3743 8.4076,-111.1244 12.6575,-106.8745 16.9075,-106.8745 16.9075,-106.8745 101.6316,-106.8745 101.6316,-106.8745 105.8815,-106.8745 110.1314,-111.1244 110.1314,-115.3743 110.1314,-115.3743 110.1314,-123.8742 110.1314,-123.8742 110.1314,-128.1241 105.8815,-132.374 101.6316,-132.374"/>
<text text-anchor="middle" x="59.2695" y="-116.2485" font-family="Arial" font-size="15.00" fill="#cfffac">me/useMe.ts</text>
</g>
</g>
</svg>
