<?xml version="1.0" encoding="UTF-8" standalone="no"?>
<!DOCTYPE svg PUBLIC "-//W3C//DTD SVG 1.1//EN"
 "http://www.w3.org/Graphics/SVG/1.1/DTD/svg11.dtd">
<!-- Generated by graphviz version 2.40.1 (20161225.0304)
 -->
<!-- Title: G Pages: 1 -->
<svg width="941pt" height="249pt"
 viewBox="0.00 0.00 941.36 248.96" xmlns="http://www.w3.org/2000/svg" xmlns:xlink="http://www.w3.org/1999/xlink">
<g id="graph0" class="graph" transform="scale(1 1) rotate(0) translate(21.6 227.3644)">
<title>G</title>
<polygon fill="#111111" stroke="transparent" points="-21.6,21.6 -21.6,-227.3644 919.7597,-227.3644 919.7597,21.6 -21.6,21.6"/>
<!-- ../domain/me/index.ts -->
<g id="node1" class="node">
<title>../domain/me/index.ts</title>
<path fill="none" stroke="#c6c5fe" d="M595.6709,-183.8899C595.6709,-183.8899 454.5376,-183.8899 454.5376,-183.8899 450.2877,-183.8899 446.0377,-179.6399 446.0377,-175.39 446.0377,-175.39 446.0377,-166.8902 446.0377,-166.8902 446.0377,-162.6403 450.2877,-158.3903 454.5376,-158.3903 454.5376,-158.3903 595.6709,-158.3903 595.6709,-158.3903 599.9208,-158.3903 604.1708,-162.6403 604.1708,-166.8902 604.1708,-166.8902 604.1708,-175.39 604.1708,-175.39 604.1708,-179.6399 599.9208,-183.8899 595.6709,-183.8899"/>
<text text-anchor="middle" x="525.1042" y="-167.7644" font-family="Arial" font-size="15.00" fill="#c6c5fe">../domain/me/index.ts</text>
</g>
<!-- ../domain/me/me.ts -->
<g id="node2" class="node">
<title>../domain/me/me.ts</title>
<path fill="none" stroke="#cfffac" d="M885.6752,-205.8899C885.6752,-205.8899 759.5856,-205.8899 759.5856,-205.8899 755.3356,-205.8899 751.0857,-201.6399 751.0857,-197.39 751.0857,-197.39 751.0857,-188.8902 751.0857,-188.8902 751.0857,-184.6403 755.3356,-180.3903 759.5856,-180.3903 759.5856,-180.3903 885.6752,-180.3903 885.6752,-180.3903 889.9251,-180.3903 894.175,-184.6403 894.175,-188.8902 894.175,-188.8902 894.175,-197.39 894.175,-197.39 894.175,-201.6399 889.9251,-205.8899 885.6752,-205.8899"/>
<text text-anchor="middle" x="822.6304" y="-189.7644" font-family="Arial" font-size="15.00" fill="#cfffac">../domain/me/me.ts</text>
</g>
<!-- ../domain/me/index.ts&#45;&gt;../domain/me/me.ts -->
<g id="edge1" class="edge">
<title>../domain/me/index.ts&#45;&gt;../domain/me/me.ts</title>
<path fill="none" stroke="#757575" d="M604.4449,-177.0068C646.5977,-180.1237 698.3367,-183.9494 740.8507,-187.0931"/>
<polygon fill="#757575" stroke="#757575" points="740.6571,-190.5882 750.888,-187.8352 741.1734,-183.6073 740.6571,-190.5882"/>
</g>
<!-- ../domain/me/type.ts -->
<g id="node3" class="node">
<title>../domain/me/type.ts</title>
<path fill="none" stroke="#cfffac" d="M889.6891,-162.8899C889.6891,-162.8899 755.5716,-162.8899 755.5716,-162.8899 751.3217,-162.8899 747.0718,-158.6399 747.0718,-154.39 747.0718,-154.39 747.0718,-145.8902 747.0718,-145.8902 747.0718,-141.6403 751.3217,-137.3903 755.5716,-137.3903 755.5716,-137.3903 889.6891,-137.3903 889.6891,-137.3903 893.9391,-137.3903 898.189,-141.6403 898.189,-145.8902 898.189,-145.8902 898.189,-154.39 898.189,-154.39 898.189,-158.6399 893.9391,-162.8899 889.6891,-162.8899"/>
<text text-anchor="middle" x="822.6304" y="-146.7644" font-family="Arial" font-size="15.00" fill="#cfffac">../domain/me/type.ts</text>
</g>
<!-- ../domain/me/index.ts&#45;&gt;../domain/me/type.ts -->
<g id="edge2" class="edge">
<title>../domain/me/index.ts&#45;&gt;../domain/me/type.ts</title>
<path fill="none" stroke="#757575" d="M604.4449,-165.5401C645.3161,-162.6553 695.1992,-159.1344 736.9477,-156.1878"/>
<polygon fill="#757575" stroke="#757575" points="737.3702,-159.6667 747.0989,-155.4713 736.8773,-152.6841 737.3702,-159.6667"/>
</g>
<!-- ../presenter/components/ecosystem/Me/Content.tsx -->
<g id="node4" class="node">
<title>../presenter/components/ecosystem/Me/Content.tsx</title>
<path fill="none" stroke="#c6c5fe" d="M695.7608,-140.8899C695.7608,-140.8899 354.4477,-140.8899 354.4477,-140.8899 350.1978,-140.8899 345.9478,-136.6399 345.9478,-132.39 345.9478,-132.39 345.9478,-123.8902 345.9478,-123.8902 345.9478,-119.6403 350.1978,-115.3903 354.4477,-115.3903 354.4477,-115.3903 695.7608,-115.3903 695.7608,-115.3903 700.0107,-115.3903 704.2607,-119.6403 704.2607,-123.8902 704.2607,-123.8902 704.2607,-132.39 704.2607,-132.39 704.2607,-136.6399 700.0107,-140.8899 695.7608,-140.8899"/>
<text text-anchor="middle" x="525.1042" y="-124.7644" font-family="Arial" font-size="15.00" fill="#c6c5fe">../presenter/components/ecosystem/Me/Content.tsx</text>
</g>
<!-- useMe/type.ts -->
<g id="node5" class="node">
<title>useMe/type.ts</title>
<path fill="none" stroke="#cfffac" d="M869.0076,-99.8899C869.0076,-99.8899 776.2531,-99.8899 776.2531,-99.8899 772.0032,-99.8899 767.7533,-95.6399 767.7533,-91.39 767.7533,-91.39 767.7533,-82.8902 767.7533,-82.8902 767.7533,-78.6403 772.0032,-74.3903 776.2531,-74.3903 776.2531,-74.3903 869.0076,-74.3903 869.0076,-74.3903 873.2576,-74.3903 877.5075,-78.6403 877.5075,-82.8902 877.5075,-82.8902 877.5075,-91.39 877.5075,-91.39 877.5075,-95.6399 873.2576,-99.8899 869.0076,-99.8899"/>
<text text-anchor="middle" x="822.6304" y="-83.7644" font-family="Arial" font-size="15.00" fill="#cfffac">useMe/type.ts</text>
</g>
<!-- ../presenter/components/ecosystem/Me/Content.tsx&#45;&gt;useMe/type.ts -->
<g id="edge3" class="edge">
<title>../presenter/components/ecosystem/Me/Content.tsx&#45;&gt;useMe/type.ts</title>
<path fill="none" stroke="#757575" d="M616.7996,-115.5042C662.3856,-109.2223 716.3983,-101.7792 757.6538,-96.0941"/>
<polygon fill="#757575" stroke="#757575" points="758.1581,-99.5577 767.5866,-94.7253 757.2024,-92.6233 758.1581,-99.5577"/>
</g>
<!-- ../presenter/components/ecosystem/Me/Exception.tsx -->
<g id="node6" class="node">
<title>../presenter/components/ecosystem/Me/Exception.tsx</title>
<path fill="none" stroke="#cfffac" d="M702.5981,-58.8899C702.5981,-58.8899 347.6104,-58.8899 347.6104,-58.8899 343.3605,-58.8899 339.1106,-54.6399 339.1106,-50.39 339.1106,-50.39 339.1106,-41.8902 339.1106,-41.8902 339.1106,-37.6403 343.3605,-33.3903 347.6104,-33.3903 347.6104,-33.3903 702.5981,-33.3903 702.5981,-33.3903 706.848,-33.3903 711.0979,-37.6403 711.0979,-41.8902 711.0979,-41.8902 711.0979,-50.39 711.0979,-50.39 711.0979,-54.6399 706.848,-58.8899 702.5981,-58.8899"/>
<text text-anchor="middle" x="525.1042" y="-42.7644" font-family="Arial" font-size="15.00" fill="#cfffac">../presenter/components/ecosystem/Me/Exception.tsx</text>
</g>
<!-- useMe/index.ts -->
<g id="node7" class="node">
<title>useMe/index.ts</title>
<path fill="none" stroke="#c6c5fe" d="M108.3259,-58.8899C108.3259,-58.8899 8.5579,-58.8899 8.5579,-58.8899 4.308,-58.8899 .058,-54.6399 .058,-50.39 .058,-50.39 .058,-41.8902 .058,-41.8902 .058,-37.6403 4.308,-33.3903 8.5579,-33.3903 8.5579,-33.3903 108.3259,-33.3903 108.3259,-33.3903 112.5758,-33.3903 116.8257,-37.6403 116.8257,-41.8902 116.8257,-41.8902 116.8257,-50.39 116.8257,-50.39 116.8257,-54.6399 112.5758,-58.8899 108.3259,-58.8899"/>
<text text-anchor="middle" x="58.4419" y="-42.7644" font-family="Arial" font-size="15.00" fill="#c6c5fe">useMe/index.ts</text>
</g>
<!-- useMe/interactor.tsx -->
<g id="node8" class="node">
<title>useMe/interactor.tsx</title>
<path fill="none" stroke="#c6c5fe" d="M294.7196,-99.8899C294.7196,-99.8899 161.2717,-99.8899 161.2717,-99.8899 157.0217,-99.8899 152.7718,-95.6399 152.7718,-91.39 152.7718,-91.39 152.7718,-82.8902 152.7718,-82.8902 152.7718,-78.6403 157.0217,-74.3903 161.2717,-74.3903 161.2717,-74.3903 294.7196,-74.3903 294.7196,-74.3903 298.9695,-74.3903 303.2194,-78.6403 303.2194,-82.8902 303.2194,-82.8902 303.2194,-91.39 303.2194,-91.39 303.2194,-95.6399 298.9695,-99.8899 294.7196,-99.8899"/>
<text text-anchor="middle" x="227.9956" y="-83.7644" font-family="Arial" font-size="15.00" fill="#c6c5fe">useMe/interactor.tsx</text>
</g>
<!-- useMe/index.ts&#45;&gt;useMe/interactor.tsx -->
<g id="edge4" class="edge">
<title>useMe/index.ts&#45;&gt;useMe/interactor.tsx</title>
<path fill="none" stroke="#757575" d="M110.6971,-58.776C128.1021,-62.9847 147.6627,-67.7147 165.7483,-72.088"/>
<polygon fill="#757575" stroke="#757575" points="165.0785,-75.5269 175.6211,-74.4753 166.7239,-68.7229 165.0785,-75.5269"/>
</g>
<!-- useMe/useMe.ts -->
<g id="node9" class="node">
<title>useMe/useMe.ts</title>
<path fill="none" stroke="#c6c5fe" d="M282.5422,-37.8899C282.5422,-37.8899 173.4491,-37.8899 173.4491,-37.8899 169.1991,-37.8899 164.9492,-33.6399 164.9492,-29.39 164.9492,-29.39 164.9492,-20.8902 164.9492,-20.8902 164.9492,-16.6403 169.1991,-12.3903 173.4491,-12.3903 173.4491,-12.3903 282.5422,-12.3903 282.5422,-12.3903 286.7921,-12.3903 291.042,-16.6403 291.042,-20.8902 291.042,-20.8902 291.042,-29.39 291.042,-29.39 291.042,-33.6399 286.7921,-37.8899 282.5422,-37.8899"/>
<text text-anchor="middle" x="227.9956" y="-21.7644" font-family="Arial" font-size="15.00" fill="#c6c5fe">useMe/useMe.ts</text>
</g>
<!-- useMe/index.ts&#45;&gt;useMe/useMe.ts -->
<g id="edge5" class="edge">
<title>useMe/index.ts&#45;&gt;useMe/useMe.ts</title>
<path fill="none" stroke="#757575" d="M117.2677,-38.8543C129.4186,-37.3493 142.3566,-35.7469 154.9431,-34.188"/>
<polygon fill="#757575" stroke="#757575" points="155.4461,-37.6525 164.9401,-32.9498 154.5857,-30.7056 155.4461,-37.6525"/>
</g>
<!-- useMe/interactor.tsx&#45;&gt;../domain/me/index.ts -->
<g id="edge6" class="edge">
<title>useMe/interactor.tsx&#45;&gt;../domain/me/index.ts</title>
<path fill="none" stroke="#757575" d="M245.4221,-100.011C266.4584,-114.8141 303.4649,-138.5609 339.1074,-150.1401 369.7843,-160.1061 404.6339,-165.5009 435.8088,-168.371"/>
<polygon fill="#757575" stroke="#757575" points="435.5316,-171.86 445.7914,-169.2168 436.1226,-164.885 435.5316,-171.86"/>
</g>
<!-- useMe/interactor.tsx&#45;&gt;../presenter/components/ecosystem/Me/Content.tsx -->
<g id="edge7" class="edge">
<title>useMe/interactor.tsx&#45;&gt;../presenter/components/ecosystem/Me/Content.tsx</title>
<path fill="none" stroke="#757575" d="M303.3527,-97.5391C339.7273,-102.5587 383.9076,-108.6554 423.2305,-114.0819"/>
<polygon fill="#757575" stroke="#757575" points="422.9961,-117.5826 433.3807,-115.4826 423.9531,-110.6483 422.9961,-117.5826"/>
</g>
<!-- useMe/interactor.tsx&#45;&gt;useMe/type.ts -->
<g id="edge9" class="edge">
<title>useMe/interactor.tsx&#45;&gt;useMe/type.ts</title>
<path fill="none" stroke="#757575" d="M303.3065,-87.1401C421.0432,-87.1401 646.6908,-87.1401 757.6979,-87.1401"/>
<polygon fill="#757575" stroke="#757575" points="757.7524,-90.6402 767.7523,-87.1401 757.7523,-83.6402 757.7524,-90.6402"/>
</g>
<!-- useMe/interactor.tsx&#45;&gt;../presenter/components/ecosystem/Me/Exception.tsx -->
<g id="edge8" class="edge">
<title>useMe/interactor.tsx&#45;&gt;../presenter/components/ecosystem/Me/Exception.tsx</title>
<path fill="none" stroke="#757575" d="M303.3527,-76.7411C339.7273,-71.7215 383.9076,-65.6248 423.2305,-60.1983"/>
<polygon fill="#757575" stroke="#757575" points="423.9531,-63.6319 433.3807,-58.7976 422.9961,-56.6976 423.9531,-63.6319"/>
</g>
<!-- useMe/useMe.ts&#45;&gt;useMe/type.ts -->
<g id="edge10" class="edge">
<title>useMe/useMe.ts&#45;&gt;useMe/type.ts</title>
<path fill="none" stroke="#757575" d="M291.0655,-14.8859C384.5708,-1.9316 564.6867,14.3543 711.1011,-24.1401 743.6143,-32.6883 776.6196,-53.1094 798.1982,-68.4004"/>
<polygon fill="#757575" stroke="#757575" points="796.2877,-71.3385 806.4354,-74.384 800.4017,-65.6751 796.2877,-71.3385"/>
</g>
</g>
</svg>
