<?xml version="1.0" encoding="UTF-8" standalone="no"?>
<!DOCTYPE svg PUBLIC "-//W3C//DTD SVG 1.1//EN"
 "http://www.w3.org/Graphics/SVG/1.1/DTD/svg11.dtd">
<!-- Generated by graphviz version 2.40.1 (20161225.0304)
 -->
<!-- Title: G Pages: 1 -->
<svg width="941pt" height="238pt"
 viewBox="0.00 0.00 941.36 238.45" xmlns="http://www.w3.org/2000/svg" xmlns:xlink="http://www.w3.org/1999/xlink">
<g id="graph0" class="graph" transform="scale(1 1) rotate(0) translate(21.6 216.8485)">
<title>G</title>
<polygon fill="#111111" stroke="transparent" points="-21.6,21.6 -21.6,-216.8485 919.7597,-216.8485 919.7597,21.6 -21.6,21.6"/>
<!-- ../domain/me/index.ts -->
<g id="node1" class="node">
<title>../domain/me/index.ts</title>
<path fill="none" stroke="#c6c5fe" d="M595.6709,-193.374C595.6709,-193.374 454.5376,-193.374 454.5376,-193.374 450.2877,-193.374 446.0377,-189.1241 446.0377,-184.8742 446.0377,-184.8742 446.0377,-176.3743 446.0377,-176.3743 446.0377,-172.1244 450.2877,-167.8745 454.5376,-167.8745 454.5376,-167.8745 595.6709,-167.8745 595.6709,-167.8745 599.9208,-167.8745 604.1708,-172.1244 604.1708,-176.3743 604.1708,-176.3743 604.1708,-184.8742 604.1708,-184.8742 604.1708,-189.1241 599.9208,-193.374 595.6709,-193.374"/>
<text text-anchor="middle" x="525.1042" y="-177.2485" font-family="Arial" font-size="15.00" fill="#c6c5fe">../domain/me/index.ts</text>
</g>
<!-- ../domain/me/me.ts -->
<g id="node2" class="node">
<title>../domain/me/me.ts</title>
<path fill="none" stroke="#cfffac" d="M885.6752,-195.374C885.6752,-195.374 759.5856,-195.374 759.5856,-195.374 755.3356,-195.374 751.0857,-191.1241 751.0857,-186.8742 751.0857,-186.8742 751.0857,-178.3743 751.0857,-178.3743 751.0857,-174.1244 755.3356,-169.8745 759.5856,-169.8745 759.5856,-169.8745 885.6752,-169.8745 885.6752,-169.8745 889.9251,-169.8745 894.175,-174.1244 894.175,-178.3743 894.175,-178.3743 894.175,-186.8742 894.175,-186.8742 894.175,-191.1241 889.9251,-195.374 885.6752,-195.374"/>
<text text-anchor="middle" x="822.6304" y="-179.2485" font-family="Arial" font-size="15.00" fill="#cfffac">../domain/me/me.ts</text>
</g>
<!-- ../domain/me/index.ts&#45;&gt;../domain/me/me.ts -->
<g id="edge1" class="edge">
<title>../domain/me/index.ts&#45;&gt;../domain/me/me.ts</title>
<path fill="none" stroke="#757575" d="M604.4449,-181.1576C646.5977,-181.441 698.3367,-181.7888 740.8507,-182.0745"/>
<polygon fill="#757575" stroke="#757575" points="740.8647,-185.5746 750.888,-182.142 740.9118,-178.5748 740.8647,-185.5746"/>
</g>
<!-- ../domain/me/type.ts -->
<g id="node3" class="node">
<title>../domain/me/type.ts</title>
<path fill="none" stroke="#cfffac" d="M889.6891,-152.374C889.6891,-152.374 755.5716,-152.374 755.5716,-152.374 751.3217,-152.374 747.0718,-148.1241 747.0718,-143.8742 747.0718,-143.8742 747.0718,-135.3743 747.0718,-135.3743 747.0718,-131.1244 751.3217,-126.8745 755.5716,-126.8745 755.5716,-126.8745 889.6891,-126.8745 889.6891,-126.8745 893.9391,-126.8745 898.189,-131.1244 898.189,-135.3743 898.189,-135.3743 898.189,-143.8742 898.189,-143.8742 898.189,-148.1241 893.9391,-152.374 889.6891,-152.374"/>
<text text-anchor="middle" x="822.6304" y="-136.2485" font-family="Arial" font-size="15.00" fill="#cfffac">../domain/me/type.ts</text>
</g>
<!-- ../domain/me/index.ts&#45;&gt;../domain/me/type.ts -->
<g id="edge2" class="edge">
<title>../domain/me/index.ts&#45;&gt;../domain/me/type.ts</title>
<path fill="none" stroke="#757575" d="M604.4449,-169.6909C645.3161,-164.0587 695.1992,-157.1847 736.9477,-151.4316"/>
<polygon fill="#757575" stroke="#757575" points="737.6704,-154.8652 747.0989,-150.0327 736.7147,-147.9307 737.6704,-154.8652"/>
</g>
<!-- ../presenter/components/ecosystem/Me/Content.tsx -->
<g id="node4" class="node">
<title>../presenter/components/ecosystem/Me/Content.tsx</title>
<path fill="none" stroke="#c6c5fe" d="M695.7608,-111.374C695.7608,-111.374 354.4477,-111.374 354.4477,-111.374 350.1978,-111.374 345.9478,-107.1241 345.9478,-102.8742 345.9478,-102.8742 345.9478,-94.3743 345.9478,-94.3743 345.9478,-90.1244 350.1978,-85.8745 354.4477,-85.8745 354.4477,-85.8745 695.7608,-85.8745 695.7608,-85.8745 700.0107,-85.8745 704.2607,-90.1244 704.2607,-94.3743 704.2607,-94.3743 704.2607,-102.8742 704.2607,-102.8742 704.2607,-107.1241 700.0107,-111.374 695.7608,-111.374"/>
<text text-anchor="middle" x="525.1042" y="-95.2485" font-family="Arial" font-size="15.00" fill="#c6c5fe">../presenter/components/ecosystem/Me/Content.tsx</text>
</g>
<!-- useMe/type.ts -->
<g id="node5" class="node">
<title>useMe/type.ts</title>
<path fill="none" stroke="#cfffac" d="M869.0076,-67.374C869.0076,-67.374 776.2531,-67.374 776.2531,-67.374 772.0032,-67.374 767.7533,-63.1241 767.7533,-58.8742 767.7533,-58.8742 767.7533,-50.3743 767.7533,-50.3743 767.7533,-46.1244 772.0032,-41.8745 776.2531,-41.8745 776.2531,-41.8745 869.0076,-41.8745 869.0076,-41.8745 873.2576,-41.8745 877.5075,-46.1244 877.5075,-50.3743 877.5075,-50.3743 877.5075,-58.8742 877.5075,-58.8742 877.5075,-63.1241 873.2576,-67.374 869.0076,-67.374"/>
<text text-anchor="middle" x="822.6304" y="-51.2485" font-family="Arial" font-size="15.00" fill="#cfffac">useMe/type.ts</text>
</g>
<!-- ../presenter/components/ecosystem/Me/Content.tsx&#45;&gt;useMe/type.ts -->
<g id="edge3" class="edge">
<title>../presenter/components/ecosystem/Me/Content.tsx&#45;&gt;useMe/type.ts</title>
<path fill="none" stroke="#757575" d="M650.8774,-85.9973C671.0586,-83.5189 691.6854,-80.7158 711.1011,-77.6243 726.3162,-75.2016 742.6031,-72.1226 757.8993,-69.0113"/>
<polygon fill="#757575" stroke="#757575" points="758.7017,-72.4195 767.7868,-66.9687 757.2854,-65.5643 758.7017,-72.4195"/>
</g>
<!-- ../presenter/components/ecosystem/Me/Exception.tsx -->
<g id="node6" class="node">
<title>../presenter/components/ecosystem/Me/Exception.tsx</title>
<path fill="none" stroke="#cfffac" d="M702.5981,-68.374C702.5981,-68.374 347.6104,-68.374 347.6104,-68.374 343.3605,-68.374 339.1106,-64.1241 339.1106,-59.8742 339.1106,-59.8742 339.1106,-51.3743 339.1106,-51.3743 339.1106,-47.1244 343.3605,-42.8745 347.6104,-42.8745 347.6104,-42.8745 702.5981,-42.8745 702.5981,-42.8745 706.848,-42.8745 711.0979,-47.1244 711.0979,-51.3743 711.0979,-51.3743 711.0979,-59.8742 711.0979,-59.8742 711.0979,-64.1241 706.848,-68.374 702.5981,-68.374"/>
<text text-anchor="middle" x="525.1042" y="-52.2485" font-family="Arial" font-size="15.00" fill="#cfffac">../presenter/components/ecosystem/Me/Exception.tsx</text>
</g>
<!-- useMe/index.ts -->
<g id="node7" class="node">
<title>useMe/index.ts</title>
<path fill="none" stroke="#c6c5fe" d="M108.3259,-67.374C108.3259,-67.374 8.5579,-67.374 8.5579,-67.374 4.308,-67.374 .058,-63.1241 .058,-58.8742 .058,-58.8742 .058,-50.3743 .058,-50.3743 .058,-46.1244 4.308,-41.8745 8.5579,-41.8745 8.5579,-41.8745 108.3259,-41.8745 108.3259,-41.8745 112.5758,-41.8745 116.8257,-46.1244 116.8257,-50.3743 116.8257,-50.3743 116.8257,-58.8742 116.8257,-58.8742 116.8257,-63.1241 112.5758,-67.374 108.3259,-67.374"/>
<text text-anchor="middle" x="58.4419" y="-51.2485" font-family="Arial" font-size="15.00" fill="#c6c5fe">useMe/index.ts</text>
</g>
<!-- useMe/interactor.tsx -->
<g id="node8" class="node">
<title>useMe/interactor.tsx</title>
<path fill="none" stroke="#c6c5fe" d="M294.7196,-89.374C294.7196,-89.374 161.2717,-89.374 161.2717,-89.374 157.0217,-89.374 152.7718,-85.1241 152.7718,-80.8742 152.7718,-80.8742 152.7718,-72.3743 152.7718,-72.3743 152.7718,-68.1244 157.0217,-63.8745 161.2717,-63.8745 161.2717,-63.8745 294.7196,-63.8745 294.7196,-63.8745 298.9695,-63.8745 303.2194,-68.1244 303.2194,-72.3743 303.2194,-72.3743 303.2194,-80.8742 303.2194,-80.8742 303.2194,-85.1241 298.9695,-89.374 294.7196,-89.374"/>
<text text-anchor="middle" x="227.9956" y="-73.2485" font-family="Arial" font-size="15.00" fill="#c6c5fe">useMe/interactor.tsx</text>
</g>
<!-- useMe/index.ts&#45;&gt;useMe/interactor.tsx -->
<g id="edge4" class="edge">
<title>useMe/index.ts&#45;&gt;useMe/interactor.tsx</title>
<path fill="none" stroke="#757575" d="M117.2677,-62.2571C125.5172,-63.3275 134.1296,-64.4449 142.7485,-65.5632"/>
<polygon fill="#757575" stroke="#757575" points="142.4806,-69.0577 152.8479,-66.8737 143.3814,-62.1159 142.4806,-69.0577"/>
</g>
<!-- useMe/useMe.ts -->
<g id="node9" class="node">
<title>useMe/useMe.ts</title>
<path fill="none" stroke="#c6c5fe" d="M579.6508,-25.374C579.6508,-25.374 470.5577,-25.374 470.5577,-25.374 466.3078,-25.374 462.0579,-21.1241 462.0579,-16.8742 462.0579,-16.8742 462.0579,-8.3743 462.0579,-8.3743 462.0579,-4.1244 466.3078,.1255 470.5577,.1255 470.5577,.1255 579.6508,.1255 579.6508,.1255 583.9007,.1255 588.1506,-4.1244 588.1506,-8.3743 588.1506,-8.3743 588.1506,-16.8742 588.1506,-16.8742 588.1506,-21.1241 583.9007,-25.374 579.6508,-25.374"/>
<text text-anchor="middle" x="525.1042" y="-9.2485" font-family="Arial" font-size="15.00" fill="#c6c5fe">useMe/useMe.ts</text>
</g>
<!-- useMe/index.ts&#45;&gt;useMe/useMe.ts -->
<g id="edge5" class="edge">
<title>useMe/index.ts&#45;&gt;useMe/useMe.ts</title>
<path fill="none" stroke="#757575" d="M117.0725,-49.3475C202.015,-41.7026 359.2335,-27.5528 451.7479,-19.2264"/>
<polygon fill="#757575" stroke="#757575" points="452.2263,-22.6976 461.8723,-18.3152 451.5988,-15.7258 452.2263,-22.6976"/>
</g>
<!-- useMe/interactor.tsx&#45;&gt;../domain/me/index.ts -->
<g id="edge6" class="edge">
<title>useMe/interactor.tsx&#45;&gt;../domain/me/index.ts</title>
<path fill="none" stroke="#757575" d="M241.8291,-89.4507C261.7021,-107.0717 300.236,-138.3197 339.1074,-153.6243 369.3801,-165.5433 404.287,-172.2736 435.6258,-176.049"/>
<polygon fill="#757575" stroke="#757575" points="435.3374,-179.5385 445.6649,-177.1738 436.1168,-172.582 435.3374,-179.5385"/>
</g>
<!-- useMe/interactor.tsx&#45;&gt;../domain/me/type.ts -->
<g id="edge7" class="edge">
<title>useMe/interactor.tsx&#45;&gt;../domain/me/type.ts</title>
<path fill="none" stroke="#757575" d="M252.8323,-89.2824C274.8659,-99.8171 308.2518,-114.1068 339.1074,-120.6243 475.851,-149.5076 639.0645,-148.875 736.5965,-144.8907"/>
<polygon fill="#757575" stroke="#757575" points="736.86,-148.3827 746.7004,-144.4563 736.5593,-141.3892 736.86,-148.3827"/>
</g>
<!-- useMe/interactor.tsx&#45;&gt;../presenter/components/ecosystem/Me/Content.tsx -->
<g id="edge8" class="edge">
<title>useMe/interactor.tsx&#45;&gt;../presenter/components/ecosystem/Me/Content.tsx</title>
<path fill="none" stroke="#757575" d="M303.3527,-82.2042C316.2734,-83.161 330.1789,-84.1906 344.5018,-85.2512"/>
<polygon fill="#757575" stroke="#757575" points="344.2461,-88.7418 354.4773,-85.9899 344.7631,-81.7609 344.2461,-88.7418"/>
</g>
<!-- useMe/interactor.tsx&#45;&gt;../presenter/components/ecosystem/Me/Exception.tsx -->
<g id="edge9" class="edge">
<title>useMe/interactor.tsx&#45;&gt;../presenter/components/ecosystem/Me/Exception.tsx</title>
<path fill="none" stroke="#757575" d="M303.3527,-71.2979C313.7907,-70.5602 324.8713,-69.777 336.2955,-68.9695"/>
<polygon fill="#757575" stroke="#757575" points="336.6876,-72.4506 346.4159,-68.2542 336.194,-65.468 336.6876,-72.4506"/>
</g>
<!-- useMe/interactor.tsx&#45;&gt;useMe/useMe.ts -->
<g id="edge10" class="edge">
<title>useMe/interactor.tsx&#45;&gt;useMe/useMe.ts</title>
<path fill="none" stroke="#757575" d="M262.8785,-63.9339C275.5828,-59.2297 290.0324,-53.7831 303.1074,-48.6243 319.2311,-42.2625 322.3285,-37.9732 339.1074,-33.6243 375.6115,-24.1628 417.2398,-18.9639 451.8458,-16.1074"/>
<polygon fill="#757575" stroke="#757575" points="452.1781,-19.5923 461.877,-15.3281 451.6359,-12.6133 452.1781,-19.5923"/>
</g>
<!-- useMe/useMe.ts&#45;&gt;useMe/type.ts -->
<g id="edge11" class="edge">
<title>useMe/useMe.ts&#45;&gt;useMe/type.ts</title>
<path fill="none" stroke="#757575" d="M588.5306,-18.6157C624.5583,-22.3115 670.4504,-27.5108 711.1011,-33.6243 726.2848,-35.9077 742.5594,-38.747 757.8537,-41.592"/>
<polygon fill="#757575" stroke="#757575" points="757.2659,-45.0428 767.7413,-43.4567 758.5632,-38.1641 757.2659,-45.0428"/>
</g>
</g>
</svg>
