<?xml version="1.0" encoding="UTF-8" standalone="no"?>
<!DOCTYPE svg PUBLIC "-//W3C//DTD SVG 1.1//EN"
 "http://www.w3.org/Graphics/SVG/1.1/DTD/svg11.dtd">
<!-- Generated by graphviz version 2.40.1 (20161225.0304)
 -->
<!-- Title: G Pages: 1 -->
<svg width="1141pt" height="233pt"
 viewBox="0.00 0.00 1141.45 233.45" xmlns="http://www.w3.org/2000/svg" xmlns:xlink="http://www.w3.org/1999/xlink">
<g id="graph0" class="graph" transform="scale(1 1) rotate(0) translate(21.6 211.8485)">
<title>G</title>
<polygon fill="#111111" stroke="transparent" points="-21.6,21.6 -21.6,-211.8485 1119.85,-211.8485 1119.85,21.6 -21.6,21.6"/>
<!-- ../domain/me/index.ts -->
<g id="node1" class="node">
<title>../domain/me/index.ts</title>
<path fill="none" stroke="#c6c5fe" d="M442.7871,-145.374C442.7871,-145.374 301.6538,-145.374 301.6538,-145.374 297.4039,-145.374 293.1539,-141.1241 293.1539,-136.8742 293.1539,-136.8742 293.1539,-128.3743 293.1539,-128.3743 293.1539,-124.1244 297.4039,-119.8745 301.6538,-119.8745 301.6538,-119.8745 442.7871,-119.8745 442.7871,-119.8745 447.037,-119.8745 451.287,-124.1244 451.287,-128.3743 451.287,-128.3743 451.287,-136.8742 451.287,-136.8742 451.287,-141.1241 447.037,-145.374 442.7871,-145.374"/>
<text text-anchor="middle" x="372.2205" y="-129.2485" font-family="Arial" font-size="15.00" fill="#c6c5fe">../domain/me/index.ts</text>
</g>
<!-- ../domain/me/me.ts -->
<g id="node2" class="node">
<title>../domain/me/me.ts</title>
<path fill="none" stroke="#cfffac" d="M836.5902,-147.374C836.5902,-147.374 710.5006,-147.374 710.5006,-147.374 706.2507,-147.374 702.0007,-143.1241 702.0007,-138.8742 702.0007,-138.8742 702.0007,-130.3743 702.0007,-130.3743 702.0007,-126.1244 706.2507,-121.8745 710.5006,-121.8745 710.5006,-121.8745 836.5902,-121.8745 836.5902,-121.8745 840.8402,-121.8745 845.0901,-126.1244 845.0901,-130.3743 845.0901,-130.3743 845.0901,-138.8742 845.0901,-138.8742 845.0901,-143.1241 840.8402,-147.374 836.5902,-147.374"/>
<text text-anchor="middle" x="773.5454" y="-131.2485" font-family="Arial" font-size="15.00" fill="#cfffac">../domain/me/me.ts</text>
</g>
<!-- ../domain/me/index.ts&#45;&gt;../domain/me/me.ts -->
<g id="edge1" class="edge">
<title>../domain/me/index.ts&#45;&gt;../domain/me/me.ts</title>
<path fill="none" stroke="#757575" d="M451.5094,-133.0194C520.9641,-133.3655 621.4939,-133.8665 691.6984,-134.2164"/>
<polygon fill="#757575" stroke="#757575" points="691.8117,-137.7169 701.8291,-134.2669 691.8467,-130.717 691.8117,-137.7169"/>
</g>
<!-- ../domain/me/type.ts -->
<g id="node3" class="node">
<title>../domain/me/type.ts</title>
<path fill="none" stroke="#cfffac" d="M840.6042,-104.374C840.6042,-104.374 706.4867,-104.374 706.4867,-104.374 702.2367,-104.374 697.9868,-100.1241 697.9868,-95.8742 697.9868,-95.8742 697.9868,-87.3743 697.9868,-87.3743 697.9868,-83.1244 702.2367,-78.8745 706.4867,-78.8745 706.4867,-78.8745 840.6042,-78.8745 840.6042,-78.8745 844.8541,-78.8745 849.104,-83.1244 849.104,-87.3743 849.104,-87.3743 849.104,-95.8742 849.104,-95.8742 849.104,-100.1241 844.8541,-104.374 840.6042,-104.374"/>
<text text-anchor="middle" x="773.5454" y="-88.2485" font-family="Arial" font-size="15.00" fill="#cfffac">../domain/me/type.ts</text>
</g>
<!-- ../domain/me/index.ts&#45;&gt;../domain/me/type.ts -->
<g id="edge2" class="edge">
<title>../domain/me/index.ts&#45;&gt;../domain/me/type.ts</title>
<path fill="none" stroke="#757575" d="M451.5094,-124.524C519.6577,-117.5618 617.7232,-107.5433 687.7053,-100.3938"/>
<polygon fill="#757575" stroke="#757575" points="688.2273,-103.8588 697.8198,-99.3605 687.5158,-96.8951 688.2273,-103.8588"/>
</g>
<!-- ../presenter/components/ecosystem/Me/Content.tsx -->
<g id="node4" class="node">
<title>../presenter/components/ecosystem/Me/Content.tsx</title>
<path fill="none" stroke="#c6c5fe" d="M944.202,-61.374C944.202,-61.374 602.8888,-61.374 602.8888,-61.374 598.6389,-61.374 594.389,-57.1241 594.389,-52.8742 594.389,-52.8742 594.389,-44.3743 594.389,-44.3743 594.389,-40.1244 598.6389,-35.8745 602.8888,-35.8745 602.8888,-35.8745 944.202,-35.8745 944.202,-35.8745 948.4519,-35.8745 952.7018,-40.1244 952.7018,-44.3743 952.7018,-44.3743 952.7018,-52.8742 952.7018,-52.8742 952.7018,-57.1241 948.4519,-61.374 944.202,-61.374"/>
<text text-anchor="middle" x="773.5454" y="-45.2485" font-family="Arial" font-size="15.00" fill="#c6c5fe">../presenter/components/ecosystem/Me/Content.tsx</text>
</g>
<!-- useMe/type.ts -->
<g id="node5" class="node">
<title>useMe/type.ts</title>
<path fill="none" stroke="#cfffac" d="M1089.939,-125.374C1089.939,-125.374 997.1845,-125.374 997.1845,-125.374 992.9346,-125.374 988.6847,-121.1241 988.6847,-116.8742 988.6847,-116.8742 988.6847,-108.3743 988.6847,-108.3743 988.6847,-104.1244 992.9346,-99.8745 997.1845,-99.8745 997.1845,-99.8745 1089.939,-99.8745 1089.939,-99.8745 1094.189,-99.8745 1098.4389,-104.1244 1098.4389,-108.3743 1098.4389,-108.3743 1098.4389,-116.8742 1098.4389,-116.8742 1098.4389,-121.1241 1094.189,-125.374 1089.939,-125.374"/>
<text text-anchor="middle" x="1043.5618" y="-109.2485" font-family="Arial" font-size="15.00" fill="#cfffac">useMe/type.ts</text>
</g>
<!-- ../presenter/components/ecosystem/Me/Content.tsx&#45;&gt;useMe/type.ts -->
<g id="edge3" class="edge">
<title>../presenter/components/ecosystem/Me/Content.tsx&#45;&gt;useMe/type.ts</title>
<path fill="none" stroke="#757575" d="M917.7654,-61.3132C929.7394,-63.6348 941.5754,-66.3796 952.8735,-69.6243 973.7872,-75.6305 995.8763,-86.0086 1013.0179,-95.0644"/>
<polygon fill="#757575" stroke="#757575" points="1011.5328,-98.2403 1021.9931,-99.9231 1014.8653,-92.0845 1011.5328,-98.2403"/>
</g>
<!-- ../presenter/components/ecosystem/Me/Exception.tsx -->
<g id="node6" class="node">
<title>../presenter/components/ecosystem/Me/Exception.tsx</title>
<path fill="none" stroke="#cfffac" d="M549.7143,-25.374C549.7143,-25.374 194.7267,-25.374 194.7267,-25.374 190.4767,-25.374 186.2268,-21.1241 186.2268,-16.8742 186.2268,-16.8742 186.2268,-8.3743 186.2268,-8.3743 186.2268,-4.1244 190.4767,.1255 194.7267,.1255 194.7267,.1255 549.7143,.1255 549.7143,.1255 553.9642,.1255 558.2141,-4.1244 558.2141,-8.3743 558.2141,-8.3743 558.2141,-16.8742 558.2141,-16.8742 558.2141,-21.1241 553.9642,-25.374 549.7143,-25.374"/>
<text text-anchor="middle" x="372.2205" y="-9.2485" font-family="Arial" font-size="15.00" fill="#cfffac">../presenter/components/ecosystem/Me/Exception.tsx</text>
</g>
<!-- useMe/index.ts -->
<g id="node7" class="node">
<title>useMe/index.ts</title>
<path fill="none" stroke="#ff6c60" d="M422.1045,-188.374C422.1045,-188.374 322.3365,-188.374 322.3365,-188.374 318.0865,-188.374 313.8366,-184.1241 313.8366,-179.8742 313.8366,-179.8742 313.8366,-171.3743 313.8366,-171.3743 313.8366,-167.1244 318.0865,-162.8745 322.3365,-162.8745 322.3365,-162.8745 422.1045,-162.8745 422.1045,-162.8745 426.3544,-162.8745 430.6043,-167.1244 430.6043,-171.3743 430.6043,-171.3743 430.6043,-179.8742 430.6043,-179.8742 430.6043,-184.1241 426.3544,-188.374 422.1045,-188.374"/>
<text text-anchor="middle" x="372.2205" y="-172.2485" font-family="Arial" font-size="15.00" fill="#ff6c60">useMe/index.ts</text>
</g>
<!-- useMe/interactor.tsx -->
<g id="node8" class="node">
<title>useMe/interactor.tsx</title>
<path fill="none" stroke="#ff6c60" d="M141.8358,-124.374C141.8358,-124.374 8.3879,-124.374 8.3879,-124.374 4.1379,-124.374 -.112,-120.1241 -.112,-115.8742 -.112,-115.8742 -.112,-107.3743 -.112,-107.3743 -.112,-103.1244 4.1379,-98.8745 8.3879,-98.8745 8.3879,-98.8745 141.8358,-98.8745 141.8358,-98.8745 146.0857,-98.8745 150.3356,-103.1244 150.3356,-107.3743 150.3356,-107.3743 150.3356,-115.8742 150.3356,-115.8742 150.3356,-120.1241 146.0857,-124.374 141.8358,-124.374"/>
<text text-anchor="middle" x="75.1118" y="-108.2485" font-family="Arial" font-size="15.00" fill="#ff6c60">useMe/interactor.tsx</text>
</g>
<!-- useMe/index.ts&#45;&gt;useMe/interactor.tsx -->
<g id="edge4" class="edge">
<title>useMe/index.ts&#45;&gt;useMe/interactor.tsx</title>
<path fill="none" stroke="#757575" d="M313.7366,-180.6164C276.7596,-179.1985 228.1963,-173.933 186.2236,-163.6243 154.7272,-155.8886 120.1305,-141.4978 98.0469,-129.4384"/>
<polygon fill="#757575" stroke="#757575" points="99.5234,-126.249 89.1156,-124.2669 96.0158,-132.3067 99.5234,-126.249"/>
</g>
<!-- useMe/useMe.ts -->
<g id="node9" class="node">
<title>useMe/useMe.ts</title>
<path fill="none" stroke="#c6c5fe" d="M828.092,-190.374C828.092,-190.374 718.9989,-190.374 718.9989,-190.374 714.7489,-190.374 710.499,-186.1241 710.499,-181.8742 710.499,-181.8742 710.499,-173.3743 710.499,-173.3743 710.499,-169.1244 714.7489,-164.8745 718.9989,-164.8745 718.9989,-164.8745 828.092,-164.8745 828.092,-164.8745 832.3419,-164.8745 836.5918,-169.1244 836.5918,-173.3743 836.5918,-173.3743 836.5918,-181.8742 836.5918,-181.8742 836.5918,-186.1241 832.3419,-190.374 828.092,-190.374"/>
<text text-anchor="middle" x="773.5454" y="-174.2485" font-family="Arial" font-size="15.00" fill="#c6c5fe">useMe/useMe.ts</text>
</g>
<!-- useMe/index.ts&#45;&gt;useMe/useMe.ts -->
<g id="edge5" class="edge">
<title>useMe/index.ts&#45;&gt;useMe/useMe.ts</title>
<path fill="none" stroke="#757575" d="M431.0064,-175.9172C502.3708,-176.2729 622.7524,-176.8728 700.1401,-177.2585"/>
<polygon fill="#757575" stroke="#757575" points="700.2781,-180.7591 710.2954,-177.3091 700.313,-173.7592 700.2781,-180.7591"/>
</g>
<!-- useMe/interactor.tsx&#45;&gt;../domain/me/index.ts -->
<g id="edge6" class="edge">
<title>useMe/interactor.tsx&#45;&gt;../domain/me/index.ts</title>
<path fill="none" stroke="#757575" d="M150.469,-116.9506C190.8154,-119.8023 240.7653,-123.3329 283.0379,-126.3207"/>
<polygon fill="#757575" stroke="#757575" points="282.8259,-129.8144 293.0478,-127.0283 283.3195,-122.8318 282.8259,-129.8144"/>
</g>
<!-- useMe/interactor.tsx&#45;&gt;../domain/me/type.ts -->
<g id="edge7" class="edge">
<title>useMe/interactor.tsx&#45;&gt;../domain/me/type.ts</title>
<path fill="none" stroke="#757575" d="M150.52,-109.4649C281.4584,-105.7154 550.027,-98.0248 687.8279,-94.0788"/>
<polygon fill="#757575" stroke="#757575" points="688.0278,-97.5746 697.9235,-93.7897 687.8274,-90.5775 688.0278,-97.5746"/>
</g>
<!-- useMe/interactor.tsx&#45;&gt;../presenter/components/ecosystem/Me/Content.tsx -->
<g id="edge8" class="edge">
<title>useMe/interactor.tsx&#45;&gt;../presenter/components/ecosystem/Me/Content.tsx</title>
<path fill="none" stroke="#757575" d="M150.3195,-99.3506C162.3093,-97.6153 174.5921,-95.9677 186.2236,-94.6243 318.8853,-79.3017 469.0068,-67.6429 584.2675,-59.8966"/>
<polygon fill="#757575" stroke="#757575" points="584.511,-63.3882 594.2554,-59.2293 584.0443,-56.4038 584.511,-63.3882"/>
</g>
<!-- useMe/interactor.tsx&#45;&gt;../presenter/components/ecosystem/Me/Exception.tsx -->
<g id="edge9" class="edge">
<title>useMe/interactor.tsx&#45;&gt;../presenter/components/ecosystem/Me/Exception.tsx</title>
<path fill="none" stroke="#757575" d="M90.135,-98.8123C110.4735,-82.2267 148.5702,-53.7782 186.2236,-39.6243 199.1268,-34.7739 212.8366,-30.7891 226.7353,-27.5163"/>
<polygon fill="#757575" stroke="#757575" points="227.8804,-30.8472 236.8803,-25.2569 226.3586,-24.0146 227.8804,-30.8472"/>
</g>
<!-- useMe/interactor.tsx&#45;&gt;useMe/index.ts -->
<g id="edge10" class="edge">
<title>useMe/interactor.tsx&#45;&gt;useMe/index.ts</title>
<path fill="none" stroke="#757575" d="M121.2883,-124.2515C140.9349,-131.653 164.3284,-140.2467 186.2236,-145.6243 224.4253,-155.0068 268.0866,-160.2116 303.5028,-164.0433"/>
<polygon fill="#757575" stroke="#757575" points="303.4204,-167.5544 313.7366,-165.1405 304.1667,-160.5943 303.4204,-167.5544"/>
</g>
<!-- useMe/useMe.ts&#45;&gt;useMe/type.ts -->
<g id="edge11" class="edge">
<title>useMe/useMe.ts&#45;&gt;useMe/type.ts</title>
<path fill="none" stroke="#757575" d="M836.8148,-175.3842C871.6254,-172.8729 915.2621,-167.6087 952.8735,-156.6243 973.9918,-150.4567 996.2393,-139.7354 1013.4139,-130.4203"/>
<polygon fill="#757575" stroke="#757575" points="1015.3546,-133.346 1022.394,-125.4278 1011.9532,-127.2279 1015.3546,-133.346"/>
</g>
</g>
</svg>
