<?xml version="1.0" encoding="UTF-8" standalone="no"?>
<!DOCTYPE svg PUBLIC "-//W3C//DTD SVG 1.1//EN"
 "http://www.w3.org/Graphics/SVG/1.1/DTD/svg11.dtd">
<!-- Generated by graphviz version 2.40.1 (20161225.0304)
 -->
<!-- Title: G Pages: 1 -->
<svg width="1121pt" height="228pt"
 viewBox="0.00 0.00 1120.90 227.97" xmlns="http://www.w3.org/2000/svg" xmlns:xlink="http://www.w3.org/1999/xlink">
<g id="graph0" class="graph" transform="scale(1 1) rotate(0) translate(21.6 206.3689)">
<title>G</title>
<polygon fill="#111111" stroke="transparent" points="-21.6,21.6 -21.6,-206.3689 1099.3036,-206.3689 1099.3036,21.6 -21.6,21.6"/>
<!-- ../domain/me/index.ts -->
<g id="node1" class="node">
<title>../domain/me/index.ts</title>
<path fill="none" stroke="#c6c5fe" d="M595.6709,-184.8944C595.6709,-184.8944 454.5376,-184.8944 454.5376,-184.8944 450.2877,-184.8944 446.0377,-180.6444 446.0377,-176.3945 446.0377,-176.3945 446.0377,-167.8947 446.0377,-167.8947 446.0377,-163.6447 450.2877,-159.3948 454.5376,-159.3948 454.5376,-159.3948 595.6709,-159.3948 595.6709,-159.3948 599.9208,-159.3948 604.1708,-163.6447 604.1708,-167.8947 604.1708,-167.8947 604.1708,-176.3945 604.1708,-176.3945 604.1708,-180.6444 599.9208,-184.8944 595.6709,-184.8944"/>
<text text-anchor="middle" x="525.1042" y="-168.7689" font-family="Arial" font-size="15.00" fill="#c6c5fe">../domain/me/index.ts</text>
</g>
<!-- ../domain/me/me.ts -->
<g id="node2" class="node">
<title>../domain/me/me.ts</title>
<path fill="none" stroke="#cfffac" d="M881.9179,-184.8944C881.9179,-184.8944 755.8282,-184.8944 755.8282,-184.8944 751.5783,-184.8944 747.3284,-180.6444 747.3284,-176.3945 747.3284,-176.3945 747.3284,-167.8947 747.3284,-167.8947 747.3284,-163.6447 751.5783,-159.3948 755.8282,-159.3948 755.8282,-159.3948 881.9179,-159.3948 881.9179,-159.3948 886.1678,-159.3948 890.4177,-163.6447 890.4177,-167.8947 890.4177,-167.8947 890.4177,-176.3945 890.4177,-176.3945 890.4177,-180.6444 886.1678,-184.8944 881.9179,-184.8944"/>
<text text-anchor="middle" x="818.873" y="-168.7689" font-family="Arial" font-size="15.00" fill="#cfffac">../domain/me/me.ts</text>
</g>
<!-- ../domain/me/index.ts&#45;&gt;../domain/me/me.ts -->
<g id="edge1" class="edge">
<title>../domain/me/index.ts&#45;&gt;../domain/me/me.ts</title>
<path fill="none" stroke="#757575" d="M604.2153,-172.1446C645.3484,-172.1446 695.5634,-172.1446 737.0809,-172.1446"/>
<polygon fill="#757575" stroke="#757575" points="737.1633,-175.6447 747.1633,-172.1446 737.1632,-168.6447 737.1633,-175.6447"/>
</g>
<!-- ../domain/me/type.ts -->
<g id="node3" class="node">
<title>../domain/me/type.ts</title>
<path fill="none" stroke="#cfffac" d="M1069.2331,-121.8944C1069.2331,-121.8944 935.1156,-121.8944 935.1156,-121.8944 930.8656,-121.8944 926.6157,-117.6444 926.6157,-113.3945 926.6157,-113.3945 926.6157,-104.8947 926.6157,-104.8947 926.6157,-100.6447 930.8656,-96.3948 935.1156,-96.3948 935.1156,-96.3948 1069.2331,-96.3948 1069.2331,-96.3948 1073.483,-96.3948 1077.7329,-100.6447 1077.7329,-104.8947 1077.7329,-104.8947 1077.7329,-113.3945 1077.7329,-113.3945 1077.7329,-117.6444 1073.483,-121.8944 1069.2331,-121.8944"/>
<text text-anchor="middle" x="1002.1743" y="-105.7689" font-family="Arial" font-size="15.00" fill="#cfffac">../domain/me/type.ts</text>
</g>
<!-- ../domain/me/index.ts&#45;&gt;../domain/me/type.ts -->
<g id="edge2" class="edge">
<title>../domain/me/index.ts&#45;&gt;../domain/me/type.ts</title>
<path fill="none" stroke="#757575" d="M604.3618,-163.7415C637.3922,-160.0979 676.1305,-155.6407 711.1011,-151.1446 780.2508,-142.2541 858.447,-130.8983 916.3645,-122.2366"/>
<polygon fill="#757575" stroke="#757575" points="917.2005,-125.6505 926.5712,-120.7067 916.1628,-118.7278 917.2005,-125.6505"/>
</g>
<!-- ../presenter/components/ecosystem/Me/Content.tsx -->
<g id="node4" class="node">
<title>../presenter/components/ecosystem/Me/Content.tsx</title>
<path fill="none" stroke="#c6c5fe" d="M695.7608,-141.8944C695.7608,-141.8944 354.4477,-141.8944 354.4477,-141.8944 350.1978,-141.8944 345.9478,-137.6444 345.9478,-133.3945 345.9478,-133.3945 345.9478,-124.8947 345.9478,-124.8947 345.9478,-120.6447 350.1978,-116.3948 354.4477,-116.3948 354.4477,-116.3948 695.7608,-116.3948 695.7608,-116.3948 700.0107,-116.3948 704.2607,-120.6447 704.2607,-124.8947 704.2607,-124.8947 704.2607,-133.3945 704.2607,-133.3945 704.2607,-137.6444 700.0107,-141.8944 695.7608,-141.8944"/>
<text text-anchor="middle" x="525.1042" y="-125.7689" font-family="Arial" font-size="15.00" fill="#c6c5fe">../presenter/components/ecosystem/Me/Content.tsx</text>
</g>
<!-- useMe/type.ts -->
<g id="node5" class="node">
<title>useMe/type.ts</title>
<path fill="none" stroke="#c6c5fe" d="M865.2503,-101.8944C865.2503,-101.8944 772.4958,-101.8944 772.4958,-101.8944 768.2459,-101.8944 763.9959,-97.6444 763.9959,-93.3945 763.9959,-93.3945 763.9959,-84.8947 763.9959,-84.8947 763.9959,-80.6447 768.2459,-76.3948 772.4958,-76.3948 772.4958,-76.3948 865.2503,-76.3948 865.2503,-76.3948 869.5002,-76.3948 873.7502,-80.6447 873.7502,-84.8947 873.7502,-84.8947 873.7502,-93.3945 873.7502,-93.3945 873.7502,-97.6444 869.5002,-101.8944 865.2503,-101.8944"/>
<text text-anchor="middle" x="818.873" y="-85.7689" font-family="Arial" font-size="15.00" fill="#c6c5fe">useMe/type.ts</text>
</g>
<!-- ../presenter/components/ecosystem/Me/Content.tsx&#45;&gt;useMe/type.ts -->
<g id="edge3" class="edge">
<title>../presenter/components/ecosystem/Me/Content.tsx&#45;&gt;useMe/type.ts</title>
<path fill="none" stroke="#757575" d="M618.0545,-116.4883C662.2802,-110.4665 714.0811,-103.4132 753.994,-97.9786"/>
<polygon fill="#757575" stroke="#757575" points="754.6977,-101.4152 764.134,-96.5979 753.7532,-94.4792 754.6977,-101.4152"/>
</g>
<!-- useMe/type.ts&#45;&gt;../domain/me/type.ts -->
<g id="edge10" class="edge">
<title>useMe/type.ts&#45;&gt;../domain/me/type.ts</title>
<path fill="none" stroke="#757575" d="M873.8695,-95.1452C887.3215,-96.613 902.0348,-98.2184 916.5459,-99.8017"/>
<polygon fill="#757575" stroke="#757575" points="916.2211,-103.2869 926.5418,-100.8923 916.9804,-96.3282 916.2211,-103.2869"/>
</g>
<!-- ../presenter/components/ecosystem/Me/Exception.tsx -->
<g id="node6" class="node">
<title>../presenter/components/ecosystem/Me/Exception.tsx</title>
<path fill="none" stroke="#cfffac" d="M702.5981,-59.8944C702.5981,-59.8944 347.6104,-59.8944 347.6104,-59.8944 343.3605,-59.8944 339.1106,-55.6444 339.1106,-51.3945 339.1106,-51.3945 339.1106,-42.8947 339.1106,-42.8947 339.1106,-38.6447 343.3605,-34.3948 347.6104,-34.3948 347.6104,-34.3948 702.5981,-34.3948 702.5981,-34.3948 706.848,-34.3948 711.0979,-38.6447 711.0979,-42.8947 711.0979,-42.8947 711.0979,-51.3945 711.0979,-51.3945 711.0979,-55.6444 706.848,-59.8944 702.5981,-59.8944"/>
<text text-anchor="middle" x="525.1042" y="-43.7689" font-family="Arial" font-size="15.00" fill="#cfffac">../presenter/components/ecosystem/Me/Exception.tsx</text>
</g>
<!-- useMe/index.ts -->
<g id="node7" class="node">
<title>useMe/index.ts</title>
<path fill="none" stroke="#c6c5fe" d="M108.3259,-59.8944C108.3259,-59.8944 8.5579,-59.8944 8.5579,-59.8944 4.308,-59.8944 .058,-55.6444 .058,-51.3945 .058,-51.3945 .058,-42.8947 .058,-42.8947 .058,-38.6447 4.308,-34.3948 8.5579,-34.3948 8.5579,-34.3948 108.3259,-34.3948 108.3259,-34.3948 112.5758,-34.3948 116.8257,-38.6447 116.8257,-42.8947 116.8257,-42.8947 116.8257,-51.3945 116.8257,-51.3945 116.8257,-55.6444 112.5758,-59.8944 108.3259,-59.8944"/>
<text text-anchor="middle" x="58.4419" y="-43.7689" font-family="Arial" font-size="15.00" fill="#c6c5fe">useMe/index.ts</text>
</g>
<!-- useMe/interactor.tsx -->
<g id="node8" class="node">
<title>useMe/interactor.tsx</title>
<path fill="none" stroke="#c6c5fe" d="M294.7196,-100.8944C294.7196,-100.8944 161.2717,-100.8944 161.2717,-100.8944 157.0217,-100.8944 152.7718,-96.6444 152.7718,-92.3945 152.7718,-92.3945 152.7718,-83.8947 152.7718,-83.8947 152.7718,-79.6447 157.0217,-75.3948 161.2717,-75.3948 161.2717,-75.3948 294.7196,-75.3948 294.7196,-75.3948 298.9695,-75.3948 303.2194,-79.6447 303.2194,-83.8947 303.2194,-83.8947 303.2194,-92.3945 303.2194,-92.3945 303.2194,-96.6444 298.9695,-100.8944 294.7196,-100.8944"/>
<text text-anchor="middle" x="227.9956" y="-84.7689" font-family="Arial" font-size="15.00" fill="#c6c5fe">useMe/interactor.tsx</text>
</g>
<!-- useMe/index.ts&#45;&gt;useMe/interactor.tsx -->
<g id="edge4" class="edge">
<title>useMe/index.ts&#45;&gt;useMe/interactor.tsx</title>
<path fill="none" stroke="#757575" d="M110.6971,-59.7805C128.1021,-63.9892 147.6627,-68.7192 165.7483,-73.0925"/>
<polygon fill="#757575" stroke="#757575" points="165.0785,-76.5313 175.6211,-75.4798 166.7239,-69.7274 165.0785,-76.5313"/>
</g>
<!-- useMe/useMe.ts -->
<g id="node9" class="node">
<title>useMe/useMe.ts</title>
<path fill="none" stroke="#c6c5fe" d="M282.5422,-38.8944C282.5422,-38.8944 173.4491,-38.8944 173.4491,-38.8944 169.1991,-38.8944 164.9492,-34.6444 164.9492,-30.3945 164.9492,-30.3945 164.9492,-21.8947 164.9492,-21.8947 164.9492,-17.6447 169.1991,-13.3948 173.4491,-13.3948 173.4491,-13.3948 282.5422,-13.3948 282.5422,-13.3948 286.7921,-13.3948 291.042,-17.6447 291.042,-21.8947 291.042,-21.8947 291.042,-30.3945 291.042,-30.3945 291.042,-34.6444 286.7921,-38.8944 282.5422,-38.8944"/>
<text text-anchor="middle" x="227.9956" y="-22.7689" font-family="Arial" font-size="15.00" fill="#c6c5fe">useMe/useMe.ts</text>
</g>
<!-- useMe/index.ts&#45;&gt;useMe/useMe.ts -->
<g id="edge5" class="edge">
<title>useMe/index.ts&#45;&gt;useMe/useMe.ts</title>
<path fill="none" stroke="#757575" d="M117.2677,-39.8587C129.4186,-38.3538 142.3566,-36.7514 154.9431,-35.1925"/>
<polygon fill="#757575" stroke="#757575" points="155.4461,-38.657 164.9401,-33.9543 154.5857,-31.7101 155.4461,-38.657"/>
</g>
<!-- useMe/interactor.tsx&#45;&gt;../domain/me/index.ts -->
<g id="edge6" class="edge">
<title>useMe/interactor.tsx&#45;&gt;../domain/me/index.ts</title>
<path fill="none" stroke="#757575" d="M245.4221,-101.0155C266.4584,-115.8186 303.4649,-139.5654 339.1074,-151.1446 369.7843,-161.1106 404.6339,-166.5054 435.8088,-169.3755"/>
<polygon fill="#757575" stroke="#757575" points="435.5316,-172.8645 445.7914,-170.2213 436.1226,-165.8895 435.5316,-172.8645"/>
</g>
<!-- useMe/interactor.tsx&#45;&gt;../presenter/components/ecosystem/Me/Content.tsx -->
<g id="edge7" class="edge">
<title>useMe/interactor.tsx&#45;&gt;../presenter/components/ecosystem/Me/Content.tsx</title>
<path fill="none" stroke="#757575" d="M303.3527,-98.5436C339.7273,-103.5632 383.9076,-109.6599 423.2305,-115.0863"/>
<polygon fill="#757575" stroke="#757575" points="422.9961,-118.5871 433.3807,-116.487 423.9531,-111.6528 422.9961,-118.5871"/>
</g>
<!-- useMe/interactor.tsx&#45;&gt;useMe/type.ts -->
<g id="edge9" class="edge">
<title>useMe/interactor.tsx&#45;&gt;useMe/type.ts</title>
<path fill="none" stroke="#757575" d="M303.1305,-88.2717C419.964,-88.4695 643.2138,-88.8473 753.6658,-89.0342"/>
<polygon fill="#757575" stroke="#757575" points="753.9892,-92.5347 763.9952,-89.0517 754.0011,-85.5347 753.9892,-92.5347"/>
</g>
<!-- useMe/interactor.tsx&#45;&gt;../presenter/components/ecosystem/Me/Exception.tsx -->
<g id="edge8" class="edge">
<title>useMe/interactor.tsx&#45;&gt;../presenter/components/ecosystem/Me/Exception.tsx</title>
<path fill="none" stroke="#757575" d="M303.3527,-77.7455C339.7273,-72.726 383.9076,-66.6293 423.2305,-61.2028"/>
<polygon fill="#757575" stroke="#757575" points="423.9531,-64.6364 433.3807,-59.8021 422.9961,-57.7021 423.9531,-64.6364"/>
</g>
<!-- useMe/useMe.ts&#45;&gt;useMe/type.ts -->
<g id="edge11" class="edge">
<title>useMe/useMe.ts&#45;&gt;useMe/type.ts</title>
<path fill="none" stroke="#757575" d="M291.1766,-15.4766C384.8221,-2.0008 565.1128,14.9355 711.1011,-25.1446 742.8662,-33.8655 774.7474,-54.6502 795.5008,-70.1827"/>
<polygon fill="#757575" stroke="#757575" points="793.6188,-73.1505 803.6811,-76.4674 797.8835,-67.5995 793.6188,-73.1505"/>
</g>
</g>
</svg>
