<?xml version="1.0" encoding="UTF-8" standalone="no"?>
<!DOCTYPE svg PUBLIC "-//W3C//DTD SVG 1.1//EN"
 "http://www.w3.org/Graphics/SVG/1.1/DTD/svg11.dtd">
<!-- Generated by graphviz version 2.40.1 (20161225.0304)
 -->
<!-- Title: G Pages: 1 -->
<svg width="900pt" height="188pt"
 viewBox="0.00 0.00 899.68 188.49" xmlns="http://www.w3.org/2000/svg" xmlns:xlink="http://www.w3.org/1999/xlink">
<g id="graph0" class="graph" transform="scale(1 1) rotate(0) translate(21.6 166.8944)">
<title>G</title>
<polygon fill="#111111" stroke="transparent" points="-21.6,21.6 -21.6,-166.8944 878.0775,-166.8944 878.0775,21.6 -21.6,21.6"/>
<!-- ../presenter/components/ecosystem/Me/Content.tsx -->
<g id="node1" class="node">
<title>../presenter/components/ecosystem/Me/Content.tsx</title>
<path fill="none" stroke="#c6c5fe" d="M695.7608,-145.4199C695.7608,-145.4199 354.4477,-145.4199 354.4477,-145.4199 350.1978,-145.4199 345.9478,-141.17 345.9478,-136.92 345.9478,-136.92 345.9478,-128.4202 345.9478,-128.4202 345.9478,-124.1703 350.1978,-119.9203 354.4477,-119.9203 354.4477,-119.9203 695.7608,-119.9203 695.7608,-119.9203 700.0107,-119.9203 704.2607,-124.1703 704.2607,-128.4202 704.2607,-128.4202 704.2607,-136.92 704.2607,-136.92 704.2607,-141.17 700.0107,-145.4199 695.7608,-145.4199"/>
<text text-anchor="middle" x="525.1042" y="-129.2944" font-family="Arial" font-size="15.00" fill="#c6c5fe">../presenter/components/ecosystem/Me/Content.tsx</text>
</g>
<!-- useMe/type.ts -->
<g id="node2" class="node">
<title>useMe/type.ts</title>
<path fill="none" stroke="#cfffac" d="M848.1666,-104.4199C848.1666,-104.4199 755.412,-104.4199 755.412,-104.4199 751.1621,-104.4199 746.9122,-100.17 746.9122,-95.92 746.9122,-95.92 746.9122,-87.4202 746.9122,-87.4202 746.9122,-83.1703 751.1621,-78.9203 755.412,-78.9203 755.412,-78.9203 848.1666,-78.9203 848.1666,-78.9203 852.4165,-78.9203 856.6664,-83.1703 856.6664,-87.4202 856.6664,-87.4202 856.6664,-95.92 856.6664,-95.92 856.6664,-100.17 852.4165,-104.4199 848.1666,-104.4199"/>
<text text-anchor="middle" x="801.7893" y="-88.2944" font-family="Arial" font-size="15.00" fill="#cfffac">useMe/type.ts</text>
</g>
<!-- ../presenter/components/ecosystem/Me/Content.tsx&#45;&gt;useMe/type.ts -->
<g id="edge1" class="edge">
<title>../presenter/components/ecosystem/Me/Content.tsx&#45;&gt;useMe/type.ts</title>
<path fill="none" stroke="#757575" d="M613.5894,-119.9914C644.454,-115.5249 679.3154,-110.4305 711.1011,-105.6701 719.3677,-104.4321 728.0552,-103.1134 736.6439,-101.7992"/>
<polygon fill="#757575" stroke="#757575" points="737.2965,-105.2401 746.6498,-100.2635 736.2345,-98.3211 737.2965,-105.2401"/>
</g>
<!-- ../presenter/components/ecosystem/Me/Exception.tsx -->
<g id="node3" class="node">
<title>../presenter/components/ecosystem/Me/Exception.tsx</title>
<path fill="none" stroke="#cfffac" d="M702.5981,-63.4199C702.5981,-63.4199 347.6104,-63.4199 347.6104,-63.4199 343.3605,-63.4199 339.1106,-59.17 339.1106,-54.92 339.1106,-54.92 339.1106,-46.4202 339.1106,-46.4202 339.1106,-42.1703 343.3605,-37.9203 347.6104,-37.9203 347.6104,-37.9203 702.5981,-37.9203 702.5981,-37.9203 706.848,-37.9203 711.0979,-42.1703 711.0979,-46.4202 711.0979,-46.4202 711.0979,-54.92 711.0979,-54.92 711.0979,-59.17 706.848,-63.4199 702.5981,-63.4199"/>
<text text-anchor="middle" x="525.1042" y="-47.2944" font-family="Arial" font-size="15.00" fill="#cfffac">../presenter/components/ecosystem/Me/Exception.tsx</text>
</g>
<!-- useMe/index.ts -->
<g id="node4" class="node">
<title>useMe/index.ts</title>
<path fill="none" stroke="#c6c5fe" d="M108.3259,-62.4199C108.3259,-62.4199 8.5579,-62.4199 8.5579,-62.4199 4.308,-62.4199 .058,-58.17 .058,-53.92 .058,-53.92 .058,-45.4202 .058,-45.4202 .058,-41.1703 4.308,-36.9203 8.5579,-36.9203 8.5579,-36.9203 108.3259,-36.9203 108.3259,-36.9203 112.5758,-36.9203 116.8257,-41.1703 116.8257,-45.4202 116.8257,-45.4202 116.8257,-53.92 116.8257,-53.92 116.8257,-58.17 112.5758,-62.4199 108.3259,-62.4199"/>
<text text-anchor="middle" x="58.4419" y="-46.2944" font-family="Arial" font-size="15.00" fill="#c6c5fe">useMe/index.ts</text>
</g>
<!-- useMe/interactor.tsx -->
<g id="node5" class="node">
<title>useMe/interactor.tsx</title>
<path fill="none" stroke="#c6c5fe" d="M294.7196,-94.4199C294.7196,-94.4199 161.2717,-94.4199 161.2717,-94.4199 157.0217,-94.4199 152.7718,-90.17 152.7718,-85.92 152.7718,-85.92 152.7718,-77.4202 152.7718,-77.4202 152.7718,-73.1703 157.0217,-68.9203 161.2717,-68.9203 161.2717,-68.9203 294.7196,-68.9203 294.7196,-68.9203 298.9695,-68.9203 303.2194,-73.1703 303.2194,-77.4202 303.2194,-77.4202 303.2194,-85.92 303.2194,-85.92 303.2194,-90.17 298.9695,-94.4199 294.7196,-94.4199"/>
<text text-anchor="middle" x="227.9956" y="-78.2944" font-family="Arial" font-size="15.00" fill="#c6c5fe">useMe/interactor.tsx</text>
</g>
<!-- useMe/index.ts&#45;&gt;useMe/interactor.tsx -->
<g id="edge2" class="edge">
<title>useMe/index.ts&#45;&gt;useMe/interactor.tsx</title>
<path fill="none" stroke="#757575" d="M117.2677,-60.7724C128.1423,-62.8247 139.6474,-64.9961 150.9667,-67.1324"/>
<polygon fill="#757575" stroke="#757575" points="150.3699,-70.5815 160.8456,-68.9968 151.6682,-63.7029 150.3699,-70.5815"/>
</g>
<!-- useMe/useMe.ts -->
<g id="node6" class="node">
<title>useMe/useMe.ts</title>
<path fill="none" stroke="#c6c5fe" d="M282.5422,-41.4199C282.5422,-41.4199 173.4491,-41.4199 173.4491,-41.4199 169.1991,-41.4199 164.9492,-37.17 164.9492,-32.92 164.9492,-32.92 164.9492,-24.4202 164.9492,-24.4202 164.9492,-20.1703 169.1991,-15.9203 173.4491,-15.9203 173.4491,-15.9203 282.5422,-15.9203 282.5422,-15.9203 286.7921,-15.9203 291.042,-20.1703 291.042,-24.4202 291.042,-24.4202 291.042,-32.92 291.042,-32.92 291.042,-37.17 286.7921,-41.4199 282.5422,-41.4199"/>
<text text-anchor="middle" x="227.9956" y="-25.2944" font-family="Arial" font-size="15.00" fill="#c6c5fe">useMe/useMe.ts</text>
</g>
<!-- useMe/index.ts&#45;&gt;useMe/useMe.ts -->
<g id="edge3" class="edge">
<title>useMe/index.ts&#45;&gt;useMe/useMe.ts</title>
<path fill="none" stroke="#757575" d="M117.2677,-42.3843C129.4186,-40.8793 142.3566,-39.2769 154.9431,-37.718"/>
<polygon fill="#757575" stroke="#757575" points="155.4461,-41.1825 164.9401,-36.4798 154.5857,-34.2356 155.4461,-41.1825"/>
</g>
<!-- useMe/interactor.tsx&#45;&gt;../presenter/components/ecosystem/Me/Content.tsx -->
<g id="edge4" class="edge">
<title>useMe/interactor.tsx&#45;&gt;../presenter/components/ecosystem/Me/Content.tsx</title>
<path fill="none" stroke="#757575" d="M282.9503,-94.3212C300.8098,-98.2231 320.7539,-102.3598 339.1074,-105.6701 364.8762,-110.3178 392.7662,-114.7048 418.9153,-118.5378"/>
<polygon fill="#757575" stroke="#757575" points="418.4448,-122.0061 428.8439,-119.9791 419.4505,-115.0787 418.4448,-122.0061"/>
</g>
<!-- useMe/interactor.tsx&#45;&gt;useMe/type.ts -->
<g id="edge6" class="edge">
<title>useMe/interactor.tsx&#45;&gt;useMe/type.ts</title>
<path fill="none" stroke="#757575" d="M303.3039,-82.9826C416.8512,-84.9615 629.9624,-88.6755 736.9835,-90.5407"/>
<polygon fill="#757575" stroke="#757575" points="736.9428,-94.0404 747.0023,-90.7153 737.0649,-87.0415 736.9428,-94.0404"/>
</g>
<!-- useMe/interactor.tsx&#45;&gt;../presenter/components/ecosystem/Me/Exception.tsx -->
<g id="edge5" class="edge">
<title>useMe/interactor.tsx&#45;&gt;../presenter/components/ecosystem/Me/Exception.tsx</title>
<path fill="none" stroke="#757575" d="M303.3527,-73.8074C330.888,-70.9344 362.8963,-67.5947 393.8844,-64.3615"/>
<polygon fill="#757575" stroke="#757575" points="394.3199,-67.8351 403.9027,-63.3162 393.5934,-60.8729 394.3199,-67.8351"/>
</g>
<!-- useMe/useMe.ts&#45;&gt;useMe/type.ts -->
<g id="edge7" class="edge">
<title>useMe/useMe.ts&#45;&gt;useMe/type.ts</title>
<path fill="none" stroke="#757575" d="M291.1828,-16.9231C385.218,-2.0279 566.4337,16.6482 711.1011,-28.6701 738.1421,-37.1409 764.1904,-56.8329 781.3774,-71.9639"/>
<polygon fill="#757575" stroke="#757575" points="779.3147,-74.8189 789.0683,-78.9563 784.0237,-69.6395 779.3147,-74.8189"/>
</g>
</g>
</svg>
