<?xml version="1.0" encoding="UTF-8" standalone="no"?>
<!DOCTYPE svg PUBLIC "-//W3C//DTD SVG 1.1//EN"
 "http://www.w3.org/Graphics/SVG/1.1/DTD/svg11.dtd">
<!-- Generated by graphviz version 2.40.1 (20161225.0304)
 -->
<!-- Title: G Pages: 1 -->
<svg width="145pt" height="111pt"
 viewBox="0.00 0.00 145.06 111.45" xmlns="http://www.w3.org/2000/svg" xmlns:xlink="http://www.w3.org/1999/xlink">
<g id="graph0" class="graph" transform="scale(1 1) rotate(0) translate(21.6 89.8485)">
<title>G</title>
<polygon fill="#111111" stroke="transparent" points="-21.6,21.6 -21.6,-89.8485 123.4618,-89.8485 123.4618,21.6 -21.6,21.6"/>
<!-- me/type.ts -->
<g id="node1" class="node">
<title>me/type.ts</title>
<path fill="none" stroke="#cfffac" d="M85.1232,-25.374C85.1232,-25.374 16.7386,-25.374 16.7386,-25.374 12.4887,-25.374 8.2388,-21.1241 8.2388,-16.8742 8.2388,-16.8742 8.2388,-8.3743 8.2388,-8.3743 8.2388,-4.1244 12.4887,.1255 16.7386,.1255 16.7386,.1255 85.1232,.1255 85.1232,.1255 89.3731,.1255 93.623,-4.1244 93.623,-8.3743 93.623,-8.3743 93.623,-16.8742 93.623,-16.8742 93.623,-21.1241 89.3731,-25.374 85.1232,-25.374"/>
<text text-anchor="middle" x="50.9309" y="-9.2485" font-family="Arial" font-size="15.00" fill="#cfffac">me/type.ts</text>
</g>
<!-- me/useMe.ts -->
<g id="node2" class="node">
<title>me/useMe.ts</title>
<path fill="none" stroke="#cfffac" d="M93.293,-68.374C93.293,-68.374 8.5688,-68.374 8.5688,-68.374 4.3189,-68.374 .069,-64.1241 .069,-59.8742 .069,-59.8742 .069,-51.3743 .069,-51.3743 .069,-47.1244 4.3189,-42.8745 8.5688,-42.8745 8.5688,-42.8745 93.293,-42.8745 93.293,-42.8745 97.5429,-42.8745 101.7928,-47.1244 101.7928,-51.3743 101.7928,-51.3743 101.7928,-59.8742 101.7928,-59.8742 101.7928,-64.1241 97.5429,-68.374 93.293,-68.374"/>
<text text-anchor="middle" x="50.9309" y="-52.2485" font-family="Arial" font-size="15.00" fill="#cfffac">me/useMe.ts</text>
</g>
</g>
</svg>
